<svg xmlns="http://www.w3.org/2000/svg" viewBox="0 0 760 260" width="760" height="260" role="img" aria-label="Glassy install history">
  <style>
  svg { color-scheme: light dark; }
  .title      { fill: #1a1a2e; font-size: 15px; font-weight: 600; }
  .subtitle   { fill: #6b7280; font-size: 11px; font-weight: 400; }
  .grid       { stroke: #e8e8ee; }
  .axis-label { fill: #8a8a9a; font-size: 10px; }
  .line-total   { stroke: #e8553d; }
  .line-vscode  { stroke: #5b7cfa; }
  .line-openvsx { stroke: #34c7a0; }
  .dot-total   { fill: transparent; stroke: #e8553d; }
  .dot-vscode  { fill: transparent; stroke: #5b7cfa; }
  .dot-openvsx { fill: transparent; stroke: #34c7a0; }
  .end-label       { fill: #1a1a2e; font-size: 11px; font-weight: 600; }
  .end-value       { fill: #6b7280; font-size: 11px; font-weight: 400; }
  .area-total-top    { stop-color: #e8553d; }
  .area-total-bottom { stop-color: #e8553d; }

  @media (prefers-color-scheme: dark) {
    .title      { fill: #e2e2e8; }
    .subtitle   { fill: #8b949e; }
    .grid       { stroke: #2d2d3d; }
    .axis-label { fill: #6e7681; }
    .line-total   { stroke: #ff9b85; }
    .line-vscode  { stroke: #8da4ff; }
    .line-openvsx { stroke: #5eead4; }
    .dot-total   { stroke: #ff9b85; }
    .dot-vscode  { stroke: #8da4ff; }
    .dot-openvsx { stroke: #5eead4; }
    .end-label       { fill: #e2e2e8; }
    .end-value       { fill: #8b949e; }
    .area-total-top    { stop-color: #ff9b85; }
    .area-total-bottom { stop-color: #ff9b85; }
  }
</style>
  <defs>
    <linearGradient id="areaGrad" x1="0" y1="0" x2="0" y2="1">
      <stop offset="0%" class="area-total-top" stop-opacity="0.18"/>
      <stop offset="60%" class="area-total-bottom" stop-opacity="0.04"/>
      <stop offset="100%" class="area-total-bottom" stop-opacity="0"/>
    </linearGradient>
  </defs>

  <text x="48" y="22" class="title" font-family="-apple-system, BlinkMacSystemFont, 'Segoe UI', Helvetica, sans-serif">Installs</text>
  <text x="48" y="37" class="subtitle" font-family="-apple-system, BlinkMacSystemFont, 'Segoe UI', Helvetica, sans-serif">Updated Aug 4</text>

  <line x1="48" y1="220" x2="640" y2="220" class="grid" stroke-width="0.7"/>
    <text x="40" y="223.5" class="axis-label" text-anchor="end" font-family="-apple-system, BlinkMacSystemFont, 'Segoe UI', Helvetica, sans-serif">0</text>
    <line x1="48" y1="162.66666666666669" x2="640" y2="162.66666666666669" class="grid" stroke-width="0.7"/>
    <text x="40" y="166.16666666666669" class="axis-label" text-anchor="end" font-family="-apple-system, BlinkMacSystemFont, 'Segoe UI', Helvetica, sans-serif">1k</text>
    <line x1="48" y1="105.33333333333334" x2="640" y2="105.33333333333334" class="grid" stroke-width="0.7"/>
    <text x="40" y="108.83333333333334" class="axis-label" text-anchor="end" font-family="-apple-system, BlinkMacSystemFont, 'Segoe UI', Helvetica, sans-serif">2k</text>
    <line x1="48" y1="48" x2="640" y2="48" class="grid" stroke-width="0.7"/>
    <text x="40" y="51.5" class="axis-label" text-anchor="end" font-family="-apple-system, BlinkMacSystemFont, 'Segoe UI', Helvetica, sans-serif">3k</text>
  <text x="48" y="248" class="axis-label" text-anchor="middle" font-family="-apple-system, BlinkMacSystemFont, 'Segoe UI', Helvetica, sans-serif">Mar 27</text>
    <text x="165.22772277227722" y="248" class="axis-label" text-anchor="middle" font-family="-apple-system, BlinkMacSystemFont, 'Segoe UI', Helvetica, sans-serif">May 15</text>
    <text x="282.45544554455444" y="248" class="axis-label" text-anchor="middle" font-family="-apple-system, BlinkMacSystemFont, 'Segoe UI', Helvetica, sans-serif">Jun 4</text>
    <text x="405.5445544554455" y="248" class="axis-label" text-anchor="middle" font-family="-apple-system, BlinkMacSystemFont, 'Segoe UI', Helvetica, sans-serif">Jun 25</text>
    <text x="522.7722772277227" y="248" class="axis-label" text-anchor="middle" font-family="-apple-system, BlinkMacSystemFont, 'Segoe UI', Helvetica, sans-serif">Jul 15</text>
    <text x="640" y="248" class="axis-label" text-anchor="middle" font-family="-apple-system, BlinkMacSystemFont, 'Segoe UI', Helvetica, sans-serif">Aug 4</text>

  <path d="M48.0,219.8 C49.0,218.4 51.9,213.7 53.9,211.7 C55.8,209.7 57.8,209.1 59.7,207.7 C61.7,206.4 63.6,204.4 65.6,203.7 C67.5,203.0 69.5,205.0 71.4,203.5 C73.4,202.0 75.4,196.6 77.3,194.9 C79.3,193.2 81.2,200.1 83.2,193.2 C85.1,186.2 87.1,160.3 89.0,153.3 C91.0,146.3 92.9,151.7 94.9,151.3 C96.8,150.8 98.8,150.7 100.8,150.5 C102.7,150.3 104.7,150.2 106.6,150.1 C108.6,150.0 110.5,149.9 112.5,149.7 C114.4,149.5 116.4,149.1 118.3,148.7 C120.3,148.2 122.2,147.4 124.2,147.0 C126.2,146.5 128.1,146.3 130.1,146.1 C132.0,145.9 134.0,146.0 135.9,145.6 C137.9,145.2 139.8,144.1 141.8,143.6 C143.7,143.1 145.7,142.9 147.6,142.6 C149.6,142.3 151.6,142.0 153.5,141.7 C155.5,141.4 157.4,141.4 159.4,140.8 C161.3,140.2 163.3,138.7 165.2,138.0 C167.2,137.4 169.1,137.2 171.1,136.9 C173.0,136.6 175.0,136.4 177.0,136.2 C178.9,136.1 180.9,136.5 182.8,136.1 C184.8,135.7 186.7,134.4 188.7,133.8 C190.6,133.2 192.6,133.0 194.5,132.5 C196.5,132.1 198.4,131.8 200.4,131.1 C202.3,130.4 204.3,129.0 206.3,128.3 C208.2,127.6 210.2,127.3 212.1,126.9 C214.1,126.5 216.0,126.3 218.0,126.0 C219.9,125.8 221.9,125.8 223.8,125.3 C225.8,124.9 227.7,124.0 229.7,123.6 C231.7,123.1 233.6,122.8 235.6,122.5 C237.5,122.2 239.5,122.0 241.4,121.7 C243.4,121.5 245.3,121.3 247.3,121.1 C249.2,120.9 251.2,120.6 253.1,120.4 C255.1,120.3 257.1,120.3 259.0,120.2 C261.0,120.2 262.9,121.0 264.9,120.2 C266.8,119.4 268.8,116.5 270.7,115.5 C272.7,114.5 274.6,114.6 276.6,114.2 C278.5,113.7 280.5,113.3 282.5,112.8 C284.4,112.4 286.4,111.9 288.3,111.6 C290.3,111.3 292.2,111.2 294.2,111.0 C296.1,110.8 298.1,110.4 300.0,110.2 C302.0,110.0 303.9,110.1 305.9,109.7 C307.9,109.4 309.8,108.6 311.8,108.1 C313.7,107.7 315.7,107.6 317.6,107.2 C319.6,106.9 321.5,106.4 323.5,106.2 C325.4,105.9 327.4,106.0 329.3,105.7 C331.3,105.5 333.3,104.8 335.2,104.5 C337.2,104.2 339.1,104.2 341.1,104.0 C343.0,103.7 345.0,103.5 346.9,103.2 C348.9,102.9 350.8,102.5 352.8,102.2 C354.7,101.9 356.7,101.5 358.7,101.2 C360.6,100.9 362.6,100.8 364.5,100.3 C366.5,99.9 368.4,99.2 370.4,98.7 C372.3,98.3 374.3,98.1 376.2,97.7 C378.2,97.4 380.1,97.0 382.1,96.6 C384.1,96.3 386.0,95.9 388.0,95.5 C389.9,95.2 391.9,94.8 393.8,94.6 C395.8,94.3 397.7,94.2 399.7,93.8 C401.6,93.4 403.6,92.9 405.5,92.4 C407.5,91.9 409.5,91.2 411.4,90.8 C413.4,90.5 415.3,90.5 417.3,90.3 C419.2,90.1 421.2,90.0 423.1,89.8 C425.1,89.6 427.0,89.3 429.0,88.9 C430.9,88.6 432.9,88.2 434.9,87.9 C436.8,87.6 438.8,87.3 440.7,86.9 C442.7,86.6 444.6,86.2 446.6,85.8 C448.5,85.5 450.5,85.3 452.4,85.0 C454.4,84.6 456.3,84.0 458.3,83.7 C460.3,83.3 462.2,83.0 464.2,82.8 C466.1,82.6 468.1,82.6 470.0,82.4 C472.0,82.2 473.9,81.9 475.9,81.8 C477.8,81.6 479.8,81.6 481.7,81.4 C483.7,81.2 485.7,80.9 487.6,80.6 C489.6,80.4 491.5,80.0 493.5,79.8 C495.4,79.5 497.4,79.3 499.3,79.1 C501.3,78.9 503.2,78.8 505.2,78.5 C507.1,78.2 509.1,77.5 511.0,77.2 C513.0,76.9 515.0,76.8 516.9,76.6 C518.9,76.3 520.8,76.1 522.8,75.6 C524.7,75.1 526.7,74.5 528.6,73.7 C530.6,72.9 532.5,71.5 534.5,70.9 C536.4,70.3 538.4,70.4 540.4,70.1 C542.3,69.9 544.3,69.7 546.2,69.5 C548.2,69.3 550.1,69.0 552.1,68.9 C554.0,68.7 556.0,68.7 557.9,68.6 C559.9,68.4 561.8,68.2 563.8,67.9 C565.8,67.6 567.7,67.1 569.7,66.6 C571.6,66.1 573.6,65.5 575.5,65.0 C577.5,64.4 579.4,63.7 581.4,63.2 C583.3,62.7 585.3,62.6 587.2,62.2 C589.2,61.9 591.2,61.5 593.1,61.1 C595.1,60.7 597.0,60.2 599.0,59.8 C600.9,59.4 602.9,59.1 604.8,58.8 C606.8,58.4 608.7,58.1 610.7,57.7 C612.6,57.3 614.6,56.8 616.6,56.4 C618.5,56.0 620.5,55.5 622.4,55.2 C624.4,54.9 626.3,54.9 628.3,54.5 C630.2,54.1 632.2,53.5 634.1,53.0 C636.1,52.5 639.0,51.7 640.0,51.4 L640.0,220.0 L48.0,220.0 Z" fill="url(#areaGrad)"/>
  <path d="M48.0,219.8 C49.0,218.5 51.9,213.8 53.9,211.9 C55.8,210.0 57.8,209.5 59.7,208.4 C61.7,207.3 63.6,205.6 65.6,205.1 C67.5,204.5 69.5,206.5 71.4,205.1 C73.4,203.7 75.4,198.4 77.3,196.8 C79.3,195.2 81.2,201.7 83.2,195.5 C85.1,189.2 87.1,165.5 89.0,159.1 C91.0,152.7 92.9,157.7 94.9,157.3 C96.8,156.9 98.8,156.8 100.8,156.7 C102.7,156.6 104.7,156.6 106.6,156.5 C108.6,156.4 110.5,156.4 112.5,156.1 C114.4,155.9 116.4,155.6 118.3,155.1 C120.3,154.6 122.2,153.7 124.2,153.4 C126.2,153.0 128.1,153.1 130.1,152.9 C132.0,152.8 134.0,153.0 135.9,152.6 C137.9,152.2 139.8,151.1 141.8,150.6 C143.7,150.1 145.7,150.0 147.6,149.7 C149.6,149.4 151.6,149.2 153.5,148.9 C155.5,148.6 157.4,148.6 159.4,148.0 C161.3,147.4 163.3,145.9 165.2,145.2 C167.2,144.6 169.1,144.5 171.1,144.2 C173.0,143.9 175.0,143.7 177.0,143.5 C178.9,143.4 180.9,143.8 182.8,143.4 C184.8,143.0 186.7,141.8 188.7,141.2 C190.6,140.7 192.6,140.5 194.5,140.1 C196.5,139.7 198.4,139.6 200.4,138.9 C202.3,138.3 204.3,136.9 206.3,136.3 C208.2,135.6 210.2,135.4 212.1,135.0 C214.1,134.7 216.0,134.5 218.0,134.2 C219.9,134.0 221.9,134.0 223.8,133.7 C225.8,133.3 227.7,132.5 229.7,132.1 C231.7,131.6 233.6,131.4 235.6,131.1 C237.5,130.9 239.5,130.6 241.4,130.4 C243.4,130.3 245.3,130.2 247.3,130.0 C249.2,129.8 251.2,129.5 253.1,129.4 C255.1,129.3 257.1,129.4 259.0,129.4 C261.0,129.4 262.9,130.2 264.9,129.4 C266.8,128.7 268.8,125.9 270.7,124.9 C272.7,124.0 274.6,124.0 276.6,123.6 C278.5,123.1 280.5,122.7 282.5,122.3 C284.4,121.9 286.4,121.3 288.3,121.0 C290.3,120.7 292.2,120.7 294.2,120.5 C296.1,120.2 298.1,119.9 300.0,119.7 C302.0,119.5 303.9,119.6 305.9,119.2 C307.9,118.9 309.8,118.0 311.8,117.6 C313.7,117.2 315.7,117.0 317.6,116.7 C319.6,116.4 321.5,115.9 323.5,115.7 C325.4,115.4 327.4,115.5 329.3,115.2 C331.3,114.9 333.3,114.3 335.2,114.0 C337.2,113.8 339.1,113.8 341.1,113.6 C343.0,113.4 345.0,113.2 346.9,112.9 C348.9,112.6 350.8,112.3 352.8,112.0 C354.7,111.7 356.7,111.4 358.7,111.1 C360.6,110.8 362.6,110.6 364.5,110.3 C366.5,109.9 368.4,109.2 370.4,108.8 C372.3,108.4 374.3,108.2 376.2,107.9 C378.2,107.5 380.1,107.2 382.1,106.8 C384.1,106.5 386.0,106.1 388.0,105.8 C389.9,105.5 391.9,105.1 393.8,104.9 C395.8,104.6 397.7,104.5 399.7,104.2 C401.6,103.8 403.6,103.3 405.5,102.8 C407.5,102.3 409.5,101.6 411.4,101.3 C413.4,101.0 415.3,101.0 417.3,100.9 C419.2,100.7 421.2,100.6 423.1,100.4 C425.1,100.2 427.0,99.9 429.0,99.6 C430.9,99.3 432.9,99.0 434.9,98.7 C436.8,98.4 438.8,98.1 440.7,97.8 C442.7,97.4 444.6,97.0 446.6,96.7 C448.5,96.4 450.5,96.2 452.4,95.9 C454.4,95.6 456.3,95.3 458.3,95.0 C460.3,94.7 462.2,94.4 464.2,94.2 C466.1,94.0 468.1,94.0 470.0,93.9 C472.0,93.7 473.9,93.4 475.9,93.3 C477.8,93.1 479.8,93.1 481.7,92.9 C483.7,92.8 485.7,92.5 487.6,92.3 C489.6,92.0 491.5,91.7 493.5,91.5 C495.4,91.2 497.4,91.0 499.3,90.8 C501.3,90.6 503.2,90.6 505.2,90.3 C507.1,90.0 509.1,89.4 511.0,89.1 C513.0,88.7 515.0,88.7 516.9,88.5 C518.9,88.2 520.8,88.0 522.8,87.6 C524.7,87.1 526.7,86.5 528.6,85.7 C530.6,85.0 532.5,83.5 534.5,83.0 C536.4,82.4 538.4,82.5 540.4,82.3 C542.3,82.1 544.3,81.9 546.2,81.7 C548.2,81.5 550.1,81.3 552.1,81.1 C554.0,81.0 556.0,81.1 557.9,80.9 C559.9,80.8 561.8,80.5 563.8,80.2 C565.8,79.9 567.7,79.5 569.7,79.1 C571.6,78.6 573.6,78.0 575.5,77.5 C577.5,76.9 579.4,76.2 581.4,75.7 C583.3,75.3 585.3,75.2 587.2,74.8 C589.2,74.5 591.2,74.2 593.1,73.8 C595.1,73.4 597.0,72.9 599.0,72.5 C600.9,72.2 602.9,71.9 604.8,71.6 C606.8,71.3 608.7,71.1 610.7,70.7 C612.6,70.3 614.6,69.8 616.6,69.4 C618.5,69.1 620.5,68.7 622.4,68.4 C624.4,68.1 626.3,68.1 628.3,67.7 C630.2,67.4 632.2,66.8 634.1,66.3 C636.1,65.9 639.0,65.1 640.0,64.9" fill="none" class="line-openvsx" stroke-width="1.8" stroke-linecap="round" stroke-linejoin="round"/>
  <path d="M48.0,219.9 C49.0,219.9 51.9,219.9 53.9,219.8 C55.8,219.7 57.8,219.5 59.7,219.3 C61.7,219.1 63.6,218.8 65.6,218.6 C67.5,218.5 69.5,218.5 71.4,218.4 C73.4,218.3 75.4,218.2 77.3,218.1 C79.3,217.9 81.2,218.3 83.2,217.7 C85.1,217.1 87.1,214.8 89.0,214.2 C91.0,213.6 92.9,214.0 94.9,214.0 C96.8,213.9 98.8,213.9 100.8,213.8 C102.7,213.8 104.7,213.7 106.6,213.6 C108.6,213.6 110.5,213.6 112.5,213.6 C114.4,213.6 116.4,213.6 118.3,213.6 C120.3,213.6 122.2,213.6 124.2,213.6 C126.2,213.5 128.1,213.3 130.1,213.2 C132.0,213.1 134.0,213.1 135.9,213.1 C137.9,213.0 139.8,213.0 141.8,213.0 C143.7,213.0 145.7,212.9 147.6,212.9 C149.6,212.9 151.6,212.8 153.5,212.8 C155.5,212.8 157.4,212.8 159.4,212.8 C161.3,212.8 163.3,212.8 165.2,212.8 C167.2,212.8 169.1,212.7 171.1,212.7 C173.0,212.7 175.0,212.7 177.0,212.7 C178.9,212.7 180.9,212.7 182.8,212.7 C184.8,212.6 186.7,212.6 188.7,212.5 C190.6,212.5 192.6,212.5 194.5,212.4 C196.5,212.4 198.4,212.2 200.4,212.1 C202.3,212.1 204.3,212.0 206.3,212.0 C208.2,211.9 210.2,211.9 212.1,211.9 C214.1,211.8 216.0,211.8 218.0,211.8 C219.9,211.8 221.9,211.7 223.8,211.7 C225.8,211.6 227.7,211.6 229.7,211.5 C231.7,211.5 233.6,211.4 235.6,211.4 C237.5,211.4 239.5,211.3 241.4,211.3 C243.4,211.2 245.3,211.2 247.3,211.1 C249.2,211.1 251.2,211.0 253.1,211.0 C255.1,211.0 257.1,210.9 259.0,210.8 C261.0,210.8 262.9,210.8 264.9,210.8 C266.8,210.7 268.8,210.6 270.7,210.6 C272.7,210.6 274.6,210.6 276.6,210.6 C278.5,210.6 280.5,210.5 282.5,210.5 C284.4,210.5 286.4,210.5 288.3,210.5 C290.3,210.5 292.2,210.5 294.2,210.5 C296.1,210.5 298.1,210.5 300.0,210.5 C302.0,210.5 303.9,210.5 305.9,210.5 C307.9,210.5 309.8,210.5 311.8,210.5 C313.7,210.5 315.7,210.5 317.6,210.5 C319.6,210.5 321.5,210.5 323.5,210.5 C325.4,210.5 327.4,210.5 329.3,210.5 C331.3,210.5 333.3,210.5 335.2,210.5 C337.2,210.5 339.1,210.4 341.1,210.4 C343.0,210.3 345.0,210.3 346.9,210.3 C348.9,210.2 350.8,210.2 352.8,210.2 C354.7,210.2 356.7,210.2 358.7,210.1 C360.6,210.1 362.6,210.1 364.5,210.1 C366.5,210.1 368.4,210.0 370.4,210.0 C372.3,209.9 374.3,209.9 376.2,209.9 C378.2,209.8 380.1,209.8 382.1,209.8 C384.1,209.8 386.0,209.8 388.0,209.7 C389.9,209.7 391.9,209.7 393.8,209.7 C395.8,209.7 397.7,209.6 399.7,209.6 C401.6,209.6 403.6,209.6 405.5,209.6 C407.5,209.5 409.5,209.5 411.4,209.5 C413.4,209.5 415.3,209.5 417.3,209.5 C419.2,209.4 421.2,209.4 423.1,209.4 C425.1,209.4 427.0,209.4 429.0,209.3 C430.9,209.3 432.9,209.3 434.9,209.2 C436.8,209.2 438.8,209.2 440.7,209.2 C442.7,209.1 444.6,209.1 446.6,209.1 C448.5,209.1 450.5,209.1 452.4,209.0 C454.4,209.0 456.3,208.7 458.3,208.6 C460.3,208.6 462.2,208.6 464.2,208.6 C466.1,208.6 468.1,208.6 470.0,208.5 C472.0,208.5 473.9,208.5 475.9,208.5 C477.8,208.5 479.8,208.4 481.7,208.4 C483.7,208.4 485.7,208.4 487.6,208.4 C489.6,208.3 491.5,208.3 493.5,208.3 C495.4,208.3 497.4,208.3 499.3,208.3 C501.3,208.3 503.2,208.2 505.2,208.2 C507.1,208.2 509.1,208.2 511.0,208.1 C513.0,208.1 515.0,208.1 516.9,208.1 C518.9,208.1 520.8,208.0 522.8,208.0 C524.7,208.0 526.7,208.0 528.6,208.0 C530.6,207.9 532.5,207.9 534.5,207.9 C536.4,207.9 538.4,207.9 540.4,207.8 C542.3,207.8 544.3,207.8 546.2,207.8 C548.2,207.8 550.1,207.7 552.1,207.7 C554.0,207.7 556.0,207.7 557.9,207.7 C559.9,207.7 561.8,207.7 563.8,207.7 C565.8,207.7 567.7,207.6 569.7,207.6 C571.6,207.5 573.6,207.5 575.5,207.5 C577.5,207.5 579.4,207.5 581.4,207.4 C583.3,207.4 585.3,207.4 587.2,207.4 C589.2,207.4 591.2,207.3 593.1,207.3 C595.1,207.3 597.0,207.3 599.0,207.3 C600.9,207.2 602.9,207.2 604.8,207.2 C606.8,207.1 608.7,207.1 610.7,207.0 C612.6,207.0 614.6,207.0 616.6,206.9 C618.5,206.9 620.5,206.8 622.4,206.8 C624.4,206.8 626.3,206.8 628.3,206.8 C630.2,206.7 632.2,206.7 634.1,206.6 C636.1,206.6 639.0,206.6 640.0,206.6" fill="none" class="line-vscode" stroke-width="1.8" stroke-linecap="round" stroke-linejoin="round"/>
  <path d="M48.0,219.8 C49.0,218.4 51.9,213.7 53.9,211.7 C55.8,209.7 57.8,209.1 59.7,207.7 C61.7,206.4 63.6,204.4 65.6,203.7 C67.5,203.0 69.5,205.0 71.4,203.5 C73.4,202.0 75.4,196.6 77.3,194.9 C79.3,193.2 81.2,200.1 83.2,193.2 C85.1,186.2 87.1,160.3 89.0,153.3 C91.0,146.3 92.9,151.7 94.9,151.3 C96.8,150.8 98.8,150.7 100.8,150.5 C102.7,150.3 104.7,150.2 106.6,150.1 C108.6,150.0 110.5,149.9 112.5,149.7 C114.4,149.5 116.4,149.1 118.3,148.7 C120.3,148.2 122.2,147.4 124.2,147.0 C126.2,146.5 128.1,146.3 130.1,146.1 C132.0,145.9 134.0,146.0 135.9,145.6 C137.9,145.2 139.8,144.1 141.8,143.6 C143.7,143.1 145.7,142.9 147.6,142.6 C149.6,142.3 151.6,142.0 153.5,141.7 C155.5,141.4 157.4,141.4 159.4,140.8 C161.3,140.2 163.3,138.7 165.2,138.0 C167.2,137.4 169.1,137.2 171.1,136.9 C173.0,136.6 175.0,136.4 177.0,136.2 C178.9,136.1 180.9,136.5 182.8,136.1 C184.8,135.7 186.7,134.4 188.7,133.8 C190.6,133.2 192.6,133.0 194.5,132.5 C196.5,132.1 198.4,131.8 200.4,131.1 C202.3,130.4 204.3,129.0 206.3,128.3 C208.2,127.6 210.2,127.3 212.1,126.9 C214.1,126.5 216.0,126.3 218.0,126.0 C219.9,125.8 221.9,125.8 223.8,125.3 C225.8,124.9 227.7,124.0 229.7,123.6 C231.7,123.1 233.6,122.8 235.6,122.5 C237.5,122.2 239.5,122.0 241.4,121.7 C243.4,121.5 245.3,121.3 247.3,121.1 C249.2,120.9 251.2,120.6 253.1,120.4 C255.1,120.3 257.1,120.3 259.0,120.2 C261.0,120.2 262.9,121.0 264.9,120.2 C266.8,119.4 268.8,116.5 270.7,115.5 C272.7,114.5 274.6,114.6 276.6,114.2 C278.5,113.7 280.5,113.3 282.5,112.8 C284.4,112.4 286.4,111.9 288.3,111.6 C290.3,111.3 292.2,111.2 294.2,111.0 C296.1,110.8 298.1,110.4 300.0,110.2 C302.0,110.0 303.9,110.1 305.9,109.7 C307.9,109.4 309.8,108.6 311.8,108.1 C313.7,107.7 315.7,107.6 317.6,107.2 C319.6,106.9 321.5,106.4 323.5,106.2 C325.4,105.9 327.4,106.0 329.3,105.7 C331.3,105.5 333.3,104.8 335.2,104.5 C337.2,104.2 339.1,104.2 341.1,104.0 C343.0,103.7 345.0,103.5 346.9,103.2 C348.9,102.9 350.8,102.5 352.8,102.2 C354.7,101.9 356.7,101.5 358.7,101.2 C360.6,100.9 362.6,100.8 364.5,100.3 C366.5,99.9 368.4,99.2 370.4,98.7 C372.3,98.3 374.3,98.1 376.2,97.7 C378.2,97.4 380.1,97.0 382.1,96.6 C384.1,96.3 386.0,95.9 388.0,95.5 C389.9,95.2 391.9,94.8 393.8,94.6 C395.8,94.3 397.7,94.2 399.7,93.8 C401.6,93.4 403.6,92.9 405.5,92.4 C407.5,91.9 409.5,91.2 411.4,90.8 C413.4,90.5 415.3,90.5 417.3,90.3 C419.2,90.1 421.2,90.0 423.1,89.8 C425.1,89.6 427.0,89.3 429.0,88.9 C430.9,88.6 432.9,88.2 434.9,87.9 C436.8,87.6 438.8,87.3 440.7,86.9 C442.7,86.6 444.6,86.2 446.6,85.8 C448.5,85.5 450.5,85.3 452.4,85.0 C454.4,84.6 456.3,84.0 458.3,83.7 C460.3,83.3 462.2,83.0 464.2,82.8 C466.1,82.6 468.1,82.6 470.0,82.4 C472.0,82.2 473.9,81.9 475.9,81.8 C477.8,81.6 479.8,81.6 481.7,81.4 C483.7,81.2 485.7,80.9 487.6,80.6 C489.6,80.4 491.5,80.0 493.5,79.8 C495.4,79.5 497.4,79.3 499.3,79.1 C501.3,78.9 503.2,78.8 505.2,78.5 C507.1,78.2 509.1,77.5 511.0,77.2 C513.0,76.9 515.0,76.8 516.9,76.6 C518.9,76.3 520.8,76.1 522.8,75.6 C524.7,75.1 526.7,74.5 528.6,73.7 C530.6,72.9 532.5,71.5 534.5,70.9 C536.4,70.3 538.4,70.4 540.4,70.1 C542.3,69.9 544.3,69.7 546.2,69.5 C548.2,69.3 550.1,69.0 552.1,68.9 C554.0,68.7 556.0,68.7 557.9,68.6 C559.9,68.4 561.8,68.2 563.8,67.9 C565.8,67.6 567.7,67.1 569.7,66.6 C571.6,66.1 573.6,65.5 575.5,65.0 C577.5,64.4 579.4,63.7 581.4,63.2 C583.3,62.7 585.3,62.6 587.2,62.2 C589.2,61.9 591.2,61.5 593.1,61.1 C595.1,60.7 597.0,60.2 599.0,59.8 C600.9,59.4 602.9,59.1 604.8,58.8 C606.8,58.4 608.7,58.1 610.7,57.7 C612.6,57.3 614.6,56.8 616.6,56.4 C618.5,56.0 620.5,55.5 622.4,55.2 C624.4,54.9 626.3,54.9 628.3,54.5 C630.2,54.1 632.2,53.5 634.1,53.0 C636.1,52.5 639.0,51.7 640.0,51.4" fill="none" class="line-total" stroke-width="2.5" stroke-linecap="round" stroke-linejoin="round"/>

  <circle cx="640" cy="51.44" r="4.5" class="dot-total" stroke-width="2"/>
    <text x="658" y="55.44" class="end-label" font-family="-apple-system, BlinkMacSystemFont, 'Segoe UI', Helvetica, sans-serif">Total</text>
    <text x="697" y="55.44" class="end-value" font-family="-apple-system, BlinkMacSystemFont, 'Segoe UI', Helvetica, sans-serif">2.9k</text>
    <circle cx="640" cy="64.856" r="3.5" class="dot-openvsx" stroke-width="1.8"/>
    <text x="658" y="73.44" class="end-label" font-family="-apple-system, BlinkMacSystemFont, 'Segoe UI', Helvetica, sans-serif">Open VSX</text>
    <text x="716.8" y="73.44" class="end-value" font-family="-apple-system, BlinkMacSystemFont, 'Segoe UI', Helvetica, sans-serif">2.7k</text>
    <circle cx="640" cy="206.584" r="3.5" class="dot-vscode" stroke-width="1.8"/>
    <text x="658" y="210.584" class="end-label" font-family="-apple-system, BlinkMacSystemFont, 'Segoe UI', Helvetica, sans-serif">VS Code</text>
    <text x="710.2" y="210.584" class="end-value" font-family="-apple-system, BlinkMacSystemFont, 'Segoe UI', Helvetica, sans-serif">234</text>
</svg>