<svg xmlns="http://www.w3.org/2000/svg" viewBox="0 0 760 260" width="760" height="260" role="img" aria-label="Glassy install history">
  <style>
  svg { color-scheme: light dark; }
  .title      { fill: #1a1a2e; font-size: 15px; font-weight: 600; }
  .subtitle   { fill: #6b7280; font-size: 11px; font-weight: 400; }
  .grid       { stroke: #e8e8ee; }
  .axis-label { fill: #8a8a9a; font-size: 10px; }
  .line-total   { stroke: #e8553d; }
  .line-vscode  { stroke: #5b7cfa; }
  .line-openvsx { stroke: #34c7a0; }
  .dot-total   { fill: transparent; stroke: #e8553d; }
  .dot-vscode  { fill: transparent; stroke: #5b7cfa; }
  .dot-openvsx { fill: transparent; stroke: #34c7a0; }
  .end-label       { fill: #1a1a2e; font-size: 11px; font-weight: 600; }
  .end-value       { fill: #6b7280; font-size: 11px; font-weight: 400; }
  .area-total-top    { stop-color: #e8553d; }
  .area-total-bottom { stop-color: #e8553d; }

  @media (prefers-color-scheme: dark) {
    .title      { fill: #e2e2e8; }
    .subtitle   { fill: #8b949e; }
    .grid       { stroke: #2d2d3d; }
    .axis-label { fill: #6e7681; }
    .line-total   { stroke: #ff9b85; }
    .line-vscode  { stroke: #8da4ff; }
    .line-openvsx { stroke: #5eead4; }
    .dot-total   { stroke: #ff9b85; }
    .dot-vscode  { stroke: #8da4ff; }
    .dot-openvsx { stroke: #5eead4; }
    .end-label       { fill: #e2e2e8; }
    .end-value       { fill: #8b949e; }
    .area-total-top    { stop-color: #ff9b85; }
    .area-total-bottom { stop-color: #ff9b85; }
  }
</style>
  <defs>
    <linearGradient id="areaGrad" x1="0" y1="0" x2="0" y2="1">
      <stop offset="0%" class="area-total-top" stop-opacity="0.18"/>
      <stop offset="60%" class="area-total-bottom" stop-opacity="0.04"/>
      <stop offset="100%" class="area-total-bottom" stop-opacity="0"/>
    </linearGradient>
  </defs>

  <text x="48" y="22" class="title" font-family="-apple-system, BlinkMacSystemFont, 'Segoe UI', Helvetica, sans-serif">Installs</text>
  <text x="48" y="37" class="subtitle" font-family="-apple-system, BlinkMacSystemFont, 'Segoe UI', Helvetica, sans-serif">Updated Jul 7</text>

  <line x1="48" y1="220" x2="640" y2="220" class="grid" stroke-width="0.7"/>
    <text x="40" y="223.5" class="axis-label" text-anchor="end" font-family="-apple-system, BlinkMacSystemFont, 'Segoe UI', Helvetica, sans-serif">0</text>
    <line x1="48" y1="162.66666666666669" x2="640" y2="162.66666666666669" class="grid" stroke-width="0.7"/>
    <text x="40" y="166.16666666666669" class="axis-label" text-anchor="end" font-family="-apple-system, BlinkMacSystemFont, 'Segoe UI', Helvetica, sans-serif">1k</text>
    <line x1="48" y1="105.33333333333334" x2="640" y2="105.33333333333334" class="grid" stroke-width="0.7"/>
    <text x="40" y="108.83333333333334" class="axis-label" text-anchor="end" font-family="-apple-system, BlinkMacSystemFont, 'Segoe UI', Helvetica, sans-serif">2k</text>
    <line x1="48" y1="48" x2="640" y2="48" class="grid" stroke-width="0.7"/>
    <text x="40" y="51.5" class="axis-label" text-anchor="end" font-family="-apple-system, BlinkMacSystemFont, 'Segoe UI', Helvetica, sans-serif">3k</text>
  <text x="48" y="248" class="axis-label" text-anchor="middle" font-family="-apple-system, BlinkMacSystemFont, 'Segoe UI', Helvetica, sans-serif">Mar 27</text>
    <text x="169.64383561643837" y="248" class="axis-label" text-anchor="middle" font-family="-apple-system, BlinkMacSystemFont, 'Segoe UI', Helvetica, sans-serif">May 10</text>
    <text x="283.17808219178085" y="248" class="axis-label" text-anchor="middle" font-family="-apple-system, BlinkMacSystemFont, 'Segoe UI', Helvetica, sans-serif">May 24</text>
    <text x="404.82191780821915" y="248" class="axis-label" text-anchor="middle" font-family="-apple-system, BlinkMacSystemFont, 'Segoe UI', Helvetica, sans-serif">Jun 8</text>
    <text x="518.3561643835617" y="248" class="axis-label" text-anchor="middle" font-family="-apple-system, BlinkMacSystemFont, 'Segoe UI', Helvetica, sans-serif">Jun 22</text>
    <text x="640" y="248" class="axis-label" text-anchor="middle" font-family="-apple-system, BlinkMacSystemFont, 'Segoe UI', Helvetica, sans-serif">Jul 7</text>

  <path d="M48.0,219.8 C49.4,218.4 53.4,213.7 56.1,211.7 C58.8,209.7 61.5,209.1 64.2,207.7 C66.9,206.4 69.6,204.4 72.3,203.7 C75.0,203.0 77.7,205.0 80.4,203.5 C83.1,202.0 85.8,196.6 88.5,194.9 C91.3,193.2 94.0,200.1 96.7,193.2 C99.4,186.2 102.1,160.3 104.8,153.3 C107.5,146.3 110.2,151.7 112.9,151.3 C115.6,150.8 118.3,150.7 121.0,150.5 C123.7,150.3 126.4,150.2 129.1,150.1 C131.8,150.0 134.5,149.9 137.2,149.7 C139.9,149.5 142.6,149.1 145.3,148.7 C148.0,148.2 150.7,147.4 153.4,147.0 C156.1,146.5 158.8,146.3 161.5,146.1 C164.2,145.9 166.9,146.0 169.6,145.6 C172.3,145.2 175.1,144.1 177.8,143.6 C180.5,143.1 183.2,142.9 185.9,142.6 C188.6,142.3 191.3,142.0 194.0,141.7 C196.7,141.4 199.4,141.4 202.1,140.8 C204.8,140.2 207.5,138.7 210.2,138.0 C212.9,137.4 215.6,137.2 218.3,136.9 C221.0,136.6 223.7,136.4 226.4,136.2 C229.1,136.1 231.8,136.5 234.5,136.1 C237.2,135.7 239.9,134.4 242.6,133.8 C245.3,133.2 248.0,133.0 250.7,132.5 C253.4,132.1 256.1,131.8 258.8,131.1 C261.6,130.4 264.3,129.0 267.0,128.3 C269.7,127.6 272.4,127.3 275.1,126.9 C277.8,126.5 280.5,126.3 283.2,126.0 C285.9,125.8 288.6,125.8 291.3,125.3 C294.0,124.9 296.7,124.0 299.4,123.6 C302.1,123.1 304.8,122.8 307.5,122.5 C310.2,122.2 312.9,122.0 315.6,121.7 C318.3,121.5 321.0,121.3 323.7,121.1 C326.4,120.9 329.1,120.6 331.8,120.4 C334.5,120.3 337.2,120.3 339.9,120.2 C342.6,120.2 345.4,121.0 348.1,120.2 C350.8,119.4 353.5,116.5 356.2,115.5 C358.9,114.5 361.6,114.6 364.3,114.2 C367.0,113.7 369.7,113.3 372.4,112.8 C375.1,112.4 377.8,111.9 380.5,111.6 C383.2,111.3 385.9,111.2 388.6,111.0 C391.3,110.8 394.0,110.4 396.7,110.2 C399.4,110.0 402.1,110.1 404.8,109.7 C407.5,109.4 410.2,108.6 412.9,108.1 C415.6,107.7 418.3,107.6 421.0,107.2 C423.7,106.9 426.4,106.4 429.2,106.2 C431.9,105.9 434.6,106.0 437.3,105.7 C440.0,105.5 442.7,104.8 445.4,104.5 C448.1,104.2 450.8,104.2 453.5,104.0 C456.2,103.7 458.9,103.5 461.6,103.2 C464.3,102.9 467.0,102.5 469.7,102.2 C472.4,101.9 475.1,101.5 477.8,101.2 C480.5,100.9 483.2,100.8 485.9,100.3 C488.6,99.9 491.3,99.2 494.0,98.7 C496.7,98.3 499.4,98.1 502.1,97.7 C504.8,97.4 507.5,97.0 510.2,96.6 C512.9,96.3 515.7,95.9 518.4,95.5 C521.1,95.2 523.8,94.8 526.5,94.6 C529.2,94.3 531.9,94.2 534.6,93.8 C537.3,93.4 540.0,92.9 542.7,92.4 C545.4,91.9 548.1,91.2 550.8,90.8 C553.5,90.5 556.2,90.5 558.9,90.3 C561.6,90.1 564.3,90.0 567.0,89.8 C569.7,89.6 572.4,89.3 575.1,88.9 C577.8,88.6 580.5,88.2 583.2,87.9 C585.9,87.6 588.6,87.3 591.3,86.9 C594.0,86.6 596.7,86.2 599.5,85.8 C602.2,85.5 604.9,85.3 607.6,85.0 C610.3,84.6 613.0,84.0 615.7,83.7 C618.4,83.3 621.1,83.0 623.8,82.8 C626.5,82.6 629.2,82.6 631.9,82.4 C634.6,82.2 638.6,81.9 640.0,81.8 L640.0,220.0 L48.0,220.0 Z" fill="url(#areaGrad)"/>
  <path d="M48.0,219.8 C49.4,218.5 53.4,213.8 56.1,211.9 C58.8,210.0 61.5,209.5 64.2,208.4 C66.9,207.3 69.6,205.6 72.3,205.1 C75.0,204.5 77.7,206.5 80.4,205.1 C83.1,203.7 85.8,198.4 88.5,196.8 C91.3,195.2 94.0,201.7 96.7,195.5 C99.4,189.2 102.1,165.5 104.8,159.1 C107.5,152.7 110.2,157.7 112.9,157.3 C115.6,156.9 118.3,156.8 121.0,156.7 C123.7,156.6 126.4,156.6 129.1,156.5 C131.8,156.4 134.5,156.4 137.2,156.1 C139.9,155.9 142.6,155.6 145.3,155.1 C148.0,154.6 150.7,153.7 153.4,153.4 C156.1,153.0 158.8,153.1 161.5,152.9 C164.2,152.8 166.9,153.0 169.6,152.6 C172.3,152.2 175.1,151.1 177.8,150.6 C180.5,150.1 183.2,150.0 185.9,149.7 C188.6,149.4 191.3,149.2 194.0,148.9 C196.7,148.6 199.4,148.6 202.1,148.0 C204.8,147.4 207.5,145.9 210.2,145.2 C212.9,144.6 215.6,144.5 218.3,144.2 C221.0,143.9 223.7,143.7 226.4,143.5 C229.1,143.4 231.8,143.8 234.5,143.4 C237.2,143.0 239.9,141.8 242.6,141.2 C245.3,140.7 248.0,140.5 250.7,140.1 C253.4,139.7 256.1,139.6 258.8,138.9 C261.6,138.3 264.3,136.9 267.0,136.3 C269.7,135.6 272.4,135.4 275.1,135.0 C277.8,134.7 280.5,134.5 283.2,134.2 C285.9,134.0 288.6,134.0 291.3,133.7 C294.0,133.3 296.7,132.5 299.4,132.1 C302.1,131.6 304.8,131.4 307.5,131.1 C310.2,130.9 312.9,130.6 315.6,130.4 C318.3,130.3 321.0,130.2 323.7,130.0 C326.4,129.8 329.1,129.5 331.8,129.4 C334.5,129.3 337.2,129.4 339.9,129.4 C342.6,129.4 345.4,130.2 348.1,129.4 C350.8,128.7 353.5,125.9 356.2,124.9 C358.9,124.0 361.6,124.0 364.3,123.6 C367.0,123.1 369.7,122.7 372.4,122.3 C375.1,121.9 377.8,121.3 380.5,121.0 C383.2,120.7 385.9,120.7 388.6,120.5 C391.3,120.2 394.0,119.9 396.7,119.7 C399.4,119.5 402.1,119.6 404.8,119.2 C407.5,118.9 410.2,118.0 412.9,117.6 C415.6,117.2 418.3,117.0 421.0,116.7 C423.7,116.4 426.4,115.9 429.2,115.7 C431.9,115.4 434.6,115.5 437.3,115.2 C440.0,114.9 442.7,114.3 445.4,114.0 C448.1,113.8 450.8,113.8 453.5,113.6 C456.2,113.4 458.9,113.2 461.6,112.9 C464.3,112.6 467.0,112.3 469.7,112.0 C472.4,111.7 475.1,111.4 477.8,111.1 C480.5,110.8 483.2,110.6 485.9,110.3 C488.6,109.9 491.3,109.2 494.0,108.8 C496.7,108.4 499.4,108.2 502.1,107.9 C504.8,107.5 507.5,107.2 510.2,106.8 C512.9,106.5 515.7,106.1 518.4,105.8 C521.1,105.5 523.8,105.1 526.5,104.9 C529.2,104.6 531.9,104.5 534.6,104.2 C537.3,103.8 540.0,103.3 542.7,102.8 C545.4,102.3 548.1,101.6 550.8,101.3 C553.5,101.0 556.2,101.0 558.9,100.9 C561.6,100.7 564.3,100.6 567.0,100.4 C569.7,100.2 572.4,99.9 575.1,99.6 C577.8,99.3 580.5,99.0 583.2,98.7 C585.9,98.4 588.6,98.1 591.3,97.8 C594.0,97.4 596.7,97.0 599.5,96.7 C602.2,96.4 604.9,96.2 607.6,95.9 C610.3,95.6 613.0,95.3 615.7,95.0 C618.4,94.7 621.1,94.4 623.8,94.2 C626.5,94.0 629.2,94.0 631.9,93.9 C634.6,93.7 638.6,93.4 640.0,93.3" fill="none" class="line-openvsx" stroke-width="1.8" stroke-linecap="round" stroke-linejoin="round"/>
  <path d="M48.0,219.9 C49.4,219.9 53.4,219.9 56.1,219.8 C58.8,219.7 61.5,219.5 64.2,219.3 C66.9,219.1 69.6,218.8 72.3,218.6 C75.0,218.5 77.7,218.5 80.4,218.4 C83.1,218.3 85.8,218.2 88.5,218.1 C91.3,217.9 94.0,218.3 96.7,217.7 C99.4,217.1 102.1,214.8 104.8,214.2 C107.5,213.6 110.2,214.0 112.9,214.0 C115.6,213.9 118.3,213.9 121.0,213.8 C123.7,213.8 126.4,213.7 129.1,213.6 C131.8,213.6 134.5,213.6 137.2,213.6 C139.9,213.6 142.6,213.6 145.3,213.6 C148.0,213.6 150.7,213.6 153.4,213.6 C156.1,213.5 158.8,213.3 161.5,213.2 C164.2,213.1 166.9,213.1 169.6,213.1 C172.3,213.0 175.1,213.0 177.8,213.0 C180.5,213.0 183.2,212.9 185.9,212.9 C188.6,212.9 191.3,212.8 194.0,212.8 C196.7,212.8 199.4,212.8 202.1,212.8 C204.8,212.8 207.5,212.8 210.2,212.8 C212.9,212.8 215.6,212.7 218.3,212.7 C221.0,212.7 223.7,212.7 226.4,212.7 C229.1,212.7 231.8,212.7 234.5,212.7 C237.2,212.6 239.9,212.6 242.6,212.5 C245.3,212.5 248.0,212.5 250.7,212.4 C253.4,212.4 256.1,212.2 258.8,212.1 C261.6,212.1 264.3,212.0 267.0,212.0 C269.7,211.9 272.4,211.9 275.1,211.9 C277.8,211.8 280.5,211.8 283.2,211.8 C285.9,211.8 288.6,211.7 291.3,211.7 C294.0,211.6 296.7,211.6 299.4,211.5 C302.1,211.5 304.8,211.4 307.5,211.4 C310.2,211.4 312.9,211.3 315.6,211.3 C318.3,211.2 321.0,211.2 323.7,211.1 C326.4,211.1 329.1,211.0 331.8,211.0 C334.5,211.0 337.2,210.9 339.9,210.8 C342.6,210.8 345.4,210.8 348.1,210.8 C350.8,210.7 353.5,210.6 356.2,210.6 C358.9,210.6 361.6,210.6 364.3,210.6 C367.0,210.6 369.7,210.5 372.4,210.5 C375.1,210.5 377.8,210.5 380.5,210.5 C383.2,210.5 385.9,210.5 388.6,210.5 C391.3,210.5 394.0,210.5 396.7,210.5 C399.4,210.5 402.1,210.5 404.8,210.5 C407.5,210.5 410.2,210.5 412.9,210.5 C415.6,210.5 418.3,210.5 421.0,210.5 C423.7,210.5 426.4,210.5 429.2,210.5 C431.9,210.5 434.6,210.5 437.3,210.5 C440.0,210.5 442.7,210.5 445.4,210.5 C448.1,210.5 450.8,210.4 453.5,210.4 C456.2,210.3 458.9,210.3 461.6,210.3 C464.3,210.2 467.0,210.2 469.7,210.2 C472.4,210.2 475.1,210.2 477.8,210.1 C480.5,210.1 483.2,210.1 485.9,210.1 C488.6,210.1 491.3,210.0 494.0,210.0 C496.7,209.9 499.4,209.9 502.1,209.9 C504.8,209.8 507.5,209.8 510.2,209.8 C512.9,209.8 515.7,209.8 518.4,209.7 C521.1,209.7 523.8,209.7 526.5,209.7 C529.2,209.7 531.9,209.6 534.6,209.6 C537.3,209.6 540.0,209.6 542.7,209.6 C545.4,209.5 548.1,209.5 550.8,209.5 C553.5,209.5 556.2,209.5 558.9,209.5 C561.6,209.4 564.3,209.4 567.0,209.4 C569.7,209.4 572.4,209.4 575.1,209.3 C577.8,209.3 580.5,209.3 583.2,209.2 C585.9,209.2 588.6,209.2 591.3,209.2 C594.0,209.1 596.7,209.1 599.5,209.1 C602.2,209.1 604.9,209.1 607.6,209.0 C610.3,209.0 613.0,208.7 615.7,208.6 C618.4,208.6 621.1,208.6 623.8,208.6 C626.5,208.6 629.2,208.6 631.9,208.5 C634.6,208.5 638.6,208.5 640.0,208.5" fill="none" class="line-vscode" stroke-width="1.8" stroke-linecap="round" stroke-linejoin="round"/>
  <path d="M48.0,219.8 C49.4,218.4 53.4,213.7 56.1,211.7 C58.8,209.7 61.5,209.1 64.2,207.7 C66.9,206.4 69.6,204.4 72.3,203.7 C75.0,203.0 77.7,205.0 80.4,203.5 C83.1,202.0 85.8,196.6 88.5,194.9 C91.3,193.2 94.0,200.1 96.7,193.2 C99.4,186.2 102.1,160.3 104.8,153.3 C107.5,146.3 110.2,151.7 112.9,151.3 C115.6,150.8 118.3,150.7 121.0,150.5 C123.7,150.3 126.4,150.2 129.1,150.1 C131.8,150.0 134.5,149.9 137.2,149.7 C139.9,149.5 142.6,149.1 145.3,148.7 C148.0,148.2 150.7,147.4 153.4,147.0 C156.1,146.5 158.8,146.3 161.5,146.1 C164.2,145.9 166.9,146.0 169.6,145.6 C172.3,145.2 175.1,144.1 177.8,143.6 C180.5,143.1 183.2,142.9 185.9,142.6 C188.6,142.3 191.3,142.0 194.0,141.7 C196.7,141.4 199.4,141.4 202.1,140.8 C204.8,140.2 207.5,138.7 210.2,138.0 C212.9,137.4 215.6,137.2 218.3,136.9 C221.0,136.6 223.7,136.4 226.4,136.2 C229.1,136.1 231.8,136.5 234.5,136.1 C237.2,135.7 239.9,134.4 242.6,133.8 C245.3,133.2 248.0,133.0 250.7,132.5 C253.4,132.1 256.1,131.8 258.8,131.1 C261.6,130.4 264.3,129.0 267.0,128.3 C269.7,127.6 272.4,127.3 275.1,126.9 C277.8,126.5 280.5,126.3 283.2,126.0 C285.9,125.8 288.6,125.8 291.3,125.3 C294.0,124.9 296.7,124.0 299.4,123.6 C302.1,123.1 304.8,122.8 307.5,122.5 C310.2,122.2 312.9,122.0 315.6,121.7 C318.3,121.5 321.0,121.3 323.7,121.1 C326.4,120.9 329.1,120.6 331.8,120.4 C334.5,120.3 337.2,120.3 339.9,120.2 C342.6,120.2 345.4,121.0 348.1,120.2 C350.8,119.4 353.5,116.5 356.2,115.5 C358.9,114.5 361.6,114.6 364.3,114.2 C367.0,113.7 369.7,113.3 372.4,112.8 C375.1,112.4 377.8,111.9 380.5,111.6 C383.2,111.3 385.9,111.2 388.6,111.0 C391.3,110.8 394.0,110.4 396.7,110.2 C399.4,110.0 402.1,110.1 404.8,109.7 C407.5,109.4 410.2,108.6 412.9,108.1 C415.6,107.7 418.3,107.6 421.0,107.2 C423.7,106.9 426.4,106.4 429.2,106.2 C431.9,105.9 434.6,106.0 437.3,105.7 C440.0,105.5 442.7,104.8 445.4,104.5 C448.1,104.2 450.8,104.2 453.5,104.0 C456.2,103.7 458.9,103.5 461.6,103.2 C464.3,102.9 467.0,102.5 469.7,102.2 C472.4,101.9 475.1,101.5 477.8,101.2 C480.5,100.9 483.2,100.8 485.9,100.3 C488.6,99.9 491.3,99.2 494.0,98.7 C496.7,98.3 499.4,98.1 502.1,97.7 C504.8,97.4 507.5,97.0 510.2,96.6 C512.9,96.3 515.7,95.9 518.4,95.5 C521.1,95.2 523.8,94.8 526.5,94.6 C529.2,94.3 531.9,94.2 534.6,93.8 C537.3,93.4 540.0,92.9 542.7,92.4 C545.4,91.9 548.1,91.2 550.8,90.8 C553.5,90.5 556.2,90.5 558.9,90.3 C561.6,90.1 564.3,90.0 567.0,89.8 C569.7,89.6 572.4,89.3 575.1,88.9 C577.8,88.6 580.5,88.2 583.2,87.9 C585.9,87.6 588.6,87.3 591.3,86.9 C594.0,86.6 596.7,86.2 599.5,85.8 C602.2,85.5 604.9,85.3 607.6,85.0 C610.3,84.6 613.0,84.0 615.7,83.7 C618.4,83.3 621.1,83.0 623.8,82.8 C626.5,82.6 629.2,82.6 631.9,82.4 C634.6,82.2 638.6,81.9 640.0,81.8" fill="none" class="line-total" stroke-width="2.5" stroke-linecap="round" stroke-linejoin="round"/>

  <circle cx="640" cy="81.76933333333335" r="4.5" class="dot-total" stroke-width="2"/>
    <text x="658" y="85.76933333333335" class="end-label" font-family="-apple-system, BlinkMacSystemFont, 'Segoe UI', Helvetica, sans-serif">Total</text>
    <text x="697" y="85.76933333333335" class="end-value" font-family="-apple-system, BlinkMacSystemFont, 'Segoe UI', Helvetica, sans-serif">2.4k</text>
    <circle cx="640" cy="93.29333333333332" r="3.5" class="dot-openvsx" stroke-width="1.8"/>
    <text x="658" y="103.76933333333335" class="end-label" font-family="-apple-system, BlinkMacSystemFont, 'Segoe UI', Helvetica, sans-serif">Open VSX</text>
    <text x="716.8" y="103.76933333333335" class="end-value" font-family="-apple-system, BlinkMacSystemFont, 'Segoe UI', Helvetica, sans-serif">2.2k</text>
    <circle cx="640" cy="208.476" r="3.5" class="dot-vscode" stroke-width="1.8"/>
    <text x="658" y="212.476" class="end-label" font-family="-apple-system, BlinkMacSystemFont, 'Segoe UI', Helvetica, sans-serif">VS Code</text>
    <text x="710.2" y="212.476" class="end-value" font-family="-apple-system, BlinkMacSystemFont, 'Segoe UI', Helvetica, sans-serif">201</text>
</svg>