<svg xmlns="http://www.w3.org/2000/svg" viewBox="0 0 760 260" width="760" height="260" role="img" aria-label="Glassy install history">
  <style>
  svg { color-scheme: light dark; }
  .title      { fill: #1a1a2e; font-size: 15px; font-weight: 600; }
  .subtitle   { fill: #6b7280; font-size: 11px; font-weight: 400; }
  .grid       { stroke: #e8e8ee; }
  .axis-label { fill: #8a8a9a; font-size: 10px; }
  .line-total   { stroke: #e8553d; }
  .line-vscode  { stroke: #5b7cfa; }
  .line-openvsx { stroke: #34c7a0; }
  .dot-total   { fill: transparent; stroke: #e8553d; }
  .dot-vscode  { fill: transparent; stroke: #5b7cfa; }
  .dot-openvsx { fill: transparent; stroke: #34c7a0; }
  .end-label       { fill: #1a1a2e; font-size: 11px; font-weight: 600; }
  .end-value       { fill: #6b7280; font-size: 11px; font-weight: 400; }
  .area-total-top    { stop-color: #e8553d; }
  .area-total-bottom { stop-color: #e8553d; }

  @media (prefers-color-scheme: dark) {
    .title      { fill: #e2e2e8; }
    .subtitle   { fill: #8b949e; }
    .grid       { stroke: #2d2d3d; }
    .axis-label { fill: #6e7681; }
    .line-total   { stroke: #ff9b85; }
    .line-vscode  { stroke: #8da4ff; }
    .line-openvsx { stroke: #5eead4; }
    .dot-total   { stroke: #ff9b85; }
    .dot-vscode  { stroke: #8da4ff; }
    .dot-openvsx { stroke: #5eead4; }
    .end-label       { fill: #e2e2e8; }
    .end-value       { fill: #8b949e; }
    .area-total-top    { stop-color: #ff9b85; }
    .area-total-bottom { stop-color: #ff9b85; }
  }
</style>
  <defs>
    <linearGradient id="areaGrad" x1="0" y1="0" x2="0" y2="1">
      <stop offset="0%" class="area-total-top" stop-opacity="0.18"/>
      <stop offset="60%" class="area-total-bottom" stop-opacity="0.04"/>
      <stop offset="100%" class="area-total-bottom" stop-opacity="0"/>
    </linearGradient>
  </defs>

  <text x="48" y="22" class="title" font-family="-apple-system, BlinkMacSystemFont, 'Segoe UI', Helvetica, sans-serif">Installs</text>
  <text x="48" y="37" class="subtitle" font-family="-apple-system, BlinkMacSystemFont, 'Segoe UI', Helvetica, sans-serif">Updated May 12</text>

  <line x1="48" y1="220" x2="640" y2="220" class="grid" stroke-width="0.7"/>
    <text x="40" y="223.5" class="axis-label" text-anchor="end" font-family="-apple-system, BlinkMacSystemFont, 'Segoe UI', Helvetica, sans-serif">0</text>
    <line x1="48" y1="162.66666666666669" x2="640" y2="162.66666666666669" class="grid" stroke-width="0.7"/>
    <text x="40" y="166.16666666666669" class="axis-label" text-anchor="end" font-family="-apple-system, BlinkMacSystemFont, 'Segoe UI', Helvetica, sans-serif">500</text>
    <line x1="48" y1="105.33333333333334" x2="640" y2="105.33333333333334" class="grid" stroke-width="0.7"/>
    <text x="40" y="108.83333333333334" class="axis-label" text-anchor="end" font-family="-apple-system, BlinkMacSystemFont, 'Segoe UI', Helvetica, sans-serif">1k</text>
    <line x1="48" y1="48" x2="640" y2="48" class="grid" stroke-width="0.7"/>
    <text x="40" y="51.5" class="axis-label" text-anchor="end" font-family="-apple-system, BlinkMacSystemFont, 'Segoe UI', Helvetica, sans-serif">1.5k</text>
  <text x="48" y="248" class="axis-label" text-anchor="middle" font-family="-apple-system, BlinkMacSystemFont, 'Segoe UI', Helvetica, sans-serif">Mar 27</text>
    <text x="152.47058823529414" y="248" class="axis-label" text-anchor="middle" font-family="-apple-system, BlinkMacSystemFont, 'Segoe UI', Helvetica, sans-serif">Mar 30</text>
    <text x="291.7647058823529" y="248" class="axis-label" text-anchor="middle" font-family="-apple-system, BlinkMacSystemFont, 'Segoe UI', Helvetica, sans-serif">Apr 30</text>
    <text x="396.2352941176471" y="248" class="axis-label" text-anchor="middle" font-family="-apple-system, BlinkMacSystemFont, 'Segoe UI', Helvetica, sans-serif">May 5</text>
    <text x="535.5294117647059" y="248" class="axis-label" text-anchor="middle" font-family="-apple-system, BlinkMacSystemFont, 'Segoe UI', Helvetica, sans-serif">May 9</text>
    <text x="640" y="248" class="axis-label" text-anchor="middle" font-family="-apple-system, BlinkMacSystemFont, 'Segoe UI', Helvetica, sans-serif">May 12</text>

  <path d="M48.0,219.5 C53.8,216.8 71.2,207.4 82.8,203.4 C94.4,199.4 106.0,198.1 117.6,195.5 C129.3,192.8 140.9,188.8 152.5,187.4 C164.1,186.0 175.7,189.9 187.3,187.0 C198.9,184.0 210.5,173.2 222.1,169.8 C233.7,166.3 245.3,180.2 256.9,166.3 C268.5,152.5 280.2,100.6 291.8,86.6 C303.4,72.7 315.0,83.5 326.6,82.5 C338.2,81.6 349.8,81.4 361.4,81.0 C373.0,80.6 384.6,80.5 396.2,80.2 C407.8,80.0 419.5,79.9 431.1,79.4 C442.7,78.9 454.3,78.3 465.9,77.4 C477.5,76.4 489.1,74.8 500.7,73.9 C512.3,73.1 523.9,72.6 535.5,72.2 C547.1,71.8 558.7,72.1 570.4,71.3 C582.0,70.5 593.6,68.3 605.2,67.3 C616.8,66.3 634.2,65.5 640.0,65.2 L640.0,220.0 L48.0,220.0 Z" fill="url(#areaGrad)"/>
  <path d="M48.0,219.7 C53.8,217.0 71.2,207.5 82.8,203.7 C94.4,199.9 106.0,199.1 117.6,196.8 C129.3,194.6 140.9,191.3 152.5,190.2 C164.1,189.1 175.7,192.9 187.3,190.2 C198.9,187.4 210.5,176.9 222.1,173.7 C233.7,170.5 245.3,183.5 256.9,170.9 C268.5,158.3 280.2,111.0 291.8,98.2 C303.4,85.5 315.0,95.4 326.6,94.6 C338.2,93.8 349.8,93.7 361.4,93.4 C373.0,93.1 384.6,93.1 396.2,92.9 C407.8,92.8 419.5,92.7 431.1,92.3 C442.7,91.8 454.3,91.1 465.9,90.2 C477.5,89.3 489.1,87.5 500.7,86.8 C512.3,86.0 523.9,86.1 535.5,85.8 C547.1,85.6 558.7,85.9 570.4,85.2 C582.0,84.4 593.6,82.2 605.2,81.3 C616.8,80.3 634.2,79.7 640.0,79.4" fill="none" class="line-openvsx" stroke-width="1.8" stroke-linecap="round" stroke-linejoin="round"/>
  <path d="M48.0,219.9 C53.8,219.8 71.2,219.9 82.8,219.7 C94.4,219.4 106.0,219.0 117.6,218.6 C129.3,218.2 140.9,217.6 152.5,217.2 C164.1,216.9 175.7,217.0 187.3,216.8 C198.9,216.6 210.5,216.3 222.1,216.1 C233.7,215.9 245.3,216.7 256.9,215.4 C268.5,214.1 280.2,209.7 291.8,208.4 C303.4,207.2 315.0,208.1 326.6,208.0 C338.2,207.8 349.8,207.7 361.4,207.6 C373.0,207.5 384.6,207.3 396.2,207.3 C407.8,207.2 419.5,207.2 431.1,207.2 C442.7,207.1 454.3,207.2 465.9,207.2 C477.5,207.2 489.1,207.3 500.7,207.2 C512.3,207.0 523.9,206.5 535.5,206.4 C547.1,206.2 558.7,206.2 570.4,206.1 C582.0,206.1 593.6,206.1 605.2,206.0 C616.8,206.0 634.2,205.8 640.0,205.8" fill="none" class="line-vscode" stroke-width="1.8" stroke-linecap="round" stroke-linejoin="round"/>
  <path d="M48.0,219.5 C53.8,216.8 71.2,207.4 82.8,203.4 C94.4,199.4 106.0,198.1 117.6,195.5 C129.3,192.8 140.9,188.8 152.5,187.4 C164.1,186.0 175.7,189.9 187.3,187.0 C198.9,184.0 210.5,173.2 222.1,169.8 C233.7,166.3 245.3,180.2 256.9,166.3 C268.5,152.5 280.2,100.6 291.8,86.6 C303.4,72.7 315.0,83.5 326.6,82.5 C338.2,81.6 349.8,81.4 361.4,81.0 C373.0,80.6 384.6,80.5 396.2,80.2 C407.8,80.0 419.5,79.9 431.1,79.4 C442.7,78.9 454.3,78.3 465.9,77.4 C477.5,76.4 489.1,74.8 500.7,73.9 C512.3,73.1 523.9,72.6 535.5,72.2 C547.1,71.8 558.7,72.1 570.4,71.3 C582.0,70.5 593.6,68.3 605.2,67.3 C616.8,66.3 634.2,65.5 640.0,65.2" fill="none" class="line-total" stroke-width="2.5" stroke-linecap="round" stroke-linejoin="round"/>

  <circle cx="640" cy="65.19999999999999" r="4.5" class="dot-total" stroke-width="2"/>
    <text x="658" y="69.19999999999999" class="end-label" font-family="-apple-system, BlinkMacSystemFont, 'Segoe UI', Helvetica, sans-serif">Total</text>
    <text x="697" y="69.19999999999999" class="end-value" font-family="-apple-system, BlinkMacSystemFont, 'Segoe UI', Helvetica, sans-serif">1.4k</text>
    <circle cx="640" cy="79.41866666666667" r="3.5" class="dot-openvsx" stroke-width="1.8"/>
    <text x="658" y="87.19999999999999" class="end-label" font-family="-apple-system, BlinkMacSystemFont, 'Segoe UI', Helvetica, sans-serif">Open VSX</text>
    <text x="716.8" y="87.19999999999999" class="end-value" font-family="-apple-system, BlinkMacSystemFont, 'Segoe UI', Helvetica, sans-serif">1.2k</text>
    <circle cx="640" cy="205.78133333333332" r="3.5" class="dot-vscode" stroke-width="1.8"/>
    <text x="658" y="209.78133333333332" class="end-label" font-family="-apple-system, BlinkMacSystemFont, 'Segoe UI', Helvetica, sans-serif">VS Code</text>
    <text x="710.2" y="209.78133333333332" class="end-value" font-family="-apple-system, BlinkMacSystemFont, 'Segoe UI', Helvetica, sans-serif">124</text>
</svg>