<svg xmlns="http://www.w3.org/2000/svg" viewBox="0 0 760 260" width="760" height="260" role="img" aria-label="Glassy install history">
  <style>
  svg { color-scheme: light dark; }
  .title      { fill: #1a1a2e; font-size: 15px; font-weight: 600; }
  .subtitle   { fill: #6b7280; font-size: 11px; font-weight: 400; }
  .grid       { stroke: #e8e8ee; }
  .axis-label { fill: #8a8a9a; font-size: 10px; }
  .line-total   { stroke: #e8553d; }
  .line-vscode  { stroke: #5b7cfa; }
  .line-openvsx { stroke: #34c7a0; }
  .dot-total   { fill: transparent; stroke: #e8553d; }
  .dot-vscode  { fill: transparent; stroke: #5b7cfa; }
  .dot-openvsx { fill: transparent; stroke: #34c7a0; }
  .end-label       { fill: #1a1a2e; font-size: 11px; font-weight: 600; }
  .end-value       { fill: #6b7280; font-size: 11px; font-weight: 400; }
  .area-total-top    { stop-color: #e8553d; }
  .area-total-bottom { stop-color: #e8553d; }

  @media (prefers-color-scheme: dark) {
    .title      { fill: #e2e2e8; }
    .subtitle   { fill: #8b949e; }
    .grid       { stroke: #2d2d3d; }
    .axis-label { fill: #6e7681; }
    .line-total   { stroke: #ff9b85; }
    .line-vscode  { stroke: #8da4ff; }
    .line-openvsx { stroke: #5eead4; }
    .dot-total   { stroke: #ff9b85; }
    .dot-vscode  { stroke: #8da4ff; }
    .dot-openvsx { stroke: #5eead4; }
    .end-label       { fill: #e2e2e8; }
    .end-value       { fill: #8b949e; }
    .area-total-top    { stop-color: #ff9b85; }
    .area-total-bottom { stop-color: #ff9b85; }
  }
</style>
  <defs>
    <linearGradient id="areaGrad" x1="0" y1="0" x2="0" y2="1">
      <stop offset="0%" class="area-total-top" stop-opacity="0.18"/>
      <stop offset="60%" class="area-total-bottom" stop-opacity="0.04"/>
      <stop offset="100%" class="area-total-bottom" stop-opacity="0"/>
    </linearGradient>
  </defs>

  <text x="48" y="22" class="title" font-family="-apple-system, BlinkMacSystemFont, 'Segoe UI', Helvetica, sans-serif">Installs</text>
  <text x="48" y="37" class="subtitle" font-family="-apple-system, BlinkMacSystemFont, 'Segoe UI', Helvetica, sans-serif">Updated Jul 17</text>

  <line x1="48" y1="220" x2="640" y2="220" class="grid" stroke-width="0.7"/>
    <text x="40" y="223.5" class="axis-label" text-anchor="end" font-family="-apple-system, BlinkMacSystemFont, 'Segoe UI', Helvetica, sans-serif">0</text>
    <line x1="48" y1="162.66666666666669" x2="640" y2="162.66666666666669" class="grid" stroke-width="0.7"/>
    <text x="40" y="166.16666666666669" class="axis-label" text-anchor="end" font-family="-apple-system, BlinkMacSystemFont, 'Segoe UI', Helvetica, sans-serif">1k</text>
    <line x1="48" y1="105.33333333333334" x2="640" y2="105.33333333333334" class="grid" stroke-width="0.7"/>
    <text x="40" y="108.83333333333334" class="axis-label" text-anchor="end" font-family="-apple-system, BlinkMacSystemFont, 'Segoe UI', Helvetica, sans-serif">2k</text>
    <line x1="48" y1="48" x2="640" y2="48" class="grid" stroke-width="0.7"/>
    <text x="40" y="51.5" class="axis-label" text-anchor="end" font-family="-apple-system, BlinkMacSystemFont, 'Segoe UI', Helvetica, sans-serif">3k</text>
  <text x="48" y="248" class="axis-label" text-anchor="middle" font-family="-apple-system, BlinkMacSystemFont, 'Segoe UI', Helvetica, sans-serif">Mar 27</text>
    <text x="169.25301204819277" y="248" class="axis-label" text-anchor="middle" font-family="-apple-system, BlinkMacSystemFont, 'Segoe UI', Helvetica, sans-serif">May 12</text>
    <text x="283.3734939759036" y="248" class="axis-label" text-anchor="middle" font-family="-apple-system, BlinkMacSystemFont, 'Segoe UI', Helvetica, sans-serif">May 28</text>
    <text x="404.62650602409644" y="248" class="axis-label" text-anchor="middle" font-family="-apple-system, BlinkMacSystemFont, 'Segoe UI', Helvetica, sans-serif">Jun 14</text>
    <text x="518.7469879518072" y="248" class="axis-label" text-anchor="middle" font-family="-apple-system, BlinkMacSystemFont, 'Segoe UI', Helvetica, sans-serif">Jun 30</text>
    <text x="640" y="248" class="axis-label" text-anchor="middle" font-family="-apple-system, BlinkMacSystemFont, 'Segoe UI', Helvetica, sans-serif">Jul 17</text>

  <path d="M48.0,219.8 C49.2,218.4 52.8,213.7 55.1,211.7 C57.5,209.7 59.9,209.1 62.3,207.7 C64.6,206.4 67.0,204.4 69.4,203.7 C71.8,203.0 74.2,205.0 76.5,203.5 C78.9,202.0 81.3,196.6 83.7,194.9 C86.0,193.2 88.4,200.1 90.8,193.2 C93.2,186.2 95.6,160.3 97.9,153.3 C100.3,146.3 102.7,151.7 105.1,151.3 C107.4,150.8 109.8,150.7 112.2,150.5 C114.6,150.3 116.9,150.2 119.3,150.1 C121.7,150.0 124.1,149.9 126.5,149.7 C128.8,149.5 131.2,149.1 133.6,148.7 C136.0,148.2 138.3,147.4 140.7,147.0 C143.1,146.5 145.5,146.3 147.9,146.1 C150.2,145.9 152.6,146.0 155.0,145.6 C157.4,145.2 159.7,144.1 162.1,143.6 C164.5,143.1 166.9,142.9 169.3,142.6 C171.6,142.3 174.0,142.0 176.4,141.7 C178.8,141.4 181.1,141.4 183.5,140.8 C185.9,140.2 188.3,138.7 190.7,138.0 C193.0,137.4 195.4,137.2 197.8,136.9 C200.2,136.6 202.5,136.4 204.9,136.2 C207.3,136.1 209.7,136.5 212.0,136.1 C214.4,135.7 216.8,134.4 219.2,133.8 C221.6,133.2 223.9,133.0 226.3,132.5 C228.7,132.1 231.1,131.8 233.4,131.1 C235.8,130.4 238.2,129.0 240.6,128.3 C243.0,127.6 245.3,127.3 247.7,126.9 C250.1,126.5 252.5,126.3 254.8,126.0 C257.2,125.8 259.6,125.8 262.0,125.3 C264.4,124.9 266.7,124.0 269.1,123.6 C271.5,123.1 273.9,122.8 276.2,122.5 C278.6,122.2 281.0,122.0 283.4,121.7 C285.8,121.5 288.1,121.3 290.5,121.1 C292.9,120.9 295.3,120.6 297.6,120.4 C300.0,120.3 302.4,120.3 304.8,120.2 C307.1,120.2 309.5,121.0 311.9,120.2 C314.3,119.4 316.7,116.5 319.0,115.5 C321.4,114.5 323.8,114.6 326.2,114.2 C328.5,113.7 330.9,113.3 333.3,112.8 C335.7,112.4 338.1,111.9 340.4,111.6 C342.8,111.3 345.2,111.2 347.6,111.0 C349.9,110.8 352.3,110.4 354.7,110.2 C357.1,110.0 359.5,110.1 361.8,109.7 C364.2,109.4 366.6,108.6 369.0,108.1 C371.3,107.7 373.7,107.6 376.1,107.2 C378.5,106.9 380.9,106.4 383.2,106.2 C385.6,105.9 388.0,106.0 390.4,105.7 C392.7,105.5 395.1,104.8 397.5,104.5 C399.9,104.2 402.2,104.2 404.6,104.0 C407.0,103.7 409.4,103.5 411.8,103.2 C414.1,102.9 416.5,102.5 418.9,102.2 C421.3,101.9 423.6,101.5 426.0,101.2 C428.4,100.9 430.8,100.8 433.2,100.3 C435.5,99.9 437.9,99.2 440.3,98.7 C442.7,98.3 445.0,98.1 447.4,97.7 C449.8,97.4 452.2,97.0 454.6,96.6 C456.9,96.3 459.3,95.9 461.7,95.5 C464.1,95.2 466.4,94.8 468.8,94.6 C471.2,94.3 473.6,94.2 476.0,93.8 C478.3,93.4 480.7,92.9 483.1,92.4 C485.5,91.9 487.8,91.2 490.2,90.8 C492.6,90.5 495.0,90.5 497.3,90.3 C499.7,90.1 502.1,90.0 504.5,89.8 C506.9,89.6 509.2,89.3 511.6,88.9 C514.0,88.6 516.4,88.2 518.7,87.9 C521.1,87.6 523.5,87.3 525.9,86.9 C528.3,86.6 530.6,86.2 533.0,85.8 C535.4,85.5 537.8,85.3 540.1,85.0 C542.5,84.6 544.9,84.0 547.3,83.7 C549.7,83.3 552.0,83.0 554.4,82.8 C556.8,82.6 559.2,82.6 561.5,82.4 C563.9,82.2 566.3,81.9 568.7,81.8 C571.1,81.6 573.4,81.6 575.8,81.4 C578.2,81.2 580.6,80.9 582.9,80.6 C585.3,80.4 587.7,80.0 590.1,79.8 C592.4,79.5 594.8,79.3 597.2,79.1 C599.6,78.9 602.0,78.8 604.3,78.5 C606.7,78.2 609.1,77.5 611.5,77.2 C613.8,76.9 616.2,76.8 618.6,76.6 C621.0,76.3 623.4,76.1 625.7,75.6 C628.1,75.1 630.5,74.5 632.9,73.7 C635.2,72.9 638.8,71.3 640.0,70.9 L640.0,220.0 L48.0,220.0 Z" fill="url(#areaGrad)"/>
  <path d="M48.0,219.8 C49.2,218.5 52.8,213.8 55.1,211.9 C57.5,210.0 59.9,209.5 62.3,208.4 C64.6,207.3 67.0,205.6 69.4,205.1 C71.8,204.5 74.2,206.5 76.5,205.1 C78.9,203.7 81.3,198.4 83.7,196.8 C86.0,195.2 88.4,201.7 90.8,195.5 C93.2,189.2 95.6,165.5 97.9,159.1 C100.3,152.7 102.7,157.7 105.1,157.3 C107.4,156.9 109.8,156.8 112.2,156.7 C114.6,156.6 116.9,156.6 119.3,156.5 C121.7,156.4 124.1,156.4 126.5,156.1 C128.8,155.9 131.2,155.6 133.6,155.1 C136.0,154.6 138.3,153.7 140.7,153.4 C143.1,153.0 145.5,153.1 147.9,152.9 C150.2,152.8 152.6,153.0 155.0,152.6 C157.4,152.2 159.7,151.1 162.1,150.6 C164.5,150.1 166.9,150.0 169.3,149.7 C171.6,149.4 174.0,149.2 176.4,148.9 C178.8,148.6 181.1,148.6 183.5,148.0 C185.9,147.4 188.3,145.9 190.7,145.2 C193.0,144.6 195.4,144.5 197.8,144.2 C200.2,143.9 202.5,143.7 204.9,143.5 C207.3,143.4 209.7,143.8 212.0,143.4 C214.4,143.0 216.8,141.8 219.2,141.2 C221.6,140.7 223.9,140.5 226.3,140.1 C228.7,139.7 231.1,139.6 233.4,138.9 C235.8,138.3 238.2,136.9 240.6,136.3 C243.0,135.6 245.3,135.4 247.7,135.0 C250.1,134.7 252.5,134.5 254.8,134.2 C257.2,134.0 259.6,134.0 262.0,133.7 C264.4,133.3 266.7,132.5 269.1,132.1 C271.5,131.6 273.9,131.4 276.2,131.1 C278.6,130.9 281.0,130.6 283.4,130.4 C285.8,130.3 288.1,130.2 290.5,130.0 C292.9,129.8 295.3,129.5 297.6,129.4 C300.0,129.3 302.4,129.4 304.8,129.4 C307.1,129.4 309.5,130.2 311.9,129.4 C314.3,128.7 316.7,125.9 319.0,124.9 C321.4,124.0 323.8,124.0 326.2,123.6 C328.5,123.1 330.9,122.7 333.3,122.3 C335.7,121.9 338.1,121.3 340.4,121.0 C342.8,120.7 345.2,120.7 347.6,120.5 C349.9,120.2 352.3,119.9 354.7,119.7 C357.1,119.5 359.5,119.6 361.8,119.2 C364.2,118.9 366.6,118.0 369.0,117.6 C371.3,117.2 373.7,117.0 376.1,116.7 C378.5,116.4 380.9,115.9 383.2,115.7 C385.6,115.4 388.0,115.5 390.4,115.2 C392.7,114.9 395.1,114.3 397.5,114.0 C399.9,113.8 402.2,113.8 404.6,113.6 C407.0,113.4 409.4,113.2 411.8,112.9 C414.1,112.6 416.5,112.3 418.9,112.0 C421.3,111.7 423.6,111.4 426.0,111.1 C428.4,110.8 430.8,110.6 433.2,110.3 C435.5,109.9 437.9,109.2 440.3,108.8 C442.7,108.4 445.0,108.2 447.4,107.9 C449.8,107.5 452.2,107.2 454.6,106.8 C456.9,106.5 459.3,106.1 461.7,105.8 C464.1,105.5 466.4,105.1 468.8,104.9 C471.2,104.6 473.6,104.5 476.0,104.2 C478.3,103.8 480.7,103.3 483.1,102.8 C485.5,102.3 487.8,101.6 490.2,101.3 C492.6,101.0 495.0,101.0 497.3,100.9 C499.7,100.7 502.1,100.6 504.5,100.4 C506.9,100.2 509.2,99.9 511.6,99.6 C514.0,99.3 516.4,99.0 518.7,98.7 C521.1,98.4 523.5,98.1 525.9,97.8 C528.3,97.4 530.6,97.0 533.0,96.7 C535.4,96.4 537.8,96.2 540.1,95.9 C542.5,95.6 544.9,95.3 547.3,95.0 C549.7,94.7 552.0,94.4 554.4,94.2 C556.8,94.0 559.2,94.0 561.5,93.9 C563.9,93.7 566.3,93.4 568.7,93.3 C571.1,93.1 573.4,93.1 575.8,92.9 C578.2,92.8 580.6,92.5 582.9,92.3 C585.3,92.0 587.7,91.7 590.1,91.5 C592.4,91.2 594.8,91.0 597.2,90.8 C599.6,90.6 602.0,90.6 604.3,90.3 C606.7,90.0 609.1,89.4 611.5,89.1 C613.8,88.7 616.2,88.7 618.6,88.5 C621.0,88.2 623.4,88.0 625.7,87.6 C628.1,87.1 630.5,86.5 632.9,85.7 C635.2,85.0 638.8,83.4 640.0,83.0" fill="none" class="line-openvsx" stroke-width="1.8" stroke-linecap="round" stroke-linejoin="round"/>
  <path d="M48.0,219.9 C49.2,219.9 52.8,219.9 55.1,219.8 C57.5,219.7 59.9,219.5 62.3,219.3 C64.6,219.1 67.0,218.8 69.4,218.6 C71.8,218.5 74.2,218.5 76.5,218.4 C78.9,218.3 81.3,218.2 83.7,218.1 C86.0,217.9 88.4,218.3 90.8,217.7 C93.2,217.1 95.6,214.8 97.9,214.2 C100.3,213.6 102.7,214.0 105.1,214.0 C107.4,213.9 109.8,213.9 112.2,213.8 C114.6,213.8 116.9,213.7 119.3,213.6 C121.7,213.6 124.1,213.6 126.5,213.6 C128.8,213.6 131.2,213.6 133.6,213.6 C136.0,213.6 138.3,213.6 140.7,213.6 C143.1,213.5 145.5,213.3 147.9,213.2 C150.2,213.1 152.6,213.1 155.0,213.1 C157.4,213.0 159.7,213.0 162.1,213.0 C164.5,213.0 166.9,212.9 169.3,212.9 C171.6,212.9 174.0,212.8 176.4,212.8 C178.8,212.8 181.1,212.8 183.5,212.8 C185.9,212.8 188.3,212.8 190.7,212.8 C193.0,212.8 195.4,212.7 197.8,212.7 C200.2,212.7 202.5,212.7 204.9,212.7 C207.3,212.7 209.7,212.7 212.0,212.7 C214.4,212.6 216.8,212.6 219.2,212.5 C221.6,212.5 223.9,212.5 226.3,212.4 C228.7,212.4 231.1,212.2 233.4,212.1 C235.8,212.1 238.2,212.0 240.6,212.0 C243.0,211.9 245.3,211.9 247.7,211.9 C250.1,211.8 252.5,211.8 254.8,211.8 C257.2,211.8 259.6,211.7 262.0,211.7 C264.4,211.6 266.7,211.6 269.1,211.5 C271.5,211.5 273.9,211.4 276.2,211.4 C278.6,211.4 281.0,211.3 283.4,211.3 C285.8,211.2 288.1,211.2 290.5,211.1 C292.9,211.1 295.3,211.0 297.6,211.0 C300.0,211.0 302.4,210.9 304.8,210.8 C307.1,210.8 309.5,210.8 311.9,210.8 C314.3,210.7 316.7,210.6 319.0,210.6 C321.4,210.6 323.8,210.6 326.2,210.6 C328.5,210.6 330.9,210.5 333.3,210.5 C335.7,210.5 338.1,210.5 340.4,210.5 C342.8,210.5 345.2,210.5 347.6,210.5 C349.9,210.5 352.3,210.5 354.7,210.5 C357.1,210.5 359.5,210.5 361.8,210.5 C364.2,210.5 366.6,210.5 369.0,210.5 C371.3,210.5 373.7,210.5 376.1,210.5 C378.5,210.5 380.9,210.5 383.2,210.5 C385.6,210.5 388.0,210.5 390.4,210.5 C392.7,210.5 395.1,210.5 397.5,210.5 C399.9,210.5 402.2,210.4 404.6,210.4 C407.0,210.3 409.4,210.3 411.8,210.3 C414.1,210.2 416.5,210.2 418.9,210.2 C421.3,210.2 423.6,210.2 426.0,210.1 C428.4,210.1 430.8,210.1 433.2,210.1 C435.5,210.1 437.9,210.0 440.3,210.0 C442.7,209.9 445.0,209.9 447.4,209.9 C449.8,209.8 452.2,209.8 454.6,209.8 C456.9,209.8 459.3,209.8 461.7,209.7 C464.1,209.7 466.4,209.7 468.8,209.7 C471.2,209.7 473.6,209.6 476.0,209.6 C478.3,209.6 480.7,209.6 483.1,209.6 C485.5,209.5 487.8,209.5 490.2,209.5 C492.6,209.5 495.0,209.5 497.3,209.5 C499.7,209.4 502.1,209.4 504.5,209.4 C506.9,209.4 509.2,209.4 511.6,209.3 C514.0,209.3 516.4,209.3 518.7,209.2 C521.1,209.2 523.5,209.2 525.9,209.2 C528.3,209.1 530.6,209.1 533.0,209.1 C535.4,209.1 537.8,209.1 540.1,209.0 C542.5,209.0 544.9,208.7 547.3,208.6 C549.7,208.6 552.0,208.6 554.4,208.6 C556.8,208.6 559.2,208.6 561.5,208.5 C563.9,208.5 566.3,208.5 568.7,208.5 C571.1,208.5 573.4,208.4 575.8,208.4 C578.2,208.4 580.6,208.4 582.9,208.4 C585.3,208.3 587.7,208.3 590.1,208.3 C592.4,208.3 594.8,208.3 597.2,208.3 C599.6,208.3 602.0,208.2 604.3,208.2 C606.7,208.2 609.1,208.2 611.5,208.1 C613.8,208.1 616.2,208.1 618.6,208.1 C621.0,208.1 623.4,208.0 625.7,208.0 C628.1,208.0 630.5,208.0 632.9,208.0 C635.2,207.9 638.8,207.9 640.0,207.9" fill="none" class="line-vscode" stroke-width="1.8" stroke-linecap="round" stroke-linejoin="round"/>
  <path d="M48.0,219.8 C49.2,218.4 52.8,213.7 55.1,211.7 C57.5,209.7 59.9,209.1 62.3,207.7 C64.6,206.4 67.0,204.4 69.4,203.7 C71.8,203.0 74.2,205.0 76.5,203.5 C78.9,202.0 81.3,196.6 83.7,194.9 C86.0,193.2 88.4,200.1 90.8,193.2 C93.2,186.2 95.6,160.3 97.9,153.3 C100.3,146.3 102.7,151.7 105.1,151.3 C107.4,150.8 109.8,150.7 112.2,150.5 C114.6,150.3 116.9,150.2 119.3,150.1 C121.7,150.0 124.1,149.9 126.5,149.7 C128.8,149.5 131.2,149.1 133.6,148.7 C136.0,148.2 138.3,147.4 140.7,147.0 C143.1,146.5 145.5,146.3 147.9,146.1 C150.2,145.9 152.6,146.0 155.0,145.6 C157.4,145.2 159.7,144.1 162.1,143.6 C164.5,143.1 166.9,142.9 169.3,142.6 C171.6,142.3 174.0,142.0 176.4,141.7 C178.8,141.4 181.1,141.4 183.5,140.8 C185.9,140.2 188.3,138.7 190.7,138.0 C193.0,137.4 195.4,137.2 197.8,136.9 C200.2,136.6 202.5,136.4 204.9,136.2 C207.3,136.1 209.7,136.5 212.0,136.1 C214.4,135.7 216.8,134.4 219.2,133.8 C221.6,133.2 223.9,133.0 226.3,132.5 C228.7,132.1 231.1,131.8 233.4,131.1 C235.8,130.4 238.2,129.0 240.6,128.3 C243.0,127.6 245.3,127.3 247.7,126.9 C250.1,126.5 252.5,126.3 254.8,126.0 C257.2,125.8 259.6,125.8 262.0,125.3 C264.4,124.9 266.7,124.0 269.1,123.6 C271.5,123.1 273.9,122.8 276.2,122.5 C278.6,122.2 281.0,122.0 283.4,121.7 C285.8,121.5 288.1,121.3 290.5,121.1 C292.9,120.9 295.3,120.6 297.6,120.4 C300.0,120.3 302.4,120.3 304.8,120.2 C307.1,120.2 309.5,121.0 311.9,120.2 C314.3,119.4 316.7,116.5 319.0,115.5 C321.4,114.5 323.8,114.6 326.2,114.2 C328.5,113.7 330.9,113.3 333.3,112.8 C335.7,112.4 338.1,111.9 340.4,111.6 C342.8,111.3 345.2,111.2 347.6,111.0 C349.9,110.8 352.3,110.4 354.7,110.2 C357.1,110.0 359.5,110.1 361.8,109.7 C364.2,109.4 366.6,108.6 369.0,108.1 C371.3,107.7 373.7,107.6 376.1,107.2 C378.5,106.9 380.9,106.4 383.2,106.2 C385.6,105.9 388.0,106.0 390.4,105.7 C392.7,105.5 395.1,104.8 397.5,104.5 C399.9,104.2 402.2,104.2 404.6,104.0 C407.0,103.7 409.4,103.5 411.8,103.2 C414.1,102.9 416.5,102.5 418.9,102.2 C421.3,101.9 423.6,101.5 426.0,101.2 C428.4,100.9 430.8,100.8 433.2,100.3 C435.5,99.9 437.9,99.2 440.3,98.7 C442.7,98.3 445.0,98.1 447.4,97.7 C449.8,97.4 452.2,97.0 454.6,96.6 C456.9,96.3 459.3,95.9 461.7,95.5 C464.1,95.2 466.4,94.8 468.8,94.6 C471.2,94.3 473.6,94.2 476.0,93.8 C478.3,93.4 480.7,92.9 483.1,92.4 C485.5,91.9 487.8,91.2 490.2,90.8 C492.6,90.5 495.0,90.5 497.3,90.3 C499.7,90.1 502.1,90.0 504.5,89.8 C506.9,89.6 509.2,89.3 511.6,88.9 C514.0,88.6 516.4,88.2 518.7,87.9 C521.1,87.6 523.5,87.3 525.9,86.9 C528.3,86.6 530.6,86.2 533.0,85.8 C535.4,85.5 537.8,85.3 540.1,85.0 C542.5,84.6 544.9,84.0 547.3,83.7 C549.7,83.3 552.0,83.0 554.4,82.8 C556.8,82.6 559.2,82.6 561.5,82.4 C563.9,82.2 566.3,81.9 568.7,81.8 C571.1,81.6 573.4,81.6 575.8,81.4 C578.2,81.2 580.6,80.9 582.9,80.6 C585.3,80.4 587.7,80.0 590.1,79.8 C592.4,79.5 594.8,79.3 597.2,79.1 C599.6,78.9 602.0,78.8 604.3,78.5 C606.7,78.2 609.1,77.5 611.5,77.2 C613.8,76.9 616.2,76.8 618.6,76.6 C621.0,76.3 623.4,76.1 625.7,75.6 C628.1,75.1 630.5,74.5 632.9,73.7 C635.2,72.9 638.8,71.3 640.0,70.9" fill="none" class="line-total" stroke-width="2.5" stroke-linecap="round" stroke-linejoin="round"/>

  <circle cx="640" cy="70.876" r="4.5" class="dot-total" stroke-width="2"/>
    <text x="658" y="74.876" class="end-label" font-family="-apple-system, BlinkMacSystemFont, 'Segoe UI', Helvetica, sans-serif">Total</text>
    <text x="697" y="74.876" class="end-value" font-family="-apple-system, BlinkMacSystemFont, 'Segoe UI', Helvetica, sans-serif">2.6k</text>
    <circle cx="640" cy="82.97333333333333" r="3.5" class="dot-openvsx" stroke-width="1.8"/>
    <text x="658" y="92.876" class="end-label" font-family="-apple-system, BlinkMacSystemFont, 'Segoe UI', Helvetica, sans-serif">Open VSX</text>
    <text x="716.8" y="92.876" class="end-value" font-family="-apple-system, BlinkMacSystemFont, 'Segoe UI', Helvetica, sans-serif">2.4k</text>
    <circle cx="640" cy="207.90266666666668" r="3.5" class="dot-vscode" stroke-width="1.8"/>
    <text x="658" y="211.90266666666668" class="end-label" font-family="-apple-system, BlinkMacSystemFont, 'Segoe UI', Helvetica, sans-serif">VS Code</text>
    <text x="710.2" y="211.90266666666668" class="end-value" font-family="-apple-system, BlinkMacSystemFont, 'Segoe UI', Helvetica, sans-serif">211</text>
</svg>