<svg xmlns="http://www.w3.org/2000/svg" viewBox="0 0 760 260" width="760" height="260" role="img" aria-label="Glassy install history">
  <style>
  svg { color-scheme: light dark; }
  .title      { fill: #1a1a2e; font-size: 15px; font-weight: 600; }
  .subtitle   { fill: #6b7280; font-size: 11px; font-weight: 400; }
  .grid       { stroke: #e8e8ee; }
  .axis-label { fill: #8a8a9a; font-size: 10px; }
  .line-total   { stroke: #e8553d; }
  .line-vscode  { stroke: #5b7cfa; }
  .line-openvsx { stroke: #34c7a0; }
  .dot-total   { fill: transparent; stroke: #e8553d; }
  .dot-vscode  { fill: transparent; stroke: #5b7cfa; }
  .dot-openvsx { fill: transparent; stroke: #34c7a0; }
  .end-label       { fill: #1a1a2e; font-size: 11px; font-weight: 600; }
  .end-value       { fill: #6b7280; font-size: 11px; font-weight: 400; }
  .area-total-top    { stop-color: #e8553d; }
  .area-total-bottom { stop-color: #e8553d; }

  @media (prefers-color-scheme: dark) {
    .title      { fill: #e2e2e8; }
    .subtitle   { fill: #8b949e; }
    .grid       { stroke: #2d2d3d; }
    .axis-label { fill: #6e7681; }
    .line-total   { stroke: #ff9b85; }
    .line-vscode  { stroke: #8da4ff; }
    .line-openvsx { stroke: #5eead4; }
    .dot-total   { stroke: #ff9b85; }
    .dot-vscode  { stroke: #8da4ff; }
    .dot-openvsx { stroke: #5eead4; }
    .end-label       { fill: #e2e2e8; }
    .end-value       { fill: #8b949e; }
    .area-total-top    { stop-color: #ff9b85; }
    .area-total-bottom { stop-color: #ff9b85; }
  }
</style>
  <defs>
    <linearGradient id="areaGrad" x1="0" y1="0" x2="0" y2="1">
      <stop offset="0%" class="area-total-top" stop-opacity="0.18"/>
      <stop offset="60%" class="area-total-bottom" stop-opacity="0.04"/>
      <stop offset="100%" class="area-total-bottom" stop-opacity="0"/>
    </linearGradient>
  </defs>

  <text x="48" y="22" class="title" font-family="-apple-system, BlinkMacSystemFont, 'Segoe UI', Helvetica, sans-serif">Installs</text>
  <text x="48" y="37" class="subtitle" font-family="-apple-system, BlinkMacSystemFont, 'Segoe UI', Helvetica, sans-serif">Updated Jun 23</text>

  <line x1="48" y1="220" x2="640" y2="220" class="grid" stroke-width="0.7"/>
    <text x="40" y="223.5" class="axis-label" text-anchor="end" font-family="-apple-system, BlinkMacSystemFont, 'Segoe UI', Helvetica, sans-serif">0</text>
    <line x1="48" y1="162.66666666666669" x2="640" y2="162.66666666666669" class="grid" stroke-width="0.7"/>
    <text x="40" y="166.16666666666669" class="axis-label" text-anchor="end" font-family="-apple-system, BlinkMacSystemFont, 'Segoe UI', Helvetica, sans-serif">1k</text>
    <line x1="48" y1="105.33333333333334" x2="640" y2="105.33333333333334" class="grid" stroke-width="0.7"/>
    <text x="40" y="108.83333333333334" class="axis-label" text-anchor="end" font-family="-apple-system, BlinkMacSystemFont, 'Segoe UI', Helvetica, sans-serif">2k</text>
    <line x1="48" y1="48" x2="640" y2="48" class="grid" stroke-width="0.7"/>
    <text x="40" y="51.5" class="axis-label" text-anchor="end" font-family="-apple-system, BlinkMacSystemFont, 'Segoe UI', Helvetica, sans-serif">3k</text>
  <text x="48" y="248" class="axis-label" text-anchor="middle" font-family="-apple-system, BlinkMacSystemFont, 'Segoe UI', Helvetica, sans-serif">Mar 27</text>
    <text x="168.40677966101697" y="248" class="axis-label" text-anchor="middle" font-family="-apple-system, BlinkMacSystemFont, 'Segoe UI', Helvetica, sans-serif">May 7</text>
    <text x="288.81355932203394" y="248" class="axis-label" text-anchor="middle" font-family="-apple-system, BlinkMacSystemFont, 'Segoe UI', Helvetica, sans-serif">May 19</text>
    <text x="399.18644067796606" y="248" class="axis-label" text-anchor="middle" font-family="-apple-system, BlinkMacSystemFont, 'Segoe UI', Helvetica, sans-serif">May 30</text>
    <text x="519.593220338983" y="248" class="axis-label" text-anchor="middle" font-family="-apple-system, BlinkMacSystemFont, 'Segoe UI', Helvetica, sans-serif">Jun 11</text>
    <text x="640" y="248" class="axis-label" text-anchor="middle" font-family="-apple-system, BlinkMacSystemFont, 'Segoe UI', Helvetica, sans-serif">Jun 23</text>

  <path d="M48.0,219.8 C49.7,218.4 54.7,213.7 58.0,211.7 C61.4,209.7 64.7,209.1 68.1,207.7 C71.4,206.4 74.8,204.4 78.1,203.7 C81.4,203.0 84.8,205.0 88.1,203.5 C91.5,202.0 94.8,196.6 98.2,194.9 C101.5,193.2 104.9,200.1 108.2,193.2 C111.5,186.2 114.9,160.3 118.2,153.3 C121.6,146.3 124.9,151.7 128.3,151.3 C131.6,150.8 135.0,150.7 138.3,150.5 C141.6,150.3 145.0,150.2 148.3,150.1 C151.7,150.0 155.0,149.9 158.4,149.7 C161.7,149.5 165.1,149.1 168.4,148.7 C171.8,148.2 175.1,147.4 178.4,147.0 C181.8,146.5 185.1,146.3 188.5,146.1 C191.8,145.9 195.2,146.0 198.5,145.6 C201.9,145.2 205.2,144.1 208.5,143.6 C211.9,143.1 215.2,142.9 218.6,142.6 C221.9,142.3 225.3,142.0 228.6,141.7 C232.0,141.4 235.3,141.4 238.6,140.8 C242.0,140.2 245.3,138.7 248.7,138.0 C252.0,137.4 255.4,137.2 258.7,136.9 C262.1,136.6 265.4,136.4 268.7,136.2 C272.1,136.1 275.4,136.5 278.8,136.1 C282.1,135.7 285.5,134.4 288.8,133.8 C292.2,133.2 295.5,133.0 298.8,132.5 C302.2,132.1 305.5,131.8 308.9,131.1 C312.2,130.4 315.6,129.0 318.9,128.3 C322.3,127.6 325.6,127.3 328.9,126.9 C332.3,126.5 335.6,126.3 339.0,126.0 C342.3,125.8 345.7,125.8 349.0,125.3 C352.4,124.9 355.7,124.0 359.1,123.6 C362.4,123.1 365.7,122.8 369.1,122.5 C372.4,122.2 375.8,122.0 379.1,121.7 C382.5,121.5 385.8,121.3 389.2,121.1 C392.5,120.9 395.8,120.6 399.2,120.4 C402.5,120.3 405.9,120.3 409.2,120.2 C412.6,120.2 415.9,121.0 419.3,120.2 C422.6,119.4 425.9,116.5 429.3,115.5 C432.6,114.5 436.0,114.6 439.3,114.2 C442.7,113.7 446.0,113.3 449.4,112.8 C452.7,112.4 456.0,111.9 459.4,111.6 C462.7,111.3 466.1,111.2 469.4,111.0 C472.8,110.8 476.1,110.4 479.5,110.2 C482.8,110.0 486.1,110.1 489.5,109.7 C492.8,109.4 496.2,108.6 499.5,108.1 C502.9,107.7 506.2,107.6 509.6,107.2 C512.9,106.9 516.2,106.4 519.6,106.2 C522.9,105.9 526.3,106.0 529.6,105.7 C533.0,105.5 536.3,104.8 539.7,104.5 C543.0,104.2 546.4,104.2 549.7,104.0 C553.0,103.7 556.4,103.5 559.7,103.2 C563.1,102.9 566.4,102.5 569.8,102.2 C573.1,101.9 576.5,101.5 579.8,101.2 C583.1,100.9 586.5,100.8 589.8,100.3 C593.2,99.9 596.5,99.2 599.9,98.7 C603.2,98.3 606.6,98.1 609.9,97.7 C613.2,97.4 616.6,97.0 619.9,96.6 C623.3,96.3 626.6,95.9 630.0,95.5 C633.3,95.2 638.3,94.7 640.0,94.6 L640.0,220.0 L48.0,220.0 Z" fill="url(#areaGrad)"/>
  <path d="M48.0,219.8 C49.7,218.5 54.7,213.8 58.0,211.9 C61.4,210.0 64.7,209.5 68.1,208.4 C71.4,207.3 74.8,205.6 78.1,205.1 C81.4,204.5 84.8,206.5 88.1,205.1 C91.5,203.7 94.8,198.4 98.2,196.8 C101.5,195.2 104.9,201.7 108.2,195.5 C111.5,189.2 114.9,165.5 118.2,159.1 C121.6,152.7 124.9,157.7 128.3,157.3 C131.6,156.9 135.0,156.8 138.3,156.7 C141.6,156.6 145.0,156.6 148.3,156.5 C151.7,156.4 155.0,156.4 158.4,156.1 C161.7,155.9 165.1,155.6 168.4,155.1 C171.8,154.6 175.1,153.7 178.4,153.4 C181.8,153.0 185.1,153.1 188.5,152.9 C191.8,152.8 195.2,153.0 198.5,152.6 C201.9,152.2 205.2,151.1 208.5,150.6 C211.9,150.1 215.2,150.0 218.6,149.7 C221.9,149.4 225.3,149.2 228.6,148.9 C232.0,148.6 235.3,148.6 238.6,148.0 C242.0,147.4 245.3,145.9 248.7,145.2 C252.0,144.6 255.4,144.5 258.7,144.2 C262.1,143.9 265.4,143.7 268.7,143.5 C272.1,143.4 275.4,143.8 278.8,143.4 C282.1,143.0 285.5,141.8 288.8,141.2 C292.2,140.7 295.5,140.5 298.8,140.1 C302.2,139.7 305.5,139.6 308.9,138.9 C312.2,138.3 315.6,136.9 318.9,136.3 C322.3,135.6 325.6,135.4 328.9,135.0 C332.3,134.7 335.6,134.5 339.0,134.2 C342.3,134.0 345.7,134.0 349.0,133.7 C352.4,133.3 355.7,132.5 359.1,132.1 C362.4,131.6 365.7,131.4 369.1,131.1 C372.4,130.9 375.8,130.6 379.1,130.4 C382.5,130.3 385.8,130.2 389.2,130.0 C392.5,129.8 395.8,129.5 399.2,129.4 C402.5,129.3 405.9,129.4 409.2,129.4 C412.6,129.4 415.9,130.2 419.3,129.4 C422.6,128.7 425.9,125.9 429.3,124.9 C432.6,124.0 436.0,124.0 439.3,123.6 C442.7,123.1 446.0,122.7 449.4,122.3 C452.7,121.9 456.0,121.3 459.4,121.0 C462.7,120.7 466.1,120.7 469.4,120.5 C472.8,120.2 476.1,119.9 479.5,119.7 C482.8,119.5 486.1,119.6 489.5,119.2 C492.8,118.9 496.2,118.0 499.5,117.6 C502.9,117.2 506.2,117.0 509.6,116.7 C512.9,116.4 516.2,115.9 519.6,115.7 C522.9,115.4 526.3,115.5 529.6,115.2 C533.0,114.9 536.3,114.3 539.7,114.0 C543.0,113.8 546.4,113.8 549.7,113.6 C553.0,113.4 556.4,113.2 559.7,112.9 C563.1,112.6 566.4,112.3 569.8,112.0 C573.1,111.7 576.5,111.4 579.8,111.1 C583.1,110.8 586.5,110.6 589.8,110.3 C593.2,109.9 596.5,109.2 599.9,108.8 C603.2,108.4 606.6,108.2 609.9,107.9 C613.2,107.5 616.6,107.2 619.9,106.8 C623.3,106.5 626.6,106.1 630.0,105.8 C633.3,105.5 638.3,105.0 640.0,104.9" fill="none" class="line-openvsx" stroke-width="1.8" stroke-linecap="round" stroke-linejoin="round"/>
  <path d="M48.0,219.9 C49.7,219.9 54.7,219.9 58.0,219.8 C61.4,219.7 64.7,219.5 68.1,219.3 C71.4,219.1 74.8,218.8 78.1,218.6 C81.4,218.5 84.8,218.5 88.1,218.4 C91.5,218.3 94.8,218.2 98.2,218.1 C101.5,217.9 104.9,218.3 108.2,217.7 C111.5,217.1 114.9,214.8 118.2,214.2 C121.6,213.6 124.9,214.0 128.3,214.0 C131.6,213.9 135.0,213.9 138.3,213.8 C141.6,213.8 145.0,213.7 148.3,213.6 C151.7,213.6 155.0,213.6 158.4,213.6 C161.7,213.6 165.1,213.6 168.4,213.6 C171.8,213.6 175.1,213.6 178.4,213.6 C181.8,213.5 185.1,213.3 188.5,213.2 C191.8,213.1 195.2,213.1 198.5,213.1 C201.9,213.0 205.2,213.0 208.5,213.0 C211.9,213.0 215.2,212.9 218.6,212.9 C221.9,212.9 225.3,212.8 228.6,212.8 C232.0,212.8 235.3,212.8 238.6,212.8 C242.0,212.8 245.3,212.8 248.7,212.8 C252.0,212.8 255.4,212.7 258.7,212.7 C262.1,212.7 265.4,212.7 268.7,212.7 C272.1,212.7 275.4,212.7 278.8,212.7 C282.1,212.6 285.5,212.6 288.8,212.5 C292.2,212.5 295.5,212.5 298.8,212.4 C302.2,212.4 305.5,212.2 308.9,212.1 C312.2,212.1 315.6,212.0 318.9,212.0 C322.3,211.9 325.6,211.9 328.9,211.9 C332.3,211.8 335.6,211.8 339.0,211.8 C342.3,211.8 345.7,211.7 349.0,211.7 C352.4,211.6 355.7,211.6 359.1,211.5 C362.4,211.5 365.7,211.4 369.1,211.4 C372.4,211.4 375.8,211.3 379.1,211.3 C382.5,211.2 385.8,211.2 389.2,211.1 C392.5,211.1 395.8,211.0 399.2,211.0 C402.5,211.0 405.9,210.9 409.2,210.8 C412.6,210.8 415.9,210.8 419.3,210.8 C422.6,210.7 425.9,210.6 429.3,210.6 C432.6,210.6 436.0,210.6 439.3,210.6 C442.7,210.6 446.0,210.5 449.4,210.5 C452.7,210.5 456.0,210.5 459.4,210.5 C462.7,210.5 466.1,210.5 469.4,210.5 C472.8,210.5 476.1,210.5 479.5,210.5 C482.8,210.5 486.1,210.5 489.5,210.5 C492.8,210.5 496.2,210.5 499.5,210.5 C502.9,210.5 506.2,210.5 509.6,210.5 C512.9,210.5 516.2,210.5 519.6,210.5 C522.9,210.5 526.3,210.5 529.6,210.5 C533.0,210.5 536.3,210.5 539.7,210.5 C543.0,210.5 546.4,210.4 549.7,210.4 C553.0,210.3 556.4,210.3 559.7,210.3 C563.1,210.2 566.4,210.2 569.8,210.2 C573.1,210.2 576.5,210.2 579.8,210.1 C583.1,210.1 586.5,210.1 589.8,210.1 C593.2,210.1 596.5,210.0 599.9,210.0 C603.2,209.9 606.6,209.9 609.9,209.9 C613.2,209.8 616.6,209.8 619.9,209.8 C623.3,209.8 626.6,209.8 630.0,209.7 C633.3,209.7 638.3,209.7 640.0,209.7" fill="none" class="line-vscode" stroke-width="1.8" stroke-linecap="round" stroke-linejoin="round"/>
  <path d="M48.0,219.8 C49.7,218.4 54.7,213.7 58.0,211.7 C61.4,209.7 64.7,209.1 68.1,207.7 C71.4,206.4 74.8,204.4 78.1,203.7 C81.4,203.0 84.8,205.0 88.1,203.5 C91.5,202.0 94.8,196.6 98.2,194.9 C101.5,193.2 104.9,200.1 108.2,193.2 C111.5,186.2 114.9,160.3 118.2,153.3 C121.6,146.3 124.9,151.7 128.3,151.3 C131.6,150.8 135.0,150.7 138.3,150.5 C141.6,150.3 145.0,150.2 148.3,150.1 C151.7,150.0 155.0,149.9 158.4,149.7 C161.7,149.5 165.1,149.1 168.4,148.7 C171.8,148.2 175.1,147.4 178.4,147.0 C181.8,146.5 185.1,146.3 188.5,146.1 C191.8,145.9 195.2,146.0 198.5,145.6 C201.9,145.2 205.2,144.1 208.5,143.6 C211.9,143.1 215.2,142.9 218.6,142.6 C221.9,142.3 225.3,142.0 228.6,141.7 C232.0,141.4 235.3,141.4 238.6,140.8 C242.0,140.2 245.3,138.7 248.7,138.0 C252.0,137.4 255.4,137.2 258.7,136.9 C262.1,136.6 265.4,136.4 268.7,136.2 C272.1,136.1 275.4,136.5 278.8,136.1 C282.1,135.7 285.5,134.4 288.8,133.8 C292.2,133.2 295.5,133.0 298.8,132.5 C302.2,132.1 305.5,131.8 308.9,131.1 C312.2,130.4 315.6,129.0 318.9,128.3 C322.3,127.6 325.6,127.3 328.9,126.9 C332.3,126.5 335.6,126.3 339.0,126.0 C342.3,125.8 345.7,125.8 349.0,125.3 C352.4,124.9 355.7,124.0 359.1,123.6 C362.4,123.1 365.7,122.8 369.1,122.5 C372.4,122.2 375.8,122.0 379.1,121.7 C382.5,121.5 385.8,121.3 389.2,121.1 C392.5,120.9 395.8,120.6 399.2,120.4 C402.5,120.3 405.9,120.3 409.2,120.2 C412.6,120.2 415.9,121.0 419.3,120.2 C422.6,119.4 425.9,116.5 429.3,115.5 C432.6,114.5 436.0,114.6 439.3,114.2 C442.7,113.7 446.0,113.3 449.4,112.8 C452.7,112.4 456.0,111.9 459.4,111.6 C462.7,111.3 466.1,111.2 469.4,111.0 C472.8,110.8 476.1,110.4 479.5,110.2 C482.8,110.0 486.1,110.1 489.5,109.7 C492.8,109.4 496.2,108.6 499.5,108.1 C502.9,107.7 506.2,107.6 509.6,107.2 C512.9,106.9 516.2,106.4 519.6,106.2 C522.9,105.9 526.3,106.0 529.6,105.7 C533.0,105.5 536.3,104.8 539.7,104.5 C543.0,104.2 546.4,104.2 549.7,104.0 C553.0,103.7 556.4,103.5 559.7,103.2 C563.1,102.9 566.4,102.5 569.8,102.2 C573.1,101.9 576.5,101.5 579.8,101.2 C583.1,100.9 586.5,100.8 589.8,100.3 C593.2,99.9 596.5,99.2 599.9,98.7 C603.2,98.3 606.6,98.1 609.9,97.7 C613.2,97.4 616.6,97.0 619.9,96.6 C623.3,96.3 626.6,95.9 630.0,95.5 C633.3,95.2 638.3,94.7 640.0,94.6" fill="none" class="line-total" stroke-width="2.5" stroke-linecap="round" stroke-linejoin="round"/>

  <circle cx="640" cy="94.55466666666668" r="4.5" class="dot-total" stroke-width="2"/>
    <text x="658" y="98.55466666666668" class="end-label" font-family="-apple-system, BlinkMacSystemFont, 'Segoe UI', Helvetica, sans-serif">Total</text>
    <text x="697" y="98.55466666666668" class="end-value" font-family="-apple-system, BlinkMacSystemFont, 'Segoe UI', Helvetica, sans-serif">2.2k</text>
    <circle cx="640" cy="104.87466666666667" r="3.5" class="dot-openvsx" stroke-width="1.8"/>
    <text x="658" y="116.55466666666668" class="end-label" font-family="-apple-system, BlinkMacSystemFont, 'Segoe UI', Helvetica, sans-serif">Open VSX</text>
    <text x="716.8" y="116.55466666666668" class="end-value" font-family="-apple-system, BlinkMacSystemFont, 'Segoe UI', Helvetica, sans-serif">2k</text>
    <circle cx="640" cy="209.68" r="3.5" class="dot-vscode" stroke-width="1.8"/>
    <text x="658" y="213.68" class="end-label" font-family="-apple-system, BlinkMacSystemFont, 'Segoe UI', Helvetica, sans-serif">VS Code</text>
    <text x="710.2" y="213.68" class="end-value" font-family="-apple-system, BlinkMacSystemFont, 'Segoe UI', Helvetica, sans-serif">180</text>
</svg>