<svg xmlns="http://www.w3.org/2000/svg" viewBox="0 0 760 260" width="760" height="260" role="img" aria-label="Glassy install history">
  <style>
  svg { color-scheme: light dark; }
  .title      { fill: #1a1a2e; font-size: 15px; font-weight: 600; }
  .subtitle   { fill: #6b7280; font-size: 11px; font-weight: 400; }
  .grid       { stroke: #e8e8ee; }
  .axis-label { fill: #8a8a9a; font-size: 10px; }
  .line-total   { stroke: #e8553d; }
  .line-vscode  { stroke: #5b7cfa; }
  .line-openvsx { stroke: #34c7a0; }
  .dot-total   { fill: transparent; stroke: #e8553d; }
  .dot-vscode  { fill: transparent; stroke: #5b7cfa; }
  .dot-openvsx { fill: transparent; stroke: #34c7a0; }
  .end-label       { fill: #1a1a2e; font-size: 11px; font-weight: 600; }
  .end-value       { fill: #6b7280; font-size: 11px; font-weight: 400; }
  .area-total-top    { stop-color: #e8553d; }
  .area-total-bottom { stop-color: #e8553d; }

  @media (prefers-color-scheme: dark) {
    .title      { fill: #e2e2e8; }
    .subtitle   { fill: #8b949e; }
    .grid       { stroke: #2d2d3d; }
    .axis-label { fill: #6e7681; }
    .line-total   { stroke: #ff9b85; }
    .line-vscode  { stroke: #8da4ff; }
    .line-openvsx { stroke: #5eead4; }
    .dot-total   { stroke: #ff9b85; }
    .dot-vscode  { stroke: #8da4ff; }
    .dot-openvsx { stroke: #5eead4; }
    .end-label       { fill: #e2e2e8; }
    .end-value       { fill: #8b949e; }
    .area-total-top    { stop-color: #ff9b85; }
    .area-total-bottom { stop-color: #ff9b85; }
  }
</style>
  <defs>
    <linearGradient id="areaGrad" x1="0" y1="0" x2="0" y2="1">
      <stop offset="0%" class="area-total-top" stop-opacity="0.18"/>
      <stop offset="60%" class="area-total-bottom" stop-opacity="0.04"/>
      <stop offset="100%" class="area-total-bottom" stop-opacity="0"/>
    </linearGradient>
  </defs>

  <text x="48" y="22" class="title" font-family="-apple-system, BlinkMacSystemFont, 'Segoe UI', Helvetica, sans-serif">Installs</text>
  <text x="48" y="37" class="subtitle" font-family="-apple-system, BlinkMacSystemFont, 'Segoe UI', Helvetica, sans-serif">Updated Jun 11</text>

  <line x1="48" y1="220" x2="640" y2="220" class="grid" stroke-width="0.7"/>
    <text x="40" y="223.5" class="axis-label" text-anchor="end" font-family="-apple-system, BlinkMacSystemFont, 'Segoe UI', Helvetica, sans-serif">0</text>
    <line x1="48" y1="177" x2="640" y2="177" class="grid" stroke-width="0.7"/>
    <text x="40" y="180.5" class="axis-label" text-anchor="end" font-family="-apple-system, BlinkMacSystemFont, 'Segoe UI', Helvetica, sans-serif">500</text>
    <line x1="48" y1="134" x2="640" y2="134" class="grid" stroke-width="0.7"/>
    <text x="40" y="137.5" class="axis-label" text-anchor="end" font-family="-apple-system, BlinkMacSystemFont, 'Segoe UI', Helvetica, sans-serif">1k</text>
    <line x1="48" y1="91" x2="640" y2="91" class="grid" stroke-width="0.7"/>
    <text x="40" y="94.5" class="axis-label" text-anchor="end" font-family="-apple-system, BlinkMacSystemFont, 'Segoe UI', Helvetica, sans-serif">1.5k</text>
    <line x1="48" y1="48" x2="640" y2="48" class="grid" stroke-width="0.7"/>
    <text x="40" y="51.5" class="axis-label" text-anchor="end" font-family="-apple-system, BlinkMacSystemFont, 'Segoe UI', Helvetica, sans-serif">2k</text>
  <text x="48" y="248" class="axis-label" text-anchor="middle" font-family="-apple-system, BlinkMacSystemFont, 'Segoe UI', Helvetica, sans-serif">Mar 27</text>
    <text x="161.36170212765956" y="248" class="axis-label" text-anchor="middle" font-family="-apple-system, BlinkMacSystemFont, 'Segoe UI', Helvetica, sans-serif">May 4</text>
    <text x="287.3191489361702" y="248" class="axis-label" text-anchor="middle" font-family="-apple-system, BlinkMacSystemFont, 'Segoe UI', Helvetica, sans-serif">May 14</text>
    <text x="400.6808510638298" y="248" class="axis-label" text-anchor="middle" font-family="-apple-system, BlinkMacSystemFont, 'Segoe UI', Helvetica, sans-serif">May 23</text>
    <text x="526.6382978723404" y="248" class="axis-label" text-anchor="middle" font-family="-apple-system, BlinkMacSystemFont, 'Segoe UI', Helvetica, sans-serif">Jun 2</text>
    <text x="640" y="248" class="axis-label" text-anchor="middle" font-family="-apple-system, BlinkMacSystemFont, 'Segoe UI', Helvetica, sans-serif">Jun 11</text>

  <path d="M48.0,219.7 C50.1,217.6 56.4,210.5 60.6,207.5 C64.8,204.5 69.0,203.6 73.2,201.6 C77.4,199.6 81.6,196.6 85.8,195.6 C90.0,194.5 94.2,197.4 98.4,195.2 C102.6,193.0 106.8,184.9 111.0,182.3 C115.2,179.8 119.4,190.1 123.6,179.8 C127.8,169.4 132.0,130.5 136.2,120.0 C140.4,109.5 144.6,117.6 148.8,116.9 C153.0,116.2 157.2,116.1 161.4,115.8 C165.6,115.5 169.8,115.4 174.0,115.2 C178.2,115.0 182.4,114.9 186.6,114.6 C190.8,114.2 195.0,113.7 199.1,113.0 C203.3,112.3 207.5,111.1 211.7,110.4 C215.9,109.8 220.1,109.5 224.3,109.1 C228.5,108.8 232.7,109.1 236.9,108.5 C241.1,107.8 245.3,106.2 249.5,105.4 C253.7,104.7 257.9,104.4 262.1,103.9 C266.3,103.4 270.5,103.1 274.7,102.6 C278.9,102.2 283.1,102.2 287.3,101.2 C291.5,100.3 295.7,98.0 299.9,97.0 C304.1,96.0 308.3,95.8 312.5,95.4 C316.7,94.9 320.9,94.6 325.1,94.4 C329.3,94.1 333.5,94.7 337.7,94.1 C341.9,93.5 346.1,91.5 350.3,90.7 C354.5,89.8 358.7,89.4 362.9,88.8 C367.1,88.1 371.3,87.7 375.5,86.6 C379.7,85.6 383.9,83.4 388.1,82.4 C392.3,81.4 396.5,80.9 400.7,80.3 C404.9,79.8 409.1,79.4 413.3,79.0 C417.5,78.7 421.7,78.6 425.9,78.0 C430.1,77.4 434.3,76.1 438.5,75.3 C442.7,74.6 446.9,74.3 451.1,73.8 C455.3,73.3 459.5,73.0 463.7,72.6 C467.9,72.2 472.1,72.0 476.3,71.7 C480.5,71.3 484.7,70.8 488.9,70.6 C493.0,70.4 497.2,70.4 501.4,70.4 C505.6,70.3 509.8,71.4 514.0,70.3 C518.2,69.1 522.4,64.8 526.6,63.3 C530.8,61.8 535.0,61.9 539.2,61.2 C543.4,60.6 547.6,59.9 551.8,59.3 C556.0,58.6 560.2,57.8 564.4,57.4 C568.6,56.9 572.8,56.9 577.0,56.5 C581.2,56.2 585.4,55.6 589.6,55.3 C593.8,55.0 598.0,55.1 602.2,54.6 C606.4,54.1 610.6,52.8 614.8,52.2 C619.0,51.6 623.2,51.3 627.4,50.8 C631.6,50.4 637.9,49.5 640.0,49.3 L640.0,220.0 L48.0,220.0 Z" fill="url(#areaGrad)"/>
  <path d="M48.0,219.7 C50.1,217.7 56.4,210.6 60.6,207.8 C64.8,204.9 69.0,204.3 73.2,202.6 C77.4,200.9 81.6,198.5 85.8,197.6 C90.0,196.8 94.2,199.7 98.4,197.6 C102.6,195.6 106.8,187.7 111.0,185.3 C115.2,182.8 119.4,192.6 123.6,183.2 C127.8,173.8 132.0,138.2 136.2,128.7 C140.4,119.1 144.6,126.5 148.8,125.9 C153.0,125.3 157.2,125.3 161.4,125.1 C165.6,124.9 169.8,124.9 174.0,124.7 C178.2,124.6 182.4,124.5 186.6,124.2 C190.8,123.9 195.0,123.3 199.1,122.6 C203.3,122.0 207.5,120.6 211.7,120.1 C215.9,119.5 220.1,119.6 224.3,119.4 C228.5,119.2 232.7,119.4 236.9,118.9 C241.1,118.3 245.3,116.7 249.5,115.9 C253.7,115.2 257.9,115.0 262.1,114.6 C266.3,114.1 270.5,113.8 274.7,113.4 C278.9,112.9 283.1,112.9 287.3,112.0 C291.5,111.1 295.7,108.8 299.9,107.9 C304.1,106.9 308.3,106.7 312.5,106.3 C316.7,105.9 320.9,105.5 325.1,105.3 C329.3,105.1 333.5,105.7 337.7,105.1 C341.9,104.5 346.1,102.7 350.3,101.8 C354.5,101.0 358.7,100.7 362.9,100.1 C367.1,99.5 371.3,99.3 375.5,98.4 C379.7,97.5 383.9,95.4 388.1,94.4 C392.3,93.5 396.5,93.1 400.7,92.5 C404.9,92.0 409.1,91.7 413.3,91.3 C417.5,91.0 421.7,91.0 425.9,90.5 C430.1,89.9 434.3,88.7 438.5,88.1 C442.7,87.4 446.9,87.1 451.1,86.7 C455.3,86.3 459.5,86.0 463.7,85.7 C467.9,85.4 472.1,85.2 476.3,85.0 C480.5,84.7 484.7,84.3 488.9,84.1 C493.0,84.0 497.2,84.1 501.4,84.1 C505.6,84.1 509.8,85.2 514.0,84.1 C518.2,83.0 522.4,78.9 526.6,77.4 C530.8,76.0 535.0,76.0 539.2,75.3 C543.4,74.7 547.6,74.1 551.8,73.5 C556.0,72.8 560.2,72.0 564.4,71.6 C568.6,71.1 572.8,71.0 577.0,70.7 C581.2,70.4 585.4,69.8 589.6,69.5 C593.8,69.2 598.0,69.3 602.2,68.8 C606.4,68.3 610.6,67.0 614.8,66.4 C619.0,65.8 623.2,65.5 627.4,65.0 C631.6,64.5 637.9,63.7 640.0,63.5" fill="none" class="line-openvsx" stroke-width="1.8" stroke-linecap="round" stroke-linejoin="round"/>
  <path d="M48.0,219.9 C50.1,219.9 56.4,219.9 60.6,219.7 C64.8,219.6 69.0,219.3 73.2,219.0 C77.4,218.7 81.6,218.2 85.8,217.9 C90.0,217.7 94.2,217.7 98.4,217.6 C102.6,217.4 106.8,217.2 111.0,217.1 C115.2,216.9 119.4,217.5 123.6,216.6 C127.8,215.6 132.0,212.2 136.2,211.3 C140.4,210.4 144.6,211.1 148.8,211.0 C153.0,210.9 157.2,210.8 161.4,210.7 C165.6,210.6 169.8,210.5 174.0,210.5 C178.2,210.4 182.4,210.4 186.6,210.4 C190.8,210.4 195.0,210.4 199.1,210.4 C203.3,210.4 207.5,210.5 211.7,210.4 C215.9,210.3 220.1,209.9 224.3,209.8 C228.5,209.6 232.7,209.6 236.9,209.6 C241.1,209.6 245.3,209.6 249.5,209.5 C253.7,209.5 257.9,209.4 262.1,209.3 C266.3,209.3 270.5,209.3 274.7,209.3 C278.9,209.2 283.1,209.3 287.3,209.3 C291.5,209.2 295.7,209.2 299.9,209.2 C304.1,209.1 308.3,209.1 312.5,209.1 C316.7,209.1 320.9,209.1 325.1,209.1 C329.3,209.1 333.5,209.0 337.7,209.0 C341.9,208.9 346.1,208.9 350.3,208.8 C354.5,208.8 358.7,208.7 362.9,208.6 C367.1,208.5 371.3,208.3 375.5,208.2 C379.7,208.1 383.9,208.0 388.1,208.0 C392.3,207.9 396.5,207.8 400.7,207.8 C404.9,207.7 409.1,207.7 413.3,207.7 C417.5,207.7 421.7,207.6 425.9,207.5 C430.1,207.5 434.3,207.3 438.5,207.3 C442.7,207.2 446.9,207.2 451.1,207.1 C455.3,207.0 459.5,207.0 463.7,206.9 C467.9,206.9 472.1,206.7 476.3,206.7 C480.5,206.6 484.7,206.6 488.9,206.5 C493.0,206.4 497.2,206.3 501.4,206.2 C505.6,206.2 509.8,206.2 514.0,206.2 C518.2,206.1 522.4,205.9 526.6,205.9 C530.8,205.9 535.0,205.9 539.2,205.9 C543.4,205.9 547.6,205.8 551.8,205.8 C556.0,205.8 560.2,205.8 564.4,205.8 C568.6,205.8 572.8,205.8 577.0,205.8 C581.2,205.8 585.4,205.8 589.6,205.8 C593.8,205.8 598.0,205.8 602.2,205.8 C606.4,205.8 610.6,205.8 614.8,205.8 C619.0,205.8 623.2,205.8 627.4,205.8 C631.6,205.8 637.9,205.8 640.0,205.8" fill="none" class="line-vscode" stroke-width="1.8" stroke-linecap="round" stroke-linejoin="round"/>
  <path d="M48.0,219.7 C50.1,217.6 56.4,210.5 60.6,207.5 C64.8,204.5 69.0,203.6 73.2,201.6 C77.4,199.6 81.6,196.6 85.8,195.6 C90.0,194.5 94.2,197.4 98.4,195.2 C102.6,193.0 106.8,184.9 111.0,182.3 C115.2,179.8 119.4,190.1 123.6,179.8 C127.8,169.4 132.0,130.5 136.2,120.0 C140.4,109.5 144.6,117.6 148.8,116.9 C153.0,116.2 157.2,116.1 161.4,115.8 C165.6,115.5 169.8,115.4 174.0,115.2 C178.2,115.0 182.4,114.9 186.6,114.6 C190.8,114.2 195.0,113.7 199.1,113.0 C203.3,112.3 207.5,111.1 211.7,110.4 C215.9,109.8 220.1,109.5 224.3,109.1 C228.5,108.8 232.7,109.1 236.9,108.5 C241.1,107.8 245.3,106.2 249.5,105.4 C253.7,104.7 257.9,104.4 262.1,103.9 C266.3,103.4 270.5,103.1 274.7,102.6 C278.9,102.2 283.1,102.2 287.3,101.2 C291.5,100.3 295.7,98.0 299.9,97.0 C304.1,96.0 308.3,95.8 312.5,95.4 C316.7,94.9 320.9,94.6 325.1,94.4 C329.3,94.1 333.5,94.7 337.7,94.1 C341.9,93.5 346.1,91.5 350.3,90.7 C354.5,89.8 358.7,89.4 362.9,88.8 C367.1,88.1 371.3,87.7 375.5,86.6 C379.7,85.6 383.9,83.4 388.1,82.4 C392.3,81.4 396.5,80.9 400.7,80.3 C404.9,79.8 409.1,79.4 413.3,79.0 C417.5,78.7 421.7,78.6 425.9,78.0 C430.1,77.4 434.3,76.1 438.5,75.3 C442.7,74.6 446.9,74.3 451.1,73.8 C455.3,73.3 459.5,73.0 463.7,72.6 C467.9,72.2 472.1,72.0 476.3,71.7 C480.5,71.3 484.7,70.8 488.9,70.6 C493.0,70.4 497.2,70.4 501.4,70.4 C505.6,70.3 509.8,71.4 514.0,70.3 C518.2,69.1 522.4,64.8 526.6,63.3 C530.8,61.8 535.0,61.9 539.2,61.2 C543.4,60.6 547.6,59.9 551.8,59.3 C556.0,58.6 560.2,57.8 564.4,57.4 C568.6,56.9 572.8,56.9 577.0,56.5 C581.2,56.2 585.4,55.6 589.6,55.3 C593.8,55.0 598.0,55.1 602.2,54.6 C606.4,54.1 610.6,52.8 614.8,52.2 C619.0,51.6 623.2,51.3 627.4,50.8 C631.6,50.4 637.9,49.5 640.0,49.3" fill="none" class="line-total" stroke-width="2.5" stroke-linecap="round" stroke-linejoin="round"/>

  <circle cx="640" cy="49.28999999999999" r="4.5" class="dot-total" stroke-width="2"/>
    <text x="658" y="53.28999999999999" class="end-label" font-family="-apple-system, BlinkMacSystemFont, 'Segoe UI', Helvetica, sans-serif">Total</text>
    <text x="697" y="53.28999999999999" class="end-value" font-family="-apple-system, BlinkMacSystemFont, 'Segoe UI', Helvetica, sans-serif">2k</text>
    <circle cx="640" cy="63.47999999999999" r="3.5" class="dot-openvsx" stroke-width="1.8"/>
    <text x="658" y="71.28999999999999" class="end-label" font-family="-apple-system, BlinkMacSystemFont, 'Segoe UI', Helvetica, sans-serif">Open VSX</text>
    <text x="716.8" y="71.28999999999999" class="end-value" font-family="-apple-system, BlinkMacSystemFont, 'Segoe UI', Helvetica, sans-serif">1.8k</text>
    <circle cx="640" cy="205.81" r="3.5" class="dot-vscode" stroke-width="1.8"/>
    <text x="658" y="209.81" class="end-label" font-family="-apple-system, BlinkMacSystemFont, 'Segoe UI', Helvetica, sans-serif">VS Code</text>
    <text x="710.2" y="209.81" class="end-value" font-family="-apple-system, BlinkMacSystemFont, 'Segoe UI', Helvetica, sans-serif">165</text>
</svg>