<svg xmlns="http://www.w3.org/2000/svg" viewBox="0 0 760 260" width="760" height="260" role="img" aria-label="Glassy install history">
  <style>
  svg { color-scheme: light dark; }
  .title      { fill: #1a1a2e; font-size: 15px; font-weight: 600; }
  .subtitle   { fill: #6b7280; font-size: 11px; font-weight: 400; }
  .grid       { stroke: #e8e8ee; }
  .axis-label { fill: #8a8a9a; font-size: 10px; }
  .line-total   { stroke: #e8553d; }
  .line-vscode  { stroke: #5b7cfa; }
  .line-openvsx { stroke: #34c7a0; }
  .dot-total   { fill: transparent; stroke: #e8553d; }
  .dot-vscode  { fill: transparent; stroke: #5b7cfa; }
  .dot-openvsx { fill: transparent; stroke: #34c7a0; }
  .end-label       { fill: #1a1a2e; font-size: 11px; font-weight: 600; }
  .end-value       { fill: #6b7280; font-size: 11px; font-weight: 400; }
  .area-total-top    { stop-color: #e8553d; }
  .area-total-bottom { stop-color: #e8553d; }

  @media (prefers-color-scheme: dark) {
    .title      { fill: #e2e2e8; }
    .subtitle   { fill: #8b949e; }
    .grid       { stroke: #2d2d3d; }
    .axis-label { fill: #6e7681; }
    .line-total   { stroke: #ff9b85; }
    .line-vscode  { stroke: #8da4ff; }
    .line-openvsx { stroke: #5eead4; }
    .dot-total   { stroke: #ff9b85; }
    .dot-vscode  { stroke: #8da4ff; }
    .dot-openvsx { stroke: #5eead4; }
    .end-label       { fill: #e2e2e8; }
    .end-value       { fill: #8b949e; }
    .area-total-top    { stop-color: #ff9b85; }
    .area-total-bottom { stop-color: #ff9b85; }
  }
</style>
  <defs>
    <linearGradient id="areaGrad" x1="0" y1="0" x2="0" y2="1">
      <stop offset="0%" class="area-total-top" stop-opacity="0.18"/>
      <stop offset="60%" class="area-total-bottom" stop-opacity="0.04"/>
      <stop offset="100%" class="area-total-bottom" stop-opacity="0"/>
    </linearGradient>
  </defs>

  <text x="48" y="22" class="title" font-family="-apple-system, BlinkMacSystemFont, 'Segoe UI', Helvetica, sans-serif">Installs</text>
  <text x="48" y="37" class="subtitle" font-family="-apple-system, BlinkMacSystemFont, 'Segoe UI', Helvetica, sans-serif">Updated May 30</text>

  <line x1="48" y1="220" x2="640" y2="220" class="grid" stroke-width="0.7"/>
    <text x="40" y="223.5" class="axis-label" text-anchor="end" font-family="-apple-system, BlinkMacSystemFont, 'Segoe UI', Helvetica, sans-serif">0</text>
    <line x1="48" y1="177" x2="640" y2="177" class="grid" stroke-width="0.7"/>
    <text x="40" y="180.5" class="axis-label" text-anchor="end" font-family="-apple-system, BlinkMacSystemFont, 'Segoe UI', Helvetica, sans-serif">500</text>
    <line x1="48" y1="134" x2="640" y2="134" class="grid" stroke-width="0.7"/>
    <text x="40" y="137.5" class="axis-label" text-anchor="end" font-family="-apple-system, BlinkMacSystemFont, 'Segoe UI', Helvetica, sans-serif">1k</text>
    <line x1="48" y1="91" x2="640" y2="91" class="grid" stroke-width="0.7"/>
    <text x="40" y="94.5" class="axis-label" text-anchor="end" font-family="-apple-system, BlinkMacSystemFont, 'Segoe UI', Helvetica, sans-serif">1.5k</text>
    <line x1="48" y1="48" x2="640" y2="48" class="grid" stroke-width="0.7"/>
    <text x="40" y="51.5" class="axis-label" text-anchor="end" font-family="-apple-system, BlinkMacSystemFont, 'Segoe UI', Helvetica, sans-serif">2k</text>
  <text x="48" y="248" class="axis-label" text-anchor="middle" font-family="-apple-system, BlinkMacSystemFont, 'Segoe UI', Helvetica, sans-serif">Mar 27</text>
    <text x="166.4" y="248" class="axis-label" text-anchor="middle" font-family="-apple-system, BlinkMacSystemFont, 'Segoe UI', Helvetica, sans-serif">Apr 30</text>
    <text x="284.8" y="248" class="axis-label" text-anchor="middle" font-family="-apple-system, BlinkMacSystemFont, 'Segoe UI', Helvetica, sans-serif">May 9</text>
    <text x="403.2" y="248" class="axis-label" text-anchor="middle" font-family="-apple-system, BlinkMacSystemFont, 'Segoe UI', Helvetica, sans-serif">May 16</text>
    <text x="521.6" y="248" class="axis-label" text-anchor="middle" font-family="-apple-system, BlinkMacSystemFont, 'Segoe UI', Helvetica, sans-serif">May 23</text>
    <text x="640" y="248" class="axis-label" text-anchor="middle" font-family="-apple-system, BlinkMacSystemFont, 'Segoe UI', Helvetica, sans-serif">May 30</text>

  <path d="M48.0,219.7 C50.8,217.6 59.3,210.5 64.9,207.5 C70.6,204.5 76.2,203.6 81.8,201.6 C87.5,199.6 93.1,196.6 98.7,195.6 C104.4,194.5 110.0,197.4 115.7,195.2 C121.3,193.0 126.9,184.9 132.6,182.3 C138.2,179.8 143.8,190.1 149.5,179.8 C155.1,169.4 160.8,130.5 166.4,120.0 C172.0,109.5 177.7,117.6 183.3,116.9 C189.0,116.2 194.6,116.1 200.2,115.8 C205.9,115.5 211.5,115.4 217.1,115.2 C222.8,115.0 228.4,114.9 234.1,114.6 C239.7,114.2 245.3,113.7 251.0,113.0 C256.6,112.3 262.2,111.1 267.9,110.4 C273.5,109.8 279.2,109.5 284.8,109.1 C290.4,108.8 296.1,109.1 301.7,108.5 C307.4,107.8 313.0,106.2 318.6,105.4 C324.3,104.7 329.9,104.4 335.5,103.9 C341.2,103.4 346.8,103.1 352.5,102.6 C358.1,102.2 363.7,102.2 369.4,101.2 C375.0,100.3 380.6,98.0 386.3,97.0 C391.9,96.0 397.6,95.8 403.2,95.4 C408.8,94.9 414.5,94.6 420.1,94.4 C425.8,94.1 431.4,94.7 437.0,94.1 C442.7,93.5 448.3,91.5 453.9,90.7 C459.6,89.8 465.2,89.4 470.9,88.8 C476.5,88.1 482.1,87.7 487.8,86.6 C493.4,85.6 499.0,83.4 504.7,82.4 C510.3,81.4 516.0,80.9 521.6,80.3 C527.2,79.8 532.9,79.4 538.5,79.0 C544.2,78.7 549.8,78.6 555.4,78.0 C561.1,77.4 566.7,76.1 572.3,75.3 C578.0,74.6 583.6,74.3 589.3,73.8 C594.9,73.3 600.5,73.0 606.2,72.6 C611.8,72.2 617.4,72.0 623.1,71.7 C628.7,71.3 637.2,70.8 640.0,70.6 L640.0,220.0 L48.0,220.0 Z" fill="url(#areaGrad)"/>
  <path d="M48.0,219.7 C50.8,217.7 59.3,210.6 64.9,207.8 C70.6,204.9 76.2,204.3 81.8,202.6 C87.5,200.9 93.1,198.5 98.7,197.6 C104.4,196.8 110.0,199.7 115.7,197.6 C121.3,195.6 126.9,187.7 132.6,185.3 C138.2,182.8 143.8,192.6 149.5,183.2 C155.1,173.8 160.8,138.2 166.4,128.7 C172.0,119.1 177.7,126.5 183.3,125.9 C189.0,125.3 194.6,125.3 200.2,125.1 C205.9,124.9 211.5,124.9 217.1,124.7 C222.8,124.6 228.4,124.5 234.1,124.2 C239.7,123.9 245.3,123.3 251.0,122.6 C256.6,122.0 262.2,120.6 267.9,120.1 C273.5,119.5 279.2,119.6 284.8,119.4 C290.4,119.2 296.1,119.4 301.7,118.9 C307.4,118.3 313.0,116.7 318.6,115.9 C324.3,115.2 329.9,115.0 335.5,114.6 C341.2,114.1 346.8,113.8 352.5,113.4 C358.1,112.9 363.7,112.9 369.4,112.0 C375.0,111.1 380.6,108.8 386.3,107.9 C391.9,106.9 397.6,106.7 403.2,106.3 C408.8,105.9 414.5,105.5 420.1,105.3 C425.8,105.1 431.4,105.7 437.0,105.1 C442.7,104.5 448.3,102.7 453.9,101.8 C459.6,101.0 465.2,100.7 470.9,100.1 C476.5,99.5 482.1,99.3 487.8,98.4 C493.4,97.5 499.0,95.4 504.7,94.4 C510.3,93.5 516.0,93.1 521.6,92.5 C527.2,92.0 532.9,91.7 538.5,91.3 C544.2,91.0 549.8,91.0 555.4,90.5 C561.1,89.9 566.7,88.7 572.3,88.1 C578.0,87.4 583.6,87.1 589.3,86.7 C594.9,86.3 600.5,86.0 606.2,85.7 C611.8,85.4 617.4,85.2 623.1,85.0 C628.7,84.7 637.2,84.3 640.0,84.1" fill="none" class="line-openvsx" stroke-width="1.8" stroke-linecap="round" stroke-linejoin="round"/>
  <path d="M48.0,219.9 C50.8,219.9 59.3,219.9 64.9,219.7 C70.6,219.6 76.2,219.3 81.8,219.0 C87.5,218.7 93.1,218.2 98.7,217.9 C104.4,217.7 110.0,217.7 115.7,217.6 C121.3,217.4 126.9,217.2 132.6,217.1 C138.2,216.9 143.8,217.5 149.5,216.6 C155.1,215.6 160.8,212.2 166.4,211.3 C172.0,210.4 177.7,211.1 183.3,211.0 C189.0,210.9 194.6,210.8 200.2,210.7 C205.9,210.6 211.5,210.5 217.1,210.5 C222.8,210.4 228.4,210.4 234.1,210.4 C239.7,210.4 245.3,210.4 251.0,210.4 C256.6,210.4 262.2,210.5 267.9,210.4 C273.5,210.3 279.2,209.9 284.8,209.8 C290.4,209.6 296.1,209.6 301.7,209.6 C307.4,209.6 313.0,209.6 318.6,209.5 C324.3,209.5 329.9,209.4 335.5,209.3 C341.2,209.3 346.8,209.3 352.5,209.3 C358.1,209.2 363.7,209.3 369.4,209.3 C375.0,209.2 380.6,209.2 386.3,209.2 C391.9,209.1 397.6,209.1 403.2,209.1 C408.8,209.1 414.5,209.1 420.1,209.1 C425.8,209.1 431.4,209.0 437.0,209.0 C442.7,208.9 448.3,208.9 453.9,208.8 C459.6,208.8 465.2,208.7 470.9,208.6 C476.5,208.5 482.1,208.3 487.8,208.2 C493.4,208.1 499.0,208.0 504.7,208.0 C510.3,207.9 516.0,207.8 521.6,207.8 C527.2,207.7 532.9,207.7 538.5,207.7 C544.2,207.7 549.8,207.6 555.4,207.5 C561.1,207.5 566.7,207.3 572.3,207.3 C578.0,207.2 583.6,207.2 589.3,207.1 C594.9,207.0 600.5,207.0 606.2,206.9 C611.8,206.9 617.4,206.7 623.1,206.7 C628.7,206.6 637.2,206.5 640.0,206.5" fill="none" class="line-vscode" stroke-width="1.8" stroke-linecap="round" stroke-linejoin="round"/>
  <path d="M48.0,219.7 C50.8,217.6 59.3,210.5 64.9,207.5 C70.6,204.5 76.2,203.6 81.8,201.6 C87.5,199.6 93.1,196.6 98.7,195.6 C104.4,194.5 110.0,197.4 115.7,195.2 C121.3,193.0 126.9,184.9 132.6,182.3 C138.2,179.8 143.8,190.1 149.5,179.8 C155.1,169.4 160.8,130.5 166.4,120.0 C172.0,109.5 177.7,117.6 183.3,116.9 C189.0,116.2 194.6,116.1 200.2,115.8 C205.9,115.5 211.5,115.4 217.1,115.2 C222.8,115.0 228.4,114.9 234.1,114.6 C239.7,114.2 245.3,113.7 251.0,113.0 C256.6,112.3 262.2,111.1 267.9,110.4 C273.5,109.8 279.2,109.5 284.8,109.1 C290.4,108.8 296.1,109.1 301.7,108.5 C307.4,107.8 313.0,106.2 318.6,105.4 C324.3,104.7 329.9,104.4 335.5,103.9 C341.2,103.4 346.8,103.1 352.5,102.6 C358.1,102.2 363.7,102.2 369.4,101.2 C375.0,100.3 380.6,98.0 386.3,97.0 C391.9,96.0 397.6,95.8 403.2,95.4 C408.8,94.9 414.5,94.6 420.1,94.4 C425.8,94.1 431.4,94.7 437.0,94.1 C442.7,93.5 448.3,91.5 453.9,90.7 C459.6,89.8 465.2,89.4 470.9,88.8 C476.5,88.1 482.1,87.7 487.8,86.6 C493.4,85.6 499.0,83.4 504.7,82.4 C510.3,81.4 516.0,80.9 521.6,80.3 C527.2,79.8 532.9,79.4 538.5,79.0 C544.2,78.7 549.8,78.6 555.4,78.0 C561.1,77.4 566.7,76.1 572.3,75.3 C578.0,74.6 583.6,74.3 589.3,73.8 C594.9,73.3 600.5,73.0 606.2,72.6 C611.8,72.2 617.4,72.0 623.1,71.7 C628.7,71.3 637.2,70.8 640.0,70.6" fill="none" class="line-total" stroke-width="2.5" stroke-linecap="round" stroke-linejoin="round"/>

  <circle cx="640" cy="70.618" r="4.5" class="dot-total" stroke-width="2"/>
    <text x="658" y="74.618" class="end-label" font-family="-apple-system, BlinkMacSystemFont, 'Segoe UI', Helvetica, sans-serif">Total</text>
    <text x="697" y="74.618" class="end-value" font-family="-apple-system, BlinkMacSystemFont, 'Segoe UI', Helvetica, sans-serif">1.7k</text>
    <circle cx="640" cy="84.12" r="3.5" class="dot-openvsx" stroke-width="1.8"/>
    <text x="658" y="92.618" class="end-label" font-family="-apple-system, BlinkMacSystemFont, 'Segoe UI', Helvetica, sans-serif">Open VSX</text>
    <text x="716.8" y="92.618" class="end-value" font-family="-apple-system, BlinkMacSystemFont, 'Segoe UI', Helvetica, sans-serif">1.6k</text>
    <circle cx="640" cy="206.498" r="3.5" class="dot-vscode" stroke-width="1.8"/>
    <text x="658" y="210.498" class="end-label" font-family="-apple-system, BlinkMacSystemFont, 'Segoe UI', Helvetica, sans-serif">VS Code</text>
    <text x="710.2" y="210.498" class="end-value" font-family="-apple-system, BlinkMacSystemFont, 'Segoe UI', Helvetica, sans-serif">157</text>
</svg>