<svg xmlns="http://www.w3.org/2000/svg" viewBox="0 0 760 260" width="760" height="260" role="img" aria-label="Glassy install history">
  <style>
  svg { color-scheme: light dark; }
  .title      { fill: #1a1a2e; font-size: 15px; font-weight: 600; }
  .subtitle   { fill: #6b7280; font-size: 11px; font-weight: 400; }
  .grid       { stroke: #e8e8ee; }
  .axis-label { fill: #8a8a9a; font-size: 10px; }
  .line-total   { stroke: #e8553d; }
  .line-vscode  { stroke: #5b7cfa; }
  .line-openvsx { stroke: #34c7a0; }
  .dot-total   { fill: transparent; stroke: #e8553d; }
  .dot-vscode  { fill: transparent; stroke: #5b7cfa; }
  .dot-openvsx { fill: transparent; stroke: #34c7a0; }
  .end-label       { fill: #1a1a2e; font-size: 11px; font-weight: 600; }
  .end-value       { fill: #6b7280; font-size: 11px; font-weight: 400; }
  .area-total-top    { stop-color: #e8553d; }
  .area-total-bottom { stop-color: #e8553d; }

  @media (prefers-color-scheme: dark) {
    .title      { fill: #e2e2e8; }
    .subtitle   { fill: #8b949e; }
    .grid       { stroke: #2d2d3d; }
    .axis-label { fill: #6e7681; }
    .line-total   { stroke: #ff9b85; }
    .line-vscode  { stroke: #8da4ff; }
    .line-openvsx { stroke: #5eead4; }
    .dot-total   { stroke: #ff9b85; }
    .dot-vscode  { stroke: #8da4ff; }
    .dot-openvsx { stroke: #5eead4; }
    .end-label       { fill: #e2e2e8; }
    .end-value       { fill: #8b949e; }
    .area-total-top    { stop-color: #ff9b85; }
    .area-total-bottom { stop-color: #ff9b85; }
  }
</style>
  <defs>
    <linearGradient id="areaGrad" x1="0" y1="0" x2="0" y2="1">
      <stop offset="0%" class="area-total-top" stop-opacity="0.18"/>
      <stop offset="60%" class="area-total-bottom" stop-opacity="0.04"/>
      <stop offset="100%" class="area-total-bottom" stop-opacity="0"/>
    </linearGradient>
  </defs>

  <text x="48" y="22" class="title" font-family="-apple-system, BlinkMacSystemFont, 'Segoe UI', Helvetica, sans-serif">Installs</text>
  <text x="48" y="37" class="subtitle" font-family="-apple-system, BlinkMacSystemFont, 'Segoe UI', Helvetica, sans-serif">Updated May 13</text>

  <line x1="48" y1="220" x2="640" y2="220" class="grid" stroke-width="0.7"/>
    <text x="40" y="223.5" class="axis-label" text-anchor="end" font-family="-apple-system, BlinkMacSystemFont, 'Segoe UI', Helvetica, sans-serif">0</text>
    <line x1="48" y1="162.66666666666669" x2="640" y2="162.66666666666669" class="grid" stroke-width="0.7"/>
    <text x="40" y="166.16666666666669" class="axis-label" text-anchor="end" font-family="-apple-system, BlinkMacSystemFont, 'Segoe UI', Helvetica, sans-serif">500</text>
    <line x1="48" y1="105.33333333333334" x2="640" y2="105.33333333333334" class="grid" stroke-width="0.7"/>
    <text x="40" y="108.83333333333334" class="axis-label" text-anchor="end" font-family="-apple-system, BlinkMacSystemFont, 'Segoe UI', Helvetica, sans-serif">1k</text>
    <line x1="48" y1="48" x2="640" y2="48" class="grid" stroke-width="0.7"/>
    <text x="40" y="51.5" class="axis-label" text-anchor="end" font-family="-apple-system, BlinkMacSystemFont, 'Segoe UI', Helvetica, sans-serif">1.5k</text>
  <text x="48" y="248" class="axis-label" text-anchor="middle" font-family="-apple-system, BlinkMacSystemFont, 'Segoe UI', Helvetica, sans-serif">Mar 27</text>
    <text x="179.55555555555554" y="248" class="axis-label" text-anchor="middle" font-family="-apple-system, BlinkMacSystemFont, 'Segoe UI', Helvetica, sans-serif">Mar 31</text>
    <text x="278.22222222222223" y="248" class="axis-label" text-anchor="middle" font-family="-apple-system, BlinkMacSystemFont, 'Segoe UI', Helvetica, sans-serif">Apr 30</text>
    <text x="409.7777777777778" y="248" class="axis-label" text-anchor="middle" font-family="-apple-system, BlinkMacSystemFont, 'Segoe UI', Helvetica, sans-serif">May 6</text>
    <text x="508.44444444444446" y="248" class="axis-label" text-anchor="middle" font-family="-apple-system, BlinkMacSystemFont, 'Segoe UI', Helvetica, sans-serif">May 9</text>
    <text x="640" y="248" class="axis-label" text-anchor="middle" font-family="-apple-system, BlinkMacSystemFont, 'Segoe UI', Helvetica, sans-serif">May 13</text>

  <path d="M48.0,219.5 C53.5,216.8 69.9,207.4 80.9,203.4 C91.9,199.4 102.8,198.1 113.8,195.5 C124.7,192.8 135.7,188.8 146.7,187.4 C157.6,186.0 168.6,189.9 179.6,187.0 C190.5,184.0 201.5,173.2 212.4,169.8 C223.4,166.3 234.4,180.2 245.3,166.3 C256.3,152.5 267.3,100.6 278.2,86.6 C289.2,72.7 300.1,83.5 311.1,82.5 C322.1,81.6 333.0,81.4 344.0,81.0 C355.0,80.6 365.9,80.5 376.9,80.2 C387.9,80.0 398.8,79.9 409.8,79.4 C420.7,78.9 431.7,78.3 442.7,77.4 C453.6,76.4 464.6,74.8 475.6,73.9 C486.5,73.1 497.5,72.6 508.4,72.2 C519.4,71.8 530.4,72.1 541.3,71.3 C552.3,70.5 563.3,68.3 574.2,67.3 C585.2,66.3 596.1,65.8 607.1,65.2 C618.1,64.6 634.5,63.8 640.0,63.5 L640.0,220.0 L48.0,220.0 Z" fill="url(#areaGrad)"/>
  <path d="M48.0,219.7 C53.5,217.0 69.9,207.5 80.9,203.7 C91.9,199.9 102.8,199.1 113.8,196.8 C124.7,194.6 135.7,191.3 146.7,190.2 C157.6,189.1 168.6,192.9 179.6,190.2 C190.5,187.4 201.5,176.9 212.4,173.7 C223.4,170.5 234.4,183.5 245.3,170.9 C256.3,158.3 267.3,111.0 278.2,98.2 C289.2,85.5 300.1,95.4 311.1,94.6 C322.1,93.8 333.0,93.7 344.0,93.4 C355.0,93.1 365.9,93.1 376.9,92.9 C387.9,92.8 398.8,92.7 409.8,92.3 C420.7,91.8 431.7,91.1 442.7,90.2 C453.6,89.3 464.6,87.5 475.6,86.8 C486.5,86.0 497.5,86.1 508.4,85.8 C519.4,85.6 530.4,85.9 541.3,85.2 C552.3,84.4 563.3,82.2 574.2,81.3 C585.2,80.3 596.1,80.0 607.1,79.4 C618.1,78.8 634.5,78.1 640.0,77.8" fill="none" class="line-openvsx" stroke-width="1.8" stroke-linecap="round" stroke-linejoin="round"/>
  <path d="M48.0,219.9 C53.5,219.8 69.9,219.9 80.9,219.7 C91.9,219.4 102.8,219.0 113.8,218.6 C124.7,218.2 135.7,217.6 146.7,217.2 C157.6,216.9 168.6,217.0 179.6,216.8 C190.5,216.6 201.5,216.3 212.4,216.1 C223.4,215.9 234.4,216.7 245.3,215.4 C256.3,214.1 267.3,209.7 278.2,208.4 C289.2,207.2 300.1,208.1 311.1,208.0 C322.1,207.8 333.0,207.7 344.0,207.6 C355.0,207.5 365.9,207.3 376.9,207.3 C387.9,207.2 398.8,207.2 409.8,207.2 C420.7,207.1 431.7,207.2 442.7,207.2 C453.6,207.2 464.6,207.3 475.6,207.2 C486.5,207.0 497.5,206.5 508.4,206.4 C519.4,206.2 530.4,206.2 541.3,206.1 C552.3,206.1 563.3,206.1 574.2,206.0 C585.2,206.0 596.1,205.8 607.1,205.8 C618.1,205.7 634.5,205.7 640.0,205.7" fill="none" class="line-vscode" stroke-width="1.8" stroke-linecap="round" stroke-linejoin="round"/>
  <path d="M48.0,219.5 C53.5,216.8 69.9,207.4 80.9,203.4 C91.9,199.4 102.8,198.1 113.8,195.5 C124.7,192.8 135.7,188.8 146.7,187.4 C157.6,186.0 168.6,189.9 179.6,187.0 C190.5,184.0 201.5,173.2 212.4,169.8 C223.4,166.3 234.4,180.2 245.3,166.3 C256.3,152.5 267.3,100.6 278.2,86.6 C289.2,72.7 300.1,83.5 311.1,82.5 C322.1,81.6 333.0,81.4 344.0,81.0 C355.0,80.6 365.9,80.5 376.9,80.2 C387.9,80.0 398.8,79.9 409.8,79.4 C420.7,78.9 431.7,78.3 442.7,77.4 C453.6,76.4 464.6,74.8 475.6,73.9 C486.5,73.1 497.5,72.6 508.4,72.2 C519.4,71.8 530.4,72.1 541.3,71.3 C552.3,70.5 563.3,68.3 574.2,67.3 C585.2,66.3 596.1,65.8 607.1,65.2 C618.1,64.6 634.5,63.8 640.0,63.5" fill="none" class="line-total" stroke-width="2.5" stroke-linecap="round" stroke-linejoin="round"/>

  <circle cx="640" cy="63.47999999999999" r="4.5" class="dot-total" stroke-width="2"/>
    <text x="658" y="67.47999999999999" class="end-label" font-family="-apple-system, BlinkMacSystemFont, 'Segoe UI', Helvetica, sans-serif">Total</text>
    <text x="697" y="67.47999999999999" class="end-value" font-family="-apple-system, BlinkMacSystemFont, 'Segoe UI', Helvetica, sans-serif">1.4k</text>
    <circle cx="640" cy="77.81333333333333" r="3.5" class="dot-openvsx" stroke-width="1.8"/>
    <text x="658" y="85.47999999999999" class="end-label" font-family="-apple-system, BlinkMacSystemFont, 'Segoe UI', Helvetica, sans-serif">Open VSX</text>
    <text x="716.8" y="85.47999999999999" class="end-value" font-family="-apple-system, BlinkMacSystemFont, 'Segoe UI', Helvetica, sans-serif">1.2k</text>
    <circle cx="640" cy="205.66666666666666" r="3.5" class="dot-vscode" stroke-width="1.8"/>
    <text x="658" y="209.66666666666666" class="end-label" font-family="-apple-system, BlinkMacSystemFont, 'Segoe UI', Helvetica, sans-serif">VS Code</text>
    <text x="710.2" y="209.66666666666666" class="end-value" font-family="-apple-system, BlinkMacSystemFont, 'Segoe UI', Helvetica, sans-serif">125</text>
</svg>