<svg xmlns="http://www.w3.org/2000/svg" viewBox="0 0 760 260" width="760" height="260" role="img" aria-label="Glassy install history">
  <style>
  svg { color-scheme: light dark; }
  .title      { fill: #1a1a2e; font-size: 15px; font-weight: 600; }
  .subtitle   { fill: #6b7280; font-size: 11px; font-weight: 400; }
  .grid       { stroke: #e8e8ee; }
  .axis-label { fill: #8a8a9a; font-size: 10px; }
  .line-total   { stroke: #e8553d; }
  .line-vscode  { stroke: #5b7cfa; }
  .line-openvsx { stroke: #34c7a0; }
  .dot-total   { fill: transparent; stroke: #e8553d; }
  .dot-vscode  { fill: transparent; stroke: #5b7cfa; }
  .dot-openvsx { fill: transparent; stroke: #34c7a0; }
  .end-label       { fill: #1a1a2e; font-size: 11px; font-weight: 600; }
  .end-value       { fill: #6b7280; font-size: 11px; font-weight: 400; }
  .area-total-top    { stop-color: #e8553d; }
  .area-total-bottom { stop-color: #e8553d; }

  @media (prefers-color-scheme: dark) {
    .title      { fill: #e2e2e8; }
    .subtitle   { fill: #8b949e; }
    .grid       { stroke: #2d2d3d; }
    .axis-label { fill: #6e7681; }
    .line-total   { stroke: #ff9b85; }
    .line-vscode  { stroke: #8da4ff; }
    .line-openvsx { stroke: #5eead4; }
    .dot-total   { stroke: #ff9b85; }
    .dot-vscode  { stroke: #8da4ff; }
    .dot-openvsx { stroke: #5eead4; }
    .end-label       { fill: #e2e2e8; }
    .end-value       { fill: #8b949e; }
    .area-total-top    { stop-color: #ff9b85; }
    .area-total-bottom { stop-color: #ff9b85; }
  }
</style>
  <defs>
    <linearGradient id="areaGrad" x1="0" y1="0" x2="0" y2="1">
      <stop offset="0%" class="area-total-top" stop-opacity="0.18"/>
      <stop offset="60%" class="area-total-bottom" stop-opacity="0.04"/>
      <stop offset="100%" class="area-total-bottom" stop-opacity="0"/>
    </linearGradient>
  </defs>

  <text x="48" y="22" class="title" font-family="-apple-system, BlinkMacSystemFont, 'Segoe UI', Helvetica, sans-serif">Installs</text>
  <text x="48" y="37" class="subtitle" font-family="-apple-system, BlinkMacSystemFont, 'Segoe UI', Helvetica, sans-serif">Updated Jun 22</text>

  <line x1="48" y1="220" x2="640" y2="220" class="grid" stroke-width="0.7"/>
    <text x="40" y="223.5" class="axis-label" text-anchor="end" font-family="-apple-system, BlinkMacSystemFont, 'Segoe UI', Helvetica, sans-serif">0</text>
    <line x1="48" y1="162.66666666666669" x2="640" y2="162.66666666666669" class="grid" stroke-width="0.7"/>
    <text x="40" y="166.16666666666669" class="axis-label" text-anchor="end" font-family="-apple-system, BlinkMacSystemFont, 'Segoe UI', Helvetica, sans-serif">1k</text>
    <line x1="48" y1="105.33333333333334" x2="640" y2="105.33333333333334" class="grid" stroke-width="0.7"/>
    <text x="40" y="108.83333333333334" class="axis-label" text-anchor="end" font-family="-apple-system, BlinkMacSystemFont, 'Segoe UI', Helvetica, sans-serif">2k</text>
    <line x1="48" y1="48" x2="640" y2="48" class="grid" stroke-width="0.7"/>
    <text x="40" y="51.5" class="axis-label" text-anchor="end" font-family="-apple-system, BlinkMacSystemFont, 'Segoe UI', Helvetica, sans-serif">3k</text>
  <text x="48" y="248" class="axis-label" text-anchor="middle" font-family="-apple-system, BlinkMacSystemFont, 'Segoe UI', Helvetica, sans-serif">Mar 27</text>
    <text x="170.48275862068965" y="248" class="axis-label" text-anchor="middle" font-family="-apple-system, BlinkMacSystemFont, 'Segoe UI', Helvetica, sans-serif">May 7</text>
    <text x="282.7586206896552" y="248" class="axis-label" text-anchor="middle" font-family="-apple-system, BlinkMacSystemFont, 'Segoe UI', Helvetica, sans-serif">May 18</text>
    <text x="405.2413793103448" y="248" class="axis-label" text-anchor="middle" font-family="-apple-system, BlinkMacSystemFont, 'Segoe UI', Helvetica, sans-serif">May 30</text>
    <text x="517.5172413793103" y="248" class="axis-label" text-anchor="middle" font-family="-apple-system, BlinkMacSystemFont, 'Segoe UI', Helvetica, sans-serif">Jun 10</text>
    <text x="640" y="248" class="axis-label" text-anchor="middle" font-family="-apple-system, BlinkMacSystemFont, 'Segoe UI', Helvetica, sans-serif">Jun 22</text>

  <path d="M48.0,219.8 C49.7,218.4 54.8,213.7 58.2,211.7 C61.6,209.7 65.0,209.1 68.4,207.7 C71.8,206.4 75.2,204.4 78.6,203.7 C82.0,203.0 85.4,205.0 88.8,203.5 C92.2,202.0 95.6,196.6 99.0,194.9 C102.4,193.2 105.8,200.1 109.2,193.2 C112.6,186.2 116.0,160.3 119.4,153.3 C122.9,146.3 126.3,151.7 129.7,151.3 C133.1,150.8 136.5,150.7 139.9,150.5 C143.3,150.3 146.7,150.2 150.1,150.1 C153.5,150.0 156.9,149.9 160.3,149.7 C163.7,149.5 167.1,149.1 170.5,148.7 C173.9,148.2 177.3,147.4 180.7,147.0 C184.1,146.5 187.5,146.3 190.9,146.1 C194.3,145.9 197.7,146.0 201.1,145.6 C204.5,145.2 207.9,144.1 211.3,143.6 C214.7,143.1 218.1,142.9 221.5,142.6 C224.9,142.3 228.3,142.0 231.7,141.7 C235.1,141.4 238.5,141.4 241.9,140.8 C245.3,140.2 248.7,138.7 252.1,138.0 C255.5,137.4 258.9,137.2 262.3,136.9 C265.7,136.6 269.1,136.4 272.6,136.2 C276.0,136.1 279.4,136.5 282.8,136.1 C286.2,135.7 289.6,134.4 293.0,133.8 C296.4,133.2 299.8,133.0 303.2,132.5 C306.6,132.1 310.0,131.8 313.4,131.1 C316.8,130.4 320.2,129.0 323.6,128.3 C327.0,127.6 330.4,127.3 333.8,126.9 C337.2,126.5 340.6,126.3 344.0,126.0 C347.4,125.8 350.8,125.8 354.2,125.3 C357.6,124.9 361.0,124.0 364.4,123.6 C367.8,123.1 371.2,122.8 374.6,122.5 C378.0,122.2 381.4,122.0 384.8,121.7 C388.2,121.5 391.6,121.3 395.0,121.1 C398.4,120.9 401.8,120.6 405.2,120.4 C408.6,120.3 412.0,120.3 415.4,120.2 C418.9,120.2 422.3,121.0 425.7,120.2 C429.1,119.4 432.5,116.5 435.9,115.5 C439.3,114.5 442.7,114.6 446.1,114.2 C449.5,113.7 452.9,113.3 456.3,112.8 C459.7,112.4 463.1,111.9 466.5,111.6 C469.9,111.3 473.3,111.2 476.7,111.0 C480.1,110.8 483.5,110.4 486.9,110.2 C490.3,110.0 493.7,110.1 497.1,109.7 C500.5,109.4 503.9,108.6 507.3,108.1 C510.7,107.7 514.1,107.6 517.5,107.2 C520.9,106.9 524.3,106.4 527.7,106.2 C531.1,105.9 534.5,106.0 537.9,105.7 C541.3,105.5 544.7,104.8 548.1,104.5 C551.5,104.2 554.9,104.2 558.3,104.0 C561.7,103.7 565.1,103.5 568.6,103.2 C572.0,102.9 575.4,102.5 578.8,102.2 C582.2,101.9 585.6,101.5 589.0,101.2 C592.4,100.9 595.8,100.8 599.2,100.3 C602.6,99.9 606.0,99.2 609.4,98.7 C612.8,98.3 616.2,98.1 619.6,97.7 C623.0,97.4 626.4,97.0 629.8,96.6 C633.2,96.3 638.3,95.7 640.0,95.5 L640.0,220.0 L48.0,220.0 Z" fill="url(#areaGrad)"/>
  <path d="M48.0,219.8 C49.7,218.5 54.8,213.8 58.2,211.9 C61.6,210.0 65.0,209.5 68.4,208.4 C71.8,207.3 75.2,205.6 78.6,205.1 C82.0,204.5 85.4,206.5 88.8,205.1 C92.2,203.7 95.6,198.4 99.0,196.8 C102.4,195.2 105.8,201.7 109.2,195.5 C112.6,189.2 116.0,165.5 119.4,159.1 C122.9,152.7 126.3,157.7 129.7,157.3 C133.1,156.9 136.5,156.8 139.9,156.7 C143.3,156.6 146.7,156.6 150.1,156.5 C153.5,156.4 156.9,156.4 160.3,156.1 C163.7,155.9 167.1,155.6 170.5,155.1 C173.9,154.6 177.3,153.7 180.7,153.4 C184.1,153.0 187.5,153.1 190.9,152.9 C194.3,152.8 197.7,153.0 201.1,152.6 C204.5,152.2 207.9,151.1 211.3,150.6 C214.7,150.1 218.1,150.0 221.5,149.7 C224.9,149.4 228.3,149.2 231.7,148.9 C235.1,148.6 238.5,148.6 241.9,148.0 C245.3,147.4 248.7,145.9 252.1,145.2 C255.5,144.6 258.9,144.5 262.3,144.2 C265.7,143.9 269.1,143.7 272.6,143.5 C276.0,143.4 279.4,143.8 282.8,143.4 C286.2,143.0 289.6,141.8 293.0,141.2 C296.4,140.7 299.8,140.5 303.2,140.1 C306.6,139.7 310.0,139.6 313.4,138.9 C316.8,138.3 320.2,136.9 323.6,136.3 C327.0,135.6 330.4,135.4 333.8,135.0 C337.2,134.7 340.6,134.5 344.0,134.2 C347.4,134.0 350.8,134.0 354.2,133.7 C357.6,133.3 361.0,132.5 364.4,132.1 C367.8,131.6 371.2,131.4 374.6,131.1 C378.0,130.9 381.4,130.6 384.8,130.4 C388.2,130.3 391.6,130.2 395.0,130.0 C398.4,129.8 401.8,129.5 405.2,129.4 C408.6,129.3 412.0,129.4 415.4,129.4 C418.9,129.4 422.3,130.2 425.7,129.4 C429.1,128.7 432.5,125.9 435.9,124.9 C439.3,124.0 442.7,124.0 446.1,123.6 C449.5,123.1 452.9,122.7 456.3,122.3 C459.7,121.9 463.1,121.3 466.5,121.0 C469.9,120.7 473.3,120.7 476.7,120.5 C480.1,120.2 483.5,119.9 486.9,119.7 C490.3,119.5 493.7,119.6 497.1,119.2 C500.5,118.9 503.9,118.0 507.3,117.6 C510.7,117.2 514.1,117.0 517.5,116.7 C520.9,116.4 524.3,115.9 527.7,115.7 C531.1,115.4 534.5,115.5 537.9,115.2 C541.3,114.9 544.7,114.3 548.1,114.0 C551.5,113.8 554.9,113.8 558.3,113.6 C561.7,113.4 565.1,113.2 568.6,112.9 C572.0,112.6 575.4,112.3 578.8,112.0 C582.2,111.7 585.6,111.4 589.0,111.1 C592.4,110.8 595.8,110.6 599.2,110.3 C602.6,109.9 606.0,109.2 609.4,108.8 C612.8,108.4 616.2,108.2 619.6,107.9 C623.0,107.5 626.4,107.2 629.8,106.8 C633.2,106.5 638.3,106.0 640.0,105.8" fill="none" class="line-openvsx" stroke-width="1.8" stroke-linecap="round" stroke-linejoin="round"/>
  <path d="M48.0,219.9 C49.7,219.9 54.8,219.9 58.2,219.8 C61.6,219.7 65.0,219.5 68.4,219.3 C71.8,219.1 75.2,218.8 78.6,218.6 C82.0,218.5 85.4,218.5 88.8,218.4 C92.2,218.3 95.6,218.2 99.0,218.1 C102.4,217.9 105.8,218.3 109.2,217.7 C112.6,217.1 116.0,214.8 119.4,214.2 C122.9,213.6 126.3,214.0 129.7,214.0 C133.1,213.9 136.5,213.9 139.9,213.8 C143.3,213.8 146.7,213.7 150.1,213.6 C153.5,213.6 156.9,213.6 160.3,213.6 C163.7,213.6 167.1,213.6 170.5,213.6 C173.9,213.6 177.3,213.6 180.7,213.6 C184.1,213.5 187.5,213.3 190.9,213.2 C194.3,213.1 197.7,213.1 201.1,213.1 C204.5,213.0 207.9,213.0 211.3,213.0 C214.7,213.0 218.1,212.9 221.5,212.9 C224.9,212.9 228.3,212.8 231.7,212.8 C235.1,212.8 238.5,212.8 241.9,212.8 C245.3,212.8 248.7,212.8 252.1,212.8 C255.5,212.8 258.9,212.7 262.3,212.7 C265.7,212.7 269.1,212.7 272.6,212.7 C276.0,212.7 279.4,212.7 282.8,212.7 C286.2,212.6 289.6,212.6 293.0,212.5 C296.4,212.5 299.8,212.5 303.2,212.4 C306.6,212.4 310.0,212.2 313.4,212.1 C316.8,212.1 320.2,212.0 323.6,212.0 C327.0,211.9 330.4,211.9 333.8,211.9 C337.2,211.8 340.6,211.8 344.0,211.8 C347.4,211.8 350.8,211.7 354.2,211.7 C357.6,211.6 361.0,211.6 364.4,211.5 C367.8,211.5 371.2,211.4 374.6,211.4 C378.0,211.4 381.4,211.3 384.8,211.3 C388.2,211.2 391.6,211.2 395.0,211.1 C398.4,211.1 401.8,211.0 405.2,211.0 C408.6,211.0 412.0,210.9 415.4,210.8 C418.9,210.8 422.3,210.8 425.7,210.8 C429.1,210.7 432.5,210.6 435.9,210.6 C439.3,210.6 442.7,210.6 446.1,210.6 C449.5,210.6 452.9,210.5 456.3,210.5 C459.7,210.5 463.1,210.5 466.5,210.5 C469.9,210.5 473.3,210.5 476.7,210.5 C480.1,210.5 483.5,210.5 486.9,210.5 C490.3,210.5 493.7,210.5 497.1,210.5 C500.5,210.5 503.9,210.5 507.3,210.5 C510.7,210.5 514.1,210.5 517.5,210.5 C520.9,210.5 524.3,210.5 527.7,210.5 C531.1,210.5 534.5,210.5 537.9,210.5 C541.3,210.5 544.7,210.5 548.1,210.5 C551.5,210.5 554.9,210.4 558.3,210.4 C561.7,210.3 565.1,210.3 568.6,210.3 C572.0,210.2 575.4,210.2 578.8,210.2 C582.2,210.2 585.6,210.2 589.0,210.1 C592.4,210.1 595.8,210.1 599.2,210.1 C602.6,210.1 606.0,210.0 609.4,210.0 C612.8,209.9 616.2,209.9 619.6,209.9 C623.0,209.8 626.4,209.8 629.8,209.8 C633.2,209.8 638.3,209.7 640.0,209.7" fill="none" class="line-vscode" stroke-width="1.8" stroke-linecap="round" stroke-linejoin="round"/>
  <path d="M48.0,219.8 C49.7,218.4 54.8,213.7 58.2,211.7 C61.6,209.7 65.0,209.1 68.4,207.7 C71.8,206.4 75.2,204.4 78.6,203.7 C82.0,203.0 85.4,205.0 88.8,203.5 C92.2,202.0 95.6,196.6 99.0,194.9 C102.4,193.2 105.8,200.1 109.2,193.2 C112.6,186.2 116.0,160.3 119.4,153.3 C122.9,146.3 126.3,151.7 129.7,151.3 C133.1,150.8 136.5,150.7 139.9,150.5 C143.3,150.3 146.7,150.2 150.1,150.1 C153.5,150.0 156.9,149.9 160.3,149.7 C163.7,149.5 167.1,149.1 170.5,148.7 C173.9,148.2 177.3,147.4 180.7,147.0 C184.1,146.5 187.5,146.3 190.9,146.1 C194.3,145.9 197.7,146.0 201.1,145.6 C204.5,145.2 207.9,144.1 211.3,143.6 C214.7,143.1 218.1,142.9 221.5,142.6 C224.9,142.3 228.3,142.0 231.7,141.7 C235.1,141.4 238.5,141.4 241.9,140.8 C245.3,140.2 248.7,138.7 252.1,138.0 C255.5,137.4 258.9,137.2 262.3,136.9 C265.7,136.6 269.1,136.4 272.6,136.2 C276.0,136.1 279.4,136.5 282.8,136.1 C286.2,135.7 289.6,134.4 293.0,133.8 C296.4,133.2 299.8,133.0 303.2,132.5 C306.6,132.1 310.0,131.8 313.4,131.1 C316.8,130.4 320.2,129.0 323.6,128.3 C327.0,127.6 330.4,127.3 333.8,126.9 C337.2,126.5 340.6,126.3 344.0,126.0 C347.4,125.8 350.8,125.8 354.2,125.3 C357.6,124.9 361.0,124.0 364.4,123.6 C367.8,123.1 371.2,122.8 374.6,122.5 C378.0,122.2 381.4,122.0 384.8,121.7 C388.2,121.5 391.6,121.3 395.0,121.1 C398.4,120.9 401.8,120.6 405.2,120.4 C408.6,120.3 412.0,120.3 415.4,120.2 C418.9,120.2 422.3,121.0 425.7,120.2 C429.1,119.4 432.5,116.5 435.9,115.5 C439.3,114.5 442.7,114.6 446.1,114.2 C449.5,113.7 452.9,113.3 456.3,112.8 C459.7,112.4 463.1,111.9 466.5,111.6 C469.9,111.3 473.3,111.2 476.7,111.0 C480.1,110.8 483.5,110.4 486.9,110.2 C490.3,110.0 493.7,110.1 497.1,109.7 C500.5,109.4 503.9,108.6 507.3,108.1 C510.7,107.7 514.1,107.6 517.5,107.2 C520.9,106.9 524.3,106.4 527.7,106.2 C531.1,105.9 534.5,106.0 537.9,105.7 C541.3,105.5 544.7,104.8 548.1,104.5 C551.5,104.2 554.9,104.2 558.3,104.0 C561.7,103.7 565.1,103.5 568.6,103.2 C572.0,102.9 575.4,102.5 578.8,102.2 C582.2,101.9 585.6,101.5 589.0,101.2 C592.4,100.9 595.8,100.8 599.2,100.3 C602.6,99.9 606.0,99.2 609.4,98.7 C612.8,98.3 616.2,98.1 619.6,97.7 C623.0,97.4 626.4,97.0 629.8,96.6 C633.2,96.3 638.3,95.7 640.0,95.5" fill="none" class="line-total" stroke-width="2.5" stroke-linecap="round" stroke-linejoin="round"/>

  <circle cx="640" cy="95.52933333333333" r="4.5" class="dot-total" stroke-width="2"/>
    <text x="658" y="99.52933333333333" class="end-label" font-family="-apple-system, BlinkMacSystemFont, 'Segoe UI', Helvetica, sans-serif">Total</text>
    <text x="697" y="99.52933333333333" class="end-value" font-family="-apple-system, BlinkMacSystemFont, 'Segoe UI', Helvetica, sans-serif">2.2k</text>
    <circle cx="640" cy="105.79199999999999" r="3.5" class="dot-openvsx" stroke-width="1.8"/>
    <text x="658" y="117.52933333333333" class="end-label" font-family="-apple-system, BlinkMacSystemFont, 'Segoe UI', Helvetica, sans-serif">Open VSX</text>
    <text x="716.8" y="117.52933333333333" class="end-value" font-family="-apple-system, BlinkMacSystemFont, 'Segoe UI', Helvetica, sans-serif">2k</text>
    <circle cx="640" cy="209.73733333333334" r="3.5" class="dot-vscode" stroke-width="1.8"/>
    <text x="658" y="213.73733333333334" class="end-label" font-family="-apple-system, BlinkMacSystemFont, 'Segoe UI', Helvetica, sans-serif">VS Code</text>
    <text x="710.2" y="213.73733333333334" class="end-value" font-family="-apple-system, BlinkMacSystemFont, 'Segoe UI', Helvetica, sans-serif">179</text>
</svg>