<svg xmlns="http://www.w3.org/2000/svg" viewBox="0 0 760 260" width="760" height="260" role="img" aria-label="Glassy install history">
  <style>
  svg { color-scheme: light dark; }
  .title      { fill: #1a1a2e; font-size: 15px; font-weight: 600; }
  .subtitle   { fill: #6b7280; font-size: 11px; font-weight: 400; }
  .grid       { stroke: #e8e8ee; }
  .axis-label { fill: #8a8a9a; font-size: 10px; }
  .line-total   { stroke: #e8553d; }
  .line-vscode  { stroke: #5b7cfa; }
  .line-openvsx { stroke: #34c7a0; }
  .dot-total   { fill: transparent; stroke: #e8553d; }
  .dot-vscode  { fill: transparent; stroke: #5b7cfa; }
  .dot-openvsx { fill: transparent; stroke: #34c7a0; }
  .end-label       { fill: #1a1a2e; font-size: 11px; font-weight: 600; }
  .end-value       { fill: #6b7280; font-size: 11px; font-weight: 400; }
  .area-total-top    { stop-color: #e8553d; }
  .area-total-bottom { stop-color: #e8553d; }

  @media (prefers-color-scheme: dark) {
    .title      { fill: #e2e2e8; }
    .subtitle   { fill: #8b949e; }
    .grid       { stroke: #2d2d3d; }
    .axis-label { fill: #6e7681; }
    .line-total   { stroke: #ff9b85; }
    .line-vscode  { stroke: #8da4ff; }
    .line-openvsx { stroke: #5eead4; }
    .dot-total   { stroke: #ff9b85; }
    .dot-vscode  { stroke: #8da4ff; }
    .dot-openvsx { stroke: #5eead4; }
    .end-label       { fill: #e2e2e8; }
    .end-value       { fill: #8b949e; }
    .area-total-top    { stop-color: #ff9b85; }
    .area-total-bottom { stop-color: #ff9b85; }
  }
</style>
  <defs>
    <linearGradient id="areaGrad" x1="0" y1="0" x2="0" y2="1">
      <stop offset="0%" class="area-total-top" stop-opacity="0.18"/>
      <stop offset="60%" class="area-total-bottom" stop-opacity="0.04"/>
      <stop offset="100%" class="area-total-bottom" stop-opacity="0"/>
    </linearGradient>
  </defs>

  <text x="48" y="22" class="title" font-family="-apple-system, BlinkMacSystemFont, 'Segoe UI', Helvetica, sans-serif">Installs</text>
  <text x="48" y="37" class="subtitle" font-family="-apple-system, BlinkMacSystemFont, 'Segoe UI', Helvetica, sans-serif">Updated Jun 28</text>

  <line x1="48" y1="220" x2="640" y2="220" class="grid" stroke-width="0.7"/>
    <text x="40" y="223.5" class="axis-label" text-anchor="end" font-family="-apple-system, BlinkMacSystemFont, 'Segoe UI', Helvetica, sans-serif">0</text>
    <line x1="48" y1="162.66666666666669" x2="640" y2="162.66666666666669" class="grid" stroke-width="0.7"/>
    <text x="40" y="166.16666666666669" class="axis-label" text-anchor="end" font-family="-apple-system, BlinkMacSystemFont, 'Segoe UI', Helvetica, sans-serif">1k</text>
    <line x1="48" y1="105.33333333333334" x2="640" y2="105.33333333333334" class="grid" stroke-width="0.7"/>
    <text x="40" y="108.83333333333334" class="axis-label" text-anchor="end" font-family="-apple-system, BlinkMacSystemFont, 'Segoe UI', Helvetica, sans-serif">2k</text>
    <line x1="48" y1="48" x2="640" y2="48" class="grid" stroke-width="0.7"/>
    <text x="40" y="51.5" class="axis-label" text-anchor="end" font-family="-apple-system, BlinkMacSystemFont, 'Segoe UI', Helvetica, sans-serif">3k</text>
  <text x="48" y="248" class="axis-label" text-anchor="middle" font-family="-apple-system, BlinkMacSystemFont, 'Segoe UI', Helvetica, sans-serif">Mar 27</text>
    <text x="168.25" y="248" class="axis-label" text-anchor="middle" font-family="-apple-system, BlinkMacSystemFont, 'Segoe UI', Helvetica, sans-serif">May 8</text>
    <text x="288.5" y="248" class="axis-label" text-anchor="middle" font-family="-apple-system, BlinkMacSystemFont, 'Segoe UI', Helvetica, sans-serif">May 21</text>
    <text x="399.5" y="248" class="axis-label" text-anchor="middle" font-family="-apple-system, BlinkMacSystemFont, 'Segoe UI', Helvetica, sans-serif">Jun 2</text>
    <text x="519.75" y="248" class="axis-label" text-anchor="middle" font-family="-apple-system, BlinkMacSystemFont, 'Segoe UI', Helvetica, sans-serif">Jun 15</text>
    <text x="640" y="248" class="axis-label" text-anchor="middle" font-family="-apple-system, BlinkMacSystemFont, 'Segoe UI', Helvetica, sans-serif">Jun 28</text>

  <path d="M48.0,219.8 C49.5,218.4 54.2,213.7 57.3,211.7 C60.3,209.7 63.4,209.1 66.5,207.7 C69.6,206.4 72.7,204.4 75.8,203.7 C78.8,203.0 81.9,205.0 85.0,203.5 C88.1,202.0 91.2,196.6 94.3,194.9 C97.3,193.2 100.4,200.1 103.5,193.2 C106.6,186.2 109.7,160.3 112.8,153.3 C115.8,146.3 118.9,151.7 122.0,151.3 C125.1,150.8 128.2,150.7 131.3,150.5 C134.3,150.3 137.4,150.2 140.5,150.1 C143.6,150.0 146.7,149.9 149.8,149.7 C152.8,149.5 155.9,149.1 159.0,148.7 C162.1,148.2 165.2,147.4 168.3,147.0 C171.3,146.5 174.4,146.3 177.5,146.1 C180.6,145.9 183.7,146.0 186.8,145.6 C189.8,145.2 192.9,144.1 196.0,143.6 C199.1,143.1 202.2,142.9 205.3,142.6 C208.3,142.3 211.4,142.0 214.5,141.7 C217.6,141.4 220.7,141.4 223.8,140.8 C226.8,140.2 229.9,138.7 233.0,138.0 C236.1,137.4 239.2,137.2 242.3,136.9 C245.3,136.6 248.4,136.4 251.5,136.2 C254.6,136.1 257.7,136.5 260.8,136.1 C263.8,135.7 266.9,134.4 270.0,133.8 C273.1,133.2 276.2,133.0 279.3,132.5 C282.3,132.1 285.4,131.8 288.5,131.1 C291.6,130.4 294.7,129.0 297.8,128.3 C300.8,127.6 303.9,127.3 307.0,126.9 C310.1,126.5 313.2,126.3 316.3,126.0 C319.3,125.8 322.4,125.8 325.5,125.3 C328.6,124.9 331.7,124.0 334.8,123.6 C337.8,123.1 340.9,122.8 344.0,122.5 C347.1,122.2 350.2,122.0 353.3,121.7 C356.3,121.5 359.4,121.3 362.5,121.1 C365.6,120.9 368.7,120.6 371.8,120.4 C374.8,120.3 377.9,120.3 381.0,120.2 C384.1,120.2 387.2,121.0 390.3,120.2 C393.3,119.4 396.4,116.5 399.5,115.5 C402.6,114.5 405.7,114.6 408.8,114.2 C411.8,113.7 414.9,113.3 418.0,112.8 C421.1,112.4 424.2,111.9 427.3,111.6 C430.3,111.3 433.4,111.2 436.5,111.0 C439.6,110.8 442.7,110.4 445.8,110.2 C448.8,110.0 451.9,110.1 455.0,109.7 C458.1,109.4 461.2,108.6 464.3,108.1 C467.3,107.7 470.4,107.6 473.5,107.2 C476.6,106.9 479.7,106.4 482.8,106.2 C485.8,105.9 488.9,106.0 492.0,105.7 C495.1,105.5 498.2,104.8 501.3,104.5 C504.3,104.2 507.4,104.2 510.5,104.0 C513.6,103.7 516.7,103.5 519.8,103.2 C522.8,102.9 525.9,102.5 529.0,102.2 C532.1,101.9 535.2,101.5 538.3,101.2 C541.3,100.9 544.4,100.8 547.5,100.3 C550.6,99.9 553.7,99.2 556.8,98.7 C559.8,98.3 562.9,98.1 566.0,97.7 C569.1,97.4 572.2,97.0 575.3,96.6 C578.3,96.3 581.4,95.9 584.5,95.5 C587.6,95.2 590.7,94.8 593.8,94.6 C596.8,94.3 599.9,94.2 603.0,93.8 C606.1,93.4 609.2,92.9 612.3,92.4 C615.3,91.9 618.4,91.2 621.5,90.8 C624.6,90.5 627.7,90.5 630.8,90.3 C633.8,90.1 638.5,89.9 640.0,89.8 L640.0,220.0 L48.0,220.0 Z" fill="url(#areaGrad)"/>
  <path d="M48.0,219.8 C49.5,218.5 54.2,213.8 57.3,211.9 C60.3,210.0 63.4,209.5 66.5,208.4 C69.6,207.3 72.7,205.6 75.8,205.1 C78.8,204.5 81.9,206.5 85.0,205.1 C88.1,203.7 91.2,198.4 94.3,196.8 C97.3,195.2 100.4,201.7 103.5,195.5 C106.6,189.2 109.7,165.5 112.8,159.1 C115.8,152.7 118.9,157.7 122.0,157.3 C125.1,156.9 128.2,156.8 131.3,156.7 C134.3,156.6 137.4,156.6 140.5,156.5 C143.6,156.4 146.7,156.4 149.8,156.1 C152.8,155.9 155.9,155.6 159.0,155.1 C162.1,154.6 165.2,153.7 168.3,153.4 C171.3,153.0 174.4,153.1 177.5,152.9 C180.6,152.8 183.7,153.0 186.8,152.6 C189.8,152.2 192.9,151.1 196.0,150.6 C199.1,150.1 202.2,150.0 205.3,149.7 C208.3,149.4 211.4,149.2 214.5,148.9 C217.6,148.6 220.7,148.6 223.8,148.0 C226.8,147.4 229.9,145.9 233.0,145.2 C236.1,144.6 239.2,144.5 242.3,144.2 C245.3,143.9 248.4,143.7 251.5,143.5 C254.6,143.4 257.7,143.8 260.8,143.4 C263.8,143.0 266.9,141.8 270.0,141.2 C273.1,140.7 276.2,140.5 279.3,140.1 C282.3,139.7 285.4,139.6 288.5,138.9 C291.6,138.3 294.7,136.9 297.8,136.3 C300.8,135.6 303.9,135.4 307.0,135.0 C310.1,134.7 313.2,134.5 316.3,134.2 C319.3,134.0 322.4,134.0 325.5,133.7 C328.6,133.3 331.7,132.5 334.8,132.1 C337.8,131.6 340.9,131.4 344.0,131.1 C347.1,130.9 350.2,130.6 353.3,130.4 C356.3,130.3 359.4,130.2 362.5,130.0 C365.6,129.8 368.7,129.5 371.8,129.4 C374.8,129.3 377.9,129.4 381.0,129.4 C384.1,129.4 387.2,130.2 390.3,129.4 C393.3,128.7 396.4,125.9 399.5,124.9 C402.6,124.0 405.7,124.0 408.8,123.6 C411.8,123.1 414.9,122.7 418.0,122.3 C421.1,121.9 424.2,121.3 427.3,121.0 C430.3,120.7 433.4,120.7 436.5,120.5 C439.6,120.2 442.7,119.9 445.8,119.7 C448.8,119.5 451.9,119.6 455.0,119.2 C458.1,118.9 461.2,118.0 464.3,117.6 C467.3,117.2 470.4,117.0 473.5,116.7 C476.6,116.4 479.7,115.9 482.8,115.7 C485.8,115.4 488.9,115.5 492.0,115.2 C495.1,114.9 498.2,114.3 501.3,114.0 C504.3,113.8 507.4,113.8 510.5,113.6 C513.6,113.4 516.7,113.2 519.8,112.9 C522.8,112.6 525.9,112.3 529.0,112.0 C532.1,111.7 535.2,111.4 538.3,111.1 C541.3,110.8 544.4,110.6 547.5,110.3 C550.6,109.9 553.7,109.2 556.8,108.8 C559.8,108.4 562.9,108.2 566.0,107.9 C569.1,107.5 572.2,107.2 575.3,106.8 C578.3,106.5 581.4,106.1 584.5,105.8 C587.6,105.5 590.7,105.1 593.8,104.9 C596.8,104.6 599.9,104.5 603.0,104.2 C606.1,103.8 609.2,103.3 612.3,102.8 C615.3,102.3 618.4,101.6 621.5,101.3 C624.6,101.0 627.7,101.0 630.8,100.9 C633.8,100.7 638.5,100.5 640.0,100.4" fill="none" class="line-openvsx" stroke-width="1.8" stroke-linecap="round" stroke-linejoin="round"/>
  <path d="M48.0,219.9 C49.5,219.9 54.2,219.9 57.3,219.8 C60.3,219.7 63.4,219.5 66.5,219.3 C69.6,219.1 72.7,218.8 75.8,218.6 C78.8,218.5 81.9,218.5 85.0,218.4 C88.1,218.3 91.2,218.2 94.3,218.1 C97.3,217.9 100.4,218.3 103.5,217.7 C106.6,217.1 109.7,214.8 112.8,214.2 C115.8,213.6 118.9,214.0 122.0,214.0 C125.1,213.9 128.2,213.9 131.3,213.8 C134.3,213.8 137.4,213.7 140.5,213.6 C143.6,213.6 146.7,213.6 149.8,213.6 C152.8,213.6 155.9,213.6 159.0,213.6 C162.1,213.6 165.2,213.6 168.3,213.6 C171.3,213.5 174.4,213.3 177.5,213.2 C180.6,213.1 183.7,213.1 186.8,213.1 C189.8,213.0 192.9,213.0 196.0,213.0 C199.1,213.0 202.2,212.9 205.3,212.9 C208.3,212.9 211.4,212.8 214.5,212.8 C217.6,212.8 220.7,212.8 223.8,212.8 C226.8,212.8 229.9,212.8 233.0,212.8 C236.1,212.8 239.2,212.7 242.3,212.7 C245.3,212.7 248.4,212.7 251.5,212.7 C254.6,212.7 257.7,212.7 260.8,212.7 C263.8,212.6 266.9,212.6 270.0,212.5 C273.1,212.5 276.2,212.5 279.3,212.4 C282.3,212.4 285.4,212.2 288.5,212.1 C291.6,212.1 294.7,212.0 297.8,212.0 C300.8,211.9 303.9,211.9 307.0,211.9 C310.1,211.8 313.2,211.8 316.3,211.8 C319.3,211.8 322.4,211.7 325.5,211.7 C328.6,211.6 331.7,211.6 334.8,211.5 C337.8,211.5 340.9,211.4 344.0,211.4 C347.1,211.4 350.2,211.3 353.3,211.3 C356.3,211.2 359.4,211.2 362.5,211.1 C365.6,211.1 368.7,211.0 371.8,211.0 C374.8,211.0 377.9,210.9 381.0,210.8 C384.1,210.8 387.2,210.8 390.3,210.8 C393.3,210.7 396.4,210.6 399.5,210.6 C402.6,210.6 405.7,210.6 408.8,210.6 C411.8,210.6 414.9,210.5 418.0,210.5 C421.1,210.5 424.2,210.5 427.3,210.5 C430.3,210.5 433.4,210.5 436.5,210.5 C439.6,210.5 442.7,210.5 445.8,210.5 C448.8,210.5 451.9,210.5 455.0,210.5 C458.1,210.5 461.2,210.5 464.3,210.5 C467.3,210.5 470.4,210.5 473.5,210.5 C476.6,210.5 479.7,210.5 482.8,210.5 C485.8,210.5 488.9,210.5 492.0,210.5 C495.1,210.5 498.2,210.5 501.3,210.5 C504.3,210.5 507.4,210.4 510.5,210.4 C513.6,210.3 516.7,210.3 519.8,210.3 C522.8,210.2 525.9,210.2 529.0,210.2 C532.1,210.2 535.2,210.2 538.3,210.1 C541.3,210.1 544.4,210.1 547.5,210.1 C550.6,210.1 553.7,210.0 556.8,210.0 C559.8,209.9 562.9,209.9 566.0,209.9 C569.1,209.8 572.2,209.8 575.3,209.8 C578.3,209.8 581.4,209.8 584.5,209.7 C587.6,209.7 590.7,209.7 593.8,209.7 C596.8,209.7 599.9,209.6 603.0,209.6 C606.1,209.6 609.2,209.6 612.3,209.6 C615.3,209.5 618.4,209.5 621.5,209.5 C624.6,209.5 627.7,209.5 630.8,209.5 C633.8,209.4 638.5,209.4 640.0,209.4" fill="none" class="line-vscode" stroke-width="1.8" stroke-linecap="round" stroke-linejoin="round"/>
  <path d="M48.0,219.8 C49.5,218.4 54.2,213.7 57.3,211.7 C60.3,209.7 63.4,209.1 66.5,207.7 C69.6,206.4 72.7,204.4 75.8,203.7 C78.8,203.0 81.9,205.0 85.0,203.5 C88.1,202.0 91.2,196.6 94.3,194.9 C97.3,193.2 100.4,200.1 103.5,193.2 C106.6,186.2 109.7,160.3 112.8,153.3 C115.8,146.3 118.9,151.7 122.0,151.3 C125.1,150.8 128.2,150.7 131.3,150.5 C134.3,150.3 137.4,150.2 140.5,150.1 C143.6,150.0 146.7,149.9 149.8,149.7 C152.8,149.5 155.9,149.1 159.0,148.7 C162.1,148.2 165.2,147.4 168.3,147.0 C171.3,146.5 174.4,146.3 177.5,146.1 C180.6,145.9 183.7,146.0 186.8,145.6 C189.8,145.2 192.9,144.1 196.0,143.6 C199.1,143.1 202.2,142.9 205.3,142.6 C208.3,142.3 211.4,142.0 214.5,141.7 C217.6,141.4 220.7,141.4 223.8,140.8 C226.8,140.2 229.9,138.7 233.0,138.0 C236.1,137.4 239.2,137.2 242.3,136.9 C245.3,136.6 248.4,136.4 251.5,136.2 C254.6,136.1 257.7,136.5 260.8,136.1 C263.8,135.7 266.9,134.4 270.0,133.8 C273.1,133.2 276.2,133.0 279.3,132.5 C282.3,132.1 285.4,131.8 288.5,131.1 C291.6,130.4 294.7,129.0 297.8,128.3 C300.8,127.6 303.9,127.3 307.0,126.9 C310.1,126.5 313.2,126.3 316.3,126.0 C319.3,125.8 322.4,125.8 325.5,125.3 C328.6,124.9 331.7,124.0 334.8,123.6 C337.8,123.1 340.9,122.8 344.0,122.5 C347.1,122.2 350.2,122.0 353.3,121.7 C356.3,121.5 359.4,121.3 362.5,121.1 C365.6,120.9 368.7,120.6 371.8,120.4 C374.8,120.3 377.9,120.3 381.0,120.2 C384.1,120.2 387.2,121.0 390.3,120.2 C393.3,119.4 396.4,116.5 399.5,115.5 C402.6,114.5 405.7,114.6 408.8,114.2 C411.8,113.7 414.9,113.3 418.0,112.8 C421.1,112.4 424.2,111.9 427.3,111.6 C430.3,111.3 433.4,111.2 436.5,111.0 C439.6,110.8 442.7,110.4 445.8,110.2 C448.8,110.0 451.9,110.1 455.0,109.7 C458.1,109.4 461.2,108.6 464.3,108.1 C467.3,107.7 470.4,107.6 473.5,107.2 C476.6,106.9 479.7,106.4 482.8,106.2 C485.8,105.9 488.9,106.0 492.0,105.7 C495.1,105.5 498.2,104.8 501.3,104.5 C504.3,104.2 507.4,104.2 510.5,104.0 C513.6,103.7 516.7,103.5 519.8,103.2 C522.8,102.9 525.9,102.5 529.0,102.2 C532.1,101.9 535.2,101.5 538.3,101.2 C541.3,100.9 544.4,100.8 547.5,100.3 C550.6,99.9 553.7,99.2 556.8,98.7 C559.8,98.3 562.9,98.1 566.0,97.7 C569.1,97.4 572.2,97.0 575.3,96.6 C578.3,96.3 581.4,95.9 584.5,95.5 C587.6,95.2 590.7,94.8 593.8,94.6 C596.8,94.3 599.9,94.2 603.0,93.8 C606.1,93.4 609.2,92.9 612.3,92.4 C615.3,91.9 618.4,91.2 621.5,90.8 C624.6,90.5 627.7,90.5 630.8,90.3 C633.8,90.1 638.5,89.9 640.0,89.8" fill="none" class="line-total" stroke-width="2.5" stroke-linecap="round" stroke-linejoin="round"/>

  <circle cx="640" cy="89.79599999999999" r="4.5" class="dot-total" stroke-width="2"/>
    <text x="658" y="93.79599999999999" class="end-label" font-family="-apple-system, BlinkMacSystemFont, 'Segoe UI', Helvetica, sans-serif">Total</text>
    <text x="697" y="93.79599999999999" class="end-value" font-family="-apple-system, BlinkMacSystemFont, 'Segoe UI', Helvetica, sans-serif">2.3k</text>
    <circle cx="640" cy="100.40266666666666" r="3.5" class="dot-openvsx" stroke-width="1.8"/>
    <text x="658" y="111.79599999999999" class="end-label" font-family="-apple-system, BlinkMacSystemFont, 'Segoe UI', Helvetica, sans-serif">Open VSX</text>
    <text x="716.8" y="111.79599999999999" class="end-value" font-family="-apple-system, BlinkMacSystemFont, 'Segoe UI', Helvetica, sans-serif">2.1k</text>
    <circle cx="640" cy="209.39333333333335" r="3.5" class="dot-vscode" stroke-width="1.8"/>
    <text x="658" y="213.39333333333335" class="end-label" font-family="-apple-system, BlinkMacSystemFont, 'Segoe UI', Helvetica, sans-serif">VS Code</text>
    <text x="710.2" y="213.39333333333335" class="end-value" font-family="-apple-system, BlinkMacSystemFont, 'Segoe UI', Helvetica, sans-serif">185</text>
</svg>