<svg xmlns="http://www.w3.org/2000/svg" viewBox="0 0 760 260" width="760" height="260" role="img" aria-label="Glassy install history">
  <style>
  svg { color-scheme: light dark; }
  .title      { fill: #1a1a2e; font-size: 15px; font-weight: 600; }
  .subtitle   { fill: #6b7280; font-size: 11px; font-weight: 400; }
  .grid       { stroke: #e8e8ee; }
  .axis-label { fill: #8a8a9a; font-size: 10px; }
  .line-total   { stroke: #e8553d; }
  .line-vscode  { stroke: #5b7cfa; }
  .line-openvsx { stroke: #34c7a0; }
  .dot-total   { fill: transparent; stroke: #e8553d; }
  .dot-vscode  { fill: transparent; stroke: #5b7cfa; }
  .dot-openvsx { fill: transparent; stroke: #34c7a0; }
  .end-label       { fill: #1a1a2e; font-size: 11px; font-weight: 600; }
  .end-value       { fill: #6b7280; font-size: 11px; font-weight: 400; }
  .area-total-top    { stop-color: #e8553d; }
  .area-total-bottom { stop-color: #e8553d; }

  @media (prefers-color-scheme: dark) {
    .title      { fill: #e2e2e8; }
    .subtitle   { fill: #8b949e; }
    .grid       { stroke: #2d2d3d; }
    .axis-label { fill: #6e7681; }
    .line-total   { stroke: #ff9b85; }
    .line-vscode  { stroke: #8da4ff; }
    .line-openvsx { stroke: #5eead4; }
    .dot-total   { stroke: #ff9b85; }
    .dot-vscode  { stroke: #8da4ff; }
    .dot-openvsx { stroke: #5eead4; }
    .end-label       { fill: #e2e2e8; }
    .end-value       { fill: #8b949e; }
    .area-total-top    { stop-color: #ff9b85; }
    .area-total-bottom { stop-color: #ff9b85; }
  }
</style>
  <defs>
    <linearGradient id="areaGrad" x1="0" y1="0" x2="0" y2="1">
      <stop offset="0%" class="area-total-top" stop-opacity="0.18"/>
      <stop offset="60%" class="area-total-bottom" stop-opacity="0.04"/>
      <stop offset="100%" class="area-total-bottom" stop-opacity="0"/>
    </linearGradient>
  </defs>

  <text x="48" y="22" class="title" font-family="-apple-system, BlinkMacSystemFont, 'Segoe UI', Helvetica, sans-serif">Installs</text>
  <text x="48" y="37" class="subtitle" font-family="-apple-system, BlinkMacSystemFont, 'Segoe UI', Helvetica, sans-serif">Updated May 6</text>

  <line x1="48" y1="220" x2="640" y2="220" class="grid" stroke-width="0.7"/>
    <text x="40" y="223.5" class="axis-label" text-anchor="end" font-family="-apple-system, BlinkMacSystemFont, 'Segoe UI', Helvetica, sans-serif">0</text>
    <line x1="48" y1="162.66666666666669" x2="640" y2="162.66666666666669" class="grid" stroke-width="0.7"/>
    <text x="40" y="166.16666666666669" class="axis-label" text-anchor="end" font-family="-apple-system, BlinkMacSystemFont, 'Segoe UI', Helvetica, sans-serif">500</text>
    <line x1="48" y1="105.33333333333334" x2="640" y2="105.33333333333334" class="grid" stroke-width="0.7"/>
    <text x="40" y="108.83333333333334" class="axis-label" text-anchor="end" font-family="-apple-system, BlinkMacSystemFont, 'Segoe UI', Helvetica, sans-serif">1k</text>
    <line x1="48" y1="48" x2="640" y2="48" class="grid" stroke-width="0.7"/>
    <text x="40" y="51.5" class="axis-label" text-anchor="end" font-family="-apple-system, BlinkMacSystemFont, 'Segoe UI', Helvetica, sans-serif">1.5k</text>
  <text x="48" y="248" class="axis-label" text-anchor="middle" font-family="-apple-system, BlinkMacSystemFont, 'Segoe UI', Helvetica, sans-serif">Mar 27</text>
    <text x="155.63636363636363" y="248" class="axis-label" text-anchor="middle" font-family="-apple-system, BlinkMacSystemFont, 'Segoe UI', Helvetica, sans-serif">Mar 29</text>
    <text x="263.27272727272725" y="248" class="axis-label" text-anchor="middle" font-family="-apple-system, BlinkMacSystemFont, 'Segoe UI', Helvetica, sans-serif">Mar 31</text>
    <text x="424.72727272727275" y="248" class="axis-label" text-anchor="middle" font-family="-apple-system, BlinkMacSystemFont, 'Segoe UI', Helvetica, sans-serif">Apr 30</text>
    <text x="532.3636363636364" y="248" class="axis-label" text-anchor="middle" font-family="-apple-system, BlinkMacSystemFont, 'Segoe UI', Helvetica, sans-serif">May 4</text>
    <text x="640" y="248" class="axis-label" text-anchor="middle" font-family="-apple-system, BlinkMacSystemFont, 'Segoe UI', Helvetica, sans-serif">May 6</text>

  <path d="M48.0,219.5 C57.0,216.8 83.9,207.4 101.8,203.4 C119.8,199.4 137.7,198.1 155.6,195.5 C173.6,192.8 191.5,188.8 209.5,187.4 C227.4,186.0 245.3,189.9 263.3,187.0 C281.2,184.0 299.2,173.2 317.1,169.8 C335.0,166.3 353.0,180.2 370.9,166.3 C388.8,152.5 406.8,100.6 424.7,86.6 C442.7,72.7 460.6,83.5 478.5,82.5 C496.5,81.6 514.4,81.4 532.4,81.0 C550.3,80.6 568.2,80.5 586.2,80.2 C604.1,80.0 631.0,79.6 640.0,79.4 L640.0,220.0 L48.0,220.0 Z" fill="url(#areaGrad)"/>
  <path d="M48.0,219.7 C57.0,217.0 83.9,207.5 101.8,203.7 C119.8,199.9 137.7,199.1 155.6,196.8 C173.6,194.6 191.5,191.3 209.5,190.2 C227.4,189.1 245.3,192.9 263.3,190.2 C281.2,187.4 299.2,176.9 317.1,173.7 C335.0,170.5 353.0,183.5 370.9,170.9 C388.8,158.3 406.8,111.0 424.7,98.2 C442.7,85.5 460.6,95.4 478.5,94.6 C496.5,93.8 514.4,93.7 532.4,93.4 C550.3,93.1 568.2,93.1 586.2,92.9 C604.1,92.8 631.0,92.4 640.0,92.3" fill="none" class="line-openvsx" stroke-width="1.8" stroke-linecap="round" stroke-linejoin="round"/>
  <path d="M48.0,219.9 C57.0,219.8 83.9,219.9 101.8,219.7 C119.8,219.4 137.7,219.0 155.6,218.6 C173.6,218.2 191.5,217.6 209.5,217.2 C227.4,216.9 245.3,217.0 263.3,216.8 C281.2,216.6 299.2,216.3 317.1,216.1 C335.0,215.9 353.0,216.7 370.9,215.4 C388.8,214.1 406.8,209.7 424.7,208.4 C442.7,207.2 460.6,208.1 478.5,208.0 C496.5,207.8 514.4,207.7 532.4,207.6 C550.3,207.5 568.2,207.3 586.2,207.3 C604.1,207.2 631.0,207.2 640.0,207.2" fill="none" class="line-vscode" stroke-width="1.8" stroke-linecap="round" stroke-linejoin="round"/>
  <path d="M48.0,219.5 C57.0,216.8 83.9,207.4 101.8,203.4 C119.8,199.4 137.7,198.1 155.6,195.5 C173.6,192.8 191.5,188.8 209.5,187.4 C227.4,186.0 245.3,189.9 263.3,187.0 C281.2,184.0 299.2,173.2 317.1,169.8 C335.0,166.3 353.0,180.2 370.9,166.3 C388.8,152.5 406.8,100.6 424.7,86.6 C442.7,72.7 460.6,83.5 478.5,82.5 C496.5,81.6 514.4,81.4 532.4,81.0 C550.3,80.6 568.2,80.5 586.2,80.2 C604.1,80.0 631.0,79.6 640.0,79.4" fill="none" class="line-total" stroke-width="2.5" stroke-linecap="round" stroke-linejoin="round"/>

  <circle cx="640" cy="79.41866666666667" r="4.5" class="dot-total" stroke-width="2"/>
    <text x="658" y="83.41866666666667" class="end-label" font-family="-apple-system, BlinkMacSystemFont, 'Segoe UI', Helvetica, sans-serif">Total</text>
    <text x="697" y="83.41866666666667" class="end-value" font-family="-apple-system, BlinkMacSystemFont, 'Segoe UI', Helvetica, sans-serif">1.2k</text>
    <circle cx="640" cy="92.26133333333333" r="3.5" class="dot-openvsx" stroke-width="1.8"/>
    <text x="658" y="101.41866666666667" class="end-label" font-family="-apple-system, BlinkMacSystemFont, 'Segoe UI', Helvetica, sans-serif">Open VSX</text>
    <text x="716.8" y="101.41866666666667" class="end-value" font-family="-apple-system, BlinkMacSystemFont, 'Segoe UI', Helvetica, sans-serif">1.1k</text>
    <circle cx="640" cy="207.15733333333333" r="3.5" class="dot-vscode" stroke-width="1.8"/>
    <text x="658" y="211.15733333333333" class="end-label" font-family="-apple-system, BlinkMacSystemFont, 'Segoe UI', Helvetica, sans-serif">VS Code</text>
    <text x="710.2" y="211.15733333333333" class="end-value" font-family="-apple-system, BlinkMacSystemFont, 'Segoe UI', Helvetica, sans-serif">112</text>
</svg>