<svg xmlns="http://www.w3.org/2000/svg" viewBox="0 0 760 260" width="760" height="260" role="img" aria-label="Glassy install history">
  <style>
  svg { color-scheme: light dark; }
  .title      { fill: #1a1a2e; font-size: 15px; font-weight: 600; }
  .subtitle   { fill: #6b7280; font-size: 11px; font-weight: 400; }
  .grid       { stroke: #e8e8ee; }
  .axis-label { fill: #8a8a9a; font-size: 10px; }
  .line-total   { stroke: #e8553d; }
  .line-vscode  { stroke: #5b7cfa; }
  .line-openvsx { stroke: #34c7a0; }
  .dot-total   { fill: transparent; stroke: #e8553d; }
  .dot-vscode  { fill: transparent; stroke: #5b7cfa; }
  .dot-openvsx { fill: transparent; stroke: #34c7a0; }
  .end-label       { fill: #1a1a2e; font-size: 11px; font-weight: 600; }
  .end-value       { fill: #6b7280; font-size: 11px; font-weight: 400; }
  .area-total-top    { stop-color: #e8553d; }
  .area-total-bottom { stop-color: #e8553d; }

  @media (prefers-color-scheme: dark) {
    .title      { fill: #e2e2e8; }
    .subtitle   { fill: #8b949e; }
    .grid       { stroke: #2d2d3d; }
    .axis-label { fill: #6e7681; }
    .line-total   { stroke: #ff9b85; }
    .line-vscode  { stroke: #8da4ff; }
    .line-openvsx { stroke: #5eead4; }
    .dot-total   { stroke: #ff9b85; }
    .dot-vscode  { stroke: #8da4ff; }
    .dot-openvsx { stroke: #5eead4; }
    .end-label       { fill: #e2e2e8; }
    .end-value       { fill: #8b949e; }
    .area-total-top    { stop-color: #ff9b85; }
    .area-total-bottom { stop-color: #ff9b85; }
  }
</style>
  <defs>
    <linearGradient id="areaGrad" x1="0" y1="0" x2="0" y2="1">
      <stop offset="0%" class="area-total-top" stop-opacity="0.18"/>
      <stop offset="60%" class="area-total-bottom" stop-opacity="0.04"/>
      <stop offset="100%" class="area-total-bottom" stop-opacity="0"/>
    </linearGradient>
  </defs>

  <text x="48" y="22" class="title" font-family="-apple-system, BlinkMacSystemFont, 'Segoe UI', Helvetica, sans-serif">Installs</text>
  <text x="48" y="37" class="subtitle" font-family="-apple-system, BlinkMacSystemFont, 'Segoe UI', Helvetica, sans-serif">Updated Jun 5</text>

  <line x1="48" y1="220" x2="640" y2="220" class="grid" stroke-width="0.7"/>
    <text x="40" y="223.5" class="axis-label" text-anchor="end" font-family="-apple-system, BlinkMacSystemFont, 'Segoe UI', Helvetica, sans-serif">0</text>
    <line x1="48" y1="177" x2="640" y2="177" class="grid" stroke-width="0.7"/>
    <text x="40" y="180.5" class="axis-label" text-anchor="end" font-family="-apple-system, BlinkMacSystemFont, 'Segoe UI', Helvetica, sans-serif">500</text>
    <line x1="48" y1="134" x2="640" y2="134" class="grid" stroke-width="0.7"/>
    <text x="40" y="137.5" class="axis-label" text-anchor="end" font-family="-apple-system, BlinkMacSystemFont, 'Segoe UI', Helvetica, sans-serif">1k</text>
    <line x1="48" y1="91" x2="640" y2="91" class="grid" stroke-width="0.7"/>
    <text x="40" y="94.5" class="axis-label" text-anchor="end" font-family="-apple-system, BlinkMacSystemFont, 'Segoe UI', Helvetica, sans-serif">1.5k</text>
    <line x1="48" y1="48" x2="640" y2="48" class="grid" stroke-width="0.7"/>
    <text x="40" y="51.5" class="axis-label" text-anchor="end" font-family="-apple-system, BlinkMacSystemFont, 'Segoe UI', Helvetica, sans-serif">2k</text>
  <text x="48" y="248" class="axis-label" text-anchor="middle" font-family="-apple-system, BlinkMacSystemFont, 'Segoe UI', Helvetica, sans-serif">Mar 27</text>
    <text x="163.5121951219512" y="248" class="axis-label" text-anchor="middle" font-family="-apple-system, BlinkMacSystemFont, 'Segoe UI', Helvetica, sans-serif">May 3</text>
    <text x="279.0243902439024" y="248" class="axis-label" text-anchor="middle" font-family="-apple-system, BlinkMacSystemFont, 'Segoe UI', Helvetica, sans-serif">May 11</text>
    <text x="408.9756097560975" y="248" class="axis-label" text-anchor="middle" font-family="-apple-system, BlinkMacSystemFont, 'Segoe UI', Helvetica, sans-serif">May 20</text>
    <text x="524.4878048780488" y="248" class="axis-label" text-anchor="middle" font-family="-apple-system, BlinkMacSystemFont, 'Segoe UI', Helvetica, sans-serif">May 28</text>
    <text x="640" y="248" class="axis-label" text-anchor="middle" font-family="-apple-system, BlinkMacSystemFont, 'Segoe UI', Helvetica, sans-serif">Jun 5</text>

  <path d="M48.0,219.7 C50.4,217.6 57.6,210.5 62.4,207.5 C67.3,204.5 72.1,203.6 76.9,201.6 C81.7,199.6 86.5,196.6 91.3,195.6 C96.1,194.5 100.9,197.4 105.8,195.2 C110.6,193.0 115.4,184.9 120.2,182.3 C125.0,179.8 129.8,190.1 134.6,179.8 C139.4,169.4 144.3,130.5 149.1,120.0 C153.9,109.5 158.7,117.6 163.5,116.9 C168.3,116.2 173.1,116.1 178.0,115.8 C182.8,115.5 187.6,115.4 192.4,115.2 C197.2,115.0 202.0,114.9 206.8,114.6 C211.6,114.2 216.5,113.7 221.3,113.0 C226.1,112.3 230.9,111.1 235.7,110.4 C240.5,109.8 245.3,109.5 250.1,109.1 C255.0,108.8 259.8,109.1 264.6,108.5 C269.4,107.8 274.2,106.2 279.0,105.4 C283.8,104.7 288.7,104.4 293.5,103.9 C298.3,103.4 303.1,103.1 307.9,102.6 C312.7,102.2 317.5,102.2 322.3,101.2 C327.2,100.3 332.0,98.0 336.8,97.0 C341.6,96.0 346.4,95.8 351.2,95.4 C356.0,94.9 360.8,94.6 365.7,94.4 C370.5,94.1 375.3,94.7 380.1,94.1 C384.9,93.5 389.7,91.5 394.5,90.7 C399.3,89.8 404.2,89.4 409.0,88.8 C413.8,88.1 418.6,87.7 423.4,86.6 C428.2,85.6 433.0,83.4 437.9,82.4 C442.7,81.4 447.5,80.9 452.3,80.3 C457.1,79.8 461.9,79.4 466.7,79.0 C471.5,78.7 476.4,78.6 481.2,78.0 C486.0,77.4 490.8,76.1 495.6,75.3 C500.4,74.6 505.2,74.3 510.0,73.8 C514.9,73.3 519.7,73.0 524.5,72.6 C529.3,72.2 534.1,72.0 538.9,71.7 C543.7,71.3 548.6,70.8 553.4,70.6 C558.2,70.4 563.0,70.4 567.8,70.4 C572.6,70.3 577.4,71.4 582.2,70.3 C587.1,69.1 591.9,64.8 596.7,63.3 C601.5,61.8 606.3,61.9 611.1,61.2 C615.9,60.6 620.7,59.9 625.6,59.3 C630.4,58.6 637.6,57.7 640.0,57.4 L640.0,220.0 L48.0,220.0 Z" fill="url(#areaGrad)"/>
  <path d="M48.0,219.7 C50.4,217.7 57.6,210.6 62.4,207.8 C67.3,204.9 72.1,204.3 76.9,202.6 C81.7,200.9 86.5,198.5 91.3,197.6 C96.1,196.8 100.9,199.7 105.8,197.6 C110.6,195.6 115.4,187.7 120.2,185.3 C125.0,182.8 129.8,192.6 134.6,183.2 C139.4,173.8 144.3,138.2 149.1,128.7 C153.9,119.1 158.7,126.5 163.5,125.9 C168.3,125.3 173.1,125.3 178.0,125.1 C182.8,124.9 187.6,124.9 192.4,124.7 C197.2,124.6 202.0,124.5 206.8,124.2 C211.6,123.9 216.5,123.3 221.3,122.6 C226.1,122.0 230.9,120.6 235.7,120.1 C240.5,119.5 245.3,119.6 250.1,119.4 C255.0,119.2 259.8,119.4 264.6,118.9 C269.4,118.3 274.2,116.7 279.0,115.9 C283.8,115.2 288.7,115.0 293.5,114.6 C298.3,114.1 303.1,113.8 307.9,113.4 C312.7,112.9 317.5,112.9 322.3,112.0 C327.2,111.1 332.0,108.8 336.8,107.9 C341.6,106.9 346.4,106.7 351.2,106.3 C356.0,105.9 360.8,105.5 365.7,105.3 C370.5,105.1 375.3,105.7 380.1,105.1 C384.9,104.5 389.7,102.7 394.5,101.8 C399.3,101.0 404.2,100.7 409.0,100.1 C413.8,99.5 418.6,99.3 423.4,98.4 C428.2,97.5 433.0,95.4 437.9,94.4 C442.7,93.5 447.5,93.1 452.3,92.5 C457.1,92.0 461.9,91.7 466.7,91.3 C471.5,91.0 476.4,91.0 481.2,90.5 C486.0,89.9 490.8,88.7 495.6,88.1 C500.4,87.4 505.2,87.1 510.0,86.7 C514.9,86.3 519.7,86.0 524.5,85.7 C529.3,85.4 534.1,85.2 538.9,85.0 C543.7,84.7 548.6,84.3 553.4,84.1 C558.2,84.0 563.0,84.1 567.8,84.1 C572.6,84.1 577.4,85.2 582.2,84.1 C587.1,83.0 591.9,78.9 596.7,77.4 C601.5,76.0 606.3,76.0 611.1,75.3 C615.9,74.7 620.7,74.1 625.6,73.5 C630.4,72.8 637.6,71.9 640.0,71.6" fill="none" class="line-openvsx" stroke-width="1.8" stroke-linecap="round" stroke-linejoin="round"/>
  <path d="M48.0,219.9 C50.4,219.9 57.6,219.9 62.4,219.7 C67.3,219.6 72.1,219.3 76.9,219.0 C81.7,218.7 86.5,218.2 91.3,217.9 C96.1,217.7 100.9,217.7 105.8,217.6 C110.6,217.4 115.4,217.2 120.2,217.1 C125.0,216.9 129.8,217.5 134.6,216.6 C139.4,215.6 144.3,212.2 149.1,211.3 C153.9,210.4 158.7,211.1 163.5,211.0 C168.3,210.9 173.1,210.8 178.0,210.7 C182.8,210.6 187.6,210.5 192.4,210.5 C197.2,210.4 202.0,210.4 206.8,210.4 C211.6,210.4 216.5,210.4 221.3,210.4 C226.1,210.4 230.9,210.5 235.7,210.4 C240.5,210.3 245.3,209.9 250.1,209.8 C255.0,209.6 259.8,209.6 264.6,209.6 C269.4,209.6 274.2,209.6 279.0,209.5 C283.8,209.5 288.7,209.4 293.5,209.3 C298.3,209.3 303.1,209.3 307.9,209.3 C312.7,209.2 317.5,209.3 322.3,209.3 C327.2,209.2 332.0,209.2 336.8,209.2 C341.6,209.1 346.4,209.1 351.2,209.1 C356.0,209.1 360.8,209.1 365.7,209.1 C370.5,209.1 375.3,209.0 380.1,209.0 C384.9,208.9 389.7,208.9 394.5,208.8 C399.3,208.8 404.2,208.7 409.0,208.6 C413.8,208.5 418.6,208.3 423.4,208.2 C428.2,208.1 433.0,208.0 437.9,208.0 C442.7,207.9 447.5,207.8 452.3,207.8 C457.1,207.7 461.9,207.7 466.7,207.7 C471.5,207.7 476.4,207.6 481.2,207.5 C486.0,207.5 490.8,207.3 495.6,207.3 C500.4,207.2 505.2,207.2 510.0,207.1 C514.9,207.0 519.7,207.0 524.5,206.9 C529.3,206.9 534.1,206.7 538.9,206.7 C543.7,206.6 548.6,206.6 553.4,206.5 C558.2,206.4 563.0,206.3 567.8,206.2 C572.6,206.2 577.4,206.2 582.2,206.2 C587.1,206.1 591.9,205.9 596.7,205.9 C601.5,205.9 606.3,205.9 611.1,205.9 C615.9,205.9 620.7,205.8 625.6,205.8 C630.4,205.8 637.6,205.8 640.0,205.8" fill="none" class="line-vscode" stroke-width="1.8" stroke-linecap="round" stroke-linejoin="round"/>
  <path d="M48.0,219.7 C50.4,217.6 57.6,210.5 62.4,207.5 C67.3,204.5 72.1,203.6 76.9,201.6 C81.7,199.6 86.5,196.6 91.3,195.6 C96.1,194.5 100.9,197.4 105.8,195.2 C110.6,193.0 115.4,184.9 120.2,182.3 C125.0,179.8 129.8,190.1 134.6,179.8 C139.4,169.4 144.3,130.5 149.1,120.0 C153.9,109.5 158.7,117.6 163.5,116.9 C168.3,116.2 173.1,116.1 178.0,115.8 C182.8,115.5 187.6,115.4 192.4,115.2 C197.2,115.0 202.0,114.9 206.8,114.6 C211.6,114.2 216.5,113.7 221.3,113.0 C226.1,112.3 230.9,111.1 235.7,110.4 C240.5,109.8 245.3,109.5 250.1,109.1 C255.0,108.8 259.8,109.1 264.6,108.5 C269.4,107.8 274.2,106.2 279.0,105.4 C283.8,104.7 288.7,104.4 293.5,103.9 C298.3,103.4 303.1,103.1 307.9,102.6 C312.7,102.2 317.5,102.2 322.3,101.2 C327.2,100.3 332.0,98.0 336.8,97.0 C341.6,96.0 346.4,95.8 351.2,95.4 C356.0,94.9 360.8,94.6 365.7,94.4 C370.5,94.1 375.3,94.7 380.1,94.1 C384.9,93.5 389.7,91.5 394.5,90.7 C399.3,89.8 404.2,89.4 409.0,88.8 C413.8,88.1 418.6,87.7 423.4,86.6 C428.2,85.6 433.0,83.4 437.9,82.4 C442.7,81.4 447.5,80.9 452.3,80.3 C457.1,79.8 461.9,79.4 466.7,79.0 C471.5,78.7 476.4,78.6 481.2,78.0 C486.0,77.4 490.8,76.1 495.6,75.3 C500.4,74.6 505.2,74.3 510.0,73.8 C514.9,73.3 519.7,73.0 524.5,72.6 C529.3,72.2 534.1,72.0 538.9,71.7 C543.7,71.3 548.6,70.8 553.4,70.6 C558.2,70.4 563.0,70.4 567.8,70.4 C572.6,70.3 577.4,71.4 582.2,70.3 C587.1,69.1 591.9,64.8 596.7,63.3 C601.5,61.8 606.3,61.9 611.1,61.2 C615.9,60.6 620.7,59.9 625.6,59.3 C630.4,58.6 637.6,57.7 640.0,57.4" fill="none" class="line-total" stroke-width="2.5" stroke-linecap="round" stroke-linejoin="round"/>

  <circle cx="640" cy="57.373999999999995" r="4.5" class="dot-total" stroke-width="2"/>
    <text x="658" y="61.373999999999995" class="end-label" font-family="-apple-system, BlinkMacSystemFont, 'Segoe UI', Helvetica, sans-serif">Total</text>
    <text x="697" y="61.373999999999995" class="end-value" font-family="-apple-system, BlinkMacSystemFont, 'Segoe UI', Helvetica, sans-serif">1.9k</text>
    <circle cx="640" cy="71.564" r="3.5" class="dot-openvsx" stroke-width="1.8"/>
    <text x="658" y="79.374" class="end-label" font-family="-apple-system, BlinkMacSystemFont, 'Segoe UI', Helvetica, sans-serif">Open VSX</text>
    <text x="716.8" y="79.374" class="end-value" font-family="-apple-system, BlinkMacSystemFont, 'Segoe UI', Helvetica, sans-serif">1.7k</text>
    <circle cx="640" cy="205.81" r="3.5" class="dot-vscode" stroke-width="1.8"/>
    <text x="658" y="209.81" class="end-label" font-family="-apple-system, BlinkMacSystemFont, 'Segoe UI', Helvetica, sans-serif">VS Code</text>
    <text x="710.2" y="209.81" class="end-value" font-family="-apple-system, BlinkMacSystemFont, 'Segoe UI', Helvetica, sans-serif">165</text>
</svg>