<svg xmlns="http://www.w3.org/2000/svg" viewBox="0 0 760 260" width="760" height="260" role="img" aria-label="Glassy install history">
  <style>
  svg { color-scheme: light dark; }
  .title      { fill: #1a1a2e; font-size: 15px; font-weight: 600; }
  .subtitle   { fill: #6b7280; font-size: 11px; font-weight: 400; }
  .grid       { stroke: #e8e8ee; }
  .axis-label { fill: #8a8a9a; font-size: 10px; }
  .line-total   { stroke: #e8553d; }
  .line-vscode  { stroke: #5b7cfa; }
  .line-openvsx { stroke: #34c7a0; }
  .dot-total   { fill: transparent; stroke: #e8553d; }
  .dot-vscode  { fill: transparent; stroke: #5b7cfa; }
  .dot-openvsx { fill: transparent; stroke: #34c7a0; }
  .end-label       { fill: #1a1a2e; font-size: 11px; font-weight: 600; }
  .end-value       { fill: #6b7280; font-size: 11px; font-weight: 400; }
  .area-total-top    { stop-color: #e8553d; }
  .area-total-bottom { stop-color: #e8553d; }

  @media (prefers-color-scheme: dark) {
    .title      { fill: #e2e2e8; }
    .subtitle   { fill: #8b949e; }
    .grid       { stroke: #2d2d3d; }
    .axis-label { fill: #6e7681; }
    .line-total   { stroke: #ff9b85; }
    .line-vscode  { stroke: #8da4ff; }
    .line-openvsx { stroke: #5eead4; }
    .dot-total   { stroke: #ff9b85; }
    .dot-vscode  { stroke: #8da4ff; }
    .dot-openvsx { stroke: #5eead4; }
    .end-label       { fill: #e2e2e8; }
    .end-value       { fill: #8b949e; }
    .area-total-top    { stop-color: #ff9b85; }
    .area-total-bottom { stop-color: #ff9b85; }
  }
</style>
  <defs>
    <linearGradient id="areaGrad" x1="0" y1="0" x2="0" y2="1">
      <stop offset="0%" class="area-total-top" stop-opacity="0.18"/>
      <stop offset="60%" class="area-total-bottom" stop-opacity="0.04"/>
      <stop offset="100%" class="area-total-bottom" stop-opacity="0"/>
    </linearGradient>
  </defs>

  <text x="48" y="22" class="title" font-family="-apple-system, BlinkMacSystemFont, 'Segoe UI', Helvetica, sans-serif">Installs</text>
  <text x="48" y="37" class="subtitle" font-family="-apple-system, BlinkMacSystemFont, 'Segoe UI', Helvetica, sans-serif">Updated Jun 20</text>

  <line x1="48" y1="220" x2="640" y2="220" class="grid" stroke-width="0.7"/>
    <text x="40" y="223.5" class="axis-label" text-anchor="end" font-family="-apple-system, BlinkMacSystemFont, 'Segoe UI', Helvetica, sans-serif">0</text>
    <line x1="48" y1="162.66666666666669" x2="640" y2="162.66666666666669" class="grid" stroke-width="0.7"/>
    <text x="40" y="166.16666666666669" class="axis-label" text-anchor="end" font-family="-apple-system, BlinkMacSystemFont, 'Segoe UI', Helvetica, sans-serif">1k</text>
    <line x1="48" y1="105.33333333333334" x2="640" y2="105.33333333333334" class="grid" stroke-width="0.7"/>
    <text x="40" y="108.83333333333334" class="axis-label" text-anchor="end" font-family="-apple-system, BlinkMacSystemFont, 'Segoe UI', Helvetica, sans-serif">2k</text>
    <line x1="48" y1="48" x2="640" y2="48" class="grid" stroke-width="0.7"/>
    <text x="40" y="51.5" class="axis-label" text-anchor="end" font-family="-apple-system, BlinkMacSystemFont, 'Segoe UI', Helvetica, sans-serif">3k</text>
  <text x="48" y="248" class="axis-label" text-anchor="middle" font-family="-apple-system, BlinkMacSystemFont, 'Segoe UI', Helvetica, sans-serif">Mar 27</text>
    <text x="164.28571428571428" y="248" class="axis-label" text-anchor="middle" font-family="-apple-system, BlinkMacSystemFont, 'Segoe UI', Helvetica, sans-serif">May 6</text>
    <text x="280.57142857142856" y="248" class="axis-label" text-anchor="middle" font-family="-apple-system, BlinkMacSystemFont, 'Segoe UI', Helvetica, sans-serif">May 17</text>
    <text x="407.4285714285714" y="248" class="axis-label" text-anchor="middle" font-family="-apple-system, BlinkMacSystemFont, 'Segoe UI', Helvetica, sans-serif">May 29</text>
    <text x="523.7142857142858" y="248" class="axis-label" text-anchor="middle" font-family="-apple-system, BlinkMacSystemFont, 'Segoe UI', Helvetica, sans-serif">Jun 9</text>
    <text x="640" y="248" class="axis-label" text-anchor="middle" font-family="-apple-system, BlinkMacSystemFont, 'Segoe UI', Helvetica, sans-serif">Jun 20</text>

  <path d="M48.0,219.8 C49.8,218.4 55.0,213.7 58.6,211.7 C62.1,209.7 65.6,209.1 69.1,207.7 C72.7,206.4 76.2,204.4 79.7,203.7 C83.2,203.0 86.8,205.0 90.3,203.5 C93.8,202.0 97.3,196.6 100.9,194.9 C104.4,193.2 107.9,200.1 111.4,193.2 C115.0,186.2 118.5,160.3 122.0,153.3 C125.5,146.3 129.0,151.7 132.6,151.3 C136.1,150.8 139.6,150.7 143.1,150.5 C146.7,150.3 150.2,150.2 153.7,150.1 C157.2,150.0 160.8,149.9 164.3,149.7 C167.8,149.5 171.3,149.1 174.9,148.7 C178.4,148.2 181.9,147.4 185.4,147.0 C189.0,146.5 192.5,146.3 196.0,146.1 C199.5,145.9 203.0,146.0 206.6,145.6 C210.1,145.2 213.6,144.1 217.1,143.6 C220.7,143.1 224.2,142.9 227.7,142.6 C231.2,142.3 234.8,142.0 238.3,141.7 C241.8,141.4 245.3,141.4 248.9,140.8 C252.4,140.2 255.9,138.7 259.4,138.0 C263.0,137.4 266.5,137.2 270.0,136.9 C273.5,136.6 277.0,136.4 280.6,136.2 C284.1,136.1 287.6,136.5 291.1,136.1 C294.7,135.7 298.2,134.4 301.7,133.8 C305.2,133.2 308.8,133.0 312.3,132.5 C315.8,132.1 319.3,131.8 322.9,131.1 C326.4,130.4 329.9,129.0 333.4,128.3 C337.0,127.6 340.5,127.3 344.0,126.9 C347.5,126.5 351.0,126.3 354.6,126.0 C358.1,125.8 361.6,125.8 365.1,125.3 C368.7,124.9 372.2,124.0 375.7,123.6 C379.2,123.1 382.8,122.8 386.3,122.5 C389.8,122.2 393.3,122.0 396.9,121.7 C400.4,121.5 403.9,121.3 407.4,121.1 C411.0,120.9 414.5,120.6 418.0,120.4 C421.5,120.3 425.0,120.3 428.6,120.2 C432.1,120.2 435.6,121.0 439.1,120.2 C442.7,119.4 446.2,116.5 449.7,115.5 C453.2,114.5 456.8,114.6 460.3,114.2 C463.8,113.7 467.3,113.3 470.9,112.8 C474.4,112.4 477.9,111.9 481.4,111.6 C485.0,111.3 488.5,111.2 492.0,111.0 C495.5,110.8 499.0,110.4 502.6,110.2 C506.1,110.0 509.6,110.1 513.1,109.7 C516.7,109.4 520.2,108.6 523.7,108.1 C527.2,107.7 530.8,107.6 534.3,107.2 C537.8,106.9 541.3,106.4 544.9,106.2 C548.4,105.9 551.9,106.0 555.4,105.7 C559.0,105.5 562.5,104.8 566.0,104.5 C569.5,104.2 573.0,104.2 576.6,104.0 C580.1,103.7 583.6,103.5 587.1,103.2 C590.7,102.9 594.2,102.5 597.7,102.2 C601.2,101.9 604.8,101.5 608.3,101.2 C611.8,100.9 615.3,100.8 618.9,100.3 C622.4,99.9 625.9,99.2 629.4,98.7 C633.0,98.3 638.2,97.9 640.0,97.7 L640.0,220.0 L48.0,220.0 Z" fill="url(#areaGrad)"/>
  <path d="M48.0,219.8 C49.8,218.5 55.0,213.8 58.6,211.9 C62.1,210.0 65.6,209.5 69.1,208.4 C72.7,207.3 76.2,205.6 79.7,205.1 C83.2,204.5 86.8,206.5 90.3,205.1 C93.8,203.7 97.3,198.4 100.9,196.8 C104.4,195.2 107.9,201.7 111.4,195.5 C115.0,189.2 118.5,165.5 122.0,159.1 C125.5,152.7 129.0,157.7 132.6,157.3 C136.1,156.9 139.6,156.8 143.1,156.7 C146.7,156.6 150.2,156.6 153.7,156.5 C157.2,156.4 160.8,156.4 164.3,156.1 C167.8,155.9 171.3,155.6 174.9,155.1 C178.4,154.6 181.9,153.7 185.4,153.4 C189.0,153.0 192.5,153.1 196.0,152.9 C199.5,152.8 203.0,153.0 206.6,152.6 C210.1,152.2 213.6,151.1 217.1,150.6 C220.7,150.1 224.2,150.0 227.7,149.7 C231.2,149.4 234.8,149.2 238.3,148.9 C241.8,148.6 245.3,148.6 248.9,148.0 C252.4,147.4 255.9,145.9 259.4,145.2 C263.0,144.6 266.5,144.5 270.0,144.2 C273.5,143.9 277.0,143.7 280.6,143.5 C284.1,143.4 287.6,143.8 291.1,143.4 C294.7,143.0 298.2,141.8 301.7,141.2 C305.2,140.7 308.8,140.5 312.3,140.1 C315.8,139.7 319.3,139.6 322.9,138.9 C326.4,138.3 329.9,136.9 333.4,136.3 C337.0,135.6 340.5,135.4 344.0,135.0 C347.5,134.7 351.0,134.5 354.6,134.2 C358.1,134.0 361.6,134.0 365.1,133.7 C368.7,133.3 372.2,132.5 375.7,132.1 C379.2,131.6 382.8,131.4 386.3,131.1 C389.8,130.9 393.3,130.6 396.9,130.4 C400.4,130.3 403.9,130.2 407.4,130.0 C411.0,129.8 414.5,129.5 418.0,129.4 C421.5,129.3 425.0,129.4 428.6,129.4 C432.1,129.4 435.6,130.2 439.1,129.4 C442.7,128.7 446.2,125.9 449.7,124.9 C453.2,124.0 456.8,124.0 460.3,123.6 C463.8,123.1 467.3,122.7 470.9,122.3 C474.4,121.9 477.9,121.3 481.4,121.0 C485.0,120.7 488.5,120.7 492.0,120.5 C495.5,120.2 499.0,119.9 502.6,119.7 C506.1,119.5 509.6,119.6 513.1,119.2 C516.7,118.9 520.2,118.0 523.7,117.6 C527.2,117.2 530.8,117.0 534.3,116.7 C537.8,116.4 541.3,115.9 544.9,115.7 C548.4,115.4 551.9,115.5 555.4,115.2 C559.0,114.9 562.5,114.3 566.0,114.0 C569.5,113.8 573.0,113.8 576.6,113.6 C580.1,113.4 583.6,113.2 587.1,112.9 C590.7,112.6 594.2,112.3 597.7,112.0 C601.2,111.7 604.8,111.4 608.3,111.1 C611.8,110.8 615.3,110.6 618.9,110.3 C622.4,109.9 625.9,109.2 629.4,108.8 C633.0,108.4 638.2,108.0 640.0,107.9" fill="none" class="line-openvsx" stroke-width="1.8" stroke-linecap="round" stroke-linejoin="round"/>
  <path d="M48.0,219.9 C49.8,219.9 55.0,219.9 58.6,219.8 C62.1,219.7 65.6,219.5 69.1,219.3 C72.7,219.1 76.2,218.8 79.7,218.6 C83.2,218.5 86.8,218.5 90.3,218.4 C93.8,218.3 97.3,218.2 100.9,218.1 C104.4,217.9 107.9,218.3 111.4,217.7 C115.0,217.1 118.5,214.8 122.0,214.2 C125.5,213.6 129.0,214.0 132.6,214.0 C136.1,213.9 139.6,213.9 143.1,213.8 C146.7,213.8 150.2,213.7 153.7,213.6 C157.2,213.6 160.8,213.6 164.3,213.6 C167.8,213.6 171.3,213.6 174.9,213.6 C178.4,213.6 181.9,213.6 185.4,213.6 C189.0,213.5 192.5,213.3 196.0,213.2 C199.5,213.1 203.0,213.1 206.6,213.1 C210.1,213.0 213.6,213.0 217.1,213.0 C220.7,213.0 224.2,212.9 227.7,212.9 C231.2,212.9 234.8,212.8 238.3,212.8 C241.8,212.8 245.3,212.8 248.9,212.8 C252.4,212.8 255.9,212.8 259.4,212.8 C263.0,212.8 266.5,212.7 270.0,212.7 C273.5,212.7 277.0,212.7 280.6,212.7 C284.1,212.7 287.6,212.7 291.1,212.7 C294.7,212.6 298.2,212.6 301.7,212.5 C305.2,212.5 308.8,212.5 312.3,212.4 C315.8,212.4 319.3,212.2 322.9,212.1 C326.4,212.1 329.9,212.0 333.4,212.0 C337.0,211.9 340.5,211.9 344.0,211.9 C347.5,211.8 351.0,211.8 354.6,211.8 C358.1,211.8 361.6,211.7 365.1,211.7 C368.7,211.6 372.2,211.6 375.7,211.5 C379.2,211.5 382.8,211.4 386.3,211.4 C389.8,211.4 393.3,211.3 396.9,211.3 C400.4,211.2 403.9,211.2 407.4,211.1 C411.0,211.1 414.5,211.0 418.0,211.0 C421.5,211.0 425.0,210.9 428.6,210.8 C432.1,210.8 435.6,210.8 439.1,210.8 C442.7,210.7 446.2,210.6 449.7,210.6 C453.2,210.6 456.8,210.6 460.3,210.6 C463.8,210.6 467.3,210.5 470.9,210.5 C474.4,210.5 477.9,210.5 481.4,210.5 C485.0,210.5 488.5,210.5 492.0,210.5 C495.5,210.5 499.0,210.5 502.6,210.5 C506.1,210.5 509.6,210.5 513.1,210.5 C516.7,210.5 520.2,210.5 523.7,210.5 C527.2,210.5 530.8,210.5 534.3,210.5 C537.8,210.5 541.3,210.5 544.9,210.5 C548.4,210.5 551.9,210.5 555.4,210.5 C559.0,210.5 562.5,210.5 566.0,210.5 C569.5,210.5 573.0,210.4 576.6,210.4 C580.1,210.3 583.6,210.3 587.1,210.3 C590.7,210.2 594.2,210.2 597.7,210.2 C601.2,210.2 604.8,210.2 608.3,210.1 C611.8,210.1 615.3,210.1 618.9,210.1 C622.4,210.1 625.9,210.0 629.4,210.0 C633.0,209.9 638.2,209.9 640.0,209.9" fill="none" class="line-vscode" stroke-width="1.8" stroke-linecap="round" stroke-linejoin="round"/>
  <path d="M48.0,219.8 C49.8,218.4 55.0,213.7 58.6,211.7 C62.1,209.7 65.6,209.1 69.1,207.7 C72.7,206.4 76.2,204.4 79.7,203.7 C83.2,203.0 86.8,205.0 90.3,203.5 C93.8,202.0 97.3,196.6 100.9,194.9 C104.4,193.2 107.9,200.1 111.4,193.2 C115.0,186.2 118.5,160.3 122.0,153.3 C125.5,146.3 129.0,151.7 132.6,151.3 C136.1,150.8 139.6,150.7 143.1,150.5 C146.7,150.3 150.2,150.2 153.7,150.1 C157.2,150.0 160.8,149.9 164.3,149.7 C167.8,149.5 171.3,149.1 174.9,148.7 C178.4,148.2 181.9,147.4 185.4,147.0 C189.0,146.5 192.5,146.3 196.0,146.1 C199.5,145.9 203.0,146.0 206.6,145.6 C210.1,145.2 213.6,144.1 217.1,143.6 C220.7,143.1 224.2,142.9 227.7,142.6 C231.2,142.3 234.8,142.0 238.3,141.7 C241.8,141.4 245.3,141.4 248.9,140.8 C252.4,140.2 255.9,138.7 259.4,138.0 C263.0,137.4 266.5,137.2 270.0,136.9 C273.5,136.6 277.0,136.4 280.6,136.2 C284.1,136.1 287.6,136.5 291.1,136.1 C294.7,135.7 298.2,134.4 301.7,133.8 C305.2,133.2 308.8,133.0 312.3,132.5 C315.8,132.1 319.3,131.8 322.9,131.1 C326.4,130.4 329.9,129.0 333.4,128.3 C337.0,127.6 340.5,127.3 344.0,126.9 C347.5,126.5 351.0,126.3 354.6,126.0 C358.1,125.8 361.6,125.8 365.1,125.3 C368.7,124.9 372.2,124.0 375.7,123.6 C379.2,123.1 382.8,122.8 386.3,122.5 C389.8,122.2 393.3,122.0 396.9,121.7 C400.4,121.5 403.9,121.3 407.4,121.1 C411.0,120.9 414.5,120.6 418.0,120.4 C421.5,120.3 425.0,120.3 428.6,120.2 C432.1,120.2 435.6,121.0 439.1,120.2 C442.7,119.4 446.2,116.5 449.7,115.5 C453.2,114.5 456.8,114.6 460.3,114.2 C463.8,113.7 467.3,113.3 470.9,112.8 C474.4,112.4 477.9,111.9 481.4,111.6 C485.0,111.3 488.5,111.2 492.0,111.0 C495.5,110.8 499.0,110.4 502.6,110.2 C506.1,110.0 509.6,110.1 513.1,109.7 C516.7,109.4 520.2,108.6 523.7,108.1 C527.2,107.7 530.8,107.6 534.3,107.2 C537.8,106.9 541.3,106.4 544.9,106.2 C548.4,105.9 551.9,106.0 555.4,105.7 C559.0,105.5 562.5,104.8 566.0,104.5 C569.5,104.2 573.0,104.2 576.6,104.0 C580.1,103.7 583.6,103.5 587.1,103.2 C590.7,102.9 594.2,102.5 597.7,102.2 C601.2,101.9 604.8,101.5 608.3,101.2 C611.8,100.9 615.3,100.8 618.9,100.3 C622.4,99.9 625.9,99.2 629.4,98.7 C633.0,98.3 638.2,97.9 640.0,97.7" fill="none" class="line-total" stroke-width="2.5" stroke-linecap="round" stroke-linejoin="round"/>

  <circle cx="640" cy="97.70800000000001" r="4.5" class="dot-total" stroke-width="2"/>
    <text x="658" y="101.70800000000001" class="end-label" font-family="-apple-system, BlinkMacSystemFont, 'Segoe UI', Helvetica, sans-serif">Total</text>
    <text x="697" y="101.70800000000001" class="end-value" font-family="-apple-system, BlinkMacSystemFont, 'Segoe UI', Helvetica, sans-serif">2.1k</text>
    <circle cx="640" cy="107.856" r="3.5" class="dot-openvsx" stroke-width="1.8"/>
    <text x="658" y="119.70800000000001" class="end-label" font-family="-apple-system, BlinkMacSystemFont, 'Segoe UI', Helvetica, sans-serif">Open VSX</text>
    <text x="716.8" y="119.70800000000001" class="end-value" font-family="-apple-system, BlinkMacSystemFont, 'Segoe UI', Helvetica, sans-serif">2k</text>
    <circle cx="640" cy="209.852" r="3.5" class="dot-vscode" stroke-width="1.8"/>
    <text x="658" y="213.852" class="end-label" font-family="-apple-system, BlinkMacSystemFont, 'Segoe UI', Helvetica, sans-serif">VS Code</text>
    <text x="710.2" y="213.852" class="end-value" font-family="-apple-system, BlinkMacSystemFont, 'Segoe UI', Helvetica, sans-serif">177</text>
</svg>