<svg xmlns="http://www.w3.org/2000/svg" viewBox="0 0 760 260" width="760" height="260" role="img" aria-label="Glassy install history">
  <style>
  svg { color-scheme: light dark; }
  .title      { fill: #1a1a2e; font-size: 15px; font-weight: 600; }
  .subtitle   { fill: #6b7280; font-size: 11px; font-weight: 400; }
  .grid       { stroke: #e8e8ee; }
  .axis-label { fill: #8a8a9a; font-size: 10px; }
  .line-total   { stroke: #e8553d; }
  .line-vscode  { stroke: #5b7cfa; }
  .line-openvsx { stroke: #34c7a0; }
  .dot-total   { fill: transparent; stroke: #e8553d; }
  .dot-vscode  { fill: transparent; stroke: #5b7cfa; }
  .dot-openvsx { fill: transparent; stroke: #34c7a0; }
  .end-label       { fill: #1a1a2e; font-size: 11px; font-weight: 600; }
  .end-value       { fill: #6b7280; font-size: 11px; font-weight: 400; }
  .area-total-top    { stop-color: #e8553d; }
  .area-total-bottom { stop-color: #e8553d; }

  @media (prefers-color-scheme: dark) {
    .title      { fill: #e2e2e8; }
    .subtitle   { fill: #8b949e; }
    .grid       { stroke: #2d2d3d; }
    .axis-label { fill: #6e7681; }
    .line-total   { stroke: #ff9b85; }
    .line-vscode  { stroke: #8da4ff; }
    .line-openvsx { stroke: #5eead4; }
    .dot-total   { stroke: #ff9b85; }
    .dot-vscode  { stroke: #8da4ff; }
    .dot-openvsx { stroke: #5eead4; }
    .end-label       { fill: #e2e2e8; }
    .end-value       { fill: #8b949e; }
    .area-total-top    { stop-color: #ff9b85; }
    .area-total-bottom { stop-color: #ff9b85; }
  }
</style>
  <defs>
    <linearGradient id="areaGrad" x1="0" y1="0" x2="0" y2="1">
      <stop offset="0%" class="area-total-top" stop-opacity="0.18"/>
      <stop offset="60%" class="area-total-bottom" stop-opacity="0.04"/>
      <stop offset="100%" class="area-total-bottom" stop-opacity="0"/>
    </linearGradient>
  </defs>

  <text x="48" y="22" class="title" font-family="-apple-system, BlinkMacSystemFont, 'Segoe UI', Helvetica, sans-serif">Installs</text>
  <text x="48" y="37" class="subtitle" font-family="-apple-system, BlinkMacSystemFont, 'Segoe UI', Helvetica, sans-serif">Updated Jul 22</text>

  <line x1="48" y1="220" x2="640" y2="220" class="grid" stroke-width="0.7"/>
    <text x="40" y="223.5" class="axis-label" text-anchor="end" font-family="-apple-system, BlinkMacSystemFont, 'Segoe UI', Helvetica, sans-serif">0</text>
    <line x1="48" y1="162.66666666666669" x2="640" y2="162.66666666666669" class="grid" stroke-width="0.7"/>
    <text x="40" y="166.16666666666669" class="axis-label" text-anchor="end" font-family="-apple-system, BlinkMacSystemFont, 'Segoe UI', Helvetica, sans-serif">1k</text>
    <line x1="48" y1="105.33333333333334" x2="640" y2="105.33333333333334" class="grid" stroke-width="0.7"/>
    <text x="40" y="108.83333333333334" class="axis-label" text-anchor="end" font-family="-apple-system, BlinkMacSystemFont, 'Segoe UI', Helvetica, sans-serif">2k</text>
    <line x1="48" y1="48" x2="640" y2="48" class="grid" stroke-width="0.7"/>
    <text x="40" y="51.5" class="axis-label" text-anchor="end" font-family="-apple-system, BlinkMacSystemFont, 'Segoe UI', Helvetica, sans-serif">3k</text>
  <text x="48" y="248" class="axis-label" text-anchor="middle" font-family="-apple-system, BlinkMacSystemFont, 'Segoe UI', Helvetica, sans-serif">Mar 27</text>
    <text x="169.0909090909091" y="248" class="axis-label" text-anchor="middle" font-family="-apple-system, BlinkMacSystemFont, 'Segoe UI', Helvetica, sans-serif">May 13</text>
    <text x="283.45454545454544" y="248" class="axis-label" text-anchor="middle" font-family="-apple-system, BlinkMacSystemFont, 'Segoe UI', Helvetica, sans-serif">May 30</text>
    <text x="404.54545454545456" y="248" class="axis-label" text-anchor="middle" font-family="-apple-system, BlinkMacSystemFont, 'Segoe UI', Helvetica, sans-serif">Jun 17</text>
    <text x="518.9090909090909" y="248" class="axis-label" text-anchor="middle" font-family="-apple-system, BlinkMacSystemFont, 'Segoe UI', Helvetica, sans-serif">Jul 4</text>
    <text x="640" y="248" class="axis-label" text-anchor="middle" font-family="-apple-system, BlinkMacSystemFont, 'Segoe UI', Helvetica, sans-serif">Jul 22</text>

  <path d="M48.0,219.8 C49.1,218.4 52.5,213.7 54.7,211.7 C57.0,209.7 59.2,209.1 61.5,207.7 C63.7,206.4 65.9,204.4 68.2,203.7 C70.4,203.0 72.7,205.0 74.9,203.5 C77.2,202.0 79.4,196.6 81.6,194.9 C83.9,193.2 86.1,200.1 88.4,193.2 C90.6,186.2 92.8,160.3 95.1,153.3 C97.3,146.3 99.6,151.7 101.8,151.3 C104.1,150.8 106.3,150.7 108.5,150.5 C110.8,150.3 113.0,150.2 115.3,150.1 C117.5,150.0 119.8,149.9 122.0,149.7 C124.2,149.5 126.5,149.1 128.7,148.7 C131.0,148.2 133.2,147.4 135.5,147.0 C137.7,146.5 139.9,146.3 142.2,146.1 C144.4,145.9 146.7,146.0 148.9,145.6 C151.2,145.2 153.4,144.1 155.6,143.6 C157.9,143.1 160.1,142.9 162.4,142.6 C164.6,142.3 166.8,142.0 169.1,141.7 C171.3,141.4 173.6,141.4 175.8,140.8 C178.1,140.2 180.3,138.7 182.5,138.0 C184.8,137.4 187.0,137.2 189.3,136.9 C191.5,136.6 193.8,136.4 196.0,136.2 C198.2,136.1 200.5,136.5 202.7,136.1 C205.0,135.7 207.2,134.4 209.5,133.8 C211.7,133.2 213.9,133.0 216.2,132.5 C218.4,132.1 220.7,131.8 222.9,131.1 C225.2,130.4 227.4,129.0 229.6,128.3 C231.9,127.6 234.1,127.3 236.4,126.9 C238.6,126.5 240.8,126.3 243.1,126.0 C245.3,125.8 247.6,125.8 249.8,125.3 C252.1,124.9 254.3,124.0 256.5,123.6 C258.8,123.1 261.0,122.8 263.3,122.5 C265.5,122.2 267.8,122.0 270.0,121.7 C272.2,121.5 274.5,121.3 276.7,121.1 C279.0,120.9 281.2,120.6 283.5,120.4 C285.7,120.3 287.9,120.3 290.2,120.2 C292.4,120.2 294.7,121.0 296.9,120.2 C299.2,119.4 301.4,116.5 303.6,115.5 C305.9,114.5 308.1,114.6 310.4,114.2 C312.6,113.7 314.8,113.3 317.1,112.8 C319.3,112.4 321.6,111.9 323.8,111.6 C326.1,111.3 328.3,111.2 330.5,111.0 C332.8,110.8 335.0,110.4 337.3,110.2 C339.5,110.0 341.8,110.1 344.0,109.7 C346.2,109.4 348.5,108.6 350.7,108.1 C353.0,107.7 355.2,107.6 357.5,107.2 C359.7,106.9 361.9,106.4 364.2,106.2 C366.4,105.9 368.7,106.0 370.9,105.7 C373.2,105.5 375.4,104.8 377.6,104.5 C379.9,104.2 382.1,104.2 384.4,104.0 C386.6,103.7 388.8,103.5 391.1,103.2 C393.3,102.9 395.6,102.5 397.8,102.2 C400.1,101.9 402.3,101.5 404.5,101.2 C406.8,100.9 409.0,100.8 411.3,100.3 C413.5,99.9 415.8,99.2 418.0,98.7 C420.2,98.3 422.5,98.1 424.7,97.7 C427.0,97.4 429.2,97.0 431.5,96.6 C433.7,96.3 435.9,95.9 438.2,95.5 C440.4,95.2 442.7,94.8 444.9,94.6 C447.2,94.3 449.4,94.2 451.6,93.8 C453.9,93.4 456.1,92.9 458.4,92.4 C460.6,91.9 462.8,91.2 465.1,90.8 C467.3,90.5 469.6,90.5 471.8,90.3 C474.1,90.1 476.3,90.0 478.5,89.8 C480.8,89.6 483.0,89.3 485.3,88.9 C487.5,88.6 489.8,88.2 492.0,87.9 C494.2,87.6 496.5,87.3 498.7,86.9 C501.0,86.6 503.2,86.2 505.5,85.8 C507.7,85.5 509.9,85.3 512.2,85.0 C514.4,84.6 516.7,84.0 518.9,83.7 C521.2,83.3 523.4,83.0 525.6,82.8 C527.9,82.6 530.1,82.6 532.4,82.4 C534.6,82.2 536.8,81.9 539.1,81.8 C541.3,81.6 543.6,81.6 545.8,81.4 C548.1,81.2 550.3,80.9 552.5,80.6 C554.8,80.4 557.0,80.0 559.3,79.8 C561.5,79.5 563.8,79.3 566.0,79.1 C568.2,78.9 570.5,78.8 572.7,78.5 C575.0,78.2 577.2,77.5 579.5,77.2 C581.7,76.9 583.9,76.8 586.2,76.6 C588.4,76.3 590.7,76.1 592.9,75.6 C595.2,75.1 597.4,74.5 599.6,73.7 C601.9,72.9 604.1,71.5 606.4,70.9 C608.6,70.3 610.8,70.4 613.1,70.1 C615.3,69.9 617.6,69.7 619.8,69.5 C622.1,69.3 624.3,69.0 626.5,68.9 C628.8,68.7 631.0,68.7 633.3,68.6 C635.5,68.4 638.9,68.0 640.0,67.9 L640.0,220.0 L48.0,220.0 Z" fill="url(#areaGrad)"/>
  <path d="M48.0,219.8 C49.1,218.5 52.5,213.8 54.7,211.9 C57.0,210.0 59.2,209.5 61.5,208.4 C63.7,207.3 65.9,205.6 68.2,205.1 C70.4,204.5 72.7,206.5 74.9,205.1 C77.2,203.7 79.4,198.4 81.6,196.8 C83.9,195.2 86.1,201.7 88.4,195.5 C90.6,189.2 92.8,165.5 95.1,159.1 C97.3,152.7 99.6,157.7 101.8,157.3 C104.1,156.9 106.3,156.8 108.5,156.7 C110.8,156.6 113.0,156.6 115.3,156.5 C117.5,156.4 119.8,156.4 122.0,156.1 C124.2,155.9 126.5,155.6 128.7,155.1 C131.0,154.6 133.2,153.7 135.5,153.4 C137.7,153.0 139.9,153.1 142.2,152.9 C144.4,152.8 146.7,153.0 148.9,152.6 C151.2,152.2 153.4,151.1 155.6,150.6 C157.9,150.1 160.1,150.0 162.4,149.7 C164.6,149.4 166.8,149.2 169.1,148.9 C171.3,148.6 173.6,148.6 175.8,148.0 C178.1,147.4 180.3,145.9 182.5,145.2 C184.8,144.6 187.0,144.5 189.3,144.2 C191.5,143.9 193.8,143.7 196.0,143.5 C198.2,143.4 200.5,143.8 202.7,143.4 C205.0,143.0 207.2,141.8 209.5,141.2 C211.7,140.7 213.9,140.5 216.2,140.1 C218.4,139.7 220.7,139.6 222.9,138.9 C225.2,138.3 227.4,136.9 229.6,136.3 C231.9,135.6 234.1,135.4 236.4,135.0 C238.6,134.7 240.8,134.5 243.1,134.2 C245.3,134.0 247.6,134.0 249.8,133.7 C252.1,133.3 254.3,132.5 256.5,132.1 C258.8,131.6 261.0,131.4 263.3,131.1 C265.5,130.9 267.8,130.6 270.0,130.4 C272.2,130.3 274.5,130.2 276.7,130.0 C279.0,129.8 281.2,129.5 283.5,129.4 C285.7,129.3 287.9,129.4 290.2,129.4 C292.4,129.4 294.7,130.2 296.9,129.4 C299.2,128.7 301.4,125.9 303.6,124.9 C305.9,124.0 308.1,124.0 310.4,123.6 C312.6,123.1 314.8,122.7 317.1,122.3 C319.3,121.9 321.6,121.3 323.8,121.0 C326.1,120.7 328.3,120.7 330.5,120.5 C332.8,120.2 335.0,119.9 337.3,119.7 C339.5,119.5 341.8,119.6 344.0,119.2 C346.2,118.9 348.5,118.0 350.7,117.6 C353.0,117.2 355.2,117.0 357.5,116.7 C359.7,116.4 361.9,115.9 364.2,115.7 C366.4,115.4 368.7,115.5 370.9,115.2 C373.2,114.9 375.4,114.3 377.6,114.0 C379.9,113.8 382.1,113.8 384.4,113.6 C386.6,113.4 388.8,113.2 391.1,112.9 C393.3,112.6 395.6,112.3 397.8,112.0 C400.1,111.7 402.3,111.4 404.5,111.1 C406.8,110.8 409.0,110.6 411.3,110.3 C413.5,109.9 415.8,109.2 418.0,108.8 C420.2,108.4 422.5,108.2 424.7,107.9 C427.0,107.5 429.2,107.2 431.5,106.8 C433.7,106.5 435.9,106.1 438.2,105.8 C440.4,105.5 442.7,105.1 444.9,104.9 C447.2,104.6 449.4,104.5 451.6,104.2 C453.9,103.8 456.1,103.3 458.4,102.8 C460.6,102.3 462.8,101.6 465.1,101.3 C467.3,101.0 469.6,101.0 471.8,100.9 C474.1,100.7 476.3,100.6 478.5,100.4 C480.8,100.2 483.0,99.9 485.3,99.6 C487.5,99.3 489.8,99.0 492.0,98.7 C494.2,98.4 496.5,98.1 498.7,97.8 C501.0,97.4 503.2,97.0 505.5,96.7 C507.7,96.4 509.9,96.2 512.2,95.9 C514.4,95.6 516.7,95.3 518.9,95.0 C521.2,94.7 523.4,94.4 525.6,94.2 C527.9,94.0 530.1,94.0 532.4,93.9 C534.6,93.7 536.8,93.4 539.1,93.3 C541.3,93.1 543.6,93.1 545.8,92.9 C548.1,92.8 550.3,92.5 552.5,92.3 C554.8,92.0 557.0,91.7 559.3,91.5 C561.5,91.2 563.8,91.0 566.0,90.8 C568.2,90.6 570.5,90.6 572.7,90.3 C575.0,90.0 577.2,89.4 579.5,89.1 C581.7,88.7 583.9,88.7 586.2,88.5 C588.4,88.2 590.7,88.0 592.9,87.6 C595.2,87.1 597.4,86.5 599.6,85.7 C601.9,85.0 604.1,83.5 606.4,83.0 C608.6,82.4 610.8,82.5 613.1,82.3 C615.3,82.1 617.6,81.9 619.8,81.7 C622.1,81.5 624.3,81.3 626.5,81.1 C628.8,81.0 631.0,81.1 633.3,80.9 C635.5,80.8 638.9,80.3 640.0,80.2" fill="none" class="line-openvsx" stroke-width="1.8" stroke-linecap="round" stroke-linejoin="round"/>
  <path d="M48.0,219.9 C49.1,219.9 52.5,219.9 54.7,219.8 C57.0,219.7 59.2,219.5 61.5,219.3 C63.7,219.1 65.9,218.8 68.2,218.6 C70.4,218.5 72.7,218.5 74.9,218.4 C77.2,218.3 79.4,218.2 81.6,218.1 C83.9,217.9 86.1,218.3 88.4,217.7 C90.6,217.1 92.8,214.8 95.1,214.2 C97.3,213.6 99.6,214.0 101.8,214.0 C104.1,213.9 106.3,213.9 108.5,213.8 C110.8,213.8 113.0,213.7 115.3,213.6 C117.5,213.6 119.8,213.6 122.0,213.6 C124.2,213.6 126.5,213.6 128.7,213.6 C131.0,213.6 133.2,213.6 135.5,213.6 C137.7,213.5 139.9,213.3 142.2,213.2 C144.4,213.1 146.7,213.1 148.9,213.1 C151.2,213.0 153.4,213.0 155.6,213.0 C157.9,213.0 160.1,212.9 162.4,212.9 C164.6,212.9 166.8,212.8 169.1,212.8 C171.3,212.8 173.6,212.8 175.8,212.8 C178.1,212.8 180.3,212.8 182.5,212.8 C184.8,212.8 187.0,212.7 189.3,212.7 C191.5,212.7 193.8,212.7 196.0,212.7 C198.2,212.7 200.5,212.7 202.7,212.7 C205.0,212.6 207.2,212.6 209.5,212.5 C211.7,212.5 213.9,212.5 216.2,212.4 C218.4,212.4 220.7,212.2 222.9,212.1 C225.2,212.1 227.4,212.0 229.6,212.0 C231.9,211.9 234.1,211.9 236.4,211.9 C238.6,211.8 240.8,211.8 243.1,211.8 C245.3,211.8 247.6,211.7 249.8,211.7 C252.1,211.6 254.3,211.6 256.5,211.5 C258.8,211.5 261.0,211.4 263.3,211.4 C265.5,211.4 267.8,211.3 270.0,211.3 C272.2,211.2 274.5,211.2 276.7,211.1 C279.0,211.1 281.2,211.0 283.5,211.0 C285.7,211.0 287.9,210.9 290.2,210.8 C292.4,210.8 294.7,210.8 296.9,210.8 C299.2,210.7 301.4,210.6 303.6,210.6 C305.9,210.6 308.1,210.6 310.4,210.6 C312.6,210.6 314.8,210.5 317.1,210.5 C319.3,210.5 321.6,210.5 323.8,210.5 C326.1,210.5 328.3,210.5 330.5,210.5 C332.8,210.5 335.0,210.5 337.3,210.5 C339.5,210.5 341.8,210.5 344.0,210.5 C346.2,210.5 348.5,210.5 350.7,210.5 C353.0,210.5 355.2,210.5 357.5,210.5 C359.7,210.5 361.9,210.5 364.2,210.5 C366.4,210.5 368.7,210.5 370.9,210.5 C373.2,210.5 375.4,210.5 377.6,210.5 C379.9,210.5 382.1,210.4 384.4,210.4 C386.6,210.3 388.8,210.3 391.1,210.3 C393.3,210.2 395.6,210.2 397.8,210.2 C400.1,210.2 402.3,210.2 404.5,210.1 C406.8,210.1 409.0,210.1 411.3,210.1 C413.5,210.1 415.8,210.0 418.0,210.0 C420.2,209.9 422.5,209.9 424.7,209.9 C427.0,209.8 429.2,209.8 431.5,209.8 C433.7,209.8 435.9,209.8 438.2,209.7 C440.4,209.7 442.7,209.7 444.9,209.7 C447.2,209.7 449.4,209.6 451.6,209.6 C453.9,209.6 456.1,209.6 458.4,209.6 C460.6,209.5 462.8,209.5 465.1,209.5 C467.3,209.5 469.6,209.5 471.8,209.5 C474.1,209.4 476.3,209.4 478.5,209.4 C480.8,209.4 483.0,209.4 485.3,209.3 C487.5,209.3 489.8,209.3 492.0,209.2 C494.2,209.2 496.5,209.2 498.7,209.2 C501.0,209.1 503.2,209.1 505.5,209.1 C507.7,209.1 509.9,209.1 512.2,209.0 C514.4,209.0 516.7,208.7 518.9,208.6 C521.2,208.6 523.4,208.6 525.6,208.6 C527.9,208.6 530.1,208.6 532.4,208.5 C534.6,208.5 536.8,208.5 539.1,208.5 C541.3,208.5 543.6,208.4 545.8,208.4 C548.1,208.4 550.3,208.4 552.5,208.4 C554.8,208.3 557.0,208.3 559.3,208.3 C561.5,208.3 563.8,208.3 566.0,208.3 C568.2,208.3 570.5,208.2 572.7,208.2 C575.0,208.2 577.2,208.2 579.5,208.1 C581.7,208.1 583.9,208.1 586.2,208.1 C588.4,208.1 590.7,208.0 592.9,208.0 C595.2,208.0 597.4,208.0 599.6,208.0 C601.9,207.9 604.1,207.9 606.4,207.9 C608.6,207.9 610.8,207.9 613.1,207.8 C615.3,207.8 617.6,207.8 619.8,207.8 C622.1,207.8 624.3,207.7 626.5,207.7 C628.8,207.7 631.0,207.7 633.3,207.7 C635.5,207.7 638.9,207.7 640.0,207.7" fill="none" class="line-vscode" stroke-width="1.8" stroke-linecap="round" stroke-linejoin="round"/>
  <path d="M48.0,219.8 C49.1,218.4 52.5,213.7 54.7,211.7 C57.0,209.7 59.2,209.1 61.5,207.7 C63.7,206.4 65.9,204.4 68.2,203.7 C70.4,203.0 72.7,205.0 74.9,203.5 C77.2,202.0 79.4,196.6 81.6,194.9 C83.9,193.2 86.1,200.1 88.4,193.2 C90.6,186.2 92.8,160.3 95.1,153.3 C97.3,146.3 99.6,151.7 101.8,151.3 C104.1,150.8 106.3,150.7 108.5,150.5 C110.8,150.3 113.0,150.2 115.3,150.1 C117.5,150.0 119.8,149.9 122.0,149.7 C124.2,149.5 126.5,149.1 128.7,148.7 C131.0,148.2 133.2,147.4 135.5,147.0 C137.7,146.5 139.9,146.3 142.2,146.1 C144.4,145.9 146.7,146.0 148.9,145.6 C151.2,145.2 153.4,144.1 155.6,143.6 C157.9,143.1 160.1,142.9 162.4,142.6 C164.6,142.3 166.8,142.0 169.1,141.7 C171.3,141.4 173.6,141.4 175.8,140.8 C178.1,140.2 180.3,138.7 182.5,138.0 C184.8,137.4 187.0,137.2 189.3,136.9 C191.5,136.6 193.8,136.4 196.0,136.2 C198.2,136.1 200.5,136.5 202.7,136.1 C205.0,135.7 207.2,134.4 209.5,133.8 C211.7,133.2 213.9,133.0 216.2,132.5 C218.4,132.1 220.7,131.8 222.9,131.1 C225.2,130.4 227.4,129.0 229.6,128.3 C231.9,127.6 234.1,127.3 236.4,126.9 C238.6,126.5 240.8,126.3 243.1,126.0 C245.3,125.8 247.6,125.8 249.8,125.3 C252.1,124.9 254.3,124.0 256.5,123.6 C258.8,123.1 261.0,122.8 263.3,122.5 C265.5,122.2 267.8,122.0 270.0,121.7 C272.2,121.5 274.5,121.3 276.7,121.1 C279.0,120.9 281.2,120.6 283.5,120.4 C285.7,120.3 287.9,120.3 290.2,120.2 C292.4,120.2 294.7,121.0 296.9,120.2 C299.2,119.4 301.4,116.5 303.6,115.5 C305.9,114.5 308.1,114.6 310.4,114.2 C312.6,113.7 314.8,113.3 317.1,112.8 C319.3,112.4 321.6,111.9 323.8,111.6 C326.1,111.3 328.3,111.2 330.5,111.0 C332.8,110.8 335.0,110.4 337.3,110.2 C339.5,110.0 341.8,110.1 344.0,109.7 C346.2,109.4 348.5,108.6 350.7,108.1 C353.0,107.7 355.2,107.6 357.5,107.2 C359.7,106.9 361.9,106.4 364.2,106.2 C366.4,105.9 368.7,106.0 370.9,105.7 C373.2,105.5 375.4,104.8 377.6,104.5 C379.9,104.2 382.1,104.2 384.4,104.0 C386.6,103.7 388.8,103.5 391.1,103.2 C393.3,102.9 395.6,102.5 397.8,102.2 C400.1,101.9 402.3,101.5 404.5,101.2 C406.8,100.9 409.0,100.8 411.3,100.3 C413.5,99.9 415.8,99.2 418.0,98.7 C420.2,98.3 422.5,98.1 424.7,97.7 C427.0,97.4 429.2,97.0 431.5,96.6 C433.7,96.3 435.9,95.9 438.2,95.5 C440.4,95.2 442.7,94.8 444.9,94.6 C447.2,94.3 449.4,94.2 451.6,93.8 C453.9,93.4 456.1,92.9 458.4,92.4 C460.6,91.9 462.8,91.2 465.1,90.8 C467.3,90.5 469.6,90.5 471.8,90.3 C474.1,90.1 476.3,90.0 478.5,89.8 C480.8,89.6 483.0,89.3 485.3,88.9 C487.5,88.6 489.8,88.2 492.0,87.9 C494.2,87.6 496.5,87.3 498.7,86.9 C501.0,86.6 503.2,86.2 505.5,85.8 C507.7,85.5 509.9,85.3 512.2,85.0 C514.4,84.6 516.7,84.0 518.9,83.7 C521.2,83.3 523.4,83.0 525.6,82.8 C527.9,82.6 530.1,82.6 532.4,82.4 C534.6,82.2 536.8,81.9 539.1,81.8 C541.3,81.6 543.6,81.6 545.8,81.4 C548.1,81.2 550.3,80.9 552.5,80.6 C554.8,80.4 557.0,80.0 559.3,79.8 C561.5,79.5 563.8,79.3 566.0,79.1 C568.2,78.9 570.5,78.8 572.7,78.5 C575.0,78.2 577.2,77.5 579.5,77.2 C581.7,76.9 583.9,76.8 586.2,76.6 C588.4,76.3 590.7,76.1 592.9,75.6 C595.2,75.1 597.4,74.5 599.6,73.7 C601.9,72.9 604.1,71.5 606.4,70.9 C608.6,70.3 610.8,70.4 613.1,70.1 C615.3,69.9 617.6,69.7 619.8,69.5 C622.1,69.3 624.3,69.0 626.5,68.9 C628.8,68.7 631.0,68.7 633.3,68.6 C635.5,68.4 638.9,68.0 640.0,67.9" fill="none" class="line-total" stroke-width="2.5" stroke-linecap="round" stroke-linejoin="round"/>

  <circle cx="640" cy="67.89466666666667" r="4.5" class="dot-total" stroke-width="2"/>
    <text x="658" y="71.89466666666667" class="end-label" font-family="-apple-system, BlinkMacSystemFont, 'Segoe UI', Helvetica, sans-serif">Total</text>
    <text x="697" y="71.89466666666667" class="end-value" font-family="-apple-system, BlinkMacSystemFont, 'Segoe UI', Helvetica, sans-serif">2.7k</text>
    <circle cx="640" cy="80.22133333333335" r="3.5" class="dot-openvsx" stroke-width="1.8"/>
    <text x="658" y="89.89466666666667" class="end-label" font-family="-apple-system, BlinkMacSystemFont, 'Segoe UI', Helvetica, sans-serif">Open VSX</text>
    <text x="716.8" y="89.89466666666667" class="end-value" font-family="-apple-system, BlinkMacSystemFont, 'Segoe UI', Helvetica, sans-serif">2.4k</text>
    <circle cx="640" cy="207.67333333333335" r="3.5" class="dot-vscode" stroke-width="1.8"/>
    <text x="658" y="211.67333333333335" class="end-label" font-family="-apple-system, BlinkMacSystemFont, 'Segoe UI', Helvetica, sans-serif">VS Code</text>
    <text x="710.2" y="211.67333333333335" class="end-value" font-family="-apple-system, BlinkMacSystemFont, 'Segoe UI', Helvetica, sans-serif">215</text>
</svg>