<svg xmlns="http://www.w3.org/2000/svg" viewBox="0 0 760 260" width="760" height="260" role="img" aria-label="Glassy install history">
  <style>
  svg { color-scheme: light dark; }
  .title      { fill: #1a1a2e; font-size: 15px; font-weight: 600; }
  .subtitle   { fill: #6b7280; font-size: 11px; font-weight: 400; }
  .grid       { stroke: #e8e8ee; }
  .axis-label { fill: #8a8a9a; font-size: 10px; }
  .line-total   { stroke: #e8553d; }
  .line-vscode  { stroke: #5b7cfa; }
  .line-openvsx { stroke: #34c7a0; }
  .dot-total   { fill: transparent; stroke: #e8553d; }
  .dot-vscode  { fill: transparent; stroke: #5b7cfa; }
  .dot-openvsx { fill: transparent; stroke: #34c7a0; }
  .end-label       { fill: #1a1a2e; font-size: 11px; font-weight: 600; }
  .end-value       { fill: #6b7280; font-size: 11px; font-weight: 400; }
  .area-total-top    { stop-color: #e8553d; }
  .area-total-bottom { stop-color: #e8553d; }

  @media (prefers-color-scheme: dark) {
    .title      { fill: #e2e2e8; }
    .subtitle   { fill: #8b949e; }
    .grid       { stroke: #2d2d3d; }
    .axis-label { fill: #6e7681; }
    .line-total   { stroke: #ff9b85; }
    .line-vscode  { stroke: #8da4ff; }
    .line-openvsx { stroke: #5eead4; }
    .dot-total   { stroke: #ff9b85; }
    .dot-vscode  { stroke: #8da4ff; }
    .dot-openvsx { stroke: #5eead4; }
    .end-label       { fill: #e2e2e8; }
    .end-value       { fill: #8b949e; }
    .area-total-top    { stop-color: #ff9b85; }
    .area-total-bottom { stop-color: #ff9b85; }
  }
</style>
  <defs>
    <linearGradient id="areaGrad" x1="0" y1="0" x2="0" y2="1">
      <stop offset="0%" class="area-total-top" stop-opacity="0.18"/>
      <stop offset="60%" class="area-total-bottom" stop-opacity="0.04"/>
      <stop offset="100%" class="area-total-bottom" stop-opacity="0"/>
    </linearGradient>
  </defs>

  <text x="48" y="22" class="title" font-family="-apple-system, BlinkMacSystemFont, 'Segoe UI', Helvetica, sans-serif">Installs</text>
  <text x="48" y="37" class="subtitle" font-family="-apple-system, BlinkMacSystemFont, 'Segoe UI', Helvetica, sans-serif">Updated Jun 2</text>

  <line x1="48" y1="220" x2="640" y2="220" class="grid" stroke-width="0.7"/>
    <text x="40" y="223.5" class="axis-label" text-anchor="end" font-family="-apple-system, BlinkMacSystemFont, 'Segoe UI', Helvetica, sans-serif">0</text>
    <line x1="48" y1="177" x2="640" y2="177" class="grid" stroke-width="0.7"/>
    <text x="40" y="180.5" class="axis-label" text-anchor="end" font-family="-apple-system, BlinkMacSystemFont, 'Segoe UI', Helvetica, sans-serif">500</text>
    <line x1="48" y1="134" x2="640" y2="134" class="grid" stroke-width="0.7"/>
    <text x="40" y="137.5" class="axis-label" text-anchor="end" font-family="-apple-system, BlinkMacSystemFont, 'Segoe UI', Helvetica, sans-serif">1k</text>
    <line x1="48" y1="91" x2="640" y2="91" class="grid" stroke-width="0.7"/>
    <text x="40" y="94.5" class="axis-label" text-anchor="end" font-family="-apple-system, BlinkMacSystemFont, 'Segoe UI', Helvetica, sans-serif">1.5k</text>
    <line x1="48" y1="48" x2="640" y2="48" class="grid" stroke-width="0.7"/>
    <text x="40" y="51.5" class="axis-label" text-anchor="end" font-family="-apple-system, BlinkMacSystemFont, 'Segoe UI', Helvetica, sans-serif">2k</text>
  <text x="48" y="248" class="axis-label" text-anchor="middle" font-family="-apple-system, BlinkMacSystemFont, 'Segoe UI', Helvetica, sans-serif">Mar 27</text>
    <text x="172.6315789473684" y="248" class="axis-label" text-anchor="middle" font-family="-apple-system, BlinkMacSystemFont, 'Segoe UI', Helvetica, sans-serif">May 3</text>
    <text x="281.6842105263158" y="248" class="axis-label" text-anchor="middle" font-family="-apple-system, BlinkMacSystemFont, 'Segoe UI', Helvetica, sans-serif">May 10</text>
    <text x="406.3157894736842" y="248" class="axis-label" text-anchor="middle" font-family="-apple-system, BlinkMacSystemFont, 'Segoe UI', Helvetica, sans-serif">May 18</text>
    <text x="515.3684210526316" y="248" class="axis-label" text-anchor="middle" font-family="-apple-system, BlinkMacSystemFont, 'Segoe UI', Helvetica, sans-serif">May 25</text>
    <text x="640" y="248" class="axis-label" text-anchor="middle" font-family="-apple-system, BlinkMacSystemFont, 'Segoe UI', Helvetica, sans-serif">Jun 2</text>

  <path d="M48.0,219.7 C50.6,217.6 58.4,210.5 63.6,207.5 C68.8,204.5 74.0,203.6 79.2,201.6 C84.4,199.6 89.5,196.6 94.7,195.6 C99.9,194.5 105.1,197.4 110.3,195.2 C115.5,193.0 120.7,184.9 125.9,182.3 C131.1,179.8 136.3,190.1 141.5,179.8 C146.7,169.4 151.9,130.5 157.1,120.0 C162.2,109.5 167.4,117.6 172.6,116.9 C177.8,116.2 183.0,116.1 188.2,115.8 C193.4,115.5 198.6,115.4 203.8,115.2 C209.0,115.0 214.2,114.9 219.4,114.6 C224.6,114.2 229.8,113.7 234.9,113.0 C240.1,112.3 245.3,111.1 250.5,110.4 C255.7,109.8 260.9,109.5 266.1,109.1 C271.3,108.8 276.5,109.1 281.7,108.5 C286.9,107.8 292.1,106.2 297.3,105.4 C302.5,104.7 307.6,104.4 312.8,103.9 C318.0,103.4 323.2,103.1 328.4,102.6 C333.6,102.2 338.8,102.2 344.0,101.2 C349.2,100.3 354.4,98.0 359.6,97.0 C364.8,96.0 370.0,95.8 375.2,95.4 C380.4,94.9 385.5,94.6 390.7,94.4 C395.9,94.1 401.1,94.7 406.3,94.1 C411.5,93.5 416.7,91.5 421.9,90.7 C427.1,89.8 432.3,89.4 437.5,88.8 C442.7,88.1 447.9,87.7 453.1,86.6 C458.2,85.6 463.4,83.4 468.6,82.4 C473.8,81.4 479.0,80.9 484.2,80.3 C489.4,79.8 494.6,79.4 499.8,79.0 C505.0,78.7 510.2,78.6 515.4,78.0 C520.6,77.4 525.8,76.1 530.9,75.3 C536.1,74.6 541.3,74.3 546.5,73.8 C551.7,73.3 556.9,73.0 562.1,72.6 C567.3,72.2 572.5,72.0 577.7,71.7 C582.9,71.3 588.1,70.8 593.3,70.6 C598.5,70.4 603.6,70.4 608.8,70.4 C614.0,70.3 619.2,71.4 624.4,70.3 C629.6,69.1 637.4,64.5 640.0,63.3 L640.0,220.0 L48.0,220.0 Z" fill="url(#areaGrad)"/>
  <path d="M48.0,219.7 C50.6,217.7 58.4,210.6 63.6,207.8 C68.8,204.9 74.0,204.3 79.2,202.6 C84.4,200.9 89.5,198.5 94.7,197.6 C99.9,196.8 105.1,199.7 110.3,197.6 C115.5,195.6 120.7,187.7 125.9,185.3 C131.1,182.8 136.3,192.6 141.5,183.2 C146.7,173.8 151.9,138.2 157.1,128.7 C162.2,119.1 167.4,126.5 172.6,125.9 C177.8,125.3 183.0,125.3 188.2,125.1 C193.4,124.9 198.6,124.9 203.8,124.7 C209.0,124.6 214.2,124.5 219.4,124.2 C224.6,123.9 229.8,123.3 234.9,122.6 C240.1,122.0 245.3,120.6 250.5,120.1 C255.7,119.5 260.9,119.6 266.1,119.4 C271.3,119.2 276.5,119.4 281.7,118.9 C286.9,118.3 292.1,116.7 297.3,115.9 C302.5,115.2 307.6,115.0 312.8,114.6 C318.0,114.1 323.2,113.8 328.4,113.4 C333.6,112.9 338.8,112.9 344.0,112.0 C349.2,111.1 354.4,108.8 359.6,107.9 C364.8,106.9 370.0,106.7 375.2,106.3 C380.4,105.9 385.5,105.5 390.7,105.3 C395.9,105.1 401.1,105.7 406.3,105.1 C411.5,104.5 416.7,102.7 421.9,101.8 C427.1,101.0 432.3,100.7 437.5,100.1 C442.7,99.5 447.9,99.3 453.1,98.4 C458.2,97.5 463.4,95.4 468.6,94.4 C473.8,93.5 479.0,93.1 484.2,92.5 C489.4,92.0 494.6,91.7 499.8,91.3 C505.0,91.0 510.2,91.0 515.4,90.5 C520.6,89.9 525.8,88.7 530.9,88.1 C536.1,87.4 541.3,87.1 546.5,86.7 C551.7,86.3 556.9,86.0 562.1,85.7 C567.3,85.4 572.5,85.2 577.7,85.0 C582.9,84.7 588.1,84.3 593.3,84.1 C598.5,84.0 603.6,84.1 608.8,84.1 C614.0,84.1 619.2,85.2 624.4,84.1 C629.6,83.0 637.4,78.5 640.0,77.4" fill="none" class="line-openvsx" stroke-width="1.8" stroke-linecap="round" stroke-linejoin="round"/>
  <path d="M48.0,219.9 C50.6,219.9 58.4,219.9 63.6,219.7 C68.8,219.6 74.0,219.3 79.2,219.0 C84.4,218.7 89.5,218.2 94.7,217.9 C99.9,217.7 105.1,217.7 110.3,217.6 C115.5,217.4 120.7,217.2 125.9,217.1 C131.1,216.9 136.3,217.5 141.5,216.6 C146.7,215.6 151.9,212.2 157.1,211.3 C162.2,210.4 167.4,211.1 172.6,211.0 C177.8,210.9 183.0,210.8 188.2,210.7 C193.4,210.6 198.6,210.5 203.8,210.5 C209.0,210.4 214.2,210.4 219.4,210.4 C224.6,210.4 229.8,210.4 234.9,210.4 C240.1,210.4 245.3,210.5 250.5,210.4 C255.7,210.3 260.9,209.9 266.1,209.8 C271.3,209.6 276.5,209.6 281.7,209.6 C286.9,209.6 292.1,209.6 297.3,209.5 C302.5,209.5 307.6,209.4 312.8,209.3 C318.0,209.3 323.2,209.3 328.4,209.3 C333.6,209.2 338.8,209.3 344.0,209.3 C349.2,209.2 354.4,209.2 359.6,209.2 C364.8,209.1 370.0,209.1 375.2,209.1 C380.4,209.1 385.5,209.1 390.7,209.1 C395.9,209.1 401.1,209.0 406.3,209.0 C411.5,208.9 416.7,208.9 421.9,208.8 C427.1,208.8 432.3,208.7 437.5,208.6 C442.7,208.5 447.9,208.3 453.1,208.2 C458.2,208.1 463.4,208.0 468.6,208.0 C473.8,207.9 479.0,207.8 484.2,207.8 C489.4,207.7 494.6,207.7 499.8,207.7 C505.0,207.7 510.2,207.6 515.4,207.5 C520.6,207.5 525.8,207.3 530.9,207.3 C536.1,207.2 541.3,207.2 546.5,207.1 C551.7,207.0 556.9,207.0 562.1,206.9 C567.3,206.9 572.5,206.7 577.7,206.7 C582.9,206.6 588.1,206.6 593.3,206.5 C598.5,206.4 603.6,206.3 608.8,206.2 C614.0,206.2 619.2,206.2 624.4,206.2 C629.6,206.1 637.4,205.9 640.0,205.9" fill="none" class="line-vscode" stroke-width="1.8" stroke-linecap="round" stroke-linejoin="round"/>
  <path d="M48.0,219.7 C50.6,217.6 58.4,210.5 63.6,207.5 C68.8,204.5 74.0,203.6 79.2,201.6 C84.4,199.6 89.5,196.6 94.7,195.6 C99.9,194.5 105.1,197.4 110.3,195.2 C115.5,193.0 120.7,184.9 125.9,182.3 C131.1,179.8 136.3,190.1 141.5,179.8 C146.7,169.4 151.9,130.5 157.1,120.0 C162.2,109.5 167.4,117.6 172.6,116.9 C177.8,116.2 183.0,116.1 188.2,115.8 C193.4,115.5 198.6,115.4 203.8,115.2 C209.0,115.0 214.2,114.9 219.4,114.6 C224.6,114.2 229.8,113.7 234.9,113.0 C240.1,112.3 245.3,111.1 250.5,110.4 C255.7,109.8 260.9,109.5 266.1,109.1 C271.3,108.8 276.5,109.1 281.7,108.5 C286.9,107.8 292.1,106.2 297.3,105.4 C302.5,104.7 307.6,104.4 312.8,103.9 C318.0,103.4 323.2,103.1 328.4,102.6 C333.6,102.2 338.8,102.2 344.0,101.2 C349.2,100.3 354.4,98.0 359.6,97.0 C364.8,96.0 370.0,95.8 375.2,95.4 C380.4,94.9 385.5,94.6 390.7,94.4 C395.9,94.1 401.1,94.7 406.3,94.1 C411.5,93.5 416.7,91.5 421.9,90.7 C427.1,89.8 432.3,89.4 437.5,88.8 C442.7,88.1 447.9,87.7 453.1,86.6 C458.2,85.6 463.4,83.4 468.6,82.4 C473.8,81.4 479.0,80.9 484.2,80.3 C489.4,79.8 494.6,79.4 499.8,79.0 C505.0,78.7 510.2,78.6 515.4,78.0 C520.6,77.4 525.8,76.1 530.9,75.3 C536.1,74.6 541.3,74.3 546.5,73.8 C551.7,73.3 556.9,73.0 562.1,72.6 C567.3,72.2 572.5,72.0 577.7,71.7 C582.9,71.3 588.1,70.8 593.3,70.6 C598.5,70.4 603.6,70.4 608.8,70.4 C614.0,70.3 619.2,71.4 624.4,70.3 C629.6,69.1 637.4,64.5 640.0,63.3" fill="none" class="line-total" stroke-width="2.5" stroke-linecap="round" stroke-linejoin="round"/>

  <circle cx="640" cy="63.30799999999999" r="4.5" class="dot-total" stroke-width="2"/>
    <text x="658" y="67.30799999999999" class="end-label" font-family="-apple-system, BlinkMacSystemFont, 'Segoe UI', Helvetica, sans-serif">Total</text>
    <text x="697" y="67.30799999999999" class="end-value" font-family="-apple-system, BlinkMacSystemFont, 'Segoe UI', Helvetica, sans-serif">1.8k</text>
    <circle cx="640" cy="77.412" r="3.5" class="dot-openvsx" stroke-width="1.8"/>
    <text x="658" y="85.30799999999999" class="end-label" font-family="-apple-system, BlinkMacSystemFont, 'Segoe UI', Helvetica, sans-serif">Open VSX</text>
    <text x="716.8" y="85.30799999999999" class="end-value" font-family="-apple-system, BlinkMacSystemFont, 'Segoe UI', Helvetica, sans-serif">1.7k</text>
    <circle cx="640" cy="205.896" r="3.5" class="dot-vscode" stroke-width="1.8"/>
    <text x="658" y="209.896" class="end-label" font-family="-apple-system, BlinkMacSystemFont, 'Segoe UI', Helvetica, sans-serif">VS Code</text>
    <text x="710.2" y="209.896" class="end-value" font-family="-apple-system, BlinkMacSystemFont, 'Segoe UI', Helvetica, sans-serif">164</text>
</svg>