<svg xmlns="http://www.w3.org/2000/svg" viewBox="0 0 760 260" width="760" height="260" role="img" aria-label="Glassy install history">
  <style>
  svg { color-scheme: light dark; }
  .title      { fill: #1a1a2e; font-size: 15px; font-weight: 600; }
  .subtitle   { fill: #6b7280; font-size: 11px; font-weight: 400; }
  .grid       { stroke: #e8e8ee; }
  .axis-label { fill: #8a8a9a; font-size: 10px; }
  .line-total   { stroke: #e8553d; }
  .line-vscode  { stroke: #5b7cfa; }
  .line-openvsx { stroke: #34c7a0; }
  .dot-total   { fill: transparent; stroke: #e8553d; }
  .dot-vscode  { fill: transparent; stroke: #5b7cfa; }
  .dot-openvsx { fill: transparent; stroke: #34c7a0; }
  .end-label       { fill: #1a1a2e; font-size: 11px; font-weight: 600; }
  .end-value       { fill: #6b7280; font-size: 11px; font-weight: 400; }
  .area-total-top    { stop-color: #e8553d; }
  .area-total-bottom { stop-color: #e8553d; }

  @media (prefers-color-scheme: dark) {
    .title      { fill: #e2e2e8; }
    .subtitle   { fill: #8b949e; }
    .grid       { stroke: #2d2d3d; }
    .axis-label { fill: #6e7681; }
    .line-total   { stroke: #ff9b85; }
    .line-vscode  { stroke: #8da4ff; }
    .line-openvsx { stroke: #5eead4; }
    .dot-total   { stroke: #ff9b85; }
    .dot-vscode  { stroke: #8da4ff; }
    .dot-openvsx { stroke: #5eead4; }
    .end-label       { fill: #e2e2e8; }
    .end-value       { fill: #8b949e; }
    .area-total-top    { stop-color: #ff9b85; }
    .area-total-bottom { stop-color: #ff9b85; }
  }
</style>
  <defs>
    <linearGradient id="areaGrad" x1="0" y1="0" x2="0" y2="1">
      <stop offset="0%" class="area-total-top" stop-opacity="0.18"/>
      <stop offset="60%" class="area-total-bottom" stop-opacity="0.04"/>
      <stop offset="100%" class="area-total-bottom" stop-opacity="0"/>
    </linearGradient>
  </defs>

  <text x="48" y="22" class="title" font-family="-apple-system, BlinkMacSystemFont, 'Segoe UI', Helvetica, sans-serif">Installs</text>
  <text x="48" y="37" class="subtitle" font-family="-apple-system, BlinkMacSystemFont, 'Segoe UI', Helvetica, sans-serif">Updated Jun 9</text>

  <line x1="48" y1="220" x2="640" y2="220" class="grid" stroke-width="0.7"/>
    <text x="40" y="223.5" class="axis-label" text-anchor="end" font-family="-apple-system, BlinkMacSystemFont, 'Segoe UI', Helvetica, sans-serif">0</text>
    <line x1="48" y1="177" x2="640" y2="177" class="grid" stroke-width="0.7"/>
    <text x="40" y="180.5" class="axis-label" text-anchor="end" font-family="-apple-system, BlinkMacSystemFont, 'Segoe UI', Helvetica, sans-serif">500</text>
    <line x1="48" y1="134" x2="640" y2="134" class="grid" stroke-width="0.7"/>
    <text x="40" y="137.5" class="axis-label" text-anchor="end" font-family="-apple-system, BlinkMacSystemFont, 'Segoe UI', Helvetica, sans-serif">1k</text>
    <line x1="48" y1="91" x2="640" y2="91" class="grid" stroke-width="0.7"/>
    <text x="40" y="94.5" class="axis-label" text-anchor="end" font-family="-apple-system, BlinkMacSystemFont, 'Segoe UI', Helvetica, sans-serif">1.5k</text>
    <line x1="48" y1="48" x2="640" y2="48" class="grid" stroke-width="0.7"/>
    <text x="40" y="51.5" class="axis-label" text-anchor="end" font-family="-apple-system, BlinkMacSystemFont, 'Segoe UI', Helvetica, sans-serif">2k</text>
  <text x="48" y="248" class="axis-label" text-anchor="middle" font-family="-apple-system, BlinkMacSystemFont, 'Segoe UI', Helvetica, sans-serif">Mar 27</text>
    <text x="166.4" y="248" class="axis-label" text-anchor="middle" font-family="-apple-system, BlinkMacSystemFont, 'Segoe UI', Helvetica, sans-serif">May 4</text>
    <text x="284.8" y="248" class="axis-label" text-anchor="middle" font-family="-apple-system, BlinkMacSystemFont, 'Segoe UI', Helvetica, sans-serif">May 13</text>
    <text x="403.2" y="248" class="axis-label" text-anchor="middle" font-family="-apple-system, BlinkMacSystemFont, 'Segoe UI', Helvetica, sans-serif">May 22</text>
    <text x="521.6" y="248" class="axis-label" text-anchor="middle" font-family="-apple-system, BlinkMacSystemFont, 'Segoe UI', Helvetica, sans-serif">May 31</text>
    <text x="640" y="248" class="axis-label" text-anchor="middle" font-family="-apple-system, BlinkMacSystemFont, 'Segoe UI', Helvetica, sans-serif">Jun 9</text>

  <path d="M48.0,219.7 C50.2,217.6 56.8,210.5 61.2,207.5 C65.5,204.5 69.9,203.6 74.3,201.6 C78.7,199.6 83.1,196.6 87.5,195.6 C91.9,194.5 96.2,197.4 100.6,195.2 C105.0,193.0 109.4,184.9 113.8,182.3 C118.2,179.8 122.5,190.1 126.9,179.8 C131.3,169.4 135.7,130.5 140.1,120.0 C144.5,109.5 148.9,117.6 153.2,116.9 C157.6,116.2 162.0,116.1 166.4,115.8 C170.8,115.5 175.2,115.4 179.6,115.2 C183.9,115.0 188.3,114.9 192.7,114.6 C197.1,114.2 201.5,113.7 205.9,113.0 C210.3,112.3 214.6,111.1 219.0,110.4 C223.4,109.8 227.8,109.5 232.2,109.1 C236.6,108.8 240.9,109.1 245.3,108.5 C249.7,107.8 254.1,106.2 258.5,105.4 C262.9,104.7 267.3,104.4 271.6,103.9 C276.0,103.4 280.4,103.1 284.8,102.6 C289.2,102.2 293.6,102.2 298.0,101.2 C302.3,100.3 306.7,98.0 311.1,97.0 C315.5,96.0 319.9,95.8 324.3,95.4 C328.7,94.9 333.0,94.6 337.4,94.4 C341.8,94.1 346.2,94.7 350.6,94.1 C355.0,93.5 359.3,91.5 363.7,90.7 C368.1,89.8 372.5,89.4 376.9,88.8 C381.3,88.1 385.7,87.7 390.0,86.6 C394.4,85.6 398.8,83.4 403.2,82.4 C407.6,81.4 412.0,80.9 416.4,80.3 C420.7,79.8 425.1,79.4 429.5,79.0 C433.9,78.7 438.3,78.6 442.7,78.0 C447.1,77.4 451.4,76.1 455.8,75.3 C460.2,74.6 464.6,74.3 469.0,73.8 C473.4,73.3 477.7,73.0 482.1,72.6 C486.5,72.2 490.9,72.0 495.3,71.7 C499.7,71.3 504.1,70.8 508.4,70.6 C512.8,70.4 517.2,70.4 521.6,70.4 C526.0,70.3 530.4,71.4 534.8,70.3 C539.1,69.1 543.5,64.8 547.9,63.3 C552.3,61.8 556.7,61.9 561.1,61.2 C565.5,60.6 569.8,59.9 574.2,59.3 C578.6,58.6 583.0,57.8 587.4,57.4 C591.8,56.9 596.1,56.9 600.5,56.5 C604.9,56.2 609.3,55.6 613.7,55.3 C618.1,55.0 622.5,55.1 626.8,54.6 C631.2,54.1 637.8,52.6 640.0,52.2 L640.0,220.0 L48.0,220.0 Z" fill="url(#areaGrad)"/>
  <path d="M48.0,219.7 C50.2,217.7 56.8,210.6 61.2,207.8 C65.5,204.9 69.9,204.3 74.3,202.6 C78.7,200.9 83.1,198.5 87.5,197.6 C91.9,196.8 96.2,199.7 100.6,197.6 C105.0,195.6 109.4,187.7 113.8,185.3 C118.2,182.8 122.5,192.6 126.9,183.2 C131.3,173.8 135.7,138.2 140.1,128.7 C144.5,119.1 148.9,126.5 153.2,125.9 C157.6,125.3 162.0,125.3 166.4,125.1 C170.8,124.9 175.2,124.9 179.6,124.7 C183.9,124.6 188.3,124.5 192.7,124.2 C197.1,123.9 201.5,123.3 205.9,122.6 C210.3,122.0 214.6,120.6 219.0,120.1 C223.4,119.5 227.8,119.6 232.2,119.4 C236.6,119.2 240.9,119.4 245.3,118.9 C249.7,118.3 254.1,116.7 258.5,115.9 C262.9,115.2 267.3,115.0 271.6,114.6 C276.0,114.1 280.4,113.8 284.8,113.4 C289.2,112.9 293.6,112.9 298.0,112.0 C302.3,111.1 306.7,108.8 311.1,107.9 C315.5,106.9 319.9,106.7 324.3,106.3 C328.7,105.9 333.0,105.5 337.4,105.3 C341.8,105.1 346.2,105.7 350.6,105.1 C355.0,104.5 359.3,102.7 363.7,101.8 C368.1,101.0 372.5,100.7 376.9,100.1 C381.3,99.5 385.7,99.3 390.0,98.4 C394.4,97.5 398.8,95.4 403.2,94.4 C407.6,93.5 412.0,93.1 416.4,92.5 C420.7,92.0 425.1,91.7 429.5,91.3 C433.9,91.0 438.3,91.0 442.7,90.5 C447.1,89.9 451.4,88.7 455.8,88.1 C460.2,87.4 464.6,87.1 469.0,86.7 C473.4,86.3 477.7,86.0 482.1,85.7 C486.5,85.4 490.9,85.2 495.3,85.0 C499.7,84.7 504.1,84.3 508.4,84.1 C512.8,84.0 517.2,84.1 521.6,84.1 C526.0,84.1 530.4,85.2 534.8,84.1 C539.1,83.0 543.5,78.9 547.9,77.4 C552.3,76.0 556.7,76.0 561.1,75.3 C565.5,74.7 569.8,74.1 574.2,73.5 C578.6,72.8 583.0,72.0 587.4,71.6 C591.8,71.1 596.1,71.0 600.5,70.7 C604.9,70.4 609.3,69.8 613.7,69.5 C618.1,69.2 622.5,69.3 626.8,68.8 C631.2,68.3 637.8,66.8 640.0,66.4" fill="none" class="line-openvsx" stroke-width="1.8" stroke-linecap="round" stroke-linejoin="round"/>
  <path d="M48.0,219.9 C50.2,219.9 56.8,219.9 61.2,219.7 C65.5,219.6 69.9,219.3 74.3,219.0 C78.7,218.7 83.1,218.2 87.5,217.9 C91.9,217.7 96.2,217.7 100.6,217.6 C105.0,217.4 109.4,217.2 113.8,217.1 C118.2,216.9 122.5,217.5 126.9,216.6 C131.3,215.6 135.7,212.2 140.1,211.3 C144.5,210.4 148.9,211.1 153.2,211.0 C157.6,210.9 162.0,210.8 166.4,210.7 C170.8,210.6 175.2,210.5 179.6,210.5 C183.9,210.4 188.3,210.4 192.7,210.4 C197.1,210.4 201.5,210.4 205.9,210.4 C210.3,210.4 214.6,210.5 219.0,210.4 C223.4,210.3 227.8,209.9 232.2,209.8 C236.6,209.6 240.9,209.6 245.3,209.6 C249.7,209.6 254.1,209.6 258.5,209.5 C262.9,209.5 267.3,209.4 271.6,209.3 C276.0,209.3 280.4,209.3 284.8,209.3 C289.2,209.2 293.6,209.3 298.0,209.3 C302.3,209.2 306.7,209.2 311.1,209.2 C315.5,209.1 319.9,209.1 324.3,209.1 C328.7,209.1 333.0,209.1 337.4,209.1 C341.8,209.1 346.2,209.0 350.6,209.0 C355.0,208.9 359.3,208.9 363.7,208.8 C368.1,208.8 372.5,208.7 376.9,208.6 C381.3,208.5 385.7,208.3 390.0,208.2 C394.4,208.1 398.8,208.0 403.2,208.0 C407.6,207.9 412.0,207.8 416.4,207.8 C420.7,207.7 425.1,207.7 429.5,207.7 C433.9,207.7 438.3,207.6 442.7,207.5 C447.1,207.5 451.4,207.3 455.8,207.3 C460.2,207.2 464.6,207.2 469.0,207.1 C473.4,207.0 477.7,207.0 482.1,206.9 C486.5,206.9 490.9,206.7 495.3,206.7 C499.7,206.6 504.1,206.6 508.4,206.5 C512.8,206.4 517.2,206.3 521.6,206.2 C526.0,206.2 530.4,206.2 534.8,206.2 C539.1,206.1 543.5,205.9 547.9,205.9 C552.3,205.9 556.7,205.9 561.1,205.9 C565.5,205.9 569.8,205.8 574.2,205.8 C578.6,205.8 583.0,205.8 587.4,205.8 C591.8,205.8 596.1,205.8 600.5,205.8 C604.9,205.8 609.3,205.8 613.7,205.8 C618.1,205.8 622.5,205.8 626.8,205.8 C631.2,205.8 637.8,205.8 640.0,205.8" fill="none" class="line-vscode" stroke-width="1.8" stroke-linecap="round" stroke-linejoin="round"/>
  <path d="M48.0,219.7 C50.2,217.6 56.8,210.5 61.2,207.5 C65.5,204.5 69.9,203.6 74.3,201.6 C78.7,199.6 83.1,196.6 87.5,195.6 C91.9,194.5 96.2,197.4 100.6,195.2 C105.0,193.0 109.4,184.9 113.8,182.3 C118.2,179.8 122.5,190.1 126.9,179.8 C131.3,169.4 135.7,130.5 140.1,120.0 C144.5,109.5 148.9,117.6 153.2,116.9 C157.6,116.2 162.0,116.1 166.4,115.8 C170.8,115.5 175.2,115.4 179.6,115.2 C183.9,115.0 188.3,114.9 192.7,114.6 C197.1,114.2 201.5,113.7 205.9,113.0 C210.3,112.3 214.6,111.1 219.0,110.4 C223.4,109.8 227.8,109.5 232.2,109.1 C236.6,108.8 240.9,109.1 245.3,108.5 C249.7,107.8 254.1,106.2 258.5,105.4 C262.9,104.7 267.3,104.4 271.6,103.9 C276.0,103.4 280.4,103.1 284.8,102.6 C289.2,102.2 293.6,102.2 298.0,101.2 C302.3,100.3 306.7,98.0 311.1,97.0 C315.5,96.0 319.9,95.8 324.3,95.4 C328.7,94.9 333.0,94.6 337.4,94.4 C341.8,94.1 346.2,94.7 350.6,94.1 C355.0,93.5 359.3,91.5 363.7,90.7 C368.1,89.8 372.5,89.4 376.9,88.8 C381.3,88.1 385.7,87.7 390.0,86.6 C394.4,85.6 398.8,83.4 403.2,82.4 C407.6,81.4 412.0,80.9 416.4,80.3 C420.7,79.8 425.1,79.4 429.5,79.0 C433.9,78.7 438.3,78.6 442.7,78.0 C447.1,77.4 451.4,76.1 455.8,75.3 C460.2,74.6 464.6,74.3 469.0,73.8 C473.4,73.3 477.7,73.0 482.1,72.6 C486.5,72.2 490.9,72.0 495.3,71.7 C499.7,71.3 504.1,70.8 508.4,70.6 C512.8,70.4 517.2,70.4 521.6,70.4 C526.0,70.3 530.4,71.4 534.8,70.3 C539.1,69.1 543.5,64.8 547.9,63.3 C552.3,61.8 556.7,61.9 561.1,61.2 C565.5,60.6 569.8,59.9 574.2,59.3 C578.6,58.6 583.0,57.8 587.4,57.4 C591.8,56.9 596.1,56.9 600.5,56.5 C604.9,56.2 609.3,55.6 613.7,55.3 C618.1,55.0 622.5,55.1 626.8,54.6 C631.2,54.1 637.8,52.6 640.0,52.2" fill="none" class="line-total" stroke-width="2.5" stroke-linecap="round" stroke-linejoin="round"/>

  <circle cx="640" cy="52.214" r="4.5" class="dot-total" stroke-width="2"/>
    <text x="658" y="56.214" class="end-label" font-family="-apple-system, BlinkMacSystemFont, 'Segoe UI', Helvetica, sans-serif">Total</text>
    <text x="697" y="56.214" class="end-value" font-family="-apple-system, BlinkMacSystemFont, 'Segoe UI', Helvetica, sans-serif">2k</text>
    <circle cx="640" cy="66.404" r="3.5" class="dot-openvsx" stroke-width="1.8"/>
    <text x="658" y="74.214" class="end-label" font-family="-apple-system, BlinkMacSystemFont, 'Segoe UI', Helvetica, sans-serif">Open VSX</text>
    <text x="716.8" y="74.214" class="end-value" font-family="-apple-system, BlinkMacSystemFont, 'Segoe UI', Helvetica, sans-serif">1.8k</text>
    <circle cx="640" cy="205.81" r="3.5" class="dot-vscode" stroke-width="1.8"/>
    <text x="658" y="209.81" class="end-label" font-family="-apple-system, BlinkMacSystemFont, 'Segoe UI', Helvetica, sans-serif">VS Code</text>
    <text x="710.2" y="209.81" class="end-value" font-family="-apple-system, BlinkMacSystemFont, 'Segoe UI', Helvetica, sans-serif">165</text>
</svg>