<svg xmlns="http://www.w3.org/2000/svg" viewBox="0 0 760 260" width="760" height="260" role="img" aria-label="Glassy install history">
  <style>
  svg { color-scheme: light dark; }
  .title      { fill: #1a1a2e; font-size: 15px; font-weight: 600; }
  .subtitle   { fill: #6b7280; font-size: 11px; font-weight: 400; }
  .grid       { stroke: #e8e8ee; }
  .axis-label { fill: #8a8a9a; font-size: 10px; }
  .line-total   { stroke: #e8553d; }
  .line-vscode  { stroke: #5b7cfa; }
  .line-openvsx { stroke: #34c7a0; }
  .dot-total   { fill: transparent; stroke: #e8553d; }
  .dot-vscode  { fill: transparent; stroke: #5b7cfa; }
  .dot-openvsx { fill: transparent; stroke: #34c7a0; }
  .end-label       { fill: #1a1a2e; font-size: 11px; font-weight: 600; }
  .end-value       { fill: #6b7280; font-size: 11px; font-weight: 400; }
  .area-total-top    { stop-color: #e8553d; }
  .area-total-bottom { stop-color: #e8553d; }

  @media (prefers-color-scheme: dark) {
    .title      { fill: #e2e2e8; }
    .subtitle   { fill: #8b949e; }
    .grid       { stroke: #2d2d3d; }
    .axis-label { fill: #6e7681; }
    .line-total   { stroke: #ff9b85; }
    .line-vscode  { stroke: #8da4ff; }
    .line-openvsx { stroke: #5eead4; }
    .dot-total   { stroke: #ff9b85; }
    .dot-vscode  { stroke: #8da4ff; }
    .dot-openvsx { stroke: #5eead4; }
    .end-label       { fill: #e2e2e8; }
    .end-value       { fill: #8b949e; }
    .area-total-top    { stop-color: #ff9b85; }
    .area-total-bottom { stop-color: #ff9b85; }
  }
</style>
  <defs>
    <linearGradient id="areaGrad" x1="0" y1="0" x2="0" y2="1">
      <stop offset="0%" class="area-total-top" stop-opacity="0.18"/>
      <stop offset="60%" class="area-total-bottom" stop-opacity="0.04"/>
      <stop offset="100%" class="area-total-bottom" stop-opacity="0"/>
    </linearGradient>
  </defs>

  <text x="48" y="22" class="title" font-family="-apple-system, BlinkMacSystemFont, 'Segoe UI', Helvetica, sans-serif">Installs</text>
  <text x="48" y="37" class="subtitle" font-family="-apple-system, BlinkMacSystemFont, 'Segoe UI', Helvetica, sans-serif">Updated Jul 21</text>

  <line x1="48" y1="220" x2="640" y2="220" class="grid" stroke-width="0.7"/>
    <text x="40" y="223.5" class="axis-label" text-anchor="end" font-family="-apple-system, BlinkMacSystemFont, 'Segoe UI', Helvetica, sans-serif">0</text>
    <line x1="48" y1="162.66666666666669" x2="640" y2="162.66666666666669" class="grid" stroke-width="0.7"/>
    <text x="40" y="166.16666666666669" class="axis-label" text-anchor="end" font-family="-apple-system, BlinkMacSystemFont, 'Segoe UI', Helvetica, sans-serif">1k</text>
    <line x1="48" y1="105.33333333333334" x2="640" y2="105.33333333333334" class="grid" stroke-width="0.7"/>
    <text x="40" y="108.83333333333334" class="axis-label" text-anchor="end" font-family="-apple-system, BlinkMacSystemFont, 'Segoe UI', Helvetica, sans-serif">2k</text>
    <line x1="48" y1="48" x2="640" y2="48" class="grid" stroke-width="0.7"/>
    <text x="40" y="51.5" class="axis-label" text-anchor="end" font-family="-apple-system, BlinkMacSystemFont, 'Segoe UI', Helvetica, sans-serif">3k</text>
  <text x="48" y="248" class="axis-label" text-anchor="middle" font-family="-apple-system, BlinkMacSystemFont, 'Segoe UI', Helvetica, sans-serif">Mar 27</text>
    <text x="163.67816091954023" y="248" class="axis-label" text-anchor="middle" font-family="-apple-system, BlinkMacSystemFont, 'Segoe UI', Helvetica, sans-serif">May 12</text>
    <text x="286.1609195402299" y="248" class="axis-label" text-anchor="middle" font-family="-apple-system, BlinkMacSystemFont, 'Segoe UI', Helvetica, sans-serif">May 30</text>
    <text x="401.8390804597701" y="248" class="axis-label" text-anchor="middle" font-family="-apple-system, BlinkMacSystemFont, 'Segoe UI', Helvetica, sans-serif">Jun 16</text>
    <text x="524.3218390804598" y="248" class="axis-label" text-anchor="middle" font-family="-apple-system, BlinkMacSystemFont, 'Segoe UI', Helvetica, sans-serif">Jul 4</text>
    <text x="640" y="248" class="axis-label" text-anchor="middle" font-family="-apple-system, BlinkMacSystemFont, 'Segoe UI', Helvetica, sans-serif">Jul 21</text>

  <path d="M48.0,219.8 C49.1,218.4 52.5,213.7 54.8,211.7 C57.1,209.7 59.3,209.1 61.6,207.7 C63.9,206.4 66.1,204.4 68.4,203.7 C70.7,203.0 73.0,205.0 75.2,203.5 C77.5,202.0 79.8,196.6 82.0,194.9 C84.3,193.2 86.6,200.1 88.8,193.2 C91.1,186.2 93.4,160.3 95.6,153.3 C97.9,146.3 100.2,151.7 102.4,151.3 C104.7,150.8 107.0,150.7 109.2,150.5 C111.5,150.3 113.8,150.2 116.0,150.1 C118.3,150.0 120.6,149.9 122.9,149.7 C125.1,149.5 127.4,149.1 129.7,148.7 C131.9,148.2 134.2,147.4 136.5,147.0 C138.7,146.5 141.0,146.3 143.3,146.1 C145.5,145.9 147.8,146.0 150.1,145.6 C152.3,145.2 154.6,144.1 156.9,143.6 C159.1,143.1 161.4,142.9 163.7,142.6 C165.9,142.3 168.2,142.0 170.5,141.7 C172.8,141.4 175.0,141.4 177.3,140.8 C179.6,140.2 181.8,138.7 184.1,138.0 C186.4,137.4 188.6,137.2 190.9,136.9 C193.2,136.6 195.4,136.4 197.7,136.2 C200.0,136.1 202.2,136.5 204.5,136.1 C206.8,135.7 209.0,134.4 211.3,133.8 C213.6,133.2 215.8,133.0 218.1,132.5 C220.4,132.1 222.7,131.8 224.9,131.1 C227.2,130.4 229.5,129.0 231.7,128.3 C234.0,127.6 236.3,127.3 238.5,126.9 C240.8,126.5 243.1,126.3 245.3,126.0 C247.6,125.8 249.9,125.8 252.1,125.3 C254.4,124.9 256.7,124.0 258.9,123.6 C261.2,123.1 263.5,122.8 265.7,122.5 C268.0,122.2 270.3,122.0 272.6,121.7 C274.8,121.5 277.1,121.3 279.4,121.1 C281.6,120.9 283.9,120.6 286.2,120.4 C288.4,120.3 290.7,120.3 293.0,120.2 C295.2,120.2 297.5,121.0 299.8,120.2 C302.0,119.4 304.3,116.5 306.6,115.5 C308.8,114.5 311.1,114.6 313.4,114.2 C315.6,113.7 317.9,113.3 320.2,112.8 C322.5,112.4 324.7,111.9 327.0,111.6 C329.3,111.3 331.5,111.2 333.8,111.0 C336.1,110.8 338.3,110.4 340.6,110.2 C342.9,110.0 345.1,110.1 347.4,109.7 C349.7,109.4 351.9,108.6 354.2,108.1 C356.5,107.7 358.7,107.6 361.0,107.2 C363.3,106.9 365.5,106.4 367.8,106.2 C370.1,105.9 372.4,106.0 374.6,105.7 C376.9,105.5 379.2,104.8 381.4,104.5 C383.7,104.2 386.0,104.2 388.2,104.0 C390.5,103.7 392.8,103.5 395.0,103.2 C397.3,102.9 399.6,102.5 401.8,102.2 C404.1,101.9 406.4,101.5 408.6,101.2 C410.9,100.9 413.2,100.8 415.4,100.3 C417.7,99.9 420.0,99.2 422.3,98.7 C424.5,98.3 426.8,98.1 429.1,97.7 C431.3,97.4 433.6,97.0 435.9,96.6 C438.1,96.3 440.4,95.9 442.7,95.5 C444.9,95.2 447.2,94.8 449.5,94.6 C451.7,94.3 454.0,94.2 456.3,93.8 C458.5,93.4 460.8,92.9 463.1,92.4 C465.3,91.9 467.6,91.2 469.9,90.8 C472.2,90.5 474.4,90.5 476.7,90.3 C479.0,90.1 481.2,90.0 483.5,89.8 C485.8,89.6 488.0,89.3 490.3,88.9 C492.6,88.6 494.8,88.2 497.1,87.9 C499.4,87.6 501.6,87.3 503.9,86.9 C506.2,86.6 508.4,86.2 510.7,85.8 C513.0,85.5 515.2,85.3 517.5,85.0 C519.8,84.6 522.1,84.0 524.3,83.7 C526.6,83.3 528.9,83.0 531.1,82.8 C533.4,82.6 535.7,82.6 537.9,82.4 C540.2,82.2 542.5,81.9 544.7,81.8 C547.0,81.6 549.3,81.6 551.5,81.4 C553.8,81.2 556.1,80.9 558.3,80.6 C560.6,80.4 562.9,80.0 565.1,79.8 C567.4,79.5 569.7,79.3 572.0,79.1 C574.2,78.9 576.5,78.8 578.8,78.5 C581.0,78.2 583.3,77.5 585.6,77.2 C587.8,76.9 590.1,76.8 592.4,76.6 C594.6,76.3 596.9,76.1 599.2,75.6 C601.4,75.1 603.7,74.5 606.0,73.7 C608.2,72.9 610.5,71.5 612.8,70.9 C615.0,70.3 617.3,70.4 619.6,70.1 C621.9,69.9 624.1,69.7 626.4,69.5 C628.7,69.3 630.9,69.0 633.2,68.9 C635.5,68.7 638.9,68.6 640.0,68.6 L640.0,220.0 L48.0,220.0 Z" fill="url(#areaGrad)"/>
  <path d="M48.0,219.8 C49.1,218.5 52.5,213.8 54.8,211.9 C57.1,210.0 59.3,209.5 61.6,208.4 C63.9,207.3 66.1,205.6 68.4,205.1 C70.7,204.5 73.0,206.5 75.2,205.1 C77.5,203.7 79.8,198.4 82.0,196.8 C84.3,195.2 86.6,201.7 88.8,195.5 C91.1,189.2 93.4,165.5 95.6,159.1 C97.9,152.7 100.2,157.7 102.4,157.3 C104.7,156.9 107.0,156.8 109.2,156.7 C111.5,156.6 113.8,156.6 116.0,156.5 C118.3,156.4 120.6,156.4 122.9,156.1 C125.1,155.9 127.4,155.6 129.7,155.1 C131.9,154.6 134.2,153.7 136.5,153.4 C138.7,153.0 141.0,153.1 143.3,152.9 C145.5,152.8 147.8,153.0 150.1,152.6 C152.3,152.2 154.6,151.1 156.9,150.6 C159.1,150.1 161.4,150.0 163.7,149.7 C165.9,149.4 168.2,149.2 170.5,148.9 C172.8,148.6 175.0,148.6 177.3,148.0 C179.6,147.4 181.8,145.9 184.1,145.2 C186.4,144.6 188.6,144.5 190.9,144.2 C193.2,143.9 195.4,143.7 197.7,143.5 C200.0,143.4 202.2,143.8 204.5,143.4 C206.8,143.0 209.0,141.8 211.3,141.2 C213.6,140.7 215.8,140.5 218.1,140.1 C220.4,139.7 222.7,139.6 224.9,138.9 C227.2,138.3 229.5,136.9 231.7,136.3 C234.0,135.6 236.3,135.4 238.5,135.0 C240.8,134.7 243.1,134.5 245.3,134.2 C247.6,134.0 249.9,134.0 252.1,133.7 C254.4,133.3 256.7,132.5 258.9,132.1 C261.2,131.6 263.5,131.4 265.7,131.1 C268.0,130.9 270.3,130.6 272.6,130.4 C274.8,130.3 277.1,130.2 279.4,130.0 C281.6,129.8 283.9,129.5 286.2,129.4 C288.4,129.3 290.7,129.4 293.0,129.4 C295.2,129.4 297.5,130.2 299.8,129.4 C302.0,128.7 304.3,125.9 306.6,124.9 C308.8,124.0 311.1,124.0 313.4,123.6 C315.6,123.1 317.9,122.7 320.2,122.3 C322.5,121.9 324.7,121.3 327.0,121.0 C329.3,120.7 331.5,120.7 333.8,120.5 C336.1,120.2 338.3,119.9 340.6,119.7 C342.9,119.5 345.1,119.6 347.4,119.2 C349.7,118.9 351.9,118.0 354.2,117.6 C356.5,117.2 358.7,117.0 361.0,116.7 C363.3,116.4 365.5,115.9 367.8,115.7 C370.1,115.4 372.4,115.5 374.6,115.2 C376.9,114.9 379.2,114.3 381.4,114.0 C383.7,113.8 386.0,113.8 388.2,113.6 C390.5,113.4 392.8,113.2 395.0,112.9 C397.3,112.6 399.6,112.3 401.8,112.0 C404.1,111.7 406.4,111.4 408.6,111.1 C410.9,110.8 413.2,110.6 415.4,110.3 C417.7,109.9 420.0,109.2 422.3,108.8 C424.5,108.4 426.8,108.2 429.1,107.9 C431.3,107.5 433.6,107.2 435.9,106.8 C438.1,106.5 440.4,106.1 442.7,105.8 C444.9,105.5 447.2,105.1 449.5,104.9 C451.7,104.6 454.0,104.5 456.3,104.2 C458.5,103.8 460.8,103.3 463.1,102.8 C465.3,102.3 467.6,101.6 469.9,101.3 C472.2,101.0 474.4,101.0 476.7,100.9 C479.0,100.7 481.2,100.6 483.5,100.4 C485.8,100.2 488.0,99.9 490.3,99.6 C492.6,99.3 494.8,99.0 497.1,98.7 C499.4,98.4 501.6,98.1 503.9,97.8 C506.2,97.4 508.4,97.0 510.7,96.7 C513.0,96.4 515.2,96.2 517.5,95.9 C519.8,95.6 522.1,95.3 524.3,95.0 C526.6,94.7 528.9,94.4 531.1,94.2 C533.4,94.0 535.7,94.0 537.9,93.9 C540.2,93.7 542.5,93.4 544.7,93.3 C547.0,93.1 549.3,93.1 551.5,92.9 C553.8,92.8 556.1,92.5 558.3,92.3 C560.6,92.0 562.9,91.7 565.1,91.5 C567.4,91.2 569.7,91.0 572.0,90.8 C574.2,90.6 576.5,90.6 578.8,90.3 C581.0,90.0 583.3,89.4 585.6,89.1 C587.8,88.7 590.1,88.7 592.4,88.5 C594.6,88.2 596.9,88.0 599.2,87.6 C601.4,87.1 603.7,86.5 606.0,85.7 C608.2,85.0 610.5,83.5 612.8,83.0 C615.0,82.4 617.3,82.5 619.6,82.3 C621.9,82.1 624.1,81.9 626.4,81.7 C628.7,81.5 630.9,81.3 633.2,81.1 C635.5,81.0 638.9,80.9 640.0,80.9" fill="none" class="line-openvsx" stroke-width="1.8" stroke-linecap="round" stroke-linejoin="round"/>
  <path d="M48.0,219.9 C49.1,219.9 52.5,219.9 54.8,219.8 C57.1,219.7 59.3,219.5 61.6,219.3 C63.9,219.1 66.1,218.8 68.4,218.6 C70.7,218.5 73.0,218.5 75.2,218.4 C77.5,218.3 79.8,218.2 82.0,218.1 C84.3,217.9 86.6,218.3 88.8,217.7 C91.1,217.1 93.4,214.8 95.6,214.2 C97.9,213.6 100.2,214.0 102.4,214.0 C104.7,213.9 107.0,213.9 109.2,213.8 C111.5,213.8 113.8,213.7 116.0,213.6 C118.3,213.6 120.6,213.6 122.9,213.6 C125.1,213.6 127.4,213.6 129.7,213.6 C131.9,213.6 134.2,213.6 136.5,213.6 C138.7,213.5 141.0,213.3 143.3,213.2 C145.5,213.1 147.8,213.1 150.1,213.1 C152.3,213.0 154.6,213.0 156.9,213.0 C159.1,213.0 161.4,212.9 163.7,212.9 C165.9,212.9 168.2,212.8 170.5,212.8 C172.8,212.8 175.0,212.8 177.3,212.8 C179.6,212.8 181.8,212.8 184.1,212.8 C186.4,212.8 188.6,212.7 190.9,212.7 C193.2,212.7 195.4,212.7 197.7,212.7 C200.0,212.7 202.2,212.7 204.5,212.7 C206.8,212.6 209.0,212.6 211.3,212.5 C213.6,212.5 215.8,212.5 218.1,212.4 C220.4,212.4 222.7,212.2 224.9,212.1 C227.2,212.1 229.5,212.0 231.7,212.0 C234.0,211.9 236.3,211.9 238.5,211.9 C240.8,211.8 243.1,211.8 245.3,211.8 C247.6,211.8 249.9,211.7 252.1,211.7 C254.4,211.6 256.7,211.6 258.9,211.5 C261.2,211.5 263.5,211.4 265.7,211.4 C268.0,211.4 270.3,211.3 272.6,211.3 C274.8,211.2 277.1,211.2 279.4,211.1 C281.6,211.1 283.9,211.0 286.2,211.0 C288.4,211.0 290.7,210.9 293.0,210.8 C295.2,210.8 297.5,210.8 299.8,210.8 C302.0,210.7 304.3,210.6 306.6,210.6 C308.8,210.6 311.1,210.6 313.4,210.6 C315.6,210.6 317.9,210.5 320.2,210.5 C322.5,210.5 324.7,210.5 327.0,210.5 C329.3,210.5 331.5,210.5 333.8,210.5 C336.1,210.5 338.3,210.5 340.6,210.5 C342.9,210.5 345.1,210.5 347.4,210.5 C349.7,210.5 351.9,210.5 354.2,210.5 C356.5,210.5 358.7,210.5 361.0,210.5 C363.3,210.5 365.5,210.5 367.8,210.5 C370.1,210.5 372.4,210.5 374.6,210.5 C376.9,210.5 379.2,210.5 381.4,210.5 C383.7,210.5 386.0,210.4 388.2,210.4 C390.5,210.3 392.8,210.3 395.0,210.3 C397.3,210.2 399.6,210.2 401.8,210.2 C404.1,210.2 406.4,210.2 408.6,210.1 C410.9,210.1 413.2,210.1 415.4,210.1 C417.7,210.1 420.0,210.0 422.3,210.0 C424.5,209.9 426.8,209.9 429.1,209.9 C431.3,209.8 433.6,209.8 435.9,209.8 C438.1,209.8 440.4,209.8 442.7,209.7 C444.9,209.7 447.2,209.7 449.5,209.7 C451.7,209.7 454.0,209.6 456.3,209.6 C458.5,209.6 460.8,209.6 463.1,209.6 C465.3,209.5 467.6,209.5 469.9,209.5 C472.2,209.5 474.4,209.5 476.7,209.5 C479.0,209.4 481.2,209.4 483.5,209.4 C485.8,209.4 488.0,209.4 490.3,209.3 C492.6,209.3 494.8,209.3 497.1,209.2 C499.4,209.2 501.6,209.2 503.9,209.2 C506.2,209.1 508.4,209.1 510.7,209.1 C513.0,209.1 515.2,209.1 517.5,209.0 C519.8,209.0 522.1,208.7 524.3,208.6 C526.6,208.6 528.9,208.6 531.1,208.6 C533.4,208.6 535.7,208.6 537.9,208.5 C540.2,208.5 542.5,208.5 544.7,208.5 C547.0,208.5 549.3,208.4 551.5,208.4 C553.8,208.4 556.1,208.4 558.3,208.4 C560.6,208.3 562.9,208.3 565.1,208.3 C567.4,208.3 569.7,208.3 572.0,208.3 C574.2,208.3 576.5,208.2 578.8,208.2 C581.0,208.2 583.3,208.2 585.6,208.1 C587.8,208.1 590.1,208.1 592.4,208.1 C594.6,208.1 596.9,208.0 599.2,208.0 C601.4,208.0 603.7,208.0 606.0,208.0 C608.2,207.9 610.5,207.9 612.8,207.9 C615.0,207.9 617.3,207.9 619.6,207.8 C621.9,207.8 624.1,207.8 626.4,207.8 C628.7,207.8 630.9,207.7 633.2,207.7 C635.5,207.7 638.9,207.7 640.0,207.7" fill="none" class="line-vscode" stroke-width="1.8" stroke-linecap="round" stroke-linejoin="round"/>
  <path d="M48.0,219.8 C49.1,218.4 52.5,213.7 54.8,211.7 C57.1,209.7 59.3,209.1 61.6,207.7 C63.9,206.4 66.1,204.4 68.4,203.7 C70.7,203.0 73.0,205.0 75.2,203.5 C77.5,202.0 79.8,196.6 82.0,194.9 C84.3,193.2 86.6,200.1 88.8,193.2 C91.1,186.2 93.4,160.3 95.6,153.3 C97.9,146.3 100.2,151.7 102.4,151.3 C104.7,150.8 107.0,150.7 109.2,150.5 C111.5,150.3 113.8,150.2 116.0,150.1 C118.3,150.0 120.6,149.9 122.9,149.7 C125.1,149.5 127.4,149.1 129.7,148.7 C131.9,148.2 134.2,147.4 136.5,147.0 C138.7,146.5 141.0,146.3 143.3,146.1 C145.5,145.9 147.8,146.0 150.1,145.6 C152.3,145.2 154.6,144.1 156.9,143.6 C159.1,143.1 161.4,142.9 163.7,142.6 C165.9,142.3 168.2,142.0 170.5,141.7 C172.8,141.4 175.0,141.4 177.3,140.8 C179.6,140.2 181.8,138.7 184.1,138.0 C186.4,137.4 188.6,137.2 190.9,136.9 C193.2,136.6 195.4,136.4 197.7,136.2 C200.0,136.1 202.2,136.5 204.5,136.1 C206.8,135.7 209.0,134.4 211.3,133.8 C213.6,133.2 215.8,133.0 218.1,132.5 C220.4,132.1 222.7,131.8 224.9,131.1 C227.2,130.4 229.5,129.0 231.7,128.3 C234.0,127.6 236.3,127.3 238.5,126.9 C240.8,126.5 243.1,126.3 245.3,126.0 C247.6,125.8 249.9,125.8 252.1,125.3 C254.4,124.9 256.7,124.0 258.9,123.6 C261.2,123.1 263.5,122.8 265.7,122.5 C268.0,122.2 270.3,122.0 272.6,121.7 C274.8,121.5 277.1,121.3 279.4,121.1 C281.6,120.9 283.9,120.6 286.2,120.4 C288.4,120.3 290.7,120.3 293.0,120.2 C295.2,120.2 297.5,121.0 299.8,120.2 C302.0,119.4 304.3,116.5 306.6,115.5 C308.8,114.5 311.1,114.6 313.4,114.2 C315.6,113.7 317.9,113.3 320.2,112.8 C322.5,112.4 324.7,111.9 327.0,111.6 C329.3,111.3 331.5,111.2 333.8,111.0 C336.1,110.8 338.3,110.4 340.6,110.2 C342.9,110.0 345.1,110.1 347.4,109.7 C349.7,109.4 351.9,108.6 354.2,108.1 C356.5,107.7 358.7,107.6 361.0,107.2 C363.3,106.9 365.5,106.4 367.8,106.2 C370.1,105.9 372.4,106.0 374.6,105.7 C376.9,105.5 379.2,104.8 381.4,104.5 C383.7,104.2 386.0,104.2 388.2,104.0 C390.5,103.7 392.8,103.5 395.0,103.2 C397.3,102.9 399.6,102.5 401.8,102.2 C404.1,101.9 406.4,101.5 408.6,101.2 C410.9,100.9 413.2,100.8 415.4,100.3 C417.7,99.9 420.0,99.2 422.3,98.7 C424.5,98.3 426.8,98.1 429.1,97.7 C431.3,97.4 433.6,97.0 435.9,96.6 C438.1,96.3 440.4,95.9 442.7,95.5 C444.9,95.2 447.2,94.8 449.5,94.6 C451.7,94.3 454.0,94.2 456.3,93.8 C458.5,93.4 460.8,92.9 463.1,92.4 C465.3,91.9 467.6,91.2 469.9,90.8 C472.2,90.5 474.4,90.5 476.7,90.3 C479.0,90.1 481.2,90.0 483.5,89.8 C485.8,89.6 488.0,89.3 490.3,88.9 C492.6,88.6 494.8,88.2 497.1,87.9 C499.4,87.6 501.6,87.3 503.9,86.9 C506.2,86.6 508.4,86.2 510.7,85.8 C513.0,85.5 515.2,85.3 517.5,85.0 C519.8,84.6 522.1,84.0 524.3,83.7 C526.6,83.3 528.9,83.0 531.1,82.8 C533.4,82.6 535.7,82.6 537.9,82.4 C540.2,82.2 542.5,81.9 544.7,81.8 C547.0,81.6 549.3,81.6 551.5,81.4 C553.8,81.2 556.1,80.9 558.3,80.6 C560.6,80.4 562.9,80.0 565.1,79.8 C567.4,79.5 569.7,79.3 572.0,79.1 C574.2,78.9 576.5,78.8 578.8,78.5 C581.0,78.2 583.3,77.5 585.6,77.2 C587.8,76.9 590.1,76.8 592.4,76.6 C594.6,76.3 596.9,76.1 599.2,75.6 C601.4,75.1 603.7,74.5 606.0,73.7 C608.2,72.9 610.5,71.5 612.8,70.9 C615.0,70.3 617.3,70.4 619.6,70.1 C621.9,69.9 624.1,69.7 626.4,69.5 C628.7,69.3 630.9,69.0 633.2,68.9 C635.5,68.7 638.9,68.6 640.0,68.6" fill="none" class="line-total" stroke-width="2.5" stroke-linecap="round" stroke-linejoin="round"/>

  <circle cx="640" cy="68.58266666666668" r="4.5" class="dot-total" stroke-width="2"/>
    <text x="658" y="72.58266666666668" class="end-label" font-family="-apple-system, BlinkMacSystemFont, 'Segoe UI', Helvetica, sans-serif">Total</text>
    <text x="697" y="72.58266666666668" class="end-value" font-family="-apple-system, BlinkMacSystemFont, 'Segoe UI', Helvetica, sans-serif">2.6k</text>
    <circle cx="640" cy="80.90933333333334" r="3.5" class="dot-openvsx" stroke-width="1.8"/>
    <text x="658" y="90.58266666666668" class="end-label" font-family="-apple-system, BlinkMacSystemFont, 'Segoe UI', Helvetica, sans-serif">Open VSX</text>
    <text x="716.8" y="90.58266666666668" class="end-value" font-family="-apple-system, BlinkMacSystemFont, 'Segoe UI', Helvetica, sans-serif">2.4k</text>
    <circle cx="640" cy="207.67333333333335" r="3.5" class="dot-vscode" stroke-width="1.8"/>
    <text x="658" y="211.67333333333335" class="end-label" font-family="-apple-system, BlinkMacSystemFont, 'Segoe UI', Helvetica, sans-serif">VS Code</text>
    <text x="710.2" y="211.67333333333335" class="end-value" font-family="-apple-system, BlinkMacSystemFont, 'Segoe UI', Helvetica, sans-serif">215</text>
</svg>