<svg xmlns="http://www.w3.org/2000/svg" viewBox="0 0 760 260" width="760" height="260" role="img" aria-label="Glassy install history">
  <style>
  svg { color-scheme: light dark; }
  .title      { fill: #1a1a2e; font-size: 15px; font-weight: 600; }
  .subtitle   { fill: #6b7280; font-size: 11px; font-weight: 400; }
  .grid       { stroke: #e8e8ee; }
  .axis-label { fill: #8a8a9a; font-size: 10px; }
  .line-total   { stroke: #e8553d; }
  .line-vscode  { stroke: #5b7cfa; }
  .line-openvsx { stroke: #34c7a0; }
  .dot-total   { fill: transparent; stroke: #e8553d; }
  .dot-vscode  { fill: transparent; stroke: #5b7cfa; }
  .dot-openvsx { fill: transparent; stroke: #34c7a0; }
  .end-label       { fill: #1a1a2e; font-size: 11px; font-weight: 600; }
  .end-value       { fill: #6b7280; font-size: 11px; font-weight: 400; }
  .area-total-top    { stop-color: #e8553d; }
  .area-total-bottom { stop-color: #e8553d; }

  @media (prefers-color-scheme: dark) {
    .title      { fill: #e2e2e8; }
    .subtitle   { fill: #8b949e; }
    .grid       { stroke: #2d2d3d; }
    .axis-label { fill: #6e7681; }
    .line-total   { stroke: #ff9b85; }
    .line-vscode  { stroke: #8da4ff; }
    .line-openvsx { stroke: #5eead4; }
    .dot-total   { stroke: #ff9b85; }
    .dot-vscode  { stroke: #8da4ff; }
    .dot-openvsx { stroke: #5eead4; }
    .end-label       { fill: #e2e2e8; }
    .end-value       { fill: #8b949e; }
    .area-total-top    { stop-color: #ff9b85; }
    .area-total-bottom { stop-color: #ff9b85; }
  }
</style>
  <defs>
    <linearGradient id="areaGrad" x1="0" y1="0" x2="0" y2="1">
      <stop offset="0%" class="area-total-top" stop-opacity="0.18"/>
      <stop offset="60%" class="area-total-bottom" stop-opacity="0.04"/>
      <stop offset="100%" class="area-total-bottom" stop-opacity="0"/>
    </linearGradient>
  </defs>

  <text x="48" y="22" class="title" font-family="-apple-system, BlinkMacSystemFont, 'Segoe UI', Helvetica, sans-serif">Installs</text>
  <text x="48" y="37" class="subtitle" font-family="-apple-system, BlinkMacSystemFont, 'Segoe UI', Helvetica, sans-serif">Updated May 27</text>

  <line x1="48" y1="220" x2="640" y2="220" class="grid" stroke-width="0.7"/>
    <text x="40" y="223.5" class="axis-label" text-anchor="end" font-family="-apple-system, BlinkMacSystemFont, 'Segoe UI', Helvetica, sans-serif">0</text>
    <line x1="48" y1="177" x2="640" y2="177" class="grid" stroke-width="0.7"/>
    <text x="40" y="180.5" class="axis-label" text-anchor="end" font-family="-apple-system, BlinkMacSystemFont, 'Segoe UI', Helvetica, sans-serif">500</text>
    <line x1="48" y1="134" x2="640" y2="134" class="grid" stroke-width="0.7"/>
    <text x="40" y="137.5" class="axis-label" text-anchor="end" font-family="-apple-system, BlinkMacSystemFont, 'Segoe UI', Helvetica, sans-serif">1k</text>
    <line x1="48" y1="91" x2="640" y2="91" class="grid" stroke-width="0.7"/>
    <text x="40" y="94.5" class="axis-label" text-anchor="end" font-family="-apple-system, BlinkMacSystemFont, 'Segoe UI', Helvetica, sans-serif">1.5k</text>
    <line x1="48" y1="48" x2="640" y2="48" class="grid" stroke-width="0.7"/>
    <text x="40" y="51.5" class="axis-label" text-anchor="end" font-family="-apple-system, BlinkMacSystemFont, 'Segoe UI', Helvetica, sans-serif">2k</text>
  <text x="48" y="248" class="axis-label" text-anchor="middle" font-family="-apple-system, BlinkMacSystemFont, 'Segoe UI', Helvetica, sans-serif">Mar 27</text>
    <text x="159" y="248" class="axis-label" text-anchor="middle" font-family="-apple-system, BlinkMacSystemFont, 'Segoe UI', Helvetica, sans-serif">Apr 2</text>
    <text x="288.5" y="248" class="axis-label" text-anchor="middle" font-family="-apple-system, BlinkMacSystemFont, 'Segoe UI', Helvetica, sans-serif">May 8</text>
    <text x="399.5" y="248" class="axis-label" text-anchor="middle" font-family="-apple-system, BlinkMacSystemFont, 'Segoe UI', Helvetica, sans-serif">May 14</text>
    <text x="529" y="248" class="axis-label" text-anchor="middle" font-family="-apple-system, BlinkMacSystemFont, 'Segoe UI', Helvetica, sans-serif">May 21</text>
    <text x="640" y="248" class="axis-label" text-anchor="middle" font-family="-apple-system, BlinkMacSystemFont, 'Segoe UI', Helvetica, sans-serif">May 27</text>

  <path d="M48.0,219.7 C51.1,217.6 60.3,210.5 66.5,207.5 C72.7,204.5 78.8,203.6 85.0,201.6 C91.2,199.6 97.3,196.6 103.5,195.6 C109.7,194.5 115.8,197.4 122.0,195.2 C128.2,193.0 134.3,184.9 140.5,182.3 C146.7,179.8 152.8,190.1 159.0,179.8 C165.2,169.4 171.3,130.5 177.5,120.0 C183.7,109.5 189.8,117.6 196.0,116.9 C202.2,116.2 208.3,116.1 214.5,115.8 C220.7,115.5 226.8,115.4 233.0,115.2 C239.2,115.0 245.3,114.9 251.5,114.6 C257.7,114.2 263.8,113.7 270.0,113.0 C276.2,112.3 282.3,111.1 288.5,110.4 C294.7,109.8 300.8,109.5 307.0,109.1 C313.2,108.8 319.3,109.1 325.5,108.5 C331.7,107.8 337.8,106.2 344.0,105.4 C350.2,104.7 356.3,104.4 362.5,103.9 C368.7,103.4 374.8,103.1 381.0,102.6 C387.2,102.2 393.3,102.2 399.5,101.2 C405.7,100.3 411.8,98.0 418.0,97.0 C424.2,96.0 430.3,95.8 436.5,95.4 C442.7,94.9 448.8,94.6 455.0,94.4 C461.2,94.1 467.3,94.7 473.5,94.1 C479.7,93.5 485.8,91.5 492.0,90.7 C498.2,89.8 504.3,89.4 510.5,88.8 C516.7,88.1 522.8,87.7 529.0,86.6 C535.2,85.6 541.3,83.4 547.5,82.4 C553.7,81.4 559.8,80.9 566.0,80.3 C572.2,79.8 578.3,79.4 584.5,79.0 C590.7,78.7 596.8,78.6 603.0,78.0 C609.2,77.4 615.3,76.1 621.5,75.3 C627.7,74.6 636.9,74.1 640.0,73.8 L640.0,220.0 L48.0,220.0 Z" fill="url(#areaGrad)"/>
  <path d="M48.0,219.7 C51.1,217.7 60.3,210.6 66.5,207.8 C72.7,204.9 78.8,204.3 85.0,202.6 C91.2,200.9 97.3,198.5 103.5,197.6 C109.7,196.8 115.8,199.7 122.0,197.6 C128.2,195.6 134.3,187.7 140.5,185.3 C146.7,182.8 152.8,192.6 159.0,183.2 C165.2,173.8 171.3,138.2 177.5,128.7 C183.7,119.1 189.8,126.5 196.0,125.9 C202.2,125.3 208.3,125.3 214.5,125.1 C220.7,124.9 226.8,124.9 233.0,124.7 C239.2,124.6 245.3,124.5 251.5,124.2 C257.7,123.9 263.8,123.3 270.0,122.6 C276.2,122.0 282.3,120.6 288.5,120.1 C294.7,119.5 300.8,119.6 307.0,119.4 C313.2,119.2 319.3,119.4 325.5,118.9 C331.7,118.3 337.8,116.7 344.0,115.9 C350.2,115.2 356.3,115.0 362.5,114.6 C368.7,114.1 374.8,113.8 381.0,113.4 C387.2,112.9 393.3,112.9 399.5,112.0 C405.7,111.1 411.8,108.8 418.0,107.9 C424.2,106.9 430.3,106.7 436.5,106.3 C442.7,105.9 448.8,105.5 455.0,105.3 C461.2,105.1 467.3,105.7 473.5,105.1 C479.7,104.5 485.8,102.7 492.0,101.8 C498.2,101.0 504.3,100.7 510.5,100.1 C516.7,99.5 522.8,99.3 529.0,98.4 C535.2,97.5 541.3,95.4 547.5,94.4 C553.7,93.5 559.8,93.1 566.0,92.5 C572.2,92.0 578.3,91.7 584.5,91.3 C590.7,91.0 596.8,91.0 603.0,90.5 C609.2,89.9 615.3,88.7 621.5,88.1 C627.7,87.4 636.9,86.9 640.0,86.7" fill="none" class="line-openvsx" stroke-width="1.8" stroke-linecap="round" stroke-linejoin="round"/>
  <path d="M48.0,219.9 C51.1,219.9 60.3,219.9 66.5,219.7 C72.7,219.6 78.8,219.3 85.0,219.0 C91.2,218.7 97.3,218.2 103.5,217.9 C109.7,217.7 115.8,217.7 122.0,217.6 C128.2,217.4 134.3,217.2 140.5,217.1 C146.7,216.9 152.8,217.5 159.0,216.6 C165.2,215.6 171.3,212.2 177.5,211.3 C183.7,210.4 189.8,211.1 196.0,211.0 C202.2,210.9 208.3,210.8 214.5,210.7 C220.7,210.6 226.8,210.5 233.0,210.5 C239.2,210.4 245.3,210.4 251.5,210.4 C257.7,210.4 263.8,210.4 270.0,210.4 C276.2,210.4 282.3,210.5 288.5,210.4 C294.7,210.3 300.8,209.9 307.0,209.8 C313.2,209.6 319.3,209.6 325.5,209.6 C331.7,209.6 337.8,209.6 344.0,209.5 C350.2,209.5 356.3,209.4 362.5,209.3 C368.7,209.3 374.8,209.3 381.0,209.3 C387.2,209.2 393.3,209.3 399.5,209.3 C405.7,209.2 411.8,209.2 418.0,209.2 C424.2,209.1 430.3,209.1 436.5,209.1 C442.7,209.1 448.8,209.1 455.0,209.1 C461.2,209.1 467.3,209.0 473.5,209.0 C479.7,208.9 485.8,208.9 492.0,208.8 C498.2,208.8 504.3,208.7 510.5,208.6 C516.7,208.5 522.8,208.3 529.0,208.2 C535.2,208.1 541.3,208.0 547.5,208.0 C553.7,207.9 559.8,207.8 566.0,207.8 C572.2,207.7 578.3,207.7 584.5,207.7 C590.7,207.7 596.8,207.6 603.0,207.5 C609.2,207.5 615.3,207.3 621.5,207.3 C627.7,207.2 636.9,207.1 640.0,207.1" fill="none" class="line-vscode" stroke-width="1.8" stroke-linecap="round" stroke-linejoin="round"/>
  <path d="M48.0,219.7 C51.1,217.6 60.3,210.5 66.5,207.5 C72.7,204.5 78.8,203.6 85.0,201.6 C91.2,199.6 97.3,196.6 103.5,195.6 C109.7,194.5 115.8,197.4 122.0,195.2 C128.2,193.0 134.3,184.9 140.5,182.3 C146.7,179.8 152.8,190.1 159.0,179.8 C165.2,169.4 171.3,130.5 177.5,120.0 C183.7,109.5 189.8,117.6 196.0,116.9 C202.2,116.2 208.3,116.1 214.5,115.8 C220.7,115.5 226.8,115.4 233.0,115.2 C239.2,115.0 245.3,114.9 251.5,114.6 C257.7,114.2 263.8,113.7 270.0,113.0 C276.2,112.3 282.3,111.1 288.5,110.4 C294.7,109.8 300.8,109.5 307.0,109.1 C313.2,108.8 319.3,109.1 325.5,108.5 C331.7,107.8 337.8,106.2 344.0,105.4 C350.2,104.7 356.3,104.4 362.5,103.9 C368.7,103.4 374.8,103.1 381.0,102.6 C387.2,102.2 393.3,102.2 399.5,101.2 C405.7,100.3 411.8,98.0 418.0,97.0 C424.2,96.0 430.3,95.8 436.5,95.4 C442.7,94.9 448.8,94.6 455.0,94.4 C461.2,94.1 467.3,94.7 473.5,94.1 C479.7,93.5 485.8,91.5 492.0,90.7 C498.2,89.8 504.3,89.4 510.5,88.8 C516.7,88.1 522.8,87.7 529.0,86.6 C535.2,85.6 541.3,83.4 547.5,82.4 C553.7,81.4 559.8,80.9 566.0,80.3 C572.2,79.8 578.3,79.4 584.5,79.0 C590.7,78.7 596.8,78.6 603.0,78.0 C609.2,77.4 615.3,76.1 621.5,75.3 C627.7,74.6 636.9,74.1 640.0,73.8" fill="none" class="line-total" stroke-width="2.5" stroke-linecap="round" stroke-linejoin="round"/>

  <circle cx="640" cy="73.80000000000001" r="4.5" class="dot-total" stroke-width="2"/>
    <text x="658" y="77.80000000000001" class="end-label" font-family="-apple-system, BlinkMacSystemFont, 'Segoe UI', Helvetica, sans-serif">Total</text>
    <text x="697" y="77.80000000000001" class="end-value" font-family="-apple-system, BlinkMacSystemFont, 'Segoe UI', Helvetica, sans-serif">1.7k</text>
    <circle cx="640" cy="86.69999999999999" r="3.5" class="dot-openvsx" stroke-width="1.8"/>
    <text x="658" y="95.80000000000001" class="end-label" font-family="-apple-system, BlinkMacSystemFont, 'Segoe UI', Helvetica, sans-serif">Open VSX</text>
    <text x="716.8" y="95.80000000000001" class="end-value" font-family="-apple-system, BlinkMacSystemFont, 'Segoe UI', Helvetica, sans-serif">1.6k</text>
    <circle cx="640" cy="207.1" r="3.5" class="dot-vscode" stroke-width="1.8"/>
    <text x="658" y="211.1" class="end-label" font-family="-apple-system, BlinkMacSystemFont, 'Segoe UI', Helvetica, sans-serif">VS Code</text>
    <text x="710.2" y="211.1" class="end-value" font-family="-apple-system, BlinkMacSystemFont, 'Segoe UI', Helvetica, sans-serif">150</text>
</svg>