<svg xmlns="http://www.w3.org/2000/svg" viewBox="0 0 760 260" width="760" height="260" role="img" aria-label="Glassy install history">
  <style>
  svg { color-scheme: light dark; }
  .title      { fill: #1a1a2e; font-size: 15px; font-weight: 600; }
  .subtitle   { fill: #6b7280; font-size: 11px; font-weight: 400; }
  .grid       { stroke: #e8e8ee; }
  .axis-label { fill: #8a8a9a; font-size: 10px; }
  .line-total   { stroke: #e8553d; }
  .line-vscode  { stroke: #5b7cfa; }
  .line-openvsx { stroke: #34c7a0; }
  .dot-total   { fill: transparent; stroke: #e8553d; }
  .dot-vscode  { fill: transparent; stroke: #5b7cfa; }
  .dot-openvsx { fill: transparent; stroke: #34c7a0; }
  .end-label       { fill: #1a1a2e; font-size: 11px; font-weight: 600; }
  .end-value       { fill: #6b7280; font-size: 11px; font-weight: 400; }
  .area-total-top    { stop-color: #e8553d; }
  .area-total-bottom { stop-color: #e8553d; }

  @media (prefers-color-scheme: dark) {
    .title      { fill: #e2e2e8; }
    .subtitle   { fill: #8b949e; }
    .grid       { stroke: #2d2d3d; }
    .axis-label { fill: #6e7681; }
    .line-total   { stroke: #ff9b85; }
    .line-vscode  { stroke: #8da4ff; }
    .line-openvsx { stroke: #5eead4; }
    .dot-total   { stroke: #ff9b85; }
    .dot-vscode  { stroke: #8da4ff; }
    .dot-openvsx { stroke: #5eead4; }
    .end-label       { fill: #e2e2e8; }
    .end-value       { fill: #8b949e; }
    .area-total-top    { stop-color: #ff9b85; }
    .area-total-bottom { stop-color: #ff9b85; }
  }
</style>
  <defs>
    <linearGradient id="areaGrad" x1="0" y1="0" x2="0" y2="1">
      <stop offset="0%" class="area-total-top" stop-opacity="0.18"/>
      <stop offset="60%" class="area-total-bottom" stop-opacity="0.04"/>
      <stop offset="100%" class="area-total-bottom" stop-opacity="0"/>
    </linearGradient>
  </defs>

  <text x="48" y="22" class="title" font-family="-apple-system, BlinkMacSystemFont, 'Segoe UI', Helvetica, sans-serif">Installs</text>
  <text x="48" y="37" class="subtitle" font-family="-apple-system, BlinkMacSystemFont, 'Segoe UI', Helvetica, sans-serif">Updated May 22</text>

  <line x1="48" y1="220" x2="640" y2="220" class="grid" stroke-width="0.7"/>
    <text x="40" y="223.5" class="axis-label" text-anchor="end" font-family="-apple-system, BlinkMacSystemFont, 'Segoe UI', Helvetica, sans-serif">0</text>
    <line x1="48" y1="177" x2="640" y2="177" class="grid" stroke-width="0.7"/>
    <text x="40" y="180.5" class="axis-label" text-anchor="end" font-family="-apple-system, BlinkMacSystemFont, 'Segoe UI', Helvetica, sans-serif">500</text>
    <line x1="48" y1="134" x2="640" y2="134" class="grid" stroke-width="0.7"/>
    <text x="40" y="137.5" class="axis-label" text-anchor="end" font-family="-apple-system, BlinkMacSystemFont, 'Segoe UI', Helvetica, sans-serif">1k</text>
    <line x1="48" y1="91" x2="640" y2="91" class="grid" stroke-width="0.7"/>
    <text x="40" y="94.5" class="axis-label" text-anchor="end" font-family="-apple-system, BlinkMacSystemFont, 'Segoe UI', Helvetica, sans-serif">1.5k</text>
    <line x1="48" y1="48" x2="640" y2="48" class="grid" stroke-width="0.7"/>
    <text x="40" y="51.5" class="axis-label" text-anchor="end" font-family="-apple-system, BlinkMacSystemFont, 'Segoe UI', Helvetica, sans-serif">2k</text>
  <text x="48" y="248" class="axis-label" text-anchor="middle" font-family="-apple-system, BlinkMacSystemFont, 'Segoe UI', Helvetica, sans-serif">Mar 27</text>
    <text x="157.62962962962962" y="248" class="axis-label" text-anchor="middle" font-family="-apple-system, BlinkMacSystemFont, 'Segoe UI', Helvetica, sans-serif">Apr 1</text>
    <text x="289.18518518518516" y="248" class="axis-label" text-anchor="middle" font-family="-apple-system, BlinkMacSystemFont, 'Segoe UI', Helvetica, sans-serif">May 6</text>
    <text x="398.8148148148148" y="248" class="axis-label" text-anchor="middle" font-family="-apple-system, BlinkMacSystemFont, 'Segoe UI', Helvetica, sans-serif">May 11</text>
    <text x="530.3703703703703" y="248" class="axis-label" text-anchor="middle" font-family="-apple-system, BlinkMacSystemFont, 'Segoe UI', Helvetica, sans-serif">May 17</text>
    <text x="640" y="248" class="axis-label" text-anchor="middle" font-family="-apple-system, BlinkMacSystemFont, 'Segoe UI', Helvetica, sans-serif">May 22</text>

  <path d="M48.0,219.7 C51.7,217.6 62.6,210.5 69.9,207.5 C77.2,204.5 84.5,203.6 91.9,201.6 C99.2,199.6 106.5,196.6 113.8,195.6 C121.1,194.5 128.4,197.4 135.7,195.2 C143.0,193.0 150.3,184.9 157.6,182.3 C164.9,179.8 172.2,190.1 179.6,179.8 C186.9,169.4 194.2,130.5 201.5,120.0 C208.8,109.5 216.1,117.6 223.4,116.9 C230.7,116.2 238.0,116.1 245.3,115.8 C252.6,115.5 260.0,115.4 267.3,115.2 C274.6,115.0 281.9,114.9 289.2,114.6 C296.5,114.2 303.8,113.7 311.1,113.0 C318.4,112.3 325.7,111.1 333.0,110.4 C340.3,109.8 347.7,109.5 355.0,109.1 C362.3,108.8 369.6,109.1 376.9,108.5 C384.2,107.8 391.5,106.2 398.8,105.4 C406.1,104.7 413.4,104.4 420.7,103.9 C428.0,103.4 435.4,103.1 442.7,102.6 C450.0,102.2 457.3,102.2 464.6,101.2 C471.9,100.3 479.2,98.0 486.5,97.0 C493.8,96.0 501.1,95.8 508.4,95.4 C515.8,94.9 523.1,94.6 530.4,94.4 C537.7,94.1 545.0,94.7 552.3,94.1 C559.6,93.5 566.9,91.5 574.2,90.7 C581.5,89.8 588.8,89.4 596.1,88.8 C603.5,88.1 610.8,87.7 618.1,86.6 C625.4,85.6 636.3,83.1 640.0,82.4 L640.0,220.0 L48.0,220.0 Z" fill="url(#areaGrad)"/>
  <path d="M48.0,219.7 C51.7,217.7 62.6,210.6 69.9,207.8 C77.2,204.9 84.5,204.3 91.9,202.6 C99.2,200.9 106.5,198.5 113.8,197.6 C121.1,196.8 128.4,199.7 135.7,197.6 C143.0,195.6 150.3,187.7 157.6,185.3 C164.9,182.8 172.2,192.6 179.6,183.2 C186.9,173.8 194.2,138.2 201.5,128.7 C208.8,119.1 216.1,126.5 223.4,125.9 C230.7,125.3 238.0,125.3 245.3,125.1 C252.6,124.9 260.0,124.9 267.3,124.7 C274.6,124.6 281.9,124.5 289.2,124.2 C296.5,123.9 303.8,123.3 311.1,122.6 C318.4,122.0 325.7,120.6 333.0,120.1 C340.3,119.5 347.7,119.6 355.0,119.4 C362.3,119.2 369.6,119.4 376.9,118.9 C384.2,118.3 391.5,116.7 398.8,115.9 C406.1,115.2 413.4,115.0 420.7,114.6 C428.0,114.1 435.4,113.8 442.7,113.4 C450.0,112.9 457.3,112.9 464.6,112.0 C471.9,111.1 479.2,108.8 486.5,107.9 C493.8,106.9 501.1,106.7 508.4,106.3 C515.8,105.9 523.1,105.5 530.4,105.3 C537.7,105.1 545.0,105.7 552.3,105.1 C559.6,104.5 566.9,102.7 574.2,101.8 C581.5,101.0 588.8,100.7 596.1,100.1 C603.5,99.5 610.8,99.3 618.1,98.4 C625.4,97.5 636.3,95.1 640.0,94.4" fill="none" class="line-openvsx" stroke-width="1.8" stroke-linecap="round" stroke-linejoin="round"/>
  <path d="M48.0,219.9 C51.7,219.9 62.6,219.9 69.9,219.7 C77.2,219.6 84.5,219.3 91.9,219.0 C99.2,218.7 106.5,218.2 113.8,217.9 C121.1,217.7 128.4,217.7 135.7,217.6 C143.0,217.4 150.3,217.2 157.6,217.1 C164.9,216.9 172.2,217.5 179.6,216.6 C186.9,215.6 194.2,212.2 201.5,211.3 C208.8,210.4 216.1,211.1 223.4,211.0 C230.7,210.9 238.0,210.8 245.3,210.7 C252.6,210.6 260.0,210.5 267.3,210.5 C274.6,210.4 281.9,210.4 289.2,210.4 C296.5,210.4 303.8,210.4 311.1,210.4 C318.4,210.4 325.7,210.5 333.0,210.4 C340.3,210.3 347.7,209.9 355.0,209.8 C362.3,209.6 369.6,209.6 376.9,209.6 C384.2,209.6 391.5,209.6 398.8,209.5 C406.1,209.5 413.4,209.4 420.7,209.3 C428.0,209.3 435.4,209.3 442.7,209.3 C450.0,209.2 457.3,209.3 464.6,209.3 C471.9,209.2 479.2,209.2 486.5,209.2 C493.8,209.1 501.1,209.1 508.4,209.1 C515.8,209.1 523.1,209.1 530.4,209.1 C537.7,209.1 545.0,209.0 552.3,209.0 C559.6,208.9 566.9,208.9 574.2,208.8 C581.5,208.8 588.8,208.7 596.1,208.6 C603.5,208.5 610.8,208.3 618.1,208.2 C625.4,208.1 636.3,208.0 640.0,208.0" fill="none" class="line-vscode" stroke-width="1.8" stroke-linecap="round" stroke-linejoin="round"/>
  <path d="M48.0,219.7 C51.7,217.6 62.6,210.5 69.9,207.5 C77.2,204.5 84.5,203.6 91.9,201.6 C99.2,199.6 106.5,196.6 113.8,195.6 C121.1,194.5 128.4,197.4 135.7,195.2 C143.0,193.0 150.3,184.9 157.6,182.3 C164.9,179.8 172.2,190.1 179.6,179.8 C186.9,169.4 194.2,130.5 201.5,120.0 C208.8,109.5 216.1,117.6 223.4,116.9 C230.7,116.2 238.0,116.1 245.3,115.8 C252.6,115.5 260.0,115.4 267.3,115.2 C274.6,115.0 281.9,114.9 289.2,114.6 C296.5,114.2 303.8,113.7 311.1,113.0 C318.4,112.3 325.7,111.1 333.0,110.4 C340.3,109.8 347.7,109.5 355.0,109.1 C362.3,108.8 369.6,109.1 376.9,108.5 C384.2,107.8 391.5,106.2 398.8,105.4 C406.1,104.7 413.4,104.4 420.7,103.9 C428.0,103.4 435.4,103.1 442.7,102.6 C450.0,102.2 457.3,102.2 464.6,101.2 C471.9,100.3 479.2,98.0 486.5,97.0 C493.8,96.0 501.1,95.8 508.4,95.4 C515.8,94.9 523.1,94.6 530.4,94.4 C537.7,94.1 545.0,94.7 552.3,94.1 C559.6,93.5 566.9,91.5 574.2,90.7 C581.5,89.8 588.8,89.4 596.1,88.8 C603.5,88.1 610.8,87.7 618.1,86.6 C625.4,85.6 636.3,83.1 640.0,82.4" fill="none" class="line-total" stroke-width="2.5" stroke-linecap="round" stroke-linejoin="round"/>

  <circle cx="640" cy="82.4" r="4.5" class="dot-total" stroke-width="2"/>
    <text x="658" y="86.4" class="end-label" font-family="-apple-system, BlinkMacSystemFont, 'Segoe UI', Helvetica, sans-serif">Total</text>
    <text x="697" y="86.4" class="end-value" font-family="-apple-system, BlinkMacSystemFont, 'Segoe UI', Helvetica, sans-serif">1.6k</text>
    <circle cx="640" cy="94.44" r="3.5" class="dot-openvsx" stroke-width="1.8"/>
    <text x="658" y="104.4" class="end-label" font-family="-apple-system, BlinkMacSystemFont, 'Segoe UI', Helvetica, sans-serif">Open VSX</text>
    <text x="716.8" y="104.4" class="end-value" font-family="-apple-system, BlinkMacSystemFont, 'Segoe UI', Helvetica, sans-serif">1.5k</text>
    <circle cx="640" cy="207.96" r="3.5" class="dot-vscode" stroke-width="1.8"/>
    <text x="658" y="211.96" class="end-label" font-family="-apple-system, BlinkMacSystemFont, 'Segoe UI', Helvetica, sans-serif">VS Code</text>
    <text x="710.2" y="211.96" class="end-value" font-family="-apple-system, BlinkMacSystemFont, 'Segoe UI', Helvetica, sans-serif">140</text>
</svg>