<svg xmlns="http://www.w3.org/2000/svg" viewBox="0 0 760 260" width="760" height="260" role="img" aria-label="Glassy install history">
  <style>
  svg { color-scheme: light dark; }
  .title      { fill: #1a1a2e; font-size: 15px; font-weight: 600; }
  .subtitle   { fill: #6b7280; font-size: 11px; font-weight: 400; }
  .grid       { stroke: #e8e8ee; }
  .axis-label { fill: #8a8a9a; font-size: 10px; }
  .line-total   { stroke: #e8553d; }
  .line-vscode  { stroke: #5b7cfa; }
  .line-openvsx { stroke: #34c7a0; }
  .dot-total   { fill: transparent; stroke: #e8553d; }
  .dot-vscode  { fill: transparent; stroke: #5b7cfa; }
  .dot-openvsx { fill: transparent; stroke: #34c7a0; }
  .end-label       { fill: #1a1a2e; font-size: 11px; font-weight: 600; }
  .end-value       { fill: #6b7280; font-size: 11px; font-weight: 400; }
  .area-total-top    { stop-color: #e8553d; }
  .area-total-bottom { stop-color: #e8553d; }

  @media (prefers-color-scheme: dark) {
    .title      { fill: #e2e2e8; }
    .subtitle   { fill: #8b949e; }
    .grid       { stroke: #2d2d3d; }
    .axis-label { fill: #6e7681; }
    .line-total   { stroke: #ff9b85; }
    .line-vscode  { stroke: #8da4ff; }
    .line-openvsx { stroke: #5eead4; }
    .dot-total   { stroke: #ff9b85; }
    .dot-vscode  { stroke: #8da4ff; }
    .dot-openvsx { stroke: #5eead4; }
    .end-label       { fill: #e2e2e8; }
    .end-value       { fill: #8b949e; }
    .area-total-top    { stop-color: #ff9b85; }
    .area-total-bottom { stop-color: #ff9b85; }
  }
</style>
  <defs>
    <linearGradient id="areaGrad" x1="0" y1="0" x2="0" y2="1">
      <stop offset="0%" class="area-total-top" stop-opacity="0.18"/>
      <stop offset="60%" class="area-total-bottom" stop-opacity="0.04"/>
      <stop offset="100%" class="area-total-bottom" stop-opacity="0"/>
    </linearGradient>
  </defs>

  <text x="48" y="22" class="title" font-family="-apple-system, BlinkMacSystemFont, 'Segoe UI', Helvetica, sans-serif">Installs</text>
  <text x="48" y="37" class="subtitle" font-family="-apple-system, BlinkMacSystemFont, 'Segoe UI', Helvetica, sans-serif">Updated Jun 4</text>

  <line x1="48" y1="220" x2="640" y2="220" class="grid" stroke-width="0.7"/>
    <text x="40" y="223.5" class="axis-label" text-anchor="end" font-family="-apple-system, BlinkMacSystemFont, 'Segoe UI', Helvetica, sans-serif">0</text>
    <line x1="48" y1="177" x2="640" y2="177" class="grid" stroke-width="0.7"/>
    <text x="40" y="180.5" class="axis-label" text-anchor="end" font-family="-apple-system, BlinkMacSystemFont, 'Segoe UI', Helvetica, sans-serif">500</text>
    <line x1="48" y1="134" x2="640" y2="134" class="grid" stroke-width="0.7"/>
    <text x="40" y="137.5" class="axis-label" text-anchor="end" font-family="-apple-system, BlinkMacSystemFont, 'Segoe UI', Helvetica, sans-serif">1k</text>
    <line x1="48" y1="91" x2="640" y2="91" class="grid" stroke-width="0.7"/>
    <text x="40" y="94.5" class="axis-label" text-anchor="end" font-family="-apple-system, BlinkMacSystemFont, 'Segoe UI', Helvetica, sans-serif">1.5k</text>
    <line x1="48" y1="48" x2="640" y2="48" class="grid" stroke-width="0.7"/>
    <text x="40" y="51.5" class="axis-label" text-anchor="end" font-family="-apple-system, BlinkMacSystemFont, 'Segoe UI', Helvetica, sans-serif">2k</text>
  <text x="48" y="248" class="axis-label" text-anchor="middle" font-family="-apple-system, BlinkMacSystemFont, 'Segoe UI', Helvetica, sans-serif">Mar 27</text>
    <text x="166.4" y="248" class="axis-label" text-anchor="middle" font-family="-apple-system, BlinkMacSystemFont, 'Segoe UI', Helvetica, sans-serif">May 3</text>
    <text x="284.8" y="248" class="axis-label" text-anchor="middle" font-family="-apple-system, BlinkMacSystemFont, 'Segoe UI', Helvetica, sans-serif">May 11</text>
    <text x="403.2" y="248" class="axis-label" text-anchor="middle" font-family="-apple-system, BlinkMacSystemFont, 'Segoe UI', Helvetica, sans-serif">May 19</text>
    <text x="521.6" y="248" class="axis-label" text-anchor="middle" font-family="-apple-system, BlinkMacSystemFont, 'Segoe UI', Helvetica, sans-serif">May 27</text>
    <text x="640" y="248" class="axis-label" text-anchor="middle" font-family="-apple-system, BlinkMacSystemFont, 'Segoe UI', Helvetica, sans-serif">Jun 4</text>

  <path d="M48.0,219.7 C50.5,217.6 57.9,210.5 62.8,207.5 C67.7,204.5 72.7,203.6 77.6,201.6 C82.5,199.6 87.5,196.6 92.4,195.6 C97.3,194.5 102.3,197.4 107.2,195.2 C112.1,193.0 117.1,184.9 122.0,182.3 C126.9,179.8 131.9,190.1 136.8,179.8 C141.7,169.4 146.7,130.5 151.6,120.0 C156.5,109.5 161.5,117.6 166.4,116.9 C171.3,116.2 176.3,116.1 181.2,115.8 C186.1,115.5 191.1,115.4 196.0,115.2 C200.9,115.0 205.9,114.9 210.8,114.6 C215.7,114.2 220.7,113.7 225.6,113.0 C230.5,112.3 235.5,111.1 240.4,110.4 C245.3,109.8 250.3,109.5 255.2,109.1 C260.1,108.8 265.1,109.1 270.0,108.5 C274.9,107.8 279.9,106.2 284.8,105.4 C289.7,104.7 294.7,104.4 299.6,103.9 C304.5,103.4 309.5,103.1 314.4,102.6 C319.3,102.2 324.3,102.2 329.2,101.2 C334.1,100.3 339.1,98.0 344.0,97.0 C348.9,96.0 353.9,95.8 358.8,95.4 C363.7,94.9 368.7,94.6 373.6,94.4 C378.5,94.1 383.5,94.7 388.4,94.1 C393.3,93.5 398.3,91.5 403.2,90.7 C408.1,89.8 413.1,89.4 418.0,88.8 C422.9,88.1 427.9,87.7 432.8,86.6 C437.7,85.6 442.7,83.4 447.6,82.4 C452.5,81.4 457.5,80.9 462.4,80.3 C467.3,79.8 472.3,79.4 477.2,79.0 C482.1,78.7 487.1,78.6 492.0,78.0 C496.9,77.4 501.9,76.1 506.8,75.3 C511.7,74.6 516.7,74.3 521.6,73.8 C526.5,73.3 531.5,73.0 536.4,72.6 C541.3,72.2 546.3,72.0 551.2,71.7 C556.1,71.3 561.1,70.8 566.0,70.6 C570.9,70.4 575.9,70.4 580.8,70.4 C585.7,70.3 590.7,71.4 595.6,70.3 C600.5,69.1 605.5,64.8 610.4,63.3 C615.3,61.8 620.3,61.9 625.2,61.2 C630.1,60.6 637.5,59.6 640.0,59.3 L640.0,220.0 L48.0,220.0 Z" fill="url(#areaGrad)"/>
  <path d="M48.0,219.7 C50.5,217.7 57.9,210.6 62.8,207.8 C67.7,204.9 72.7,204.3 77.6,202.6 C82.5,200.9 87.5,198.5 92.4,197.6 C97.3,196.8 102.3,199.7 107.2,197.6 C112.1,195.6 117.1,187.7 122.0,185.3 C126.9,182.8 131.9,192.6 136.8,183.2 C141.7,173.8 146.7,138.2 151.6,128.7 C156.5,119.1 161.5,126.5 166.4,125.9 C171.3,125.3 176.3,125.3 181.2,125.1 C186.1,124.9 191.1,124.9 196.0,124.7 C200.9,124.6 205.9,124.5 210.8,124.2 C215.7,123.9 220.7,123.3 225.6,122.6 C230.5,122.0 235.5,120.6 240.4,120.1 C245.3,119.5 250.3,119.6 255.2,119.4 C260.1,119.2 265.1,119.4 270.0,118.9 C274.9,118.3 279.9,116.7 284.8,115.9 C289.7,115.2 294.7,115.0 299.6,114.6 C304.5,114.1 309.5,113.8 314.4,113.4 C319.3,112.9 324.3,112.9 329.2,112.0 C334.1,111.1 339.1,108.8 344.0,107.9 C348.9,106.9 353.9,106.7 358.8,106.3 C363.7,105.9 368.7,105.5 373.6,105.3 C378.5,105.1 383.5,105.7 388.4,105.1 C393.3,104.5 398.3,102.7 403.2,101.8 C408.1,101.0 413.1,100.7 418.0,100.1 C422.9,99.5 427.9,99.3 432.8,98.4 C437.7,97.5 442.7,95.4 447.6,94.4 C452.5,93.5 457.5,93.1 462.4,92.5 C467.3,92.0 472.3,91.7 477.2,91.3 C482.1,91.0 487.1,91.0 492.0,90.5 C496.9,89.9 501.9,88.7 506.8,88.1 C511.7,87.4 516.7,87.1 521.6,86.7 C526.5,86.3 531.5,86.0 536.4,85.7 C541.3,85.4 546.3,85.2 551.2,85.0 C556.1,84.7 561.1,84.3 566.0,84.1 C570.9,84.0 575.9,84.1 580.8,84.1 C585.7,84.1 590.7,85.2 595.6,84.1 C600.5,83.0 605.5,78.9 610.4,77.4 C615.3,76.0 620.3,76.0 625.2,75.3 C630.1,74.7 637.5,73.8 640.0,73.5" fill="none" class="line-openvsx" stroke-width="1.8" stroke-linecap="round" stroke-linejoin="round"/>
  <path d="M48.0,219.9 C50.5,219.9 57.9,219.9 62.8,219.7 C67.7,219.6 72.7,219.3 77.6,219.0 C82.5,218.7 87.5,218.2 92.4,217.9 C97.3,217.7 102.3,217.7 107.2,217.6 C112.1,217.4 117.1,217.2 122.0,217.1 C126.9,216.9 131.9,217.5 136.8,216.6 C141.7,215.6 146.7,212.2 151.6,211.3 C156.5,210.4 161.5,211.1 166.4,211.0 C171.3,210.9 176.3,210.8 181.2,210.7 C186.1,210.6 191.1,210.5 196.0,210.5 C200.9,210.4 205.9,210.4 210.8,210.4 C215.7,210.4 220.7,210.4 225.6,210.4 C230.5,210.4 235.5,210.5 240.4,210.4 C245.3,210.3 250.3,209.9 255.2,209.8 C260.1,209.6 265.1,209.6 270.0,209.6 C274.9,209.6 279.9,209.6 284.8,209.5 C289.7,209.5 294.7,209.4 299.6,209.3 C304.5,209.3 309.5,209.3 314.4,209.3 C319.3,209.2 324.3,209.3 329.2,209.3 C334.1,209.2 339.1,209.2 344.0,209.2 C348.9,209.1 353.9,209.1 358.8,209.1 C363.7,209.1 368.7,209.1 373.6,209.1 C378.5,209.1 383.5,209.0 388.4,209.0 C393.3,208.9 398.3,208.9 403.2,208.8 C408.1,208.8 413.1,208.7 418.0,208.6 C422.9,208.5 427.9,208.3 432.8,208.2 C437.7,208.1 442.7,208.0 447.6,208.0 C452.5,207.9 457.5,207.8 462.4,207.8 C467.3,207.7 472.3,207.7 477.2,207.7 C482.1,207.7 487.1,207.6 492.0,207.5 C496.9,207.5 501.9,207.3 506.8,207.3 C511.7,207.2 516.7,207.2 521.6,207.1 C526.5,207.0 531.5,207.0 536.4,206.9 C541.3,206.9 546.3,206.7 551.2,206.7 C556.1,206.6 561.1,206.6 566.0,206.5 C570.9,206.4 575.9,206.3 580.8,206.2 C585.7,206.2 590.7,206.2 595.6,206.2 C600.5,206.1 605.5,205.9 610.4,205.9 C615.3,205.9 620.3,205.9 625.2,205.9 C630.1,205.9 637.5,205.8 640.0,205.8" fill="none" class="line-vscode" stroke-width="1.8" stroke-linecap="round" stroke-linejoin="round"/>
  <path d="M48.0,219.7 C50.5,217.6 57.9,210.5 62.8,207.5 C67.7,204.5 72.7,203.6 77.6,201.6 C82.5,199.6 87.5,196.6 92.4,195.6 C97.3,194.5 102.3,197.4 107.2,195.2 C112.1,193.0 117.1,184.9 122.0,182.3 C126.9,179.8 131.9,190.1 136.8,179.8 C141.7,169.4 146.7,130.5 151.6,120.0 C156.5,109.5 161.5,117.6 166.4,116.9 C171.3,116.2 176.3,116.1 181.2,115.8 C186.1,115.5 191.1,115.4 196.0,115.2 C200.9,115.0 205.9,114.9 210.8,114.6 C215.7,114.2 220.7,113.7 225.6,113.0 C230.5,112.3 235.5,111.1 240.4,110.4 C245.3,109.8 250.3,109.5 255.2,109.1 C260.1,108.8 265.1,109.1 270.0,108.5 C274.9,107.8 279.9,106.2 284.8,105.4 C289.7,104.7 294.7,104.4 299.6,103.9 C304.5,103.4 309.5,103.1 314.4,102.6 C319.3,102.2 324.3,102.2 329.2,101.2 C334.1,100.3 339.1,98.0 344.0,97.0 C348.9,96.0 353.9,95.8 358.8,95.4 C363.7,94.9 368.7,94.6 373.6,94.4 C378.5,94.1 383.5,94.7 388.4,94.1 C393.3,93.5 398.3,91.5 403.2,90.7 C408.1,89.8 413.1,89.4 418.0,88.8 C422.9,88.1 427.9,87.7 432.8,86.6 C437.7,85.6 442.7,83.4 447.6,82.4 C452.5,81.4 457.5,80.9 462.4,80.3 C467.3,79.8 472.3,79.4 477.2,79.0 C482.1,78.7 487.1,78.6 492.0,78.0 C496.9,77.4 501.9,76.1 506.8,75.3 C511.7,74.6 516.7,74.3 521.6,73.8 C526.5,73.3 531.5,73.0 536.4,72.6 C541.3,72.2 546.3,72.0 551.2,71.7 C556.1,71.3 561.1,70.8 566.0,70.6 C570.9,70.4 575.9,70.4 580.8,70.4 C585.7,70.3 590.7,71.4 595.6,70.3 C600.5,69.1 605.5,64.8 610.4,63.3 C615.3,61.8 620.3,61.9 625.2,61.2 C630.1,60.6 637.5,59.6 640.0,59.3" fill="none" class="line-total" stroke-width="2.5" stroke-linecap="round" stroke-linejoin="round"/>

  <circle cx="640" cy="59.26599999999999" r="4.5" class="dot-total" stroke-width="2"/>
    <text x="658" y="63.26599999999999" class="end-label" font-family="-apple-system, BlinkMacSystemFont, 'Segoe UI', Helvetica, sans-serif">Total</text>
    <text x="697" y="63.26599999999999" class="end-value" font-family="-apple-system, BlinkMacSystemFont, 'Segoe UI', Helvetica, sans-serif">1.9k</text>
    <circle cx="640" cy="73.45600000000002" r="3.5" class="dot-openvsx" stroke-width="1.8"/>
    <text x="658" y="81.26599999999999" class="end-label" font-family="-apple-system, BlinkMacSystemFont, 'Segoe UI', Helvetica, sans-serif">Open VSX</text>
    <text x="716.8" y="81.26599999999999" class="end-value" font-family="-apple-system, BlinkMacSystemFont, 'Segoe UI', Helvetica, sans-serif">1.7k</text>
    <circle cx="640" cy="205.81" r="3.5" class="dot-vscode" stroke-width="1.8"/>
    <text x="658" y="209.81" class="end-label" font-family="-apple-system, BlinkMacSystemFont, 'Segoe UI', Helvetica, sans-serif">VS Code</text>
    <text x="710.2" y="209.81" class="end-value" font-family="-apple-system, BlinkMacSystemFont, 'Segoe UI', Helvetica, sans-serif">165</text>
</svg>