<svg xmlns="http://www.w3.org/2000/svg" viewBox="0 0 760 260" width="760" height="260" role="img" aria-label="Glassy install history">
  <style>
  svg { color-scheme: light dark; }
  .title      { fill: #1a1a2e; font-size: 15px; font-weight: 600; }
  .subtitle   { fill: #6b7280; font-size: 11px; font-weight: 400; }
  .grid       { stroke: #e8e8ee; }
  .axis-label { fill: #8a8a9a; font-size: 10px; }
  .line-total   { stroke: #e8553d; }
  .line-vscode  { stroke: #5b7cfa; }
  .line-openvsx { stroke: #34c7a0; }
  .dot-total   { fill: transparent; stroke: #e8553d; }
  .dot-vscode  { fill: transparent; stroke: #5b7cfa; }
  .dot-openvsx { fill: transparent; stroke: #34c7a0; }
  .end-label       { fill: #1a1a2e; font-size: 11px; font-weight: 600; }
  .end-value       { fill: #6b7280; font-size: 11px; font-weight: 400; }
  .area-total-top    { stop-color: #e8553d; }
  .area-total-bottom { stop-color: #e8553d; }

  @media (prefers-color-scheme: dark) {
    .title      { fill: #e2e2e8; }
    .subtitle   { fill: #8b949e; }
    .grid       { stroke: #2d2d3d; }
    .axis-label { fill: #6e7681; }
    .line-total   { stroke: #ff9b85; }
    .line-vscode  { stroke: #8da4ff; }
    .line-openvsx { stroke: #5eead4; }
    .dot-total   { stroke: #ff9b85; }
    .dot-vscode  { stroke: #8da4ff; }
    .dot-openvsx { stroke: #5eead4; }
    .end-label       { fill: #e2e2e8; }
    .end-value       { fill: #8b949e; }
    .area-total-top    { stop-color: #ff9b85; }
    .area-total-bottom { stop-color: #ff9b85; }
  }
</style>
  <defs>
    <linearGradient id="areaGrad" x1="0" y1="0" x2="0" y2="1">
      <stop offset="0%" class="area-total-top" stop-opacity="0.18"/>
      <stop offset="60%" class="area-total-bottom" stop-opacity="0.04"/>
      <stop offset="100%" class="area-total-bottom" stop-opacity="0"/>
    </linearGradient>
  </defs>

  <text x="48" y="22" class="title" font-family="-apple-system, BlinkMacSystemFont, 'Segoe UI', Helvetica, sans-serif">Installs</text>
  <text x="48" y="37" class="subtitle" font-family="-apple-system, BlinkMacSystemFont, 'Segoe UI', Helvetica, sans-serif">Updated Aug 1</text>

  <line x1="48" y1="220" x2="640" y2="220" class="grid" stroke-width="0.7"/>
    <text x="40" y="223.5" class="axis-label" text-anchor="end" font-family="-apple-system, BlinkMacSystemFont, 'Segoe UI', Helvetica, sans-serif">0</text>
    <line x1="48" y1="162.66666666666669" x2="640" y2="162.66666666666669" class="grid" stroke-width="0.7"/>
    <text x="40" y="166.16666666666669" class="axis-label" text-anchor="end" font-family="-apple-system, BlinkMacSystemFont, 'Segoe UI', Helvetica, sans-serif">1k</text>
    <line x1="48" y1="105.33333333333334" x2="640" y2="105.33333333333334" class="grid" stroke-width="0.7"/>
    <text x="40" y="108.83333333333334" class="axis-label" text-anchor="end" font-family="-apple-system, BlinkMacSystemFont, 'Segoe UI', Helvetica, sans-serif">2k</text>
    <line x1="48" y1="48" x2="640" y2="48" class="grid" stroke-width="0.7"/>
    <text x="40" y="51.5" class="axis-label" text-anchor="end" font-family="-apple-system, BlinkMacSystemFont, 'Segoe UI', Helvetica, sans-serif">3k</text>
  <text x="48" y="248" class="axis-label" text-anchor="middle" font-family="-apple-system, BlinkMacSystemFont, 'Segoe UI', Helvetica, sans-serif">Mar 27</text>
    <text x="168.81632653061223" y="248" class="axis-label" text-anchor="middle" font-family="-apple-system, BlinkMacSystemFont, 'Segoe UI', Helvetica, sans-serif">May 15</text>
    <text x="283.59183673469386" y="248" class="axis-label" text-anchor="middle" font-family="-apple-system, BlinkMacSystemFont, 'Segoe UI', Helvetica, sans-serif">Jun 3</text>
    <text x="404.40816326530614" y="248" class="axis-label" text-anchor="middle" font-family="-apple-system, BlinkMacSystemFont, 'Segoe UI', Helvetica, sans-serif">Jun 23</text>
    <text x="519.1836734693877" y="248" class="axis-label" text-anchor="middle" font-family="-apple-system, BlinkMacSystemFont, 'Segoe UI', Helvetica, sans-serif">Jul 12</text>
    <text x="640" y="248" class="axis-label" text-anchor="middle" font-family="-apple-system, BlinkMacSystemFont, 'Segoe UI', Helvetica, sans-serif">Aug 1</text>

  <path d="M48.0,219.8 C49.0,218.4 52.0,213.7 54.0,211.7 C56.1,209.7 58.1,209.1 60.1,207.7 C62.1,206.4 64.1,204.4 66.1,203.7 C68.1,203.0 70.1,205.0 72.2,203.5 C74.2,202.0 76.2,196.6 78.2,194.9 C80.2,193.2 82.2,200.1 84.2,193.2 C86.3,186.2 88.3,160.3 90.3,153.3 C92.3,146.3 94.3,151.7 96.3,151.3 C98.3,150.8 100.4,150.7 102.4,150.5 C104.4,150.3 106.4,150.2 108.4,150.1 C110.4,150.0 112.4,149.9 114.4,149.7 C116.5,149.5 118.5,149.1 120.5,148.7 C122.5,148.2 124.5,147.4 126.5,147.0 C128.5,146.5 130.6,146.3 132.6,146.1 C134.6,145.9 136.6,146.0 138.6,145.6 C140.6,145.2 142.6,144.1 144.7,143.6 C146.7,143.1 148.7,142.9 150.7,142.6 C152.7,142.3 154.7,142.0 156.7,141.7 C158.7,141.4 160.8,141.4 162.8,140.8 C164.8,140.2 166.8,138.7 168.8,138.0 C170.8,137.4 172.8,137.2 174.9,136.9 C176.9,136.6 178.9,136.4 180.9,136.2 C182.9,136.1 184.9,136.5 186.9,136.1 C189.0,135.7 191.0,134.4 193.0,133.8 C195.0,133.2 197.0,133.0 199.0,132.5 C201.0,132.1 203.0,131.8 205.1,131.1 C207.1,130.4 209.1,129.0 211.1,128.3 C213.1,127.6 215.1,127.3 217.1,126.9 C219.2,126.5 221.2,126.3 223.2,126.0 C225.2,125.8 227.2,125.8 229.2,125.3 C231.2,124.9 233.3,124.0 235.3,123.6 C237.3,123.1 239.3,122.8 241.3,122.5 C243.3,122.2 245.3,122.0 247.3,121.7 C249.4,121.5 251.4,121.3 253.4,121.1 C255.4,120.9 257.4,120.6 259.4,120.4 C261.4,120.3 263.5,120.3 265.5,120.2 C267.5,120.2 269.5,121.0 271.5,120.2 C273.5,119.4 275.5,116.5 277.6,115.5 C279.6,114.5 281.6,114.6 283.6,114.2 C285.6,113.7 287.6,113.3 289.6,112.8 C291.6,112.4 293.7,111.9 295.7,111.6 C297.7,111.3 299.7,111.2 301.7,111.0 C303.7,110.8 305.7,110.4 307.8,110.2 C309.8,110.0 311.8,110.1 313.8,109.7 C315.8,109.4 317.8,108.6 319.8,108.1 C321.9,107.7 323.9,107.6 325.9,107.2 C327.9,106.9 329.9,106.4 331.9,106.2 C333.9,105.9 335.9,106.0 338.0,105.7 C340.0,105.5 342.0,104.8 344.0,104.5 C346.0,104.2 348.0,104.2 350.0,104.0 C352.1,103.7 354.1,103.5 356.1,103.2 C358.1,102.9 360.1,102.5 362.1,102.2 C364.1,101.9 366.1,101.5 368.2,101.2 C370.2,100.9 372.2,100.8 374.2,100.3 C376.2,99.9 378.2,99.2 380.2,98.7 C382.3,98.3 384.3,98.1 386.3,97.7 C388.3,97.4 390.3,97.0 392.3,96.6 C394.3,96.3 396.4,95.9 398.4,95.5 C400.4,95.2 402.4,94.8 404.4,94.6 C406.4,94.3 408.4,94.2 410.4,93.8 C412.5,93.4 414.5,92.9 416.5,92.4 C418.5,91.9 420.5,91.2 422.5,90.8 C424.5,90.5 426.6,90.5 428.6,90.3 C430.6,90.1 432.6,90.0 434.6,89.8 C436.6,89.6 438.6,89.3 440.7,88.9 C442.7,88.6 444.7,88.2 446.7,87.9 C448.7,87.6 450.7,87.3 452.7,86.9 C454.7,86.6 456.8,86.2 458.8,85.8 C460.8,85.5 462.8,85.3 464.8,85.0 C466.8,84.6 468.8,84.0 470.9,83.7 C472.9,83.3 474.9,83.0 476.9,82.8 C478.9,82.6 480.9,82.6 482.9,82.4 C485.0,82.2 487.0,81.9 489.0,81.8 C491.0,81.6 493.0,81.6 495.0,81.4 C497.0,81.2 499.0,80.9 501.1,80.6 C503.1,80.4 505.1,80.0 507.1,79.8 C509.1,79.5 511.1,79.3 513.1,79.1 C515.2,78.9 517.2,78.8 519.2,78.5 C521.2,78.2 523.2,77.5 525.2,77.2 C527.2,76.9 529.3,76.8 531.3,76.6 C533.3,76.3 535.3,76.1 537.3,75.6 C539.3,75.1 541.3,74.5 543.3,73.7 C545.4,72.9 547.4,71.5 549.4,70.9 C551.4,70.3 553.4,70.4 555.4,70.1 C557.4,69.9 559.5,69.7 561.5,69.5 C563.5,69.3 565.5,69.0 567.5,68.9 C569.5,68.7 571.5,68.7 573.6,68.6 C575.6,68.4 577.6,68.2 579.6,67.9 C581.6,67.6 583.6,67.1 585.6,66.6 C587.6,66.1 589.7,65.5 591.7,65.0 C593.7,64.4 595.7,63.7 597.7,63.2 C599.7,62.7 601.7,62.6 603.8,62.2 C605.8,61.9 607.8,61.5 609.8,61.1 C611.8,60.7 613.8,60.2 615.8,59.8 C617.9,59.4 619.9,59.1 621.9,58.8 C623.9,58.4 625.9,58.1 627.9,57.7 C629.9,57.3 631.9,56.8 634.0,56.4 C636.0,56.0 639.0,55.4 640.0,55.2 L640.0,220.0 L48.0,220.0 Z" fill="url(#areaGrad)"/>
  <path d="M48.0,219.8 C49.0,218.5 52.0,213.8 54.0,211.9 C56.1,210.0 58.1,209.5 60.1,208.4 C62.1,207.3 64.1,205.6 66.1,205.1 C68.1,204.5 70.1,206.5 72.2,205.1 C74.2,203.7 76.2,198.4 78.2,196.8 C80.2,195.2 82.2,201.7 84.2,195.5 C86.3,189.2 88.3,165.5 90.3,159.1 C92.3,152.7 94.3,157.7 96.3,157.3 C98.3,156.9 100.4,156.8 102.4,156.7 C104.4,156.6 106.4,156.6 108.4,156.5 C110.4,156.4 112.4,156.4 114.4,156.1 C116.5,155.9 118.5,155.6 120.5,155.1 C122.5,154.6 124.5,153.7 126.5,153.4 C128.5,153.0 130.6,153.1 132.6,152.9 C134.6,152.8 136.6,153.0 138.6,152.6 C140.6,152.2 142.6,151.1 144.7,150.6 C146.7,150.1 148.7,150.0 150.7,149.7 C152.7,149.4 154.7,149.2 156.7,148.9 C158.7,148.6 160.8,148.6 162.8,148.0 C164.8,147.4 166.8,145.9 168.8,145.2 C170.8,144.6 172.8,144.5 174.9,144.2 C176.9,143.9 178.9,143.7 180.9,143.5 C182.9,143.4 184.9,143.8 186.9,143.4 C189.0,143.0 191.0,141.8 193.0,141.2 C195.0,140.7 197.0,140.5 199.0,140.1 C201.0,139.7 203.0,139.6 205.1,138.9 C207.1,138.3 209.1,136.9 211.1,136.3 C213.1,135.6 215.1,135.4 217.1,135.0 C219.2,134.7 221.2,134.5 223.2,134.2 C225.2,134.0 227.2,134.0 229.2,133.7 C231.2,133.3 233.3,132.5 235.3,132.1 C237.3,131.6 239.3,131.4 241.3,131.1 C243.3,130.9 245.3,130.6 247.3,130.4 C249.4,130.3 251.4,130.2 253.4,130.0 C255.4,129.8 257.4,129.5 259.4,129.4 C261.4,129.3 263.5,129.4 265.5,129.4 C267.5,129.4 269.5,130.2 271.5,129.4 C273.5,128.7 275.5,125.9 277.6,124.9 C279.6,124.0 281.6,124.0 283.6,123.6 C285.6,123.1 287.6,122.7 289.6,122.3 C291.6,121.9 293.7,121.3 295.7,121.0 C297.7,120.7 299.7,120.7 301.7,120.5 C303.7,120.2 305.7,119.9 307.8,119.7 C309.8,119.5 311.8,119.6 313.8,119.2 C315.8,118.9 317.8,118.0 319.8,117.6 C321.9,117.2 323.9,117.0 325.9,116.7 C327.9,116.4 329.9,115.9 331.9,115.7 C333.9,115.4 335.9,115.5 338.0,115.2 C340.0,114.9 342.0,114.3 344.0,114.0 C346.0,113.8 348.0,113.8 350.0,113.6 C352.1,113.4 354.1,113.2 356.1,112.9 C358.1,112.6 360.1,112.3 362.1,112.0 C364.1,111.7 366.1,111.4 368.2,111.1 C370.2,110.8 372.2,110.6 374.2,110.3 C376.2,109.9 378.2,109.2 380.2,108.8 C382.3,108.4 384.3,108.2 386.3,107.9 C388.3,107.5 390.3,107.2 392.3,106.8 C394.3,106.5 396.4,106.1 398.4,105.8 C400.4,105.5 402.4,105.1 404.4,104.9 C406.4,104.6 408.4,104.5 410.4,104.2 C412.5,103.8 414.5,103.3 416.5,102.8 C418.5,102.3 420.5,101.6 422.5,101.3 C424.5,101.0 426.6,101.0 428.6,100.9 C430.6,100.7 432.6,100.6 434.6,100.4 C436.6,100.2 438.6,99.9 440.7,99.6 C442.7,99.3 444.7,99.0 446.7,98.7 C448.7,98.4 450.7,98.1 452.7,97.8 C454.7,97.4 456.8,97.0 458.8,96.7 C460.8,96.4 462.8,96.2 464.8,95.9 C466.8,95.6 468.8,95.3 470.9,95.0 C472.9,94.7 474.9,94.4 476.9,94.2 C478.9,94.0 480.9,94.0 482.9,93.9 C485.0,93.7 487.0,93.4 489.0,93.3 C491.0,93.1 493.0,93.1 495.0,92.9 C497.0,92.8 499.0,92.5 501.1,92.3 C503.1,92.0 505.1,91.7 507.1,91.5 C509.1,91.2 511.1,91.0 513.1,90.8 C515.2,90.6 517.2,90.6 519.2,90.3 C521.2,90.0 523.2,89.4 525.2,89.1 C527.2,88.7 529.3,88.7 531.3,88.5 C533.3,88.2 535.3,88.0 537.3,87.6 C539.3,87.1 541.3,86.5 543.3,85.7 C545.4,85.0 547.4,83.5 549.4,83.0 C551.4,82.4 553.4,82.5 555.4,82.3 C557.4,82.1 559.5,81.9 561.5,81.7 C563.5,81.5 565.5,81.3 567.5,81.1 C569.5,81.0 571.5,81.1 573.6,80.9 C575.6,80.8 577.6,80.5 579.6,80.2 C581.6,79.9 583.6,79.5 585.6,79.1 C587.6,78.6 589.7,78.0 591.7,77.5 C593.7,76.9 595.7,76.2 597.7,75.7 C599.7,75.3 601.7,75.2 603.8,74.8 C605.8,74.5 607.8,74.2 609.8,73.8 C611.8,73.4 613.8,72.9 615.8,72.5 C617.9,72.2 619.9,71.9 621.9,71.6 C623.9,71.3 625.9,71.1 627.9,70.7 C629.9,70.3 631.9,69.8 634.0,69.4 C636.0,69.1 639.0,68.6 640.0,68.4" fill="none" class="line-openvsx" stroke-width="1.8" stroke-linecap="round" stroke-linejoin="round"/>
  <path d="M48.0,219.9 C49.0,219.9 52.0,219.9 54.0,219.8 C56.1,219.7 58.1,219.5 60.1,219.3 C62.1,219.1 64.1,218.8 66.1,218.6 C68.1,218.5 70.1,218.5 72.2,218.4 C74.2,218.3 76.2,218.2 78.2,218.1 C80.2,217.9 82.2,218.3 84.2,217.7 C86.3,217.1 88.3,214.8 90.3,214.2 C92.3,213.6 94.3,214.0 96.3,214.0 C98.3,213.9 100.4,213.9 102.4,213.8 C104.4,213.8 106.4,213.7 108.4,213.6 C110.4,213.6 112.4,213.6 114.4,213.6 C116.5,213.6 118.5,213.6 120.5,213.6 C122.5,213.6 124.5,213.6 126.5,213.6 C128.5,213.5 130.6,213.3 132.6,213.2 C134.6,213.1 136.6,213.1 138.6,213.1 C140.6,213.0 142.6,213.0 144.7,213.0 C146.7,213.0 148.7,212.9 150.7,212.9 C152.7,212.9 154.7,212.8 156.7,212.8 C158.7,212.8 160.8,212.8 162.8,212.8 C164.8,212.8 166.8,212.8 168.8,212.8 C170.8,212.8 172.8,212.7 174.9,212.7 C176.9,212.7 178.9,212.7 180.9,212.7 C182.9,212.7 184.9,212.7 186.9,212.7 C189.0,212.6 191.0,212.6 193.0,212.5 C195.0,212.5 197.0,212.5 199.0,212.4 C201.0,212.4 203.0,212.2 205.1,212.1 C207.1,212.1 209.1,212.0 211.1,212.0 C213.1,211.9 215.1,211.9 217.1,211.9 C219.2,211.8 221.2,211.8 223.2,211.8 C225.2,211.8 227.2,211.7 229.2,211.7 C231.2,211.6 233.3,211.6 235.3,211.5 C237.3,211.5 239.3,211.4 241.3,211.4 C243.3,211.4 245.3,211.3 247.3,211.3 C249.4,211.2 251.4,211.2 253.4,211.1 C255.4,211.1 257.4,211.0 259.4,211.0 C261.4,211.0 263.5,210.9 265.5,210.8 C267.5,210.8 269.5,210.8 271.5,210.8 C273.5,210.7 275.5,210.6 277.6,210.6 C279.6,210.6 281.6,210.6 283.6,210.6 C285.6,210.6 287.6,210.5 289.6,210.5 C291.6,210.5 293.7,210.5 295.7,210.5 C297.7,210.5 299.7,210.5 301.7,210.5 C303.7,210.5 305.7,210.5 307.8,210.5 C309.8,210.5 311.8,210.5 313.8,210.5 C315.8,210.5 317.8,210.5 319.8,210.5 C321.9,210.5 323.9,210.5 325.9,210.5 C327.9,210.5 329.9,210.5 331.9,210.5 C333.9,210.5 335.9,210.5 338.0,210.5 C340.0,210.5 342.0,210.5 344.0,210.5 C346.0,210.5 348.0,210.4 350.0,210.4 C352.1,210.3 354.1,210.3 356.1,210.3 C358.1,210.2 360.1,210.2 362.1,210.2 C364.1,210.2 366.1,210.2 368.2,210.1 C370.2,210.1 372.2,210.1 374.2,210.1 C376.2,210.1 378.2,210.0 380.2,210.0 C382.3,209.9 384.3,209.9 386.3,209.9 C388.3,209.8 390.3,209.8 392.3,209.8 C394.3,209.8 396.4,209.8 398.4,209.7 C400.4,209.7 402.4,209.7 404.4,209.7 C406.4,209.7 408.4,209.6 410.4,209.6 C412.5,209.6 414.5,209.6 416.5,209.6 C418.5,209.5 420.5,209.5 422.5,209.5 C424.5,209.5 426.6,209.5 428.6,209.5 C430.6,209.4 432.6,209.4 434.6,209.4 C436.6,209.4 438.6,209.4 440.7,209.3 C442.7,209.3 444.7,209.3 446.7,209.2 C448.7,209.2 450.7,209.2 452.7,209.2 C454.7,209.1 456.8,209.1 458.8,209.1 C460.8,209.1 462.8,209.1 464.8,209.0 C466.8,209.0 468.8,208.7 470.9,208.6 C472.9,208.6 474.9,208.6 476.9,208.6 C478.9,208.6 480.9,208.6 482.9,208.5 C485.0,208.5 487.0,208.5 489.0,208.5 C491.0,208.5 493.0,208.4 495.0,208.4 C497.0,208.4 499.0,208.4 501.1,208.4 C503.1,208.3 505.1,208.3 507.1,208.3 C509.1,208.3 511.1,208.3 513.1,208.3 C515.2,208.3 517.2,208.2 519.2,208.2 C521.2,208.2 523.2,208.2 525.2,208.1 C527.2,208.1 529.3,208.1 531.3,208.1 C533.3,208.1 535.3,208.0 537.3,208.0 C539.3,208.0 541.3,208.0 543.3,208.0 C545.4,207.9 547.4,207.9 549.4,207.9 C551.4,207.9 553.4,207.9 555.4,207.8 C557.4,207.8 559.5,207.8 561.5,207.8 C563.5,207.8 565.5,207.7 567.5,207.7 C569.5,207.7 571.5,207.7 573.6,207.7 C575.6,207.7 577.6,207.7 579.6,207.7 C581.6,207.7 583.6,207.6 585.6,207.6 C587.6,207.5 589.7,207.5 591.7,207.5 C593.7,207.5 595.7,207.5 597.7,207.4 C599.7,207.4 601.7,207.4 603.8,207.4 C605.8,207.4 607.8,207.3 609.8,207.3 C611.8,207.3 613.8,207.3 615.8,207.3 C617.9,207.2 619.9,207.2 621.9,207.2 C623.9,207.1 625.9,207.1 627.9,207.0 C629.9,207.0 631.9,207.0 634.0,206.9 C636.0,206.9 639.0,206.8 640.0,206.8" fill="none" class="line-vscode" stroke-width="1.8" stroke-linecap="round" stroke-linejoin="round"/>
  <path d="M48.0,219.8 C49.0,218.4 52.0,213.7 54.0,211.7 C56.1,209.7 58.1,209.1 60.1,207.7 C62.1,206.4 64.1,204.4 66.1,203.7 C68.1,203.0 70.1,205.0 72.2,203.5 C74.2,202.0 76.2,196.6 78.2,194.9 C80.2,193.2 82.2,200.1 84.2,193.2 C86.3,186.2 88.3,160.3 90.3,153.3 C92.3,146.3 94.3,151.7 96.3,151.3 C98.3,150.8 100.4,150.7 102.4,150.5 C104.4,150.3 106.4,150.2 108.4,150.1 C110.4,150.0 112.4,149.9 114.4,149.7 C116.5,149.5 118.5,149.1 120.5,148.7 C122.5,148.2 124.5,147.4 126.5,147.0 C128.5,146.5 130.6,146.3 132.6,146.1 C134.6,145.9 136.6,146.0 138.6,145.6 C140.6,145.2 142.6,144.1 144.7,143.6 C146.7,143.1 148.7,142.9 150.7,142.6 C152.7,142.3 154.7,142.0 156.7,141.7 C158.7,141.4 160.8,141.4 162.8,140.8 C164.8,140.2 166.8,138.7 168.8,138.0 C170.8,137.4 172.8,137.2 174.9,136.9 C176.9,136.6 178.9,136.4 180.9,136.2 C182.9,136.1 184.9,136.5 186.9,136.1 C189.0,135.7 191.0,134.4 193.0,133.8 C195.0,133.2 197.0,133.0 199.0,132.5 C201.0,132.1 203.0,131.8 205.1,131.1 C207.1,130.4 209.1,129.0 211.1,128.3 C213.1,127.6 215.1,127.3 217.1,126.9 C219.2,126.5 221.2,126.3 223.2,126.0 C225.2,125.8 227.2,125.8 229.2,125.3 C231.2,124.9 233.3,124.0 235.3,123.6 C237.3,123.1 239.3,122.8 241.3,122.5 C243.3,122.2 245.3,122.0 247.3,121.7 C249.4,121.5 251.4,121.3 253.4,121.1 C255.4,120.9 257.4,120.6 259.4,120.4 C261.4,120.3 263.5,120.3 265.5,120.2 C267.5,120.2 269.5,121.0 271.5,120.2 C273.5,119.4 275.5,116.5 277.6,115.5 C279.6,114.5 281.6,114.6 283.6,114.2 C285.6,113.7 287.6,113.3 289.6,112.8 C291.6,112.4 293.7,111.9 295.7,111.6 C297.7,111.3 299.7,111.2 301.7,111.0 C303.7,110.8 305.7,110.4 307.8,110.2 C309.8,110.0 311.8,110.1 313.8,109.7 C315.8,109.4 317.8,108.6 319.8,108.1 C321.9,107.7 323.9,107.6 325.9,107.2 C327.9,106.9 329.9,106.4 331.9,106.2 C333.9,105.9 335.9,106.0 338.0,105.7 C340.0,105.5 342.0,104.8 344.0,104.5 C346.0,104.2 348.0,104.2 350.0,104.0 C352.1,103.7 354.1,103.5 356.1,103.2 C358.1,102.9 360.1,102.5 362.1,102.2 C364.1,101.9 366.1,101.5 368.2,101.2 C370.2,100.9 372.2,100.8 374.2,100.3 C376.2,99.9 378.2,99.2 380.2,98.7 C382.3,98.3 384.3,98.1 386.3,97.7 C388.3,97.4 390.3,97.0 392.3,96.6 C394.3,96.3 396.4,95.9 398.4,95.5 C400.4,95.2 402.4,94.8 404.4,94.6 C406.4,94.3 408.4,94.2 410.4,93.8 C412.5,93.4 414.5,92.9 416.5,92.4 C418.5,91.9 420.5,91.2 422.5,90.8 C424.5,90.5 426.6,90.5 428.6,90.3 C430.6,90.1 432.6,90.0 434.6,89.8 C436.6,89.6 438.6,89.3 440.7,88.9 C442.7,88.6 444.7,88.2 446.7,87.9 C448.7,87.6 450.7,87.3 452.7,86.9 C454.7,86.6 456.8,86.2 458.8,85.8 C460.8,85.5 462.8,85.3 464.8,85.0 C466.8,84.6 468.8,84.0 470.9,83.7 C472.9,83.3 474.9,83.0 476.9,82.8 C478.9,82.6 480.9,82.6 482.9,82.4 C485.0,82.2 487.0,81.9 489.0,81.8 C491.0,81.6 493.0,81.6 495.0,81.4 C497.0,81.2 499.0,80.9 501.1,80.6 C503.1,80.4 505.1,80.0 507.1,79.8 C509.1,79.5 511.1,79.3 513.1,79.1 C515.2,78.9 517.2,78.8 519.2,78.5 C521.2,78.2 523.2,77.5 525.2,77.2 C527.2,76.9 529.3,76.8 531.3,76.6 C533.3,76.3 535.3,76.1 537.3,75.6 C539.3,75.1 541.3,74.5 543.3,73.7 C545.4,72.9 547.4,71.5 549.4,70.9 C551.4,70.3 553.4,70.4 555.4,70.1 C557.4,69.9 559.5,69.7 561.5,69.5 C563.5,69.3 565.5,69.0 567.5,68.9 C569.5,68.7 571.5,68.7 573.6,68.6 C575.6,68.4 577.6,68.2 579.6,67.9 C581.6,67.6 583.6,67.1 585.6,66.6 C587.6,66.1 589.7,65.5 591.7,65.0 C593.7,64.4 595.7,63.7 597.7,63.2 C599.7,62.7 601.7,62.6 603.8,62.2 C605.8,61.9 607.8,61.5 609.8,61.1 C611.8,60.7 613.8,60.2 615.8,59.8 C617.9,59.4 619.9,59.1 621.9,58.8 C623.9,58.4 625.9,58.1 627.9,57.7 C629.9,57.3 631.9,56.8 634.0,56.4 C636.0,56.0 639.0,55.4 640.0,55.2" fill="none" class="line-total" stroke-width="2.5" stroke-linecap="round" stroke-linejoin="round"/>

  <circle cx="640" cy="55.22400000000002" r="4.5" class="dot-total" stroke-width="2"/>
    <text x="658" y="59.22400000000002" class="end-label" font-family="-apple-system, BlinkMacSystemFont, 'Segoe UI', Helvetica, sans-serif">Total</text>
    <text x="697" y="59.22400000000002" class="end-value" font-family="-apple-system, BlinkMacSystemFont, 'Segoe UI', Helvetica, sans-serif">2.9k</text>
    <circle cx="640" cy="68.41066666666669" r="3.5" class="dot-openvsx" stroke-width="1.8"/>
    <text x="658" y="77.22400000000002" class="end-label" font-family="-apple-system, BlinkMacSystemFont, 'Segoe UI', Helvetica, sans-serif">Open VSX</text>
    <text x="716.8" y="77.22400000000002" class="end-value" font-family="-apple-system, BlinkMacSystemFont, 'Segoe UI', Helvetica, sans-serif">2.6k</text>
    <circle cx="640" cy="206.81333333333333" r="3.5" class="dot-vscode" stroke-width="1.8"/>
    <text x="658" y="210.81333333333333" class="end-label" font-family="-apple-system, BlinkMacSystemFont, 'Segoe UI', Helvetica, sans-serif">VS Code</text>
    <text x="710.2" y="210.81333333333333" class="end-value" font-family="-apple-system, BlinkMacSystemFont, 'Segoe UI', Helvetica, sans-serif">230</text>
</svg>