<svg xmlns="http://www.w3.org/2000/svg" viewBox="0 0 760 260" width="760" height="260" role="img" aria-label="Glassy install history">
  <style>
  svg { color-scheme: light dark; }
  .title      { fill: #1a1a2e; font-size: 15px; font-weight: 600; }
  .subtitle   { fill: #6b7280; font-size: 11px; font-weight: 400; }
  .grid       { stroke: #e8e8ee; }
  .axis-label { fill: #8a8a9a; font-size: 10px; }
  .line-total   { stroke: #e8553d; }
  .line-vscode  { stroke: #5b7cfa; }
  .line-openvsx { stroke: #34c7a0; }
  .dot-total   { fill: transparent; stroke: #e8553d; }
  .dot-vscode  { fill: transparent; stroke: #5b7cfa; }
  .dot-openvsx { fill: transparent; stroke: #34c7a0; }
  .end-label       { fill: #1a1a2e; font-size: 11px; font-weight: 600; }
  .end-value       { fill: #6b7280; font-size: 11px; font-weight: 400; }
  .area-total-top    { stop-color: #e8553d; }
  .area-total-bottom { stop-color: #e8553d; }

  @media (prefers-color-scheme: dark) {
    .title      { fill: #e2e2e8; }
    .subtitle   { fill: #8b949e; }
    .grid       { stroke: #2d2d3d; }
    .axis-label { fill: #6e7681; }
    .line-total   { stroke: #ff9b85; }
    .line-vscode  { stroke: #8da4ff; }
    .line-openvsx { stroke: #5eead4; }
    .dot-total   { stroke: #ff9b85; }
    .dot-vscode  { stroke: #8da4ff; }
    .dot-openvsx { stroke: #5eead4; }
    .end-label       { fill: #e2e2e8; }
    .end-value       { fill: #8b949e; }
    .area-total-top    { stop-color: #ff9b85; }
    .area-total-bottom { stop-color: #ff9b85; }
  }
</style>
  <defs>
    <linearGradient id="areaGrad" x1="0" y1="0" x2="0" y2="1">
      <stop offset="0%" class="area-total-top" stop-opacity="0.18"/>
      <stop offset="60%" class="area-total-bottom" stop-opacity="0.04"/>
      <stop offset="100%" class="area-total-bottom" stop-opacity="0"/>
    </linearGradient>
  </defs>

  <text x="48" y="22" class="title" font-family="-apple-system, BlinkMacSystemFont, 'Segoe UI', Helvetica, sans-serif">Installs</text>
  <text x="48" y="37" class="subtitle" font-family="-apple-system, BlinkMacSystemFont, 'Segoe UI', Helvetica, sans-serif">Updated May 10</text>

  <line x1="48" y1="220" x2="640" y2="220" class="grid" stroke-width="0.7"/>
    <text x="40" y="223.5" class="axis-label" text-anchor="end" font-family="-apple-system, BlinkMacSystemFont, 'Segoe UI', Helvetica, sans-serif">0</text>
    <line x1="48" y1="162.66666666666669" x2="640" y2="162.66666666666669" class="grid" stroke-width="0.7"/>
    <text x="40" y="166.16666666666669" class="axis-label" text-anchor="end" font-family="-apple-system, BlinkMacSystemFont, 'Segoe UI', Helvetica, sans-serif">500</text>
    <line x1="48" y1="105.33333333333334" x2="640" y2="105.33333333333334" class="grid" stroke-width="0.7"/>
    <text x="40" y="108.83333333333334" class="axis-label" text-anchor="end" font-family="-apple-system, BlinkMacSystemFont, 'Segoe UI', Helvetica, sans-serif">1k</text>
    <line x1="48" y1="48" x2="640" y2="48" class="grid" stroke-width="0.7"/>
    <text x="40" y="51.5" class="axis-label" text-anchor="end" font-family="-apple-system, BlinkMacSystemFont, 'Segoe UI', Helvetica, sans-serif">1.5k</text>
  <text x="48" y="248" class="axis-label" text-anchor="middle" font-family="-apple-system, BlinkMacSystemFont, 'Segoe UI', Helvetica, sans-serif">Mar 27</text>
    <text x="166.4" y="248" class="axis-label" text-anchor="middle" font-family="-apple-system, BlinkMacSystemFont, 'Segoe UI', Helvetica, sans-serif">Mar 30</text>
    <text x="284.8" y="248" class="axis-label" text-anchor="middle" font-family="-apple-system, BlinkMacSystemFont, 'Segoe UI', Helvetica, sans-serif">Apr 2</text>
    <text x="403.2" y="248" class="axis-label" text-anchor="middle" font-family="-apple-system, BlinkMacSystemFont, 'Segoe UI', Helvetica, sans-serif">May 4</text>
    <text x="521.6" y="248" class="axis-label" text-anchor="middle" font-family="-apple-system, BlinkMacSystemFont, 'Segoe UI', Helvetica, sans-serif">May 7</text>
    <text x="640" y="248" class="axis-label" text-anchor="middle" font-family="-apple-system, BlinkMacSystemFont, 'Segoe UI', Helvetica, sans-serif">May 10</text>

  <path d="M48.0,219.5 C54.6,216.8 74.3,207.4 87.5,203.4 C100.6,199.4 113.8,198.1 126.9,195.5 C140.1,192.8 153.2,188.8 166.4,187.4 C179.6,186.0 192.7,189.9 205.9,187.0 C219.0,184.0 232.2,173.2 245.3,169.8 C258.5,166.3 271.6,180.2 284.8,166.3 C298.0,152.5 311.1,100.6 324.3,86.6 C337.4,72.7 350.6,83.5 363.7,82.5 C376.9,81.6 390.0,81.4 403.2,81.0 C416.4,80.6 429.5,80.5 442.7,80.2 C455.8,80.0 469.0,79.9 482.1,79.4 C495.3,78.9 508.4,78.3 521.6,77.4 C534.8,76.4 547.9,74.8 561.1,73.9 C574.2,73.1 587.4,72.6 600.5,72.2 C613.7,71.8 633.4,71.4 640.0,71.3 L640.0,220.0 L48.0,220.0 Z" fill="url(#areaGrad)"/>
  <path d="M48.0,219.7 C54.6,217.0 74.3,207.5 87.5,203.7 C100.6,199.9 113.8,199.1 126.9,196.8 C140.1,194.6 153.2,191.3 166.4,190.2 C179.6,189.1 192.7,192.9 205.9,190.2 C219.0,187.4 232.2,176.9 245.3,173.7 C258.5,170.5 271.6,183.5 284.8,170.9 C298.0,158.3 311.1,111.0 324.3,98.2 C337.4,85.5 350.6,95.4 363.7,94.6 C376.9,93.8 390.0,93.7 403.2,93.4 C416.4,93.1 429.5,93.1 442.7,92.9 C455.8,92.8 469.0,92.7 482.1,92.3 C495.3,91.8 508.4,91.1 521.6,90.2 C534.8,89.3 547.9,87.5 561.1,86.8 C574.2,86.0 587.4,86.1 600.5,85.8 C613.7,85.6 633.4,85.3 640.0,85.2" fill="none" class="line-openvsx" stroke-width="1.8" stroke-linecap="round" stroke-linejoin="round"/>
  <path d="M48.0,219.9 C54.6,219.8 74.3,219.9 87.5,219.7 C100.6,219.4 113.8,219.0 126.9,218.6 C140.1,218.2 153.2,217.6 166.4,217.2 C179.6,216.9 192.7,217.0 205.9,216.8 C219.0,216.6 232.2,216.3 245.3,216.1 C258.5,215.9 271.6,216.7 284.8,215.4 C298.0,214.1 311.1,209.7 324.3,208.4 C337.4,207.2 350.6,208.1 363.7,208.0 C376.9,207.8 390.0,207.7 403.2,207.6 C416.4,207.5 429.5,207.3 442.7,207.3 C455.8,207.2 469.0,207.2 482.1,207.2 C495.3,207.1 508.4,207.2 521.6,207.2 C534.8,207.2 547.9,207.3 561.1,207.2 C574.2,207.0 587.4,206.5 600.5,206.4 C613.7,206.2 633.4,206.2 640.0,206.1" fill="none" class="line-vscode" stroke-width="1.8" stroke-linecap="round" stroke-linejoin="round"/>
  <path d="M48.0,219.5 C54.6,216.8 74.3,207.4 87.5,203.4 C100.6,199.4 113.8,198.1 126.9,195.5 C140.1,192.8 153.2,188.8 166.4,187.4 C179.6,186.0 192.7,189.9 205.9,187.0 C219.0,184.0 232.2,173.2 245.3,169.8 C258.5,166.3 271.6,180.2 284.8,166.3 C298.0,152.5 311.1,100.6 324.3,86.6 C337.4,72.7 350.6,83.5 363.7,82.5 C376.9,81.6 390.0,81.4 403.2,81.0 C416.4,80.6 429.5,80.5 442.7,80.2 C455.8,80.0 469.0,79.9 482.1,79.4 C495.3,78.9 508.4,78.3 521.6,77.4 C534.8,76.4 547.9,74.8 561.1,73.9 C574.2,73.1 587.4,72.6 600.5,72.2 C613.7,71.8 633.4,71.4 640.0,71.3" fill="none" class="line-total" stroke-width="2.5" stroke-linecap="round" stroke-linejoin="round"/>

  <circle cx="640" cy="71.27733333333333" r="4.5" class="dot-total" stroke-width="2"/>
    <text x="658" y="75.27733333333333" class="end-label" font-family="-apple-system, BlinkMacSystemFont, 'Segoe UI', Helvetica, sans-serif">Total</text>
    <text x="697" y="75.27733333333333" class="end-value" font-family="-apple-system, BlinkMacSystemFont, 'Segoe UI', Helvetica, sans-serif">1.3k</text>
    <circle cx="640" cy="85.15199999999999" r="3.5" class="dot-openvsx" stroke-width="1.8"/>
    <text x="658" y="93.27733333333333" class="end-label" font-family="-apple-system, BlinkMacSystemFont, 'Segoe UI', Helvetica, sans-serif">Open VSX</text>
    <text x="716.8" y="93.27733333333333" class="end-value" font-family="-apple-system, BlinkMacSystemFont, 'Segoe UI', Helvetica, sans-serif">1.2k</text>
    <circle cx="640" cy="206.12533333333334" r="3.5" class="dot-vscode" stroke-width="1.8"/>
    <text x="658" y="210.12533333333334" class="end-label" font-family="-apple-system, BlinkMacSystemFont, 'Segoe UI', Helvetica, sans-serif">VS Code</text>
    <text x="710.2" y="210.12533333333334" class="end-value" font-family="-apple-system, BlinkMacSystemFont, 'Segoe UI', Helvetica, sans-serif">121</text>
</svg>