<svg xmlns="http://www.w3.org/2000/svg" viewBox="0 0 760 260" width="760" height="260" role="img" aria-label="Glassy install history">
  <style>
  svg { color-scheme: light dark; }
  .title      { fill: #1a1a2e; font-size: 15px; font-weight: 600; }
  .subtitle   { fill: #6b7280; font-size: 11px; font-weight: 400; }
  .grid       { stroke: #e8e8ee; }
  .axis-label { fill: #8a8a9a; font-size: 10px; }
  .line-total   { stroke: #e8553d; }
  .line-vscode  { stroke: #5b7cfa; }
  .line-openvsx { stroke: #34c7a0; }
  .dot-total   { fill: transparent; stroke: #e8553d; }
  .dot-vscode  { fill: transparent; stroke: #5b7cfa; }
  .dot-openvsx { fill: transparent; stroke: #34c7a0; }
  .end-label       { fill: #1a1a2e; font-size: 11px; font-weight: 600; }
  .end-value       { fill: #6b7280; font-size: 11px; font-weight: 400; }
  .area-total-top    { stop-color: #e8553d; }
  .area-total-bottom { stop-color: #e8553d; }

  @media (prefers-color-scheme: dark) {
    .title      { fill: #e2e2e8; }
    .subtitle   { fill: #8b949e; }
    .grid       { stroke: #2d2d3d; }
    .axis-label { fill: #6e7681; }
    .line-total   { stroke: #ff9b85; }
    .line-vscode  { stroke: #8da4ff; }
    .line-openvsx { stroke: #5eead4; }
    .dot-total   { stroke: #ff9b85; }
    .dot-vscode  { stroke: #8da4ff; }
    .dot-openvsx { stroke: #5eead4; }
    .end-label       { fill: #e2e2e8; }
    .end-value       { fill: #8b949e; }
    .area-total-top    { stop-color: #ff9b85; }
    .area-total-bottom { stop-color: #ff9b85; }
  }
</style>
  <defs>
    <linearGradient id="areaGrad" x1="0" y1="0" x2="0" y2="1">
      <stop offset="0%" class="area-total-top" stop-opacity="0.18"/>
      <stop offset="60%" class="area-total-bottom" stop-opacity="0.04"/>
      <stop offset="100%" class="area-total-bottom" stop-opacity="0"/>
    </linearGradient>
  </defs>

  <text x="48" y="22" class="title" font-family="-apple-system, BlinkMacSystemFont, 'Segoe UI', Helvetica, sans-serif">Installs</text>
  <text x="48" y="37" class="subtitle" font-family="-apple-system, BlinkMacSystemFont, 'Segoe UI', Helvetica, sans-serif">Updated Jul 8</text>

  <line x1="48" y1="220" x2="640" y2="220" class="grid" stroke-width="0.7"/>
    <text x="40" y="223.5" class="axis-label" text-anchor="end" font-family="-apple-system, BlinkMacSystemFont, 'Segoe UI', Helvetica, sans-serif">0</text>
    <line x1="48" y1="162.66666666666669" x2="640" y2="162.66666666666669" class="grid" stroke-width="0.7"/>
    <text x="40" y="166.16666666666669" class="axis-label" text-anchor="end" font-family="-apple-system, BlinkMacSystemFont, 'Segoe UI', Helvetica, sans-serif">1k</text>
    <line x1="48" y1="105.33333333333334" x2="640" y2="105.33333333333334" class="grid" stroke-width="0.7"/>
    <text x="40" y="108.83333333333334" class="axis-label" text-anchor="end" font-family="-apple-system, BlinkMacSystemFont, 'Segoe UI', Helvetica, sans-serif">2k</text>
    <line x1="48" y1="48" x2="640" y2="48" class="grid" stroke-width="0.7"/>
    <text x="40" y="51.5" class="axis-label" text-anchor="end" font-family="-apple-system, BlinkMacSystemFont, 'Segoe UI', Helvetica, sans-serif">3k</text>
  <text x="48" y="248" class="axis-label" text-anchor="middle" font-family="-apple-system, BlinkMacSystemFont, 'Segoe UI', Helvetica, sans-serif">Mar 27</text>
    <text x="168" y="248" class="axis-label" text-anchor="middle" font-family="-apple-system, BlinkMacSystemFont, 'Segoe UI', Helvetica, sans-serif">May 10</text>
    <text x="288" y="248" class="axis-label" text-anchor="middle" font-family="-apple-system, BlinkMacSystemFont, 'Segoe UI', Helvetica, sans-serif">May 25</text>
    <text x="400" y="248" class="axis-label" text-anchor="middle" font-family="-apple-system, BlinkMacSystemFont, 'Segoe UI', Helvetica, sans-serif">Jun 8</text>
    <text x="520" y="248" class="axis-label" text-anchor="middle" font-family="-apple-system, BlinkMacSystemFont, 'Segoe UI', Helvetica, sans-serif">Jun 23</text>
    <text x="640" y="248" class="axis-label" text-anchor="middle" font-family="-apple-system, BlinkMacSystemFont, 'Segoe UI', Helvetica, sans-serif">Jul 8</text>

  <path d="M48.0,219.8 C49.3,218.4 53.3,213.7 56.0,211.7 C58.7,209.7 61.3,209.1 64.0,207.7 C66.7,206.4 69.3,204.4 72.0,203.7 C74.7,203.0 77.3,205.0 80.0,203.5 C82.7,202.0 85.3,196.6 88.0,194.9 C90.7,193.2 93.3,200.1 96.0,193.2 C98.7,186.2 101.3,160.3 104.0,153.3 C106.7,146.3 109.3,151.7 112.0,151.3 C114.7,150.8 117.3,150.7 120.0,150.5 C122.7,150.3 125.3,150.2 128.0,150.1 C130.7,150.0 133.3,149.9 136.0,149.7 C138.7,149.5 141.3,149.1 144.0,148.7 C146.7,148.2 149.3,147.4 152.0,147.0 C154.7,146.5 157.3,146.3 160.0,146.1 C162.7,145.9 165.3,146.0 168.0,145.6 C170.7,145.2 173.3,144.1 176.0,143.6 C178.7,143.1 181.3,142.9 184.0,142.6 C186.7,142.3 189.3,142.0 192.0,141.7 C194.7,141.4 197.3,141.4 200.0,140.8 C202.7,140.2 205.3,138.7 208.0,138.0 C210.7,137.4 213.3,137.2 216.0,136.9 C218.7,136.6 221.3,136.4 224.0,136.2 C226.7,136.1 229.3,136.5 232.0,136.1 C234.7,135.7 237.3,134.4 240.0,133.8 C242.7,133.2 245.3,133.0 248.0,132.5 C250.7,132.1 253.3,131.8 256.0,131.1 C258.7,130.4 261.3,129.0 264.0,128.3 C266.7,127.6 269.3,127.3 272.0,126.9 C274.7,126.5 277.3,126.3 280.0,126.0 C282.7,125.8 285.3,125.8 288.0,125.3 C290.7,124.9 293.3,124.0 296.0,123.6 C298.7,123.1 301.3,122.8 304.0,122.5 C306.7,122.2 309.3,122.0 312.0,121.7 C314.7,121.5 317.3,121.3 320.0,121.1 C322.7,120.9 325.3,120.6 328.0,120.4 C330.7,120.3 333.3,120.3 336.0,120.2 C338.7,120.2 341.3,121.0 344.0,120.2 C346.7,119.4 349.3,116.5 352.0,115.5 C354.7,114.5 357.3,114.6 360.0,114.2 C362.7,113.7 365.3,113.3 368.0,112.8 C370.7,112.4 373.3,111.9 376.0,111.6 C378.7,111.3 381.3,111.2 384.0,111.0 C386.7,110.8 389.3,110.4 392.0,110.2 C394.7,110.0 397.3,110.1 400.0,109.7 C402.7,109.4 405.3,108.6 408.0,108.1 C410.7,107.7 413.3,107.6 416.0,107.2 C418.7,106.9 421.3,106.4 424.0,106.2 C426.7,105.9 429.3,106.0 432.0,105.7 C434.7,105.5 437.3,104.8 440.0,104.5 C442.7,104.2 445.3,104.2 448.0,104.0 C450.7,103.7 453.3,103.5 456.0,103.2 C458.7,102.9 461.3,102.5 464.0,102.2 C466.7,101.9 469.3,101.5 472.0,101.2 C474.7,100.9 477.3,100.8 480.0,100.3 C482.7,99.9 485.3,99.2 488.0,98.7 C490.7,98.3 493.3,98.1 496.0,97.7 C498.7,97.4 501.3,97.0 504.0,96.6 C506.7,96.3 509.3,95.9 512.0,95.5 C514.7,95.2 517.3,94.8 520.0,94.6 C522.7,94.3 525.3,94.2 528.0,93.8 C530.7,93.4 533.3,92.9 536.0,92.4 C538.7,91.9 541.3,91.2 544.0,90.8 C546.7,90.5 549.3,90.5 552.0,90.3 C554.7,90.1 557.3,90.0 560.0,89.8 C562.7,89.6 565.3,89.3 568.0,88.9 C570.7,88.6 573.3,88.2 576.0,87.9 C578.7,87.6 581.3,87.3 584.0,86.9 C586.7,86.6 589.3,86.2 592.0,85.8 C594.7,85.5 597.3,85.3 600.0,85.0 C602.7,84.6 605.3,84.0 608.0,83.7 C610.7,83.3 613.3,83.0 616.0,82.8 C618.7,82.6 621.3,82.6 624.0,82.4 C626.7,82.2 629.3,81.9 632.0,81.8 C634.7,81.6 638.7,81.4 640.0,81.4 L640.0,220.0 L48.0,220.0 Z" fill="url(#areaGrad)"/>
  <path d="M48.0,219.8 C49.3,218.5 53.3,213.8 56.0,211.9 C58.7,210.0 61.3,209.5 64.0,208.4 C66.7,207.3 69.3,205.6 72.0,205.1 C74.7,204.5 77.3,206.5 80.0,205.1 C82.7,203.7 85.3,198.4 88.0,196.8 C90.7,195.2 93.3,201.7 96.0,195.5 C98.7,189.2 101.3,165.5 104.0,159.1 C106.7,152.7 109.3,157.7 112.0,157.3 C114.7,156.9 117.3,156.8 120.0,156.7 C122.7,156.6 125.3,156.6 128.0,156.5 C130.7,156.4 133.3,156.4 136.0,156.1 C138.7,155.9 141.3,155.6 144.0,155.1 C146.7,154.6 149.3,153.7 152.0,153.4 C154.7,153.0 157.3,153.1 160.0,152.9 C162.7,152.8 165.3,153.0 168.0,152.6 C170.7,152.2 173.3,151.1 176.0,150.6 C178.7,150.1 181.3,150.0 184.0,149.7 C186.7,149.4 189.3,149.2 192.0,148.9 C194.7,148.6 197.3,148.6 200.0,148.0 C202.7,147.4 205.3,145.9 208.0,145.2 C210.7,144.6 213.3,144.5 216.0,144.2 C218.7,143.9 221.3,143.7 224.0,143.5 C226.7,143.4 229.3,143.8 232.0,143.4 C234.7,143.0 237.3,141.8 240.0,141.2 C242.7,140.7 245.3,140.5 248.0,140.1 C250.7,139.7 253.3,139.6 256.0,138.9 C258.7,138.3 261.3,136.9 264.0,136.3 C266.7,135.6 269.3,135.4 272.0,135.0 C274.7,134.7 277.3,134.5 280.0,134.2 C282.7,134.0 285.3,134.0 288.0,133.7 C290.7,133.3 293.3,132.5 296.0,132.1 C298.7,131.6 301.3,131.4 304.0,131.1 C306.7,130.9 309.3,130.6 312.0,130.4 C314.7,130.3 317.3,130.2 320.0,130.0 C322.7,129.8 325.3,129.5 328.0,129.4 C330.7,129.3 333.3,129.4 336.0,129.4 C338.7,129.4 341.3,130.2 344.0,129.4 C346.7,128.7 349.3,125.9 352.0,124.9 C354.7,124.0 357.3,124.0 360.0,123.6 C362.7,123.1 365.3,122.7 368.0,122.3 C370.7,121.9 373.3,121.3 376.0,121.0 C378.7,120.7 381.3,120.7 384.0,120.5 C386.7,120.2 389.3,119.9 392.0,119.7 C394.7,119.5 397.3,119.6 400.0,119.2 C402.7,118.9 405.3,118.0 408.0,117.6 C410.7,117.2 413.3,117.0 416.0,116.7 C418.7,116.4 421.3,115.9 424.0,115.7 C426.7,115.4 429.3,115.5 432.0,115.2 C434.7,114.9 437.3,114.3 440.0,114.0 C442.7,113.8 445.3,113.8 448.0,113.6 C450.7,113.4 453.3,113.2 456.0,112.9 C458.7,112.6 461.3,112.3 464.0,112.0 C466.7,111.7 469.3,111.4 472.0,111.1 C474.7,110.8 477.3,110.6 480.0,110.3 C482.7,109.9 485.3,109.2 488.0,108.8 C490.7,108.4 493.3,108.2 496.0,107.9 C498.7,107.5 501.3,107.2 504.0,106.8 C506.7,106.5 509.3,106.1 512.0,105.8 C514.7,105.5 517.3,105.1 520.0,104.9 C522.7,104.6 525.3,104.5 528.0,104.2 C530.7,103.8 533.3,103.3 536.0,102.8 C538.7,102.3 541.3,101.6 544.0,101.3 C546.7,101.0 549.3,101.0 552.0,100.9 C554.7,100.7 557.3,100.6 560.0,100.4 C562.7,100.2 565.3,99.9 568.0,99.6 C570.7,99.3 573.3,99.0 576.0,98.7 C578.7,98.4 581.3,98.1 584.0,97.8 C586.7,97.4 589.3,97.0 592.0,96.7 C594.7,96.4 597.3,96.2 600.0,95.9 C602.7,95.6 605.3,95.3 608.0,95.0 C610.7,94.7 613.3,94.4 616.0,94.2 C618.7,94.0 621.3,94.0 624.0,93.9 C626.7,93.7 629.3,93.4 632.0,93.3 C634.7,93.1 638.7,93.0 640.0,92.9" fill="none" class="line-openvsx" stroke-width="1.8" stroke-linecap="round" stroke-linejoin="round"/>
  <path d="M48.0,219.9 C49.3,219.9 53.3,219.9 56.0,219.8 C58.7,219.7 61.3,219.5 64.0,219.3 C66.7,219.1 69.3,218.8 72.0,218.6 C74.7,218.5 77.3,218.5 80.0,218.4 C82.7,218.3 85.3,218.2 88.0,218.1 C90.7,217.9 93.3,218.3 96.0,217.7 C98.7,217.1 101.3,214.8 104.0,214.2 C106.7,213.6 109.3,214.0 112.0,214.0 C114.7,213.9 117.3,213.9 120.0,213.8 C122.7,213.8 125.3,213.7 128.0,213.6 C130.7,213.6 133.3,213.6 136.0,213.6 C138.7,213.6 141.3,213.6 144.0,213.6 C146.7,213.6 149.3,213.6 152.0,213.6 C154.7,213.5 157.3,213.3 160.0,213.2 C162.7,213.1 165.3,213.1 168.0,213.1 C170.7,213.0 173.3,213.0 176.0,213.0 C178.7,213.0 181.3,212.9 184.0,212.9 C186.7,212.9 189.3,212.8 192.0,212.8 C194.7,212.8 197.3,212.8 200.0,212.8 C202.7,212.8 205.3,212.8 208.0,212.8 C210.7,212.8 213.3,212.7 216.0,212.7 C218.7,212.7 221.3,212.7 224.0,212.7 C226.7,212.7 229.3,212.7 232.0,212.7 C234.7,212.6 237.3,212.6 240.0,212.5 C242.7,212.5 245.3,212.5 248.0,212.4 C250.7,212.4 253.3,212.2 256.0,212.1 C258.7,212.1 261.3,212.0 264.0,212.0 C266.7,211.9 269.3,211.9 272.0,211.9 C274.7,211.8 277.3,211.8 280.0,211.8 C282.7,211.8 285.3,211.7 288.0,211.7 C290.7,211.6 293.3,211.6 296.0,211.5 C298.7,211.5 301.3,211.4 304.0,211.4 C306.7,211.4 309.3,211.3 312.0,211.3 C314.7,211.2 317.3,211.2 320.0,211.1 C322.7,211.1 325.3,211.0 328.0,211.0 C330.7,211.0 333.3,210.9 336.0,210.8 C338.7,210.8 341.3,210.8 344.0,210.8 C346.7,210.7 349.3,210.6 352.0,210.6 C354.7,210.6 357.3,210.6 360.0,210.6 C362.7,210.6 365.3,210.5 368.0,210.5 C370.7,210.5 373.3,210.5 376.0,210.5 C378.7,210.5 381.3,210.5 384.0,210.5 C386.7,210.5 389.3,210.5 392.0,210.5 C394.7,210.5 397.3,210.5 400.0,210.5 C402.7,210.5 405.3,210.5 408.0,210.5 C410.7,210.5 413.3,210.5 416.0,210.5 C418.7,210.5 421.3,210.5 424.0,210.5 C426.7,210.5 429.3,210.5 432.0,210.5 C434.7,210.5 437.3,210.5 440.0,210.5 C442.7,210.5 445.3,210.4 448.0,210.4 C450.7,210.3 453.3,210.3 456.0,210.3 C458.7,210.2 461.3,210.2 464.0,210.2 C466.7,210.2 469.3,210.2 472.0,210.1 C474.7,210.1 477.3,210.1 480.0,210.1 C482.7,210.1 485.3,210.0 488.0,210.0 C490.7,209.9 493.3,209.9 496.0,209.9 C498.7,209.8 501.3,209.8 504.0,209.8 C506.7,209.8 509.3,209.8 512.0,209.7 C514.7,209.7 517.3,209.7 520.0,209.7 C522.7,209.7 525.3,209.6 528.0,209.6 C530.7,209.6 533.3,209.6 536.0,209.6 C538.7,209.5 541.3,209.5 544.0,209.5 C546.7,209.5 549.3,209.5 552.0,209.5 C554.7,209.4 557.3,209.4 560.0,209.4 C562.7,209.4 565.3,209.4 568.0,209.3 C570.7,209.3 573.3,209.3 576.0,209.2 C578.7,209.2 581.3,209.2 584.0,209.2 C586.7,209.1 589.3,209.1 592.0,209.1 C594.7,209.1 597.3,209.1 600.0,209.0 C602.7,209.0 605.3,208.7 608.0,208.6 C610.7,208.6 613.3,208.6 616.0,208.6 C618.7,208.6 621.3,208.6 624.0,208.5 C626.7,208.5 629.3,208.5 632.0,208.5 C634.7,208.5 638.7,208.4 640.0,208.4" fill="none" class="line-vscode" stroke-width="1.8" stroke-linecap="round" stroke-linejoin="round"/>
  <path d="M48.0,219.8 C49.3,218.4 53.3,213.7 56.0,211.7 C58.7,209.7 61.3,209.1 64.0,207.7 C66.7,206.4 69.3,204.4 72.0,203.7 C74.7,203.0 77.3,205.0 80.0,203.5 C82.7,202.0 85.3,196.6 88.0,194.9 C90.7,193.2 93.3,200.1 96.0,193.2 C98.7,186.2 101.3,160.3 104.0,153.3 C106.7,146.3 109.3,151.7 112.0,151.3 C114.7,150.8 117.3,150.7 120.0,150.5 C122.7,150.3 125.3,150.2 128.0,150.1 C130.7,150.0 133.3,149.9 136.0,149.7 C138.7,149.5 141.3,149.1 144.0,148.7 C146.7,148.2 149.3,147.4 152.0,147.0 C154.7,146.5 157.3,146.3 160.0,146.1 C162.7,145.9 165.3,146.0 168.0,145.6 C170.7,145.2 173.3,144.1 176.0,143.6 C178.7,143.1 181.3,142.9 184.0,142.6 C186.7,142.3 189.3,142.0 192.0,141.7 C194.7,141.4 197.3,141.4 200.0,140.8 C202.7,140.2 205.3,138.7 208.0,138.0 C210.7,137.4 213.3,137.2 216.0,136.9 C218.7,136.6 221.3,136.4 224.0,136.2 C226.7,136.1 229.3,136.5 232.0,136.1 C234.7,135.7 237.3,134.4 240.0,133.8 C242.7,133.2 245.3,133.0 248.0,132.5 C250.7,132.1 253.3,131.8 256.0,131.1 C258.7,130.4 261.3,129.0 264.0,128.3 C266.7,127.6 269.3,127.3 272.0,126.9 C274.7,126.5 277.3,126.3 280.0,126.0 C282.7,125.8 285.3,125.8 288.0,125.3 C290.7,124.9 293.3,124.0 296.0,123.6 C298.7,123.1 301.3,122.8 304.0,122.5 C306.7,122.2 309.3,122.0 312.0,121.7 C314.7,121.5 317.3,121.3 320.0,121.1 C322.7,120.9 325.3,120.6 328.0,120.4 C330.7,120.3 333.3,120.3 336.0,120.2 C338.7,120.2 341.3,121.0 344.0,120.2 C346.7,119.4 349.3,116.5 352.0,115.5 C354.7,114.5 357.3,114.6 360.0,114.2 C362.7,113.7 365.3,113.3 368.0,112.8 C370.7,112.4 373.3,111.9 376.0,111.6 C378.7,111.3 381.3,111.2 384.0,111.0 C386.7,110.8 389.3,110.4 392.0,110.2 C394.7,110.0 397.3,110.1 400.0,109.7 C402.7,109.4 405.3,108.6 408.0,108.1 C410.7,107.7 413.3,107.6 416.0,107.2 C418.7,106.9 421.3,106.4 424.0,106.2 C426.7,105.9 429.3,106.0 432.0,105.7 C434.7,105.5 437.3,104.8 440.0,104.5 C442.7,104.2 445.3,104.2 448.0,104.0 C450.7,103.7 453.3,103.5 456.0,103.2 C458.7,102.9 461.3,102.5 464.0,102.2 C466.7,101.9 469.3,101.5 472.0,101.2 C474.7,100.9 477.3,100.8 480.0,100.3 C482.7,99.9 485.3,99.2 488.0,98.7 C490.7,98.3 493.3,98.1 496.0,97.7 C498.7,97.4 501.3,97.0 504.0,96.6 C506.7,96.3 509.3,95.9 512.0,95.5 C514.7,95.2 517.3,94.8 520.0,94.6 C522.7,94.3 525.3,94.2 528.0,93.8 C530.7,93.4 533.3,92.9 536.0,92.4 C538.7,91.9 541.3,91.2 544.0,90.8 C546.7,90.5 549.3,90.5 552.0,90.3 C554.7,90.1 557.3,90.0 560.0,89.8 C562.7,89.6 565.3,89.3 568.0,88.9 C570.7,88.6 573.3,88.2 576.0,87.9 C578.7,87.6 581.3,87.3 584.0,86.9 C586.7,86.6 589.3,86.2 592.0,85.8 C594.7,85.5 597.3,85.3 600.0,85.0 C602.7,84.6 605.3,84.0 608.0,83.7 C610.7,83.3 613.3,83.0 616.0,82.8 C618.7,82.6 621.3,82.6 624.0,82.4 C626.7,82.2 629.3,81.9 632.0,81.8 C634.7,81.6 638.7,81.4 640.0,81.4" fill="none" class="line-total" stroke-width="2.5" stroke-linecap="round" stroke-linejoin="round"/>

  <circle cx="640" cy="81.368" r="4.5" class="dot-total" stroke-width="2"/>
    <text x="658" y="85.368" class="end-label" font-family="-apple-system, BlinkMacSystemFont, 'Segoe UI', Helvetica, sans-serif">Total</text>
    <text x="697" y="85.368" class="end-value" font-family="-apple-system, BlinkMacSystemFont, 'Segoe UI', Helvetica, sans-serif">2.4k</text>
    <circle cx="640" cy="92.94933333333333" r="3.5" class="dot-openvsx" stroke-width="1.8"/>
    <text x="658" y="103.368" class="end-label" font-family="-apple-system, BlinkMacSystemFont, 'Segoe UI', Helvetica, sans-serif">Open VSX</text>
    <text x="716.8" y="103.368" class="end-value" font-family="-apple-system, BlinkMacSystemFont, 'Segoe UI', Helvetica, sans-serif">2.2k</text>
    <circle cx="640" cy="208.41866666666667" r="3.5" class="dot-vscode" stroke-width="1.8"/>
    <text x="658" y="212.41866666666667" class="end-label" font-family="-apple-system, BlinkMacSystemFont, 'Segoe UI', Helvetica, sans-serif">VS Code</text>
    <text x="710.2" y="212.41866666666667" class="end-value" font-family="-apple-system, BlinkMacSystemFont, 'Segoe UI', Helvetica, sans-serif">202</text>
</svg>