<svg xmlns="http://www.w3.org/2000/svg" viewBox="0 0 760 260" width="760" height="260" role="img" aria-label="Glassy install history">
  <style>
  svg { color-scheme: light dark; }
  .title      { fill: #1a1a2e; font-size: 15px; font-weight: 600; }
  .subtitle   { fill: #6b7280; font-size: 11px; font-weight: 400; }
  .grid       { stroke: #e8e8ee; }
  .axis-label { fill: #8a8a9a; font-size: 10px; }
  .line-total   { stroke: #e8553d; }
  .line-vscode  { stroke: #5b7cfa; }
  .line-openvsx { stroke: #34c7a0; }
  .dot-total   { fill: transparent; stroke: #e8553d; }
  .dot-vscode  { fill: transparent; stroke: #5b7cfa; }
  .dot-openvsx { fill: transparent; stroke: #34c7a0; }
  .end-label       { fill: #1a1a2e; font-size: 11px; font-weight: 600; }
  .end-value       { fill: #6b7280; font-size: 11px; font-weight: 400; }
  .area-total-top    { stop-color: #e8553d; }
  .area-total-bottom { stop-color: #e8553d; }

  @media (prefers-color-scheme: dark) {
    .title      { fill: #e2e2e8; }
    .subtitle   { fill: #8b949e; }
    .grid       { stroke: #2d2d3d; }
    .axis-label { fill: #6e7681; }
    .line-total   { stroke: #ff9b85; }
    .line-vscode  { stroke: #8da4ff; }
    .line-openvsx { stroke: #5eead4; }
    .dot-total   { stroke: #ff9b85; }
    .dot-vscode  { stroke: #8da4ff; }
    .dot-openvsx { stroke: #5eead4; }
    .end-label       { fill: #e2e2e8; }
    .end-value       { fill: #8b949e; }
    .area-total-top    { stop-color: #ff9b85; }
    .area-total-bottom { stop-color: #ff9b85; }
  }
</style>
  <defs>
    <linearGradient id="areaGrad" x1="0" y1="0" x2="0" y2="1">
      <stop offset="0%" class="area-total-top" stop-opacity="0.18"/>
      <stop offset="60%" class="area-total-bottom" stop-opacity="0.04"/>
      <stop offset="100%" class="area-total-bottom" stop-opacity="0"/>
    </linearGradient>
  </defs>

  <text x="48" y="22" class="title" font-family="-apple-system, BlinkMacSystemFont, 'Segoe UI', Helvetica, sans-serif">Installs</text>
  <text x="48" y="37" class="subtitle" font-family="-apple-system, BlinkMacSystemFont, 'Segoe UI', Helvetica, sans-serif">Updated May 28</text>

  <line x1="48" y1="220" x2="640" y2="220" class="grid" stroke-width="0.7"/>
    <text x="40" y="223.5" class="axis-label" text-anchor="end" font-family="-apple-system, BlinkMacSystemFont, 'Segoe UI', Helvetica, sans-serif">0</text>
    <line x1="48" y1="177" x2="640" y2="177" class="grid" stroke-width="0.7"/>
    <text x="40" y="180.5" class="axis-label" text-anchor="end" font-family="-apple-system, BlinkMacSystemFont, 'Segoe UI', Helvetica, sans-serif">500</text>
    <line x1="48" y1="134" x2="640" y2="134" class="grid" stroke-width="0.7"/>
    <text x="40" y="137.5" class="axis-label" text-anchor="end" font-family="-apple-system, BlinkMacSystemFont, 'Segoe UI', Helvetica, sans-serif">1k</text>
    <line x1="48" y1="91" x2="640" y2="91" class="grid" stroke-width="0.7"/>
    <text x="40" y="94.5" class="axis-label" text-anchor="end" font-family="-apple-system, BlinkMacSystemFont, 'Segoe UI', Helvetica, sans-serif">1.5k</text>
    <line x1="48" y1="48" x2="640" y2="48" class="grid" stroke-width="0.7"/>
    <text x="40" y="51.5" class="axis-label" text-anchor="end" font-family="-apple-system, BlinkMacSystemFont, 'Segoe UI', Helvetica, sans-serif">2k</text>
  <text x="48" y="248" class="axis-label" text-anchor="middle" font-family="-apple-system, BlinkMacSystemFont, 'Segoe UI', Helvetica, sans-serif">Mar 27</text>
    <text x="173.57575757575756" y="248" class="axis-label" text-anchor="middle" font-family="-apple-system, BlinkMacSystemFont, 'Segoe UI', Helvetica, sans-serif">Apr 30</text>
    <text x="281.2121212121212" y="248" class="axis-label" text-anchor="middle" font-family="-apple-system, BlinkMacSystemFont, 'Segoe UI', Helvetica, sans-serif">May 8</text>
    <text x="406.7878787878788" y="248" class="axis-label" text-anchor="middle" font-family="-apple-system, BlinkMacSystemFont, 'Segoe UI', Helvetica, sans-serif">May 15</text>
    <text x="514.4242424242424" y="248" class="axis-label" text-anchor="middle" font-family="-apple-system, BlinkMacSystemFont, 'Segoe UI', Helvetica, sans-serif">May 21</text>
    <text x="640" y="248" class="axis-label" text-anchor="middle" font-family="-apple-system, BlinkMacSystemFont, 'Segoe UI', Helvetica, sans-serif">May 28</text>

  <path d="M48.0,219.7 C51.0,217.6 60.0,210.5 65.9,207.5 C71.9,204.5 77.9,203.6 83.9,201.6 C89.9,199.6 95.8,196.6 101.8,195.6 C107.8,194.5 113.8,197.4 119.8,195.2 C125.7,193.0 131.7,184.9 137.7,182.3 C143.7,179.8 149.7,190.1 155.6,179.8 C161.6,169.4 167.6,130.5 173.6,120.0 C179.6,109.5 185.5,117.6 191.5,116.9 C197.5,116.2 203.5,116.1 209.5,115.8 C215.4,115.5 221.4,115.4 227.4,115.2 C233.4,115.0 239.4,114.9 245.3,114.6 C251.3,114.2 257.3,113.7 263.3,113.0 C269.3,112.3 275.2,111.1 281.2,110.4 C287.2,109.8 293.2,109.5 299.2,109.1 C305.1,108.8 311.1,109.1 317.1,108.5 C323.1,107.8 329.1,106.2 335.0,105.4 C341.0,104.7 347.0,104.4 353.0,103.9 C358.9,103.4 364.9,103.1 370.9,102.6 C376.9,102.2 382.9,102.2 388.8,101.2 C394.8,100.3 400.8,98.0 406.8,97.0 C412.8,96.0 418.7,95.8 424.7,95.4 C430.7,94.9 436.7,94.6 442.7,94.4 C448.6,94.1 454.6,94.7 460.6,94.1 C466.6,93.5 472.6,91.5 478.5,90.7 C484.5,89.8 490.5,89.4 496.5,88.8 C502.5,88.1 508.4,87.7 514.4,86.6 C520.4,85.6 526.4,83.4 532.4,82.4 C538.3,81.4 544.3,80.9 550.3,80.3 C556.3,79.8 562.3,79.4 568.2,79.0 C574.2,78.7 580.2,78.6 586.2,78.0 C592.2,77.4 598.1,76.1 604.1,75.3 C610.1,74.6 616.1,74.3 622.1,73.8 C628.0,73.3 637.0,72.8 640.0,72.6 L640.0,220.0 L48.0,220.0 Z" fill="url(#areaGrad)"/>
  <path d="M48.0,219.7 C51.0,217.7 60.0,210.6 65.9,207.8 C71.9,204.9 77.9,204.3 83.9,202.6 C89.9,200.9 95.8,198.5 101.8,197.6 C107.8,196.8 113.8,199.7 119.8,197.6 C125.7,195.6 131.7,187.7 137.7,185.3 C143.7,182.8 149.7,192.6 155.6,183.2 C161.6,173.8 167.6,138.2 173.6,128.7 C179.6,119.1 185.5,126.5 191.5,125.9 C197.5,125.3 203.5,125.3 209.5,125.1 C215.4,124.9 221.4,124.9 227.4,124.7 C233.4,124.6 239.4,124.5 245.3,124.2 C251.3,123.9 257.3,123.3 263.3,122.6 C269.3,122.0 275.2,120.6 281.2,120.1 C287.2,119.5 293.2,119.6 299.2,119.4 C305.1,119.2 311.1,119.4 317.1,118.9 C323.1,118.3 329.1,116.7 335.0,115.9 C341.0,115.2 347.0,115.0 353.0,114.6 C358.9,114.1 364.9,113.8 370.9,113.4 C376.9,112.9 382.9,112.9 388.8,112.0 C394.8,111.1 400.8,108.8 406.8,107.9 C412.8,106.9 418.7,106.7 424.7,106.3 C430.7,105.9 436.7,105.5 442.7,105.3 C448.6,105.1 454.6,105.7 460.6,105.1 C466.6,104.5 472.6,102.7 478.5,101.8 C484.5,101.0 490.5,100.7 496.5,100.1 C502.5,99.5 508.4,99.3 514.4,98.4 C520.4,97.5 526.4,95.4 532.4,94.4 C538.3,93.5 544.3,93.1 550.3,92.5 C556.3,92.0 562.3,91.7 568.2,91.3 C574.2,91.0 580.2,91.0 586.2,90.5 C592.2,89.9 598.1,88.7 604.1,88.1 C610.1,87.4 616.1,87.1 622.1,86.7 C628.0,86.3 637.0,85.8 640.0,85.7" fill="none" class="line-openvsx" stroke-width="1.8" stroke-linecap="round" stroke-linejoin="round"/>
  <path d="M48.0,219.9 C51.0,219.9 60.0,219.9 65.9,219.7 C71.9,219.6 77.9,219.3 83.9,219.0 C89.9,218.7 95.8,218.2 101.8,217.9 C107.8,217.7 113.8,217.7 119.8,217.6 C125.7,217.4 131.7,217.2 137.7,217.1 C143.7,216.9 149.7,217.5 155.6,216.6 C161.6,215.6 167.6,212.2 173.6,211.3 C179.6,210.4 185.5,211.1 191.5,211.0 C197.5,210.9 203.5,210.8 209.5,210.7 C215.4,210.6 221.4,210.5 227.4,210.5 C233.4,210.4 239.4,210.4 245.3,210.4 C251.3,210.4 257.3,210.4 263.3,210.4 C269.3,210.4 275.2,210.5 281.2,210.4 C287.2,210.3 293.2,209.9 299.2,209.8 C305.1,209.6 311.1,209.6 317.1,209.6 C323.1,209.6 329.1,209.6 335.0,209.5 C341.0,209.5 347.0,209.4 353.0,209.3 C358.9,209.3 364.9,209.3 370.9,209.3 C376.9,209.2 382.9,209.3 388.8,209.3 C394.8,209.2 400.8,209.2 406.8,209.2 C412.8,209.1 418.7,209.1 424.7,209.1 C430.7,209.1 436.7,209.1 442.7,209.1 C448.6,209.1 454.6,209.0 460.6,209.0 C466.6,208.9 472.6,208.9 478.5,208.8 C484.5,208.8 490.5,208.7 496.5,208.6 C502.5,208.5 508.4,208.3 514.4,208.2 C520.4,208.1 526.4,208.0 532.4,208.0 C538.3,207.9 544.3,207.8 550.3,207.8 C556.3,207.7 562.3,207.7 568.2,207.7 C574.2,207.7 580.2,207.6 586.2,207.5 C592.2,207.5 598.1,207.3 604.1,207.3 C610.1,207.2 616.1,207.2 622.1,207.1 C628.0,207.0 637.0,207.0 640.0,206.9" fill="none" class="line-vscode" stroke-width="1.8" stroke-linecap="round" stroke-linejoin="round"/>
  <path d="M48.0,219.7 C51.0,217.6 60.0,210.5 65.9,207.5 C71.9,204.5 77.9,203.6 83.9,201.6 C89.9,199.6 95.8,196.6 101.8,195.6 C107.8,194.5 113.8,197.4 119.8,195.2 C125.7,193.0 131.7,184.9 137.7,182.3 C143.7,179.8 149.7,190.1 155.6,179.8 C161.6,169.4 167.6,130.5 173.6,120.0 C179.6,109.5 185.5,117.6 191.5,116.9 C197.5,116.2 203.5,116.1 209.5,115.8 C215.4,115.5 221.4,115.4 227.4,115.2 C233.4,115.0 239.4,114.9 245.3,114.6 C251.3,114.2 257.3,113.7 263.3,113.0 C269.3,112.3 275.2,111.1 281.2,110.4 C287.2,109.8 293.2,109.5 299.2,109.1 C305.1,108.8 311.1,109.1 317.1,108.5 C323.1,107.8 329.1,106.2 335.0,105.4 C341.0,104.7 347.0,104.4 353.0,103.9 C358.9,103.4 364.9,103.1 370.9,102.6 C376.9,102.2 382.9,102.2 388.8,101.2 C394.8,100.3 400.8,98.0 406.8,97.0 C412.8,96.0 418.7,95.8 424.7,95.4 C430.7,94.9 436.7,94.6 442.7,94.4 C448.6,94.1 454.6,94.7 460.6,94.1 C466.6,93.5 472.6,91.5 478.5,90.7 C484.5,89.8 490.5,89.4 496.5,88.8 C502.5,88.1 508.4,87.7 514.4,86.6 C520.4,85.6 526.4,83.4 532.4,82.4 C538.3,81.4 544.3,80.9 550.3,80.3 C556.3,79.8 562.3,79.4 568.2,79.0 C574.2,78.7 580.2,78.6 586.2,78.0 C592.2,77.4 598.1,76.1 604.1,75.3 C610.1,74.6 616.1,74.3 622.1,73.8 C628.0,73.3 637.0,72.8 640.0,72.6" fill="none" class="line-total" stroke-width="2.5" stroke-linecap="round" stroke-linejoin="round"/>

  <circle cx="640" cy="72.596" r="4.5" class="dot-total" stroke-width="2"/>
    <text x="658" y="76.596" class="end-label" font-family="-apple-system, BlinkMacSystemFont, 'Segoe UI', Helvetica, sans-serif">Total</text>
    <text x="697" y="76.596" class="end-value" font-family="-apple-system, BlinkMacSystemFont, 'Segoe UI', Helvetica, sans-serif">1.7k</text>
    <circle cx="640" cy="85.668" r="3.5" class="dot-openvsx" stroke-width="1.8"/>
    <text x="658" y="94.596" class="end-label" font-family="-apple-system, BlinkMacSystemFont, 'Segoe UI', Helvetica, sans-serif">Open VSX</text>
    <text x="716.8" y="94.596" class="end-value" font-family="-apple-system, BlinkMacSystemFont, 'Segoe UI', Helvetica, sans-serif">1.6k</text>
    <circle cx="640" cy="206.928" r="3.5" class="dot-vscode" stroke-width="1.8"/>
    <text x="658" y="210.928" class="end-label" font-family="-apple-system, BlinkMacSystemFont, 'Segoe UI', Helvetica, sans-serif">VS Code</text>
    <text x="710.2" y="210.928" class="end-value" font-family="-apple-system, BlinkMacSystemFont, 'Segoe UI', Helvetica, sans-serif">152</text>
</svg>