<svg xmlns="http://www.w3.org/2000/svg" viewBox="0 0 760 260" width="760" height="260" role="img" aria-label="Glassy install history">
  <style>
  svg { color-scheme: light dark; }
  .title      { fill: #1a1a2e; font-size: 15px; font-weight: 600; }
  .subtitle   { fill: #6b7280; font-size: 11px; font-weight: 400; }
  .grid       { stroke: #e8e8ee; }
  .axis-label { fill: #8a8a9a; font-size: 10px; }
  .line-total   { stroke: #e8553d; }
  .line-vscode  { stroke: #5b7cfa; }
  .line-openvsx { stroke: #34c7a0; }
  .dot-total   { fill: transparent; stroke: #e8553d; }
  .dot-vscode  { fill: transparent; stroke: #5b7cfa; }
  .dot-openvsx { fill: transparent; stroke: #34c7a0; }
  .end-label       { fill: #1a1a2e; font-size: 11px; font-weight: 600; }
  .end-value       { fill: #6b7280; font-size: 11px; font-weight: 400; }
  .area-total-top    { stop-color: #e8553d; }
  .area-total-bottom { stop-color: #e8553d; }

  @media (prefers-color-scheme: dark) {
    .title      { fill: #e2e2e8; }
    .subtitle   { fill: #8b949e; }
    .grid       { stroke: #2d2d3d; }
    .axis-label { fill: #6e7681; }
    .line-total   { stroke: #ff9b85; }
    .line-vscode  { stroke: #8da4ff; }
    .line-openvsx { stroke: #5eead4; }
    .dot-total   { stroke: #ff9b85; }
    .dot-vscode  { stroke: #8da4ff; }
    .dot-openvsx { stroke: #5eead4; }
    .end-label       { fill: #e2e2e8; }
    .end-value       { fill: #8b949e; }
    .area-total-top    { stop-color: #ff9b85; }
    .area-total-bottom { stop-color: #ff9b85; }
  }
</style>
  <defs>
    <linearGradient id="areaGrad" x1="0" y1="0" x2="0" y2="1">
      <stop offset="0%" class="area-total-top" stop-opacity="0.18"/>
      <stop offset="60%" class="area-total-bottom" stop-opacity="0.04"/>
      <stop offset="100%" class="area-total-bottom" stop-opacity="0"/>
    </linearGradient>
  </defs>

  <text x="48" y="22" class="title" font-family="-apple-system, BlinkMacSystemFont, 'Segoe UI', Helvetica, sans-serif">Installs</text>
  <text x="48" y="37" class="subtitle" font-family="-apple-system, BlinkMacSystemFont, 'Segoe UI', Helvetica, sans-serif">Updated Jun 6</text>

  <line x1="48" y1="220" x2="640" y2="220" class="grid" stroke-width="0.7"/>
    <text x="40" y="223.5" class="axis-label" text-anchor="end" font-family="-apple-system, BlinkMacSystemFont, 'Segoe UI', Helvetica, sans-serif">0</text>
    <line x1="48" y1="177" x2="640" y2="177" class="grid" stroke-width="0.7"/>
    <text x="40" y="180.5" class="axis-label" text-anchor="end" font-family="-apple-system, BlinkMacSystemFont, 'Segoe UI', Helvetica, sans-serif">500</text>
    <line x1="48" y1="134" x2="640" y2="134" class="grid" stroke-width="0.7"/>
    <text x="40" y="137.5" class="axis-label" text-anchor="end" font-family="-apple-system, BlinkMacSystemFont, 'Segoe UI', Helvetica, sans-serif">1k</text>
    <line x1="48" y1="91" x2="640" y2="91" class="grid" stroke-width="0.7"/>
    <text x="40" y="94.5" class="axis-label" text-anchor="end" font-family="-apple-system, BlinkMacSystemFont, 'Segoe UI', Helvetica, sans-serif">1.5k</text>
    <line x1="48" y1="48" x2="640" y2="48" class="grid" stroke-width="0.7"/>
    <text x="40" y="51.5" class="axis-label" text-anchor="end" font-family="-apple-system, BlinkMacSystemFont, 'Segoe UI', Helvetica, sans-serif">2k</text>
  <text x="48" y="248" class="axis-label" text-anchor="middle" font-family="-apple-system, BlinkMacSystemFont, 'Segoe UI', Helvetica, sans-serif">Mar 27</text>
    <text x="160.76190476190476" y="248" class="axis-label" text-anchor="middle" font-family="-apple-system, BlinkMacSystemFont, 'Segoe UI', Helvetica, sans-serif">May 3</text>
    <text x="287.6190476190476" y="248" class="axis-label" text-anchor="middle" font-family="-apple-system, BlinkMacSystemFont, 'Segoe UI', Helvetica, sans-serif">May 12</text>
    <text x="400.38095238095235" y="248" class="axis-label" text-anchor="middle" font-family="-apple-system, BlinkMacSystemFont, 'Segoe UI', Helvetica, sans-serif">May 20</text>
    <text x="527.2380952380952" y="248" class="axis-label" text-anchor="middle" font-family="-apple-system, BlinkMacSystemFont, 'Segoe UI', Helvetica, sans-serif">May 29</text>
    <text x="640" y="248" class="axis-label" text-anchor="middle" font-family="-apple-system, BlinkMacSystemFont, 'Segoe UI', Helvetica, sans-serif">Jun 6</text>

  <path d="M48.0,219.7 C50.3,217.6 57.4,210.5 62.1,207.5 C66.8,204.5 71.5,203.6 76.2,201.6 C80.9,199.6 85.6,196.6 90.3,195.6 C95.0,194.5 99.7,197.4 104.4,195.2 C109.1,193.0 113.8,184.9 118.5,182.3 C123.2,179.8 127.9,190.1 132.6,179.8 C137.3,169.4 142.0,130.5 146.7,120.0 C151.4,109.5 156.1,117.6 160.8,116.9 C165.5,116.2 170.2,116.1 174.9,115.8 C179.6,115.5 184.3,115.4 189.0,115.2 C193.7,115.0 198.3,114.9 203.0,114.6 C207.7,114.2 212.4,113.7 217.1,113.0 C221.8,112.3 226.5,111.1 231.2,110.4 C235.9,109.8 240.6,109.5 245.3,109.1 C250.0,108.8 254.7,109.1 259.4,108.5 C264.1,107.8 268.8,106.2 273.5,105.4 C278.2,104.7 282.9,104.4 287.6,103.9 C292.3,103.4 297.0,103.1 301.7,102.6 C306.4,102.2 311.1,102.2 315.8,101.2 C320.5,100.3 325.2,98.0 329.9,97.0 C334.6,96.0 339.3,95.8 344.0,95.4 C348.7,94.9 353.4,94.6 358.1,94.4 C362.8,94.1 367.5,94.7 372.2,94.1 C376.9,93.5 381.6,91.5 386.3,90.7 C391.0,89.8 395.7,89.4 400.4,88.8 C405.1,88.1 409.8,87.7 414.5,86.6 C419.2,85.6 423.9,83.4 428.6,82.4 C433.3,81.4 438.0,80.9 442.7,80.3 C447.4,79.8 452.1,79.4 456.8,79.0 C461.5,78.7 466.2,78.6 470.9,78.0 C475.6,77.4 480.3,76.1 485.0,75.3 C489.7,74.6 494.3,74.3 499.0,73.8 C503.7,73.3 508.4,73.0 513.1,72.6 C517.8,72.2 522.5,72.0 527.2,71.7 C531.9,71.3 536.6,70.8 541.3,70.6 C546.0,70.4 550.7,70.4 555.4,70.4 C560.1,70.3 564.8,71.4 569.5,70.3 C574.2,69.1 578.9,64.8 583.6,63.3 C588.3,61.8 593.0,61.9 597.7,61.2 C602.4,60.6 607.1,59.9 611.8,59.3 C616.5,58.6 621.2,57.8 625.9,57.4 C630.6,56.9 637.7,56.7 640.0,56.5 L640.0,220.0 L48.0,220.0 Z" fill="url(#areaGrad)"/>
  <path d="M48.0,219.7 C50.3,217.7 57.4,210.6 62.1,207.8 C66.8,204.9 71.5,204.3 76.2,202.6 C80.9,200.9 85.6,198.5 90.3,197.6 C95.0,196.8 99.7,199.7 104.4,197.6 C109.1,195.6 113.8,187.7 118.5,185.3 C123.2,182.8 127.9,192.6 132.6,183.2 C137.3,173.8 142.0,138.2 146.7,128.7 C151.4,119.1 156.1,126.5 160.8,125.9 C165.5,125.3 170.2,125.3 174.9,125.1 C179.6,124.9 184.3,124.9 189.0,124.7 C193.7,124.6 198.3,124.5 203.0,124.2 C207.7,123.9 212.4,123.3 217.1,122.6 C221.8,122.0 226.5,120.6 231.2,120.1 C235.9,119.5 240.6,119.6 245.3,119.4 C250.0,119.2 254.7,119.4 259.4,118.9 C264.1,118.3 268.8,116.7 273.5,115.9 C278.2,115.2 282.9,115.0 287.6,114.6 C292.3,114.1 297.0,113.8 301.7,113.4 C306.4,112.9 311.1,112.9 315.8,112.0 C320.5,111.1 325.2,108.8 329.9,107.9 C334.6,106.9 339.3,106.7 344.0,106.3 C348.7,105.9 353.4,105.5 358.1,105.3 C362.8,105.1 367.5,105.7 372.2,105.1 C376.9,104.5 381.6,102.7 386.3,101.8 C391.0,101.0 395.7,100.7 400.4,100.1 C405.1,99.5 409.8,99.3 414.5,98.4 C419.2,97.5 423.9,95.4 428.6,94.4 C433.3,93.5 438.0,93.1 442.7,92.5 C447.4,92.0 452.1,91.7 456.8,91.3 C461.5,91.0 466.2,91.0 470.9,90.5 C475.6,89.9 480.3,88.7 485.0,88.1 C489.7,87.4 494.3,87.1 499.0,86.7 C503.7,86.3 508.4,86.0 513.1,85.7 C517.8,85.4 522.5,85.2 527.2,85.0 C531.9,84.7 536.6,84.3 541.3,84.1 C546.0,84.0 550.7,84.1 555.4,84.1 C560.1,84.1 564.8,85.2 569.5,84.1 C574.2,83.0 578.9,78.9 583.6,77.4 C588.3,76.0 593.0,76.0 597.7,75.3 C602.4,74.7 607.1,74.1 611.8,73.5 C616.5,72.8 621.2,72.0 625.9,71.6 C630.6,71.1 637.7,70.8 640.0,70.7" fill="none" class="line-openvsx" stroke-width="1.8" stroke-linecap="round" stroke-linejoin="round"/>
  <path d="M48.0,219.9 C50.3,219.9 57.4,219.9 62.1,219.7 C66.8,219.6 71.5,219.3 76.2,219.0 C80.9,218.7 85.6,218.2 90.3,217.9 C95.0,217.7 99.7,217.7 104.4,217.6 C109.1,217.4 113.8,217.2 118.5,217.1 C123.2,216.9 127.9,217.5 132.6,216.6 C137.3,215.6 142.0,212.2 146.7,211.3 C151.4,210.4 156.1,211.1 160.8,211.0 C165.5,210.9 170.2,210.8 174.9,210.7 C179.6,210.6 184.3,210.5 189.0,210.5 C193.7,210.4 198.3,210.4 203.0,210.4 C207.7,210.4 212.4,210.4 217.1,210.4 C221.8,210.4 226.5,210.5 231.2,210.4 C235.9,210.3 240.6,209.9 245.3,209.8 C250.0,209.6 254.7,209.6 259.4,209.6 C264.1,209.6 268.8,209.6 273.5,209.5 C278.2,209.5 282.9,209.4 287.6,209.3 C292.3,209.3 297.0,209.3 301.7,209.3 C306.4,209.2 311.1,209.3 315.8,209.3 C320.5,209.2 325.2,209.2 329.9,209.2 C334.6,209.1 339.3,209.1 344.0,209.1 C348.7,209.1 353.4,209.1 358.1,209.1 C362.8,209.1 367.5,209.0 372.2,209.0 C376.9,208.9 381.6,208.9 386.3,208.8 C391.0,208.8 395.7,208.7 400.4,208.6 C405.1,208.5 409.8,208.3 414.5,208.2 C419.2,208.1 423.9,208.0 428.6,208.0 C433.3,207.9 438.0,207.8 442.7,207.8 C447.4,207.7 452.1,207.7 456.8,207.7 C461.5,207.7 466.2,207.6 470.9,207.5 C475.6,207.5 480.3,207.3 485.0,207.3 C489.7,207.2 494.3,207.2 499.0,207.1 C503.7,207.0 508.4,207.0 513.1,206.9 C517.8,206.9 522.5,206.7 527.2,206.7 C531.9,206.6 536.6,206.6 541.3,206.5 C546.0,206.4 550.7,206.3 555.4,206.2 C560.1,206.2 564.8,206.2 569.5,206.2 C574.2,206.1 578.9,205.9 583.6,205.9 C588.3,205.9 593.0,205.9 597.7,205.9 C602.4,205.9 607.1,205.8 611.8,205.8 C616.5,205.8 621.2,205.8 625.9,205.8 C630.6,205.8 637.7,205.8 640.0,205.8" fill="none" class="line-vscode" stroke-width="1.8" stroke-linecap="round" stroke-linejoin="round"/>
  <path d="M48.0,219.7 C50.3,217.6 57.4,210.5 62.1,207.5 C66.8,204.5 71.5,203.6 76.2,201.6 C80.9,199.6 85.6,196.6 90.3,195.6 C95.0,194.5 99.7,197.4 104.4,195.2 C109.1,193.0 113.8,184.9 118.5,182.3 C123.2,179.8 127.9,190.1 132.6,179.8 C137.3,169.4 142.0,130.5 146.7,120.0 C151.4,109.5 156.1,117.6 160.8,116.9 C165.5,116.2 170.2,116.1 174.9,115.8 C179.6,115.5 184.3,115.4 189.0,115.2 C193.7,115.0 198.3,114.9 203.0,114.6 C207.7,114.2 212.4,113.7 217.1,113.0 C221.8,112.3 226.5,111.1 231.2,110.4 C235.9,109.8 240.6,109.5 245.3,109.1 C250.0,108.8 254.7,109.1 259.4,108.5 C264.1,107.8 268.8,106.2 273.5,105.4 C278.2,104.7 282.9,104.4 287.6,103.9 C292.3,103.4 297.0,103.1 301.7,102.6 C306.4,102.2 311.1,102.2 315.8,101.2 C320.5,100.3 325.2,98.0 329.9,97.0 C334.6,96.0 339.3,95.8 344.0,95.4 C348.7,94.9 353.4,94.6 358.1,94.4 C362.8,94.1 367.5,94.7 372.2,94.1 C376.9,93.5 381.6,91.5 386.3,90.7 C391.0,89.8 395.7,89.4 400.4,88.8 C405.1,88.1 409.8,87.7 414.5,86.6 C419.2,85.6 423.9,83.4 428.6,82.4 C433.3,81.4 438.0,80.9 442.7,80.3 C447.4,79.8 452.1,79.4 456.8,79.0 C461.5,78.7 466.2,78.6 470.9,78.0 C475.6,77.4 480.3,76.1 485.0,75.3 C489.7,74.6 494.3,74.3 499.0,73.8 C503.7,73.3 508.4,73.0 513.1,72.6 C517.8,72.2 522.5,72.0 527.2,71.7 C531.9,71.3 536.6,70.8 541.3,70.6 C546.0,70.4 550.7,70.4 555.4,70.4 C560.1,70.3 564.8,71.4 569.5,70.3 C574.2,69.1 578.9,64.8 583.6,63.3 C588.3,61.8 593.0,61.9 597.7,61.2 C602.4,60.6 607.1,59.9 611.8,59.3 C616.5,58.6 621.2,57.8 625.9,57.4 C630.6,56.9 637.7,56.7 640.0,56.5" fill="none" class="line-total" stroke-width="2.5" stroke-linecap="round" stroke-linejoin="round"/>

  <circle cx="640" cy="56.51400000000001" r="4.5" class="dot-total" stroke-width="2"/>
    <text x="658" y="60.51400000000001" class="end-label" font-family="-apple-system, BlinkMacSystemFont, 'Segoe UI', Helvetica, sans-serif">Total</text>
    <text x="697" y="60.51400000000001" class="end-value" font-family="-apple-system, BlinkMacSystemFont, 'Segoe UI', Helvetica, sans-serif">1.9k</text>
    <circle cx="640" cy="70.70400000000001" r="3.5" class="dot-openvsx" stroke-width="1.8"/>
    <text x="658" y="78.51400000000001" class="end-label" font-family="-apple-system, BlinkMacSystemFont, 'Segoe UI', Helvetica, sans-serif">Open VSX</text>
    <text x="716.8" y="78.51400000000001" class="end-value" font-family="-apple-system, BlinkMacSystemFont, 'Segoe UI', Helvetica, sans-serif">1.7k</text>
    <circle cx="640" cy="205.81" r="3.5" class="dot-vscode" stroke-width="1.8"/>
    <text x="658" y="209.81" class="end-label" font-family="-apple-system, BlinkMacSystemFont, 'Segoe UI', Helvetica, sans-serif">VS Code</text>
    <text x="710.2" y="209.81" class="end-value" font-family="-apple-system, BlinkMacSystemFont, 'Segoe UI', Helvetica, sans-serif">165</text>
</svg>