<svg xmlns="http://www.w3.org/2000/svg" viewBox="0 0 760 260" width="760" height="260" role="img" aria-label="Glassy install history">
  <style>
  svg { color-scheme: light dark; }
  .title      { fill: #1a1a2e; font-size: 15px; font-weight: 600; }
  .subtitle   { fill: #6b7280; font-size: 11px; font-weight: 400; }
  .grid       { stroke: #e8e8ee; }
  .axis-label { fill: #8a8a9a; font-size: 10px; }
  .line-total   { stroke: #e8553d; }
  .line-vscode  { stroke: #5b7cfa; }
  .line-openvsx { stroke: #34c7a0; }
  .dot-total   { fill: transparent; stroke: #e8553d; }
  .dot-vscode  { fill: transparent; stroke: #5b7cfa; }
  .dot-openvsx { fill: transparent; stroke: #34c7a0; }
  .end-label       { fill: #1a1a2e; font-size: 11px; font-weight: 600; }
  .end-value       { fill: #6b7280; font-size: 11px; font-weight: 400; }
  .area-total-top    { stop-color: #e8553d; }
  .area-total-bottom { stop-color: #e8553d; }

  @media (prefers-color-scheme: dark) {
    .title      { fill: #e2e2e8; }
    .subtitle   { fill: #8b949e; }
    .grid       { stroke: #2d2d3d; }
    .axis-label { fill: #6e7681; }
    .line-total   { stroke: #ff9b85; }
    .line-vscode  { stroke: #8da4ff; }
    .line-openvsx { stroke: #5eead4; }
    .dot-total   { stroke: #ff9b85; }
    .dot-vscode  { stroke: #8da4ff; }
    .dot-openvsx { stroke: #5eead4; }
    .end-label       { fill: #e2e2e8; }
    .end-value       { fill: #8b949e; }
    .area-total-top    { stop-color: #ff9b85; }
    .area-total-bottom { stop-color: #ff9b85; }
  }
</style>
  <defs>
    <linearGradient id="areaGrad" x1="0" y1="0" x2="0" y2="1">
      <stop offset="0%" class="area-total-top" stop-opacity="0.18"/>
      <stop offset="60%" class="area-total-bottom" stop-opacity="0.04"/>
      <stop offset="100%" class="area-total-bottom" stop-opacity="0"/>
    </linearGradient>
  </defs>

  <text x="48" y="22" class="title" font-family="-apple-system, BlinkMacSystemFont, 'Segoe UI', Helvetica, sans-serif">Installs</text>
  <text x="48" y="37" class="subtitle" font-family="-apple-system, BlinkMacSystemFont, 'Segoe UI', Helvetica, sans-serif">Updated Jun 21</text>

  <line x1="48" y1="220" x2="640" y2="220" class="grid" stroke-width="0.7"/>
    <text x="40" y="223.5" class="axis-label" text-anchor="end" font-family="-apple-system, BlinkMacSystemFont, 'Segoe UI', Helvetica, sans-serif">0</text>
    <line x1="48" y1="162.66666666666669" x2="640" y2="162.66666666666669" class="grid" stroke-width="0.7"/>
    <text x="40" y="166.16666666666669" class="axis-label" text-anchor="end" font-family="-apple-system, BlinkMacSystemFont, 'Segoe UI', Helvetica, sans-serif">1k</text>
    <line x1="48" y1="105.33333333333334" x2="640" y2="105.33333333333334" class="grid" stroke-width="0.7"/>
    <text x="40" y="108.83333333333334" class="axis-label" text-anchor="end" font-family="-apple-system, BlinkMacSystemFont, 'Segoe UI', Helvetica, sans-serif">2k</text>
    <line x1="48" y1="48" x2="640" y2="48" class="grid" stroke-width="0.7"/>
    <text x="40" y="51.5" class="axis-label" text-anchor="end" font-family="-apple-system, BlinkMacSystemFont, 'Segoe UI', Helvetica, sans-serif">3k</text>
  <text x="48" y="248" class="axis-label" text-anchor="middle" font-family="-apple-system, BlinkMacSystemFont, 'Segoe UI', Helvetica, sans-serif">Mar 27</text>
    <text x="162.24561403508773" y="248" class="axis-label" text-anchor="middle" font-family="-apple-system, BlinkMacSystemFont, 'Segoe UI', Helvetica, sans-serif">May 6</text>
    <text x="286.8771929824561" y="248" class="axis-label" text-anchor="middle" font-family="-apple-system, BlinkMacSystemFont, 'Segoe UI', Helvetica, sans-serif">May 18</text>
    <text x="401.12280701754383" y="248" class="axis-label" text-anchor="middle" font-family="-apple-system, BlinkMacSystemFont, 'Segoe UI', Helvetica, sans-serif">May 29</text>
    <text x="525.7543859649122" y="248" class="axis-label" text-anchor="middle" font-family="-apple-system, BlinkMacSystemFont, 'Segoe UI', Helvetica, sans-serif">Jun 10</text>
    <text x="640" y="248" class="axis-label" text-anchor="middle" font-family="-apple-system, BlinkMacSystemFont, 'Segoe UI', Helvetica, sans-serif">Jun 21</text>

  <path d="M48.0,219.8 C49.7,218.4 54.9,213.7 58.4,211.7 C61.8,209.7 65.3,209.1 68.8,207.7 C72.2,206.4 75.7,204.4 79.2,203.7 C82.6,203.0 86.1,205.0 89.5,203.5 C93.0,202.0 96.5,196.6 99.9,194.9 C103.4,193.2 106.9,200.1 110.3,193.2 C113.8,186.2 117.2,160.3 120.7,153.3 C124.2,146.3 127.6,151.7 131.1,151.3 C134.5,150.8 138.0,150.7 141.5,150.5 C144.9,150.3 148.4,150.2 151.9,150.1 C155.3,150.0 158.8,149.9 162.2,149.7 C165.7,149.5 169.2,149.1 172.6,148.7 C176.1,148.2 179.6,147.4 183.0,147.0 C186.5,146.5 189.9,146.3 193.4,146.1 C196.9,145.9 200.3,146.0 203.8,145.6 C207.3,145.2 210.7,144.1 214.2,143.6 C217.6,143.1 221.1,142.9 224.6,142.6 C228.0,142.3 231.5,142.0 234.9,141.7 C238.4,141.4 241.9,141.4 245.3,140.8 C248.8,140.2 252.3,138.7 255.7,138.0 C259.2,137.4 262.6,137.2 266.1,136.9 C269.6,136.6 273.0,136.4 276.5,136.2 C280.0,136.1 283.4,136.5 286.9,136.1 C290.3,135.7 293.8,134.4 297.3,133.8 C300.7,133.2 304.2,133.0 307.6,132.5 C311.1,132.1 314.6,131.8 318.0,131.1 C321.5,130.4 325.0,129.0 328.4,128.3 C331.9,127.6 335.3,127.3 338.8,126.9 C342.3,126.5 345.7,126.3 349.2,126.0 C352.7,125.8 356.1,125.8 359.6,125.3 C363.0,124.9 366.5,124.0 370.0,123.6 C373.4,123.1 376.9,122.8 380.4,122.5 C383.8,122.2 387.3,122.0 390.7,121.7 C394.2,121.5 397.7,121.3 401.1,121.1 C404.6,120.9 408.0,120.6 411.5,120.4 C415.0,120.3 418.4,120.3 421.9,120.2 C425.4,120.2 428.8,121.0 432.3,120.2 C435.7,119.4 439.2,116.5 442.7,115.5 C446.1,114.5 449.6,114.6 453.1,114.2 C456.5,113.7 460.0,113.3 463.4,112.8 C466.9,112.4 470.4,111.9 473.8,111.6 C477.3,111.3 480.7,111.2 484.2,111.0 C487.7,110.8 491.1,110.4 494.6,110.2 C498.1,110.0 501.5,110.1 505.0,109.7 C508.4,109.4 511.9,108.6 515.4,108.1 C518.8,107.7 522.3,107.6 525.8,107.2 C529.2,106.9 532.7,106.4 536.1,106.2 C539.6,105.9 543.1,106.0 546.5,105.7 C550.0,105.5 553.5,104.8 556.9,104.5 C560.4,104.2 563.8,104.2 567.3,104.0 C570.8,103.7 574.2,103.5 577.7,103.2 C581.1,102.9 584.6,102.5 588.1,102.2 C591.5,101.9 595.0,101.5 598.5,101.2 C601.9,100.9 605.4,100.8 608.8,100.3 C612.3,99.9 615.8,99.2 619.2,98.7 C622.7,98.3 626.2,98.1 629.6,97.7 C633.1,97.4 638.3,96.8 640.0,96.6 L640.0,220.0 L48.0,220.0 Z" fill="url(#areaGrad)"/>
  <path d="M48.0,219.8 C49.7,218.5 54.9,213.8 58.4,211.9 C61.8,210.0 65.3,209.5 68.8,208.4 C72.2,207.3 75.7,205.6 79.2,205.1 C82.6,204.5 86.1,206.5 89.5,205.1 C93.0,203.7 96.5,198.4 99.9,196.8 C103.4,195.2 106.9,201.7 110.3,195.5 C113.8,189.2 117.2,165.5 120.7,159.1 C124.2,152.7 127.6,157.7 131.1,157.3 C134.5,156.9 138.0,156.8 141.5,156.7 C144.9,156.6 148.4,156.6 151.9,156.5 C155.3,156.4 158.8,156.4 162.2,156.1 C165.7,155.9 169.2,155.6 172.6,155.1 C176.1,154.6 179.6,153.7 183.0,153.4 C186.5,153.0 189.9,153.1 193.4,152.9 C196.9,152.8 200.3,153.0 203.8,152.6 C207.3,152.2 210.7,151.1 214.2,150.6 C217.6,150.1 221.1,150.0 224.6,149.7 C228.0,149.4 231.5,149.2 234.9,148.9 C238.4,148.6 241.9,148.6 245.3,148.0 C248.8,147.4 252.3,145.9 255.7,145.2 C259.2,144.6 262.6,144.5 266.1,144.2 C269.6,143.9 273.0,143.7 276.5,143.5 C280.0,143.4 283.4,143.8 286.9,143.4 C290.3,143.0 293.8,141.8 297.3,141.2 C300.7,140.7 304.2,140.5 307.6,140.1 C311.1,139.7 314.6,139.6 318.0,138.9 C321.5,138.3 325.0,136.9 328.4,136.3 C331.9,135.6 335.3,135.4 338.8,135.0 C342.3,134.7 345.7,134.5 349.2,134.2 C352.7,134.0 356.1,134.0 359.6,133.7 C363.0,133.3 366.5,132.5 370.0,132.1 C373.4,131.6 376.9,131.4 380.4,131.1 C383.8,130.9 387.3,130.6 390.7,130.4 C394.2,130.3 397.7,130.2 401.1,130.0 C404.6,129.8 408.0,129.5 411.5,129.4 C415.0,129.3 418.4,129.4 421.9,129.4 C425.4,129.4 428.8,130.2 432.3,129.4 C435.7,128.7 439.2,125.9 442.7,124.9 C446.1,124.0 449.6,124.0 453.1,123.6 C456.5,123.1 460.0,122.7 463.4,122.3 C466.9,121.9 470.4,121.3 473.8,121.0 C477.3,120.7 480.7,120.7 484.2,120.5 C487.7,120.2 491.1,119.9 494.6,119.7 C498.1,119.5 501.5,119.6 505.0,119.2 C508.4,118.9 511.9,118.0 515.4,117.6 C518.8,117.2 522.3,117.0 525.8,116.7 C529.2,116.4 532.7,115.9 536.1,115.7 C539.6,115.4 543.1,115.5 546.5,115.2 C550.0,114.9 553.5,114.3 556.9,114.0 C560.4,113.8 563.8,113.8 567.3,113.6 C570.8,113.4 574.2,113.2 577.7,112.9 C581.1,112.6 584.6,112.3 588.1,112.0 C591.5,111.7 595.0,111.4 598.5,111.1 C601.9,110.8 605.4,110.6 608.8,110.3 C612.3,109.9 615.8,109.2 619.2,108.8 C622.7,108.4 626.2,108.2 629.6,107.9 C633.1,107.5 638.3,107.0 640.0,106.8" fill="none" class="line-openvsx" stroke-width="1.8" stroke-linecap="round" stroke-linejoin="round"/>
  <path d="M48.0,219.9 C49.7,219.9 54.9,219.9 58.4,219.8 C61.8,219.7 65.3,219.5 68.8,219.3 C72.2,219.1 75.7,218.8 79.2,218.6 C82.6,218.5 86.1,218.5 89.5,218.4 C93.0,218.3 96.5,218.2 99.9,218.1 C103.4,217.9 106.9,218.3 110.3,217.7 C113.8,217.1 117.2,214.8 120.7,214.2 C124.2,213.6 127.6,214.0 131.1,214.0 C134.5,213.9 138.0,213.9 141.5,213.8 C144.9,213.8 148.4,213.7 151.9,213.6 C155.3,213.6 158.8,213.6 162.2,213.6 C165.7,213.6 169.2,213.6 172.6,213.6 C176.1,213.6 179.6,213.6 183.0,213.6 C186.5,213.5 189.9,213.3 193.4,213.2 C196.9,213.1 200.3,213.1 203.8,213.1 C207.3,213.0 210.7,213.0 214.2,213.0 C217.6,213.0 221.1,212.9 224.6,212.9 C228.0,212.9 231.5,212.8 234.9,212.8 C238.4,212.8 241.9,212.8 245.3,212.8 C248.8,212.8 252.3,212.8 255.7,212.8 C259.2,212.8 262.6,212.7 266.1,212.7 C269.6,212.7 273.0,212.7 276.5,212.7 C280.0,212.7 283.4,212.7 286.9,212.7 C290.3,212.6 293.8,212.6 297.3,212.5 C300.7,212.5 304.2,212.5 307.6,212.4 C311.1,212.4 314.6,212.2 318.0,212.1 C321.5,212.1 325.0,212.0 328.4,212.0 C331.9,211.9 335.3,211.9 338.8,211.9 C342.3,211.8 345.7,211.8 349.2,211.8 C352.7,211.8 356.1,211.7 359.6,211.7 C363.0,211.6 366.5,211.6 370.0,211.5 C373.4,211.5 376.9,211.4 380.4,211.4 C383.8,211.4 387.3,211.3 390.7,211.3 C394.2,211.2 397.7,211.2 401.1,211.1 C404.6,211.1 408.0,211.0 411.5,211.0 C415.0,211.0 418.4,210.9 421.9,210.8 C425.4,210.8 428.8,210.8 432.3,210.8 C435.7,210.7 439.2,210.6 442.7,210.6 C446.1,210.6 449.6,210.6 453.1,210.6 C456.5,210.6 460.0,210.5 463.4,210.5 C466.9,210.5 470.4,210.5 473.8,210.5 C477.3,210.5 480.7,210.5 484.2,210.5 C487.7,210.5 491.1,210.5 494.6,210.5 C498.1,210.5 501.5,210.5 505.0,210.5 C508.4,210.5 511.9,210.5 515.4,210.5 C518.8,210.5 522.3,210.5 525.8,210.5 C529.2,210.5 532.7,210.5 536.1,210.5 C539.6,210.5 543.1,210.5 546.5,210.5 C550.0,210.5 553.5,210.5 556.9,210.5 C560.4,210.5 563.8,210.4 567.3,210.4 C570.8,210.3 574.2,210.3 577.7,210.3 C581.1,210.2 584.6,210.2 588.1,210.2 C591.5,210.2 595.0,210.2 598.5,210.1 C601.9,210.1 605.4,210.1 608.8,210.1 C612.3,210.1 615.8,210.0 619.2,210.0 C622.7,209.9 626.2,209.9 629.6,209.9 C633.1,209.8 638.3,209.8 640.0,209.8" fill="none" class="line-vscode" stroke-width="1.8" stroke-linecap="round" stroke-linejoin="round"/>
  <path d="M48.0,219.8 C49.7,218.4 54.9,213.7 58.4,211.7 C61.8,209.7 65.3,209.1 68.8,207.7 C72.2,206.4 75.7,204.4 79.2,203.7 C82.6,203.0 86.1,205.0 89.5,203.5 C93.0,202.0 96.5,196.6 99.9,194.9 C103.4,193.2 106.9,200.1 110.3,193.2 C113.8,186.2 117.2,160.3 120.7,153.3 C124.2,146.3 127.6,151.7 131.1,151.3 C134.5,150.8 138.0,150.7 141.5,150.5 C144.9,150.3 148.4,150.2 151.9,150.1 C155.3,150.0 158.8,149.9 162.2,149.7 C165.7,149.5 169.2,149.1 172.6,148.7 C176.1,148.2 179.6,147.4 183.0,147.0 C186.5,146.5 189.9,146.3 193.4,146.1 C196.9,145.9 200.3,146.0 203.8,145.6 C207.3,145.2 210.7,144.1 214.2,143.6 C217.6,143.1 221.1,142.9 224.6,142.6 C228.0,142.3 231.5,142.0 234.9,141.7 C238.4,141.4 241.9,141.4 245.3,140.8 C248.8,140.2 252.3,138.7 255.7,138.0 C259.2,137.4 262.6,137.2 266.1,136.9 C269.6,136.6 273.0,136.4 276.5,136.2 C280.0,136.1 283.4,136.5 286.9,136.1 C290.3,135.7 293.8,134.4 297.3,133.8 C300.7,133.2 304.2,133.0 307.6,132.5 C311.1,132.1 314.6,131.8 318.0,131.1 C321.5,130.4 325.0,129.0 328.4,128.3 C331.9,127.6 335.3,127.3 338.8,126.9 C342.3,126.5 345.7,126.3 349.2,126.0 C352.7,125.8 356.1,125.8 359.6,125.3 C363.0,124.9 366.5,124.0 370.0,123.6 C373.4,123.1 376.9,122.8 380.4,122.5 C383.8,122.2 387.3,122.0 390.7,121.7 C394.2,121.5 397.7,121.3 401.1,121.1 C404.6,120.9 408.0,120.6 411.5,120.4 C415.0,120.3 418.4,120.3 421.9,120.2 C425.4,120.2 428.8,121.0 432.3,120.2 C435.7,119.4 439.2,116.5 442.7,115.5 C446.1,114.5 449.6,114.6 453.1,114.2 C456.5,113.7 460.0,113.3 463.4,112.8 C466.9,112.4 470.4,111.9 473.8,111.6 C477.3,111.3 480.7,111.2 484.2,111.0 C487.7,110.8 491.1,110.4 494.6,110.2 C498.1,110.0 501.5,110.1 505.0,109.7 C508.4,109.4 511.9,108.6 515.4,108.1 C518.8,107.7 522.3,107.6 525.8,107.2 C529.2,106.9 532.7,106.4 536.1,106.2 C539.6,105.9 543.1,106.0 546.5,105.7 C550.0,105.5 553.5,104.8 556.9,104.5 C560.4,104.2 563.8,104.2 567.3,104.0 C570.8,103.7 574.2,103.5 577.7,103.2 C581.1,102.9 584.6,102.5 588.1,102.2 C591.5,101.9 595.0,101.5 598.5,101.2 C601.9,100.9 605.4,100.8 608.8,100.3 C612.3,99.9 615.8,99.2 619.2,98.7 C622.7,98.3 626.2,98.1 629.6,97.7 C633.1,97.4 638.3,96.8 640.0,96.6" fill="none" class="line-total" stroke-width="2.5" stroke-linecap="round" stroke-linejoin="round"/>

  <circle cx="640" cy="96.61866666666666" r="4.5" class="dot-total" stroke-width="2"/>
    <text x="658" y="100.61866666666666" class="end-label" font-family="-apple-system, BlinkMacSystemFont, 'Segoe UI', Helvetica, sans-serif">Total</text>
    <text x="697" y="100.61866666666666" class="end-value" font-family="-apple-system, BlinkMacSystemFont, 'Segoe UI', Helvetica, sans-serif">2.2k</text>
    <circle cx="640" cy="106.824" r="3.5" class="dot-openvsx" stroke-width="1.8"/>
    <text x="658" y="118.61866666666666" class="end-label" font-family="-apple-system, BlinkMacSystemFont, 'Segoe UI', Helvetica, sans-serif">Open VSX</text>
    <text x="716.8" y="118.61866666666666" class="end-value" font-family="-apple-system, BlinkMacSystemFont, 'Segoe UI', Helvetica, sans-serif">2k</text>
    <circle cx="640" cy="209.79466666666667" r="3.5" class="dot-vscode" stroke-width="1.8"/>
    <text x="658" y="213.79466666666667" class="end-label" font-family="-apple-system, BlinkMacSystemFont, 'Segoe UI', Helvetica, sans-serif">VS Code</text>
    <text x="710.2" y="213.79466666666667" class="end-value" font-family="-apple-system, BlinkMacSystemFont, 'Segoe UI', Helvetica, sans-serif">178</text>
</svg>