<svg xmlns="http://www.w3.org/2000/svg" viewBox="0 0 760 260" width="760" height="260" role="img" aria-label="Glassy install history">
  <style>
  svg { color-scheme: light dark; }
  .title      { fill: #1a1a2e; font-size: 15px; font-weight: 600; }
  .subtitle   { fill: #6b7280; font-size: 11px; font-weight: 400; }
  .grid       { stroke: #e8e8ee; }
  .axis-label { fill: #8a8a9a; font-size: 10px; }
  .line-total   { stroke: #e8553d; }
  .line-vscode  { stroke: #5b7cfa; }
  .line-openvsx { stroke: #34c7a0; }
  .dot-total   { fill: transparent; stroke: #e8553d; }
  .dot-vscode  { fill: transparent; stroke: #5b7cfa; }
  .dot-openvsx { fill: transparent; stroke: #34c7a0; }
  .end-label       { fill: #1a1a2e; font-size: 11px; font-weight: 600; }
  .end-value       { fill: #6b7280; font-size: 11px; font-weight: 400; }
  .area-total-top    { stop-color: #e8553d; }
  .area-total-bottom { stop-color: #e8553d; }

  @media (prefers-color-scheme: dark) {
    .title      { fill: #e2e2e8; }
    .subtitle   { fill: #8b949e; }
    .grid       { stroke: #2d2d3d; }
    .axis-label { fill: #6e7681; }
    .line-total   { stroke: #ff9b85; }
    .line-vscode  { stroke: #8da4ff; }
    .line-openvsx { stroke: #5eead4; }
    .dot-total   { stroke: #ff9b85; }
    .dot-vscode  { stroke: #8da4ff; }
    .dot-openvsx { stroke: #5eead4; }
    .end-label       { fill: #e2e2e8; }
    .end-value       { fill: #8b949e; }
    .area-total-top    { stop-color: #ff9b85; }
    .area-total-bottom { stop-color: #ff9b85; }
  }
</style>
  <defs>
    <linearGradient id="areaGrad" x1="0" y1="0" x2="0" y2="1">
      <stop offset="0%" class="area-total-top" stop-opacity="0.18"/>
      <stop offset="60%" class="area-total-bottom" stop-opacity="0.04"/>
      <stop offset="100%" class="area-total-bottom" stop-opacity="0"/>
    </linearGradient>
  </defs>

  <text x="48" y="22" class="title" font-family="-apple-system, BlinkMacSystemFont, 'Segoe UI', Helvetica, sans-serif">Installs</text>
  <text x="48" y="37" class="subtitle" font-family="-apple-system, BlinkMacSystemFont, 'Segoe UI', Helvetica, sans-serif">Updated Jul 2</text>

  <line x1="48" y1="220" x2="640" y2="220" class="grid" stroke-width="0.7"/>
    <text x="40" y="223.5" class="axis-label" text-anchor="end" font-family="-apple-system, BlinkMacSystemFont, 'Segoe UI', Helvetica, sans-serif">0</text>
    <line x1="48" y1="162.66666666666669" x2="640" y2="162.66666666666669" class="grid" stroke-width="0.7"/>
    <text x="40" y="166.16666666666669" class="axis-label" text-anchor="end" font-family="-apple-system, BlinkMacSystemFont, 'Segoe UI', Helvetica, sans-serif">1k</text>
    <line x1="48" y1="105.33333333333334" x2="640" y2="105.33333333333334" class="grid" stroke-width="0.7"/>
    <text x="40" y="108.83333333333334" class="axis-label" text-anchor="end" font-family="-apple-system, BlinkMacSystemFont, 'Segoe UI', Helvetica, sans-serif">2k</text>
    <line x1="48" y1="48" x2="640" y2="48" class="grid" stroke-width="0.7"/>
    <text x="40" y="51.5" class="axis-label" text-anchor="end" font-family="-apple-system, BlinkMacSystemFont, 'Segoe UI', Helvetica, sans-serif">3k</text>
  <text x="48" y="248" class="axis-label" text-anchor="middle" font-family="-apple-system, BlinkMacSystemFont, 'Segoe UI', Helvetica, sans-serif">Mar 27</text>
    <text x="169.88235294117646" y="248" class="axis-label" text-anchor="middle" font-family="-apple-system, BlinkMacSystemFont, 'Segoe UI', Helvetica, sans-serif">May 9</text>
    <text x="283.0588235294117" y="248" class="axis-label" text-anchor="middle" font-family="-apple-system, BlinkMacSystemFont, 'Segoe UI', Helvetica, sans-serif">May 22</text>
    <text x="404.94117647058823" y="248" class="axis-label" text-anchor="middle" font-family="-apple-system, BlinkMacSystemFont, 'Segoe UI', Helvetica, sans-serif">Jun 5</text>
    <text x="518.1176470588234" y="248" class="axis-label" text-anchor="middle" font-family="-apple-system, BlinkMacSystemFont, 'Segoe UI', Helvetica, sans-serif">Jun 18</text>
    <text x="640" y="248" class="axis-label" text-anchor="middle" font-family="-apple-system, BlinkMacSystemFont, 'Segoe UI', Helvetica, sans-serif">Jul 2</text>

  <path d="M48.0,219.8 C49.5,218.4 53.8,213.7 56.7,211.7 C59.6,209.7 62.5,209.1 65.4,207.7 C68.3,206.4 71.2,204.4 74.1,203.7 C77.0,203.0 79.9,205.0 82.8,203.5 C85.7,202.0 88.6,196.6 91.5,194.9 C94.4,193.2 97.3,200.1 100.2,193.2 C103.1,186.2 106.0,160.3 108.9,153.3 C111.8,146.3 114.7,151.7 117.6,151.3 C120.5,150.8 123.5,150.7 126.4,150.5 C129.3,150.3 132.2,150.2 135.1,150.1 C138.0,150.0 140.9,149.9 143.8,149.7 C146.7,149.5 149.6,149.1 152.5,148.7 C155.4,148.2 158.3,147.4 161.2,147.0 C164.1,146.5 167.0,146.3 169.9,146.1 C172.8,145.9 175.7,146.0 178.6,145.6 C181.5,145.2 184.4,144.1 187.3,143.6 C190.2,143.1 193.1,142.9 196.0,142.6 C198.9,142.3 201.8,142.0 204.7,141.7 C207.6,141.4 210.5,141.4 213.4,140.8 C216.3,140.2 219.2,138.7 222.1,138.0 C225.0,137.4 227.9,137.2 230.8,136.9 C233.7,136.6 236.6,136.4 239.5,136.2 C242.4,136.1 245.3,136.5 248.2,136.1 C251.1,135.7 254.0,134.4 256.9,133.8 C259.8,133.2 262.7,133.0 265.6,132.5 C268.5,132.1 271.5,131.8 274.4,131.1 C277.3,130.4 280.2,129.0 283.1,128.3 C286.0,127.6 288.9,127.3 291.8,126.9 C294.7,126.5 297.6,126.3 300.5,126.0 C303.4,125.8 306.3,125.8 309.2,125.3 C312.1,124.9 315.0,124.0 317.9,123.6 C320.8,123.1 323.7,122.8 326.6,122.5 C329.5,122.2 332.4,122.0 335.3,121.7 C338.2,121.5 341.1,121.3 344.0,121.1 C346.9,120.9 349.8,120.6 352.7,120.4 C355.6,120.3 358.5,120.3 361.4,120.2 C364.3,120.2 367.2,121.0 370.1,120.2 C373.0,119.4 375.9,116.5 378.8,115.5 C381.7,114.5 384.6,114.6 387.5,114.2 C390.4,113.7 393.3,113.3 396.2,112.8 C399.1,112.4 402.0,111.9 404.9,111.6 C407.8,111.3 410.7,111.2 413.6,111.0 C416.5,110.8 419.5,110.4 422.4,110.2 C425.3,110.0 428.2,110.1 431.1,109.7 C434.0,109.4 436.9,108.6 439.8,108.1 C442.7,107.7 445.6,107.6 448.5,107.2 C451.4,106.9 454.3,106.4 457.2,106.2 C460.1,105.9 463.0,106.0 465.9,105.7 C468.8,105.5 471.7,104.8 474.6,104.5 C477.5,104.2 480.4,104.2 483.3,104.0 C486.2,103.7 489.1,103.5 492.0,103.2 C494.9,102.9 497.8,102.5 500.7,102.2 C503.6,101.9 506.5,101.5 509.4,101.2 C512.3,100.9 515.2,100.8 518.1,100.3 C521.0,99.9 523.9,99.2 526.8,98.7 C529.7,98.3 532.6,98.1 535.5,97.7 C538.4,97.4 541.3,97.0 544.2,96.6 C547.1,96.3 550.0,95.9 552.9,95.5 C555.8,95.2 558.7,94.8 561.6,94.6 C564.5,94.3 567.5,94.2 570.4,93.8 C573.3,93.4 576.2,92.9 579.1,92.4 C582.0,91.9 584.9,91.2 587.8,90.8 C590.7,90.5 593.6,90.5 596.5,90.3 C599.4,90.1 602.3,90.0 605.2,89.8 C608.1,89.6 611.0,89.3 613.9,88.9 C616.8,88.6 619.7,88.2 622.6,87.9 C625.5,87.6 628.4,87.3 631.3,86.9 C634.2,86.6 638.5,86.0 640.0,85.8 L640.0,220.0 L48.0,220.0 Z" fill="url(#areaGrad)"/>
  <path d="M48.0,219.8 C49.5,218.5 53.8,213.8 56.7,211.9 C59.6,210.0 62.5,209.5 65.4,208.4 C68.3,207.3 71.2,205.6 74.1,205.1 C77.0,204.5 79.9,206.5 82.8,205.1 C85.7,203.7 88.6,198.4 91.5,196.8 C94.4,195.2 97.3,201.7 100.2,195.5 C103.1,189.2 106.0,165.5 108.9,159.1 C111.8,152.7 114.7,157.7 117.6,157.3 C120.5,156.9 123.5,156.8 126.4,156.7 C129.3,156.6 132.2,156.6 135.1,156.5 C138.0,156.4 140.9,156.4 143.8,156.1 C146.7,155.9 149.6,155.6 152.5,155.1 C155.4,154.6 158.3,153.7 161.2,153.4 C164.1,153.0 167.0,153.1 169.9,152.9 C172.8,152.8 175.7,153.0 178.6,152.6 C181.5,152.2 184.4,151.1 187.3,150.6 C190.2,150.1 193.1,150.0 196.0,149.7 C198.9,149.4 201.8,149.2 204.7,148.9 C207.6,148.6 210.5,148.6 213.4,148.0 C216.3,147.4 219.2,145.9 222.1,145.2 C225.0,144.6 227.9,144.5 230.8,144.2 C233.7,143.9 236.6,143.7 239.5,143.5 C242.4,143.4 245.3,143.8 248.2,143.4 C251.1,143.0 254.0,141.8 256.9,141.2 C259.8,140.7 262.7,140.5 265.6,140.1 C268.5,139.7 271.5,139.6 274.4,138.9 C277.3,138.3 280.2,136.9 283.1,136.3 C286.0,135.6 288.9,135.4 291.8,135.0 C294.7,134.7 297.6,134.5 300.5,134.2 C303.4,134.0 306.3,134.0 309.2,133.7 C312.1,133.3 315.0,132.5 317.9,132.1 C320.8,131.6 323.7,131.4 326.6,131.1 C329.5,130.9 332.4,130.6 335.3,130.4 C338.2,130.3 341.1,130.2 344.0,130.0 C346.9,129.8 349.8,129.5 352.7,129.4 C355.6,129.3 358.5,129.4 361.4,129.4 C364.3,129.4 367.2,130.2 370.1,129.4 C373.0,128.7 375.9,125.9 378.8,124.9 C381.7,124.0 384.6,124.0 387.5,123.6 C390.4,123.1 393.3,122.7 396.2,122.3 C399.1,121.9 402.0,121.3 404.9,121.0 C407.8,120.7 410.7,120.7 413.6,120.5 C416.5,120.2 419.5,119.9 422.4,119.7 C425.3,119.5 428.2,119.6 431.1,119.2 C434.0,118.9 436.9,118.0 439.8,117.6 C442.7,117.2 445.6,117.0 448.5,116.7 C451.4,116.4 454.3,115.9 457.2,115.7 C460.1,115.4 463.0,115.5 465.9,115.2 C468.8,114.9 471.7,114.3 474.6,114.0 C477.5,113.8 480.4,113.8 483.3,113.6 C486.2,113.4 489.1,113.2 492.0,112.9 C494.9,112.6 497.8,112.3 500.7,112.0 C503.6,111.7 506.5,111.4 509.4,111.1 C512.3,110.8 515.2,110.6 518.1,110.3 C521.0,109.9 523.9,109.2 526.8,108.8 C529.7,108.4 532.6,108.2 535.5,107.9 C538.4,107.5 541.3,107.2 544.2,106.8 C547.1,106.5 550.0,106.1 552.9,105.8 C555.8,105.5 558.7,105.1 561.6,104.9 C564.5,104.6 567.5,104.5 570.4,104.2 C573.3,103.8 576.2,103.3 579.1,102.8 C582.0,102.3 584.9,101.6 587.8,101.3 C590.7,101.0 593.6,101.0 596.5,100.9 C599.4,100.7 602.3,100.6 605.2,100.4 C608.1,100.2 611.0,99.9 613.9,99.6 C616.8,99.3 619.7,99.0 622.6,98.7 C625.5,98.4 628.4,98.1 631.3,97.8 C634.2,97.4 638.5,96.9 640.0,96.7" fill="none" class="line-openvsx" stroke-width="1.8" stroke-linecap="round" stroke-linejoin="round"/>
  <path d="M48.0,219.9 C49.5,219.9 53.8,219.9 56.7,219.8 C59.6,219.7 62.5,219.5 65.4,219.3 C68.3,219.1 71.2,218.8 74.1,218.6 C77.0,218.5 79.9,218.5 82.8,218.4 C85.7,218.3 88.6,218.2 91.5,218.1 C94.4,217.9 97.3,218.3 100.2,217.7 C103.1,217.1 106.0,214.8 108.9,214.2 C111.8,213.6 114.7,214.0 117.6,214.0 C120.5,213.9 123.5,213.9 126.4,213.8 C129.3,213.8 132.2,213.7 135.1,213.6 C138.0,213.6 140.9,213.6 143.8,213.6 C146.7,213.6 149.6,213.6 152.5,213.6 C155.4,213.6 158.3,213.6 161.2,213.6 C164.1,213.5 167.0,213.3 169.9,213.2 C172.8,213.1 175.7,213.1 178.6,213.1 C181.5,213.0 184.4,213.0 187.3,213.0 C190.2,213.0 193.1,212.9 196.0,212.9 C198.9,212.9 201.8,212.8 204.7,212.8 C207.6,212.8 210.5,212.8 213.4,212.8 C216.3,212.8 219.2,212.8 222.1,212.8 C225.0,212.8 227.9,212.7 230.8,212.7 C233.7,212.7 236.6,212.7 239.5,212.7 C242.4,212.7 245.3,212.7 248.2,212.7 C251.1,212.6 254.0,212.6 256.9,212.5 C259.8,212.5 262.7,212.5 265.6,212.4 C268.5,212.4 271.5,212.2 274.4,212.1 C277.3,212.1 280.2,212.0 283.1,212.0 C286.0,211.9 288.9,211.9 291.8,211.9 C294.7,211.8 297.6,211.8 300.5,211.8 C303.4,211.8 306.3,211.7 309.2,211.7 C312.1,211.6 315.0,211.6 317.9,211.5 C320.8,211.5 323.7,211.4 326.6,211.4 C329.5,211.4 332.4,211.3 335.3,211.3 C338.2,211.2 341.1,211.2 344.0,211.1 C346.9,211.1 349.8,211.0 352.7,211.0 C355.6,211.0 358.5,210.9 361.4,210.8 C364.3,210.8 367.2,210.8 370.1,210.8 C373.0,210.7 375.9,210.6 378.8,210.6 C381.7,210.6 384.6,210.6 387.5,210.6 C390.4,210.6 393.3,210.5 396.2,210.5 C399.1,210.5 402.0,210.5 404.9,210.5 C407.8,210.5 410.7,210.5 413.6,210.5 C416.5,210.5 419.5,210.5 422.4,210.5 C425.3,210.5 428.2,210.5 431.1,210.5 C434.0,210.5 436.9,210.5 439.8,210.5 C442.7,210.5 445.6,210.5 448.5,210.5 C451.4,210.5 454.3,210.5 457.2,210.5 C460.1,210.5 463.0,210.5 465.9,210.5 C468.8,210.5 471.7,210.5 474.6,210.5 C477.5,210.5 480.4,210.4 483.3,210.4 C486.2,210.3 489.1,210.3 492.0,210.3 C494.9,210.2 497.8,210.2 500.7,210.2 C503.6,210.2 506.5,210.2 509.4,210.1 C512.3,210.1 515.2,210.1 518.1,210.1 C521.0,210.1 523.9,210.0 526.8,210.0 C529.7,209.9 532.6,209.9 535.5,209.9 C538.4,209.8 541.3,209.8 544.2,209.8 C547.1,209.8 550.0,209.8 552.9,209.7 C555.8,209.7 558.7,209.7 561.6,209.7 C564.5,209.7 567.5,209.6 570.4,209.6 C573.3,209.6 576.2,209.6 579.1,209.6 C582.0,209.5 584.9,209.5 587.8,209.5 C590.7,209.5 593.6,209.5 596.5,209.5 C599.4,209.4 602.3,209.4 605.2,209.4 C608.1,209.4 611.0,209.4 613.9,209.3 C616.8,209.3 619.7,209.3 622.6,209.2 C625.5,209.2 628.4,209.2 631.3,209.2 C634.2,209.1 638.5,209.1 640.0,209.1" fill="none" class="line-vscode" stroke-width="1.8" stroke-linecap="round" stroke-linejoin="round"/>
  <path d="M48.0,219.8 C49.5,218.4 53.8,213.7 56.7,211.7 C59.6,209.7 62.5,209.1 65.4,207.7 C68.3,206.4 71.2,204.4 74.1,203.7 C77.0,203.0 79.9,205.0 82.8,203.5 C85.7,202.0 88.6,196.6 91.5,194.9 C94.4,193.2 97.3,200.1 100.2,193.2 C103.1,186.2 106.0,160.3 108.9,153.3 C111.8,146.3 114.7,151.7 117.6,151.3 C120.5,150.8 123.5,150.7 126.4,150.5 C129.3,150.3 132.2,150.2 135.1,150.1 C138.0,150.0 140.9,149.9 143.8,149.7 C146.7,149.5 149.6,149.1 152.5,148.7 C155.4,148.2 158.3,147.4 161.2,147.0 C164.1,146.5 167.0,146.3 169.9,146.1 C172.8,145.9 175.7,146.0 178.6,145.6 C181.5,145.2 184.4,144.1 187.3,143.6 C190.2,143.1 193.1,142.9 196.0,142.6 C198.9,142.3 201.8,142.0 204.7,141.7 C207.6,141.4 210.5,141.4 213.4,140.8 C216.3,140.2 219.2,138.7 222.1,138.0 C225.0,137.4 227.9,137.2 230.8,136.9 C233.7,136.6 236.6,136.4 239.5,136.2 C242.4,136.1 245.3,136.5 248.2,136.1 C251.1,135.7 254.0,134.4 256.9,133.8 C259.8,133.2 262.7,133.0 265.6,132.5 C268.5,132.1 271.5,131.8 274.4,131.1 C277.3,130.4 280.2,129.0 283.1,128.3 C286.0,127.6 288.9,127.3 291.8,126.9 C294.7,126.5 297.6,126.3 300.5,126.0 C303.4,125.8 306.3,125.8 309.2,125.3 C312.1,124.9 315.0,124.0 317.9,123.6 C320.8,123.1 323.7,122.8 326.6,122.5 C329.5,122.2 332.4,122.0 335.3,121.7 C338.2,121.5 341.1,121.3 344.0,121.1 C346.9,120.9 349.8,120.6 352.7,120.4 C355.6,120.3 358.5,120.3 361.4,120.2 C364.3,120.2 367.2,121.0 370.1,120.2 C373.0,119.4 375.9,116.5 378.8,115.5 C381.7,114.5 384.6,114.6 387.5,114.2 C390.4,113.7 393.3,113.3 396.2,112.8 C399.1,112.4 402.0,111.9 404.9,111.6 C407.8,111.3 410.7,111.2 413.6,111.0 C416.5,110.8 419.5,110.4 422.4,110.2 C425.3,110.0 428.2,110.1 431.1,109.7 C434.0,109.4 436.9,108.6 439.8,108.1 C442.7,107.7 445.6,107.6 448.5,107.2 C451.4,106.9 454.3,106.4 457.2,106.2 C460.1,105.9 463.0,106.0 465.9,105.7 C468.8,105.5 471.7,104.8 474.6,104.5 C477.5,104.2 480.4,104.2 483.3,104.0 C486.2,103.7 489.1,103.5 492.0,103.2 C494.9,102.9 497.8,102.5 500.7,102.2 C503.6,101.9 506.5,101.5 509.4,101.2 C512.3,100.9 515.2,100.8 518.1,100.3 C521.0,99.9 523.9,99.2 526.8,98.7 C529.7,98.3 532.6,98.1 535.5,97.7 C538.4,97.4 541.3,97.0 544.2,96.6 C547.1,96.3 550.0,95.9 552.9,95.5 C555.8,95.2 558.7,94.8 561.6,94.6 C564.5,94.3 567.5,94.2 570.4,93.8 C573.3,93.4 576.2,92.9 579.1,92.4 C582.0,91.9 584.9,91.2 587.8,90.8 C590.7,90.5 593.6,90.5 596.5,90.3 C599.4,90.1 602.3,90.0 605.2,89.8 C608.1,89.6 611.0,89.3 613.9,88.9 C616.8,88.6 619.7,88.2 622.6,87.9 C625.5,87.6 628.4,87.3 631.3,86.9 C634.2,86.6 638.5,86.0 640.0,85.8" fill="none" class="line-total" stroke-width="2.5" stroke-linecap="round" stroke-linejoin="round"/>

  <circle cx="640" cy="85.84" r="4.5" class="dot-total" stroke-width="2"/>
    <text x="658" y="89.84" class="end-label" font-family="-apple-system, BlinkMacSystemFont, 'Segoe UI', Helvetica, sans-serif">Total</text>
    <text x="697" y="89.84" class="end-value" font-family="-apple-system, BlinkMacSystemFont, 'Segoe UI', Helvetica, sans-serif">2.3k</text>
    <circle cx="640" cy="96.73333333333333" r="3.5" class="dot-openvsx" stroke-width="1.8"/>
    <text x="658" y="107.84" class="end-label" font-family="-apple-system, BlinkMacSystemFont, 'Segoe UI', Helvetica, sans-serif">Open VSX</text>
    <text x="716.8" y="107.84" class="end-value" font-family="-apple-system, BlinkMacSystemFont, 'Segoe UI', Helvetica, sans-serif">2.1k</text>
    <circle cx="640" cy="209.10666666666665" r="3.5" class="dot-vscode" stroke-width="1.8"/>
    <text x="658" y="213.10666666666665" class="end-label" font-family="-apple-system, BlinkMacSystemFont, 'Segoe UI', Helvetica, sans-serif">VS Code</text>
    <text x="710.2" y="213.10666666666665" class="end-value" font-family="-apple-system, BlinkMacSystemFont, 'Segoe UI', Helvetica, sans-serif">190</text>
</svg>