<svg xmlns="http://www.w3.org/2000/svg" viewBox="0 0 760 260" width="760" height="260" role="img" aria-label="Glassy install history">
  <style>
  svg { color-scheme: light dark; }
  .title      { fill: #1a1a2e; font-size: 15px; font-weight: 600; }
  .subtitle   { fill: #6b7280; font-size: 11px; font-weight: 400; }
  .grid       { stroke: #e8e8ee; }
  .axis-label { fill: #8a8a9a; font-size: 10px; }
  .line-total   { stroke: #e8553d; }
  .line-vscode  { stroke: #5b7cfa; }
  .line-openvsx { stroke: #34c7a0; }
  .dot-total   { fill: transparent; stroke: #e8553d; }
  .dot-vscode  { fill: transparent; stroke: #5b7cfa; }
  .dot-openvsx { fill: transparent; stroke: #34c7a0; }
  .end-label       { fill: #1a1a2e; font-size: 11px; font-weight: 600; }
  .end-value       { fill: #6b7280; font-size: 11px; font-weight: 400; }
  .area-total-top    { stop-color: #e8553d; }
  .area-total-bottom { stop-color: #e8553d; }

  @media (prefers-color-scheme: dark) {
    .title      { fill: #e2e2e8; }
    .subtitle   { fill: #8b949e; }
    .grid       { stroke: #2d2d3d; }
    .axis-label { fill: #6e7681; }
    .line-total   { stroke: #ff9b85; }
    .line-vscode  { stroke: #8da4ff; }
    .line-openvsx { stroke: #5eead4; }
    .dot-total   { stroke: #ff9b85; }
    .dot-vscode  { stroke: #8da4ff; }
    .dot-openvsx { stroke: #5eead4; }
    .end-label       { fill: #e2e2e8; }
    .end-value       { fill: #8b949e; }
    .area-total-top    { stop-color: #ff9b85; }
    .area-total-bottom { stop-color: #ff9b85; }
  }
</style>
  <defs>
    <linearGradient id="areaGrad" x1="0" y1="0" x2="0" y2="1">
      <stop offset="0%" class="area-total-top" stop-opacity="0.18"/>
      <stop offset="60%" class="area-total-bottom" stop-opacity="0.04"/>
      <stop offset="100%" class="area-total-bottom" stop-opacity="0"/>
    </linearGradient>
  </defs>

  <text x="48" y="22" class="title" font-family="-apple-system, BlinkMacSystemFont, 'Segoe UI', Helvetica, sans-serif">Installs</text>
  <text x="48" y="37" class="subtitle" font-family="-apple-system, BlinkMacSystemFont, 'Segoe UI', Helvetica, sans-serif">Updated May 11</text>

  <line x1="48" y1="220" x2="640" y2="220" class="grid" stroke-width="0.7"/>
    <text x="40" y="223.5" class="axis-label" text-anchor="end" font-family="-apple-system, BlinkMacSystemFont, 'Segoe UI', Helvetica, sans-serif">0</text>
    <line x1="48" y1="162.66666666666669" x2="640" y2="162.66666666666669" class="grid" stroke-width="0.7"/>
    <text x="40" y="166.16666666666669" class="axis-label" text-anchor="end" font-family="-apple-system, BlinkMacSystemFont, 'Segoe UI', Helvetica, sans-serif">500</text>
    <line x1="48" y1="105.33333333333334" x2="640" y2="105.33333333333334" class="grid" stroke-width="0.7"/>
    <text x="40" y="108.83333333333334" class="axis-label" text-anchor="end" font-family="-apple-system, BlinkMacSystemFont, 'Segoe UI', Helvetica, sans-serif">1k</text>
    <line x1="48" y1="48" x2="640" y2="48" class="grid" stroke-width="0.7"/>
    <text x="40" y="51.5" class="axis-label" text-anchor="end" font-family="-apple-system, BlinkMacSystemFont, 'Segoe UI', Helvetica, sans-serif">1.5k</text>
  <text x="48" y="248" class="axis-label" text-anchor="middle" font-family="-apple-system, BlinkMacSystemFont, 'Segoe UI', Helvetica, sans-serif">Mar 27</text>
    <text x="159" y="248" class="axis-label" text-anchor="middle" font-family="-apple-system, BlinkMacSystemFont, 'Segoe UI', Helvetica, sans-serif">Mar 30</text>
    <text x="270" y="248" class="axis-label" text-anchor="middle" font-family="-apple-system, BlinkMacSystemFont, 'Segoe UI', Helvetica, sans-serif">Apr 2</text>
    <text x="418" y="248" class="axis-label" text-anchor="middle" font-family="-apple-system, BlinkMacSystemFont, 'Segoe UI', Helvetica, sans-serif">May 5</text>
    <text x="529" y="248" class="axis-label" text-anchor="middle" font-family="-apple-system, BlinkMacSystemFont, 'Segoe UI', Helvetica, sans-serif">May 8</text>
    <text x="640" y="248" class="axis-label" text-anchor="middle" font-family="-apple-system, BlinkMacSystemFont, 'Segoe UI', Helvetica, sans-serif">May 11</text>

  <path d="M48.0,219.5 C54.2,216.8 72.7,207.4 85.0,203.4 C97.3,199.4 109.7,198.1 122.0,195.5 C134.3,192.8 146.7,188.8 159.0,187.4 C171.3,186.0 183.7,189.9 196.0,187.0 C208.3,184.0 220.7,173.2 233.0,169.8 C245.3,166.3 257.7,180.2 270.0,166.3 C282.3,152.5 294.7,100.6 307.0,86.6 C319.3,72.7 331.7,83.5 344.0,82.5 C356.3,81.6 368.7,81.4 381.0,81.0 C393.3,80.6 405.7,80.5 418.0,80.2 C430.3,80.0 442.7,79.9 455.0,79.4 C467.3,78.9 479.7,78.3 492.0,77.4 C504.3,76.4 516.7,74.8 529.0,73.9 C541.3,73.1 553.7,72.6 566.0,72.2 C578.3,71.8 590.7,72.1 603.0,71.3 C615.3,70.5 633.8,67.9 640.0,67.3 L640.0,220.0 L48.0,220.0 Z" fill="url(#areaGrad)"/>
  <path d="M48.0,219.7 C54.2,217.0 72.7,207.5 85.0,203.7 C97.3,199.9 109.7,199.1 122.0,196.8 C134.3,194.6 146.7,191.3 159.0,190.2 C171.3,189.1 183.7,192.9 196.0,190.2 C208.3,187.4 220.7,176.9 233.0,173.7 C245.3,170.5 257.7,183.5 270.0,170.9 C282.3,158.3 294.7,111.0 307.0,98.2 C319.3,85.5 331.7,95.4 344.0,94.6 C356.3,93.8 368.7,93.7 381.0,93.4 C393.3,93.1 405.7,93.1 418.0,92.9 C430.3,92.8 442.7,92.7 455.0,92.3 C467.3,91.8 479.7,91.1 492.0,90.2 C504.3,89.3 516.7,87.5 529.0,86.8 C541.3,86.0 553.7,86.1 566.0,85.8 C578.3,85.6 590.7,85.9 603.0,85.2 C615.3,84.4 633.8,81.9 640.0,81.3" fill="none" class="line-openvsx" stroke-width="1.8" stroke-linecap="round" stroke-linejoin="round"/>
  <path d="M48.0,219.9 C54.2,219.8 72.7,219.9 85.0,219.7 C97.3,219.4 109.7,219.0 122.0,218.6 C134.3,218.2 146.7,217.6 159.0,217.2 C171.3,216.9 183.7,217.0 196.0,216.8 C208.3,216.6 220.7,216.3 233.0,216.1 C245.3,215.9 257.7,216.7 270.0,215.4 C282.3,214.1 294.7,209.7 307.0,208.4 C319.3,207.2 331.7,208.1 344.0,208.0 C356.3,207.8 368.7,207.7 381.0,207.6 C393.3,207.5 405.7,207.3 418.0,207.3 C430.3,207.2 442.7,207.2 455.0,207.2 C467.3,207.1 479.7,207.2 492.0,207.2 C504.3,207.2 516.7,207.3 529.0,207.2 C541.3,207.0 553.7,206.5 566.0,206.4 C578.3,206.2 590.7,206.2 603.0,206.1 C615.3,206.1 633.8,206.0 640.0,206.0" fill="none" class="line-vscode" stroke-width="1.8" stroke-linecap="round" stroke-linejoin="round"/>
  <path d="M48.0,219.5 C54.2,216.8 72.7,207.4 85.0,203.4 C97.3,199.4 109.7,198.1 122.0,195.5 C134.3,192.8 146.7,188.8 159.0,187.4 C171.3,186.0 183.7,189.9 196.0,187.0 C208.3,184.0 220.7,173.2 233.0,169.8 C245.3,166.3 257.7,180.2 270.0,166.3 C282.3,152.5 294.7,100.6 307.0,86.6 C319.3,72.7 331.7,83.5 344.0,82.5 C356.3,81.6 368.7,81.4 381.0,81.0 C393.3,80.6 405.7,80.5 418.0,80.2 C430.3,80.0 442.7,79.9 455.0,79.4 C467.3,78.9 479.7,78.3 492.0,77.4 C504.3,76.4 516.7,74.8 529.0,73.9 C541.3,73.1 553.7,72.6 566.0,72.2 C578.3,71.8 590.7,72.1 603.0,71.3 C615.3,70.5 633.8,67.9 640.0,67.3" fill="none" class="line-total" stroke-width="2.5" stroke-linecap="round" stroke-linejoin="round"/>

  <circle cx="640" cy="67.26400000000001" r="4.5" class="dot-total" stroke-width="2"/>
    <text x="658" y="71.26400000000001" class="end-label" font-family="-apple-system, BlinkMacSystemFont, 'Segoe UI', Helvetica, sans-serif">Total</text>
    <text x="697" y="71.26400000000001" class="end-value" font-family="-apple-system, BlinkMacSystemFont, 'Segoe UI', Helvetica, sans-serif">1.3k</text>
    <circle cx="640" cy="81.25333333333333" r="3.5" class="dot-openvsx" stroke-width="1.8"/>
    <text x="658" y="89.26400000000001" class="end-label" font-family="-apple-system, BlinkMacSystemFont, 'Segoe UI', Helvetica, sans-serif">Open VSX</text>
    <text x="716.8" y="89.26400000000001" class="end-value" font-family="-apple-system, BlinkMacSystemFont, 'Segoe UI', Helvetica, sans-serif">1.2k</text>
    <circle cx="640" cy="206.01066666666668" r="3.5" class="dot-vscode" stroke-width="1.8"/>
    <text x="658" y="210.01066666666668" class="end-label" font-family="-apple-system, BlinkMacSystemFont, 'Segoe UI', Helvetica, sans-serif">VS Code</text>
    <text x="710.2" y="210.01066666666668" class="end-value" font-family="-apple-system, BlinkMacSystemFont, 'Segoe UI', Helvetica, sans-serif">122</text>
</svg>