<svg xmlns="http://www.w3.org/2000/svg" viewBox="0 0 760 260" width="760" height="260" role="img" aria-label="Glassy install history">
  <style>
  svg { color-scheme: light dark; }
  .title      { fill: #1a1a2e; font-size: 15px; font-weight: 600; }
  .subtitle   { fill: #6b7280; font-size: 11px; font-weight: 400; }
  .grid       { stroke: #e8e8ee; }
  .axis-label { fill: #8a8a9a; font-size: 10px; }
  .line-total   { stroke: #e8553d; }
  .line-vscode  { stroke: #5b7cfa; }
  .line-openvsx { stroke: #34c7a0; }
  .dot-total   { fill: transparent; stroke: #e8553d; }
  .dot-vscode  { fill: transparent; stroke: #5b7cfa; }
  .dot-openvsx { fill: transparent; stroke: #34c7a0; }
  .end-label       { fill: #1a1a2e; font-size: 11px; font-weight: 600; }
  .end-value       { fill: #6b7280; font-size: 11px; font-weight: 400; }
  .area-total-top    { stop-color: #e8553d; }
  .area-total-bottom { stop-color: #e8553d; }

  @media (prefers-color-scheme: dark) {
    .title      { fill: #e2e2e8; }
    .subtitle   { fill: #8b949e; }
    .grid       { stroke: #2d2d3d; }
    .axis-label { fill: #6e7681; }
    .line-total   { stroke: #ff9b85; }
    .line-vscode  { stroke: #8da4ff; }
    .line-openvsx { stroke: #5eead4; }
    .dot-total   { stroke: #ff9b85; }
    .dot-vscode  { stroke: #8da4ff; }
    .dot-openvsx { stroke: #5eead4; }
    .end-label       { fill: #e2e2e8; }
    .end-value       { fill: #8b949e; }
    .area-total-top    { stop-color: #ff9b85; }
    .area-total-bottom { stop-color: #ff9b85; }
  }
</style>
  <defs>
    <linearGradient id="areaGrad" x1="0" y1="0" x2="0" y2="1">
      <stop offset="0%" class="area-total-top" stop-opacity="0.18"/>
      <stop offset="60%" class="area-total-bottom" stop-opacity="0.04"/>
      <stop offset="100%" class="area-total-bottom" stop-opacity="0"/>
    </linearGradient>
  </defs>

  <text x="48" y="22" class="title" font-family="-apple-system, BlinkMacSystemFont, 'Segoe UI', Helvetica, sans-serif">Installs</text>
  <text x="48" y="37" class="subtitle" font-family="-apple-system, BlinkMacSystemFont, 'Segoe UI', Helvetica, sans-serif">Updated May 25</text>

  <line x1="48" y1="220" x2="640" y2="220" class="grid" stroke-width="0.7"/>
    <text x="40" y="223.5" class="axis-label" text-anchor="end" font-family="-apple-system, BlinkMacSystemFont, 'Segoe UI', Helvetica, sans-serif">0</text>
    <line x1="48" y1="177" x2="640" y2="177" class="grid" stroke-width="0.7"/>
    <text x="40" y="180.5" class="axis-label" text-anchor="end" font-family="-apple-system, BlinkMacSystemFont, 'Segoe UI', Helvetica, sans-serif">500</text>
    <line x1="48" y1="134" x2="640" y2="134" class="grid" stroke-width="0.7"/>
    <text x="40" y="137.5" class="axis-label" text-anchor="end" font-family="-apple-system, BlinkMacSystemFont, 'Segoe UI', Helvetica, sans-serif">1k</text>
    <line x1="48" y1="91" x2="640" y2="91" class="grid" stroke-width="0.7"/>
    <text x="40" y="94.5" class="axis-label" text-anchor="end" font-family="-apple-system, BlinkMacSystemFont, 'Segoe UI', Helvetica, sans-serif">1.5k</text>
    <line x1="48" y1="48" x2="640" y2="48" class="grid" stroke-width="0.7"/>
    <text x="40" y="51.5" class="axis-label" text-anchor="end" font-family="-apple-system, BlinkMacSystemFont, 'Segoe UI', Helvetica, sans-serif">2k</text>
  <text x="48" y="248" class="axis-label" text-anchor="middle" font-family="-apple-system, BlinkMacSystemFont, 'Segoe UI', Helvetica, sans-serif">Mar 27</text>
    <text x="166.4" y="248" class="axis-label" text-anchor="middle" font-family="-apple-system, BlinkMacSystemFont, 'Segoe UI', Helvetica, sans-serif">Apr 2</text>
    <text x="284.8" y="248" class="axis-label" text-anchor="middle" font-family="-apple-system, BlinkMacSystemFont, 'Segoe UI', Helvetica, sans-serif">May 7</text>
    <text x="403.2" y="248" class="axis-label" text-anchor="middle" font-family="-apple-system, BlinkMacSystemFont, 'Segoe UI', Helvetica, sans-serif">May 13</text>
    <text x="521.6" y="248" class="axis-label" text-anchor="middle" font-family="-apple-system, BlinkMacSystemFont, 'Segoe UI', Helvetica, sans-serif">May 19</text>
    <text x="640" y="248" class="axis-label" text-anchor="middle" font-family="-apple-system, BlinkMacSystemFont, 'Segoe UI', Helvetica, sans-serif">May 25</text>

  <path d="M48.0,219.7 C51.3,217.6 61.2,210.5 67.7,207.5 C74.3,204.5 80.9,203.6 87.5,201.6 C94.0,199.6 100.6,196.6 107.2,195.6 C113.8,194.5 120.4,197.4 126.9,195.2 C133.5,193.0 140.1,184.9 146.7,182.3 C153.2,179.8 159.8,190.1 166.4,179.8 C173.0,169.4 179.6,130.5 186.1,120.0 C192.7,109.5 199.3,117.6 205.9,116.9 C212.4,116.2 219.0,116.1 225.6,115.8 C232.2,115.5 238.8,115.4 245.3,115.2 C251.9,115.0 258.5,114.9 265.1,114.6 C271.6,114.2 278.2,113.7 284.8,113.0 C291.4,112.3 298.0,111.1 304.5,110.4 C311.1,109.8 317.7,109.5 324.3,109.1 C330.8,108.8 337.4,109.1 344.0,108.5 C350.6,107.8 357.2,106.2 363.7,105.4 C370.3,104.7 376.9,104.4 383.5,103.9 C390.0,103.4 396.6,103.1 403.2,102.6 C409.8,102.2 416.4,102.2 422.9,101.2 C429.5,100.3 436.1,98.0 442.7,97.0 C449.2,96.0 455.8,95.8 462.4,95.4 C469.0,94.9 475.6,94.6 482.1,94.4 C488.7,94.1 495.3,94.7 501.9,94.1 C508.4,93.5 515.0,91.5 521.6,90.7 C528.2,89.8 534.8,89.4 541.3,88.8 C547.9,88.1 554.5,87.7 561.1,86.6 C567.6,85.6 574.2,83.4 580.8,82.4 C587.4,81.4 594.0,80.9 600.5,80.3 C607.1,79.8 613.7,79.4 620.3,79.0 C626.8,78.7 636.7,78.2 640.0,78.0 L640.0,220.0 L48.0,220.0 Z" fill="url(#areaGrad)"/>
  <path d="M48.0,219.7 C51.3,217.7 61.2,210.6 67.7,207.8 C74.3,204.9 80.9,204.3 87.5,202.6 C94.0,200.9 100.6,198.5 107.2,197.6 C113.8,196.8 120.4,199.7 126.9,197.6 C133.5,195.6 140.1,187.7 146.7,185.3 C153.2,182.8 159.8,192.6 166.4,183.2 C173.0,173.8 179.6,138.2 186.1,128.7 C192.7,119.1 199.3,126.5 205.9,125.9 C212.4,125.3 219.0,125.3 225.6,125.1 C232.2,124.9 238.8,124.9 245.3,124.7 C251.9,124.6 258.5,124.5 265.1,124.2 C271.6,123.9 278.2,123.3 284.8,122.6 C291.4,122.0 298.0,120.6 304.5,120.1 C311.1,119.5 317.7,119.6 324.3,119.4 C330.8,119.2 337.4,119.4 344.0,118.9 C350.6,118.3 357.2,116.7 363.7,115.9 C370.3,115.2 376.9,115.0 383.5,114.6 C390.0,114.1 396.6,113.8 403.2,113.4 C409.8,112.9 416.4,112.9 422.9,112.0 C429.5,111.1 436.1,108.8 442.7,107.9 C449.2,106.9 455.8,106.7 462.4,106.3 C469.0,105.9 475.6,105.5 482.1,105.3 C488.7,105.1 495.3,105.7 501.9,105.1 C508.4,104.5 515.0,102.7 521.6,101.8 C528.2,101.0 534.8,100.7 541.3,100.1 C547.9,99.5 554.5,99.3 561.1,98.4 C567.6,97.5 574.2,95.4 580.8,94.4 C587.4,93.5 594.0,93.1 600.5,92.5 C607.1,92.0 613.7,91.7 620.3,91.3 C626.8,91.0 636.7,90.6 640.0,90.5" fill="none" class="line-openvsx" stroke-width="1.8" stroke-linecap="round" stroke-linejoin="round"/>
  <path d="M48.0,219.9 C51.3,219.9 61.2,219.9 67.7,219.7 C74.3,219.6 80.9,219.3 87.5,219.0 C94.0,218.7 100.6,218.2 107.2,217.9 C113.8,217.7 120.4,217.7 126.9,217.6 C133.5,217.4 140.1,217.2 146.7,217.1 C153.2,216.9 159.8,217.5 166.4,216.6 C173.0,215.6 179.6,212.2 186.1,211.3 C192.7,210.4 199.3,211.1 205.9,211.0 C212.4,210.9 219.0,210.8 225.6,210.7 C232.2,210.6 238.8,210.5 245.3,210.5 C251.9,210.4 258.5,210.4 265.1,210.4 C271.6,210.4 278.2,210.4 284.8,210.4 C291.4,210.4 298.0,210.5 304.5,210.4 C311.1,210.3 317.7,209.9 324.3,209.8 C330.8,209.6 337.4,209.6 344.0,209.6 C350.6,209.6 357.2,209.6 363.7,209.5 C370.3,209.5 376.9,209.4 383.5,209.3 C390.0,209.3 396.6,209.3 403.2,209.3 C409.8,209.2 416.4,209.3 422.9,209.3 C429.5,209.2 436.1,209.2 442.7,209.2 C449.2,209.1 455.8,209.1 462.4,209.1 C469.0,209.1 475.6,209.1 482.1,209.1 C488.7,209.1 495.3,209.0 501.9,209.0 C508.4,208.9 515.0,208.9 521.6,208.8 C528.2,208.8 534.8,208.7 541.3,208.6 C547.9,208.5 554.5,208.3 561.1,208.2 C567.6,208.1 574.2,208.0 580.8,208.0 C587.4,207.9 594.0,207.8 600.5,207.8 C607.1,207.7 613.7,207.7 620.3,207.7 C626.8,207.7 636.7,207.6 640.0,207.5" fill="none" class="line-vscode" stroke-width="1.8" stroke-linecap="round" stroke-linejoin="round"/>
  <path d="M48.0,219.7 C51.3,217.6 61.2,210.5 67.7,207.5 C74.3,204.5 80.9,203.6 87.5,201.6 C94.0,199.6 100.6,196.6 107.2,195.6 C113.8,194.5 120.4,197.4 126.9,195.2 C133.5,193.0 140.1,184.9 146.7,182.3 C153.2,179.8 159.8,190.1 166.4,179.8 C173.0,169.4 179.6,130.5 186.1,120.0 C192.7,109.5 199.3,117.6 205.9,116.9 C212.4,116.2 219.0,116.1 225.6,115.8 C232.2,115.5 238.8,115.4 245.3,115.2 C251.9,115.0 258.5,114.9 265.1,114.6 C271.6,114.2 278.2,113.7 284.8,113.0 C291.4,112.3 298.0,111.1 304.5,110.4 C311.1,109.8 317.7,109.5 324.3,109.1 C330.8,108.8 337.4,109.1 344.0,108.5 C350.6,107.8 357.2,106.2 363.7,105.4 C370.3,104.7 376.9,104.4 383.5,103.9 C390.0,103.4 396.6,103.1 403.2,102.6 C409.8,102.2 416.4,102.2 422.9,101.2 C429.5,100.3 436.1,98.0 442.7,97.0 C449.2,96.0 455.8,95.8 462.4,95.4 C469.0,94.9 475.6,94.6 482.1,94.4 C488.7,94.1 495.3,94.7 501.9,94.1 C508.4,93.5 515.0,91.5 521.6,90.7 C528.2,89.8 534.8,89.4 541.3,88.8 C547.9,88.1 554.5,87.7 561.1,86.6 C567.6,85.6 574.2,83.4 580.8,82.4 C587.4,81.4 594.0,80.9 600.5,80.3 C607.1,79.8 613.7,79.4 620.3,79.0 C626.8,78.7 636.7,78.2 640.0,78.0" fill="none" class="line-total" stroke-width="2.5" stroke-linecap="round" stroke-linejoin="round"/>

  <circle cx="640" cy="78.01400000000001" r="4.5" class="dot-total" stroke-width="2"/>
    <text x="658" y="82.01400000000001" class="end-label" font-family="-apple-system, BlinkMacSystemFont, 'Segoe UI', Helvetica, sans-serif">Total</text>
    <text x="697" y="82.01400000000001" class="end-value" font-family="-apple-system, BlinkMacSystemFont, 'Segoe UI', Helvetica, sans-serif">1.7k</text>
    <circle cx="640" cy="90.48400000000001" r="3.5" class="dot-openvsx" stroke-width="1.8"/>
    <text x="658" y="100.01400000000001" class="end-label" font-family="-apple-system, BlinkMacSystemFont, 'Segoe UI', Helvetica, sans-serif">Open VSX</text>
    <text x="716.8" y="100.01400000000001" class="end-value" font-family="-apple-system, BlinkMacSystemFont, 'Segoe UI', Helvetica, sans-serif">1.5k</text>
    <circle cx="640" cy="207.53" r="3.5" class="dot-vscode" stroke-width="1.8"/>
    <text x="658" y="211.53" class="end-label" font-family="-apple-system, BlinkMacSystemFont, 'Segoe UI', Helvetica, sans-serif">VS Code</text>
    <text x="710.2" y="211.53" class="end-value" font-family="-apple-system, BlinkMacSystemFont, 'Segoe UI', Helvetica, sans-serif">145</text>
</svg>