<svg xmlns="http://www.w3.org/2000/svg" viewBox="0 0 760 260" width="760" height="260" role="img" aria-label="Glassy install history">
  <style>
  svg { color-scheme: light dark; }
  .title      { fill: #1a1a2e; font-size: 15px; font-weight: 600; }
  .subtitle   { fill: #6b7280; font-size: 11px; font-weight: 400; }
  .grid       { stroke: #e8e8ee; }
  .axis-label { fill: #8a8a9a; font-size: 10px; }
  .line-total   { stroke: #e8553d; }
  .line-vscode  { stroke: #5b7cfa; }
  .line-openvsx { stroke: #34c7a0; }
  .dot-total   { fill: transparent; stroke: #e8553d; }
  .dot-vscode  { fill: transparent; stroke: #5b7cfa; }
  .dot-openvsx { fill: transparent; stroke: #34c7a0; }
  .end-label       { fill: #1a1a2e; font-size: 11px; font-weight: 600; }
  .end-value       { fill: #6b7280; font-size: 11px; font-weight: 400; }
  .area-total-top    { stop-color: #e8553d; }
  .area-total-bottom { stop-color: #e8553d; }

  @media (prefers-color-scheme: dark) {
    .title      { fill: #e2e2e8; }
    .subtitle   { fill: #8b949e; }
    .grid       { stroke: #2d2d3d; }
    .axis-label { fill: #6e7681; }
    .line-total   { stroke: #ff9b85; }
    .line-vscode  { stroke: #8da4ff; }
    .line-openvsx { stroke: #5eead4; }
    .dot-total   { stroke: #ff9b85; }
    .dot-vscode  { stroke: #8da4ff; }
    .dot-openvsx { stroke: #5eead4; }
    .end-label       { fill: #e2e2e8; }
    .end-value       { fill: #8b949e; }
    .area-total-top    { stop-color: #ff9b85; }
    .area-total-bottom { stop-color: #ff9b85; }
  }
</style>
  <defs>
    <linearGradient id="areaGrad" x1="0" y1="0" x2="0" y2="1">
      <stop offset="0%" class="area-total-top" stop-opacity="0.18"/>
      <stop offset="60%" class="area-total-bottom" stop-opacity="0.04"/>
      <stop offset="100%" class="area-total-bottom" stop-opacity="0"/>
    </linearGradient>
  </defs>

  <text x="48" y="22" class="title" font-family="-apple-system, BlinkMacSystemFont, 'Segoe UI', Helvetica, sans-serif">Installs</text>
  <text x="48" y="37" class="subtitle" font-family="-apple-system, BlinkMacSystemFont, 'Segoe UI', Helvetica, sans-serif">Updated Jul 12</text>

  <line x1="48" y1="220" x2="640" y2="220" class="grid" stroke-width="0.7"/>
    <text x="40" y="223.5" class="axis-label" text-anchor="end" font-family="-apple-system, BlinkMacSystemFont, 'Segoe UI', Helvetica, sans-serif">0</text>
    <line x1="48" y1="162.66666666666669" x2="640" y2="162.66666666666669" class="grid" stroke-width="0.7"/>
    <text x="40" y="166.16666666666669" class="axis-label" text-anchor="end" font-family="-apple-system, BlinkMacSystemFont, 'Segoe UI', Helvetica, sans-serif">1k</text>
    <line x1="48" y1="105.33333333333334" x2="640" y2="105.33333333333334" class="grid" stroke-width="0.7"/>
    <text x="40" y="108.83333333333334" class="axis-label" text-anchor="end" font-family="-apple-system, BlinkMacSystemFont, 'Segoe UI', Helvetica, sans-serif">2k</text>
    <line x1="48" y1="48" x2="640" y2="48" class="grid" stroke-width="0.7"/>
    <text x="40" y="51.5" class="axis-label" text-anchor="end" font-family="-apple-system, BlinkMacSystemFont, 'Segoe UI', Helvetica, sans-serif">3k</text>
  <text x="48" y="248" class="axis-label" text-anchor="middle" font-family="-apple-system, BlinkMacSystemFont, 'Segoe UI', Helvetica, sans-serif">Mar 27</text>
    <text x="169.43589743589743" y="248" class="axis-label" text-anchor="middle" font-family="-apple-system, BlinkMacSystemFont, 'Segoe UI', Helvetica, sans-serif">May 11</text>
    <text x="283.28205128205127" y="248" class="axis-label" text-anchor="middle" font-family="-apple-system, BlinkMacSystemFont, 'Segoe UI', Helvetica, sans-serif">May 26</text>
    <text x="404.7179487179487" y="248" class="axis-label" text-anchor="middle" font-family="-apple-system, BlinkMacSystemFont, 'Segoe UI', Helvetica, sans-serif">Jun 11</text>
    <text x="518.5641025641025" y="248" class="axis-label" text-anchor="middle" font-family="-apple-system, BlinkMacSystemFont, 'Segoe UI', Helvetica, sans-serif">Jun 26</text>
    <text x="640" y="248" class="axis-label" text-anchor="middle" font-family="-apple-system, BlinkMacSystemFont, 'Segoe UI', Helvetica, sans-serif">Jul 12</text>

  <path d="M48.0,219.8 C49.3,218.4 53.1,213.7 55.6,211.7 C58.1,209.7 60.6,209.1 63.2,207.7 C65.7,206.4 68.2,204.4 70.8,203.7 C73.3,203.0 75.8,205.0 78.4,203.5 C80.9,202.0 83.4,196.6 85.9,194.9 C88.5,193.2 91.0,200.1 93.5,193.2 C96.1,186.2 98.6,160.3 101.1,153.3 C103.7,146.3 106.2,151.7 108.7,151.3 C111.2,150.8 113.8,150.7 116.3,150.5 C118.8,150.3 121.4,150.2 123.9,150.1 C126.4,150.0 129.0,149.9 131.5,149.7 C134.0,149.5 136.5,149.1 139.1,148.7 C141.6,148.2 144.1,147.4 146.7,147.0 C149.2,146.5 151.7,146.3 154.3,146.1 C156.8,145.9 159.3,146.0 161.8,145.6 C164.4,145.2 166.9,144.1 169.4,143.6 C172.0,143.1 174.5,142.9 177.0,142.6 C179.6,142.3 182.1,142.0 184.6,141.7 C187.1,141.4 189.7,141.4 192.2,140.8 C194.7,140.2 197.3,138.7 199.8,138.0 C202.3,137.4 204.9,137.2 207.4,136.9 C209.9,136.6 212.4,136.4 215.0,136.2 C217.5,136.1 220.0,136.5 222.6,136.1 C225.1,135.7 227.6,134.4 230.2,133.8 C232.7,133.2 235.2,133.0 237.7,132.5 C240.3,132.1 242.8,131.8 245.3,131.1 C247.9,130.4 250.4,129.0 252.9,128.3 C255.5,127.6 258.0,127.3 260.5,126.9 C263.0,126.5 265.6,126.3 268.1,126.0 C270.6,125.8 273.2,125.8 275.7,125.3 C278.2,124.9 280.8,124.0 283.3,123.6 C285.8,123.1 288.3,122.8 290.9,122.5 C293.4,122.2 295.9,122.0 298.5,121.7 C301.0,121.5 303.5,121.3 306.1,121.1 C308.6,120.9 311.1,120.6 313.6,120.4 C316.2,120.3 318.7,120.3 321.2,120.2 C323.8,120.2 326.3,121.0 328.8,120.2 C331.4,119.4 333.9,116.5 336.4,115.5 C338.9,114.5 341.5,114.6 344.0,114.2 C346.5,113.7 349.1,113.3 351.6,112.8 C354.1,112.4 356.6,111.9 359.2,111.6 C361.7,111.3 364.2,111.2 366.8,111.0 C369.3,110.8 371.8,110.4 374.4,110.2 C376.9,110.0 379.4,110.1 381.9,109.7 C384.5,109.4 387.0,108.6 389.5,108.1 C392.1,107.7 394.6,107.6 397.1,107.2 C399.7,106.9 402.2,106.4 404.7,106.2 C407.2,105.9 409.8,106.0 412.3,105.7 C414.8,105.5 417.4,104.8 419.9,104.5 C422.4,104.2 425.0,104.2 427.5,104.0 C430.0,103.7 432.5,103.5 435.1,103.2 C437.6,102.9 440.1,102.5 442.7,102.2 C445.2,101.9 447.7,101.5 450.3,101.2 C452.8,100.9 455.3,100.8 457.8,100.3 C460.4,99.9 462.9,99.2 465.4,98.7 C468.0,98.3 470.5,98.1 473.0,97.7 C475.6,97.4 478.1,97.0 480.6,96.6 C483.1,96.3 485.7,95.9 488.2,95.5 C490.7,95.2 493.3,94.8 495.8,94.6 C498.3,94.3 500.9,94.2 503.4,93.8 C505.9,93.4 508.4,92.9 511.0,92.4 C513.5,91.9 516.0,91.2 518.6,90.8 C521.1,90.5 523.6,90.5 526.2,90.3 C528.7,90.1 531.2,90.0 533.7,89.8 C536.3,89.6 538.8,89.3 541.3,88.9 C543.9,88.6 546.4,88.2 548.9,87.9 C551.5,87.6 554.0,87.3 556.5,86.9 C559.0,86.6 561.6,86.2 564.1,85.8 C566.6,85.5 569.2,85.3 571.7,85.0 C574.2,84.6 576.8,84.0 579.3,83.7 C581.8,83.3 584.3,83.0 586.9,82.8 C589.4,82.6 591.9,82.6 594.5,82.4 C597.0,82.2 599.5,81.9 602.1,81.8 C604.6,81.6 607.1,81.6 609.6,81.4 C612.2,81.2 614.7,80.9 617.2,80.6 C619.8,80.4 622.3,80.0 624.8,79.8 C627.4,79.5 629.9,79.3 632.4,79.1 C634.9,78.9 638.7,78.6 640.0,78.5 L640.0,220.0 L48.0,220.0 Z" fill="url(#areaGrad)"/>
  <path d="M48.0,219.8 C49.3,218.5 53.1,213.8 55.6,211.9 C58.1,210.0 60.6,209.5 63.2,208.4 C65.7,207.3 68.2,205.6 70.8,205.1 C73.3,204.5 75.8,206.5 78.4,205.1 C80.9,203.7 83.4,198.4 85.9,196.8 C88.5,195.2 91.0,201.7 93.5,195.5 C96.1,189.2 98.6,165.5 101.1,159.1 C103.7,152.7 106.2,157.7 108.7,157.3 C111.2,156.9 113.8,156.8 116.3,156.7 C118.8,156.6 121.4,156.6 123.9,156.5 C126.4,156.4 129.0,156.4 131.5,156.1 C134.0,155.9 136.5,155.6 139.1,155.1 C141.6,154.6 144.1,153.7 146.7,153.4 C149.2,153.0 151.7,153.1 154.3,152.9 C156.8,152.8 159.3,153.0 161.8,152.6 C164.4,152.2 166.9,151.1 169.4,150.6 C172.0,150.1 174.5,150.0 177.0,149.7 C179.6,149.4 182.1,149.2 184.6,148.9 C187.1,148.6 189.7,148.6 192.2,148.0 C194.7,147.4 197.3,145.9 199.8,145.2 C202.3,144.6 204.9,144.5 207.4,144.2 C209.9,143.9 212.4,143.7 215.0,143.5 C217.5,143.4 220.0,143.8 222.6,143.4 C225.1,143.0 227.6,141.8 230.2,141.2 C232.7,140.7 235.2,140.5 237.7,140.1 C240.3,139.7 242.8,139.6 245.3,138.9 C247.9,138.3 250.4,136.9 252.9,136.3 C255.5,135.6 258.0,135.4 260.5,135.0 C263.0,134.7 265.6,134.5 268.1,134.2 C270.6,134.0 273.2,134.0 275.7,133.7 C278.2,133.3 280.8,132.5 283.3,132.1 C285.8,131.6 288.3,131.4 290.9,131.1 C293.4,130.9 295.9,130.6 298.5,130.4 C301.0,130.3 303.5,130.2 306.1,130.0 C308.6,129.8 311.1,129.5 313.6,129.4 C316.2,129.3 318.7,129.4 321.2,129.4 C323.8,129.4 326.3,130.2 328.8,129.4 C331.4,128.7 333.9,125.9 336.4,124.9 C338.9,124.0 341.5,124.0 344.0,123.6 C346.5,123.1 349.1,122.7 351.6,122.3 C354.1,121.9 356.6,121.3 359.2,121.0 C361.7,120.7 364.2,120.7 366.8,120.5 C369.3,120.2 371.8,119.9 374.4,119.7 C376.9,119.5 379.4,119.6 381.9,119.2 C384.5,118.9 387.0,118.0 389.5,117.6 C392.1,117.2 394.6,117.0 397.1,116.7 C399.7,116.4 402.2,115.9 404.7,115.7 C407.2,115.4 409.8,115.5 412.3,115.2 C414.8,114.9 417.4,114.3 419.9,114.0 C422.4,113.8 425.0,113.8 427.5,113.6 C430.0,113.4 432.5,113.2 435.1,112.9 C437.6,112.6 440.1,112.3 442.7,112.0 C445.2,111.7 447.7,111.4 450.3,111.1 C452.8,110.8 455.3,110.6 457.8,110.3 C460.4,109.9 462.9,109.2 465.4,108.8 C468.0,108.4 470.5,108.2 473.0,107.9 C475.6,107.5 478.1,107.2 480.6,106.8 C483.1,106.5 485.7,106.1 488.2,105.8 C490.7,105.5 493.3,105.1 495.8,104.9 C498.3,104.6 500.9,104.5 503.4,104.2 C505.9,103.8 508.4,103.3 511.0,102.8 C513.5,102.3 516.0,101.6 518.6,101.3 C521.1,101.0 523.6,101.0 526.2,100.9 C528.7,100.7 531.2,100.6 533.7,100.4 C536.3,100.2 538.8,99.9 541.3,99.6 C543.9,99.3 546.4,99.0 548.9,98.7 C551.5,98.4 554.0,98.1 556.5,97.8 C559.0,97.4 561.6,97.0 564.1,96.7 C566.6,96.4 569.2,96.2 571.7,95.9 C574.2,95.6 576.8,95.3 579.3,95.0 C581.8,94.7 584.3,94.4 586.9,94.2 C589.4,94.0 591.9,94.0 594.5,93.9 C597.0,93.7 599.5,93.4 602.1,93.3 C604.6,93.1 607.1,93.1 609.6,92.9 C612.2,92.8 614.7,92.5 617.2,92.3 C619.8,92.0 622.3,91.7 624.8,91.5 C627.4,91.2 629.9,91.0 632.4,90.8 C634.9,90.6 638.7,90.4 640.0,90.3" fill="none" class="line-openvsx" stroke-width="1.8" stroke-linecap="round" stroke-linejoin="round"/>
  <path d="M48.0,219.9 C49.3,219.9 53.1,219.9 55.6,219.8 C58.1,219.7 60.6,219.5 63.2,219.3 C65.7,219.1 68.2,218.8 70.8,218.6 C73.3,218.5 75.8,218.5 78.4,218.4 C80.9,218.3 83.4,218.2 85.9,218.1 C88.5,217.9 91.0,218.3 93.5,217.7 C96.1,217.1 98.6,214.8 101.1,214.2 C103.7,213.6 106.2,214.0 108.7,214.0 C111.2,213.9 113.8,213.9 116.3,213.8 C118.8,213.8 121.4,213.7 123.9,213.6 C126.4,213.6 129.0,213.6 131.5,213.6 C134.0,213.6 136.5,213.6 139.1,213.6 C141.6,213.6 144.1,213.6 146.7,213.6 C149.2,213.5 151.7,213.3 154.3,213.2 C156.8,213.1 159.3,213.1 161.8,213.1 C164.4,213.0 166.9,213.0 169.4,213.0 C172.0,213.0 174.5,212.9 177.0,212.9 C179.6,212.9 182.1,212.8 184.6,212.8 C187.1,212.8 189.7,212.8 192.2,212.8 C194.7,212.8 197.3,212.8 199.8,212.8 C202.3,212.8 204.9,212.7 207.4,212.7 C209.9,212.7 212.4,212.7 215.0,212.7 C217.5,212.7 220.0,212.7 222.6,212.7 C225.1,212.6 227.6,212.6 230.2,212.5 C232.7,212.5 235.2,212.5 237.7,212.4 C240.3,212.4 242.8,212.2 245.3,212.1 C247.9,212.1 250.4,212.0 252.9,212.0 C255.5,211.9 258.0,211.9 260.5,211.9 C263.0,211.8 265.6,211.8 268.1,211.8 C270.6,211.8 273.2,211.7 275.7,211.7 C278.2,211.6 280.8,211.6 283.3,211.5 C285.8,211.5 288.3,211.4 290.9,211.4 C293.4,211.4 295.9,211.3 298.5,211.3 C301.0,211.2 303.5,211.2 306.1,211.1 C308.6,211.1 311.1,211.0 313.6,211.0 C316.2,211.0 318.7,210.9 321.2,210.8 C323.8,210.8 326.3,210.8 328.8,210.8 C331.4,210.7 333.9,210.6 336.4,210.6 C338.9,210.6 341.5,210.6 344.0,210.6 C346.5,210.6 349.1,210.5 351.6,210.5 C354.1,210.5 356.6,210.5 359.2,210.5 C361.7,210.5 364.2,210.5 366.8,210.5 C369.3,210.5 371.8,210.5 374.4,210.5 C376.9,210.5 379.4,210.5 381.9,210.5 C384.5,210.5 387.0,210.5 389.5,210.5 C392.1,210.5 394.6,210.5 397.1,210.5 C399.7,210.5 402.2,210.5 404.7,210.5 C407.2,210.5 409.8,210.5 412.3,210.5 C414.8,210.5 417.4,210.5 419.9,210.5 C422.4,210.5 425.0,210.4 427.5,210.4 C430.0,210.3 432.5,210.3 435.1,210.3 C437.6,210.2 440.1,210.2 442.7,210.2 C445.2,210.2 447.7,210.2 450.3,210.1 C452.8,210.1 455.3,210.1 457.8,210.1 C460.4,210.1 462.9,210.0 465.4,210.0 C468.0,209.9 470.5,209.9 473.0,209.9 C475.6,209.8 478.1,209.8 480.6,209.8 C483.1,209.8 485.7,209.8 488.2,209.7 C490.7,209.7 493.3,209.7 495.8,209.7 C498.3,209.7 500.9,209.6 503.4,209.6 C505.9,209.6 508.4,209.6 511.0,209.6 C513.5,209.5 516.0,209.5 518.6,209.5 C521.1,209.5 523.6,209.5 526.2,209.5 C528.7,209.4 531.2,209.4 533.7,209.4 C536.3,209.4 538.8,209.4 541.3,209.3 C543.9,209.3 546.4,209.3 548.9,209.2 C551.5,209.2 554.0,209.2 556.5,209.2 C559.0,209.1 561.6,209.1 564.1,209.1 C566.6,209.1 569.2,209.1 571.7,209.0 C574.2,209.0 576.8,208.7 579.3,208.6 C581.8,208.6 584.3,208.6 586.9,208.6 C589.4,208.6 591.9,208.6 594.5,208.5 C597.0,208.5 599.5,208.5 602.1,208.5 C604.6,208.5 607.1,208.4 609.6,208.4 C612.2,208.4 614.7,208.4 617.2,208.4 C619.8,208.3 622.3,208.3 624.8,208.3 C627.4,208.3 629.9,208.3 632.4,208.3 C634.9,208.3 638.7,208.2 640.0,208.2" fill="none" class="line-vscode" stroke-width="1.8" stroke-linecap="round" stroke-linejoin="round"/>
  <path d="M48.0,219.8 C49.3,218.4 53.1,213.7 55.6,211.7 C58.1,209.7 60.6,209.1 63.2,207.7 C65.7,206.4 68.2,204.4 70.8,203.7 C73.3,203.0 75.8,205.0 78.4,203.5 C80.9,202.0 83.4,196.6 85.9,194.9 C88.5,193.2 91.0,200.1 93.5,193.2 C96.1,186.2 98.6,160.3 101.1,153.3 C103.7,146.3 106.2,151.7 108.7,151.3 C111.2,150.8 113.8,150.7 116.3,150.5 C118.8,150.3 121.4,150.2 123.9,150.1 C126.4,150.0 129.0,149.9 131.5,149.7 C134.0,149.5 136.5,149.1 139.1,148.7 C141.6,148.2 144.1,147.4 146.7,147.0 C149.2,146.5 151.7,146.3 154.3,146.1 C156.8,145.9 159.3,146.0 161.8,145.6 C164.4,145.2 166.9,144.1 169.4,143.6 C172.0,143.1 174.5,142.9 177.0,142.6 C179.6,142.3 182.1,142.0 184.6,141.7 C187.1,141.4 189.7,141.4 192.2,140.8 C194.7,140.2 197.3,138.7 199.8,138.0 C202.3,137.4 204.9,137.2 207.4,136.9 C209.9,136.6 212.4,136.4 215.0,136.2 C217.5,136.1 220.0,136.5 222.6,136.1 C225.1,135.7 227.6,134.4 230.2,133.8 C232.7,133.2 235.2,133.0 237.7,132.5 C240.3,132.1 242.8,131.8 245.3,131.1 C247.9,130.4 250.4,129.0 252.9,128.3 C255.5,127.6 258.0,127.3 260.5,126.9 C263.0,126.5 265.6,126.3 268.1,126.0 C270.6,125.8 273.2,125.8 275.7,125.3 C278.2,124.9 280.8,124.0 283.3,123.6 C285.8,123.1 288.3,122.8 290.9,122.5 C293.4,122.2 295.9,122.0 298.5,121.7 C301.0,121.5 303.5,121.3 306.1,121.1 C308.6,120.9 311.1,120.6 313.6,120.4 C316.2,120.3 318.7,120.3 321.2,120.2 C323.8,120.2 326.3,121.0 328.8,120.2 C331.4,119.4 333.9,116.5 336.4,115.5 C338.9,114.5 341.5,114.6 344.0,114.2 C346.5,113.7 349.1,113.3 351.6,112.8 C354.1,112.4 356.6,111.9 359.2,111.6 C361.7,111.3 364.2,111.2 366.8,111.0 C369.3,110.8 371.8,110.4 374.4,110.2 C376.9,110.0 379.4,110.1 381.9,109.7 C384.5,109.4 387.0,108.6 389.5,108.1 C392.1,107.7 394.6,107.6 397.1,107.2 C399.7,106.9 402.2,106.4 404.7,106.2 C407.2,105.9 409.8,106.0 412.3,105.7 C414.8,105.5 417.4,104.8 419.9,104.5 C422.4,104.2 425.0,104.2 427.5,104.0 C430.0,103.7 432.5,103.5 435.1,103.2 C437.6,102.9 440.1,102.5 442.7,102.2 C445.2,101.9 447.7,101.5 450.3,101.2 C452.8,100.9 455.3,100.8 457.8,100.3 C460.4,99.9 462.9,99.2 465.4,98.7 C468.0,98.3 470.5,98.1 473.0,97.7 C475.6,97.4 478.1,97.0 480.6,96.6 C483.1,96.3 485.7,95.9 488.2,95.5 C490.7,95.2 493.3,94.8 495.8,94.6 C498.3,94.3 500.9,94.2 503.4,93.8 C505.9,93.4 508.4,92.9 511.0,92.4 C513.5,91.9 516.0,91.2 518.6,90.8 C521.1,90.5 523.6,90.5 526.2,90.3 C528.7,90.1 531.2,90.0 533.7,89.8 C536.3,89.6 538.8,89.3 541.3,88.9 C543.9,88.6 546.4,88.2 548.9,87.9 C551.5,87.6 554.0,87.3 556.5,86.9 C559.0,86.6 561.6,86.2 564.1,85.8 C566.6,85.5 569.2,85.3 571.7,85.0 C574.2,84.6 576.8,84.0 579.3,83.7 C581.8,83.3 584.3,83.0 586.9,82.8 C589.4,82.6 591.9,82.6 594.5,82.4 C597.0,82.2 599.5,81.9 602.1,81.8 C604.6,81.6 607.1,81.6 609.6,81.4 C612.2,81.2 614.7,80.9 617.2,80.6 C619.8,80.4 622.3,80.0 624.8,79.8 C627.4,79.5 629.9,79.3 632.4,79.1 C634.9,78.9 638.7,78.6 640.0,78.5" fill="none" class="line-total" stroke-width="2.5" stroke-linecap="round" stroke-linejoin="round"/>

  <circle cx="640" cy="78.50133333333332" r="4.5" class="dot-total" stroke-width="2"/>
    <text x="658" y="82.50133333333332" class="end-label" font-family="-apple-system, BlinkMacSystemFont, 'Segoe UI', Helvetica, sans-serif">Total</text>
    <text x="697" y="82.50133333333332" class="end-value" font-family="-apple-system, BlinkMacSystemFont, 'Segoe UI', Helvetica, sans-serif">2.5k</text>
    <circle cx="640" cy="90.31200000000001" r="3.5" class="dot-openvsx" stroke-width="1.8"/>
    <text x="658" y="100.50133333333332" class="end-label" font-family="-apple-system, BlinkMacSystemFont, 'Segoe UI', Helvetica, sans-serif">Open VSX</text>
    <text x="716.8" y="100.50133333333332" class="end-value" font-family="-apple-system, BlinkMacSystemFont, 'Segoe UI', Helvetica, sans-serif">2.3k</text>
    <circle cx="640" cy="208.18933333333334" r="3.5" class="dot-vscode" stroke-width="1.8"/>
    <text x="658" y="212.18933333333334" class="end-label" font-family="-apple-system, BlinkMacSystemFont, 'Segoe UI', Helvetica, sans-serif">VS Code</text>
    <text x="710.2" y="212.18933333333334" class="end-value" font-family="-apple-system, BlinkMacSystemFont, 'Segoe UI', Helvetica, sans-serif">206</text>
</svg>