<svg xmlns="http://www.w3.org/2000/svg" viewBox="0 0 760 260" width="760" height="260" role="img" aria-label="Glassy install history">
  <style>
  svg { color-scheme: light dark; }
  .title      { fill: #1a1a2e; font-size: 15px; font-weight: 600; }
  .subtitle   { fill: #6b7280; font-size: 11px; font-weight: 400; }
  .grid       { stroke: #e8e8ee; }
  .axis-label { fill: #8a8a9a; font-size: 10px; }
  .line-total   { stroke: #e8553d; }
  .line-vscode  { stroke: #5b7cfa; }
  .line-openvsx { stroke: #34c7a0; }
  .dot-total   { fill: transparent; stroke: #e8553d; }
  .dot-vscode  { fill: transparent; stroke: #5b7cfa; }
  .dot-openvsx { fill: transparent; stroke: #34c7a0; }
  .end-label       { fill: #1a1a2e; font-size: 11px; font-weight: 600; }
  .end-value       { fill: #6b7280; font-size: 11px; font-weight: 400; }
  .area-total-top    { stop-color: #e8553d; }
  .area-total-bottom { stop-color: #e8553d; }

  @media (prefers-color-scheme: dark) {
    .title      { fill: #e2e2e8; }
    .subtitle   { fill: #8b949e; }
    .grid       { stroke: #2d2d3d; }
    .axis-label { fill: #6e7681; }
    .line-total   { stroke: #ff9b85; }
    .line-vscode  { stroke: #8da4ff; }
    .line-openvsx { stroke: #5eead4; }
    .dot-total   { stroke: #ff9b85; }
    .dot-vscode  { stroke: #8da4ff; }
    .dot-openvsx { stroke: #5eead4; }
    .end-label       { fill: #e2e2e8; }
    .end-value       { fill: #8b949e; }
    .area-total-top    { stop-color: #ff9b85; }
    .area-total-bottom { stop-color: #ff9b85; }
  }
</style>
  <defs>
    <linearGradient id="areaGrad" x1="0" y1="0" x2="0" y2="1">
      <stop offset="0%" class="area-total-top" stop-opacity="0.18"/>
      <stop offset="60%" class="area-total-bottom" stop-opacity="0.04"/>
      <stop offset="100%" class="area-total-bottom" stop-opacity="0"/>
    </linearGradient>
  </defs>

  <text x="48" y="22" class="title" font-family="-apple-system, BlinkMacSystemFont, 'Segoe UI', Helvetica, sans-serif">Installs</text>
  <text x="48" y="37" class="subtitle" font-family="-apple-system, BlinkMacSystemFont, 'Segoe UI', Helvetica, sans-serif">Updated Jun 7</text>

  <line x1="48" y1="220" x2="640" y2="220" class="grid" stroke-width="0.7"/>
    <text x="40" y="223.5" class="axis-label" text-anchor="end" font-family="-apple-system, BlinkMacSystemFont, 'Segoe UI', Helvetica, sans-serif">0</text>
    <line x1="48" y1="177" x2="640" y2="177" class="grid" stroke-width="0.7"/>
    <text x="40" y="180.5" class="axis-label" text-anchor="end" font-family="-apple-system, BlinkMacSystemFont, 'Segoe UI', Helvetica, sans-serif">500</text>
    <line x1="48" y1="134" x2="640" y2="134" class="grid" stroke-width="0.7"/>
    <text x="40" y="137.5" class="axis-label" text-anchor="end" font-family="-apple-system, BlinkMacSystemFont, 'Segoe UI', Helvetica, sans-serif">1k</text>
    <line x1="48" y1="91" x2="640" y2="91" class="grid" stroke-width="0.7"/>
    <text x="40" y="94.5" class="axis-label" text-anchor="end" font-family="-apple-system, BlinkMacSystemFont, 'Segoe UI', Helvetica, sans-serif">1.5k</text>
    <line x1="48" y1="48" x2="640" y2="48" class="grid" stroke-width="0.7"/>
    <text x="40" y="51.5" class="axis-label" text-anchor="end" font-family="-apple-system, BlinkMacSystemFont, 'Segoe UI', Helvetica, sans-serif">2k</text>
  <text x="48" y="248" class="axis-label" text-anchor="middle" font-family="-apple-system, BlinkMacSystemFont, 'Segoe UI', Helvetica, sans-serif">Mar 27</text>
    <text x="171.90697674418607" y="248" class="axis-label" text-anchor="middle" font-family="-apple-system, BlinkMacSystemFont, 'Segoe UI', Helvetica, sans-serif">May 4</text>
    <text x="282.04651162790697" y="248" class="axis-label" text-anchor="middle" font-family="-apple-system, BlinkMacSystemFont, 'Segoe UI', Helvetica, sans-serif">May 12</text>
    <text x="405.953488372093" y="248" class="axis-label" text-anchor="middle" font-family="-apple-system, BlinkMacSystemFont, 'Segoe UI', Helvetica, sans-serif">May 21</text>
    <text x="516.0930232558139" y="248" class="axis-label" text-anchor="middle" font-family="-apple-system, BlinkMacSystemFont, 'Segoe UI', Helvetica, sans-serif">May 29</text>
    <text x="640" y="248" class="axis-label" text-anchor="middle" font-family="-apple-system, BlinkMacSystemFont, 'Segoe UI', Helvetica, sans-serif">Jun 7</text>

  <path d="M48.0,219.7 C50.3,217.6 57.2,210.5 61.8,207.5 C66.4,204.5 70.9,203.6 75.5,201.6 C80.1,199.6 84.7,196.6 89.3,195.6 C93.9,194.5 98.5,197.4 103.1,195.2 C107.7,193.0 112.2,184.9 116.8,182.3 C121.4,179.8 126.0,190.1 130.6,179.8 C135.2,169.4 139.8,130.5 144.4,120.0 C149.0,109.5 153.6,117.6 158.1,116.9 C162.7,116.2 167.3,116.1 171.9,115.8 C176.5,115.5 181.1,115.4 185.7,115.2 C190.3,115.0 194.9,114.9 199.4,114.6 C204.0,114.2 208.6,113.7 213.2,113.0 C217.8,112.3 222.4,111.1 227.0,110.4 C231.6,109.8 236.2,109.5 240.7,109.1 C245.3,108.8 249.9,109.1 254.5,108.5 C259.1,107.8 263.7,106.2 268.3,105.4 C272.9,104.7 277.5,104.4 282.0,103.9 C286.6,103.4 291.2,103.1 295.8,102.6 C300.4,102.2 305.0,102.2 309.6,101.2 C314.2,100.3 318.8,98.0 323.3,97.0 C327.9,96.0 332.5,95.8 337.1,95.4 C341.7,94.9 346.3,94.6 350.9,94.4 C355.5,94.1 360.1,94.7 364.7,94.1 C369.2,93.5 373.8,91.5 378.4,90.7 C383.0,89.8 387.6,89.4 392.2,88.8 C396.8,88.1 401.4,87.7 406.0,86.6 C410.5,85.6 415.1,83.4 419.7,82.4 C424.3,81.4 428.9,80.9 433.5,80.3 C438.1,79.8 442.7,79.4 447.3,79.0 C451.8,78.7 456.4,78.6 461.0,78.0 C465.6,77.4 470.2,76.1 474.8,75.3 C479.4,74.6 484.0,74.3 488.6,73.8 C493.1,73.3 497.7,73.0 502.3,72.6 C506.9,72.2 511.5,72.0 516.1,71.7 C520.7,71.3 525.3,70.8 529.9,70.6 C534.4,70.4 539.0,70.4 543.6,70.4 C548.2,70.3 552.8,71.4 557.4,70.3 C562.0,69.1 566.6,64.8 571.2,63.3 C575.8,61.8 580.3,61.9 584.9,61.2 C589.5,60.6 594.1,59.9 598.7,59.3 C603.3,58.6 607.9,57.8 612.5,57.4 C617.1,56.9 621.6,56.9 626.2,56.5 C630.8,56.2 637.7,55.5 640.0,55.3 L640.0,220.0 L48.0,220.0 Z" fill="url(#areaGrad)"/>
  <path d="M48.0,219.7 C50.3,217.7 57.2,210.6 61.8,207.8 C66.4,204.9 70.9,204.3 75.5,202.6 C80.1,200.9 84.7,198.5 89.3,197.6 C93.9,196.8 98.5,199.7 103.1,197.6 C107.7,195.6 112.2,187.7 116.8,185.3 C121.4,182.8 126.0,192.6 130.6,183.2 C135.2,173.8 139.8,138.2 144.4,128.7 C149.0,119.1 153.6,126.5 158.1,125.9 C162.7,125.3 167.3,125.3 171.9,125.1 C176.5,124.9 181.1,124.9 185.7,124.7 C190.3,124.6 194.9,124.5 199.4,124.2 C204.0,123.9 208.6,123.3 213.2,122.6 C217.8,122.0 222.4,120.6 227.0,120.1 C231.6,119.5 236.2,119.6 240.7,119.4 C245.3,119.2 249.9,119.4 254.5,118.9 C259.1,118.3 263.7,116.7 268.3,115.9 C272.9,115.2 277.5,115.0 282.0,114.6 C286.6,114.1 291.2,113.8 295.8,113.4 C300.4,112.9 305.0,112.9 309.6,112.0 C314.2,111.1 318.8,108.8 323.3,107.9 C327.9,106.9 332.5,106.7 337.1,106.3 C341.7,105.9 346.3,105.5 350.9,105.3 C355.5,105.1 360.1,105.7 364.7,105.1 C369.2,104.5 373.8,102.7 378.4,101.8 C383.0,101.0 387.6,100.7 392.2,100.1 C396.8,99.5 401.4,99.3 406.0,98.4 C410.5,97.5 415.1,95.4 419.7,94.4 C424.3,93.5 428.9,93.1 433.5,92.5 C438.1,92.0 442.7,91.7 447.3,91.3 C451.8,91.0 456.4,91.0 461.0,90.5 C465.6,89.9 470.2,88.7 474.8,88.1 C479.4,87.4 484.0,87.1 488.6,86.7 C493.1,86.3 497.7,86.0 502.3,85.7 C506.9,85.4 511.5,85.2 516.1,85.0 C520.7,84.7 525.3,84.3 529.9,84.1 C534.4,84.0 539.0,84.1 543.6,84.1 C548.2,84.1 552.8,85.2 557.4,84.1 C562.0,83.0 566.6,78.9 571.2,77.4 C575.8,76.0 580.3,76.0 584.9,75.3 C589.5,74.7 594.1,74.1 598.7,73.5 C603.3,72.8 607.9,72.0 612.5,71.6 C617.1,71.1 621.6,71.0 626.2,70.7 C630.8,70.4 637.7,69.7 640.0,69.5" fill="none" class="line-openvsx" stroke-width="1.8" stroke-linecap="round" stroke-linejoin="round"/>
  <path d="M48.0,219.9 C50.3,219.9 57.2,219.9 61.8,219.7 C66.4,219.6 70.9,219.3 75.5,219.0 C80.1,218.7 84.7,218.2 89.3,217.9 C93.9,217.7 98.5,217.7 103.1,217.6 C107.7,217.4 112.2,217.2 116.8,217.1 C121.4,216.9 126.0,217.5 130.6,216.6 C135.2,215.6 139.8,212.2 144.4,211.3 C149.0,210.4 153.6,211.1 158.1,211.0 C162.7,210.9 167.3,210.8 171.9,210.7 C176.5,210.6 181.1,210.5 185.7,210.5 C190.3,210.4 194.9,210.4 199.4,210.4 C204.0,210.4 208.6,210.4 213.2,210.4 C217.8,210.4 222.4,210.5 227.0,210.4 C231.6,210.3 236.2,209.9 240.7,209.8 C245.3,209.6 249.9,209.6 254.5,209.6 C259.1,209.6 263.7,209.6 268.3,209.5 C272.9,209.5 277.5,209.4 282.0,209.3 C286.6,209.3 291.2,209.3 295.8,209.3 C300.4,209.2 305.0,209.3 309.6,209.3 C314.2,209.2 318.8,209.2 323.3,209.2 C327.9,209.1 332.5,209.1 337.1,209.1 C341.7,209.1 346.3,209.1 350.9,209.1 C355.5,209.1 360.1,209.0 364.7,209.0 C369.2,208.9 373.8,208.9 378.4,208.8 C383.0,208.8 387.6,208.7 392.2,208.6 C396.8,208.5 401.4,208.3 406.0,208.2 C410.5,208.1 415.1,208.0 419.7,208.0 C424.3,207.9 428.9,207.8 433.5,207.8 C438.1,207.7 442.7,207.7 447.3,207.7 C451.8,207.7 456.4,207.6 461.0,207.5 C465.6,207.5 470.2,207.3 474.8,207.3 C479.4,207.2 484.0,207.2 488.6,207.1 C493.1,207.0 497.7,207.0 502.3,206.9 C506.9,206.9 511.5,206.7 516.1,206.7 C520.7,206.6 525.3,206.6 529.9,206.5 C534.4,206.4 539.0,206.3 543.6,206.2 C548.2,206.2 552.8,206.2 557.4,206.2 C562.0,206.1 566.6,205.9 571.2,205.9 C575.8,205.9 580.3,205.9 584.9,205.9 C589.5,205.9 594.1,205.8 598.7,205.8 C603.3,205.8 607.9,205.8 612.5,205.8 C617.1,205.8 621.6,205.8 626.2,205.8 C630.8,205.8 637.7,205.8 640.0,205.8" fill="none" class="line-vscode" stroke-width="1.8" stroke-linecap="round" stroke-linejoin="round"/>
  <path d="M48.0,219.7 C50.3,217.6 57.2,210.5 61.8,207.5 C66.4,204.5 70.9,203.6 75.5,201.6 C80.1,199.6 84.7,196.6 89.3,195.6 C93.9,194.5 98.5,197.4 103.1,195.2 C107.7,193.0 112.2,184.9 116.8,182.3 C121.4,179.8 126.0,190.1 130.6,179.8 C135.2,169.4 139.8,130.5 144.4,120.0 C149.0,109.5 153.6,117.6 158.1,116.9 C162.7,116.2 167.3,116.1 171.9,115.8 C176.5,115.5 181.1,115.4 185.7,115.2 C190.3,115.0 194.9,114.9 199.4,114.6 C204.0,114.2 208.6,113.7 213.2,113.0 C217.8,112.3 222.4,111.1 227.0,110.4 C231.6,109.8 236.2,109.5 240.7,109.1 C245.3,108.8 249.9,109.1 254.5,108.5 C259.1,107.8 263.7,106.2 268.3,105.4 C272.9,104.7 277.5,104.4 282.0,103.9 C286.6,103.4 291.2,103.1 295.8,102.6 C300.4,102.2 305.0,102.2 309.6,101.2 C314.2,100.3 318.8,98.0 323.3,97.0 C327.9,96.0 332.5,95.8 337.1,95.4 C341.7,94.9 346.3,94.6 350.9,94.4 C355.5,94.1 360.1,94.7 364.7,94.1 C369.2,93.5 373.8,91.5 378.4,90.7 C383.0,89.8 387.6,89.4 392.2,88.8 C396.8,88.1 401.4,87.7 406.0,86.6 C410.5,85.6 415.1,83.4 419.7,82.4 C424.3,81.4 428.9,80.9 433.5,80.3 C438.1,79.8 442.7,79.4 447.3,79.0 C451.8,78.7 456.4,78.6 461.0,78.0 C465.6,77.4 470.2,76.1 474.8,75.3 C479.4,74.6 484.0,74.3 488.6,73.8 C493.1,73.3 497.7,73.0 502.3,72.6 C506.9,72.2 511.5,72.0 516.1,71.7 C520.7,71.3 525.3,70.8 529.9,70.6 C534.4,70.4 539.0,70.4 543.6,70.4 C548.2,70.3 552.8,71.4 557.4,70.3 C562.0,69.1 566.6,64.8 571.2,63.3 C575.8,61.8 580.3,61.9 584.9,61.2 C589.5,60.6 594.1,59.9 598.7,59.3 C603.3,58.6 607.9,57.8 612.5,57.4 C617.1,56.9 621.6,56.9 626.2,56.5 C630.8,56.2 637.7,55.5 640.0,55.3" fill="none" class="line-total" stroke-width="2.5" stroke-linecap="round" stroke-linejoin="round"/>

  <circle cx="640" cy="55.31" r="4.5" class="dot-total" stroke-width="2"/>
    <text x="658" y="59.31" class="end-label" font-family="-apple-system, BlinkMacSystemFont, 'Segoe UI', Helvetica, sans-serif">Total</text>
    <text x="697" y="59.31" class="end-value" font-family="-apple-system, BlinkMacSystemFont, 'Segoe UI', Helvetica, sans-serif">1.9k</text>
    <circle cx="640" cy="69.5" r="3.5" class="dot-openvsx" stroke-width="1.8"/>
    <text x="658" y="77.31" class="end-label" font-family="-apple-system, BlinkMacSystemFont, 'Segoe UI', Helvetica, sans-serif">Open VSX</text>
    <text x="716.8" y="77.31" class="end-value" font-family="-apple-system, BlinkMacSystemFont, 'Segoe UI', Helvetica, sans-serif">1.8k</text>
    <circle cx="640" cy="205.81" r="3.5" class="dot-vscode" stroke-width="1.8"/>
    <text x="658" y="209.81" class="end-label" font-family="-apple-system, BlinkMacSystemFont, 'Segoe UI', Helvetica, sans-serif">VS Code</text>
    <text x="710.2" y="209.81" class="end-value" font-family="-apple-system, BlinkMacSystemFont, 'Segoe UI', Helvetica, sans-serif">165</text>
</svg>