<svg xmlns="http://www.w3.org/2000/svg" viewBox="0 0 760 260" width="760" height="260" role="img" aria-label="Glassy install history">
  <style>
  svg { color-scheme: light dark; }
  .title      { fill: #1a1a2e; font-size: 15px; font-weight: 600; }
  .subtitle   { fill: #6b7280; font-size: 11px; font-weight: 400; }
  .grid       { stroke: #e8e8ee; }
  .axis-label { fill: #8a8a9a; font-size: 10px; }
  .line-total   { stroke: #e8553d; }
  .line-vscode  { stroke: #5b7cfa; }
  .line-openvsx { stroke: #34c7a0; }
  .dot-total   { fill: transparent; stroke: #e8553d; }
  .dot-vscode  { fill: transparent; stroke: #5b7cfa; }
  .dot-openvsx { fill: transparent; stroke: #34c7a0; }
  .end-label       { fill: #1a1a2e; font-size: 11px; font-weight: 600; }
  .end-value       { fill: #6b7280; font-size: 11px; font-weight: 400; }
  .area-total-top    { stop-color: #e8553d; }
  .area-total-bottom { stop-color: #e8553d; }

  @media (prefers-color-scheme: dark) {
    .title      { fill: #e2e2e8; }
    .subtitle   { fill: #8b949e; }
    .grid       { stroke: #2d2d3d; }
    .axis-label { fill: #6e7681; }
    .line-total   { stroke: #ff9b85; }
    .line-vscode  { stroke: #8da4ff; }
    .line-openvsx { stroke: #5eead4; }
    .dot-total   { stroke: #ff9b85; }
    .dot-vscode  { stroke: #8da4ff; }
    .dot-openvsx { stroke: #5eead4; }
    .end-label       { fill: #e2e2e8; }
    .end-value       { fill: #8b949e; }
    .area-total-top    { stop-color: #ff9b85; }
    .area-total-bottom { stop-color: #ff9b85; }
  }
</style>
  <defs>
    <linearGradient id="areaGrad" x1="0" y1="0" x2="0" y2="1">
      <stop offset="0%" class="area-total-top" stop-opacity="0.18"/>
      <stop offset="60%" class="area-total-bottom" stop-opacity="0.04"/>
      <stop offset="100%" class="area-total-bottom" stop-opacity="0"/>
    </linearGradient>
  </defs>

  <text x="48" y="22" class="title" font-family="-apple-system, BlinkMacSystemFont, 'Segoe UI', Helvetica, sans-serif">Installs</text>
  <text x="48" y="37" class="subtitle" font-family="-apple-system, BlinkMacSystemFont, 'Segoe UI', Helvetica, sans-serif">Updated May 20</text>

  <line x1="48" y1="220" x2="640" y2="220" class="grid" stroke-width="0.7"/>
    <text x="40" y="223.5" class="axis-label" text-anchor="end" font-family="-apple-system, BlinkMacSystemFont, 'Segoe UI', Helvetica, sans-serif">0</text>
    <line x1="48" y1="177" x2="640" y2="177" class="grid" stroke-width="0.7"/>
    <text x="40" y="180.5" class="axis-label" text-anchor="end" font-family="-apple-system, BlinkMacSystemFont, 'Segoe UI', Helvetica, sans-serif">500</text>
    <line x1="48" y1="134" x2="640" y2="134" class="grid" stroke-width="0.7"/>
    <text x="40" y="137.5" class="axis-label" text-anchor="end" font-family="-apple-system, BlinkMacSystemFont, 'Segoe UI', Helvetica, sans-serif">1k</text>
    <line x1="48" y1="91" x2="640" y2="91" class="grid" stroke-width="0.7"/>
    <text x="40" y="94.5" class="axis-label" text-anchor="end" font-family="-apple-system, BlinkMacSystemFont, 'Segoe UI', Helvetica, sans-serif">1.5k</text>
    <line x1="48" y1="48" x2="640" y2="48" class="grid" stroke-width="0.7"/>
    <text x="40" y="51.5" class="axis-label" text-anchor="end" font-family="-apple-system, BlinkMacSystemFont, 'Segoe UI', Helvetica, sans-serif">2k</text>
  <text x="48" y="248" class="axis-label" text-anchor="middle" font-family="-apple-system, BlinkMacSystemFont, 'Segoe UI', Helvetica, sans-serif">Mar 27</text>
    <text x="166.4" y="248" class="axis-label" text-anchor="middle" font-family="-apple-system, BlinkMacSystemFont, 'Segoe UI', Helvetica, sans-serif">Apr 1</text>
    <text x="284.8" y="248" class="axis-label" text-anchor="middle" font-family="-apple-system, BlinkMacSystemFont, 'Segoe UI', Helvetica, sans-serif">May 5</text>
    <text x="403.2" y="248" class="axis-label" text-anchor="middle" font-family="-apple-system, BlinkMacSystemFont, 'Segoe UI', Helvetica, sans-serif">May 10</text>
    <text x="521.6" y="248" class="axis-label" text-anchor="middle" font-family="-apple-system, BlinkMacSystemFont, 'Segoe UI', Helvetica, sans-serif">May 15</text>
    <text x="640" y="248" class="axis-label" text-anchor="middle" font-family="-apple-system, BlinkMacSystemFont, 'Segoe UI', Helvetica, sans-serif">May 20</text>

  <path d="M48.0,219.7 C51.9,217.6 63.8,210.5 71.7,207.5 C79.6,204.5 87.5,203.6 95.4,201.6 C103.3,199.6 111.1,196.6 119.0,195.6 C126.9,194.5 134.8,197.4 142.7,195.2 C150.6,193.0 158.5,184.9 166.4,182.3 C174.3,179.8 182.2,190.1 190.1,179.8 C198.0,169.4 205.9,130.5 213.8,120.0 C221.7,109.5 229.5,117.6 237.4,116.9 C245.3,116.2 253.2,116.1 261.1,115.8 C269.0,115.5 276.9,115.4 284.8,115.2 C292.7,115.0 300.6,114.9 308.5,114.6 C316.4,114.2 324.3,113.7 332.2,113.0 C340.1,112.3 347.9,111.1 355.8,110.4 C363.7,109.8 371.6,109.5 379.5,109.1 C387.4,108.8 395.3,109.1 403.2,108.5 C411.1,107.8 419.0,106.2 426.9,105.4 C434.8,104.7 442.7,104.4 450.6,103.9 C458.5,103.4 466.3,103.1 474.2,102.6 C482.1,102.2 490.0,102.2 497.9,101.2 C505.8,100.3 513.7,98.0 521.6,97.0 C529.5,96.0 537.4,95.8 545.3,95.4 C553.2,94.9 561.1,94.6 569.0,94.4 C576.9,94.1 584.7,94.7 592.6,94.1 C600.5,93.5 608.4,91.5 616.3,90.7 C624.2,89.8 636.1,89.1 640.0,88.8 L640.0,220.0 L48.0,220.0 Z" fill="url(#areaGrad)"/>
  <path d="M48.0,219.7 C51.9,217.7 63.8,210.6 71.7,207.8 C79.6,204.9 87.5,204.3 95.4,202.6 C103.3,200.9 111.1,198.5 119.0,197.6 C126.9,196.8 134.8,199.7 142.7,197.6 C150.6,195.6 158.5,187.7 166.4,185.3 C174.3,182.8 182.2,192.6 190.1,183.2 C198.0,173.8 205.9,138.2 213.8,128.7 C221.7,119.1 229.5,126.5 237.4,125.9 C245.3,125.3 253.2,125.3 261.1,125.1 C269.0,124.9 276.9,124.9 284.8,124.7 C292.7,124.6 300.6,124.5 308.5,124.2 C316.4,123.9 324.3,123.3 332.2,122.6 C340.1,122.0 347.9,120.6 355.8,120.1 C363.7,119.5 371.6,119.6 379.5,119.4 C387.4,119.2 395.3,119.4 403.2,118.9 C411.1,118.3 419.0,116.7 426.9,115.9 C434.8,115.2 442.7,115.0 450.6,114.6 C458.5,114.1 466.3,113.8 474.2,113.4 C482.1,112.9 490.0,112.9 497.9,112.0 C505.8,111.1 513.7,108.8 521.6,107.9 C529.5,106.9 537.4,106.7 545.3,106.3 C553.2,105.9 561.1,105.5 569.0,105.3 C576.9,105.1 584.7,105.7 592.6,105.1 C600.5,104.5 608.4,102.7 616.3,101.8 C624.2,101.0 636.1,100.4 640.0,100.1" fill="none" class="line-openvsx" stroke-width="1.8" stroke-linecap="round" stroke-linejoin="round"/>
  <path d="M48.0,219.9 C51.9,219.9 63.8,219.9 71.7,219.7 C79.6,219.6 87.5,219.3 95.4,219.0 C103.3,218.7 111.1,218.2 119.0,217.9 C126.9,217.7 134.8,217.7 142.7,217.6 C150.6,217.4 158.5,217.2 166.4,217.1 C174.3,216.9 182.2,217.5 190.1,216.6 C198.0,215.6 205.9,212.2 213.8,211.3 C221.7,210.4 229.5,211.1 237.4,211.0 C245.3,210.9 253.2,210.8 261.1,210.7 C269.0,210.6 276.9,210.5 284.8,210.5 C292.7,210.4 300.6,210.4 308.5,210.4 C316.4,210.4 324.3,210.4 332.2,210.4 C340.1,210.4 347.9,210.5 355.8,210.4 C363.7,210.3 371.6,209.9 379.5,209.8 C387.4,209.6 395.3,209.6 403.2,209.6 C411.1,209.6 419.0,209.6 426.9,209.5 C434.8,209.5 442.7,209.4 450.6,209.3 C458.5,209.3 466.3,209.3 474.2,209.3 C482.1,209.2 490.0,209.3 497.9,209.3 C505.8,209.2 513.7,209.2 521.6,209.2 C529.5,209.1 537.4,209.1 545.3,209.1 C553.2,209.1 561.1,209.1 569.0,209.1 C576.9,209.1 584.7,209.0 592.6,209.0 C600.5,208.9 608.4,208.9 616.3,208.8 C624.2,208.8 636.1,208.7 640.0,208.6" fill="none" class="line-vscode" stroke-width="1.8" stroke-linecap="round" stroke-linejoin="round"/>
  <path d="M48.0,219.7 C51.9,217.6 63.8,210.5 71.7,207.5 C79.6,204.5 87.5,203.6 95.4,201.6 C103.3,199.6 111.1,196.6 119.0,195.6 C126.9,194.5 134.8,197.4 142.7,195.2 C150.6,193.0 158.5,184.9 166.4,182.3 C174.3,179.8 182.2,190.1 190.1,179.8 C198.0,169.4 205.9,130.5 213.8,120.0 C221.7,109.5 229.5,117.6 237.4,116.9 C245.3,116.2 253.2,116.1 261.1,115.8 C269.0,115.5 276.9,115.4 284.8,115.2 C292.7,115.0 300.6,114.9 308.5,114.6 C316.4,114.2 324.3,113.7 332.2,113.0 C340.1,112.3 347.9,111.1 355.8,110.4 C363.7,109.8 371.6,109.5 379.5,109.1 C387.4,108.8 395.3,109.1 403.2,108.5 C411.1,107.8 419.0,106.2 426.9,105.4 C434.8,104.7 442.7,104.4 450.6,103.9 C458.5,103.4 466.3,103.1 474.2,102.6 C482.1,102.2 490.0,102.2 497.9,101.2 C505.8,100.3 513.7,98.0 521.6,97.0 C529.5,96.0 537.4,95.8 545.3,95.4 C553.2,94.9 561.1,94.6 569.0,94.4 C576.9,94.1 584.7,94.7 592.6,94.1 C600.5,93.5 608.4,91.5 616.3,90.7 C624.2,89.8 636.1,89.1 640.0,88.8" fill="none" class="line-total" stroke-width="2.5" stroke-linecap="round" stroke-linejoin="round"/>

  <circle cx="640" cy="88.76400000000001" r="4.5" class="dot-total" stroke-width="2"/>
    <text x="658" y="92.76400000000001" class="end-label" font-family="-apple-system, BlinkMacSystemFont, 'Segoe UI', Helvetica, sans-serif">Total</text>
    <text x="697" y="92.76400000000001" class="end-value" font-family="-apple-system, BlinkMacSystemFont, 'Segoe UI', Helvetica, sans-serif">1.5k</text>
    <circle cx="640" cy="100.11600000000001" r="3.5" class="dot-openvsx" stroke-width="1.8"/>
    <text x="658" y="110.76400000000001" class="end-label" font-family="-apple-system, BlinkMacSystemFont, 'Segoe UI', Helvetica, sans-serif">Open VSX</text>
    <text x="716.8" y="110.76400000000001" class="end-value" font-family="-apple-system, BlinkMacSystemFont, 'Segoe UI', Helvetica, sans-serif">1.4k</text>
    <circle cx="640" cy="208.648" r="3.5" class="dot-vscode" stroke-width="1.8"/>
    <text x="658" y="212.648" class="end-label" font-family="-apple-system, BlinkMacSystemFont, 'Segoe UI', Helvetica, sans-serif">VS Code</text>
    <text x="710.2" y="212.648" class="end-value" font-family="-apple-system, BlinkMacSystemFont, 'Segoe UI', Helvetica, sans-serif">132</text>
</svg>