<svg xmlns="http://www.w3.org/2000/svg" viewBox="0 0 760 260" width="760" height="260" role="img" aria-label="Glassy install history">
  <style>
  svg { color-scheme: light dark; }
  .title      { fill: #1a1a2e; font-size: 15px; font-weight: 600; }
  .subtitle   { fill: #6b7280; font-size: 11px; font-weight: 400; }
  .grid       { stroke: #e8e8ee; }
  .axis-label { fill: #8a8a9a; font-size: 10px; }
  .line-total   { stroke: #e8553d; }
  .line-vscode  { stroke: #5b7cfa; }
  .line-openvsx { stroke: #34c7a0; }
  .dot-total   { fill: transparent; stroke: #e8553d; }
  .dot-vscode  { fill: transparent; stroke: #5b7cfa; }
  .dot-openvsx { fill: transparent; stroke: #34c7a0; }
  .end-label       { fill: #1a1a2e; font-size: 11px; font-weight: 600; }
  .end-value       { fill: #6b7280; font-size: 11px; font-weight: 400; }
  .area-total-top    { stop-color: #e8553d; }
  .area-total-bottom { stop-color: #e8553d; }

  @media (prefers-color-scheme: dark) {
    .title      { fill: #e2e2e8; }
    .subtitle   { fill: #8b949e; }
    .grid       { stroke: #2d2d3d; }
    .axis-label { fill: #6e7681; }
    .line-total   { stroke: #ff9b85; }
    .line-vscode  { stroke: #8da4ff; }
    .line-openvsx { stroke: #5eead4; }
    .dot-total   { stroke: #ff9b85; }
    .dot-vscode  { stroke: #8da4ff; }
    .dot-openvsx { stroke: #5eead4; }
    .end-label       { fill: #e2e2e8; }
    .end-value       { fill: #8b949e; }
    .area-total-top    { stop-color: #ff9b85; }
    .area-total-bottom { stop-color: #ff9b85; }
  }
</style>
  <defs>
    <linearGradient id="areaGrad" x1="0" y1="0" x2="0" y2="1">
      <stop offset="0%" class="area-total-top" stop-opacity="0.18"/>
      <stop offset="60%" class="area-total-bottom" stop-opacity="0.04"/>
      <stop offset="100%" class="area-total-bottom" stop-opacity="0"/>
    </linearGradient>
  </defs>

  <text x="48" y="22" class="title" font-family="-apple-system, BlinkMacSystemFont, 'Segoe UI', Helvetica, sans-serif">Installs</text>
  <text x="48" y="37" class="subtitle" font-family="-apple-system, BlinkMacSystemFont, 'Segoe UI', Helvetica, sans-serif">Updated Jun 19</text>

  <line x1="48" y1="220" x2="640" y2="220" class="grid" stroke-width="0.7"/>
    <text x="40" y="223.5" class="axis-label" text-anchor="end" font-family="-apple-system, BlinkMacSystemFont, 'Segoe UI', Helvetica, sans-serif">0</text>
    <line x1="48" y1="162.66666666666669" x2="640" y2="162.66666666666669" class="grid" stroke-width="0.7"/>
    <text x="40" y="166.16666666666669" class="axis-label" text-anchor="end" font-family="-apple-system, BlinkMacSystemFont, 'Segoe UI', Helvetica, sans-serif">1k</text>
    <line x1="48" y1="105.33333333333334" x2="640" y2="105.33333333333334" class="grid" stroke-width="0.7"/>
    <text x="40" y="108.83333333333334" class="axis-label" text-anchor="end" font-family="-apple-system, BlinkMacSystemFont, 'Segoe UI', Helvetica, sans-serif">2k</text>
    <line x1="48" y1="48" x2="640" y2="48" class="grid" stroke-width="0.7"/>
    <text x="40" y="51.5" class="axis-label" text-anchor="end" font-family="-apple-system, BlinkMacSystemFont, 'Segoe UI', Helvetica, sans-serif">3k</text>
  <text x="48" y="248" class="axis-label" text-anchor="middle" font-family="-apple-system, BlinkMacSystemFont, 'Segoe UI', Helvetica, sans-serif">Mar 27</text>
    <text x="166.4" y="248" class="axis-label" text-anchor="middle" font-family="-apple-system, BlinkMacSystemFont, 'Segoe UI', Helvetica, sans-serif">May 6</text>
    <text x="284.8" y="248" class="axis-label" text-anchor="middle" font-family="-apple-system, BlinkMacSystemFont, 'Segoe UI', Helvetica, sans-serif">May 17</text>
    <text x="403.2" y="248" class="axis-label" text-anchor="middle" font-family="-apple-system, BlinkMacSystemFont, 'Segoe UI', Helvetica, sans-serif">May 28</text>
    <text x="521.6" y="248" class="axis-label" text-anchor="middle" font-family="-apple-system, BlinkMacSystemFont, 'Segoe UI', Helvetica, sans-serif">Jun 8</text>
    <text x="640" y="248" class="axis-label" text-anchor="middle" font-family="-apple-system, BlinkMacSystemFont, 'Segoe UI', Helvetica, sans-serif">Jun 19</text>

  <path d="M48.0,219.8 C49.8,218.4 55.2,213.7 58.8,211.7 C62.4,209.7 65.9,209.1 69.5,207.7 C73.1,206.4 76.7,204.4 80.3,203.7 C83.9,203.0 87.5,205.0 91.1,203.5 C94.6,202.0 98.2,196.6 101.8,194.9 C105.4,193.2 109.0,200.1 112.6,193.2 C116.2,186.2 119.8,160.3 123.3,153.3 C126.9,146.3 130.5,151.7 134.1,151.3 C137.7,150.8 141.3,150.7 144.9,150.5 C148.5,150.3 152.0,150.2 155.6,150.1 C159.2,150.0 162.8,149.9 166.4,149.7 C170.0,149.5 173.6,149.1 177.2,148.7 C180.8,148.2 184.3,147.4 187.9,147.0 C191.5,146.5 195.1,146.3 198.7,146.1 C202.3,145.9 205.9,146.0 209.5,145.6 C213.0,145.2 216.6,144.1 220.2,143.6 C223.8,143.1 227.4,142.9 231.0,142.6 C234.6,142.3 238.2,142.0 241.7,141.7 C245.3,141.4 248.9,141.4 252.5,140.8 C256.1,140.2 259.7,138.7 263.3,138.0 C266.9,137.4 270.4,137.2 274.0,136.9 C277.6,136.6 281.2,136.4 284.8,136.2 C288.4,136.1 292.0,136.5 295.6,136.1 C299.2,135.7 302.7,134.4 306.3,133.8 C309.9,133.2 313.5,133.0 317.1,132.5 C320.7,132.1 324.3,131.8 327.9,131.1 C331.4,130.4 335.0,129.0 338.6,128.3 C342.2,127.6 345.8,127.3 349.4,126.9 C353.0,126.5 356.6,126.3 360.1,126.0 C363.7,125.8 367.3,125.8 370.9,125.3 C374.5,124.9 378.1,124.0 381.7,123.6 C385.3,123.1 388.8,122.8 392.4,122.5 C396.0,122.2 399.6,122.0 403.2,121.7 C406.8,121.5 410.4,121.3 414.0,121.1 C417.6,120.9 421.1,120.6 424.7,120.4 C428.3,120.3 431.9,120.3 435.5,120.2 C439.1,120.2 442.7,121.0 446.3,120.2 C449.8,119.4 453.4,116.5 457.0,115.5 C460.6,114.5 464.2,114.6 467.8,114.2 C471.4,113.7 475.0,113.3 478.5,112.8 C482.1,112.4 485.7,111.9 489.3,111.6 C492.9,111.3 496.5,111.2 500.1,111.0 C503.7,110.8 507.2,110.4 510.8,110.2 C514.4,110.0 518.0,110.1 521.6,109.7 C525.2,109.4 528.8,108.6 532.4,108.1 C536.0,107.7 539.5,107.6 543.1,107.2 C546.7,106.9 550.3,106.4 553.9,106.2 C557.5,105.9 561.1,106.0 564.7,105.7 C568.2,105.5 571.8,104.8 575.4,104.5 C579.0,104.2 582.6,104.2 586.2,104.0 C589.8,103.7 593.4,103.5 596.9,103.2 C600.5,102.9 604.1,102.5 607.7,102.2 C611.3,101.9 614.9,101.5 618.5,101.2 C622.1,100.9 625.6,100.8 629.2,100.3 C632.8,99.9 638.2,99.0 640.0,98.7 L640.0,220.0 L48.0,220.0 Z" fill="url(#areaGrad)"/>
  <path d="M48.0,219.8 C49.8,218.5 55.2,213.8 58.8,211.9 C62.4,210.0 65.9,209.5 69.5,208.4 C73.1,207.3 76.7,205.6 80.3,205.1 C83.9,204.5 87.5,206.5 91.1,205.1 C94.6,203.7 98.2,198.4 101.8,196.8 C105.4,195.2 109.0,201.7 112.6,195.5 C116.2,189.2 119.8,165.5 123.3,159.1 C126.9,152.7 130.5,157.7 134.1,157.3 C137.7,156.9 141.3,156.8 144.9,156.7 C148.5,156.6 152.0,156.6 155.6,156.5 C159.2,156.4 162.8,156.4 166.4,156.1 C170.0,155.9 173.6,155.6 177.2,155.1 C180.8,154.6 184.3,153.7 187.9,153.4 C191.5,153.0 195.1,153.1 198.7,152.9 C202.3,152.8 205.9,153.0 209.5,152.6 C213.0,152.2 216.6,151.1 220.2,150.6 C223.8,150.1 227.4,150.0 231.0,149.7 C234.6,149.4 238.2,149.2 241.7,148.9 C245.3,148.6 248.9,148.6 252.5,148.0 C256.1,147.4 259.7,145.9 263.3,145.2 C266.9,144.6 270.4,144.5 274.0,144.2 C277.6,143.9 281.2,143.7 284.8,143.5 C288.4,143.4 292.0,143.8 295.6,143.4 C299.2,143.0 302.7,141.8 306.3,141.2 C309.9,140.7 313.5,140.5 317.1,140.1 C320.7,139.7 324.3,139.6 327.9,138.9 C331.4,138.3 335.0,136.9 338.6,136.3 C342.2,135.6 345.8,135.4 349.4,135.0 C353.0,134.7 356.6,134.5 360.1,134.2 C363.7,134.0 367.3,134.0 370.9,133.7 C374.5,133.3 378.1,132.5 381.7,132.1 C385.3,131.6 388.8,131.4 392.4,131.1 C396.0,130.9 399.6,130.6 403.2,130.4 C406.8,130.3 410.4,130.2 414.0,130.0 C417.6,129.8 421.1,129.5 424.7,129.4 C428.3,129.3 431.9,129.4 435.5,129.4 C439.1,129.4 442.7,130.2 446.3,129.4 C449.8,128.7 453.4,125.9 457.0,124.9 C460.6,124.0 464.2,124.0 467.8,123.6 C471.4,123.1 475.0,122.7 478.5,122.3 C482.1,121.9 485.7,121.3 489.3,121.0 C492.9,120.7 496.5,120.7 500.1,120.5 C503.7,120.2 507.2,119.9 510.8,119.7 C514.4,119.5 518.0,119.6 521.6,119.2 C525.2,118.9 528.8,118.0 532.4,117.6 C536.0,117.2 539.5,117.0 543.1,116.7 C546.7,116.4 550.3,115.9 553.9,115.7 C557.5,115.4 561.1,115.5 564.7,115.2 C568.2,114.9 571.8,114.3 575.4,114.0 C579.0,113.8 582.6,113.8 586.2,113.6 C589.8,113.4 593.4,113.2 596.9,112.9 C600.5,112.6 604.1,112.3 607.7,112.0 C611.3,111.7 614.9,111.4 618.5,111.1 C622.1,110.8 625.6,110.6 629.2,110.3 C632.8,109.9 638.2,109.0 640.0,108.8" fill="none" class="line-openvsx" stroke-width="1.8" stroke-linecap="round" stroke-linejoin="round"/>
  <path d="M48.0,219.9 C49.8,219.9 55.2,219.9 58.8,219.8 C62.4,219.7 65.9,219.5 69.5,219.3 C73.1,219.1 76.7,218.8 80.3,218.6 C83.9,218.5 87.5,218.5 91.1,218.4 C94.6,218.3 98.2,218.2 101.8,218.1 C105.4,217.9 109.0,218.3 112.6,217.7 C116.2,217.1 119.8,214.8 123.3,214.2 C126.9,213.6 130.5,214.0 134.1,214.0 C137.7,213.9 141.3,213.9 144.9,213.8 C148.5,213.8 152.0,213.7 155.6,213.6 C159.2,213.6 162.8,213.6 166.4,213.6 C170.0,213.6 173.6,213.6 177.2,213.6 C180.8,213.6 184.3,213.6 187.9,213.6 C191.5,213.5 195.1,213.3 198.7,213.2 C202.3,213.1 205.9,213.1 209.5,213.1 C213.0,213.0 216.6,213.0 220.2,213.0 C223.8,213.0 227.4,212.9 231.0,212.9 C234.6,212.9 238.2,212.8 241.7,212.8 C245.3,212.8 248.9,212.8 252.5,212.8 C256.1,212.8 259.7,212.8 263.3,212.8 C266.9,212.8 270.4,212.7 274.0,212.7 C277.6,212.7 281.2,212.7 284.8,212.7 C288.4,212.7 292.0,212.7 295.6,212.7 C299.2,212.6 302.7,212.6 306.3,212.5 C309.9,212.5 313.5,212.5 317.1,212.4 C320.7,212.4 324.3,212.2 327.9,212.1 C331.4,212.1 335.0,212.0 338.6,212.0 C342.2,211.9 345.8,211.9 349.4,211.9 C353.0,211.8 356.6,211.8 360.1,211.8 C363.7,211.8 367.3,211.7 370.9,211.7 C374.5,211.6 378.1,211.6 381.7,211.5 C385.3,211.5 388.8,211.4 392.4,211.4 C396.0,211.4 399.6,211.3 403.2,211.3 C406.8,211.2 410.4,211.2 414.0,211.1 C417.6,211.1 421.1,211.0 424.7,211.0 C428.3,211.0 431.9,210.9 435.5,210.8 C439.1,210.8 442.7,210.8 446.3,210.8 C449.8,210.7 453.4,210.6 457.0,210.6 C460.6,210.6 464.2,210.6 467.8,210.6 C471.4,210.6 475.0,210.5 478.5,210.5 C482.1,210.5 485.7,210.5 489.3,210.5 C492.9,210.5 496.5,210.5 500.1,210.5 C503.7,210.5 507.2,210.5 510.8,210.5 C514.4,210.5 518.0,210.5 521.6,210.5 C525.2,210.5 528.8,210.5 532.4,210.5 C536.0,210.5 539.5,210.5 543.1,210.5 C546.7,210.5 550.3,210.5 553.9,210.5 C557.5,210.5 561.1,210.5 564.7,210.5 C568.2,210.5 571.8,210.5 575.4,210.5 C579.0,210.5 582.6,210.4 586.2,210.4 C589.8,210.3 593.4,210.3 596.9,210.3 C600.5,210.2 604.1,210.2 607.7,210.2 C611.3,210.2 614.9,210.2 618.5,210.1 C622.1,210.1 625.6,210.1 629.2,210.1 C632.8,210.1 638.2,210.0 640.0,210.0" fill="none" class="line-vscode" stroke-width="1.8" stroke-linecap="round" stroke-linejoin="round"/>
  <path d="M48.0,219.8 C49.8,218.4 55.2,213.7 58.8,211.7 C62.4,209.7 65.9,209.1 69.5,207.7 C73.1,206.4 76.7,204.4 80.3,203.7 C83.9,203.0 87.5,205.0 91.1,203.5 C94.6,202.0 98.2,196.6 101.8,194.9 C105.4,193.2 109.0,200.1 112.6,193.2 C116.2,186.2 119.8,160.3 123.3,153.3 C126.9,146.3 130.5,151.7 134.1,151.3 C137.7,150.8 141.3,150.7 144.9,150.5 C148.5,150.3 152.0,150.2 155.6,150.1 C159.2,150.0 162.8,149.9 166.4,149.7 C170.0,149.5 173.6,149.1 177.2,148.7 C180.8,148.2 184.3,147.4 187.9,147.0 C191.5,146.5 195.1,146.3 198.7,146.1 C202.3,145.9 205.9,146.0 209.5,145.6 C213.0,145.2 216.6,144.1 220.2,143.6 C223.8,143.1 227.4,142.9 231.0,142.6 C234.6,142.3 238.2,142.0 241.7,141.7 C245.3,141.4 248.9,141.4 252.5,140.8 C256.1,140.2 259.7,138.7 263.3,138.0 C266.9,137.4 270.4,137.2 274.0,136.9 C277.6,136.6 281.2,136.4 284.8,136.2 C288.4,136.1 292.0,136.5 295.6,136.1 C299.2,135.7 302.7,134.4 306.3,133.8 C309.9,133.2 313.5,133.0 317.1,132.5 C320.7,132.1 324.3,131.8 327.9,131.1 C331.4,130.4 335.0,129.0 338.6,128.3 C342.2,127.6 345.8,127.3 349.4,126.9 C353.0,126.5 356.6,126.3 360.1,126.0 C363.7,125.8 367.3,125.8 370.9,125.3 C374.5,124.9 378.1,124.0 381.7,123.6 C385.3,123.1 388.8,122.8 392.4,122.5 C396.0,122.2 399.6,122.0 403.2,121.7 C406.8,121.5 410.4,121.3 414.0,121.1 C417.6,120.9 421.1,120.6 424.7,120.4 C428.3,120.3 431.9,120.3 435.5,120.2 C439.1,120.2 442.7,121.0 446.3,120.2 C449.8,119.4 453.4,116.5 457.0,115.5 C460.6,114.5 464.2,114.6 467.8,114.2 C471.4,113.7 475.0,113.3 478.5,112.8 C482.1,112.4 485.7,111.9 489.3,111.6 C492.9,111.3 496.5,111.2 500.1,111.0 C503.7,110.8 507.2,110.4 510.8,110.2 C514.4,110.0 518.0,110.1 521.6,109.7 C525.2,109.4 528.8,108.6 532.4,108.1 C536.0,107.7 539.5,107.6 543.1,107.2 C546.7,106.9 550.3,106.4 553.9,106.2 C557.5,105.9 561.1,106.0 564.7,105.7 C568.2,105.5 571.8,104.8 575.4,104.5 C579.0,104.2 582.6,104.2 586.2,104.0 C589.8,103.7 593.4,103.5 596.9,103.2 C600.5,102.9 604.1,102.5 607.7,102.2 C611.3,101.9 614.9,101.5 618.5,101.2 C622.1,100.9 625.6,100.8 629.2,100.3 C632.8,99.9 638.2,99.0 640.0,98.7" fill="none" class="line-total" stroke-width="2.5" stroke-linecap="round" stroke-linejoin="round"/>

  <circle cx="640" cy="98.74000000000001" r="4.5" class="dot-total" stroke-width="2"/>
    <text x="658" y="102.74000000000001" class="end-label" font-family="-apple-system, BlinkMacSystemFont, 'Segoe UI', Helvetica, sans-serif">Total</text>
    <text x="697" y="102.74000000000001" class="end-value" font-family="-apple-system, BlinkMacSystemFont, 'Segoe UI', Helvetica, sans-serif">2.1k</text>
    <circle cx="640" cy="108.77333333333334" r="3.5" class="dot-openvsx" stroke-width="1.8"/>
    <text x="658" y="120.74000000000001" class="end-label" font-family="-apple-system, BlinkMacSystemFont, 'Segoe UI', Helvetica, sans-serif">Open VSX</text>
    <text x="716.8" y="120.74000000000001" class="end-value" font-family="-apple-system, BlinkMacSystemFont, 'Segoe UI', Helvetica, sans-serif">1.9k</text>
    <circle cx="640" cy="209.96666666666667" r="3.5" class="dot-vscode" stroke-width="1.8"/>
    <text x="658" y="213.96666666666667" class="end-label" font-family="-apple-system, BlinkMacSystemFont, 'Segoe UI', Helvetica, sans-serif">VS Code</text>
    <text x="710.2" y="213.96666666666667" class="end-value" font-family="-apple-system, BlinkMacSystemFont, 'Segoe UI', Helvetica, sans-serif">175</text>
</svg>