<svg xmlns="http://www.w3.org/2000/svg" viewBox="0 0 760 260" width="760" height="260" role="img" aria-label="Glassy install history">
  <style>
  svg { color-scheme: light dark; }
  .title      { fill: #1a1a2e; font-size: 15px; font-weight: 600; }
  .subtitle   { fill: #6b7280; font-size: 11px; font-weight: 400; }
  .grid       { stroke: #e8e8ee; }
  .axis-label { fill: #8a8a9a; font-size: 10px; }
  .line-total   { stroke: #e8553d; }
  .line-vscode  { stroke: #5b7cfa; }
  .line-openvsx { stroke: #34c7a0; }
  .dot-total   { fill: transparent; stroke: #e8553d; }
  .dot-vscode  { fill: transparent; stroke: #5b7cfa; }
  .dot-openvsx { fill: transparent; stroke: #34c7a0; }
  .end-label       { fill: #1a1a2e; font-size: 11px; font-weight: 600; }
  .end-value       { fill: #6b7280; font-size: 11px; font-weight: 400; }
  .area-total-top    { stop-color: #e8553d; }
  .area-total-bottom { stop-color: #e8553d; }

  @media (prefers-color-scheme: dark) {
    .title      { fill: #e2e2e8; }
    .subtitle   { fill: #8b949e; }
    .grid       { stroke: #2d2d3d; }
    .axis-label { fill: #6e7681; }
    .line-total   { stroke: #ff9b85; }
    .line-vscode  { stroke: #8da4ff; }
    .line-openvsx { stroke: #5eead4; }
    .dot-total   { stroke: #ff9b85; }
    .dot-vscode  { stroke: #8da4ff; }
    .dot-openvsx { stroke: #5eead4; }
    .end-label       { fill: #e2e2e8; }
    .end-value       { fill: #8b949e; }
    .area-total-top    { stop-color: #ff9b85; }
    .area-total-bottom { stop-color: #ff9b85; }
  }
</style>
  <defs>
    <linearGradient id="areaGrad" x1="0" y1="0" x2="0" y2="1">
      <stop offset="0%" class="area-total-top" stop-opacity="0.18"/>
      <stop offset="60%" class="area-total-bottom" stop-opacity="0.04"/>
      <stop offset="100%" class="area-total-bottom" stop-opacity="0"/>
    </linearGradient>
  </defs>

  <text x="48" y="22" class="title" font-family="-apple-system, BlinkMacSystemFont, 'Segoe UI', Helvetica, sans-serif">Installs</text>
  <text x="48" y="37" class="subtitle" font-family="-apple-system, BlinkMacSystemFont, 'Segoe UI', Helvetica, sans-serif">Updated Jul 14</text>

  <line x1="48" y1="220" x2="640" y2="220" class="grid" stroke-width="0.7"/>
    <text x="40" y="223.5" class="axis-label" text-anchor="end" font-family="-apple-system, BlinkMacSystemFont, 'Segoe UI', Helvetica, sans-serif">0</text>
    <line x1="48" y1="162.66666666666669" x2="640" y2="162.66666666666669" class="grid" stroke-width="0.7"/>
    <text x="40" y="166.16666666666669" class="axis-label" text-anchor="end" font-family="-apple-system, BlinkMacSystemFont, 'Segoe UI', Helvetica, sans-serif">1k</text>
    <line x1="48" y1="105.33333333333334" x2="640" y2="105.33333333333334" class="grid" stroke-width="0.7"/>
    <text x="40" y="108.83333333333334" class="axis-label" text-anchor="end" font-family="-apple-system, BlinkMacSystemFont, 'Segoe UI', Helvetica, sans-serif">2k</text>
    <line x1="48" y1="48" x2="640" y2="48" class="grid" stroke-width="0.7"/>
    <text x="40" y="51.5" class="axis-label" text-anchor="end" font-family="-apple-system, BlinkMacSystemFont, 'Segoe UI', Helvetica, sans-serif">3k</text>
  <text x="48" y="248" class="axis-label" text-anchor="middle" font-family="-apple-system, BlinkMacSystemFont, 'Segoe UI', Helvetica, sans-serif">Mar 27</text>
    <text x="166.4" y="248" class="axis-label" text-anchor="middle" font-family="-apple-system, BlinkMacSystemFont, 'Segoe UI', Helvetica, sans-serif">May 11</text>
    <text x="284.8" y="248" class="axis-label" text-anchor="middle" font-family="-apple-system, BlinkMacSystemFont, 'Segoe UI', Helvetica, sans-serif">May 27</text>
    <text x="403.2" y="248" class="axis-label" text-anchor="middle" font-family="-apple-system, BlinkMacSystemFont, 'Segoe UI', Helvetica, sans-serif">Jun 12</text>
    <text x="521.6" y="248" class="axis-label" text-anchor="middle" font-family="-apple-system, BlinkMacSystemFont, 'Segoe UI', Helvetica, sans-serif">Jun 28</text>
    <text x="640" y="248" class="axis-label" text-anchor="middle" font-family="-apple-system, BlinkMacSystemFont, 'Segoe UI', Helvetica, sans-serif">Jul 14</text>

  <path d="M48.0,219.8 C49.2,218.4 52.9,213.7 55.4,211.7 C57.9,209.7 60.3,209.1 62.8,207.7 C65.3,206.4 67.7,204.4 70.2,203.7 C72.7,203.0 75.1,205.0 77.6,203.5 C80.1,202.0 82.5,196.6 85.0,194.9 C87.5,193.2 89.9,200.1 92.4,193.2 C94.9,186.2 97.3,160.3 99.8,153.3 C102.3,146.3 104.7,151.7 107.2,151.3 C109.7,150.8 112.1,150.7 114.6,150.5 C117.1,150.3 119.5,150.2 122.0,150.1 C124.5,150.0 126.9,149.9 129.4,149.7 C131.9,149.5 134.3,149.1 136.8,148.7 C139.3,148.2 141.7,147.4 144.2,147.0 C146.7,146.5 149.1,146.3 151.6,146.1 C154.1,145.9 156.5,146.0 159.0,145.6 C161.5,145.2 163.9,144.1 166.4,143.6 C168.9,143.1 171.3,142.9 173.8,142.6 C176.3,142.3 178.7,142.0 181.2,141.7 C183.7,141.4 186.1,141.4 188.6,140.8 C191.1,140.2 193.5,138.7 196.0,138.0 C198.5,137.4 200.9,137.2 203.4,136.9 C205.9,136.6 208.3,136.4 210.8,136.2 C213.3,136.1 215.7,136.5 218.2,136.1 C220.7,135.7 223.1,134.4 225.6,133.8 C228.1,133.2 230.5,133.0 233.0,132.5 C235.5,132.1 237.9,131.8 240.4,131.1 C242.9,130.4 245.3,129.0 247.8,128.3 C250.3,127.6 252.7,127.3 255.2,126.9 C257.7,126.5 260.1,126.3 262.6,126.0 C265.1,125.8 267.5,125.8 270.0,125.3 C272.5,124.9 274.9,124.0 277.4,123.6 C279.9,123.1 282.3,122.8 284.8,122.5 C287.3,122.2 289.7,122.0 292.2,121.7 C294.7,121.5 297.1,121.3 299.6,121.1 C302.1,120.9 304.5,120.6 307.0,120.4 C309.5,120.3 311.9,120.3 314.4,120.2 C316.9,120.2 319.3,121.0 321.8,120.2 C324.3,119.4 326.7,116.5 329.2,115.5 C331.7,114.5 334.1,114.6 336.6,114.2 C339.1,113.7 341.5,113.3 344.0,112.8 C346.5,112.4 348.9,111.9 351.4,111.6 C353.9,111.3 356.3,111.2 358.8,111.0 C361.3,110.8 363.7,110.4 366.2,110.2 C368.7,110.0 371.1,110.1 373.6,109.7 C376.1,109.4 378.5,108.6 381.0,108.1 C383.5,107.7 385.9,107.6 388.4,107.2 C390.9,106.9 393.3,106.4 395.8,106.2 C398.3,105.9 400.7,106.0 403.2,105.7 C405.7,105.5 408.1,104.8 410.6,104.5 C413.1,104.2 415.5,104.2 418.0,104.0 C420.5,103.7 422.9,103.5 425.4,103.2 C427.9,102.9 430.3,102.5 432.8,102.2 C435.3,101.9 437.7,101.5 440.2,101.2 C442.7,100.9 445.1,100.8 447.6,100.3 C450.1,99.9 452.5,99.2 455.0,98.7 C457.5,98.3 459.9,98.1 462.4,97.7 C464.9,97.4 467.3,97.0 469.8,96.6 C472.3,96.3 474.7,95.9 477.2,95.5 C479.7,95.2 482.1,94.8 484.6,94.6 C487.1,94.3 489.5,94.2 492.0,93.8 C494.5,93.4 496.9,92.9 499.4,92.4 C501.9,91.9 504.3,91.2 506.8,90.8 C509.3,90.5 511.7,90.5 514.2,90.3 C516.7,90.1 519.1,90.0 521.6,89.8 C524.1,89.6 526.5,89.3 529.0,88.9 C531.5,88.6 533.9,88.2 536.4,87.9 C538.9,87.6 541.3,87.3 543.8,86.9 C546.3,86.6 548.7,86.2 551.2,85.8 C553.7,85.5 556.1,85.3 558.6,85.0 C561.1,84.6 563.5,84.0 566.0,83.7 C568.5,83.3 570.9,83.0 573.4,82.8 C575.9,82.6 578.3,82.6 580.8,82.4 C583.3,82.2 585.7,81.9 588.2,81.8 C590.7,81.6 593.1,81.6 595.6,81.4 C598.1,81.2 600.5,80.9 603.0,80.6 C605.5,80.4 607.9,80.0 610.4,79.8 C612.9,79.5 615.3,79.3 617.8,79.1 C620.3,78.9 622.7,78.8 625.2,78.5 C627.7,78.2 630.1,77.5 632.6,77.2 C635.1,76.9 638.8,76.7 640.0,76.6 L640.0,220.0 L48.0,220.0 Z" fill="url(#areaGrad)"/>
  <path d="M48.0,219.8 C49.2,218.5 52.9,213.8 55.4,211.9 C57.9,210.0 60.3,209.5 62.8,208.4 C65.3,207.3 67.7,205.6 70.2,205.1 C72.7,204.5 75.1,206.5 77.6,205.1 C80.1,203.7 82.5,198.4 85.0,196.8 C87.5,195.2 89.9,201.7 92.4,195.5 C94.9,189.2 97.3,165.5 99.8,159.1 C102.3,152.7 104.7,157.7 107.2,157.3 C109.7,156.9 112.1,156.8 114.6,156.7 C117.1,156.6 119.5,156.6 122.0,156.5 C124.5,156.4 126.9,156.4 129.4,156.1 C131.9,155.9 134.3,155.6 136.8,155.1 C139.3,154.6 141.7,153.7 144.2,153.4 C146.7,153.0 149.1,153.1 151.6,152.9 C154.1,152.8 156.5,153.0 159.0,152.6 C161.5,152.2 163.9,151.1 166.4,150.6 C168.9,150.1 171.3,150.0 173.8,149.7 C176.3,149.4 178.7,149.2 181.2,148.9 C183.7,148.6 186.1,148.6 188.6,148.0 C191.1,147.4 193.5,145.9 196.0,145.2 C198.5,144.6 200.9,144.5 203.4,144.2 C205.9,143.9 208.3,143.7 210.8,143.5 C213.3,143.4 215.7,143.8 218.2,143.4 C220.7,143.0 223.1,141.8 225.6,141.2 C228.1,140.7 230.5,140.5 233.0,140.1 C235.5,139.7 237.9,139.6 240.4,138.9 C242.9,138.3 245.3,136.9 247.8,136.3 C250.3,135.6 252.7,135.4 255.2,135.0 C257.7,134.7 260.1,134.5 262.6,134.2 C265.1,134.0 267.5,134.0 270.0,133.7 C272.5,133.3 274.9,132.5 277.4,132.1 C279.9,131.6 282.3,131.4 284.8,131.1 C287.3,130.9 289.7,130.6 292.2,130.4 C294.7,130.3 297.1,130.2 299.6,130.0 C302.1,129.8 304.5,129.5 307.0,129.4 C309.5,129.3 311.9,129.4 314.4,129.4 C316.9,129.4 319.3,130.2 321.8,129.4 C324.3,128.7 326.7,125.9 329.2,124.9 C331.7,124.0 334.1,124.0 336.6,123.6 C339.1,123.1 341.5,122.7 344.0,122.3 C346.5,121.9 348.9,121.3 351.4,121.0 C353.9,120.7 356.3,120.7 358.8,120.5 C361.3,120.2 363.7,119.9 366.2,119.7 C368.7,119.5 371.1,119.6 373.6,119.2 C376.1,118.9 378.5,118.0 381.0,117.6 C383.5,117.2 385.9,117.0 388.4,116.7 C390.9,116.4 393.3,115.9 395.8,115.7 C398.3,115.4 400.7,115.5 403.2,115.2 C405.7,114.9 408.1,114.3 410.6,114.0 C413.1,113.8 415.5,113.8 418.0,113.6 C420.5,113.4 422.9,113.2 425.4,112.9 C427.9,112.6 430.3,112.3 432.8,112.0 C435.3,111.7 437.7,111.4 440.2,111.1 C442.7,110.8 445.1,110.6 447.6,110.3 C450.1,109.9 452.5,109.2 455.0,108.8 C457.5,108.4 459.9,108.2 462.4,107.9 C464.9,107.5 467.3,107.2 469.8,106.8 C472.3,106.5 474.7,106.1 477.2,105.8 C479.7,105.5 482.1,105.1 484.6,104.9 C487.1,104.6 489.5,104.5 492.0,104.2 C494.5,103.8 496.9,103.3 499.4,102.8 C501.9,102.3 504.3,101.6 506.8,101.3 C509.3,101.0 511.7,101.0 514.2,100.9 C516.7,100.7 519.1,100.6 521.6,100.4 C524.1,100.2 526.5,99.9 529.0,99.6 C531.5,99.3 533.9,99.0 536.4,98.7 C538.9,98.4 541.3,98.1 543.8,97.8 C546.3,97.4 548.7,97.0 551.2,96.7 C553.7,96.4 556.1,96.2 558.6,95.9 C561.1,95.6 563.5,95.3 566.0,95.0 C568.5,94.7 570.9,94.4 573.4,94.2 C575.9,94.0 578.3,94.0 580.8,93.9 C583.3,93.7 585.7,93.4 588.2,93.3 C590.7,93.1 593.1,93.1 595.6,92.9 C598.1,92.8 600.5,92.5 603.0,92.3 C605.5,92.0 607.9,91.7 610.4,91.5 C612.9,91.2 615.3,91.0 617.8,90.8 C620.3,90.6 622.7,90.6 625.2,90.3 C627.7,90.0 630.1,89.4 632.6,89.1 C635.1,88.7 638.8,88.6 640.0,88.5" fill="none" class="line-openvsx" stroke-width="1.8" stroke-linecap="round" stroke-linejoin="round"/>
  <path d="M48.0,219.9 C49.2,219.9 52.9,219.9 55.4,219.8 C57.9,219.7 60.3,219.5 62.8,219.3 C65.3,219.1 67.7,218.8 70.2,218.6 C72.7,218.5 75.1,218.5 77.6,218.4 C80.1,218.3 82.5,218.2 85.0,218.1 C87.5,217.9 89.9,218.3 92.4,217.7 C94.9,217.1 97.3,214.8 99.8,214.2 C102.3,213.6 104.7,214.0 107.2,214.0 C109.7,213.9 112.1,213.9 114.6,213.8 C117.1,213.8 119.5,213.7 122.0,213.6 C124.5,213.6 126.9,213.6 129.4,213.6 C131.9,213.6 134.3,213.6 136.8,213.6 C139.3,213.6 141.7,213.6 144.2,213.6 C146.7,213.5 149.1,213.3 151.6,213.2 C154.1,213.1 156.5,213.1 159.0,213.1 C161.5,213.0 163.9,213.0 166.4,213.0 C168.9,213.0 171.3,212.9 173.8,212.9 C176.3,212.9 178.7,212.8 181.2,212.8 C183.7,212.8 186.1,212.8 188.6,212.8 C191.1,212.8 193.5,212.8 196.0,212.8 C198.5,212.8 200.9,212.7 203.4,212.7 C205.9,212.7 208.3,212.7 210.8,212.7 C213.3,212.7 215.7,212.7 218.2,212.7 C220.7,212.6 223.1,212.6 225.6,212.5 C228.1,212.5 230.5,212.5 233.0,212.4 C235.5,212.4 237.9,212.2 240.4,212.1 C242.9,212.1 245.3,212.0 247.8,212.0 C250.3,211.9 252.7,211.9 255.2,211.9 C257.7,211.8 260.1,211.8 262.6,211.8 C265.1,211.8 267.5,211.7 270.0,211.7 C272.5,211.6 274.9,211.6 277.4,211.5 C279.9,211.5 282.3,211.4 284.8,211.4 C287.3,211.4 289.7,211.3 292.2,211.3 C294.7,211.2 297.1,211.2 299.6,211.1 C302.1,211.1 304.5,211.0 307.0,211.0 C309.5,211.0 311.9,210.9 314.4,210.8 C316.9,210.8 319.3,210.8 321.8,210.8 C324.3,210.7 326.7,210.6 329.2,210.6 C331.7,210.6 334.1,210.6 336.6,210.6 C339.1,210.6 341.5,210.5 344.0,210.5 C346.5,210.5 348.9,210.5 351.4,210.5 C353.9,210.5 356.3,210.5 358.8,210.5 C361.3,210.5 363.7,210.5 366.2,210.5 C368.7,210.5 371.1,210.5 373.6,210.5 C376.1,210.5 378.5,210.5 381.0,210.5 C383.5,210.5 385.9,210.5 388.4,210.5 C390.9,210.5 393.3,210.5 395.8,210.5 C398.3,210.5 400.7,210.5 403.2,210.5 C405.7,210.5 408.1,210.5 410.6,210.5 C413.1,210.5 415.5,210.4 418.0,210.4 C420.5,210.3 422.9,210.3 425.4,210.3 C427.9,210.2 430.3,210.2 432.8,210.2 C435.3,210.2 437.7,210.2 440.2,210.1 C442.7,210.1 445.1,210.1 447.6,210.1 C450.1,210.1 452.5,210.0 455.0,210.0 C457.5,209.9 459.9,209.9 462.4,209.9 C464.9,209.8 467.3,209.8 469.8,209.8 C472.3,209.8 474.7,209.8 477.2,209.7 C479.7,209.7 482.1,209.7 484.6,209.7 C487.1,209.7 489.5,209.6 492.0,209.6 C494.5,209.6 496.9,209.6 499.4,209.6 C501.9,209.5 504.3,209.5 506.8,209.5 C509.3,209.5 511.7,209.5 514.2,209.5 C516.7,209.4 519.1,209.4 521.6,209.4 C524.1,209.4 526.5,209.4 529.0,209.3 C531.5,209.3 533.9,209.3 536.4,209.2 C538.9,209.2 541.3,209.2 543.8,209.2 C546.3,209.1 548.7,209.1 551.2,209.1 C553.7,209.1 556.1,209.1 558.6,209.0 C561.1,209.0 563.5,208.7 566.0,208.6 C568.5,208.6 570.9,208.6 573.4,208.6 C575.9,208.6 578.3,208.6 580.8,208.5 C583.3,208.5 585.7,208.5 588.2,208.5 C590.7,208.5 593.1,208.4 595.6,208.4 C598.1,208.4 600.5,208.4 603.0,208.4 C605.5,208.3 607.9,208.3 610.4,208.3 C612.9,208.3 615.3,208.3 617.8,208.3 C620.3,208.3 622.7,208.2 625.2,208.2 C627.7,208.2 630.1,208.2 632.6,208.1 C635.1,208.1 638.8,208.1 640.0,208.1" fill="none" class="line-vscode" stroke-width="1.8" stroke-linecap="round" stroke-linejoin="round"/>
  <path d="M48.0,219.8 C49.2,218.4 52.9,213.7 55.4,211.7 C57.9,209.7 60.3,209.1 62.8,207.7 C65.3,206.4 67.7,204.4 70.2,203.7 C72.7,203.0 75.1,205.0 77.6,203.5 C80.1,202.0 82.5,196.6 85.0,194.9 C87.5,193.2 89.9,200.1 92.4,193.2 C94.9,186.2 97.3,160.3 99.8,153.3 C102.3,146.3 104.7,151.7 107.2,151.3 C109.7,150.8 112.1,150.7 114.6,150.5 C117.1,150.3 119.5,150.2 122.0,150.1 C124.5,150.0 126.9,149.9 129.4,149.7 C131.9,149.5 134.3,149.1 136.8,148.7 C139.3,148.2 141.7,147.4 144.2,147.0 C146.7,146.5 149.1,146.3 151.6,146.1 C154.1,145.9 156.5,146.0 159.0,145.6 C161.5,145.2 163.9,144.1 166.4,143.6 C168.9,143.1 171.3,142.9 173.8,142.6 C176.3,142.3 178.7,142.0 181.2,141.7 C183.7,141.4 186.1,141.4 188.6,140.8 C191.1,140.2 193.5,138.7 196.0,138.0 C198.5,137.4 200.9,137.2 203.4,136.9 C205.9,136.6 208.3,136.4 210.8,136.2 C213.3,136.1 215.7,136.5 218.2,136.1 C220.7,135.7 223.1,134.4 225.6,133.8 C228.1,133.2 230.5,133.0 233.0,132.5 C235.5,132.1 237.9,131.8 240.4,131.1 C242.9,130.4 245.3,129.0 247.8,128.3 C250.3,127.6 252.7,127.3 255.2,126.9 C257.7,126.5 260.1,126.3 262.6,126.0 C265.1,125.8 267.5,125.8 270.0,125.3 C272.5,124.9 274.9,124.0 277.4,123.6 C279.9,123.1 282.3,122.8 284.8,122.5 C287.3,122.2 289.7,122.0 292.2,121.7 C294.7,121.5 297.1,121.3 299.6,121.1 C302.1,120.9 304.5,120.6 307.0,120.4 C309.5,120.3 311.9,120.3 314.4,120.2 C316.9,120.2 319.3,121.0 321.8,120.2 C324.3,119.4 326.7,116.5 329.2,115.5 C331.7,114.5 334.1,114.6 336.6,114.2 C339.1,113.7 341.5,113.3 344.0,112.8 C346.5,112.4 348.9,111.9 351.4,111.6 C353.9,111.3 356.3,111.2 358.8,111.0 C361.3,110.8 363.7,110.4 366.2,110.2 C368.7,110.0 371.1,110.1 373.6,109.7 C376.1,109.4 378.5,108.6 381.0,108.1 C383.5,107.7 385.9,107.6 388.4,107.2 C390.9,106.9 393.3,106.4 395.8,106.2 C398.3,105.9 400.7,106.0 403.2,105.7 C405.7,105.5 408.1,104.8 410.6,104.5 C413.1,104.2 415.5,104.2 418.0,104.0 C420.5,103.7 422.9,103.5 425.4,103.2 C427.9,102.9 430.3,102.5 432.8,102.2 C435.3,101.9 437.7,101.5 440.2,101.2 C442.7,100.9 445.1,100.8 447.6,100.3 C450.1,99.9 452.5,99.2 455.0,98.7 C457.5,98.3 459.9,98.1 462.4,97.7 C464.9,97.4 467.3,97.0 469.8,96.6 C472.3,96.3 474.7,95.9 477.2,95.5 C479.7,95.2 482.1,94.8 484.6,94.6 C487.1,94.3 489.5,94.2 492.0,93.8 C494.5,93.4 496.9,92.9 499.4,92.4 C501.9,91.9 504.3,91.2 506.8,90.8 C509.3,90.5 511.7,90.5 514.2,90.3 C516.7,90.1 519.1,90.0 521.6,89.8 C524.1,89.6 526.5,89.3 529.0,88.9 C531.5,88.6 533.9,88.2 536.4,87.9 C538.9,87.6 541.3,87.3 543.8,86.9 C546.3,86.6 548.7,86.2 551.2,85.8 C553.7,85.5 556.1,85.3 558.6,85.0 C561.1,84.6 563.5,84.0 566.0,83.7 C568.5,83.3 570.9,83.0 573.4,82.8 C575.9,82.6 578.3,82.6 580.8,82.4 C583.3,82.2 585.7,81.9 588.2,81.8 C590.7,81.6 593.1,81.6 595.6,81.4 C598.1,81.2 600.5,80.9 603.0,80.6 C605.5,80.4 607.9,80.0 610.4,79.8 C612.9,79.5 615.3,79.3 617.8,79.1 C620.3,78.9 622.7,78.8 625.2,78.5 C627.7,78.2 630.1,77.5 632.6,77.2 C635.1,76.9 638.8,76.7 640.0,76.6" fill="none" class="line-total" stroke-width="2.5" stroke-linecap="round" stroke-linejoin="round"/>

  <circle cx="640" cy="76.55199999999999" r="4.5" class="dot-total" stroke-width="2"/>
    <text x="658" y="80.55199999999999" class="end-label" font-family="-apple-system, BlinkMacSystemFont, 'Segoe UI', Helvetica, sans-serif">Total</text>
    <text x="697" y="80.55199999999999" class="end-value" font-family="-apple-system, BlinkMacSystemFont, 'Segoe UI', Helvetica, sans-serif">2.5k</text>
    <circle cx="640" cy="88.47733333333332" r="3.5" class="dot-openvsx" stroke-width="1.8"/>
    <text x="658" y="98.55199999999999" class="end-label" font-family="-apple-system, BlinkMacSystemFont, 'Segoe UI', Helvetica, sans-serif">Open VSX</text>
    <text x="716.8" y="98.55199999999999" class="end-value" font-family="-apple-system, BlinkMacSystemFont, 'Segoe UI', Helvetica, sans-serif">2.3k</text>
    <circle cx="640" cy="208.07466666666667" r="3.5" class="dot-vscode" stroke-width="1.8"/>
    <text x="658" y="212.07466666666667" class="end-label" font-family="-apple-system, BlinkMacSystemFont, 'Segoe UI', Helvetica, sans-serif">VS Code</text>
    <text x="710.2" y="212.07466666666667" class="end-value" font-family="-apple-system, BlinkMacSystemFont, 'Segoe UI', Helvetica, sans-serif">208</text>
</svg>