<svg xmlns="http://www.w3.org/2000/svg" viewBox="0 0 760 260" width="760" height="260" role="img" aria-label="Glassy install history">
  <style>
  svg { color-scheme: light dark; }
  .title      { fill: #1a1a2e; font-size: 15px; font-weight: 600; }
  .subtitle   { fill: #6b7280; font-size: 11px; font-weight: 400; }
  .grid       { stroke: #e8e8ee; }
  .axis-label { fill: #8a8a9a; font-size: 10px; }
  .line-total   { stroke: #e8553d; }
  .line-vscode  { stroke: #5b7cfa; }
  .line-openvsx { stroke: #34c7a0; }
  .dot-total   { fill: transparent; stroke: #e8553d; }
  .dot-vscode  { fill: transparent; stroke: #5b7cfa; }
  .dot-openvsx { fill: transparent; stroke: #34c7a0; }
  .end-label       { fill: #1a1a2e; font-size: 11px; font-weight: 600; }
  .end-value       { fill: #6b7280; font-size: 11px; font-weight: 400; }
  .area-total-top    { stop-color: #e8553d; }
  .area-total-bottom { stop-color: #e8553d; }

  @media (prefers-color-scheme: dark) {
    .title      { fill: #e2e2e8; }
    .subtitle   { fill: #8b949e; }
    .grid       { stroke: #2d2d3d; }
    .axis-label { fill: #6e7681; }
    .line-total   { stroke: #ff9b85; }
    .line-vscode  { stroke: #8da4ff; }
    .line-openvsx { stroke: #5eead4; }
    .dot-total   { stroke: #ff9b85; }
    .dot-vscode  { stroke: #8da4ff; }
    .dot-openvsx { stroke: #5eead4; }
    .end-label       { fill: #e2e2e8; }
    .end-value       { fill: #8b949e; }
    .area-total-top    { stop-color: #ff9b85; }
    .area-total-bottom { stop-color: #ff9b85; }
  }
</style>
  <defs>
    <linearGradient id="areaGrad" x1="0" y1="0" x2="0" y2="1">
      <stop offset="0%" class="area-total-top" stop-opacity="0.18"/>
      <stop offset="60%" class="area-total-bottom" stop-opacity="0.04"/>
      <stop offset="100%" class="area-total-bottom" stop-opacity="0"/>
    </linearGradient>
  </defs>

  <text x="48" y="22" class="title" font-family="-apple-system, BlinkMacSystemFont, 'Segoe UI', Helvetica, sans-serif">Installs</text>
  <text x="48" y="37" class="subtitle" font-family="-apple-system, BlinkMacSystemFont, 'Segoe UI', Helvetica, sans-serif">Updated Jun 13</text>

  <line x1="48" y1="220" x2="640" y2="220" class="grid" stroke-width="0.7"/>
    <text x="40" y="223.5" class="axis-label" text-anchor="end" font-family="-apple-system, BlinkMacSystemFont, 'Segoe UI', Helvetica, sans-serif">0</text>
    <line x1="48" y1="162.66666666666669" x2="640" y2="162.66666666666669" class="grid" stroke-width="0.7"/>
    <text x="40" y="166.16666666666669" class="axis-label" text-anchor="end" font-family="-apple-system, BlinkMacSystemFont, 'Segoe UI', Helvetica, sans-serif">1k</text>
    <line x1="48" y1="105.33333333333334" x2="640" y2="105.33333333333334" class="grid" stroke-width="0.7"/>
    <text x="40" y="108.83333333333334" class="axis-label" text-anchor="end" font-family="-apple-system, BlinkMacSystemFont, 'Segoe UI', Helvetica, sans-serif">2k</text>
    <line x1="48" y1="48" x2="640" y2="48" class="grid" stroke-width="0.7"/>
    <text x="40" y="51.5" class="axis-label" text-anchor="end" font-family="-apple-system, BlinkMacSystemFont, 'Segoe UI', Helvetica, sans-serif">3k</text>
  <text x="48" y="248" class="axis-label" text-anchor="middle" font-family="-apple-system, BlinkMacSystemFont, 'Segoe UI', Helvetica, sans-serif">Mar 27</text>
    <text x="168.81632653061223" y="248" class="axis-label" text-anchor="middle" font-family="-apple-system, BlinkMacSystemFont, 'Segoe UI', Helvetica, sans-serif">May 5</text>
    <text x="289.63265306122446" y="248" class="axis-label" text-anchor="middle" font-family="-apple-system, BlinkMacSystemFont, 'Segoe UI', Helvetica, sans-serif">May 15</text>
    <text x="398.3673469387755" y="248" class="axis-label" text-anchor="middle" font-family="-apple-system, BlinkMacSystemFont, 'Segoe UI', Helvetica, sans-serif">May 24</text>
    <text x="519.1836734693877" y="248" class="axis-label" text-anchor="middle" font-family="-apple-system, BlinkMacSystemFont, 'Segoe UI', Helvetica, sans-serif">Jun 3</text>
    <text x="640" y="248" class="axis-label" text-anchor="middle" font-family="-apple-system, BlinkMacSystemFont, 'Segoe UI', Helvetica, sans-serif">Jun 13</text>

  <path d="M48.0,219.8 C50.0,218.4 56.1,213.7 60.1,211.7 C64.1,209.7 68.1,209.1 72.2,207.7 C76.2,206.4 80.2,204.4 84.2,203.7 C88.3,203.0 92.3,205.0 96.3,203.5 C100.4,202.0 104.4,196.6 108.4,194.9 C112.4,193.2 116.5,200.1 120.5,193.2 C124.5,186.2 128.5,160.3 132.6,153.3 C136.6,146.3 140.6,151.7 144.7,151.3 C148.7,150.8 152.7,150.7 156.7,150.5 C160.8,150.3 164.8,150.2 168.8,150.1 C172.8,150.0 176.9,149.9 180.9,149.7 C184.9,149.5 189.0,149.1 193.0,148.7 C197.0,148.2 201.0,147.4 205.1,147.0 C209.1,146.5 213.1,146.3 217.1,146.1 C221.2,145.9 225.2,146.0 229.2,145.6 C233.3,145.2 237.3,144.1 241.3,143.6 C245.3,143.1 249.4,142.9 253.4,142.6 C257.4,142.3 261.4,142.0 265.5,141.7 C269.5,141.4 273.5,141.4 277.6,140.8 C281.6,140.2 285.6,138.7 289.6,138.0 C293.7,137.4 297.7,137.2 301.7,136.9 C305.7,136.6 309.8,136.4 313.8,136.2 C317.8,136.1 321.9,136.5 325.9,136.1 C329.9,135.7 333.9,134.4 338.0,133.8 C342.0,133.2 346.0,133.0 350.0,132.5 C354.1,132.1 358.1,131.8 362.1,131.1 C366.1,130.4 370.2,129.0 374.2,128.3 C378.2,127.6 382.3,127.3 386.3,126.9 C390.3,126.5 394.3,126.3 398.4,126.0 C402.4,125.8 406.4,125.8 410.4,125.3 C414.5,124.9 418.5,124.0 422.5,123.6 C426.6,123.1 430.6,122.8 434.6,122.5 C438.6,122.2 442.7,122.0 446.7,121.7 C450.7,121.5 454.7,121.3 458.8,121.1 C462.8,120.9 466.8,120.6 470.9,120.4 C474.9,120.3 478.9,120.3 482.9,120.2 C487.0,120.2 491.0,121.0 495.0,120.2 C499.0,119.4 503.1,116.5 507.1,115.5 C511.1,114.5 515.2,114.6 519.2,114.2 C523.2,113.7 527.2,113.3 531.3,112.8 C535.3,112.4 539.3,111.9 543.3,111.6 C547.4,111.3 551.4,111.2 555.4,111.0 C559.5,110.8 563.5,110.4 567.5,110.2 C571.5,110.0 575.6,110.1 579.6,109.7 C583.6,109.4 587.6,108.6 591.7,108.1 C595.7,107.7 599.7,107.6 603.8,107.2 C607.8,106.9 611.8,106.4 615.8,106.2 C619.9,105.9 623.9,106.0 627.9,105.7 C631.9,105.5 638.0,104.7 640.0,104.5 L640.0,220.0 L48.0,220.0 Z" fill="url(#areaGrad)"/>
  <path d="M48.0,219.8 C50.0,218.5 56.1,213.8 60.1,211.9 C64.1,210.0 68.1,209.5 72.2,208.4 C76.2,207.3 80.2,205.6 84.2,205.1 C88.3,204.5 92.3,206.5 96.3,205.1 C100.4,203.7 104.4,198.4 108.4,196.8 C112.4,195.2 116.5,201.7 120.5,195.5 C124.5,189.2 128.5,165.5 132.6,159.1 C136.6,152.7 140.6,157.7 144.7,157.3 C148.7,156.9 152.7,156.8 156.7,156.7 C160.8,156.6 164.8,156.6 168.8,156.5 C172.8,156.4 176.9,156.4 180.9,156.1 C184.9,155.9 189.0,155.6 193.0,155.1 C197.0,154.6 201.0,153.7 205.1,153.4 C209.1,153.0 213.1,153.1 217.1,152.9 C221.2,152.8 225.2,153.0 229.2,152.6 C233.3,152.2 237.3,151.1 241.3,150.6 C245.3,150.1 249.4,150.0 253.4,149.7 C257.4,149.4 261.4,149.2 265.5,148.9 C269.5,148.6 273.5,148.6 277.6,148.0 C281.6,147.4 285.6,145.9 289.6,145.2 C293.7,144.6 297.7,144.5 301.7,144.2 C305.7,143.9 309.8,143.7 313.8,143.5 C317.8,143.4 321.9,143.8 325.9,143.4 C329.9,143.0 333.9,141.8 338.0,141.2 C342.0,140.7 346.0,140.5 350.0,140.1 C354.1,139.7 358.1,139.6 362.1,138.9 C366.1,138.3 370.2,136.9 374.2,136.3 C378.2,135.6 382.3,135.4 386.3,135.0 C390.3,134.7 394.3,134.5 398.4,134.2 C402.4,134.0 406.4,134.0 410.4,133.7 C414.5,133.3 418.5,132.5 422.5,132.1 C426.6,131.6 430.6,131.4 434.6,131.1 C438.6,130.9 442.7,130.6 446.7,130.4 C450.7,130.3 454.7,130.2 458.8,130.0 C462.8,129.8 466.8,129.5 470.9,129.4 C474.9,129.3 478.9,129.4 482.9,129.4 C487.0,129.4 491.0,130.2 495.0,129.4 C499.0,128.7 503.1,125.9 507.1,124.9 C511.1,124.0 515.2,124.0 519.2,123.6 C523.2,123.1 527.2,122.7 531.3,122.3 C535.3,121.9 539.3,121.3 543.3,121.0 C547.4,120.7 551.4,120.7 555.4,120.5 C559.5,120.2 563.5,119.9 567.5,119.7 C571.5,119.5 575.6,119.6 579.6,119.2 C583.6,118.9 587.6,118.0 591.7,117.6 C595.7,117.2 599.7,117.0 603.8,116.7 C607.8,116.4 611.8,115.9 615.8,115.7 C619.9,115.4 623.9,115.5 627.9,115.2 C631.9,114.9 638.0,114.2 640.0,114.0" fill="none" class="line-openvsx" stroke-width="1.8" stroke-linecap="round" stroke-linejoin="round"/>
  <path d="M48.0,219.9 C50.0,219.9 56.1,219.9 60.1,219.8 C64.1,219.7 68.1,219.5 72.2,219.3 C76.2,219.1 80.2,218.8 84.2,218.6 C88.3,218.5 92.3,218.5 96.3,218.4 C100.4,218.3 104.4,218.2 108.4,218.1 C112.4,217.9 116.5,218.3 120.5,217.7 C124.5,217.1 128.5,214.8 132.6,214.2 C136.6,213.6 140.6,214.0 144.7,214.0 C148.7,213.9 152.7,213.9 156.7,213.8 C160.8,213.8 164.8,213.7 168.8,213.6 C172.8,213.6 176.9,213.6 180.9,213.6 C184.9,213.6 189.0,213.6 193.0,213.6 C197.0,213.6 201.0,213.6 205.1,213.6 C209.1,213.5 213.1,213.3 217.1,213.2 C221.2,213.1 225.2,213.1 229.2,213.1 C233.3,213.0 237.3,213.0 241.3,213.0 C245.3,213.0 249.4,212.9 253.4,212.9 C257.4,212.9 261.4,212.8 265.5,212.8 C269.5,212.8 273.5,212.8 277.6,212.8 C281.6,212.8 285.6,212.8 289.6,212.8 C293.7,212.8 297.7,212.7 301.7,212.7 C305.7,212.7 309.8,212.7 313.8,212.7 C317.8,212.7 321.9,212.7 325.9,212.7 C329.9,212.6 333.9,212.6 338.0,212.5 C342.0,212.5 346.0,212.5 350.0,212.4 C354.1,212.4 358.1,212.2 362.1,212.1 C366.1,212.1 370.2,212.0 374.2,212.0 C378.2,211.9 382.3,211.9 386.3,211.9 C390.3,211.8 394.3,211.8 398.4,211.8 C402.4,211.8 406.4,211.7 410.4,211.7 C414.5,211.6 418.5,211.6 422.5,211.5 C426.6,211.5 430.6,211.4 434.6,211.4 C438.6,211.4 442.7,211.3 446.7,211.3 C450.7,211.2 454.7,211.2 458.8,211.1 C462.8,211.1 466.8,211.0 470.9,211.0 C474.9,211.0 478.9,210.9 482.9,210.8 C487.0,210.8 491.0,210.8 495.0,210.8 C499.0,210.7 503.1,210.6 507.1,210.6 C511.1,210.6 515.2,210.6 519.2,210.6 C523.2,210.6 527.2,210.5 531.3,210.5 C535.3,210.5 539.3,210.5 543.3,210.5 C547.4,210.5 551.4,210.5 555.4,210.5 C559.5,210.5 563.5,210.5 567.5,210.5 C571.5,210.5 575.6,210.5 579.6,210.5 C583.6,210.5 587.6,210.5 591.7,210.5 C595.7,210.5 599.7,210.5 603.8,210.5 C607.8,210.5 611.8,210.5 615.8,210.5 C619.9,210.5 623.9,210.5 627.9,210.5 C631.9,210.5 638.0,210.5 640.0,210.5" fill="none" class="line-vscode" stroke-width="1.8" stroke-linecap="round" stroke-linejoin="round"/>
  <path d="M48.0,219.8 C50.0,218.4 56.1,213.7 60.1,211.7 C64.1,209.7 68.1,209.1 72.2,207.7 C76.2,206.4 80.2,204.4 84.2,203.7 C88.3,203.0 92.3,205.0 96.3,203.5 C100.4,202.0 104.4,196.6 108.4,194.9 C112.4,193.2 116.5,200.1 120.5,193.2 C124.5,186.2 128.5,160.3 132.6,153.3 C136.6,146.3 140.6,151.7 144.7,151.3 C148.7,150.8 152.7,150.7 156.7,150.5 C160.8,150.3 164.8,150.2 168.8,150.1 C172.8,150.0 176.9,149.9 180.9,149.7 C184.9,149.5 189.0,149.1 193.0,148.7 C197.0,148.2 201.0,147.4 205.1,147.0 C209.1,146.5 213.1,146.3 217.1,146.1 C221.2,145.9 225.2,146.0 229.2,145.6 C233.3,145.2 237.3,144.1 241.3,143.6 C245.3,143.1 249.4,142.9 253.4,142.6 C257.4,142.3 261.4,142.0 265.5,141.7 C269.5,141.4 273.5,141.4 277.6,140.8 C281.6,140.2 285.6,138.7 289.6,138.0 C293.7,137.4 297.7,137.2 301.7,136.9 C305.7,136.6 309.8,136.4 313.8,136.2 C317.8,136.1 321.9,136.5 325.9,136.1 C329.9,135.7 333.9,134.4 338.0,133.8 C342.0,133.2 346.0,133.0 350.0,132.5 C354.1,132.1 358.1,131.8 362.1,131.1 C366.1,130.4 370.2,129.0 374.2,128.3 C378.2,127.6 382.3,127.3 386.3,126.9 C390.3,126.5 394.3,126.3 398.4,126.0 C402.4,125.8 406.4,125.8 410.4,125.3 C414.5,124.9 418.5,124.0 422.5,123.6 C426.6,123.1 430.6,122.8 434.6,122.5 C438.6,122.2 442.7,122.0 446.7,121.7 C450.7,121.5 454.7,121.3 458.8,121.1 C462.8,120.9 466.8,120.6 470.9,120.4 C474.9,120.3 478.9,120.3 482.9,120.2 C487.0,120.2 491.0,121.0 495.0,120.2 C499.0,119.4 503.1,116.5 507.1,115.5 C511.1,114.5 515.2,114.6 519.2,114.2 C523.2,113.7 527.2,113.3 531.3,112.8 C535.3,112.4 539.3,111.9 543.3,111.6 C547.4,111.3 551.4,111.2 555.4,111.0 C559.5,110.8 563.5,110.4 567.5,110.2 C571.5,110.0 575.6,110.1 579.6,109.7 C583.6,109.4 587.6,108.6 591.7,108.1 C595.7,107.7 599.7,107.6 603.8,107.2 C607.8,106.9 611.8,106.4 615.8,106.2 C619.9,105.9 623.9,106.0 627.9,105.7 C631.9,105.5 638.0,104.7 640.0,104.5" fill="none" class="line-total" stroke-width="2.5" stroke-linecap="round" stroke-linejoin="round"/>

  <circle cx="640" cy="104.53066666666666" r="4.5" class="dot-total" stroke-width="2"/>
    <text x="658" y="108.53066666666666" class="end-label" font-family="-apple-system, BlinkMacSystemFont, 'Segoe UI', Helvetica, sans-serif">Total</text>
    <text x="697" y="108.53066666666666" class="end-value" font-family="-apple-system, BlinkMacSystemFont, 'Segoe UI', Helvetica, sans-serif">2k</text>
    <circle cx="640" cy="114.048" r="3.5" class="dot-openvsx" stroke-width="1.8"/>
    <text x="658" y="126.53066666666666" class="end-label" font-family="-apple-system, BlinkMacSystemFont, 'Segoe UI', Helvetica, sans-serif">Open VSX</text>
    <text x="716.8" y="126.53066666666666" class="end-value" font-family="-apple-system, BlinkMacSystemFont, 'Segoe UI', Helvetica, sans-serif">1.8k</text>
    <circle cx="640" cy="210.48266666666666" r="3.5" class="dot-vscode" stroke-width="1.8"/>
    <text x="658" y="214.48266666666666" class="end-label" font-family="-apple-system, BlinkMacSystemFont, 'Segoe UI', Helvetica, sans-serif">VS Code</text>
    <text x="710.2" y="214.48266666666666" class="end-value" font-family="-apple-system, BlinkMacSystemFont, 'Segoe UI', Helvetica, sans-serif">166</text>
</svg>