<svg xmlns="http://www.w3.org/2000/svg" viewBox="0 0 760 260" width="760" height="260" role="img" aria-label="Glassy install history">
  <style>
  svg { color-scheme: light dark; }
  .title      { fill: #1a1a2e; font-size: 15px; font-weight: 600; }
  .subtitle   { fill: #6b7280; font-size: 11px; font-weight: 400; }
  .grid       { stroke: #e8e8ee; }
  .axis-label { fill: #8a8a9a; font-size: 10px; }
  .line-total   { stroke: #e8553d; }
  .line-vscode  { stroke: #5b7cfa; }
  .line-openvsx { stroke: #34c7a0; }
  .dot-total   { fill: transparent; stroke: #e8553d; }
  .dot-vscode  { fill: transparent; stroke: #5b7cfa; }
  .dot-openvsx { fill: transparent; stroke: #34c7a0; }
  .end-label       { fill: #1a1a2e; font-size: 11px; font-weight: 600; }
  .end-value       { fill: #6b7280; font-size: 11px; font-weight: 400; }
  .area-total-top    { stop-color: #e8553d; }
  .area-total-bottom { stop-color: #e8553d; }

  @media (prefers-color-scheme: dark) {
    .title      { fill: #e2e2e8; }
    .subtitle   { fill: #8b949e; }
    .grid       { stroke: #2d2d3d; }
    .axis-label { fill: #6e7681; }
    .line-total   { stroke: #ff9b85; }
    .line-vscode  { stroke: #8da4ff; }
    .line-openvsx { stroke: #5eead4; }
    .dot-total   { stroke: #ff9b85; }
    .dot-vscode  { stroke: #8da4ff; }
    .dot-openvsx { stroke: #5eead4; }
    .end-label       { fill: #e2e2e8; }
    .end-value       { fill: #8b949e; }
    .area-total-top    { stop-color: #ff9b85; }
    .area-total-bottom { stop-color: #ff9b85; }
  }
</style>
  <defs>
    <linearGradient id="areaGrad" x1="0" y1="0" x2="0" y2="1">
      <stop offset="0%" class="area-total-top" stop-opacity="0.18"/>
      <stop offset="60%" class="area-total-bottom" stop-opacity="0.04"/>
      <stop offset="100%" class="area-total-bottom" stop-opacity="0"/>
    </linearGradient>
  </defs>

  <text x="48" y="22" class="title" font-family="-apple-system, BlinkMacSystemFont, 'Segoe UI', Helvetica, sans-serif">Installs</text>
  <text x="48" y="37" class="subtitle" font-family="-apple-system, BlinkMacSystemFont, 'Segoe UI', Helvetica, sans-serif">Updated Jul 20</text>

  <line x1="48" y1="220" x2="640" y2="220" class="grid" stroke-width="0.7"/>
    <text x="40" y="223.5" class="axis-label" text-anchor="end" font-family="-apple-system, BlinkMacSystemFont, 'Segoe UI', Helvetica, sans-serif">0</text>
    <line x1="48" y1="162.66666666666669" x2="640" y2="162.66666666666669" class="grid" stroke-width="0.7"/>
    <text x="40" y="166.16666666666669" class="axis-label" text-anchor="end" font-family="-apple-system, BlinkMacSystemFont, 'Segoe UI', Helvetica, sans-serif">1k</text>
    <line x1="48" y1="105.33333333333334" x2="640" y2="105.33333333333334" class="grid" stroke-width="0.7"/>
    <text x="40" y="108.83333333333334" class="axis-label" text-anchor="end" font-family="-apple-system, BlinkMacSystemFont, 'Segoe UI', Helvetica, sans-serif">2k</text>
    <line x1="48" y1="48" x2="640" y2="48" class="grid" stroke-width="0.7"/>
    <text x="40" y="51.5" class="axis-label" text-anchor="end" font-family="-apple-system, BlinkMacSystemFont, 'Segoe UI', Helvetica, sans-serif">3k</text>
  <text x="48" y="248" class="axis-label" text-anchor="middle" font-family="-apple-system, BlinkMacSystemFont, 'Segoe UI', Helvetica, sans-serif">Mar 27</text>
    <text x="165.02325581395348" y="248" class="axis-label" text-anchor="middle" font-family="-apple-system, BlinkMacSystemFont, 'Segoe UI', Helvetica, sans-serif">May 12</text>
    <text x="282.04651162790697" y="248" class="axis-label" text-anchor="middle" font-family="-apple-system, BlinkMacSystemFont, 'Segoe UI', Helvetica, sans-serif">May 29</text>
    <text x="405.953488372093" y="248" class="axis-label" text-anchor="middle" font-family="-apple-system, BlinkMacSystemFont, 'Segoe UI', Helvetica, sans-serif">Jun 16</text>
    <text x="522.9767441860465" y="248" class="axis-label" text-anchor="middle" font-family="-apple-system, BlinkMacSystemFont, 'Segoe UI', Helvetica, sans-serif">Jul 3</text>
    <text x="640" y="248" class="axis-label" text-anchor="middle" font-family="-apple-system, BlinkMacSystemFont, 'Segoe UI', Helvetica, sans-serif">Jul 20</text>

  <path d="M48.0,219.8 C49.1,218.4 52.6,213.7 54.9,211.7 C57.2,209.7 59.5,209.1 61.8,207.7 C64.1,206.4 66.4,204.4 68.7,203.7 C70.9,203.0 73.2,205.0 75.5,203.5 C77.8,202.0 80.1,196.6 82.4,194.9 C84.7,193.2 87.0,200.1 89.3,193.2 C91.6,186.2 93.9,160.3 96.2,153.3 C98.5,146.3 100.8,151.7 103.1,151.3 C105.4,150.8 107.7,150.7 110.0,150.5 C112.2,150.3 114.5,150.2 116.8,150.1 C119.1,150.0 121.4,149.9 123.7,149.7 C126.0,149.5 128.3,149.1 130.6,148.7 C132.9,148.2 135.2,147.4 137.5,147.0 C139.8,146.5 142.1,146.3 144.4,146.1 C146.7,145.9 149.0,146.0 151.3,145.6 C153.6,145.2 155.8,144.1 158.1,143.6 C160.4,143.1 162.7,142.9 165.0,142.6 C167.3,142.3 169.6,142.0 171.9,141.7 C174.2,141.4 176.5,141.4 178.8,140.8 C181.1,140.2 183.4,138.7 185.7,138.0 C188.0,137.4 190.3,137.2 192.6,136.9 C194.9,136.6 197.1,136.4 199.4,136.2 C201.7,136.1 204.0,136.5 206.3,136.1 C208.6,135.7 210.9,134.4 213.2,133.8 C215.5,133.2 217.8,133.0 220.1,132.5 C222.4,132.1 224.7,131.8 227.0,131.1 C229.3,130.4 231.6,129.0 233.9,128.3 C236.2,127.6 238.4,127.3 240.7,126.9 C243.0,126.5 245.3,126.3 247.6,126.0 C249.9,125.8 252.2,125.8 254.5,125.3 C256.8,124.9 259.1,124.0 261.4,123.6 C263.7,123.1 266.0,122.8 268.3,122.5 C270.6,122.2 272.9,122.0 275.2,121.7 C277.5,121.5 279.8,121.3 282.0,121.1 C284.3,120.9 286.6,120.6 288.9,120.4 C291.2,120.3 293.5,120.3 295.8,120.2 C298.1,120.2 300.4,121.0 302.7,120.2 C305.0,119.4 307.3,116.5 309.6,115.5 C311.9,114.5 314.2,114.6 316.5,114.2 C318.8,113.7 321.1,113.3 323.3,112.8 C325.6,112.4 327.9,111.9 330.2,111.6 C332.5,111.3 334.8,111.2 337.1,111.0 C339.4,110.8 341.7,110.4 344.0,110.2 C346.3,110.0 348.6,110.1 350.9,109.7 C353.2,109.4 355.5,108.6 357.8,108.1 C360.1,107.7 362.4,107.6 364.7,107.2 C366.9,106.9 369.2,106.4 371.5,106.2 C373.8,105.9 376.1,106.0 378.4,105.7 C380.7,105.5 383.0,104.8 385.3,104.5 C387.6,104.2 389.9,104.2 392.2,104.0 C394.5,103.7 396.8,103.5 399.1,103.2 C401.4,102.9 403.7,102.5 406.0,102.2 C408.2,101.9 410.5,101.5 412.8,101.2 C415.1,100.9 417.4,100.8 419.7,100.3 C422.0,99.9 424.3,99.2 426.6,98.7 C428.9,98.3 431.2,98.1 433.5,97.7 C435.8,97.4 438.1,97.0 440.4,96.6 C442.7,96.3 445.0,95.9 447.3,95.5 C449.6,95.2 451.8,94.8 454.1,94.6 C456.4,94.3 458.7,94.2 461.0,93.8 C463.3,93.4 465.6,92.9 467.9,92.4 C470.2,91.9 472.5,91.2 474.8,90.8 C477.1,90.5 479.4,90.5 481.7,90.3 C484.0,90.1 486.3,90.0 488.6,89.8 C490.9,89.6 493.1,89.3 495.4,88.9 C497.7,88.6 500.0,88.2 502.3,87.9 C504.6,87.6 506.9,87.3 509.2,86.9 C511.5,86.6 513.8,86.2 516.1,85.8 C518.4,85.5 520.7,85.3 523.0,85.0 C525.3,84.6 527.6,84.0 529.9,83.7 C532.2,83.3 534.4,83.0 536.7,82.8 C539.0,82.6 541.3,82.6 543.6,82.4 C545.9,82.2 548.2,81.9 550.5,81.8 C552.8,81.6 555.1,81.6 557.4,81.4 C559.7,81.2 562.0,80.9 564.3,80.6 C566.6,80.4 568.9,80.0 571.2,79.8 C573.5,79.5 575.8,79.3 578.0,79.1 C580.3,78.9 582.6,78.8 584.9,78.5 C587.2,78.2 589.5,77.5 591.8,77.2 C594.1,76.9 596.4,76.8 598.7,76.6 C601.0,76.3 603.3,76.1 605.6,75.6 C607.9,75.1 610.2,74.5 612.5,73.7 C614.8,72.9 617.1,71.5 619.3,70.9 C621.6,70.3 623.9,70.4 626.2,70.1 C628.5,69.9 630.8,69.7 633.1,69.5 C635.4,69.3 638.9,69.0 640.0,68.9 L640.0,220.0 L48.0,220.0 Z" fill="url(#areaGrad)"/>
  <path d="M48.0,219.8 C49.1,218.5 52.6,213.8 54.9,211.9 C57.2,210.0 59.5,209.5 61.8,208.4 C64.1,207.3 66.4,205.6 68.7,205.1 C70.9,204.5 73.2,206.5 75.5,205.1 C77.8,203.7 80.1,198.4 82.4,196.8 C84.7,195.2 87.0,201.7 89.3,195.5 C91.6,189.2 93.9,165.5 96.2,159.1 C98.5,152.7 100.8,157.7 103.1,157.3 C105.4,156.9 107.7,156.8 110.0,156.7 C112.2,156.6 114.5,156.6 116.8,156.5 C119.1,156.4 121.4,156.4 123.7,156.1 C126.0,155.9 128.3,155.6 130.6,155.1 C132.9,154.6 135.2,153.7 137.5,153.4 C139.8,153.0 142.1,153.1 144.4,152.9 C146.7,152.8 149.0,153.0 151.3,152.6 C153.6,152.2 155.8,151.1 158.1,150.6 C160.4,150.1 162.7,150.0 165.0,149.7 C167.3,149.4 169.6,149.2 171.9,148.9 C174.2,148.6 176.5,148.6 178.8,148.0 C181.1,147.4 183.4,145.9 185.7,145.2 C188.0,144.6 190.3,144.5 192.6,144.2 C194.9,143.9 197.1,143.7 199.4,143.5 C201.7,143.4 204.0,143.8 206.3,143.4 C208.6,143.0 210.9,141.8 213.2,141.2 C215.5,140.7 217.8,140.5 220.1,140.1 C222.4,139.7 224.7,139.6 227.0,138.9 C229.3,138.3 231.6,136.9 233.9,136.3 C236.2,135.6 238.4,135.4 240.7,135.0 C243.0,134.7 245.3,134.5 247.6,134.2 C249.9,134.0 252.2,134.0 254.5,133.7 C256.8,133.3 259.1,132.5 261.4,132.1 C263.7,131.6 266.0,131.4 268.3,131.1 C270.6,130.9 272.9,130.6 275.2,130.4 C277.5,130.3 279.8,130.2 282.0,130.0 C284.3,129.8 286.6,129.5 288.9,129.4 C291.2,129.3 293.5,129.4 295.8,129.4 C298.1,129.4 300.4,130.2 302.7,129.4 C305.0,128.7 307.3,125.9 309.6,124.9 C311.9,124.0 314.2,124.0 316.5,123.6 C318.8,123.1 321.1,122.7 323.3,122.3 C325.6,121.9 327.9,121.3 330.2,121.0 C332.5,120.7 334.8,120.7 337.1,120.5 C339.4,120.2 341.7,119.9 344.0,119.7 C346.3,119.5 348.6,119.6 350.9,119.2 C353.2,118.9 355.5,118.0 357.8,117.6 C360.1,117.2 362.4,117.0 364.7,116.7 C366.9,116.4 369.2,115.9 371.5,115.7 C373.8,115.4 376.1,115.5 378.4,115.2 C380.7,114.9 383.0,114.3 385.3,114.0 C387.6,113.8 389.9,113.8 392.2,113.6 C394.5,113.4 396.8,113.2 399.1,112.9 C401.4,112.6 403.7,112.3 406.0,112.0 C408.2,111.7 410.5,111.4 412.8,111.1 C415.1,110.8 417.4,110.6 419.7,110.3 C422.0,109.9 424.3,109.2 426.6,108.8 C428.9,108.4 431.2,108.2 433.5,107.9 C435.8,107.5 438.1,107.2 440.4,106.8 C442.7,106.5 445.0,106.1 447.3,105.8 C449.6,105.5 451.8,105.1 454.1,104.9 C456.4,104.6 458.7,104.5 461.0,104.2 C463.3,103.8 465.6,103.3 467.9,102.8 C470.2,102.3 472.5,101.6 474.8,101.3 C477.1,101.0 479.4,101.0 481.7,100.9 C484.0,100.7 486.3,100.6 488.6,100.4 C490.9,100.2 493.1,99.9 495.4,99.6 C497.7,99.3 500.0,99.0 502.3,98.7 C504.6,98.4 506.9,98.1 509.2,97.8 C511.5,97.4 513.8,97.0 516.1,96.7 C518.4,96.4 520.7,96.2 523.0,95.9 C525.3,95.6 527.6,95.3 529.9,95.0 C532.2,94.7 534.4,94.4 536.7,94.2 C539.0,94.0 541.3,94.0 543.6,93.9 C545.9,93.7 548.2,93.4 550.5,93.3 C552.8,93.1 555.1,93.1 557.4,92.9 C559.7,92.8 562.0,92.5 564.3,92.3 C566.6,92.0 568.9,91.7 571.2,91.5 C573.5,91.2 575.8,91.0 578.0,90.8 C580.3,90.6 582.6,90.6 584.9,90.3 C587.2,90.0 589.5,89.4 591.8,89.1 C594.1,88.7 596.4,88.7 598.7,88.5 C601.0,88.2 603.3,88.0 605.6,87.6 C607.9,87.1 610.2,86.5 612.5,85.7 C614.8,85.0 617.1,83.5 619.3,83.0 C621.6,82.4 623.9,82.5 626.2,82.3 C628.5,82.1 630.8,81.9 633.1,81.7 C635.4,81.5 638.9,81.2 640.0,81.1" fill="none" class="line-openvsx" stroke-width="1.8" stroke-linecap="round" stroke-linejoin="round"/>
  <path d="M48.0,219.9 C49.1,219.9 52.6,219.9 54.9,219.8 C57.2,219.7 59.5,219.5 61.8,219.3 C64.1,219.1 66.4,218.8 68.7,218.6 C70.9,218.5 73.2,218.5 75.5,218.4 C77.8,218.3 80.1,218.2 82.4,218.1 C84.7,217.9 87.0,218.3 89.3,217.7 C91.6,217.1 93.9,214.8 96.2,214.2 C98.5,213.6 100.8,214.0 103.1,214.0 C105.4,213.9 107.7,213.9 110.0,213.8 C112.2,213.8 114.5,213.7 116.8,213.6 C119.1,213.6 121.4,213.6 123.7,213.6 C126.0,213.6 128.3,213.6 130.6,213.6 C132.9,213.6 135.2,213.6 137.5,213.6 C139.8,213.5 142.1,213.3 144.4,213.2 C146.7,213.1 149.0,213.1 151.3,213.1 C153.6,213.0 155.8,213.0 158.1,213.0 C160.4,213.0 162.7,212.9 165.0,212.9 C167.3,212.9 169.6,212.8 171.9,212.8 C174.2,212.8 176.5,212.8 178.8,212.8 C181.1,212.8 183.4,212.8 185.7,212.8 C188.0,212.8 190.3,212.7 192.6,212.7 C194.9,212.7 197.1,212.7 199.4,212.7 C201.7,212.7 204.0,212.7 206.3,212.7 C208.6,212.6 210.9,212.6 213.2,212.5 C215.5,212.5 217.8,212.5 220.1,212.4 C222.4,212.4 224.7,212.2 227.0,212.1 C229.3,212.1 231.6,212.0 233.9,212.0 C236.2,211.9 238.4,211.9 240.7,211.9 C243.0,211.8 245.3,211.8 247.6,211.8 C249.9,211.8 252.2,211.7 254.5,211.7 C256.8,211.6 259.1,211.6 261.4,211.5 C263.7,211.5 266.0,211.4 268.3,211.4 C270.6,211.4 272.9,211.3 275.2,211.3 C277.5,211.2 279.8,211.2 282.0,211.1 C284.3,211.1 286.6,211.0 288.9,211.0 C291.2,211.0 293.5,210.9 295.8,210.8 C298.1,210.8 300.4,210.8 302.7,210.8 C305.0,210.7 307.3,210.6 309.6,210.6 C311.9,210.6 314.2,210.6 316.5,210.6 C318.8,210.6 321.1,210.5 323.3,210.5 C325.6,210.5 327.9,210.5 330.2,210.5 C332.5,210.5 334.8,210.5 337.1,210.5 C339.4,210.5 341.7,210.5 344.0,210.5 C346.3,210.5 348.6,210.5 350.9,210.5 C353.2,210.5 355.5,210.5 357.8,210.5 C360.1,210.5 362.4,210.5 364.7,210.5 C366.9,210.5 369.2,210.5 371.5,210.5 C373.8,210.5 376.1,210.5 378.4,210.5 C380.7,210.5 383.0,210.5 385.3,210.5 C387.6,210.5 389.9,210.4 392.2,210.4 C394.5,210.3 396.8,210.3 399.1,210.3 C401.4,210.2 403.7,210.2 406.0,210.2 C408.2,210.2 410.5,210.2 412.8,210.1 C415.1,210.1 417.4,210.1 419.7,210.1 C422.0,210.1 424.3,210.0 426.6,210.0 C428.9,209.9 431.2,209.9 433.5,209.9 C435.8,209.8 438.1,209.8 440.4,209.8 C442.7,209.8 445.0,209.8 447.3,209.7 C449.6,209.7 451.8,209.7 454.1,209.7 C456.4,209.7 458.7,209.6 461.0,209.6 C463.3,209.6 465.6,209.6 467.9,209.6 C470.2,209.5 472.5,209.5 474.8,209.5 C477.1,209.5 479.4,209.5 481.7,209.5 C484.0,209.4 486.3,209.4 488.6,209.4 C490.9,209.4 493.1,209.4 495.4,209.3 C497.7,209.3 500.0,209.3 502.3,209.2 C504.6,209.2 506.9,209.2 509.2,209.2 C511.5,209.1 513.8,209.1 516.1,209.1 C518.4,209.1 520.7,209.1 523.0,209.0 C525.3,209.0 527.6,208.7 529.9,208.6 C532.2,208.6 534.4,208.6 536.7,208.6 C539.0,208.6 541.3,208.6 543.6,208.5 C545.9,208.5 548.2,208.5 550.5,208.5 C552.8,208.5 555.1,208.4 557.4,208.4 C559.7,208.4 562.0,208.4 564.3,208.4 C566.6,208.3 568.9,208.3 571.2,208.3 C573.5,208.3 575.8,208.3 578.0,208.3 C580.3,208.3 582.6,208.2 584.9,208.2 C587.2,208.2 589.5,208.2 591.8,208.1 C594.1,208.1 596.4,208.1 598.7,208.1 C601.0,208.1 603.3,208.0 605.6,208.0 C607.9,208.0 610.2,208.0 612.5,208.0 C614.8,207.9 617.1,207.9 619.3,207.9 C621.6,207.9 623.9,207.9 626.2,207.8 C628.5,207.8 630.8,207.8 633.1,207.8 C635.4,207.8 638.9,207.7 640.0,207.7" fill="none" class="line-vscode" stroke-width="1.8" stroke-linecap="round" stroke-linejoin="round"/>
  <path d="M48.0,219.8 C49.1,218.4 52.6,213.7 54.9,211.7 C57.2,209.7 59.5,209.1 61.8,207.7 C64.1,206.4 66.4,204.4 68.7,203.7 C70.9,203.0 73.2,205.0 75.5,203.5 C77.8,202.0 80.1,196.6 82.4,194.9 C84.7,193.2 87.0,200.1 89.3,193.2 C91.6,186.2 93.9,160.3 96.2,153.3 C98.5,146.3 100.8,151.7 103.1,151.3 C105.4,150.8 107.7,150.7 110.0,150.5 C112.2,150.3 114.5,150.2 116.8,150.1 C119.1,150.0 121.4,149.9 123.7,149.7 C126.0,149.5 128.3,149.1 130.6,148.7 C132.9,148.2 135.2,147.4 137.5,147.0 C139.8,146.5 142.1,146.3 144.4,146.1 C146.7,145.9 149.0,146.0 151.3,145.6 C153.6,145.2 155.8,144.1 158.1,143.6 C160.4,143.1 162.7,142.9 165.0,142.6 C167.3,142.3 169.6,142.0 171.9,141.7 C174.2,141.4 176.5,141.4 178.8,140.8 C181.1,140.2 183.4,138.7 185.7,138.0 C188.0,137.4 190.3,137.2 192.6,136.9 C194.9,136.6 197.1,136.4 199.4,136.2 C201.7,136.1 204.0,136.5 206.3,136.1 C208.6,135.7 210.9,134.4 213.2,133.8 C215.5,133.2 217.8,133.0 220.1,132.5 C222.4,132.1 224.7,131.8 227.0,131.1 C229.3,130.4 231.6,129.0 233.9,128.3 C236.2,127.6 238.4,127.3 240.7,126.9 C243.0,126.5 245.3,126.3 247.6,126.0 C249.9,125.8 252.2,125.8 254.5,125.3 C256.8,124.9 259.1,124.0 261.4,123.6 C263.7,123.1 266.0,122.8 268.3,122.5 C270.6,122.2 272.9,122.0 275.2,121.7 C277.5,121.5 279.8,121.3 282.0,121.1 C284.3,120.9 286.6,120.6 288.9,120.4 C291.2,120.3 293.5,120.3 295.8,120.2 C298.1,120.2 300.4,121.0 302.7,120.2 C305.0,119.4 307.3,116.5 309.6,115.5 C311.9,114.5 314.2,114.6 316.5,114.2 C318.8,113.7 321.1,113.3 323.3,112.8 C325.6,112.4 327.9,111.9 330.2,111.6 C332.5,111.3 334.8,111.2 337.1,111.0 C339.4,110.8 341.7,110.4 344.0,110.2 C346.3,110.0 348.6,110.1 350.9,109.7 C353.2,109.4 355.5,108.6 357.8,108.1 C360.1,107.7 362.4,107.6 364.7,107.2 C366.9,106.9 369.2,106.4 371.5,106.2 C373.8,105.9 376.1,106.0 378.4,105.7 C380.7,105.5 383.0,104.8 385.3,104.5 C387.6,104.2 389.9,104.2 392.2,104.0 C394.5,103.7 396.8,103.5 399.1,103.2 C401.4,102.9 403.7,102.5 406.0,102.2 C408.2,101.9 410.5,101.5 412.8,101.2 C415.1,100.9 417.4,100.8 419.7,100.3 C422.0,99.9 424.3,99.2 426.6,98.7 C428.9,98.3 431.2,98.1 433.5,97.7 C435.8,97.4 438.1,97.0 440.4,96.6 C442.7,96.3 445.0,95.9 447.3,95.5 C449.6,95.2 451.8,94.8 454.1,94.6 C456.4,94.3 458.7,94.2 461.0,93.8 C463.3,93.4 465.6,92.9 467.9,92.4 C470.2,91.9 472.5,91.2 474.8,90.8 C477.1,90.5 479.4,90.5 481.7,90.3 C484.0,90.1 486.3,90.0 488.6,89.8 C490.9,89.6 493.1,89.3 495.4,88.9 C497.7,88.6 500.0,88.2 502.3,87.9 C504.6,87.6 506.9,87.3 509.2,86.9 C511.5,86.6 513.8,86.2 516.1,85.8 C518.4,85.5 520.7,85.3 523.0,85.0 C525.3,84.6 527.6,84.0 529.9,83.7 C532.2,83.3 534.4,83.0 536.7,82.8 C539.0,82.6 541.3,82.6 543.6,82.4 C545.9,82.2 548.2,81.9 550.5,81.8 C552.8,81.6 555.1,81.6 557.4,81.4 C559.7,81.2 562.0,80.9 564.3,80.6 C566.6,80.4 568.9,80.0 571.2,79.8 C573.5,79.5 575.8,79.3 578.0,79.1 C580.3,78.9 582.6,78.8 584.9,78.5 C587.2,78.2 589.5,77.5 591.8,77.2 C594.1,76.9 596.4,76.8 598.7,76.6 C601.0,76.3 603.3,76.1 605.6,75.6 C607.9,75.1 610.2,74.5 612.5,73.7 C614.8,72.9 617.1,71.5 619.3,70.9 C621.6,70.3 623.9,70.4 626.2,70.1 C628.5,69.9 630.8,69.7 633.1,69.5 C635.4,69.3 638.9,69.0 640.0,68.9" fill="none" class="line-total" stroke-width="2.5" stroke-linecap="round" stroke-linejoin="round"/>

  <circle cx="640" cy="68.86933333333332" r="4.5" class="dot-total" stroke-width="2"/>
    <text x="658" y="72.86933333333332" class="end-label" font-family="-apple-system, BlinkMacSystemFont, 'Segoe UI', Helvetica, sans-serif">Total</text>
    <text x="697" y="72.86933333333332" class="end-value" font-family="-apple-system, BlinkMacSystemFont, 'Segoe UI', Helvetica, sans-serif">2.6k</text>
    <circle cx="640" cy="81.13866666666667" r="3.5" class="dot-openvsx" stroke-width="1.8"/>
    <text x="658" y="90.86933333333332" class="end-label" font-family="-apple-system, BlinkMacSystemFont, 'Segoe UI', Helvetica, sans-serif">Open VSX</text>
    <text x="716.8" y="90.86933333333332" class="end-value" font-family="-apple-system, BlinkMacSystemFont, 'Segoe UI', Helvetica, sans-serif">2.4k</text>
    <circle cx="640" cy="207.73066666666668" r="3.5" class="dot-vscode" stroke-width="1.8"/>
    <text x="658" y="211.73066666666668" class="end-label" font-family="-apple-system, BlinkMacSystemFont, 'Segoe UI', Helvetica, sans-serif">VS Code</text>
    <text x="710.2" y="211.73066666666668" class="end-value" font-family="-apple-system, BlinkMacSystemFont, 'Segoe UI', Helvetica, sans-serif">214</text>
</svg>