<svg xmlns="http://www.w3.org/2000/svg" viewBox="0 0 760 260" width="760" height="260" role="img" aria-label="Glassy install history">
  <style>
  svg { color-scheme: light dark; }
  .title      { fill: #1a1a2e; font-size: 15px; font-weight: 600; }
  .subtitle   { fill: #6b7280; font-size: 11px; font-weight: 400; }
  .grid       { stroke: #e8e8ee; }
  .axis-label { fill: #8a8a9a; font-size: 10px; }
  .line-total   { stroke: #e8553d; }
  .line-vscode  { stroke: #5b7cfa; }
  .line-openvsx { stroke: #34c7a0; }
  .dot-total   { fill: transparent; stroke: #e8553d; }
  .dot-vscode  { fill: transparent; stroke: #5b7cfa; }
  .dot-openvsx { fill: transparent; stroke: #34c7a0; }
  .end-label       { fill: #1a1a2e; font-size: 11px; font-weight: 600; }
  .end-value       { fill: #6b7280; font-size: 11px; font-weight: 400; }
  .area-total-top    { stop-color: #e8553d; }
  .area-total-bottom { stop-color: #e8553d; }

  @media (prefers-color-scheme: dark) {
    .title      { fill: #e2e2e8; }
    .subtitle   { fill: #8b949e; }
    .grid       { stroke: #2d2d3d; }
    .axis-label { fill: #6e7681; }
    .line-total   { stroke: #ff9b85; }
    .line-vscode  { stroke: #8da4ff; }
    .line-openvsx { stroke: #5eead4; }
    .dot-total   { stroke: #ff9b85; }
    .dot-vscode  { stroke: #8da4ff; }
    .dot-openvsx { stroke: #5eead4; }
    .end-label       { fill: #e2e2e8; }
    .end-value       { fill: #8b949e; }
    .area-total-top    { stop-color: #ff9b85; }
    .area-total-bottom { stop-color: #ff9b85; }
  }
</style>
  <defs>
    <linearGradient id="areaGrad" x1="0" y1="0" x2="0" y2="1">
      <stop offset="0%" class="area-total-top" stop-opacity="0.18"/>
      <stop offset="60%" class="area-total-bottom" stop-opacity="0.04"/>
      <stop offset="100%" class="area-total-bottom" stop-opacity="0"/>
    </linearGradient>
  </defs>

  <text x="48" y="22" class="title" font-family="-apple-system, BlinkMacSystemFont, 'Segoe UI', Helvetica, sans-serif">Installs</text>
  <text x="48" y="37" class="subtitle" font-family="-apple-system, BlinkMacSystemFont, 'Segoe UI', Helvetica, sans-serif">Updated May 26</text>

  <line x1="48" y1="220" x2="640" y2="220" class="grid" stroke-width="0.7"/>
    <text x="40" y="223.5" class="axis-label" text-anchor="end" font-family="-apple-system, BlinkMacSystemFont, 'Segoe UI', Helvetica, sans-serif">0</text>
    <line x1="48" y1="177" x2="640" y2="177" class="grid" stroke-width="0.7"/>
    <text x="40" y="180.5" class="axis-label" text-anchor="end" font-family="-apple-system, BlinkMacSystemFont, 'Segoe UI', Helvetica, sans-serif">500</text>
    <line x1="48" y1="134" x2="640" y2="134" class="grid" stroke-width="0.7"/>
    <text x="40" y="137.5" class="axis-label" text-anchor="end" font-family="-apple-system, BlinkMacSystemFont, 'Segoe UI', Helvetica, sans-serif">1k</text>
    <line x1="48" y1="91" x2="640" y2="91" class="grid" stroke-width="0.7"/>
    <text x="40" y="94.5" class="axis-label" text-anchor="end" font-family="-apple-system, BlinkMacSystemFont, 'Segoe UI', Helvetica, sans-serif">1.5k</text>
    <line x1="48" y1="48" x2="640" y2="48" class="grid" stroke-width="0.7"/>
    <text x="40" y="51.5" class="axis-label" text-anchor="end" font-family="-apple-system, BlinkMacSystemFont, 'Segoe UI', Helvetica, sans-serif">2k</text>
  <text x="48" y="248" class="axis-label" text-anchor="middle" font-family="-apple-system, BlinkMacSystemFont, 'Segoe UI', Helvetica, sans-serif">Mar 27</text>
    <text x="162.5806451612903" y="248" class="axis-label" text-anchor="middle" font-family="-apple-system, BlinkMacSystemFont, 'Segoe UI', Helvetica, sans-serif">Apr 2</text>
    <text x="277.1612903225806" y="248" class="axis-label" text-anchor="middle" font-family="-apple-system, BlinkMacSystemFont, 'Segoe UI', Helvetica, sans-serif">May 7</text>
    <text x="410.8387096774194" y="248" class="axis-label" text-anchor="middle" font-family="-apple-system, BlinkMacSystemFont, 'Segoe UI', Helvetica, sans-serif">May 14</text>
    <text x="525.4193548387096" y="248" class="axis-label" text-anchor="middle" font-family="-apple-system, BlinkMacSystemFont, 'Segoe UI', Helvetica, sans-serif">May 20</text>
    <text x="640" y="248" class="axis-label" text-anchor="middle" font-family="-apple-system, BlinkMacSystemFont, 'Segoe UI', Helvetica, sans-serif">May 26</text>

  <path d="M48.0,219.7 C51.2,217.6 60.7,210.5 67.1,207.5 C73.5,204.5 79.8,203.6 86.2,201.6 C92.6,199.6 98.9,196.6 105.3,195.6 C111.7,194.5 118.0,197.4 124.4,195.2 C130.8,193.0 137.1,184.9 143.5,182.3 C149.8,179.8 156.2,190.1 162.6,179.8 C168.9,169.4 175.3,130.5 181.7,120.0 C188.0,109.5 194.4,117.6 200.8,116.9 C207.1,116.2 213.5,116.1 219.9,115.8 C226.2,115.5 232.6,115.4 239.0,115.2 C245.3,115.0 251.7,114.9 258.1,114.6 C264.4,114.2 270.8,113.7 277.2,113.0 C283.5,112.3 289.9,111.1 296.3,110.4 C302.6,109.8 309.0,109.5 315.4,109.1 C321.7,108.8 328.1,109.1 334.5,108.5 C340.8,107.8 347.2,106.2 353.5,105.4 C359.9,104.7 366.3,104.4 372.6,103.9 C379.0,103.4 385.4,103.1 391.7,102.6 C398.1,102.2 404.5,102.2 410.8,101.2 C417.2,100.3 423.6,98.0 429.9,97.0 C436.3,96.0 442.7,95.8 449.0,95.4 C455.4,94.9 461.8,94.6 468.1,94.4 C474.5,94.1 480.9,94.7 487.2,94.1 C493.6,93.5 500.0,91.5 506.3,90.7 C512.7,89.8 519.1,89.4 525.4,88.8 C531.8,88.1 538.2,87.7 544.5,86.6 C550.9,85.6 557.2,83.4 563.6,82.4 C570.0,81.4 576.3,80.9 582.7,80.3 C589.1,79.8 595.4,79.4 601.8,79.0 C608.2,78.7 614.5,78.6 620.9,78.0 C627.3,77.4 636.8,75.8 640.0,75.3 L640.0,220.0 L48.0,220.0 Z" fill="url(#areaGrad)"/>
  <path d="M48.0,219.7 C51.2,217.7 60.7,210.6 67.1,207.8 C73.5,204.9 79.8,204.3 86.2,202.6 C92.6,200.9 98.9,198.5 105.3,197.6 C111.7,196.8 118.0,199.7 124.4,197.6 C130.8,195.6 137.1,187.7 143.5,185.3 C149.8,182.8 156.2,192.6 162.6,183.2 C168.9,173.8 175.3,138.2 181.7,128.7 C188.0,119.1 194.4,126.5 200.8,125.9 C207.1,125.3 213.5,125.3 219.9,125.1 C226.2,124.9 232.6,124.9 239.0,124.7 C245.3,124.6 251.7,124.5 258.1,124.2 C264.4,123.9 270.8,123.3 277.2,122.6 C283.5,122.0 289.9,120.6 296.3,120.1 C302.6,119.5 309.0,119.6 315.4,119.4 C321.7,119.2 328.1,119.4 334.5,118.9 C340.8,118.3 347.2,116.7 353.5,115.9 C359.9,115.2 366.3,115.0 372.6,114.6 C379.0,114.1 385.4,113.8 391.7,113.4 C398.1,112.9 404.5,112.9 410.8,112.0 C417.2,111.1 423.6,108.8 429.9,107.9 C436.3,106.9 442.7,106.7 449.0,106.3 C455.4,105.9 461.8,105.5 468.1,105.3 C474.5,105.1 480.9,105.7 487.2,105.1 C493.6,104.5 500.0,102.7 506.3,101.8 C512.7,101.0 519.1,100.7 525.4,100.1 C531.8,99.5 538.2,99.3 544.5,98.4 C550.9,97.5 557.2,95.4 563.6,94.4 C570.0,93.5 576.3,93.1 582.7,92.5 C589.1,92.0 595.4,91.7 601.8,91.3 C608.2,91.0 614.5,91.0 620.9,90.5 C627.3,89.9 636.8,88.5 640.0,88.1" fill="none" class="line-openvsx" stroke-width="1.8" stroke-linecap="round" stroke-linejoin="round"/>
  <path d="M48.0,219.9 C51.2,219.9 60.7,219.9 67.1,219.7 C73.5,219.6 79.8,219.3 86.2,219.0 C92.6,218.7 98.9,218.2 105.3,217.9 C111.7,217.7 118.0,217.7 124.4,217.6 C130.8,217.4 137.1,217.2 143.5,217.1 C149.8,216.9 156.2,217.5 162.6,216.6 C168.9,215.6 175.3,212.2 181.7,211.3 C188.0,210.4 194.4,211.1 200.8,211.0 C207.1,210.9 213.5,210.8 219.9,210.7 C226.2,210.6 232.6,210.5 239.0,210.5 C245.3,210.4 251.7,210.4 258.1,210.4 C264.4,210.4 270.8,210.4 277.2,210.4 C283.5,210.4 289.9,210.5 296.3,210.4 C302.6,210.3 309.0,209.9 315.4,209.8 C321.7,209.6 328.1,209.6 334.5,209.6 C340.8,209.6 347.2,209.6 353.5,209.5 C359.9,209.5 366.3,209.4 372.6,209.3 C379.0,209.3 385.4,209.3 391.7,209.3 C398.1,209.2 404.5,209.3 410.8,209.3 C417.2,209.2 423.6,209.2 429.9,209.2 C436.3,209.1 442.7,209.1 449.0,209.1 C455.4,209.1 461.8,209.1 468.1,209.1 C474.5,209.1 480.9,209.0 487.2,209.0 C493.6,208.9 500.0,208.9 506.3,208.8 C512.7,208.8 519.1,208.7 525.4,208.6 C531.8,208.5 538.2,208.3 544.5,208.2 C550.9,208.1 557.2,208.0 563.6,208.0 C570.0,207.9 576.3,207.8 582.7,207.8 C589.1,207.7 595.4,207.7 601.8,207.7 C608.2,207.7 614.5,207.6 620.9,207.5 C627.3,207.5 636.8,207.3 640.0,207.3" fill="none" class="line-vscode" stroke-width="1.8" stroke-linecap="round" stroke-linejoin="round"/>
  <path d="M48.0,219.7 C51.2,217.6 60.7,210.5 67.1,207.5 C73.5,204.5 79.8,203.6 86.2,201.6 C92.6,199.6 98.9,196.6 105.3,195.6 C111.7,194.5 118.0,197.4 124.4,195.2 C130.8,193.0 137.1,184.9 143.5,182.3 C149.8,179.8 156.2,190.1 162.6,179.8 C168.9,169.4 175.3,130.5 181.7,120.0 C188.0,109.5 194.4,117.6 200.8,116.9 C207.1,116.2 213.5,116.1 219.9,115.8 C226.2,115.5 232.6,115.4 239.0,115.2 C245.3,115.0 251.7,114.9 258.1,114.6 C264.4,114.2 270.8,113.7 277.2,113.0 C283.5,112.3 289.9,111.1 296.3,110.4 C302.6,109.8 309.0,109.5 315.4,109.1 C321.7,108.8 328.1,109.1 334.5,108.5 C340.8,107.8 347.2,106.2 353.5,105.4 C359.9,104.7 366.3,104.4 372.6,103.9 C379.0,103.4 385.4,103.1 391.7,102.6 C398.1,102.2 404.5,102.2 410.8,101.2 C417.2,100.3 423.6,98.0 429.9,97.0 C436.3,96.0 442.7,95.8 449.0,95.4 C455.4,94.9 461.8,94.6 468.1,94.4 C474.5,94.1 480.9,94.7 487.2,94.1 C493.6,93.5 500.0,91.5 506.3,90.7 C512.7,89.8 519.1,89.4 525.4,88.8 C531.8,88.1 538.2,87.7 544.5,86.6 C550.9,85.6 557.2,83.4 563.6,82.4 C570.0,81.4 576.3,80.9 582.7,80.3 C589.1,79.8 595.4,79.4 601.8,79.0 C608.2,78.7 614.5,78.6 620.9,78.0 C627.3,77.4 636.8,75.8 640.0,75.3" fill="none" class="line-total" stroke-width="2.5" stroke-linecap="round" stroke-linejoin="round"/>

  <circle cx="640" cy="75.34800000000001" r="4.5" class="dot-total" stroke-width="2"/>
    <text x="658" y="79.34800000000001" class="end-label" font-family="-apple-system, BlinkMacSystemFont, 'Segoe UI', Helvetica, sans-serif">Total</text>
    <text x="697" y="79.34800000000001" class="end-value" font-family="-apple-system, BlinkMacSystemFont, 'Segoe UI', Helvetica, sans-serif">1.7k</text>
    <circle cx="640" cy="88.076" r="3.5" class="dot-openvsx" stroke-width="1.8"/>
    <text x="658" y="97.34800000000001" class="end-label" font-family="-apple-system, BlinkMacSystemFont, 'Segoe UI', Helvetica, sans-serif">Open VSX</text>
    <text x="716.8" y="97.34800000000001" class="end-value" font-family="-apple-system, BlinkMacSystemFont, 'Segoe UI', Helvetica, sans-serif">1.5k</text>
    <circle cx="640" cy="207.272" r="3.5" class="dot-vscode" stroke-width="1.8"/>
    <text x="658" y="211.272" class="end-label" font-family="-apple-system, BlinkMacSystemFont, 'Segoe UI', Helvetica, sans-serif">VS Code</text>
    <text x="710.2" y="211.272" class="end-value" font-family="-apple-system, BlinkMacSystemFont, 'Segoe UI', Helvetica, sans-serif">148</text>
</svg>