<svg xmlns="http://www.w3.org/2000/svg" viewBox="0 0 760 260" width="760" height="260" role="img" aria-label="Glassy install history">
  <style>
  svg { color-scheme: light dark; }
  .title      { fill: #1a1a2e; font-size: 15px; font-weight: 600; }
  .subtitle   { fill: #6b7280; font-size: 11px; font-weight: 400; }
  .grid       { stroke: #e8e8ee; }
  .axis-label { fill: #8a8a9a; font-size: 10px; }
  .line-total   { stroke: #e8553d; }
  .line-vscode  { stroke: #5b7cfa; }
  .line-openvsx { stroke: #34c7a0; }
  .dot-total   { fill: transparent; stroke: #e8553d; }
  .dot-vscode  { fill: transparent; stroke: #5b7cfa; }
  .dot-openvsx { fill: transparent; stroke: #34c7a0; }
  .end-label       { fill: #1a1a2e; font-size: 11px; font-weight: 600; }
  .end-value       { fill: #6b7280; font-size: 11px; font-weight: 400; }
  .area-total-top    { stop-color: #e8553d; }
  .area-total-bottom { stop-color: #e8553d; }

  @media (prefers-color-scheme: dark) {
    .title      { fill: #e2e2e8; }
    .subtitle   { fill: #8b949e; }
    .grid       { stroke: #2d2d3d; }
    .axis-label { fill: #6e7681; }
    .line-total   { stroke: #ff9b85; }
    .line-vscode  { stroke: #8da4ff; }
    .line-openvsx { stroke: #5eead4; }
    .dot-total   { stroke: #ff9b85; }
    .dot-vscode  { stroke: #8da4ff; }
    .dot-openvsx { stroke: #5eead4; }
    .end-label       { fill: #e2e2e8; }
    .end-value       { fill: #8b949e; }
    .area-total-top    { stop-color: #ff9b85; }
    .area-total-bottom { stop-color: #ff9b85; }
  }
</style>
  <defs>
    <linearGradient id="areaGrad" x1="0" y1="0" x2="0" y2="1">
      <stop offset="0%" class="area-total-top" stop-opacity="0.18"/>
      <stop offset="60%" class="area-total-bottom" stop-opacity="0.04"/>
      <stop offset="100%" class="area-total-bottom" stop-opacity="0"/>
    </linearGradient>
  </defs>

  <text x="48" y="22" class="title" font-family="-apple-system, BlinkMacSystemFont, 'Segoe UI', Helvetica, sans-serif">Installs</text>
  <text x="48" y="37" class="subtitle" font-family="-apple-system, BlinkMacSystemFont, 'Segoe UI', Helvetica, sans-serif">Updated Jul 3</text>

  <line x1="48" y1="220" x2="640" y2="220" class="grid" stroke-width="0.7"/>
    <text x="40" y="223.5" class="axis-label" text-anchor="end" font-family="-apple-system, BlinkMacSystemFont, 'Segoe UI', Helvetica, sans-serif">0</text>
    <line x1="48" y1="162.66666666666669" x2="640" y2="162.66666666666669" class="grid" stroke-width="0.7"/>
    <text x="40" y="166.16666666666669" class="axis-label" text-anchor="end" font-family="-apple-system, BlinkMacSystemFont, 'Segoe UI', Helvetica, sans-serif">1k</text>
    <line x1="48" y1="105.33333333333334" x2="640" y2="105.33333333333334" class="grid" stroke-width="0.7"/>
    <text x="40" y="108.83333333333334" class="axis-label" text-anchor="end" font-family="-apple-system, BlinkMacSystemFont, 'Segoe UI', Helvetica, sans-serif">2k</text>
    <line x1="48" y1="48" x2="640" y2="48" class="grid" stroke-width="0.7"/>
    <text x="40" y="51.5" class="axis-label" text-anchor="end" font-family="-apple-system, BlinkMacSystemFont, 'Segoe UI', Helvetica, sans-serif">3k</text>
  <text x="48" y="248" class="axis-label" text-anchor="middle" font-family="-apple-system, BlinkMacSystemFont, 'Segoe UI', Helvetica, sans-serif">Mar 27</text>
    <text x="168.1159420289855" y="248" class="axis-label" text-anchor="middle" font-family="-apple-system, BlinkMacSystemFont, 'Segoe UI', Helvetica, sans-serif">May 9</text>
    <text x="288.231884057971" y="248" class="axis-label" text-anchor="middle" font-family="-apple-system, BlinkMacSystemFont, 'Segoe UI', Helvetica, sans-serif">May 23</text>
    <text x="399.768115942029" y="248" class="axis-label" text-anchor="middle" font-family="-apple-system, BlinkMacSystemFont, 'Segoe UI', Helvetica, sans-serif">Jun 5</text>
    <text x="519.8840579710145" y="248" class="axis-label" text-anchor="middle" font-family="-apple-system, BlinkMacSystemFont, 'Segoe UI', Helvetica, sans-serif">Jun 19</text>
    <text x="640" y="248" class="axis-label" text-anchor="middle" font-family="-apple-system, BlinkMacSystemFont, 'Segoe UI', Helvetica, sans-serif">Jul 3</text>

  <path d="M48.0,219.8 C49.4,218.4 53.7,213.7 56.6,211.7 C59.4,209.7 62.3,209.1 65.2,207.7 C68.0,206.4 70.9,204.4 73.7,203.7 C76.6,203.0 79.5,205.0 82.3,203.5 C85.2,202.0 88.0,196.6 90.9,194.9 C93.8,193.2 96.6,200.1 99.5,193.2 C102.3,186.2 105.2,160.3 108.1,153.3 C110.9,146.3 113.8,151.7 116.6,151.3 C119.5,150.8 122.4,150.7 125.2,150.5 C128.1,150.3 130.9,150.2 133.8,150.1 C136.7,150.0 139.5,149.9 142.4,149.7 C145.2,149.5 148.1,149.1 151.0,148.7 C153.8,148.2 156.7,147.4 159.5,147.0 C162.4,146.5 165.3,146.3 168.1,146.1 C171.0,145.9 173.8,146.0 176.7,145.6 C179.6,145.2 182.4,144.1 185.3,143.6 C188.1,143.1 191.0,142.9 193.9,142.6 C196.7,142.3 199.6,142.0 202.4,141.7 C205.3,141.4 208.2,141.4 211.0,140.8 C213.9,140.2 216.7,138.7 219.6,138.0 C222.5,137.4 225.3,137.2 228.2,136.9 C231.0,136.6 233.9,136.4 236.8,136.2 C239.6,136.1 242.5,136.5 245.3,136.1 C248.2,135.7 251.1,134.4 253.9,133.8 C256.8,133.2 259.6,133.0 262.5,132.5 C265.4,132.1 268.2,131.8 271.1,131.1 C273.9,130.4 276.8,129.0 279.7,128.3 C282.5,127.6 285.4,127.3 288.2,126.9 C291.1,126.5 294.0,126.3 296.8,126.0 C299.7,125.8 302.5,125.8 305.4,125.3 C308.3,124.9 311.1,124.0 314.0,123.6 C316.8,123.1 319.7,122.8 322.6,122.5 C325.4,122.2 328.3,122.0 331.1,121.7 C334.0,121.5 336.9,121.3 339.7,121.1 C342.6,120.9 345.4,120.6 348.3,120.4 C351.1,120.3 354.0,120.3 356.9,120.2 C359.7,120.2 362.6,121.0 365.4,120.2 C368.3,119.4 371.2,116.5 374.0,115.5 C376.9,114.5 379.7,114.6 382.6,114.2 C385.5,113.7 388.3,113.3 391.2,112.8 C394.0,112.4 396.9,111.9 399.8,111.6 C402.6,111.3 405.5,111.2 408.3,111.0 C411.2,110.8 414.1,110.4 416.9,110.2 C419.8,110.0 422.6,110.1 425.5,109.7 C428.4,109.4 431.2,108.6 434.1,108.1 C436.9,107.7 439.8,107.6 442.7,107.2 C445.5,106.9 448.4,106.4 451.2,106.2 C454.1,105.9 457.0,106.0 459.8,105.7 C462.7,105.5 465.5,104.8 468.4,104.5 C471.3,104.2 474.1,104.2 477.0,104.0 C479.8,103.7 482.7,103.5 485.6,103.2 C488.4,102.9 491.3,102.5 494.1,102.2 C497.0,101.9 499.9,101.5 502.7,101.2 C505.6,100.9 508.4,100.8 511.3,100.3 C514.2,99.9 517.0,99.2 519.9,98.7 C522.7,98.3 525.6,98.1 528.5,97.7 C531.3,97.4 534.2,97.0 537.0,96.6 C539.9,96.3 542.8,95.9 545.6,95.5 C548.5,95.2 551.3,94.8 554.2,94.6 C557.1,94.3 559.9,94.2 562.8,93.8 C565.6,93.4 568.5,92.9 571.4,92.4 C574.2,91.9 577.1,91.2 579.9,90.8 C582.8,90.5 585.7,90.5 588.5,90.3 C591.4,90.1 594.2,90.0 597.1,89.8 C600.0,89.6 602.8,89.3 605.7,88.9 C608.5,88.6 611.4,88.2 614.3,87.9 C617.1,87.6 620.0,87.3 622.8,86.9 C625.7,86.6 628.6,86.2 631.4,85.8 C634.3,85.5 638.6,85.1 640.0,85.0 L640.0,220.0 L48.0,220.0 Z" fill="url(#areaGrad)"/>
  <path d="M48.0,219.8 C49.4,218.5 53.7,213.8 56.6,211.9 C59.4,210.0 62.3,209.5 65.2,208.4 C68.0,207.3 70.9,205.6 73.7,205.1 C76.6,204.5 79.5,206.5 82.3,205.1 C85.2,203.7 88.0,198.4 90.9,196.8 C93.8,195.2 96.6,201.7 99.5,195.5 C102.3,189.2 105.2,165.5 108.1,159.1 C110.9,152.7 113.8,157.7 116.6,157.3 C119.5,156.9 122.4,156.8 125.2,156.7 C128.1,156.6 130.9,156.6 133.8,156.5 C136.7,156.4 139.5,156.4 142.4,156.1 C145.2,155.9 148.1,155.6 151.0,155.1 C153.8,154.6 156.7,153.7 159.5,153.4 C162.4,153.0 165.3,153.1 168.1,152.9 C171.0,152.8 173.8,153.0 176.7,152.6 C179.6,152.2 182.4,151.1 185.3,150.6 C188.1,150.1 191.0,150.0 193.9,149.7 C196.7,149.4 199.6,149.2 202.4,148.9 C205.3,148.6 208.2,148.6 211.0,148.0 C213.9,147.4 216.7,145.9 219.6,145.2 C222.5,144.6 225.3,144.5 228.2,144.2 C231.0,143.9 233.9,143.7 236.8,143.5 C239.6,143.4 242.5,143.8 245.3,143.4 C248.2,143.0 251.1,141.8 253.9,141.2 C256.8,140.7 259.6,140.5 262.5,140.1 C265.4,139.7 268.2,139.6 271.1,138.9 C273.9,138.3 276.8,136.9 279.7,136.3 C282.5,135.6 285.4,135.4 288.2,135.0 C291.1,134.7 294.0,134.5 296.8,134.2 C299.7,134.0 302.5,134.0 305.4,133.7 C308.3,133.3 311.1,132.5 314.0,132.1 C316.8,131.6 319.7,131.4 322.6,131.1 C325.4,130.9 328.3,130.6 331.1,130.4 C334.0,130.3 336.9,130.2 339.7,130.0 C342.6,129.8 345.4,129.5 348.3,129.4 C351.1,129.3 354.0,129.4 356.9,129.4 C359.7,129.4 362.6,130.2 365.4,129.4 C368.3,128.7 371.2,125.9 374.0,124.9 C376.9,124.0 379.7,124.0 382.6,123.6 C385.5,123.1 388.3,122.7 391.2,122.3 C394.0,121.9 396.9,121.3 399.8,121.0 C402.6,120.7 405.5,120.7 408.3,120.5 C411.2,120.2 414.1,119.9 416.9,119.7 C419.8,119.5 422.6,119.6 425.5,119.2 C428.4,118.9 431.2,118.0 434.1,117.6 C436.9,117.2 439.8,117.0 442.7,116.7 C445.5,116.4 448.4,115.9 451.2,115.7 C454.1,115.4 457.0,115.5 459.8,115.2 C462.7,114.9 465.5,114.3 468.4,114.0 C471.3,113.8 474.1,113.8 477.0,113.6 C479.8,113.4 482.7,113.2 485.6,112.9 C488.4,112.6 491.3,112.3 494.1,112.0 C497.0,111.7 499.9,111.4 502.7,111.1 C505.6,110.8 508.4,110.6 511.3,110.3 C514.2,109.9 517.0,109.2 519.9,108.8 C522.7,108.4 525.6,108.2 528.5,107.9 C531.3,107.5 534.2,107.2 537.0,106.8 C539.9,106.5 542.8,106.1 545.6,105.8 C548.5,105.5 551.3,105.1 554.2,104.9 C557.1,104.6 559.9,104.5 562.8,104.2 C565.6,103.8 568.5,103.3 571.4,102.8 C574.2,102.3 577.1,101.6 579.9,101.3 C582.8,101.0 585.7,101.0 588.5,100.9 C591.4,100.7 594.2,100.6 597.1,100.4 C600.0,100.2 602.8,99.9 605.7,99.6 C608.5,99.3 611.4,99.0 614.3,98.7 C617.1,98.4 620.0,98.1 622.8,97.8 C625.7,97.4 628.6,97.0 631.4,96.7 C634.3,96.4 638.6,96.1 640.0,95.9" fill="none" class="line-openvsx" stroke-width="1.8" stroke-linecap="round" stroke-linejoin="round"/>
  <path d="M48.0,219.9 C49.4,219.9 53.7,219.9 56.6,219.8 C59.4,219.7 62.3,219.5 65.2,219.3 C68.0,219.1 70.9,218.8 73.7,218.6 C76.6,218.5 79.5,218.5 82.3,218.4 C85.2,218.3 88.0,218.2 90.9,218.1 C93.8,217.9 96.6,218.3 99.5,217.7 C102.3,217.1 105.2,214.8 108.1,214.2 C110.9,213.6 113.8,214.0 116.6,214.0 C119.5,213.9 122.4,213.9 125.2,213.8 C128.1,213.8 130.9,213.7 133.8,213.6 C136.7,213.6 139.5,213.6 142.4,213.6 C145.2,213.6 148.1,213.6 151.0,213.6 C153.8,213.6 156.7,213.6 159.5,213.6 C162.4,213.5 165.3,213.3 168.1,213.2 C171.0,213.1 173.8,213.1 176.7,213.1 C179.6,213.0 182.4,213.0 185.3,213.0 C188.1,213.0 191.0,212.9 193.9,212.9 C196.7,212.9 199.6,212.8 202.4,212.8 C205.3,212.8 208.2,212.8 211.0,212.8 C213.9,212.8 216.7,212.8 219.6,212.8 C222.5,212.8 225.3,212.7 228.2,212.7 C231.0,212.7 233.9,212.7 236.8,212.7 C239.6,212.7 242.5,212.7 245.3,212.7 C248.2,212.6 251.1,212.6 253.9,212.5 C256.8,212.5 259.6,212.5 262.5,212.4 C265.4,212.4 268.2,212.2 271.1,212.1 C273.9,212.1 276.8,212.0 279.7,212.0 C282.5,211.9 285.4,211.9 288.2,211.9 C291.1,211.8 294.0,211.8 296.8,211.8 C299.7,211.8 302.5,211.7 305.4,211.7 C308.3,211.6 311.1,211.6 314.0,211.5 C316.8,211.5 319.7,211.4 322.6,211.4 C325.4,211.4 328.3,211.3 331.1,211.3 C334.0,211.2 336.9,211.2 339.7,211.1 C342.6,211.1 345.4,211.0 348.3,211.0 C351.1,211.0 354.0,210.9 356.9,210.8 C359.7,210.8 362.6,210.8 365.4,210.8 C368.3,210.7 371.2,210.6 374.0,210.6 C376.9,210.6 379.7,210.6 382.6,210.6 C385.5,210.6 388.3,210.5 391.2,210.5 C394.0,210.5 396.9,210.5 399.8,210.5 C402.6,210.5 405.5,210.5 408.3,210.5 C411.2,210.5 414.1,210.5 416.9,210.5 C419.8,210.5 422.6,210.5 425.5,210.5 C428.4,210.5 431.2,210.5 434.1,210.5 C436.9,210.5 439.8,210.5 442.7,210.5 C445.5,210.5 448.4,210.5 451.2,210.5 C454.1,210.5 457.0,210.5 459.8,210.5 C462.7,210.5 465.5,210.5 468.4,210.5 C471.3,210.5 474.1,210.4 477.0,210.4 C479.8,210.3 482.7,210.3 485.6,210.3 C488.4,210.2 491.3,210.2 494.1,210.2 C497.0,210.2 499.9,210.2 502.7,210.1 C505.6,210.1 508.4,210.1 511.3,210.1 C514.2,210.1 517.0,210.0 519.9,210.0 C522.7,209.9 525.6,209.9 528.5,209.9 C531.3,209.8 534.2,209.8 537.0,209.8 C539.9,209.8 542.8,209.8 545.6,209.7 C548.5,209.7 551.3,209.7 554.2,209.7 C557.1,209.7 559.9,209.6 562.8,209.6 C565.6,209.6 568.5,209.6 571.4,209.6 C574.2,209.5 577.1,209.5 579.9,209.5 C582.8,209.5 585.7,209.5 588.5,209.5 C591.4,209.4 594.2,209.4 597.1,209.4 C600.0,209.4 602.8,209.4 605.7,209.3 C608.5,209.3 611.4,209.3 614.3,209.2 C617.1,209.2 620.0,209.2 622.8,209.2 C625.7,209.1 628.6,209.1 631.4,209.1 C634.3,209.1 638.6,209.1 640.0,209.0" fill="none" class="line-vscode" stroke-width="1.8" stroke-linecap="round" stroke-linejoin="round"/>
  <path d="M48.0,219.8 C49.4,218.4 53.7,213.7 56.6,211.7 C59.4,209.7 62.3,209.1 65.2,207.7 C68.0,206.4 70.9,204.4 73.7,203.7 C76.6,203.0 79.5,205.0 82.3,203.5 C85.2,202.0 88.0,196.6 90.9,194.9 C93.8,193.2 96.6,200.1 99.5,193.2 C102.3,186.2 105.2,160.3 108.1,153.3 C110.9,146.3 113.8,151.7 116.6,151.3 C119.5,150.8 122.4,150.7 125.2,150.5 C128.1,150.3 130.9,150.2 133.8,150.1 C136.7,150.0 139.5,149.9 142.4,149.7 C145.2,149.5 148.1,149.1 151.0,148.7 C153.8,148.2 156.7,147.4 159.5,147.0 C162.4,146.5 165.3,146.3 168.1,146.1 C171.0,145.9 173.8,146.0 176.7,145.6 C179.6,145.2 182.4,144.1 185.3,143.6 C188.1,143.1 191.0,142.9 193.9,142.6 C196.7,142.3 199.6,142.0 202.4,141.7 C205.3,141.4 208.2,141.4 211.0,140.8 C213.9,140.2 216.7,138.7 219.6,138.0 C222.5,137.4 225.3,137.2 228.2,136.9 C231.0,136.6 233.9,136.4 236.8,136.2 C239.6,136.1 242.5,136.5 245.3,136.1 C248.2,135.7 251.1,134.4 253.9,133.8 C256.8,133.2 259.6,133.0 262.5,132.5 C265.4,132.1 268.2,131.8 271.1,131.1 C273.9,130.4 276.8,129.0 279.7,128.3 C282.5,127.6 285.4,127.3 288.2,126.9 C291.1,126.5 294.0,126.3 296.8,126.0 C299.7,125.8 302.5,125.8 305.4,125.3 C308.3,124.9 311.1,124.0 314.0,123.6 C316.8,123.1 319.7,122.8 322.6,122.5 C325.4,122.2 328.3,122.0 331.1,121.7 C334.0,121.5 336.9,121.3 339.7,121.1 C342.6,120.9 345.4,120.6 348.3,120.4 C351.1,120.3 354.0,120.3 356.9,120.2 C359.7,120.2 362.6,121.0 365.4,120.2 C368.3,119.4 371.2,116.5 374.0,115.5 C376.9,114.5 379.7,114.6 382.6,114.2 C385.5,113.7 388.3,113.3 391.2,112.8 C394.0,112.4 396.9,111.9 399.8,111.6 C402.6,111.3 405.5,111.2 408.3,111.0 C411.2,110.8 414.1,110.4 416.9,110.2 C419.8,110.0 422.6,110.1 425.5,109.7 C428.4,109.4 431.2,108.6 434.1,108.1 C436.9,107.7 439.8,107.6 442.7,107.2 C445.5,106.9 448.4,106.4 451.2,106.2 C454.1,105.9 457.0,106.0 459.8,105.7 C462.7,105.5 465.5,104.8 468.4,104.5 C471.3,104.2 474.1,104.2 477.0,104.0 C479.8,103.7 482.7,103.5 485.6,103.2 C488.4,102.9 491.3,102.5 494.1,102.2 C497.0,101.9 499.9,101.5 502.7,101.2 C505.6,100.9 508.4,100.8 511.3,100.3 C514.2,99.9 517.0,99.2 519.9,98.7 C522.7,98.3 525.6,98.1 528.5,97.7 C531.3,97.4 534.2,97.0 537.0,96.6 C539.9,96.3 542.8,95.9 545.6,95.5 C548.5,95.2 551.3,94.8 554.2,94.6 C557.1,94.3 559.9,94.2 562.8,93.8 C565.6,93.4 568.5,92.9 571.4,92.4 C574.2,91.9 577.1,91.2 579.9,90.8 C582.8,90.5 585.7,90.5 588.5,90.3 C591.4,90.1 594.2,90.0 597.1,89.8 C600.0,89.6 602.8,89.3 605.7,88.9 C608.5,88.6 611.4,88.2 614.3,87.9 C617.1,87.6 620.0,87.3 622.8,86.9 C625.7,86.6 628.6,86.2 631.4,85.8 C634.3,85.5 638.6,85.1 640.0,85.0" fill="none" class="line-total" stroke-width="2.5" stroke-linecap="round" stroke-linejoin="round"/>

  <circle cx="640" cy="84.97999999999999" r="4.5" class="dot-total" stroke-width="2"/>
    <text x="658" y="88.97999999999999" class="end-label" font-family="-apple-system, BlinkMacSystemFont, 'Segoe UI', Helvetica, sans-serif">Total</text>
    <text x="697" y="88.97999999999999" class="end-value" font-family="-apple-system, BlinkMacSystemFont, 'Segoe UI', Helvetica, sans-serif">2.4k</text>
    <circle cx="640" cy="95.93066666666665" r="3.5" class="dot-openvsx" stroke-width="1.8"/>
    <text x="658" y="106.97999999999999" class="end-label" font-family="-apple-system, BlinkMacSystemFont, 'Segoe UI', Helvetica, sans-serif">Open VSX</text>
    <text x="716.8" y="106.97999999999999" class="end-value" font-family="-apple-system, BlinkMacSystemFont, 'Segoe UI', Helvetica, sans-serif">2.2k</text>
    <circle cx="640" cy="209.04933333333332" r="3.5" class="dot-vscode" stroke-width="1.8"/>
    <text x="658" y="213.04933333333332" class="end-label" font-family="-apple-system, BlinkMacSystemFont, 'Segoe UI', Helvetica, sans-serif">VS Code</text>
    <text x="710.2" y="213.04933333333332" class="end-value" font-family="-apple-system, BlinkMacSystemFont, 'Segoe UI', Helvetica, sans-serif">191</text>
</svg>