<svg xmlns="http://www.w3.org/2000/svg" viewBox="0 0 760 260" width="760" height="260" role="img" aria-label="Glassy install history">
  <style>
  svg { color-scheme: light dark; }
  .title      { fill: #1a1a2e; font-size: 15px; font-weight: 600; }
  .subtitle   { fill: #6b7280; font-size: 11px; font-weight: 400; }
  .grid       { stroke: #e8e8ee; }
  .axis-label { fill: #8a8a9a; font-size: 10px; }
  .line-total   { stroke: #e8553d; }
  .line-vscode  { stroke: #5b7cfa; }
  .line-openvsx { stroke: #34c7a0; }
  .dot-total   { fill: transparent; stroke: #e8553d; }
  .dot-vscode  { fill: transparent; stroke: #5b7cfa; }
  .dot-openvsx { fill: transparent; stroke: #34c7a0; }
  .end-label       { fill: #1a1a2e; font-size: 11px; font-weight: 600; }
  .end-value       { fill: #6b7280; font-size: 11px; font-weight: 400; }
  .area-total-top    { stop-color: #e8553d; }
  .area-total-bottom { stop-color: #e8553d; }

  @media (prefers-color-scheme: dark) {
    .title      { fill: #e2e2e8; }
    .subtitle   { fill: #8b949e; }
    .grid       { stroke: #2d2d3d; }
    .axis-label { fill: #6e7681; }
    .line-total   { stroke: #ff9b85; }
    .line-vscode  { stroke: #8da4ff; }
    .line-openvsx { stroke: #5eead4; }
    .dot-total   { stroke: #ff9b85; }
    .dot-vscode  { stroke: #8da4ff; }
    .dot-openvsx { stroke: #5eead4; }
    .end-label       { fill: #e2e2e8; }
    .end-value       { fill: #8b949e; }
    .area-total-top    { stop-color: #ff9b85; }
    .area-total-bottom { stop-color: #ff9b85; }
  }
</style>
  <defs>
    <linearGradient id="areaGrad" x1="0" y1="0" x2="0" y2="1">
      <stop offset="0%" class="area-total-top" stop-opacity="0.18"/>
      <stop offset="60%" class="area-total-bottom" stop-opacity="0.04"/>
      <stop offset="100%" class="area-total-bottom" stop-opacity="0"/>
    </linearGradient>
  </defs>

  <text x="48" y="22" class="title" font-family="-apple-system, BlinkMacSystemFont, 'Segoe UI', Helvetica, sans-serif">Installs</text>
  <text x="48" y="37" class="subtitle" font-family="-apple-system, BlinkMacSystemFont, 'Segoe UI', Helvetica, sans-serif">Updated Jun 14</text>

  <line x1="48" y1="220" x2="640" y2="220" class="grid" stroke-width="0.7"/>
    <text x="40" y="223.5" class="axis-label" text-anchor="end" font-family="-apple-system, BlinkMacSystemFont, 'Segoe UI', Helvetica, sans-serif">0</text>
    <line x1="48" y1="162.66666666666669" x2="640" y2="162.66666666666669" class="grid" stroke-width="0.7"/>
    <text x="40" y="166.16666666666669" class="axis-label" text-anchor="end" font-family="-apple-system, BlinkMacSystemFont, 'Segoe UI', Helvetica, sans-serif">1k</text>
    <line x1="48" y1="105.33333333333334" x2="640" y2="105.33333333333334" class="grid" stroke-width="0.7"/>
    <text x="40" y="108.83333333333334" class="axis-label" text-anchor="end" font-family="-apple-system, BlinkMacSystemFont, 'Segoe UI', Helvetica, sans-serif">2k</text>
    <line x1="48" y1="48" x2="640" y2="48" class="grid" stroke-width="0.7"/>
    <text x="40" y="51.5" class="axis-label" text-anchor="end" font-family="-apple-system, BlinkMacSystemFont, 'Segoe UI', Helvetica, sans-serif">3k</text>
  <text x="48" y="248" class="axis-label" text-anchor="middle" font-family="-apple-system, BlinkMacSystemFont, 'Segoe UI', Helvetica, sans-serif">Mar 27</text>
    <text x="166.4" y="248" class="axis-label" text-anchor="middle" font-family="-apple-system, BlinkMacSystemFont, 'Segoe UI', Helvetica, sans-serif">May 5</text>
    <text x="284.8" y="248" class="axis-label" text-anchor="middle" font-family="-apple-system, BlinkMacSystemFont, 'Segoe UI', Helvetica, sans-serif">May 15</text>
    <text x="403.2" y="248" class="axis-label" text-anchor="middle" font-family="-apple-system, BlinkMacSystemFont, 'Segoe UI', Helvetica, sans-serif">May 25</text>
    <text x="521.6" y="248" class="axis-label" text-anchor="middle" font-family="-apple-system, BlinkMacSystemFont, 'Segoe UI', Helvetica, sans-serif">Jun 4</text>
    <text x="640" y="248" class="axis-label" text-anchor="middle" font-family="-apple-system, BlinkMacSystemFont, 'Segoe UI', Helvetica, sans-serif">Jun 14</text>

  <path d="M48.0,219.8 C50.0,218.4 55.9,213.7 59.8,211.7 C63.8,209.7 67.7,209.1 71.7,207.7 C75.6,206.4 79.6,204.4 83.5,203.7 C87.5,203.0 91.4,205.0 95.4,203.5 C99.3,202.0 103.3,196.6 107.2,194.9 C111.1,193.2 115.1,200.1 119.0,193.2 C123.0,186.2 126.9,160.3 130.9,153.3 C134.8,146.3 138.8,151.7 142.7,151.3 C146.7,150.8 150.6,150.7 154.6,150.5 C158.5,150.3 162.5,150.2 166.4,150.1 C170.3,150.0 174.3,149.9 178.2,149.7 C182.2,149.5 186.1,149.1 190.1,148.7 C194.0,148.2 198.0,147.4 201.9,147.0 C205.9,146.5 209.8,146.3 213.8,146.1 C217.7,145.9 221.7,146.0 225.6,145.6 C229.5,145.2 233.5,144.1 237.4,143.6 C241.4,143.1 245.3,142.9 249.3,142.6 C253.2,142.3 257.2,142.0 261.1,141.7 C265.1,141.4 269.0,141.4 273.0,140.8 C276.9,140.2 280.9,138.7 284.8,138.0 C288.7,137.4 292.7,137.2 296.6,136.9 C300.6,136.6 304.5,136.4 308.5,136.2 C312.4,136.1 316.4,136.5 320.3,136.1 C324.3,135.7 328.2,134.4 332.2,133.8 C336.1,133.2 340.1,133.0 344.0,132.5 C347.9,132.1 351.9,131.8 355.8,131.1 C359.8,130.4 363.7,129.0 367.7,128.3 C371.6,127.6 375.6,127.3 379.5,126.9 C383.5,126.5 387.4,126.3 391.4,126.0 C395.3,125.8 399.3,125.8 403.2,125.3 C407.1,124.9 411.1,124.0 415.0,123.6 C419.0,123.1 422.9,122.8 426.9,122.5 C430.8,122.2 434.8,122.0 438.7,121.7 C442.7,121.5 446.6,121.3 450.6,121.1 C454.5,120.9 458.5,120.6 462.4,120.4 C466.3,120.3 470.3,120.3 474.2,120.2 C478.2,120.2 482.1,121.0 486.1,120.2 C490.0,119.4 494.0,116.5 497.9,115.5 C501.9,114.5 505.8,114.6 509.8,114.2 C513.7,113.7 517.7,113.3 521.6,112.8 C525.5,112.4 529.5,111.9 533.4,111.6 C537.4,111.3 541.3,111.2 545.3,111.0 C549.2,110.8 553.2,110.4 557.1,110.2 C561.1,110.0 565.0,110.1 569.0,109.7 C572.9,109.4 576.9,108.6 580.8,108.1 C584.7,107.7 588.7,107.6 592.6,107.2 C596.6,106.9 600.5,106.4 604.5,106.2 C608.4,105.9 612.4,106.0 616.3,105.7 C620.3,105.5 624.2,104.8 628.2,104.5 C632.1,104.2 638.0,104.1 640.0,104.0 L640.0,220.0 L48.0,220.0 Z" fill="url(#areaGrad)"/>
  <path d="M48.0,219.8 C50.0,218.5 55.9,213.8 59.8,211.9 C63.8,210.0 67.7,209.5 71.7,208.4 C75.6,207.3 79.6,205.6 83.5,205.1 C87.5,204.5 91.4,206.5 95.4,205.1 C99.3,203.7 103.3,198.4 107.2,196.8 C111.1,195.2 115.1,201.7 119.0,195.5 C123.0,189.2 126.9,165.5 130.9,159.1 C134.8,152.7 138.8,157.7 142.7,157.3 C146.7,156.9 150.6,156.8 154.6,156.7 C158.5,156.6 162.5,156.6 166.4,156.5 C170.3,156.4 174.3,156.4 178.2,156.1 C182.2,155.9 186.1,155.6 190.1,155.1 C194.0,154.6 198.0,153.7 201.9,153.4 C205.9,153.0 209.8,153.1 213.8,152.9 C217.7,152.8 221.7,153.0 225.6,152.6 C229.5,152.2 233.5,151.1 237.4,150.6 C241.4,150.1 245.3,150.0 249.3,149.7 C253.2,149.4 257.2,149.2 261.1,148.9 C265.1,148.6 269.0,148.6 273.0,148.0 C276.9,147.4 280.9,145.9 284.8,145.2 C288.7,144.6 292.7,144.5 296.6,144.2 C300.6,143.9 304.5,143.7 308.5,143.5 C312.4,143.4 316.4,143.8 320.3,143.4 C324.3,143.0 328.2,141.8 332.2,141.2 C336.1,140.7 340.1,140.5 344.0,140.1 C347.9,139.7 351.9,139.6 355.8,138.9 C359.8,138.3 363.7,136.9 367.7,136.3 C371.6,135.6 375.6,135.4 379.5,135.0 C383.5,134.7 387.4,134.5 391.4,134.2 C395.3,134.0 399.3,134.0 403.2,133.7 C407.1,133.3 411.1,132.5 415.0,132.1 C419.0,131.6 422.9,131.4 426.9,131.1 C430.8,130.9 434.8,130.6 438.7,130.4 C442.7,130.3 446.6,130.2 450.6,130.0 C454.5,129.8 458.5,129.5 462.4,129.4 C466.3,129.3 470.3,129.4 474.2,129.4 C478.2,129.4 482.1,130.2 486.1,129.4 C490.0,128.7 494.0,125.9 497.9,124.9 C501.9,124.0 505.8,124.0 509.8,123.6 C513.7,123.1 517.7,122.7 521.6,122.3 C525.5,121.9 529.5,121.3 533.4,121.0 C537.4,120.7 541.3,120.7 545.3,120.5 C549.2,120.2 553.2,119.9 557.1,119.7 C561.1,119.5 565.0,119.6 569.0,119.2 C572.9,118.9 576.9,118.0 580.8,117.6 C584.7,117.2 588.7,117.0 592.6,116.7 C596.6,116.4 600.5,115.9 604.5,115.7 C608.4,115.4 612.4,115.5 616.3,115.2 C620.3,114.9 624.2,114.3 628.2,114.0 C632.1,113.8 638.0,113.7 640.0,113.6" fill="none" class="line-openvsx" stroke-width="1.8" stroke-linecap="round" stroke-linejoin="round"/>
  <path d="M48.0,219.9 C50.0,219.9 55.9,219.9 59.8,219.8 C63.8,219.7 67.7,219.5 71.7,219.3 C75.6,219.1 79.6,218.8 83.5,218.6 C87.5,218.5 91.4,218.5 95.4,218.4 C99.3,218.3 103.3,218.2 107.2,218.1 C111.1,217.9 115.1,218.3 119.0,217.7 C123.0,217.1 126.9,214.8 130.9,214.2 C134.8,213.6 138.8,214.0 142.7,214.0 C146.7,213.9 150.6,213.9 154.6,213.8 C158.5,213.8 162.5,213.7 166.4,213.6 C170.3,213.6 174.3,213.6 178.2,213.6 C182.2,213.6 186.1,213.6 190.1,213.6 C194.0,213.6 198.0,213.6 201.9,213.6 C205.9,213.5 209.8,213.3 213.8,213.2 C217.7,213.1 221.7,213.1 225.6,213.1 C229.5,213.0 233.5,213.0 237.4,213.0 C241.4,213.0 245.3,212.9 249.3,212.9 C253.2,212.9 257.2,212.8 261.1,212.8 C265.1,212.8 269.0,212.8 273.0,212.8 C276.9,212.8 280.9,212.8 284.8,212.8 C288.7,212.8 292.7,212.7 296.6,212.7 C300.6,212.7 304.5,212.7 308.5,212.7 C312.4,212.7 316.4,212.7 320.3,212.7 C324.3,212.6 328.2,212.6 332.2,212.5 C336.1,212.5 340.1,212.5 344.0,212.4 C347.9,212.4 351.9,212.2 355.8,212.1 C359.8,212.1 363.7,212.0 367.7,212.0 C371.6,211.9 375.6,211.9 379.5,211.9 C383.5,211.8 387.4,211.8 391.4,211.8 C395.3,211.8 399.3,211.7 403.2,211.7 C407.1,211.6 411.1,211.6 415.0,211.5 C419.0,211.5 422.9,211.4 426.9,211.4 C430.8,211.4 434.8,211.3 438.7,211.3 C442.7,211.2 446.6,211.2 450.6,211.1 C454.5,211.1 458.5,211.0 462.4,211.0 C466.3,211.0 470.3,210.9 474.2,210.8 C478.2,210.8 482.1,210.8 486.1,210.8 C490.0,210.7 494.0,210.6 497.9,210.6 C501.9,210.6 505.8,210.6 509.8,210.6 C513.7,210.6 517.7,210.5 521.6,210.5 C525.5,210.5 529.5,210.5 533.4,210.5 C537.4,210.5 541.3,210.5 545.3,210.5 C549.2,210.5 553.2,210.5 557.1,210.5 C561.1,210.5 565.0,210.5 569.0,210.5 C572.9,210.5 576.9,210.5 580.8,210.5 C584.7,210.5 588.7,210.5 592.6,210.5 C596.6,210.5 600.5,210.5 604.5,210.5 C608.4,210.5 612.4,210.5 616.3,210.5 C620.3,210.5 624.2,210.5 628.2,210.5 C632.1,210.5 638.0,210.4 640.0,210.4" fill="none" class="line-vscode" stroke-width="1.8" stroke-linecap="round" stroke-linejoin="round"/>
  <path d="M48.0,219.8 C50.0,218.4 55.9,213.7 59.8,211.7 C63.8,209.7 67.7,209.1 71.7,207.7 C75.6,206.4 79.6,204.4 83.5,203.7 C87.5,203.0 91.4,205.0 95.4,203.5 C99.3,202.0 103.3,196.6 107.2,194.9 C111.1,193.2 115.1,200.1 119.0,193.2 C123.0,186.2 126.9,160.3 130.9,153.3 C134.8,146.3 138.8,151.7 142.7,151.3 C146.7,150.8 150.6,150.7 154.6,150.5 C158.5,150.3 162.5,150.2 166.4,150.1 C170.3,150.0 174.3,149.9 178.2,149.7 C182.2,149.5 186.1,149.1 190.1,148.7 C194.0,148.2 198.0,147.4 201.9,147.0 C205.9,146.5 209.8,146.3 213.8,146.1 C217.7,145.9 221.7,146.0 225.6,145.6 C229.5,145.2 233.5,144.1 237.4,143.6 C241.4,143.1 245.3,142.9 249.3,142.6 C253.2,142.3 257.2,142.0 261.1,141.7 C265.1,141.4 269.0,141.4 273.0,140.8 C276.9,140.2 280.9,138.7 284.8,138.0 C288.7,137.4 292.7,137.2 296.6,136.9 C300.6,136.6 304.5,136.4 308.5,136.2 C312.4,136.1 316.4,136.5 320.3,136.1 C324.3,135.7 328.2,134.4 332.2,133.8 C336.1,133.2 340.1,133.0 344.0,132.5 C347.9,132.1 351.9,131.8 355.8,131.1 C359.8,130.4 363.7,129.0 367.7,128.3 C371.6,127.6 375.6,127.3 379.5,126.9 C383.5,126.5 387.4,126.3 391.4,126.0 C395.3,125.8 399.3,125.8 403.2,125.3 C407.1,124.9 411.1,124.0 415.0,123.6 C419.0,123.1 422.9,122.8 426.9,122.5 C430.8,122.2 434.8,122.0 438.7,121.7 C442.7,121.5 446.6,121.3 450.6,121.1 C454.5,120.9 458.5,120.6 462.4,120.4 C466.3,120.3 470.3,120.3 474.2,120.2 C478.2,120.2 482.1,121.0 486.1,120.2 C490.0,119.4 494.0,116.5 497.9,115.5 C501.9,114.5 505.8,114.6 509.8,114.2 C513.7,113.7 517.7,113.3 521.6,112.8 C525.5,112.4 529.5,111.9 533.4,111.6 C537.4,111.3 541.3,111.2 545.3,111.0 C549.2,110.8 553.2,110.4 557.1,110.2 C561.1,110.0 565.0,110.1 569.0,109.7 C572.9,109.4 576.9,108.6 580.8,108.1 C584.7,107.7 588.7,107.6 592.6,107.2 C596.6,106.9 600.5,106.4 604.5,106.2 C608.4,105.9 612.4,106.0 616.3,105.7 C620.3,105.5 624.2,104.8 628.2,104.5 C632.1,104.2 638.0,104.1 640.0,104.0" fill="none" class="line-total" stroke-width="2.5" stroke-linecap="round" stroke-linejoin="round"/>

  <circle cx="640" cy="103.95733333333334" r="4.5" class="dot-total" stroke-width="2"/>
    <text x="658" y="107.95733333333334" class="end-label" font-family="-apple-system, BlinkMacSystemFont, 'Segoe UI', Helvetica, sans-serif">Total</text>
    <text x="697" y="107.95733333333334" class="end-value" font-family="-apple-system, BlinkMacSystemFont, 'Segoe UI', Helvetica, sans-serif">2k</text>
    <circle cx="640" cy="113.58933333333333" r="3.5" class="dot-openvsx" stroke-width="1.8"/>
    <text x="658" y="125.95733333333334" class="end-label" font-family="-apple-system, BlinkMacSystemFont, 'Segoe UI', Helvetica, sans-serif">Open VSX</text>
    <text x="716.8" y="125.95733333333334" class="end-value" font-family="-apple-system, BlinkMacSystemFont, 'Segoe UI', Helvetica, sans-serif">1.9k</text>
    <circle cx="640" cy="210.368" r="3.5" class="dot-vscode" stroke-width="1.8"/>
    <text x="658" y="214.368" class="end-label" font-family="-apple-system, BlinkMacSystemFont, 'Segoe UI', Helvetica, sans-serif">VS Code</text>
    <text x="710.2" y="214.368" class="end-value" font-family="-apple-system, BlinkMacSystemFont, 'Segoe UI', Helvetica, sans-serif">168</text>
</svg>