<svg xmlns="http://www.w3.org/2000/svg" viewBox="0 0 760 260" width="760" height="260" role="img" aria-label="Glassy install history">
  <style>
  svg { color-scheme: light dark; }
  .title      { fill: #1a1a2e; font-size: 15px; font-weight: 600; }
  .subtitle   { fill: #6b7280; font-size: 11px; font-weight: 400; }
  .grid       { stroke: #e8e8ee; }
  .axis-label { fill: #8a8a9a; font-size: 10px; }
  .line-total   { stroke: #e8553d; }
  .line-vscode  { stroke: #5b7cfa; }
  .line-openvsx { stroke: #34c7a0; }
  .dot-total   { fill: transparent; stroke: #e8553d; }
  .dot-vscode  { fill: transparent; stroke: #5b7cfa; }
  .dot-openvsx { fill: transparent; stroke: #34c7a0; }
  .end-label       { fill: #1a1a2e; font-size: 11px; font-weight: 600; }
  .end-value       { fill: #6b7280; font-size: 11px; font-weight: 400; }
  .area-total-top    { stop-color: #e8553d; }
  .area-total-bottom { stop-color: #e8553d; }

  @media (prefers-color-scheme: dark) {
    .title      { fill: #e2e2e8; }
    .subtitle   { fill: #8b949e; }
    .grid       { stroke: #2d2d3d; }
    .axis-label { fill: #6e7681; }
    .line-total   { stroke: #ff9b85; }
    .line-vscode  { stroke: #8da4ff; }
    .line-openvsx { stroke: #5eead4; }
    .dot-total   { stroke: #ff9b85; }
    .dot-vscode  { stroke: #8da4ff; }
    .dot-openvsx { stroke: #5eead4; }
    .end-label       { fill: #e2e2e8; }
    .end-value       { fill: #8b949e; }
    .area-total-top    { stop-color: #ff9b85; }
    .area-total-bottom { stop-color: #ff9b85; }
  }
</style>
  <defs>
    <linearGradient id="areaGrad" x1="0" y1="0" x2="0" y2="1">
      <stop offset="0%" class="area-total-top" stop-opacity="0.18"/>
      <stop offset="60%" class="area-total-bottom" stop-opacity="0.04"/>
      <stop offset="100%" class="area-total-bottom" stop-opacity="0"/>
    </linearGradient>
  </defs>

  <text x="48" y="22" class="title" font-family="-apple-system, BlinkMacSystemFont, 'Segoe UI', Helvetica, sans-serif">Installs</text>
  <text x="48" y="37" class="subtitle" font-family="-apple-system, BlinkMacSystemFont, 'Segoe UI', Helvetica, sans-serif">Updated May 17</text>

  <line x1="48" y1="220" x2="640" y2="220" class="grid" stroke-width="0.7"/>
    <text x="40" y="223.5" class="axis-label" text-anchor="end" font-family="-apple-system, BlinkMacSystemFont, 'Segoe UI', Helvetica, sans-serif">0</text>
    <line x1="48" y1="162.66666666666669" x2="640" y2="162.66666666666669" class="grid" stroke-width="0.7"/>
    <text x="40" y="166.16666666666669" class="axis-label" text-anchor="end" font-family="-apple-system, BlinkMacSystemFont, 'Segoe UI', Helvetica, sans-serif">500</text>
    <line x1="48" y1="105.33333333333334" x2="640" y2="105.33333333333334" class="grid" stroke-width="0.7"/>
    <text x="40" y="108.83333333333334" class="axis-label" text-anchor="end" font-family="-apple-system, BlinkMacSystemFont, 'Segoe UI', Helvetica, sans-serif">1k</text>
    <line x1="48" y1="48" x2="640" y2="48" class="grid" stroke-width="0.7"/>
    <text x="40" y="51.5" class="axis-label" text-anchor="end" font-family="-apple-system, BlinkMacSystemFont, 'Segoe UI', Helvetica, sans-serif">1.5k</text>
  <text x="48" y="248" class="axis-label" text-anchor="middle" font-family="-apple-system, BlinkMacSystemFont, 'Segoe UI', Helvetica, sans-serif">Mar 27</text>
    <text x="155.63636363636363" y="248" class="axis-label" text-anchor="middle" font-family="-apple-system, BlinkMacSystemFont, 'Segoe UI', Helvetica, sans-serif">Mar 31</text>
    <text x="290.1818181818182" y="248" class="axis-label" text-anchor="middle" font-family="-apple-system, BlinkMacSystemFont, 'Segoe UI', Helvetica, sans-serif">May 4</text>
    <text x="397.8181818181818" y="248" class="axis-label" text-anchor="middle" font-family="-apple-system, BlinkMacSystemFont, 'Segoe UI', Helvetica, sans-serif">May 8</text>
    <text x="532.3636363636364" y="248" class="axis-label" text-anchor="middle" font-family="-apple-system, BlinkMacSystemFont, 'Segoe UI', Helvetica, sans-serif">May 13</text>
    <text x="640" y="248" class="axis-label" text-anchor="middle" font-family="-apple-system, BlinkMacSystemFont, 'Segoe UI', Helvetica, sans-serif">May 17</text>

  <path d="M48.0,219.5 C52.5,216.8 65.9,207.4 74.9,203.4 C83.9,199.4 92.8,198.1 101.8,195.5 C110.8,192.8 119.8,188.8 128.7,187.4 C137.7,186.0 146.7,189.9 155.6,187.0 C164.6,184.0 173.6,173.2 182.5,169.8 C191.5,166.3 200.5,180.2 209.5,166.3 C218.4,152.5 227.4,100.6 236.4,86.6 C245.3,72.7 254.3,83.5 263.3,82.5 C272.2,81.6 281.2,81.4 290.2,81.0 C299.2,80.6 308.1,80.5 317.1,80.2 C326.1,80.0 335.0,79.9 344.0,79.4 C353.0,78.9 361.9,78.3 370.9,77.4 C379.9,76.4 388.8,74.8 397.8,73.9 C406.8,73.1 415.8,72.6 424.7,72.2 C433.7,71.8 442.7,72.1 451.6,71.3 C460.6,70.5 469.6,68.3 478.5,67.3 C487.5,66.3 496.5,65.8 505.5,65.2 C514.4,64.6 523.4,64.1 532.4,63.5 C541.3,62.9 550.3,62.9 559.3,61.6 C568.2,60.4 577.2,57.3 586.2,56.0 C595.2,54.7 604.1,54.4 613.1,53.8 C622.1,53.3 635.5,52.7 640.0,52.5 L640.0,220.0 L48.0,220.0 Z" fill="url(#areaGrad)"/>
  <path d="M48.0,219.7 C52.5,217.0 65.9,207.5 74.9,203.7 C83.9,199.9 92.8,199.1 101.8,196.8 C110.8,194.6 119.8,191.3 128.7,190.2 C137.7,189.1 146.7,192.9 155.6,190.2 C164.6,187.4 173.6,176.9 182.5,173.7 C191.5,170.5 200.5,183.5 209.5,170.9 C218.4,158.3 227.4,111.0 236.4,98.2 C245.3,85.5 254.3,95.4 263.3,94.6 C272.2,93.8 281.2,93.7 290.2,93.4 C299.2,93.1 308.1,93.1 317.1,92.9 C326.1,92.8 335.0,92.7 344.0,92.3 C353.0,91.8 361.9,91.1 370.9,90.2 C379.9,89.3 388.8,87.5 397.8,86.8 C406.8,86.0 415.8,86.1 424.7,85.8 C433.7,85.6 442.7,85.9 451.6,85.2 C460.6,84.4 469.6,82.2 478.5,81.3 C487.5,80.3 496.5,80.0 505.5,79.4 C514.4,78.8 523.4,78.4 532.4,77.8 C541.3,77.2 550.3,77.2 559.3,76.0 C568.2,74.8 577.2,71.7 586.2,70.5 C595.2,69.2 604.1,69.0 613.1,68.4 C622.1,67.8 635.5,67.3 640.0,67.0" fill="none" class="line-openvsx" stroke-width="1.8" stroke-linecap="round" stroke-linejoin="round"/>
  <path d="M48.0,219.9 C52.5,219.8 65.9,219.9 74.9,219.7 C83.9,219.4 92.8,219.0 101.8,218.6 C110.8,218.2 119.8,217.6 128.7,217.2 C137.7,216.9 146.7,217.0 155.6,216.8 C164.6,216.6 173.6,216.3 182.5,216.1 C191.5,215.9 200.5,216.7 209.5,215.4 C218.4,214.1 227.4,209.7 236.4,208.4 C245.3,207.2 254.3,208.1 263.3,208.0 C272.2,207.8 281.2,207.7 290.2,207.6 C299.2,207.5 308.1,207.3 317.1,207.3 C326.1,207.2 335.0,207.2 344.0,207.2 C353.0,207.1 361.9,207.2 370.9,207.2 C379.9,207.2 388.8,207.3 397.8,207.2 C406.8,207.0 415.8,206.5 424.7,206.4 C433.7,206.2 442.7,206.2 451.6,206.1 C460.6,206.1 469.6,206.1 478.5,206.0 C487.5,206.0 496.5,205.8 505.5,205.8 C514.4,205.7 523.4,205.7 532.4,205.7 C541.3,205.6 550.3,205.7 559.3,205.7 C568.2,205.6 577.2,205.6 586.2,205.6 C595.2,205.5 604.1,205.5 613.1,205.4 C622.1,205.4 635.5,205.4 640.0,205.4" fill="none" class="line-vscode" stroke-width="1.8" stroke-linecap="round" stroke-linejoin="round"/>
  <path d="M48.0,219.5 C52.5,216.8 65.9,207.4 74.9,203.4 C83.9,199.4 92.8,198.1 101.8,195.5 C110.8,192.8 119.8,188.8 128.7,187.4 C137.7,186.0 146.7,189.9 155.6,187.0 C164.6,184.0 173.6,173.2 182.5,169.8 C191.5,166.3 200.5,180.2 209.5,166.3 C218.4,152.5 227.4,100.6 236.4,86.6 C245.3,72.7 254.3,83.5 263.3,82.5 C272.2,81.6 281.2,81.4 290.2,81.0 C299.2,80.6 308.1,80.5 317.1,80.2 C326.1,80.0 335.0,79.9 344.0,79.4 C353.0,78.9 361.9,78.3 370.9,77.4 C379.9,76.4 388.8,74.8 397.8,73.9 C406.8,73.1 415.8,72.6 424.7,72.2 C433.7,71.8 442.7,72.1 451.6,71.3 C460.6,70.5 469.6,68.3 478.5,67.3 C487.5,66.3 496.5,65.8 505.5,65.2 C514.4,64.6 523.4,64.1 532.4,63.5 C541.3,62.9 550.3,62.9 559.3,61.6 C568.2,60.4 577.2,57.3 586.2,56.0 C595.2,54.7 604.1,54.4 613.1,53.8 C622.1,53.3 635.5,52.7 640.0,52.5" fill="none" class="line-total" stroke-width="2.5" stroke-linecap="round" stroke-linejoin="round"/>

  <circle cx="640" cy="52.47200000000001" r="4.5" class="dot-total" stroke-width="2"/>
    <text x="658" y="56.47200000000001" class="end-label" font-family="-apple-system, BlinkMacSystemFont, 'Segoe UI', Helvetica, sans-serif">Total</text>
    <text x="697" y="56.47200000000001" class="end-value" font-family="-apple-system, BlinkMacSystemFont, 'Segoe UI', Helvetica, sans-serif">1.5k</text>
    <circle cx="640" cy="67.03466666666668" r="3.5" class="dot-openvsx" stroke-width="1.8"/>
    <text x="658" y="74.47200000000001" class="end-label" font-family="-apple-system, BlinkMacSystemFont, 'Segoe UI', Helvetica, sans-serif">Open VSX</text>
    <text x="716.8" y="74.47200000000001" class="end-value" font-family="-apple-system, BlinkMacSystemFont, 'Segoe UI', Helvetica, sans-serif">1.3k</text>
    <circle cx="640" cy="205.43733333333333" r="3.5" class="dot-vscode" stroke-width="1.8"/>
    <text x="658" y="209.43733333333333" class="end-label" font-family="-apple-system, BlinkMacSystemFont, 'Segoe UI', Helvetica, sans-serif">VS Code</text>
    <text x="710.2" y="209.43733333333333" class="end-value" font-family="-apple-system, BlinkMacSystemFont, 'Segoe UI', Helvetica, sans-serif">127</text>
</svg>