<svg xmlns="http://www.w3.org/2000/svg" viewBox="0 0 760 260" width="760" height="260" role="img" aria-label="Glassy install history">
  <style>
  svg { color-scheme: light dark; }
  .title      { fill: #1a1a2e; font-size: 15px; font-weight: 600; }
  .subtitle   { fill: #6b7280; font-size: 11px; font-weight: 400; }
  .grid       { stroke: #e8e8ee; }
  .axis-label { fill: #8a8a9a; font-size: 10px; }
  .line-total   { stroke: #e8553d; }
  .line-vscode  { stroke: #5b7cfa; }
  .line-openvsx { stroke: #34c7a0; }
  .dot-total   { fill: transparent; stroke: #e8553d; }
  .dot-vscode  { fill: transparent; stroke: #5b7cfa; }
  .dot-openvsx { fill: transparent; stroke: #34c7a0; }
  .end-label       { fill: #1a1a2e; font-size: 11px; font-weight: 600; }
  .end-value       { fill: #6b7280; font-size: 11px; font-weight: 400; }
  .area-total-top    { stop-color: #e8553d; }
  .area-total-bottom { stop-color: #e8553d; }

  @media (prefers-color-scheme: dark) {
    .title      { fill: #e2e2e8; }
    .subtitle   { fill: #8b949e; }
    .grid       { stroke: #2d2d3d; }
    .axis-label { fill: #6e7681; }
    .line-total   { stroke: #ff9b85; }
    .line-vscode  { stroke: #8da4ff; }
    .line-openvsx { stroke: #5eead4; }
    .dot-total   { stroke: #ff9b85; }
    .dot-vscode  { stroke: #8da4ff; }
    .dot-openvsx { stroke: #5eead4; }
    .end-label       { fill: #e2e2e8; }
    .end-value       { fill: #8b949e; }
    .area-total-top    { stop-color: #ff9b85; }
    .area-total-bottom { stop-color: #ff9b85; }
  }
</style>
  <defs>
    <linearGradient id="areaGrad" x1="0" y1="0" x2="0" y2="1">
      <stop offset="0%" class="area-total-top" stop-opacity="0.18"/>
      <stop offset="60%" class="area-total-bottom" stop-opacity="0.04"/>
      <stop offset="100%" class="area-total-bottom" stop-opacity="0"/>
    </linearGradient>
  </defs>

  <text x="48" y="22" class="title" font-family="-apple-system, BlinkMacSystemFont, 'Segoe UI', Helvetica, sans-serif">Installs</text>
  <text x="48" y="37" class="subtitle" font-family="-apple-system, BlinkMacSystemFont, 'Segoe UI', Helvetica, sans-serif">Updated Jun 1</text>

  <line x1="48" y1="220" x2="640" y2="220" class="grid" stroke-width="0.7"/>
    <text x="40" y="223.5" class="axis-label" text-anchor="end" font-family="-apple-system, BlinkMacSystemFont, 'Segoe UI', Helvetica, sans-serif">0</text>
    <line x1="48" y1="177" x2="640" y2="177" class="grid" stroke-width="0.7"/>
    <text x="40" y="180.5" class="axis-label" text-anchor="end" font-family="-apple-system, BlinkMacSystemFont, 'Segoe UI', Helvetica, sans-serif">500</text>
    <line x1="48" y1="134" x2="640" y2="134" class="grid" stroke-width="0.7"/>
    <text x="40" y="137.5" class="axis-label" text-anchor="end" font-family="-apple-system, BlinkMacSystemFont, 'Segoe UI', Helvetica, sans-serif">1k</text>
    <line x1="48" y1="91" x2="640" y2="91" class="grid" stroke-width="0.7"/>
    <text x="40" y="94.5" class="axis-label" text-anchor="end" font-family="-apple-system, BlinkMacSystemFont, 'Segoe UI', Helvetica, sans-serif">1.5k</text>
    <line x1="48" y1="48" x2="640" y2="48" class="grid" stroke-width="0.7"/>
    <text x="40" y="51.5" class="axis-label" text-anchor="end" font-family="-apple-system, BlinkMacSystemFont, 'Segoe UI', Helvetica, sans-serif">2k</text>
  <text x="48" y="248" class="axis-label" text-anchor="middle" font-family="-apple-system, BlinkMacSystemFont, 'Segoe UI', Helvetica, sans-serif">Mar 27</text>
    <text x="160" y="248" class="axis-label" text-anchor="middle" font-family="-apple-system, BlinkMacSystemFont, 'Segoe UI', Helvetica, sans-serif">Apr 30</text>
    <text x="288" y="248" class="axis-label" text-anchor="middle" font-family="-apple-system, BlinkMacSystemFont, 'Segoe UI', Helvetica, sans-serif">May 10</text>
    <text x="400" y="248" class="axis-label" text-anchor="middle" font-family="-apple-system, BlinkMacSystemFont, 'Segoe UI', Helvetica, sans-serif">May 17</text>
    <text x="528" y="248" class="axis-label" text-anchor="middle" font-family="-apple-system, BlinkMacSystemFont, 'Segoe UI', Helvetica, sans-serif">May 25</text>
    <text x="640" y="248" class="axis-label" text-anchor="middle" font-family="-apple-system, BlinkMacSystemFont, 'Segoe UI', Helvetica, sans-serif">Jun 1</text>

  <path d="M48.0,219.7 C50.7,217.6 58.7,210.5 64.0,207.5 C69.3,204.5 74.7,203.6 80.0,201.6 C85.3,199.6 90.7,196.6 96.0,195.6 C101.3,194.5 106.7,197.4 112.0,195.2 C117.3,193.0 122.7,184.9 128.0,182.3 C133.3,179.8 138.7,190.1 144.0,179.8 C149.3,169.4 154.7,130.5 160.0,120.0 C165.3,109.5 170.7,117.6 176.0,116.9 C181.3,116.2 186.7,116.1 192.0,115.8 C197.3,115.5 202.7,115.4 208.0,115.2 C213.3,115.0 218.7,114.9 224.0,114.6 C229.3,114.2 234.7,113.7 240.0,113.0 C245.3,112.3 250.7,111.1 256.0,110.4 C261.3,109.8 266.7,109.5 272.0,109.1 C277.3,108.8 282.7,109.1 288.0,108.5 C293.3,107.8 298.7,106.2 304.0,105.4 C309.3,104.7 314.7,104.4 320.0,103.9 C325.3,103.4 330.7,103.1 336.0,102.6 C341.3,102.2 346.7,102.2 352.0,101.2 C357.3,100.3 362.7,98.0 368.0,97.0 C373.3,96.0 378.7,95.8 384.0,95.4 C389.3,94.9 394.7,94.6 400.0,94.4 C405.3,94.1 410.7,94.7 416.0,94.1 C421.3,93.5 426.7,91.5 432.0,90.7 C437.3,89.8 442.7,89.4 448.0,88.8 C453.3,88.1 458.7,87.7 464.0,86.6 C469.3,85.6 474.7,83.4 480.0,82.4 C485.3,81.4 490.7,80.9 496.0,80.3 C501.3,79.8 506.7,79.4 512.0,79.0 C517.3,78.7 522.7,78.6 528.0,78.0 C533.3,77.4 538.7,76.1 544.0,75.3 C549.3,74.6 554.7,74.3 560.0,73.8 C565.3,73.3 570.7,73.0 576.0,72.6 C581.3,72.2 586.7,72.0 592.0,71.7 C597.3,71.3 602.7,70.8 608.0,70.6 C613.3,70.4 618.7,70.4 624.0,70.4 C629.3,70.3 637.3,70.3 640.0,70.3 L640.0,220.0 L48.0,220.0 Z" fill="url(#areaGrad)"/>
  <path d="M48.0,219.7 C50.7,217.7 58.7,210.6 64.0,207.8 C69.3,204.9 74.7,204.3 80.0,202.6 C85.3,200.9 90.7,198.5 96.0,197.6 C101.3,196.8 106.7,199.7 112.0,197.6 C117.3,195.6 122.7,187.7 128.0,185.3 C133.3,182.8 138.7,192.6 144.0,183.2 C149.3,173.8 154.7,138.2 160.0,128.7 C165.3,119.1 170.7,126.5 176.0,125.9 C181.3,125.3 186.7,125.3 192.0,125.1 C197.3,124.9 202.7,124.9 208.0,124.7 C213.3,124.6 218.7,124.5 224.0,124.2 C229.3,123.9 234.7,123.3 240.0,122.6 C245.3,122.0 250.7,120.6 256.0,120.1 C261.3,119.5 266.7,119.6 272.0,119.4 C277.3,119.2 282.7,119.4 288.0,118.9 C293.3,118.3 298.7,116.7 304.0,115.9 C309.3,115.2 314.7,115.0 320.0,114.6 C325.3,114.1 330.7,113.8 336.0,113.4 C341.3,112.9 346.7,112.9 352.0,112.0 C357.3,111.1 362.7,108.8 368.0,107.9 C373.3,106.9 378.7,106.7 384.0,106.3 C389.3,105.9 394.7,105.5 400.0,105.3 C405.3,105.1 410.7,105.7 416.0,105.1 C421.3,104.5 426.7,102.7 432.0,101.8 C437.3,101.0 442.7,100.7 448.0,100.1 C453.3,99.5 458.7,99.3 464.0,98.4 C469.3,97.5 474.7,95.4 480.0,94.4 C485.3,93.5 490.7,93.1 496.0,92.5 C501.3,92.0 506.7,91.7 512.0,91.3 C517.3,91.0 522.7,91.0 528.0,90.5 C533.3,89.9 538.7,88.7 544.0,88.1 C549.3,87.4 554.7,87.1 560.0,86.7 C565.3,86.3 570.7,86.0 576.0,85.7 C581.3,85.4 586.7,85.2 592.0,85.0 C597.3,84.7 602.7,84.3 608.0,84.1 C613.3,84.0 618.7,84.1 624.0,84.1 C629.3,84.1 637.3,84.1 640.0,84.1" fill="none" class="line-openvsx" stroke-width="1.8" stroke-linecap="round" stroke-linejoin="round"/>
  <path d="M48.0,219.9 C50.7,219.9 58.7,219.9 64.0,219.7 C69.3,219.6 74.7,219.3 80.0,219.0 C85.3,218.7 90.7,218.2 96.0,217.9 C101.3,217.7 106.7,217.7 112.0,217.6 C117.3,217.4 122.7,217.2 128.0,217.1 C133.3,216.9 138.7,217.5 144.0,216.6 C149.3,215.6 154.7,212.2 160.0,211.3 C165.3,210.4 170.7,211.1 176.0,211.0 C181.3,210.9 186.7,210.8 192.0,210.7 C197.3,210.6 202.7,210.5 208.0,210.5 C213.3,210.4 218.7,210.4 224.0,210.4 C229.3,210.4 234.7,210.4 240.0,210.4 C245.3,210.4 250.7,210.5 256.0,210.4 C261.3,210.3 266.7,209.9 272.0,209.8 C277.3,209.6 282.7,209.6 288.0,209.6 C293.3,209.6 298.7,209.6 304.0,209.5 C309.3,209.5 314.7,209.4 320.0,209.3 C325.3,209.3 330.7,209.3 336.0,209.3 C341.3,209.2 346.7,209.3 352.0,209.3 C357.3,209.2 362.7,209.2 368.0,209.2 C373.3,209.1 378.7,209.1 384.0,209.1 C389.3,209.1 394.7,209.1 400.0,209.1 C405.3,209.1 410.7,209.0 416.0,209.0 C421.3,208.9 426.7,208.9 432.0,208.8 C437.3,208.8 442.7,208.7 448.0,208.6 C453.3,208.5 458.7,208.3 464.0,208.2 C469.3,208.1 474.7,208.0 480.0,208.0 C485.3,207.9 490.7,207.8 496.0,207.8 C501.3,207.7 506.7,207.7 512.0,207.7 C517.3,207.7 522.7,207.6 528.0,207.5 C533.3,207.5 538.7,207.3 544.0,207.3 C549.3,207.2 554.7,207.2 560.0,207.1 C565.3,207.0 570.7,207.0 576.0,206.9 C581.3,206.9 586.7,206.7 592.0,206.7 C597.3,206.6 602.7,206.6 608.0,206.5 C613.3,206.4 618.7,206.3 624.0,206.2 C629.3,206.2 637.3,206.2 640.0,206.2" fill="none" class="line-vscode" stroke-width="1.8" stroke-linecap="round" stroke-linejoin="round"/>
  <path d="M48.0,219.7 C50.7,217.6 58.7,210.5 64.0,207.5 C69.3,204.5 74.7,203.6 80.0,201.6 C85.3,199.6 90.7,196.6 96.0,195.6 C101.3,194.5 106.7,197.4 112.0,195.2 C117.3,193.0 122.7,184.9 128.0,182.3 C133.3,179.8 138.7,190.1 144.0,179.8 C149.3,169.4 154.7,130.5 160.0,120.0 C165.3,109.5 170.7,117.6 176.0,116.9 C181.3,116.2 186.7,116.1 192.0,115.8 C197.3,115.5 202.7,115.4 208.0,115.2 C213.3,115.0 218.7,114.9 224.0,114.6 C229.3,114.2 234.7,113.7 240.0,113.0 C245.3,112.3 250.7,111.1 256.0,110.4 C261.3,109.8 266.7,109.5 272.0,109.1 C277.3,108.8 282.7,109.1 288.0,108.5 C293.3,107.8 298.7,106.2 304.0,105.4 C309.3,104.7 314.7,104.4 320.0,103.9 C325.3,103.4 330.7,103.1 336.0,102.6 C341.3,102.2 346.7,102.2 352.0,101.2 C357.3,100.3 362.7,98.0 368.0,97.0 C373.3,96.0 378.7,95.8 384.0,95.4 C389.3,94.9 394.7,94.6 400.0,94.4 C405.3,94.1 410.7,94.7 416.0,94.1 C421.3,93.5 426.7,91.5 432.0,90.7 C437.3,89.8 442.7,89.4 448.0,88.8 C453.3,88.1 458.7,87.7 464.0,86.6 C469.3,85.6 474.7,83.4 480.0,82.4 C485.3,81.4 490.7,80.9 496.0,80.3 C501.3,79.8 506.7,79.4 512.0,79.0 C517.3,78.7 522.7,78.6 528.0,78.0 C533.3,77.4 538.7,76.1 544.0,75.3 C549.3,74.6 554.7,74.3 560.0,73.8 C565.3,73.3 570.7,73.0 576.0,72.6 C581.3,72.2 586.7,72.0 592.0,71.7 C597.3,71.3 602.7,70.8 608.0,70.6 C613.3,70.4 618.7,70.4 624.0,70.4 C629.3,70.3 637.3,70.3 640.0,70.3" fill="none" class="line-total" stroke-width="2.5" stroke-linecap="round" stroke-linejoin="round"/>

  <circle cx="640" cy="70.274" r="4.5" class="dot-total" stroke-width="2"/>
    <text x="658" y="74.274" class="end-label" font-family="-apple-system, BlinkMacSystemFont, 'Segoe UI', Helvetica, sans-serif">Total</text>
    <text x="697" y="74.274" class="end-value" font-family="-apple-system, BlinkMacSystemFont, 'Segoe UI', Helvetica, sans-serif">1.7k</text>
    <circle cx="640" cy="84.12" r="3.5" class="dot-openvsx" stroke-width="1.8"/>
    <text x="658" y="92.274" class="end-label" font-family="-apple-system, BlinkMacSystemFont, 'Segoe UI', Helvetica, sans-serif">Open VSX</text>
    <text x="716.8" y="92.274" class="end-value" font-family="-apple-system, BlinkMacSystemFont, 'Segoe UI', Helvetica, sans-serif">1.6k</text>
    <circle cx="640" cy="206.154" r="3.5" class="dot-vscode" stroke-width="1.8"/>
    <text x="658" y="210.154" class="end-label" font-family="-apple-system, BlinkMacSystemFont, 'Segoe UI', Helvetica, sans-serif">VS Code</text>
    <text x="710.2" y="210.154" class="end-value" font-family="-apple-system, BlinkMacSystemFont, 'Segoe UI', Helvetica, sans-serif">161</text>
</svg>