<svg xmlns="http://www.w3.org/2000/svg" viewBox="0 0 760 260" width="760" height="260" role="img" aria-label="Glassy install history">
  <style>
  svg { color-scheme: light dark; }
  .title      { fill: #1a1a2e; font-size: 15px; font-weight: 600; }
  .subtitle   { fill: #6b7280; font-size: 11px; font-weight: 400; }
  .grid       { stroke: #e8e8ee; }
  .axis-label { fill: #8a8a9a; font-size: 10px; }
  .line-total   { stroke: #e8553d; }
  .line-vscode  { stroke: #5b7cfa; }
  .line-openvsx { stroke: #34c7a0; }
  .dot-total   { fill: transparent; stroke: #e8553d; }
  .dot-vscode  { fill: transparent; stroke: #5b7cfa; }
  .dot-openvsx { fill: transparent; stroke: #34c7a0; }
  .end-label       { fill: #1a1a2e; font-size: 11px; font-weight: 600; }
  .end-value       { fill: #6b7280; font-size: 11px; font-weight: 400; }
  .area-total-top    { stop-color: #e8553d; }
  .area-total-bottom { stop-color: #e8553d; }

  @media (prefers-color-scheme: dark) {
    .title      { fill: #e2e2e8; }
    .subtitle   { fill: #8b949e; }
    .grid       { stroke: #2d2d3d; }
    .axis-label { fill: #6e7681; }
    .line-total   { stroke: #ff9b85; }
    .line-vscode  { stroke: #8da4ff; }
    .line-openvsx { stroke: #5eead4; }
    .dot-total   { stroke: #ff9b85; }
    .dot-vscode  { stroke: #8da4ff; }
    .dot-openvsx { stroke: #5eead4; }
    .end-label       { fill: #e2e2e8; }
    .end-value       { fill: #8b949e; }
    .area-total-top    { stop-color: #ff9b85; }
    .area-total-bottom { stop-color: #ff9b85; }
  }
</style>
  <defs>
    <linearGradient id="areaGrad" x1="0" y1="0" x2="0" y2="1">
      <stop offset="0%" class="area-total-top" stop-opacity="0.18"/>
      <stop offset="60%" class="area-total-bottom" stop-opacity="0.04"/>
      <stop offset="100%" class="area-total-bottom" stop-opacity="0"/>
    </linearGradient>
  </defs>

  <text x="48" y="22" class="title" font-family="-apple-system, BlinkMacSystemFont, 'Segoe UI', Helvetica, sans-serif">Installs</text>
  <text x="48" y="37" class="subtitle" font-family="-apple-system, BlinkMacSystemFont, 'Segoe UI', Helvetica, sans-serif">Updated Jul 15</text>

  <line x1="48" y1="220" x2="640" y2="220" class="grid" stroke-width="0.7"/>
    <text x="40" y="223.5" class="axis-label" text-anchor="end" font-family="-apple-system, BlinkMacSystemFont, 'Segoe UI', Helvetica, sans-serif">0</text>
    <line x1="48" y1="162.66666666666669" x2="640" y2="162.66666666666669" class="grid" stroke-width="0.7"/>
    <text x="40" y="166.16666666666669" class="axis-label" text-anchor="end" font-family="-apple-system, BlinkMacSystemFont, 'Segoe UI', Helvetica, sans-serif">1k</text>
    <line x1="48" y1="105.33333333333334" x2="640" y2="105.33333333333334" class="grid" stroke-width="0.7"/>
    <text x="40" y="108.83333333333334" class="axis-label" text-anchor="end" font-family="-apple-system, BlinkMacSystemFont, 'Segoe UI', Helvetica, sans-serif">2k</text>
    <line x1="48" y1="48" x2="640" y2="48" class="grid" stroke-width="0.7"/>
    <text x="40" y="51.5" class="axis-label" text-anchor="end" font-family="-apple-system, BlinkMacSystemFont, 'Segoe UI', Helvetica, sans-serif">3k</text>
  <text x="48" y="248" class="axis-label" text-anchor="middle" font-family="-apple-system, BlinkMacSystemFont, 'Segoe UI', Helvetica, sans-serif">Mar 27</text>
    <text x="164.93827160493828" y="248" class="axis-label" text-anchor="middle" font-family="-apple-system, BlinkMacSystemFont, 'Segoe UI', Helvetica, sans-serif">May 11</text>
    <text x="281.87654320987656" y="248" class="axis-label" text-anchor="middle" font-family="-apple-system, BlinkMacSystemFont, 'Segoe UI', Helvetica, sans-serif">May 27</text>
    <text x="406.12345679012344" y="248" class="axis-label" text-anchor="middle" font-family="-apple-system, BlinkMacSystemFont, 'Segoe UI', Helvetica, sans-serif">Jun 13</text>
    <text x="523.0617283950617" y="248" class="axis-label" text-anchor="middle" font-family="-apple-system, BlinkMacSystemFont, 'Segoe UI', Helvetica, sans-serif">Jun 29</text>
    <text x="640" y="248" class="axis-label" text-anchor="middle" font-family="-apple-system, BlinkMacSystemFont, 'Segoe UI', Helvetica, sans-serif">Jul 15</text>

  <path d="M48.0,219.8 C49.2,218.4 52.9,213.7 55.3,211.7 C57.7,209.7 60.2,209.1 62.6,207.7 C65.1,206.4 67.5,204.4 69.9,203.7 C72.4,203.0 74.8,205.0 77.2,203.5 C79.7,202.0 82.1,196.6 84.5,194.9 C87.0,193.2 89.4,200.1 91.9,193.2 C94.3,186.2 96.7,160.3 99.2,153.3 C101.6,146.3 104.0,151.7 106.5,151.3 C108.9,150.8 111.3,150.7 113.8,150.5 C116.2,150.3 118.7,150.2 121.1,150.1 C123.5,150.0 126.0,149.9 128.4,149.7 C130.8,149.5 133.3,149.1 135.7,148.7 C138.1,148.2 140.6,147.4 143.0,147.0 C145.4,146.5 147.9,146.3 150.3,146.1 C152.8,145.9 155.2,146.0 157.6,145.6 C160.1,145.2 162.5,144.1 164.9,143.6 C167.4,143.1 169.8,142.9 172.2,142.6 C174.7,142.3 177.1,142.0 179.6,141.7 C182.0,141.4 184.4,141.4 186.9,140.8 C189.3,140.2 191.7,138.7 194.2,138.0 C196.6,137.4 199.0,137.2 201.5,136.9 C203.9,136.6 206.4,136.4 208.8,136.2 C211.2,136.1 213.7,136.5 216.1,136.1 C218.5,135.7 221.0,134.4 223.4,133.8 C225.8,133.2 228.3,133.0 230.7,132.5 C233.2,132.1 235.6,131.8 238.0,131.1 C240.5,130.4 242.9,129.0 245.3,128.3 C247.8,127.6 250.2,127.3 252.6,126.9 C255.1,126.5 257.5,126.3 260.0,126.0 C262.4,125.8 264.8,125.8 267.3,125.3 C269.7,124.9 272.1,124.0 274.6,123.6 C277.0,123.1 279.4,122.8 281.9,122.5 C284.3,122.2 286.7,122.0 289.2,121.7 C291.6,121.5 294.1,121.3 296.5,121.1 C298.9,120.9 301.4,120.6 303.8,120.4 C306.2,120.3 308.7,120.3 311.1,120.2 C313.5,120.2 316.0,121.0 318.4,120.2 C320.9,119.4 323.3,116.5 325.7,115.5 C328.2,114.5 330.6,114.6 333.0,114.2 C335.5,113.7 337.9,113.3 340.3,112.8 C342.8,112.4 345.2,111.9 347.7,111.6 C350.1,111.3 352.5,111.2 355.0,111.0 C357.4,110.8 359.8,110.4 362.3,110.2 C364.7,110.0 367.1,110.1 369.6,109.7 C372.0,109.4 374.5,108.6 376.9,108.1 C379.3,107.7 381.8,107.6 384.2,107.2 C386.6,106.9 389.1,106.4 391.5,106.2 C393.9,105.9 396.4,106.0 398.8,105.7 C401.3,105.5 403.7,104.8 406.1,104.5 C408.6,104.2 411.0,104.2 413.4,104.0 C415.9,103.7 418.3,103.5 420.7,103.2 C423.2,102.9 425.6,102.5 428.0,102.2 C430.5,101.9 432.9,101.5 435.4,101.2 C437.8,100.9 440.2,100.8 442.7,100.3 C445.1,99.9 447.5,99.2 450.0,98.7 C452.4,98.3 454.8,98.1 457.3,97.7 C459.7,97.4 462.2,97.0 464.6,96.6 C467.0,96.3 469.5,95.9 471.9,95.5 C474.3,95.2 476.8,94.8 479.2,94.6 C481.6,94.3 484.1,94.2 486.5,93.8 C489.0,93.4 491.4,92.9 493.8,92.4 C496.3,91.9 498.7,91.2 501.1,90.8 C503.6,90.5 506.0,90.5 508.4,90.3 C510.9,90.1 513.3,90.0 515.8,89.8 C518.2,89.6 520.6,89.3 523.1,88.9 C525.5,88.6 527.9,88.2 530.4,87.9 C532.8,87.6 535.2,87.3 537.7,86.9 C540.1,86.6 542.6,86.2 545.0,85.8 C547.4,85.5 549.9,85.3 552.3,85.0 C554.7,84.6 557.2,84.0 559.6,83.7 C562.0,83.3 564.5,83.0 566.9,82.8 C569.3,82.6 571.8,82.6 574.2,82.4 C576.7,82.2 579.1,81.9 581.5,81.8 C584.0,81.6 586.4,81.6 588.8,81.4 C591.3,81.2 593.7,80.9 596.1,80.6 C598.6,80.4 601.0,80.0 603.5,79.8 C605.9,79.5 608.3,79.3 610.8,79.1 C613.2,78.9 615.6,78.8 618.1,78.5 C620.5,78.2 622.9,77.5 625.4,77.2 C627.8,76.9 630.3,76.8 632.7,76.6 C635.1,76.3 638.8,75.7 640.0,75.6 L640.0,220.0 L48.0,220.0 Z" fill="url(#areaGrad)"/>
  <path d="M48.0,219.8 C49.2,218.5 52.9,213.8 55.3,211.9 C57.7,210.0 60.2,209.5 62.6,208.4 C65.1,207.3 67.5,205.6 69.9,205.1 C72.4,204.5 74.8,206.5 77.2,205.1 C79.7,203.7 82.1,198.4 84.5,196.8 C87.0,195.2 89.4,201.7 91.9,195.5 C94.3,189.2 96.7,165.5 99.2,159.1 C101.6,152.7 104.0,157.7 106.5,157.3 C108.9,156.9 111.3,156.8 113.8,156.7 C116.2,156.6 118.7,156.6 121.1,156.5 C123.5,156.4 126.0,156.4 128.4,156.1 C130.8,155.9 133.3,155.6 135.7,155.1 C138.1,154.6 140.6,153.7 143.0,153.4 C145.4,153.0 147.9,153.1 150.3,152.9 C152.8,152.8 155.2,153.0 157.6,152.6 C160.1,152.2 162.5,151.1 164.9,150.6 C167.4,150.1 169.8,150.0 172.2,149.7 C174.7,149.4 177.1,149.2 179.6,148.9 C182.0,148.6 184.4,148.6 186.9,148.0 C189.3,147.4 191.7,145.9 194.2,145.2 C196.6,144.6 199.0,144.5 201.5,144.2 C203.9,143.9 206.4,143.7 208.8,143.5 C211.2,143.4 213.7,143.8 216.1,143.4 C218.5,143.0 221.0,141.8 223.4,141.2 C225.8,140.7 228.3,140.5 230.7,140.1 C233.2,139.7 235.6,139.6 238.0,138.9 C240.5,138.3 242.9,136.9 245.3,136.3 C247.8,135.6 250.2,135.4 252.6,135.0 C255.1,134.7 257.5,134.5 260.0,134.2 C262.4,134.0 264.8,134.0 267.3,133.7 C269.7,133.3 272.1,132.5 274.6,132.1 C277.0,131.6 279.4,131.4 281.9,131.1 C284.3,130.9 286.7,130.6 289.2,130.4 C291.6,130.3 294.1,130.2 296.5,130.0 C298.9,129.8 301.4,129.5 303.8,129.4 C306.2,129.3 308.7,129.4 311.1,129.4 C313.5,129.4 316.0,130.2 318.4,129.4 C320.9,128.7 323.3,125.9 325.7,124.9 C328.2,124.0 330.6,124.0 333.0,123.6 C335.5,123.1 337.9,122.7 340.3,122.3 C342.8,121.9 345.2,121.3 347.7,121.0 C350.1,120.7 352.5,120.7 355.0,120.5 C357.4,120.2 359.8,119.9 362.3,119.7 C364.7,119.5 367.1,119.6 369.6,119.2 C372.0,118.9 374.5,118.0 376.9,117.6 C379.3,117.2 381.8,117.0 384.2,116.7 C386.6,116.4 389.1,115.9 391.5,115.7 C393.9,115.4 396.4,115.5 398.8,115.2 C401.3,114.9 403.7,114.3 406.1,114.0 C408.6,113.8 411.0,113.8 413.4,113.6 C415.9,113.4 418.3,113.2 420.7,112.9 C423.2,112.6 425.6,112.3 428.0,112.0 C430.5,111.7 432.9,111.4 435.4,111.1 C437.8,110.8 440.2,110.6 442.7,110.3 C445.1,109.9 447.5,109.2 450.0,108.8 C452.4,108.4 454.8,108.2 457.3,107.9 C459.7,107.5 462.2,107.2 464.6,106.8 C467.0,106.5 469.5,106.1 471.9,105.8 C474.3,105.5 476.8,105.1 479.2,104.9 C481.6,104.6 484.1,104.5 486.5,104.2 C489.0,103.8 491.4,103.3 493.8,102.8 C496.3,102.3 498.7,101.6 501.1,101.3 C503.6,101.0 506.0,101.0 508.4,100.9 C510.9,100.7 513.3,100.6 515.8,100.4 C518.2,100.2 520.6,99.9 523.1,99.6 C525.5,99.3 527.9,99.0 530.4,98.7 C532.8,98.4 535.2,98.1 537.7,97.8 C540.1,97.4 542.6,97.0 545.0,96.7 C547.4,96.4 549.9,96.2 552.3,95.9 C554.7,95.6 557.2,95.3 559.6,95.0 C562.0,94.7 564.5,94.4 566.9,94.2 C569.3,94.0 571.8,94.0 574.2,93.9 C576.7,93.7 579.1,93.4 581.5,93.3 C584.0,93.1 586.4,93.1 588.8,92.9 C591.3,92.8 593.7,92.5 596.1,92.3 C598.6,92.0 601.0,91.7 603.5,91.5 C605.9,91.2 608.3,91.0 610.8,90.8 C613.2,90.6 615.6,90.6 618.1,90.3 C620.5,90.0 622.9,89.4 625.4,89.1 C627.8,88.7 630.3,88.7 632.7,88.5 C635.1,88.2 638.8,87.7 640.0,87.6" fill="none" class="line-openvsx" stroke-width="1.8" stroke-linecap="round" stroke-linejoin="round"/>
  <path d="M48.0,219.9 C49.2,219.9 52.9,219.9 55.3,219.8 C57.7,219.7 60.2,219.5 62.6,219.3 C65.1,219.1 67.5,218.8 69.9,218.6 C72.4,218.5 74.8,218.5 77.2,218.4 C79.7,218.3 82.1,218.2 84.5,218.1 C87.0,217.9 89.4,218.3 91.9,217.7 C94.3,217.1 96.7,214.8 99.2,214.2 C101.6,213.6 104.0,214.0 106.5,214.0 C108.9,213.9 111.3,213.9 113.8,213.8 C116.2,213.8 118.7,213.7 121.1,213.6 C123.5,213.6 126.0,213.6 128.4,213.6 C130.8,213.6 133.3,213.6 135.7,213.6 C138.1,213.6 140.6,213.6 143.0,213.6 C145.4,213.5 147.9,213.3 150.3,213.2 C152.8,213.1 155.2,213.1 157.6,213.1 C160.1,213.0 162.5,213.0 164.9,213.0 C167.4,213.0 169.8,212.9 172.2,212.9 C174.7,212.9 177.1,212.8 179.6,212.8 C182.0,212.8 184.4,212.8 186.9,212.8 C189.3,212.8 191.7,212.8 194.2,212.8 C196.6,212.8 199.0,212.7 201.5,212.7 C203.9,212.7 206.4,212.7 208.8,212.7 C211.2,212.7 213.7,212.7 216.1,212.7 C218.5,212.6 221.0,212.6 223.4,212.5 C225.8,212.5 228.3,212.5 230.7,212.4 C233.2,212.4 235.6,212.2 238.0,212.1 C240.5,212.1 242.9,212.0 245.3,212.0 C247.8,211.9 250.2,211.9 252.6,211.9 C255.1,211.8 257.5,211.8 260.0,211.8 C262.4,211.8 264.8,211.7 267.3,211.7 C269.7,211.6 272.1,211.6 274.6,211.5 C277.0,211.5 279.4,211.4 281.9,211.4 C284.3,211.4 286.7,211.3 289.2,211.3 C291.6,211.2 294.1,211.2 296.5,211.1 C298.9,211.1 301.4,211.0 303.8,211.0 C306.2,211.0 308.7,210.9 311.1,210.8 C313.5,210.8 316.0,210.8 318.4,210.8 C320.9,210.7 323.3,210.6 325.7,210.6 C328.2,210.6 330.6,210.6 333.0,210.6 C335.5,210.6 337.9,210.5 340.3,210.5 C342.8,210.5 345.2,210.5 347.7,210.5 C350.1,210.5 352.5,210.5 355.0,210.5 C357.4,210.5 359.8,210.5 362.3,210.5 C364.7,210.5 367.1,210.5 369.6,210.5 C372.0,210.5 374.5,210.5 376.9,210.5 C379.3,210.5 381.8,210.5 384.2,210.5 C386.6,210.5 389.1,210.5 391.5,210.5 C393.9,210.5 396.4,210.5 398.8,210.5 C401.3,210.5 403.7,210.5 406.1,210.5 C408.6,210.5 411.0,210.4 413.4,210.4 C415.9,210.3 418.3,210.3 420.7,210.3 C423.2,210.2 425.6,210.2 428.0,210.2 C430.5,210.2 432.9,210.2 435.4,210.1 C437.8,210.1 440.2,210.1 442.7,210.1 C445.1,210.1 447.5,210.0 450.0,210.0 C452.4,209.9 454.8,209.9 457.3,209.9 C459.7,209.8 462.2,209.8 464.6,209.8 C467.0,209.8 469.5,209.8 471.9,209.7 C474.3,209.7 476.8,209.7 479.2,209.7 C481.6,209.7 484.1,209.6 486.5,209.6 C489.0,209.6 491.4,209.6 493.8,209.6 C496.3,209.5 498.7,209.5 501.1,209.5 C503.6,209.5 506.0,209.5 508.4,209.5 C510.9,209.4 513.3,209.4 515.8,209.4 C518.2,209.4 520.6,209.4 523.1,209.3 C525.5,209.3 527.9,209.3 530.4,209.2 C532.8,209.2 535.2,209.2 537.7,209.2 C540.1,209.1 542.6,209.1 545.0,209.1 C547.4,209.1 549.9,209.1 552.3,209.0 C554.7,209.0 557.2,208.7 559.6,208.6 C562.0,208.6 564.5,208.6 566.9,208.6 C569.3,208.6 571.8,208.6 574.2,208.5 C576.7,208.5 579.1,208.5 581.5,208.5 C584.0,208.5 586.4,208.4 588.8,208.4 C591.3,208.4 593.7,208.4 596.1,208.4 C598.6,208.3 601.0,208.3 603.5,208.3 C605.9,208.3 608.3,208.3 610.8,208.3 C613.2,208.3 615.6,208.2 618.1,208.2 C620.5,208.2 622.9,208.2 625.4,208.1 C627.8,208.1 630.3,208.1 632.7,208.1 C635.1,208.1 638.8,208.0 640.0,208.0" fill="none" class="line-vscode" stroke-width="1.8" stroke-linecap="round" stroke-linejoin="round"/>
  <path d="M48.0,219.8 C49.2,218.4 52.9,213.7 55.3,211.7 C57.7,209.7 60.2,209.1 62.6,207.7 C65.1,206.4 67.5,204.4 69.9,203.7 C72.4,203.0 74.8,205.0 77.2,203.5 C79.7,202.0 82.1,196.6 84.5,194.9 C87.0,193.2 89.4,200.1 91.9,193.2 C94.3,186.2 96.7,160.3 99.2,153.3 C101.6,146.3 104.0,151.7 106.5,151.3 C108.9,150.8 111.3,150.7 113.8,150.5 C116.2,150.3 118.7,150.2 121.1,150.1 C123.5,150.0 126.0,149.9 128.4,149.7 C130.8,149.5 133.3,149.1 135.7,148.7 C138.1,148.2 140.6,147.4 143.0,147.0 C145.4,146.5 147.9,146.3 150.3,146.1 C152.8,145.9 155.2,146.0 157.6,145.6 C160.1,145.2 162.5,144.1 164.9,143.6 C167.4,143.1 169.8,142.9 172.2,142.6 C174.7,142.3 177.1,142.0 179.6,141.7 C182.0,141.4 184.4,141.4 186.9,140.8 C189.3,140.2 191.7,138.7 194.2,138.0 C196.6,137.4 199.0,137.2 201.5,136.9 C203.9,136.6 206.4,136.4 208.8,136.2 C211.2,136.1 213.7,136.5 216.1,136.1 C218.5,135.7 221.0,134.4 223.4,133.8 C225.8,133.2 228.3,133.0 230.7,132.5 C233.2,132.1 235.6,131.8 238.0,131.1 C240.5,130.4 242.9,129.0 245.3,128.3 C247.8,127.6 250.2,127.3 252.6,126.9 C255.1,126.5 257.5,126.3 260.0,126.0 C262.4,125.8 264.8,125.8 267.3,125.3 C269.7,124.9 272.1,124.0 274.6,123.6 C277.0,123.1 279.4,122.8 281.9,122.5 C284.3,122.2 286.7,122.0 289.2,121.7 C291.6,121.5 294.1,121.3 296.5,121.1 C298.9,120.9 301.4,120.6 303.8,120.4 C306.2,120.3 308.7,120.3 311.1,120.2 C313.5,120.2 316.0,121.0 318.4,120.2 C320.9,119.4 323.3,116.5 325.7,115.5 C328.2,114.5 330.6,114.6 333.0,114.2 C335.5,113.7 337.9,113.3 340.3,112.8 C342.8,112.4 345.2,111.9 347.7,111.6 C350.1,111.3 352.5,111.2 355.0,111.0 C357.4,110.8 359.8,110.4 362.3,110.2 C364.7,110.0 367.1,110.1 369.6,109.7 C372.0,109.4 374.5,108.6 376.9,108.1 C379.3,107.7 381.8,107.6 384.2,107.2 C386.6,106.9 389.1,106.4 391.5,106.2 C393.9,105.9 396.4,106.0 398.8,105.7 C401.3,105.5 403.7,104.8 406.1,104.5 C408.6,104.2 411.0,104.2 413.4,104.0 C415.9,103.7 418.3,103.5 420.7,103.2 C423.2,102.9 425.6,102.5 428.0,102.2 C430.5,101.9 432.9,101.5 435.4,101.2 C437.8,100.9 440.2,100.8 442.7,100.3 C445.1,99.9 447.5,99.2 450.0,98.7 C452.4,98.3 454.8,98.1 457.3,97.7 C459.7,97.4 462.2,97.0 464.6,96.6 C467.0,96.3 469.5,95.9 471.9,95.5 C474.3,95.2 476.8,94.8 479.2,94.6 C481.6,94.3 484.1,94.2 486.5,93.8 C489.0,93.4 491.4,92.9 493.8,92.4 C496.3,91.9 498.7,91.2 501.1,90.8 C503.6,90.5 506.0,90.5 508.4,90.3 C510.9,90.1 513.3,90.0 515.8,89.8 C518.2,89.6 520.6,89.3 523.1,88.9 C525.5,88.6 527.9,88.2 530.4,87.9 C532.8,87.6 535.2,87.3 537.7,86.9 C540.1,86.6 542.6,86.2 545.0,85.8 C547.4,85.5 549.9,85.3 552.3,85.0 C554.7,84.6 557.2,84.0 559.6,83.7 C562.0,83.3 564.5,83.0 566.9,82.8 C569.3,82.6 571.8,82.6 574.2,82.4 C576.7,82.2 579.1,81.9 581.5,81.8 C584.0,81.6 586.4,81.6 588.8,81.4 C591.3,81.2 593.7,80.9 596.1,80.6 C598.6,80.4 601.0,80.0 603.5,79.8 C605.9,79.5 608.3,79.3 610.8,79.1 C613.2,78.9 615.6,78.8 618.1,78.5 C620.5,78.2 622.9,77.5 625.4,77.2 C627.8,76.9 630.3,76.8 632.7,76.6 C635.1,76.3 638.8,75.7 640.0,75.6" fill="none" class="line-total" stroke-width="2.5" stroke-linecap="round" stroke-linejoin="round"/>

  <circle cx="640" cy="75.57733333333334" r="4.5" class="dot-total" stroke-width="2"/>
    <text x="658" y="79.57733333333334" class="end-label" font-family="-apple-system, BlinkMacSystemFont, 'Segoe UI', Helvetica, sans-serif">Total</text>
    <text x="697" y="79.57733333333334" class="end-value" font-family="-apple-system, BlinkMacSystemFont, 'Segoe UI', Helvetica, sans-serif">2.5k</text>
    <circle cx="640" cy="87.56" r="3.5" class="dot-openvsx" stroke-width="1.8"/>
    <text x="658" y="97.57733333333334" class="end-label" font-family="-apple-system, BlinkMacSystemFont, 'Segoe UI', Helvetica, sans-serif">Open VSX</text>
    <text x="716.8" y="97.57733333333334" class="end-value" font-family="-apple-system, BlinkMacSystemFont, 'Segoe UI', Helvetica, sans-serif">2.3k</text>
    <circle cx="640" cy="208.01733333333334" r="3.5" class="dot-vscode" stroke-width="1.8"/>
    <text x="658" y="212.01733333333334" class="end-label" font-family="-apple-system, BlinkMacSystemFont, 'Segoe UI', Helvetica, sans-serif">VS Code</text>
    <text x="710.2" y="212.01733333333334" class="end-value" font-family="-apple-system, BlinkMacSystemFont, 'Segoe UI', Helvetica, sans-serif">209</text>
</svg>