<svg xmlns="http://www.w3.org/2000/svg" viewBox="0 0 760 260" width="760" height="260" role="img" aria-label="Glassy install history">
  <style>
  svg { color-scheme: light dark; }
  .title      { fill: #1a1a2e; font-size: 15px; font-weight: 600; }
  .subtitle   { fill: #6b7280; font-size: 11px; font-weight: 400; }
  .grid       { stroke: #e8e8ee; }
  .axis-label { fill: #8a8a9a; font-size: 10px; }
  .line-total   { stroke: #e8553d; }
  .line-vscode  { stroke: #5b7cfa; }
  .line-openvsx { stroke: #34c7a0; }
  .dot-total   { fill: transparent; stroke: #e8553d; }
  .dot-vscode  { fill: transparent; stroke: #5b7cfa; }
  .dot-openvsx { fill: transparent; stroke: #34c7a0; }
  .end-label       { fill: #1a1a2e; font-size: 11px; font-weight: 600; }
  .end-value       { fill: #6b7280; font-size: 11px; font-weight: 400; }
  .area-total-top    { stop-color: #e8553d; }
  .area-total-bottom { stop-color: #e8553d; }

  @media (prefers-color-scheme: dark) {
    .title      { fill: #e2e2e8; }
    .subtitle   { fill: #8b949e; }
    .grid       { stroke: #2d2d3d; }
    .axis-label { fill: #6e7681; }
    .line-total   { stroke: #ff9b85; }
    .line-vscode  { stroke: #8da4ff; }
    .line-openvsx { stroke: #5eead4; }
    .dot-total   { stroke: #ff9b85; }
    .dot-vscode  { stroke: #8da4ff; }
    .dot-openvsx { stroke: #5eead4; }
    .end-label       { fill: #e2e2e8; }
    .end-value       { fill: #8b949e; }
    .area-total-top    { stop-color: #ff9b85; }
    .area-total-bottom { stop-color: #ff9b85; }
  }
</style>
  <defs>
    <linearGradient id="areaGrad" x1="0" y1="0" x2="0" y2="1">
      <stop offset="0%" class="area-total-top" stop-opacity="0.18"/>
      <stop offset="60%" class="area-total-bottom" stop-opacity="0.04"/>
      <stop offset="100%" class="area-total-bottom" stop-opacity="0"/>
    </linearGradient>
  </defs>

  <text x="48" y="22" class="title" font-family="-apple-system, BlinkMacSystemFont, 'Segoe UI', Helvetica, sans-serif">Installs</text>
  <text x="48" y="37" class="subtitle" font-family="-apple-system, BlinkMacSystemFont, 'Segoe UI', Helvetica, sans-serif">Updated Jul 1</text>

  <line x1="48" y1="220" x2="640" y2="220" class="grid" stroke-width="0.7"/>
    <text x="40" y="223.5" class="axis-label" text-anchor="end" font-family="-apple-system, BlinkMacSystemFont, 'Segoe UI', Helvetica, sans-serif">0</text>
    <line x1="48" y1="162.66666666666669" x2="640" y2="162.66666666666669" class="grid" stroke-width="0.7"/>
    <text x="40" y="166.16666666666669" class="axis-label" text-anchor="end" font-family="-apple-system, BlinkMacSystemFont, 'Segoe UI', Helvetica, sans-serif">1k</text>
    <line x1="48" y1="105.33333333333334" x2="640" y2="105.33333333333334" class="grid" stroke-width="0.7"/>
    <text x="40" y="108.83333333333334" class="axis-label" text-anchor="end" font-family="-apple-system, BlinkMacSystemFont, 'Segoe UI', Helvetica, sans-serif">2k</text>
    <line x1="48" y1="48" x2="640" y2="48" class="grid" stroke-width="0.7"/>
    <text x="40" y="51.5" class="axis-label" text-anchor="end" font-family="-apple-system, BlinkMacSystemFont, 'Segoe UI', Helvetica, sans-serif">3k</text>
  <text x="48" y="248" class="axis-label" text-anchor="middle" font-family="-apple-system, BlinkMacSystemFont, 'Segoe UI', Helvetica, sans-serif">Mar 27</text>
    <text x="162.86567164179104" y="248" class="axis-label" text-anchor="middle" font-family="-apple-system, BlinkMacSystemFont, 'Segoe UI', Helvetica, sans-serif">May 8</text>
    <text x="286.56716417910445" y="248" class="axis-label" text-anchor="middle" font-family="-apple-system, BlinkMacSystemFont, 'Segoe UI', Helvetica, sans-serif">May 22</text>
    <text x="401.4328358208955" y="248" class="axis-label" text-anchor="middle" font-family="-apple-system, BlinkMacSystemFont, 'Segoe UI', Helvetica, sans-serif">Jun 4</text>
    <text x="525.1343283582089" y="248" class="axis-label" text-anchor="middle" font-family="-apple-system, BlinkMacSystemFont, 'Segoe UI', Helvetica, sans-serif">Jun 18</text>
    <text x="640" y="248" class="axis-label" text-anchor="middle" font-family="-apple-system, BlinkMacSystemFont, 'Segoe UI', Helvetica, sans-serif">Jul 1</text>

  <path d="M48.0,219.8 C49.5,218.4 53.9,213.7 56.8,211.7 C59.8,209.7 62.7,209.1 65.7,207.7 C68.6,206.4 71.6,204.4 74.5,203.7 C77.5,203.0 80.4,205.0 83.3,203.5 C86.3,202.0 89.2,196.6 92.2,194.9 C95.1,193.2 98.1,200.1 101.0,193.2 C104.0,186.2 106.9,160.3 109.9,153.3 C112.8,146.3 115.7,151.7 118.7,151.3 C121.6,150.8 124.6,150.7 127.5,150.5 C130.5,150.3 133.4,150.2 136.4,150.1 C139.3,150.0 142.2,149.9 145.2,149.7 C148.1,149.5 151.1,149.1 154.0,148.7 C157.0,148.2 159.9,147.4 162.9,147.0 C165.8,146.5 168.8,146.3 171.7,146.1 C174.6,145.9 177.6,146.0 180.5,145.6 C183.5,145.2 186.4,144.1 189.4,143.6 C192.3,143.1 195.3,142.9 198.2,142.6 C201.2,142.3 204.1,142.0 207.0,141.7 C210.0,141.4 212.9,141.4 215.9,140.8 C218.8,140.2 221.8,138.7 224.7,138.0 C227.7,137.4 230.6,137.2 233.6,136.9 C236.5,136.6 239.4,136.4 242.4,136.2 C245.3,136.1 248.3,136.5 251.2,136.1 C254.2,135.7 257.1,134.4 260.1,133.8 C263.0,133.2 266.0,133.0 268.9,132.5 C271.8,132.1 274.8,131.8 277.7,131.1 C280.7,130.4 283.6,129.0 286.6,128.3 C289.5,127.6 292.5,127.3 295.4,126.9 C298.3,126.5 301.3,126.3 304.2,126.0 C307.2,125.8 310.1,125.8 313.1,125.3 C316.0,124.9 319.0,124.0 321.9,123.6 C324.9,123.1 327.8,122.8 330.7,122.5 C333.7,122.2 336.6,122.0 339.6,121.7 C342.5,121.5 345.5,121.3 348.4,121.1 C351.4,120.9 354.3,120.6 357.3,120.4 C360.2,120.3 363.1,120.3 366.1,120.2 C369.0,120.2 372.0,121.0 374.9,120.2 C377.9,119.4 380.8,116.5 383.8,115.5 C386.7,114.5 389.7,114.6 392.6,114.2 C395.5,113.7 398.5,113.3 401.4,112.8 C404.4,112.4 407.3,111.9 410.3,111.6 C413.2,111.3 416.2,111.2 419.1,111.0 C422.0,110.8 425.0,110.4 427.9,110.2 C430.9,110.0 433.8,110.1 436.8,109.7 C439.7,109.4 442.7,108.6 445.6,108.1 C448.6,107.7 451.5,107.6 454.4,107.2 C457.4,106.9 460.3,106.4 463.3,106.2 C466.2,105.9 469.2,106.0 472.1,105.7 C475.1,105.5 478.0,104.8 481.0,104.5 C483.9,104.2 486.8,104.2 489.8,104.0 C492.7,103.7 495.7,103.5 498.6,103.2 C501.6,102.9 504.5,102.5 507.5,102.2 C510.4,101.9 513.4,101.5 516.3,101.2 C519.2,100.9 522.2,100.8 525.1,100.3 C528.1,99.9 531.0,99.2 534.0,98.7 C536.9,98.3 539.9,98.1 542.8,97.7 C545.8,97.4 548.7,97.0 551.6,96.6 C554.6,96.3 557.5,95.9 560.5,95.5 C563.4,95.2 566.4,94.8 569.3,94.6 C572.3,94.3 575.2,94.2 578.1,93.8 C581.1,93.4 584.0,92.9 587.0,92.4 C589.9,91.9 592.9,91.2 595.8,90.8 C598.8,90.5 601.7,90.5 604.7,90.3 C607.6,90.1 610.5,90.0 613.5,89.8 C616.4,89.6 619.4,89.3 622.3,88.9 C625.3,88.6 628.2,88.2 631.2,87.9 C634.1,87.6 638.5,87.1 640.0,86.9 L640.0,220.0 L48.0,220.0 Z" fill="url(#areaGrad)"/>
  <path d="M48.0,219.8 C49.5,218.5 53.9,213.8 56.8,211.9 C59.8,210.0 62.7,209.5 65.7,208.4 C68.6,207.3 71.6,205.6 74.5,205.1 C77.5,204.5 80.4,206.5 83.3,205.1 C86.3,203.7 89.2,198.4 92.2,196.8 C95.1,195.2 98.1,201.7 101.0,195.5 C104.0,189.2 106.9,165.5 109.9,159.1 C112.8,152.7 115.7,157.7 118.7,157.3 C121.6,156.9 124.6,156.8 127.5,156.7 C130.5,156.6 133.4,156.6 136.4,156.5 C139.3,156.4 142.2,156.4 145.2,156.1 C148.1,155.9 151.1,155.6 154.0,155.1 C157.0,154.6 159.9,153.7 162.9,153.4 C165.8,153.0 168.8,153.1 171.7,152.9 C174.6,152.8 177.6,153.0 180.5,152.6 C183.5,152.2 186.4,151.1 189.4,150.6 C192.3,150.1 195.3,150.0 198.2,149.7 C201.2,149.4 204.1,149.2 207.0,148.9 C210.0,148.6 212.9,148.6 215.9,148.0 C218.8,147.4 221.8,145.9 224.7,145.2 C227.7,144.6 230.6,144.5 233.6,144.2 C236.5,143.9 239.4,143.7 242.4,143.5 C245.3,143.4 248.3,143.8 251.2,143.4 C254.2,143.0 257.1,141.8 260.1,141.2 C263.0,140.7 266.0,140.5 268.9,140.1 C271.8,139.7 274.8,139.6 277.7,138.9 C280.7,138.3 283.6,136.9 286.6,136.3 C289.5,135.6 292.5,135.4 295.4,135.0 C298.3,134.7 301.3,134.5 304.2,134.2 C307.2,134.0 310.1,134.0 313.1,133.7 C316.0,133.3 319.0,132.5 321.9,132.1 C324.9,131.6 327.8,131.4 330.7,131.1 C333.7,130.9 336.6,130.6 339.6,130.4 C342.5,130.3 345.5,130.2 348.4,130.0 C351.4,129.8 354.3,129.5 357.3,129.4 C360.2,129.3 363.1,129.4 366.1,129.4 C369.0,129.4 372.0,130.2 374.9,129.4 C377.9,128.7 380.8,125.9 383.8,124.9 C386.7,124.0 389.7,124.0 392.6,123.6 C395.5,123.1 398.5,122.7 401.4,122.3 C404.4,121.9 407.3,121.3 410.3,121.0 C413.2,120.7 416.2,120.7 419.1,120.5 C422.0,120.2 425.0,119.9 427.9,119.7 C430.9,119.5 433.8,119.6 436.8,119.2 C439.7,118.9 442.7,118.0 445.6,117.6 C448.6,117.2 451.5,117.0 454.4,116.7 C457.4,116.4 460.3,115.9 463.3,115.7 C466.2,115.4 469.2,115.5 472.1,115.2 C475.1,114.9 478.0,114.3 481.0,114.0 C483.9,113.8 486.8,113.8 489.8,113.6 C492.7,113.4 495.7,113.2 498.6,112.9 C501.6,112.6 504.5,112.3 507.5,112.0 C510.4,111.7 513.4,111.4 516.3,111.1 C519.2,110.8 522.2,110.6 525.1,110.3 C528.1,109.9 531.0,109.2 534.0,108.8 C536.9,108.4 539.9,108.2 542.8,107.9 C545.8,107.5 548.7,107.2 551.6,106.8 C554.6,106.5 557.5,106.1 560.5,105.8 C563.4,105.5 566.4,105.1 569.3,104.9 C572.3,104.6 575.2,104.5 578.1,104.2 C581.1,103.8 584.0,103.3 587.0,102.8 C589.9,102.3 592.9,101.6 595.8,101.3 C598.8,101.0 601.7,101.0 604.7,100.9 C607.6,100.7 610.5,100.6 613.5,100.4 C616.4,100.2 619.4,99.9 622.3,99.6 C625.3,99.3 628.2,99.0 631.2,98.7 C634.1,98.4 638.5,97.9 640.0,97.8" fill="none" class="line-openvsx" stroke-width="1.8" stroke-linecap="round" stroke-linejoin="round"/>
  <path d="M48.0,219.9 C49.5,219.9 53.9,219.9 56.8,219.8 C59.8,219.7 62.7,219.5 65.7,219.3 C68.6,219.1 71.6,218.8 74.5,218.6 C77.5,218.5 80.4,218.5 83.3,218.4 C86.3,218.3 89.2,218.2 92.2,218.1 C95.1,217.9 98.1,218.3 101.0,217.7 C104.0,217.1 106.9,214.8 109.9,214.2 C112.8,213.6 115.7,214.0 118.7,214.0 C121.6,213.9 124.6,213.9 127.5,213.8 C130.5,213.8 133.4,213.7 136.4,213.6 C139.3,213.6 142.2,213.6 145.2,213.6 C148.1,213.6 151.1,213.6 154.0,213.6 C157.0,213.6 159.9,213.6 162.9,213.6 C165.8,213.5 168.8,213.3 171.7,213.2 C174.6,213.1 177.6,213.1 180.5,213.1 C183.5,213.0 186.4,213.0 189.4,213.0 C192.3,213.0 195.3,212.9 198.2,212.9 C201.2,212.9 204.1,212.8 207.0,212.8 C210.0,212.8 212.9,212.8 215.9,212.8 C218.8,212.8 221.8,212.8 224.7,212.8 C227.7,212.8 230.6,212.7 233.6,212.7 C236.5,212.7 239.4,212.7 242.4,212.7 C245.3,212.7 248.3,212.7 251.2,212.7 C254.2,212.6 257.1,212.6 260.1,212.5 C263.0,212.5 266.0,212.5 268.9,212.4 C271.8,212.4 274.8,212.2 277.7,212.1 C280.7,212.1 283.6,212.0 286.6,212.0 C289.5,211.9 292.5,211.9 295.4,211.9 C298.3,211.8 301.3,211.8 304.2,211.8 C307.2,211.8 310.1,211.7 313.1,211.7 C316.0,211.6 319.0,211.6 321.9,211.5 C324.9,211.5 327.8,211.4 330.7,211.4 C333.7,211.4 336.6,211.3 339.6,211.3 C342.5,211.2 345.5,211.2 348.4,211.1 C351.4,211.1 354.3,211.0 357.3,211.0 C360.2,211.0 363.1,210.9 366.1,210.8 C369.0,210.8 372.0,210.8 374.9,210.8 C377.9,210.7 380.8,210.6 383.8,210.6 C386.7,210.6 389.7,210.6 392.6,210.6 C395.5,210.6 398.5,210.5 401.4,210.5 C404.4,210.5 407.3,210.5 410.3,210.5 C413.2,210.5 416.2,210.5 419.1,210.5 C422.0,210.5 425.0,210.5 427.9,210.5 C430.9,210.5 433.8,210.5 436.8,210.5 C439.7,210.5 442.7,210.5 445.6,210.5 C448.6,210.5 451.5,210.5 454.4,210.5 C457.4,210.5 460.3,210.5 463.3,210.5 C466.2,210.5 469.2,210.5 472.1,210.5 C475.1,210.5 478.0,210.5 481.0,210.5 C483.9,210.5 486.8,210.4 489.8,210.4 C492.7,210.3 495.7,210.3 498.6,210.3 C501.6,210.2 504.5,210.2 507.5,210.2 C510.4,210.2 513.4,210.2 516.3,210.1 C519.2,210.1 522.2,210.1 525.1,210.1 C528.1,210.1 531.0,210.0 534.0,210.0 C536.9,209.9 539.9,209.9 542.8,209.9 C545.8,209.8 548.7,209.8 551.6,209.8 C554.6,209.8 557.5,209.8 560.5,209.7 C563.4,209.7 566.4,209.7 569.3,209.7 C572.3,209.7 575.2,209.6 578.1,209.6 C581.1,209.6 584.0,209.6 587.0,209.6 C589.9,209.5 592.9,209.5 595.8,209.5 C598.8,209.5 601.7,209.5 604.7,209.5 C607.6,209.4 610.5,209.4 613.5,209.4 C616.4,209.4 619.4,209.4 622.3,209.3 C625.3,209.3 628.2,209.3 631.2,209.2 C634.1,209.2 638.5,209.2 640.0,209.2" fill="none" class="line-vscode" stroke-width="1.8" stroke-linecap="round" stroke-linejoin="round"/>
  <path d="M48.0,219.8 C49.5,218.4 53.9,213.7 56.8,211.7 C59.8,209.7 62.7,209.1 65.7,207.7 C68.6,206.4 71.6,204.4 74.5,203.7 C77.5,203.0 80.4,205.0 83.3,203.5 C86.3,202.0 89.2,196.6 92.2,194.9 C95.1,193.2 98.1,200.1 101.0,193.2 C104.0,186.2 106.9,160.3 109.9,153.3 C112.8,146.3 115.7,151.7 118.7,151.3 C121.6,150.8 124.6,150.7 127.5,150.5 C130.5,150.3 133.4,150.2 136.4,150.1 C139.3,150.0 142.2,149.9 145.2,149.7 C148.1,149.5 151.1,149.1 154.0,148.7 C157.0,148.2 159.9,147.4 162.9,147.0 C165.8,146.5 168.8,146.3 171.7,146.1 C174.6,145.9 177.6,146.0 180.5,145.6 C183.5,145.2 186.4,144.1 189.4,143.6 C192.3,143.1 195.3,142.9 198.2,142.6 C201.2,142.3 204.1,142.0 207.0,141.7 C210.0,141.4 212.9,141.4 215.9,140.8 C218.8,140.2 221.8,138.7 224.7,138.0 C227.7,137.4 230.6,137.2 233.6,136.9 C236.5,136.6 239.4,136.4 242.4,136.2 C245.3,136.1 248.3,136.5 251.2,136.1 C254.2,135.7 257.1,134.4 260.1,133.8 C263.0,133.2 266.0,133.0 268.9,132.5 C271.8,132.1 274.8,131.8 277.7,131.1 C280.7,130.4 283.6,129.0 286.6,128.3 C289.5,127.6 292.5,127.3 295.4,126.9 C298.3,126.5 301.3,126.3 304.2,126.0 C307.2,125.8 310.1,125.8 313.1,125.3 C316.0,124.9 319.0,124.0 321.9,123.6 C324.9,123.1 327.8,122.8 330.7,122.5 C333.7,122.2 336.6,122.0 339.6,121.7 C342.5,121.5 345.5,121.3 348.4,121.1 C351.4,120.9 354.3,120.6 357.3,120.4 C360.2,120.3 363.1,120.3 366.1,120.2 C369.0,120.2 372.0,121.0 374.9,120.2 C377.9,119.4 380.8,116.5 383.8,115.5 C386.7,114.5 389.7,114.6 392.6,114.2 C395.5,113.7 398.5,113.3 401.4,112.8 C404.4,112.4 407.3,111.9 410.3,111.6 C413.2,111.3 416.2,111.2 419.1,111.0 C422.0,110.8 425.0,110.4 427.9,110.2 C430.9,110.0 433.8,110.1 436.8,109.7 C439.7,109.4 442.7,108.6 445.6,108.1 C448.6,107.7 451.5,107.6 454.4,107.2 C457.4,106.9 460.3,106.4 463.3,106.2 C466.2,105.9 469.2,106.0 472.1,105.7 C475.1,105.5 478.0,104.8 481.0,104.5 C483.9,104.2 486.8,104.2 489.8,104.0 C492.7,103.7 495.7,103.5 498.6,103.2 C501.6,102.9 504.5,102.5 507.5,102.2 C510.4,101.9 513.4,101.5 516.3,101.2 C519.2,100.9 522.2,100.8 525.1,100.3 C528.1,99.9 531.0,99.2 534.0,98.7 C536.9,98.3 539.9,98.1 542.8,97.7 C545.8,97.4 548.7,97.0 551.6,96.6 C554.6,96.3 557.5,95.9 560.5,95.5 C563.4,95.2 566.4,94.8 569.3,94.6 C572.3,94.3 575.2,94.2 578.1,93.8 C581.1,93.4 584.0,92.9 587.0,92.4 C589.9,91.9 592.9,91.2 595.8,90.8 C598.8,90.5 601.7,90.5 604.7,90.3 C607.6,90.1 610.5,90.0 613.5,89.8 C616.4,89.6 619.4,89.3 622.3,88.9 C625.3,88.6 628.2,88.2 631.2,87.9 C634.1,87.6 638.5,87.1 640.0,86.9" fill="none" class="line-total" stroke-width="2.5" stroke-linecap="round" stroke-linejoin="round"/>

  <circle cx="640" cy="86.92933333333335" r="4.5" class="dot-total" stroke-width="2"/>
    <text x="658" y="90.92933333333335" class="end-label" font-family="-apple-system, BlinkMacSystemFont, 'Segoe UI', Helvetica, sans-serif">Total</text>
    <text x="697" y="90.92933333333335" class="end-value" font-family="-apple-system, BlinkMacSystemFont, 'Segoe UI', Helvetica, sans-serif">2.3k</text>
    <circle cx="640" cy="97.76533333333333" r="3.5" class="dot-openvsx" stroke-width="1.8"/>
    <text x="658" y="108.92933333333335" class="end-label" font-family="-apple-system, BlinkMacSystemFont, 'Segoe UI', Helvetica, sans-serif">Open VSX</text>
    <text x="716.8" y="108.92933333333335" class="end-value" font-family="-apple-system, BlinkMacSystemFont, 'Segoe UI', Helvetica, sans-serif">2.1k</text>
    <circle cx="640" cy="209.164" r="3.5" class="dot-vscode" stroke-width="1.8"/>
    <text x="658" y="213.164" class="end-label" font-family="-apple-system, BlinkMacSystemFont, 'Segoe UI', Helvetica, sans-serif">VS Code</text>
    <text x="710.2" y="213.164" class="end-value" font-family="-apple-system, BlinkMacSystemFont, 'Segoe UI', Helvetica, sans-serif">189</text>
</svg>