<svg xmlns="http://www.w3.org/2000/svg" viewBox="0 0 760 260" width="760" height="260" role="img" aria-label="Glassy install history">
  <style>
  svg { color-scheme: light dark; }
  .title      { fill: #1a1a2e; font-size: 15px; font-weight: 600; }
  .subtitle   { fill: #6b7280; font-size: 11px; font-weight: 400; }
  .grid       { stroke: #e8e8ee; }
  .axis-label { fill: #8a8a9a; font-size: 10px; }
  .line-total   { stroke: #e8553d; }
  .line-vscode  { stroke: #5b7cfa; }
  .line-openvsx { stroke: #34c7a0; }
  .dot-total   { fill: transparent; stroke: #e8553d; }
  .dot-vscode  { fill: transparent; stroke: #5b7cfa; }
  .dot-openvsx { fill: transparent; stroke: #34c7a0; }
  .end-label       { fill: #1a1a2e; font-size: 11px; font-weight: 600; }
  .end-value       { fill: #6b7280; font-size: 11px; font-weight: 400; }
  .area-total-top    { stop-color: #e8553d; }
  .area-total-bottom { stop-color: #e8553d; }

  @media (prefers-color-scheme: dark) {
    .title      { fill: #e2e2e8; }
    .subtitle   { fill: #8b949e; }
    .grid       { stroke: #2d2d3d; }
    .axis-label { fill: #6e7681; }
    .line-total   { stroke: #ff9b85; }
    .line-vscode  { stroke: #8da4ff; }
    .line-openvsx { stroke: #5eead4; }
    .dot-total   { stroke: #ff9b85; }
    .dot-vscode  { stroke: #8da4ff; }
    .dot-openvsx { stroke: #5eead4; }
    .end-label       { fill: #e2e2e8; }
    .end-value       { fill: #8b949e; }
    .area-total-top    { stop-color: #ff9b85; }
    .area-total-bottom { stop-color: #ff9b85; }
  }
</style>
  <defs>
    <linearGradient id="areaGrad" x1="0" y1="0" x2="0" y2="1">
      <stop offset="0%" class="area-total-top" stop-opacity="0.18"/>
      <stop offset="60%" class="area-total-bottom" stop-opacity="0.04"/>
      <stop offset="100%" class="area-total-bottom" stop-opacity="0"/>
    </linearGradient>
  </defs>

  <text x="48" y="22" class="title" font-family="-apple-system, BlinkMacSystemFont, 'Segoe UI', Helvetica, sans-serif">Installs</text>
  <text x="48" y="37" class="subtitle" font-family="-apple-system, BlinkMacSystemFont, 'Segoe UI', Helvetica, sans-serif">Updated Jun 17</text>

  <line x1="48" y1="220" x2="640" y2="220" class="grid" stroke-width="0.7"/>
    <text x="40" y="223.5" class="axis-label" text-anchor="end" font-family="-apple-system, BlinkMacSystemFont, 'Segoe UI', Helvetica, sans-serif">0</text>
    <line x1="48" y1="162.66666666666669" x2="640" y2="162.66666666666669" class="grid" stroke-width="0.7"/>
    <text x="40" y="166.16666666666669" class="axis-label" text-anchor="end" font-family="-apple-system, BlinkMacSystemFont, 'Segoe UI', Helvetica, sans-serif">1k</text>
    <line x1="48" y1="105.33333333333334" x2="640" y2="105.33333333333334" class="grid" stroke-width="0.7"/>
    <text x="40" y="108.83333333333334" class="axis-label" text-anchor="end" font-family="-apple-system, BlinkMacSystemFont, 'Segoe UI', Helvetica, sans-serif">2k</text>
    <line x1="48" y1="48" x2="640" y2="48" class="grid" stroke-width="0.7"/>
    <text x="40" y="51.5" class="axis-label" text-anchor="end" font-family="-apple-system, BlinkMacSystemFont, 'Segoe UI', Helvetica, sans-serif">3k</text>
  <text x="48" y="248" class="axis-label" text-anchor="middle" font-family="-apple-system, BlinkMacSystemFont, 'Segoe UI', Helvetica, sans-serif">Mar 27</text>
    <text x="170.8679245283019" y="248" class="axis-label" text-anchor="middle" font-family="-apple-system, BlinkMacSystemFont, 'Segoe UI', Helvetica, sans-serif">May 6</text>
    <text x="282.5660377358491" y="248" class="axis-label" text-anchor="middle" font-family="-apple-system, BlinkMacSystemFont, 'Segoe UI', Helvetica, sans-serif">May 16</text>
    <text x="405.4339622641509" y="248" class="axis-label" text-anchor="middle" font-family="-apple-system, BlinkMacSystemFont, 'Segoe UI', Helvetica, sans-serif">May 27</text>
    <text x="517.1320754716982" y="248" class="axis-label" text-anchor="middle" font-family="-apple-system, BlinkMacSystemFont, 'Segoe UI', Helvetica, sans-serif">Jun 6</text>
    <text x="640" y="248" class="axis-label" text-anchor="middle" font-family="-apple-system, BlinkMacSystemFont, 'Segoe UI', Helvetica, sans-serif">Jun 17</text>

  <path d="M48.0,219.8 C49.9,218.4 55.4,213.7 59.2,211.7 C62.9,209.7 66.6,209.1 70.3,207.7 C74.1,206.4 77.8,204.4 81.5,203.7 C85.2,203.0 89.0,205.0 92.7,203.5 C96.4,202.0 100.1,196.6 103.8,194.9 C107.6,193.2 111.3,200.1 115.0,193.2 C118.7,186.2 122.5,160.3 126.2,153.3 C129.9,146.3 133.6,151.7 137.4,151.3 C141.1,150.8 144.8,150.7 148.5,150.5 C152.3,150.3 156.0,150.2 159.7,150.1 C163.4,150.0 167.1,149.9 170.9,149.7 C174.6,149.5 178.3,149.1 182.0,148.7 C185.8,148.2 189.5,147.4 193.2,147.0 C196.9,146.5 200.7,146.3 204.4,146.1 C208.1,145.9 211.8,146.0 215.5,145.6 C219.3,145.2 223.0,144.1 226.7,143.6 C230.4,143.1 234.2,142.9 237.9,142.6 C241.6,142.3 245.3,142.0 249.1,141.7 C252.8,141.4 256.5,141.4 260.2,140.8 C263.9,140.2 267.7,138.7 271.4,138.0 C275.1,137.4 278.8,137.2 282.6,136.9 C286.3,136.6 290.0,136.4 293.7,136.2 C297.5,136.1 301.2,136.5 304.9,136.1 C308.6,135.7 312.4,134.4 316.1,133.8 C319.8,133.2 323.5,133.0 327.2,132.5 C331.0,132.1 334.7,131.8 338.4,131.1 C342.1,130.4 345.9,129.0 349.6,128.3 C353.3,127.6 357.0,127.3 360.8,126.9 C364.5,126.5 368.2,126.3 371.9,126.0 C375.6,125.8 379.4,125.8 383.1,125.3 C386.8,124.9 390.5,124.0 394.3,123.6 C398.0,123.1 401.7,122.8 405.4,122.5 C409.2,122.2 412.9,122.0 416.6,121.7 C420.3,121.5 424.1,121.3 427.8,121.1 C431.5,120.9 435.2,120.6 438.9,120.4 C442.7,120.3 446.4,120.3 450.1,120.2 C453.8,120.2 457.6,121.0 461.3,120.2 C465.0,119.4 468.7,116.5 472.5,115.5 C476.2,114.5 479.9,114.6 483.6,114.2 C487.3,113.7 491.1,113.3 494.8,112.8 C498.5,112.4 502.2,111.9 506.0,111.6 C509.7,111.3 513.4,111.2 517.1,111.0 C520.9,110.8 524.6,110.4 528.3,110.2 C532.0,110.0 535.7,110.1 539.5,109.7 C543.2,109.4 546.9,108.6 550.6,108.1 C554.4,107.7 558.1,107.6 561.8,107.2 C565.5,106.9 569.3,106.4 573.0,106.2 C576.7,105.9 580.4,106.0 584.2,105.7 C587.9,105.5 591.6,104.8 595.3,104.5 C599.0,104.2 602.8,104.2 606.5,104.0 C610.2,103.7 613.9,103.5 617.7,103.2 C621.4,102.9 625.1,102.5 628.8,102.2 C632.6,101.9 638.1,101.4 640.0,101.2 L640.0,220.0 L48.0,220.0 Z" fill="url(#areaGrad)"/>
  <path d="M48.0,219.8 C49.9,218.5 55.4,213.8 59.2,211.9 C62.9,210.0 66.6,209.5 70.3,208.4 C74.1,207.3 77.8,205.6 81.5,205.1 C85.2,204.5 89.0,206.5 92.7,205.1 C96.4,203.7 100.1,198.4 103.8,196.8 C107.6,195.2 111.3,201.7 115.0,195.5 C118.7,189.2 122.5,165.5 126.2,159.1 C129.9,152.7 133.6,157.7 137.4,157.3 C141.1,156.9 144.8,156.8 148.5,156.7 C152.3,156.6 156.0,156.6 159.7,156.5 C163.4,156.4 167.1,156.4 170.9,156.1 C174.6,155.9 178.3,155.6 182.0,155.1 C185.8,154.6 189.5,153.7 193.2,153.4 C196.9,153.0 200.7,153.1 204.4,152.9 C208.1,152.8 211.8,153.0 215.5,152.6 C219.3,152.2 223.0,151.1 226.7,150.6 C230.4,150.1 234.2,150.0 237.9,149.7 C241.6,149.4 245.3,149.2 249.1,148.9 C252.8,148.6 256.5,148.6 260.2,148.0 C263.9,147.4 267.7,145.9 271.4,145.2 C275.1,144.6 278.8,144.5 282.6,144.2 C286.3,143.9 290.0,143.7 293.7,143.5 C297.5,143.4 301.2,143.8 304.9,143.4 C308.6,143.0 312.4,141.8 316.1,141.2 C319.8,140.7 323.5,140.5 327.2,140.1 C331.0,139.7 334.7,139.6 338.4,138.9 C342.1,138.3 345.9,136.9 349.6,136.3 C353.3,135.6 357.0,135.4 360.8,135.0 C364.5,134.7 368.2,134.5 371.9,134.2 C375.6,134.0 379.4,134.0 383.1,133.7 C386.8,133.3 390.5,132.5 394.3,132.1 C398.0,131.6 401.7,131.4 405.4,131.1 C409.2,130.9 412.9,130.6 416.6,130.4 C420.3,130.3 424.1,130.2 427.8,130.0 C431.5,129.8 435.2,129.5 438.9,129.4 C442.7,129.3 446.4,129.4 450.1,129.4 C453.8,129.4 457.6,130.2 461.3,129.4 C465.0,128.7 468.7,125.9 472.5,124.9 C476.2,124.0 479.9,124.0 483.6,123.6 C487.3,123.1 491.1,122.7 494.8,122.3 C498.5,121.9 502.2,121.3 506.0,121.0 C509.7,120.7 513.4,120.7 517.1,120.5 C520.9,120.2 524.6,119.9 528.3,119.7 C532.0,119.5 535.7,119.6 539.5,119.2 C543.2,118.9 546.9,118.0 550.6,117.6 C554.4,117.2 558.1,117.0 561.8,116.7 C565.5,116.4 569.3,115.9 573.0,115.7 C576.7,115.4 580.4,115.5 584.2,115.2 C587.9,114.9 591.6,114.3 595.3,114.0 C599.0,113.8 602.8,113.8 606.5,113.6 C610.2,113.4 613.9,113.2 617.7,112.9 C621.4,112.6 625.1,112.3 628.8,112.0 C632.6,111.7 638.1,111.2 640.0,111.1" fill="none" class="line-openvsx" stroke-width="1.8" stroke-linecap="round" stroke-linejoin="round"/>
  <path d="M48.0,219.9 C49.9,219.9 55.4,219.9 59.2,219.8 C62.9,219.7 66.6,219.5 70.3,219.3 C74.1,219.1 77.8,218.8 81.5,218.6 C85.2,218.5 89.0,218.5 92.7,218.4 C96.4,218.3 100.1,218.2 103.8,218.1 C107.6,217.9 111.3,218.3 115.0,217.7 C118.7,217.1 122.5,214.8 126.2,214.2 C129.9,213.6 133.6,214.0 137.4,214.0 C141.1,213.9 144.8,213.9 148.5,213.8 C152.3,213.8 156.0,213.7 159.7,213.6 C163.4,213.6 167.1,213.6 170.9,213.6 C174.6,213.6 178.3,213.6 182.0,213.6 C185.8,213.6 189.5,213.6 193.2,213.6 C196.9,213.5 200.7,213.3 204.4,213.2 C208.1,213.1 211.8,213.1 215.5,213.1 C219.3,213.0 223.0,213.0 226.7,213.0 C230.4,213.0 234.2,212.9 237.9,212.9 C241.6,212.9 245.3,212.8 249.1,212.8 C252.8,212.8 256.5,212.8 260.2,212.8 C263.9,212.8 267.7,212.8 271.4,212.8 C275.1,212.8 278.8,212.7 282.6,212.7 C286.3,212.7 290.0,212.7 293.7,212.7 C297.5,212.7 301.2,212.7 304.9,212.7 C308.6,212.6 312.4,212.6 316.1,212.5 C319.8,212.5 323.5,212.5 327.2,212.4 C331.0,212.4 334.7,212.2 338.4,212.1 C342.1,212.1 345.9,212.0 349.6,212.0 C353.3,211.9 357.0,211.9 360.8,211.9 C364.5,211.8 368.2,211.8 371.9,211.8 C375.6,211.8 379.4,211.7 383.1,211.7 C386.8,211.6 390.5,211.6 394.3,211.5 C398.0,211.5 401.7,211.4 405.4,211.4 C409.2,211.4 412.9,211.3 416.6,211.3 C420.3,211.2 424.1,211.2 427.8,211.1 C431.5,211.1 435.2,211.0 438.9,211.0 C442.7,211.0 446.4,210.9 450.1,210.8 C453.8,210.8 457.6,210.8 461.3,210.8 C465.0,210.7 468.7,210.6 472.5,210.6 C476.2,210.6 479.9,210.6 483.6,210.6 C487.3,210.6 491.1,210.5 494.8,210.5 C498.5,210.5 502.2,210.5 506.0,210.5 C509.7,210.5 513.4,210.5 517.1,210.5 C520.9,210.5 524.6,210.5 528.3,210.5 C532.0,210.5 535.7,210.5 539.5,210.5 C543.2,210.5 546.9,210.5 550.6,210.5 C554.4,210.5 558.1,210.5 561.8,210.5 C565.5,210.5 569.3,210.5 573.0,210.5 C576.7,210.5 580.4,210.5 584.2,210.5 C587.9,210.5 591.6,210.5 595.3,210.5 C599.0,210.5 602.8,210.4 606.5,210.4 C610.2,210.3 613.9,210.3 617.7,210.3 C621.4,210.2 625.1,210.2 628.8,210.2 C632.6,210.2 638.1,210.1 640.0,210.1" fill="none" class="line-vscode" stroke-width="1.8" stroke-linecap="round" stroke-linejoin="round"/>
  <path d="M48.0,219.8 C49.9,218.4 55.4,213.7 59.2,211.7 C62.9,209.7 66.6,209.1 70.3,207.7 C74.1,206.4 77.8,204.4 81.5,203.7 C85.2,203.0 89.0,205.0 92.7,203.5 C96.4,202.0 100.1,196.6 103.8,194.9 C107.6,193.2 111.3,200.1 115.0,193.2 C118.7,186.2 122.5,160.3 126.2,153.3 C129.9,146.3 133.6,151.7 137.4,151.3 C141.1,150.8 144.8,150.7 148.5,150.5 C152.3,150.3 156.0,150.2 159.7,150.1 C163.4,150.0 167.1,149.9 170.9,149.7 C174.6,149.5 178.3,149.1 182.0,148.7 C185.8,148.2 189.5,147.4 193.2,147.0 C196.9,146.5 200.7,146.3 204.4,146.1 C208.1,145.9 211.8,146.0 215.5,145.6 C219.3,145.2 223.0,144.1 226.7,143.6 C230.4,143.1 234.2,142.9 237.9,142.6 C241.6,142.3 245.3,142.0 249.1,141.7 C252.8,141.4 256.5,141.4 260.2,140.8 C263.9,140.2 267.7,138.7 271.4,138.0 C275.1,137.4 278.8,137.2 282.6,136.9 C286.3,136.6 290.0,136.4 293.7,136.2 C297.5,136.1 301.2,136.5 304.9,136.1 C308.6,135.7 312.4,134.4 316.1,133.8 C319.8,133.2 323.5,133.0 327.2,132.5 C331.0,132.1 334.7,131.8 338.4,131.1 C342.1,130.4 345.9,129.0 349.6,128.3 C353.3,127.6 357.0,127.3 360.8,126.9 C364.5,126.5 368.2,126.3 371.9,126.0 C375.6,125.8 379.4,125.8 383.1,125.3 C386.8,124.9 390.5,124.0 394.3,123.6 C398.0,123.1 401.7,122.8 405.4,122.5 C409.2,122.2 412.9,122.0 416.6,121.7 C420.3,121.5 424.1,121.3 427.8,121.1 C431.5,120.9 435.2,120.6 438.9,120.4 C442.7,120.3 446.4,120.3 450.1,120.2 C453.8,120.2 457.6,121.0 461.3,120.2 C465.0,119.4 468.7,116.5 472.5,115.5 C476.2,114.5 479.9,114.6 483.6,114.2 C487.3,113.7 491.1,113.3 494.8,112.8 C498.5,112.4 502.2,111.9 506.0,111.6 C509.7,111.3 513.4,111.2 517.1,111.0 C520.9,110.8 524.6,110.4 528.3,110.2 C532.0,110.0 535.7,110.1 539.5,109.7 C543.2,109.4 546.9,108.6 550.6,108.1 C554.4,107.7 558.1,107.6 561.8,107.2 C565.5,106.9 569.3,106.4 573.0,106.2 C576.7,105.9 580.4,106.0 584.2,105.7 C587.9,105.5 591.6,104.8 595.3,104.5 C599.0,104.2 602.8,104.2 606.5,104.0 C610.2,103.7 613.9,103.5 617.7,103.2 C621.4,102.9 625.1,102.5 628.8,102.2 C632.6,101.9 638.1,101.4 640.0,101.2" fill="none" class="line-total" stroke-width="2.5" stroke-linecap="round" stroke-linejoin="round"/>

  <circle cx="640" cy="101.20533333333334" r="4.5" class="dot-total" stroke-width="2"/>
    <text x="658" y="105.20533333333334" class="end-label" font-family="-apple-system, BlinkMacSystemFont, 'Segoe UI', Helvetica, sans-serif">Total</text>
    <text x="697" y="105.20533333333334" class="end-value" font-family="-apple-system, BlinkMacSystemFont, 'Segoe UI', Helvetica, sans-serif">2.1k</text>
    <circle cx="640" cy="111.06666666666668" r="3.5" class="dot-openvsx" stroke-width="1.8"/>
    <text x="658" y="123.20533333333334" class="end-label" font-family="-apple-system, BlinkMacSystemFont, 'Segoe UI', Helvetica, sans-serif">Open VSX</text>
    <text x="716.8" y="123.20533333333334" class="end-value" font-family="-apple-system, BlinkMacSystemFont, 'Segoe UI', Helvetica, sans-serif">1.9k</text>
    <circle cx="640" cy="210.13866666666667" r="3.5" class="dot-vscode" stroke-width="1.8"/>
    <text x="658" y="214.13866666666667" class="end-label" font-family="-apple-system, BlinkMacSystemFont, 'Segoe UI', Helvetica, sans-serif">VS Code</text>
    <text x="710.2" y="214.13866666666667" class="end-value" font-family="-apple-system, BlinkMacSystemFont, 'Segoe UI', Helvetica, sans-serif">172</text>
</svg>