<svg xmlns="http://www.w3.org/2000/svg" viewBox="0 0 760 260" width="760" height="260" role="img" aria-label="Glassy install history">
  <style>
  svg { color-scheme: light dark; }
  .title      { fill: #1a1a2e; font-size: 15px; font-weight: 600; }
  .subtitle   { fill: #6b7280; font-size: 11px; font-weight: 400; }
  .grid       { stroke: #e8e8ee; }
  .axis-label { fill: #8a8a9a; font-size: 10px; }
  .line-total   { stroke: #e8553d; }
  .line-vscode  { stroke: #5b7cfa; }
  .line-openvsx { stroke: #34c7a0; }
  .dot-total   { fill: transparent; stroke: #e8553d; }
  .dot-vscode  { fill: transparent; stroke: #5b7cfa; }
  .dot-openvsx { fill: transparent; stroke: #34c7a0; }
  .end-label       { fill: #1a1a2e; font-size: 11px; font-weight: 600; }
  .end-value       { fill: #6b7280; font-size: 11px; font-weight: 400; }
  .area-total-top    { stop-color: #e8553d; }
  .area-total-bottom { stop-color: #e8553d; }

  @media (prefers-color-scheme: dark) {
    .title      { fill: #e2e2e8; }
    .subtitle   { fill: #8b949e; }
    .grid       { stroke: #2d2d3d; }
    .axis-label { fill: #6e7681; }
    .line-total   { stroke: #ff9b85; }
    .line-vscode  { stroke: #8da4ff; }
    .line-openvsx { stroke: #5eead4; }
    .dot-total   { stroke: #ff9b85; }
    .dot-vscode  { stroke: #8da4ff; }
    .dot-openvsx { stroke: #5eead4; }
    .end-label       { fill: #e2e2e8; }
    .end-value       { fill: #8b949e; }
    .area-total-top    { stop-color: #ff9b85; }
    .area-total-bottom { stop-color: #ff9b85; }
  }
</style>
  <defs>
    <linearGradient id="areaGrad" x1="0" y1="0" x2="0" y2="1">
      <stop offset="0%" class="area-total-top" stop-opacity="0.18"/>
      <stop offset="60%" class="area-total-bottom" stop-opacity="0.04"/>
      <stop offset="100%" class="area-total-bottom" stop-opacity="0"/>
    </linearGradient>
  </defs>

  <text x="48" y="22" class="title" font-family="-apple-system, BlinkMacSystemFont, 'Segoe UI', Helvetica, sans-serif">Installs</text>
  <text x="48" y="37" class="subtitle" font-family="-apple-system, BlinkMacSystemFont, 'Segoe UI', Helvetica, sans-serif">Updated Jul 6</text>

  <line x1="48" y1="220" x2="640" y2="220" class="grid" stroke-width="0.7"/>
    <text x="40" y="223.5" class="axis-label" text-anchor="end" font-family="-apple-system, BlinkMacSystemFont, 'Segoe UI', Helvetica, sans-serif">0</text>
    <line x1="48" y1="162.66666666666669" x2="640" y2="162.66666666666669" class="grid" stroke-width="0.7"/>
    <text x="40" y="166.16666666666669" class="axis-label" text-anchor="end" font-family="-apple-system, BlinkMacSystemFont, 'Segoe UI', Helvetica, sans-serif">1k</text>
    <line x1="48" y1="105.33333333333334" x2="640" y2="105.33333333333334" class="grid" stroke-width="0.7"/>
    <text x="40" y="108.83333333333334" class="axis-label" text-anchor="end" font-family="-apple-system, BlinkMacSystemFont, 'Segoe UI', Helvetica, sans-serif">2k</text>
    <line x1="48" y1="48" x2="640" y2="48" class="grid" stroke-width="0.7"/>
    <text x="40" y="51.5" class="axis-label" text-anchor="end" font-family="-apple-system, BlinkMacSystemFont, 'Segoe UI', Helvetica, sans-serif">3k</text>
  <text x="48" y="248" class="axis-label" text-anchor="middle" font-family="-apple-system, BlinkMacSystemFont, 'Segoe UI', Helvetica, sans-serif">Mar 27</text>
    <text x="163.11111111111111" y="248" class="axis-label" text-anchor="middle" font-family="-apple-system, BlinkMacSystemFont, 'Segoe UI', Helvetica, sans-serif">May 9</text>
    <text x="286.44444444444446" y="248" class="axis-label" text-anchor="middle" font-family="-apple-system, BlinkMacSystemFont, 'Segoe UI', Helvetica, sans-serif">May 24</text>
    <text x="401.55555555555554" y="248" class="axis-label" text-anchor="middle" font-family="-apple-system, BlinkMacSystemFont, 'Segoe UI', Helvetica, sans-serif">Jun 7</text>
    <text x="524.8888888888889" y="248" class="axis-label" text-anchor="middle" font-family="-apple-system, BlinkMacSystemFont, 'Segoe UI', Helvetica, sans-serif">Jun 22</text>
    <text x="640" y="248" class="axis-label" text-anchor="middle" font-family="-apple-system, BlinkMacSystemFont, 'Segoe UI', Helvetica, sans-serif">Jul 6</text>

  <path d="M48.0,219.8 C49.4,218.4 53.5,213.7 56.2,211.7 C59.0,209.7 61.7,209.1 64.4,207.7 C67.2,206.4 69.9,204.4 72.7,203.7 C75.4,203.0 78.1,205.0 80.9,203.5 C83.6,202.0 86.4,196.6 89.1,194.9 C91.9,193.2 94.6,200.1 97.3,193.2 C100.1,186.2 102.8,160.3 105.6,153.3 C108.3,146.3 111.0,151.7 113.8,151.3 C116.5,150.8 119.3,150.7 122.0,150.5 C124.7,150.3 127.5,150.2 130.2,150.1 C133.0,150.0 135.7,149.9 138.4,149.7 C141.2,149.5 143.9,149.1 146.7,148.7 C149.4,148.2 152.1,147.4 154.9,147.0 C157.6,146.5 160.4,146.3 163.1,146.1 C165.9,145.9 168.6,146.0 171.3,145.6 C174.1,145.2 176.8,144.1 179.6,143.6 C182.3,143.1 185.0,142.9 187.8,142.6 C190.5,142.3 193.3,142.0 196.0,141.7 C198.7,141.4 201.5,141.4 204.2,140.8 C207.0,140.2 209.7,138.7 212.4,138.0 C215.2,137.4 217.9,137.2 220.7,136.9 C223.4,136.6 226.1,136.4 228.9,136.2 C231.6,136.1 234.4,136.5 237.1,136.1 C239.9,135.7 242.6,134.4 245.3,133.8 C248.1,133.2 250.8,133.0 253.6,132.5 C256.3,132.1 259.0,131.8 261.8,131.1 C264.5,130.4 267.3,129.0 270.0,128.3 C272.7,127.6 275.5,127.3 278.2,126.9 C281.0,126.5 283.7,126.3 286.4,126.0 C289.2,125.8 291.9,125.8 294.7,125.3 C297.4,124.9 300.1,124.0 302.9,123.6 C305.6,123.1 308.4,122.8 311.1,122.5 C313.9,122.2 316.6,122.0 319.3,121.7 C322.1,121.5 324.8,121.3 327.6,121.1 C330.3,120.9 333.0,120.6 335.8,120.4 C338.5,120.3 341.3,120.3 344.0,120.2 C346.7,120.2 349.5,121.0 352.2,120.2 C355.0,119.4 357.7,116.5 360.4,115.5 C363.2,114.5 365.9,114.6 368.7,114.2 C371.4,113.7 374.1,113.3 376.9,112.8 C379.6,112.4 382.4,111.9 385.1,111.6 C387.9,111.3 390.6,111.2 393.3,111.0 C396.1,110.8 398.8,110.4 401.6,110.2 C404.3,110.0 407.0,110.1 409.8,109.7 C412.5,109.4 415.3,108.6 418.0,108.1 C420.7,107.7 423.5,107.6 426.2,107.2 C429.0,106.9 431.7,106.4 434.4,106.2 C437.2,105.9 439.9,106.0 442.7,105.7 C445.4,105.5 448.1,104.8 450.9,104.5 C453.6,104.2 456.4,104.2 459.1,104.0 C461.9,103.7 464.6,103.5 467.3,103.2 C470.1,102.9 472.8,102.5 475.6,102.2 C478.3,101.9 481.0,101.5 483.8,101.2 C486.5,100.9 489.3,100.8 492.0,100.3 C494.7,99.9 497.5,99.2 500.2,98.7 C503.0,98.3 505.7,98.1 508.4,97.7 C511.2,97.4 513.9,97.0 516.7,96.6 C519.4,96.3 522.1,95.9 524.9,95.5 C527.6,95.2 530.4,94.8 533.1,94.6 C535.9,94.3 538.6,94.2 541.3,93.8 C544.1,93.4 546.8,92.9 549.6,92.4 C552.3,91.9 555.0,91.2 557.8,90.8 C560.5,90.5 563.3,90.5 566.0,90.3 C568.7,90.1 571.5,90.0 574.2,89.8 C577.0,89.6 579.7,89.3 582.4,88.9 C585.2,88.6 587.9,88.2 590.7,87.9 C593.4,87.6 596.1,87.3 598.9,86.9 C601.6,86.6 604.4,86.2 607.1,85.8 C609.9,85.5 612.6,85.3 615.3,85.0 C618.1,84.6 620.8,84.0 623.6,83.7 C626.3,83.3 629.0,83.0 631.8,82.8 C634.5,82.6 638.6,82.5 640.0,82.4 L640.0,220.0 L48.0,220.0 Z" fill="url(#areaGrad)"/>
  <path d="M48.0,219.8 C49.4,218.5 53.5,213.8 56.2,211.9 C59.0,210.0 61.7,209.5 64.4,208.4 C67.2,207.3 69.9,205.6 72.7,205.1 C75.4,204.5 78.1,206.5 80.9,205.1 C83.6,203.7 86.4,198.4 89.1,196.8 C91.9,195.2 94.6,201.7 97.3,195.5 C100.1,189.2 102.8,165.5 105.6,159.1 C108.3,152.7 111.0,157.7 113.8,157.3 C116.5,156.9 119.3,156.8 122.0,156.7 C124.7,156.6 127.5,156.6 130.2,156.5 C133.0,156.4 135.7,156.4 138.4,156.1 C141.2,155.9 143.9,155.6 146.7,155.1 C149.4,154.6 152.1,153.7 154.9,153.4 C157.6,153.0 160.4,153.1 163.1,152.9 C165.9,152.8 168.6,153.0 171.3,152.6 C174.1,152.2 176.8,151.1 179.6,150.6 C182.3,150.1 185.0,150.0 187.8,149.7 C190.5,149.4 193.3,149.2 196.0,148.9 C198.7,148.6 201.5,148.6 204.2,148.0 C207.0,147.4 209.7,145.9 212.4,145.2 C215.2,144.6 217.9,144.5 220.7,144.2 C223.4,143.9 226.1,143.7 228.9,143.5 C231.6,143.4 234.4,143.8 237.1,143.4 C239.9,143.0 242.6,141.8 245.3,141.2 C248.1,140.7 250.8,140.5 253.6,140.1 C256.3,139.7 259.0,139.6 261.8,138.9 C264.5,138.3 267.3,136.9 270.0,136.3 C272.7,135.6 275.5,135.4 278.2,135.0 C281.0,134.7 283.7,134.5 286.4,134.2 C289.2,134.0 291.9,134.0 294.7,133.7 C297.4,133.3 300.1,132.5 302.9,132.1 C305.6,131.6 308.4,131.4 311.1,131.1 C313.9,130.9 316.6,130.6 319.3,130.4 C322.1,130.3 324.8,130.2 327.6,130.0 C330.3,129.8 333.0,129.5 335.8,129.4 C338.5,129.3 341.3,129.4 344.0,129.4 C346.7,129.4 349.5,130.2 352.2,129.4 C355.0,128.7 357.7,125.9 360.4,124.9 C363.2,124.0 365.9,124.0 368.7,123.6 C371.4,123.1 374.1,122.7 376.9,122.3 C379.6,121.9 382.4,121.3 385.1,121.0 C387.9,120.7 390.6,120.7 393.3,120.5 C396.1,120.2 398.8,119.9 401.6,119.7 C404.3,119.5 407.0,119.6 409.8,119.2 C412.5,118.9 415.3,118.0 418.0,117.6 C420.7,117.2 423.5,117.0 426.2,116.7 C429.0,116.4 431.7,115.9 434.4,115.7 C437.2,115.4 439.9,115.5 442.7,115.2 C445.4,114.9 448.1,114.3 450.9,114.0 C453.6,113.8 456.4,113.8 459.1,113.6 C461.9,113.4 464.6,113.2 467.3,112.9 C470.1,112.6 472.8,112.3 475.6,112.0 C478.3,111.7 481.0,111.4 483.8,111.1 C486.5,110.8 489.3,110.6 492.0,110.3 C494.7,109.9 497.5,109.2 500.2,108.8 C503.0,108.4 505.7,108.2 508.4,107.9 C511.2,107.5 513.9,107.2 516.7,106.8 C519.4,106.5 522.1,106.1 524.9,105.8 C527.6,105.5 530.4,105.1 533.1,104.9 C535.9,104.6 538.6,104.5 541.3,104.2 C544.1,103.8 546.8,103.3 549.6,102.8 C552.3,102.3 555.0,101.6 557.8,101.3 C560.5,101.0 563.3,101.0 566.0,100.9 C568.7,100.7 571.5,100.6 574.2,100.4 C577.0,100.2 579.7,99.9 582.4,99.6 C585.2,99.3 587.9,99.0 590.7,98.7 C593.4,98.4 596.1,98.1 598.9,97.8 C601.6,97.4 604.4,97.0 607.1,96.7 C609.9,96.4 612.6,96.2 615.3,95.9 C618.1,95.6 620.8,95.3 623.6,95.0 C626.3,94.7 629.0,94.4 631.8,94.2 C634.5,94.0 638.6,93.9 640.0,93.9" fill="none" class="line-openvsx" stroke-width="1.8" stroke-linecap="round" stroke-linejoin="round"/>
  <path d="M48.0,219.9 C49.4,219.9 53.5,219.9 56.2,219.8 C59.0,219.7 61.7,219.5 64.4,219.3 C67.2,219.1 69.9,218.8 72.7,218.6 C75.4,218.5 78.1,218.5 80.9,218.4 C83.6,218.3 86.4,218.2 89.1,218.1 C91.9,217.9 94.6,218.3 97.3,217.7 C100.1,217.1 102.8,214.8 105.6,214.2 C108.3,213.6 111.0,214.0 113.8,214.0 C116.5,213.9 119.3,213.9 122.0,213.8 C124.7,213.8 127.5,213.7 130.2,213.6 C133.0,213.6 135.7,213.6 138.4,213.6 C141.2,213.6 143.9,213.6 146.7,213.6 C149.4,213.6 152.1,213.6 154.9,213.6 C157.6,213.5 160.4,213.3 163.1,213.2 C165.9,213.1 168.6,213.1 171.3,213.1 C174.1,213.0 176.8,213.0 179.6,213.0 C182.3,213.0 185.0,212.9 187.8,212.9 C190.5,212.9 193.3,212.8 196.0,212.8 C198.7,212.8 201.5,212.8 204.2,212.8 C207.0,212.8 209.7,212.8 212.4,212.8 C215.2,212.8 217.9,212.7 220.7,212.7 C223.4,212.7 226.1,212.7 228.9,212.7 C231.6,212.7 234.4,212.7 237.1,212.7 C239.9,212.6 242.6,212.6 245.3,212.5 C248.1,212.5 250.8,212.5 253.6,212.4 C256.3,212.4 259.0,212.2 261.8,212.1 C264.5,212.1 267.3,212.0 270.0,212.0 C272.7,211.9 275.5,211.9 278.2,211.9 C281.0,211.8 283.7,211.8 286.4,211.8 C289.2,211.8 291.9,211.7 294.7,211.7 C297.4,211.6 300.1,211.6 302.9,211.5 C305.6,211.5 308.4,211.4 311.1,211.4 C313.9,211.4 316.6,211.3 319.3,211.3 C322.1,211.2 324.8,211.2 327.6,211.1 C330.3,211.1 333.0,211.0 335.8,211.0 C338.5,211.0 341.3,210.9 344.0,210.8 C346.7,210.8 349.5,210.8 352.2,210.8 C355.0,210.7 357.7,210.6 360.4,210.6 C363.2,210.6 365.9,210.6 368.7,210.6 C371.4,210.6 374.1,210.5 376.9,210.5 C379.6,210.5 382.4,210.5 385.1,210.5 C387.9,210.5 390.6,210.5 393.3,210.5 C396.1,210.5 398.8,210.5 401.6,210.5 C404.3,210.5 407.0,210.5 409.8,210.5 C412.5,210.5 415.3,210.5 418.0,210.5 C420.7,210.5 423.5,210.5 426.2,210.5 C429.0,210.5 431.7,210.5 434.4,210.5 C437.2,210.5 439.9,210.5 442.7,210.5 C445.4,210.5 448.1,210.5 450.9,210.5 C453.6,210.5 456.4,210.4 459.1,210.4 C461.9,210.3 464.6,210.3 467.3,210.3 C470.1,210.2 472.8,210.2 475.6,210.2 C478.3,210.2 481.0,210.2 483.8,210.1 C486.5,210.1 489.3,210.1 492.0,210.1 C494.7,210.1 497.5,210.0 500.2,210.0 C503.0,209.9 505.7,209.9 508.4,209.9 C511.2,209.8 513.9,209.8 516.7,209.8 C519.4,209.8 522.1,209.8 524.9,209.7 C527.6,209.7 530.4,209.7 533.1,209.7 C535.9,209.7 538.6,209.6 541.3,209.6 C544.1,209.6 546.8,209.6 549.6,209.6 C552.3,209.5 555.0,209.5 557.8,209.5 C560.5,209.5 563.3,209.5 566.0,209.5 C568.7,209.4 571.5,209.4 574.2,209.4 C577.0,209.4 579.7,209.4 582.4,209.3 C585.2,209.3 587.9,209.3 590.7,209.2 C593.4,209.2 596.1,209.2 598.9,209.2 C601.6,209.1 604.4,209.1 607.1,209.1 C609.9,209.1 612.6,209.1 615.3,209.0 C618.1,209.0 620.8,208.7 623.6,208.6 C626.3,208.6 629.0,208.6 631.8,208.6 C634.5,208.6 638.6,208.5 640.0,208.5" fill="none" class="line-vscode" stroke-width="1.8" stroke-linecap="round" stroke-linejoin="round"/>
  <path d="M48.0,219.8 C49.4,218.4 53.5,213.7 56.2,211.7 C59.0,209.7 61.7,209.1 64.4,207.7 C67.2,206.4 69.9,204.4 72.7,203.7 C75.4,203.0 78.1,205.0 80.9,203.5 C83.6,202.0 86.4,196.6 89.1,194.9 C91.9,193.2 94.6,200.1 97.3,193.2 C100.1,186.2 102.8,160.3 105.6,153.3 C108.3,146.3 111.0,151.7 113.8,151.3 C116.5,150.8 119.3,150.7 122.0,150.5 C124.7,150.3 127.5,150.2 130.2,150.1 C133.0,150.0 135.7,149.9 138.4,149.7 C141.2,149.5 143.9,149.1 146.7,148.7 C149.4,148.2 152.1,147.4 154.9,147.0 C157.6,146.5 160.4,146.3 163.1,146.1 C165.9,145.9 168.6,146.0 171.3,145.6 C174.1,145.2 176.8,144.1 179.6,143.6 C182.3,143.1 185.0,142.9 187.8,142.6 C190.5,142.3 193.3,142.0 196.0,141.7 C198.7,141.4 201.5,141.4 204.2,140.8 C207.0,140.2 209.7,138.7 212.4,138.0 C215.2,137.4 217.9,137.2 220.7,136.9 C223.4,136.6 226.1,136.4 228.9,136.2 C231.6,136.1 234.4,136.5 237.1,136.1 C239.9,135.7 242.6,134.4 245.3,133.8 C248.1,133.2 250.8,133.0 253.6,132.5 C256.3,132.1 259.0,131.8 261.8,131.1 C264.5,130.4 267.3,129.0 270.0,128.3 C272.7,127.6 275.5,127.3 278.2,126.9 C281.0,126.5 283.7,126.3 286.4,126.0 C289.2,125.8 291.9,125.8 294.7,125.3 C297.4,124.9 300.1,124.0 302.9,123.6 C305.6,123.1 308.4,122.8 311.1,122.5 C313.9,122.2 316.6,122.0 319.3,121.7 C322.1,121.5 324.8,121.3 327.6,121.1 C330.3,120.9 333.0,120.6 335.8,120.4 C338.5,120.3 341.3,120.3 344.0,120.2 C346.7,120.2 349.5,121.0 352.2,120.2 C355.0,119.4 357.7,116.5 360.4,115.5 C363.2,114.5 365.9,114.6 368.7,114.2 C371.4,113.7 374.1,113.3 376.9,112.8 C379.6,112.4 382.4,111.9 385.1,111.6 C387.9,111.3 390.6,111.2 393.3,111.0 C396.1,110.8 398.8,110.4 401.6,110.2 C404.3,110.0 407.0,110.1 409.8,109.7 C412.5,109.4 415.3,108.6 418.0,108.1 C420.7,107.7 423.5,107.6 426.2,107.2 C429.0,106.9 431.7,106.4 434.4,106.2 C437.2,105.9 439.9,106.0 442.7,105.7 C445.4,105.5 448.1,104.8 450.9,104.5 C453.6,104.2 456.4,104.2 459.1,104.0 C461.9,103.7 464.6,103.5 467.3,103.2 C470.1,102.9 472.8,102.5 475.6,102.2 C478.3,101.9 481.0,101.5 483.8,101.2 C486.5,100.9 489.3,100.8 492.0,100.3 C494.7,99.9 497.5,99.2 500.2,98.7 C503.0,98.3 505.7,98.1 508.4,97.7 C511.2,97.4 513.9,97.0 516.7,96.6 C519.4,96.3 522.1,95.9 524.9,95.5 C527.6,95.2 530.4,94.8 533.1,94.6 C535.9,94.3 538.6,94.2 541.3,93.8 C544.1,93.4 546.8,92.9 549.6,92.4 C552.3,91.9 555.0,91.2 557.8,90.8 C560.5,90.5 563.3,90.5 566.0,90.3 C568.7,90.1 571.5,90.0 574.2,89.8 C577.0,89.6 579.7,89.3 582.4,88.9 C585.2,88.6 587.9,88.2 590.7,87.9 C593.4,87.6 596.1,87.3 598.9,86.9 C601.6,86.6 604.4,86.2 607.1,85.8 C609.9,85.5 612.6,85.3 615.3,85.0 C618.1,84.6 620.8,84.0 623.6,83.7 C626.3,83.3 629.0,83.0 631.8,82.8 C634.5,82.6 638.6,82.5 640.0,82.4" fill="none" class="line-total" stroke-width="2.5" stroke-linecap="round" stroke-linejoin="round"/>

  <circle cx="640" cy="82.4" r="4.5" class="dot-total" stroke-width="2"/>
    <text x="658" y="86.4" class="end-label" font-family="-apple-system, BlinkMacSystemFont, 'Segoe UI', Helvetica, sans-serif">Total</text>
    <text x="697" y="86.4" class="end-value" font-family="-apple-system, BlinkMacSystemFont, 'Segoe UI', Helvetica, sans-serif">2.4k</text>
    <circle cx="640" cy="93.86666666666667" r="3.5" class="dot-openvsx" stroke-width="1.8"/>
    <text x="658" y="104.4" class="end-label" font-family="-apple-system, BlinkMacSystemFont, 'Segoe UI', Helvetica, sans-serif">Open VSX</text>
    <text x="716.8" y="104.4" class="end-value" font-family="-apple-system, BlinkMacSystemFont, 'Segoe UI', Helvetica, sans-serif">2.2k</text>
    <circle cx="640" cy="208.53333333333333" r="3.5" class="dot-vscode" stroke-width="1.8"/>
    <text x="658" y="212.53333333333333" class="end-label" font-family="-apple-system, BlinkMacSystemFont, 'Segoe UI', Helvetica, sans-serif">VS Code</text>
    <text x="710.2" y="212.53333333333333" class="end-value" font-family="-apple-system, BlinkMacSystemFont, 'Segoe UI', Helvetica, sans-serif">200</text>
</svg>