<svg xmlns="http://www.w3.org/2000/svg" viewBox="0 0 760 260" width="760" height="260" role="img" aria-label="Glassy install history">
  <style>
  svg { color-scheme: light dark; }
  .title      { fill: #1a1a2e; font-size: 15px; font-weight: 600; }
  .subtitle   { fill: #6b7280; font-size: 11px; font-weight: 400; }
  .grid       { stroke: #e8e8ee; }
  .axis-label { fill: #8a8a9a; font-size: 10px; }
  .line-total   { stroke: #e8553d; }
  .line-vscode  { stroke: #5b7cfa; }
  .line-openvsx { stroke: #34c7a0; }
  .dot-total   { fill: transparent; stroke: #e8553d; }
  .dot-vscode  { fill: transparent; stroke: #5b7cfa; }
  .dot-openvsx { fill: transparent; stroke: #34c7a0; }
  .end-label       { fill: #1a1a2e; font-size: 11px; font-weight: 600; }
  .end-value       { fill: #6b7280; font-size: 11px; font-weight: 400; }
  .area-total-top    { stop-color: #e8553d; }
  .area-total-bottom { stop-color: #e8553d; }

  @media (prefers-color-scheme: dark) {
    .title      { fill: #e2e2e8; }
    .subtitle   { fill: #8b949e; }
    .grid       { stroke: #2d2d3d; }
    .axis-label { fill: #6e7681; }
    .line-total   { stroke: #ff9b85; }
    .line-vscode  { stroke: #8da4ff; }
    .line-openvsx { stroke: #5eead4; }
    .dot-total   { stroke: #ff9b85; }
    .dot-vscode  { stroke: #8da4ff; }
    .dot-openvsx { stroke: #5eead4; }
    .end-label       { fill: #e2e2e8; }
    .end-value       { fill: #8b949e; }
    .area-total-top    { stop-color: #ff9b85; }
    .area-total-bottom { stop-color: #ff9b85; }
  }
</style>
  <defs>
    <linearGradient id="areaGrad" x1="0" y1="0" x2="0" y2="1">
      <stop offset="0%" class="area-total-top" stop-opacity="0.18"/>
      <stop offset="60%" class="area-total-bottom" stop-opacity="0.04"/>
      <stop offset="100%" class="area-total-bottom" stop-opacity="0"/>
    </linearGradient>
  </defs>

  <text x="48" y="22" class="title" font-family="-apple-system, BlinkMacSystemFont, 'Segoe UI', Helvetica, sans-serif">Installs</text>
  <text x="48" y="37" class="subtitle" font-family="-apple-system, BlinkMacSystemFont, 'Segoe UI', Helvetica, sans-serif">Updated Jun 30</text>

  <line x1="48" y1="220" x2="640" y2="220" class="grid" stroke-width="0.7"/>
    <text x="40" y="223.5" class="axis-label" text-anchor="end" font-family="-apple-system, BlinkMacSystemFont, 'Segoe UI', Helvetica, sans-serif">0</text>
    <line x1="48" y1="162.66666666666669" x2="640" y2="162.66666666666669" class="grid" stroke-width="0.7"/>
    <text x="40" y="166.16666666666669" class="axis-label" text-anchor="end" font-family="-apple-system, BlinkMacSystemFont, 'Segoe UI', Helvetica, sans-serif">1k</text>
    <line x1="48" y1="105.33333333333334" x2="640" y2="105.33333333333334" class="grid" stroke-width="0.7"/>
    <text x="40" y="108.83333333333334" class="axis-label" text-anchor="end" font-family="-apple-system, BlinkMacSystemFont, 'Segoe UI', Helvetica, sans-serif">2k</text>
    <line x1="48" y1="48" x2="640" y2="48" class="grid" stroke-width="0.7"/>
    <text x="40" y="51.5" class="axis-label" text-anchor="end" font-family="-apple-system, BlinkMacSystemFont, 'Segoe UI', Helvetica, sans-serif">3k</text>
  <text x="48" y="248" class="axis-label" text-anchor="middle" font-family="-apple-system, BlinkMacSystemFont, 'Segoe UI', Helvetica, sans-serif">Mar 27</text>
    <text x="164.6060606060606" y="248" class="axis-label" text-anchor="middle" font-family="-apple-system, BlinkMacSystemFont, 'Segoe UI', Helvetica, sans-serif">May 8</text>
    <text x="281.2121212121212" y="248" class="axis-label" text-anchor="middle" font-family="-apple-system, BlinkMacSystemFont, 'Segoe UI', Helvetica, sans-serif">May 21</text>
    <text x="406.7878787878788" y="248" class="axis-label" text-anchor="middle" font-family="-apple-system, BlinkMacSystemFont, 'Segoe UI', Helvetica, sans-serif">Jun 4</text>
    <text x="523.3939393939394" y="248" class="axis-label" text-anchor="middle" font-family="-apple-system, BlinkMacSystemFont, 'Segoe UI', Helvetica, sans-serif">Jun 17</text>
    <text x="640" y="248" class="axis-label" text-anchor="middle" font-family="-apple-system, BlinkMacSystemFont, 'Segoe UI', Helvetica, sans-serif">Jun 30</text>

  <path d="M48.0,219.8 C49.5,218.4 54.0,213.7 57.0,211.7 C60.0,209.7 62.9,209.1 65.9,207.7 C68.9,206.4 71.9,204.4 74.9,203.7 C77.9,203.0 80.9,205.0 83.9,203.5 C86.9,202.0 89.9,196.6 92.8,194.9 C95.8,193.2 98.8,200.1 101.8,193.2 C104.8,186.2 107.8,160.3 110.8,153.3 C113.8,146.3 116.8,151.7 119.8,151.3 C122.7,150.8 125.7,150.7 128.7,150.5 C131.7,150.3 134.7,150.2 137.7,150.1 C140.7,150.0 143.7,149.9 146.7,149.7 C149.7,149.5 152.6,149.1 155.6,148.7 C158.6,148.2 161.6,147.4 164.6,147.0 C167.6,146.5 170.6,146.3 173.6,146.1 C176.6,145.9 179.6,146.0 182.5,145.6 C185.5,145.2 188.5,144.1 191.5,143.6 C194.5,143.1 197.5,142.9 200.5,142.6 C203.5,142.3 206.5,142.0 209.5,141.7 C212.4,141.4 215.4,141.4 218.4,140.8 C221.4,140.2 224.4,138.7 227.4,138.0 C230.4,137.4 233.4,137.2 236.4,136.9 C239.4,136.6 242.3,136.4 245.3,136.2 C248.3,136.1 251.3,136.5 254.3,136.1 C257.3,135.7 260.3,134.4 263.3,133.8 C266.3,133.2 269.3,133.0 272.2,132.5 C275.2,132.1 278.2,131.8 281.2,131.1 C284.2,130.4 287.2,129.0 290.2,128.3 C293.2,127.6 296.2,127.3 299.2,126.9 C302.1,126.5 305.1,126.3 308.1,126.0 C311.1,125.8 314.1,125.8 317.1,125.3 C320.1,124.9 323.1,124.0 326.1,123.6 C329.1,123.1 332.0,122.8 335.0,122.5 C338.0,122.2 341.0,122.0 344.0,121.7 C347.0,121.5 350.0,121.3 353.0,121.1 C356.0,120.9 358.9,120.6 361.9,120.4 C364.9,120.3 367.9,120.3 370.9,120.2 C373.9,120.2 376.9,121.0 379.9,120.2 C382.9,119.4 385.9,116.5 388.8,115.5 C391.8,114.5 394.8,114.6 397.8,114.2 C400.8,113.7 403.8,113.3 406.8,112.8 C409.8,112.4 412.8,111.9 415.8,111.6 C418.7,111.3 421.7,111.2 424.7,111.0 C427.7,110.8 430.7,110.4 433.7,110.2 C436.7,110.0 439.7,110.1 442.7,109.7 C445.7,109.4 448.6,108.6 451.6,108.1 C454.6,107.7 457.6,107.6 460.6,107.2 C463.6,106.9 466.6,106.4 469.6,106.2 C472.6,105.9 475.6,106.0 478.5,105.7 C481.5,105.5 484.5,104.8 487.5,104.5 C490.5,104.2 493.5,104.2 496.5,104.0 C499.5,103.7 502.5,103.5 505.5,103.2 C508.4,102.9 511.4,102.5 514.4,102.2 C517.4,101.9 520.4,101.5 523.4,101.2 C526.4,100.9 529.4,100.8 532.4,100.3 C535.4,99.9 538.3,99.2 541.3,98.7 C544.3,98.3 547.3,98.1 550.3,97.7 C553.3,97.4 556.3,97.0 559.3,96.6 C562.3,96.3 565.3,95.9 568.2,95.5 C571.2,95.2 574.2,94.8 577.2,94.6 C580.2,94.3 583.2,94.2 586.2,93.8 C589.2,93.4 592.2,92.9 595.2,92.4 C598.1,91.9 601.1,91.2 604.1,90.8 C607.1,90.5 610.1,90.5 613.1,90.3 C616.1,90.1 619.1,90.0 622.1,89.8 C625.1,89.6 628.0,89.3 631.0,88.9 C634.0,88.6 638.5,88.1 640.0,87.9 L640.0,220.0 L48.0,220.0 Z" fill="url(#areaGrad)"/>
  <path d="M48.0,219.8 C49.5,218.5 54.0,213.8 57.0,211.9 C60.0,210.0 62.9,209.5 65.9,208.4 C68.9,207.3 71.9,205.6 74.9,205.1 C77.9,204.5 80.9,206.5 83.9,205.1 C86.9,203.7 89.9,198.4 92.8,196.8 C95.8,195.2 98.8,201.7 101.8,195.5 C104.8,189.2 107.8,165.5 110.8,159.1 C113.8,152.7 116.8,157.7 119.8,157.3 C122.7,156.9 125.7,156.8 128.7,156.7 C131.7,156.6 134.7,156.6 137.7,156.5 C140.7,156.4 143.7,156.4 146.7,156.1 C149.7,155.9 152.6,155.6 155.6,155.1 C158.6,154.6 161.6,153.7 164.6,153.4 C167.6,153.0 170.6,153.1 173.6,152.9 C176.6,152.8 179.6,153.0 182.5,152.6 C185.5,152.2 188.5,151.1 191.5,150.6 C194.5,150.1 197.5,150.0 200.5,149.7 C203.5,149.4 206.5,149.2 209.5,148.9 C212.4,148.6 215.4,148.6 218.4,148.0 C221.4,147.4 224.4,145.9 227.4,145.2 C230.4,144.6 233.4,144.5 236.4,144.2 C239.4,143.9 242.3,143.7 245.3,143.5 C248.3,143.4 251.3,143.8 254.3,143.4 C257.3,143.0 260.3,141.8 263.3,141.2 C266.3,140.7 269.3,140.5 272.2,140.1 C275.2,139.7 278.2,139.6 281.2,138.9 C284.2,138.3 287.2,136.9 290.2,136.3 C293.2,135.6 296.2,135.4 299.2,135.0 C302.1,134.7 305.1,134.5 308.1,134.2 C311.1,134.0 314.1,134.0 317.1,133.7 C320.1,133.3 323.1,132.5 326.1,132.1 C329.1,131.6 332.0,131.4 335.0,131.1 C338.0,130.9 341.0,130.6 344.0,130.4 C347.0,130.3 350.0,130.2 353.0,130.0 C356.0,129.8 358.9,129.5 361.9,129.4 C364.9,129.3 367.9,129.4 370.9,129.4 C373.9,129.4 376.9,130.2 379.9,129.4 C382.9,128.7 385.9,125.9 388.8,124.9 C391.8,124.0 394.8,124.0 397.8,123.6 C400.8,123.1 403.8,122.7 406.8,122.3 C409.8,121.9 412.8,121.3 415.8,121.0 C418.7,120.7 421.7,120.7 424.7,120.5 C427.7,120.2 430.7,119.9 433.7,119.7 C436.7,119.5 439.7,119.6 442.7,119.2 C445.7,118.9 448.6,118.0 451.6,117.6 C454.6,117.2 457.6,117.0 460.6,116.7 C463.6,116.4 466.6,115.9 469.6,115.7 C472.6,115.4 475.6,115.5 478.5,115.2 C481.5,114.9 484.5,114.3 487.5,114.0 C490.5,113.8 493.5,113.8 496.5,113.6 C499.5,113.4 502.5,113.2 505.5,112.9 C508.4,112.6 511.4,112.3 514.4,112.0 C517.4,111.7 520.4,111.4 523.4,111.1 C526.4,110.8 529.4,110.6 532.4,110.3 C535.4,109.9 538.3,109.2 541.3,108.8 C544.3,108.4 547.3,108.2 550.3,107.9 C553.3,107.5 556.3,107.2 559.3,106.8 C562.3,106.5 565.3,106.1 568.2,105.8 C571.2,105.5 574.2,105.1 577.2,104.9 C580.2,104.6 583.2,104.5 586.2,104.2 C589.2,103.8 592.2,103.3 595.2,102.8 C598.1,102.3 601.1,101.6 604.1,101.3 C607.1,101.0 610.1,101.0 613.1,100.9 C616.1,100.7 619.1,100.6 622.1,100.4 C625.1,100.2 628.0,99.9 631.0,99.6 C634.0,99.3 638.5,98.8 640.0,98.7" fill="none" class="line-openvsx" stroke-width="1.8" stroke-linecap="round" stroke-linejoin="round"/>
  <path d="M48.0,219.9 C49.5,219.9 54.0,219.9 57.0,219.8 C60.0,219.7 62.9,219.5 65.9,219.3 C68.9,219.1 71.9,218.8 74.9,218.6 C77.9,218.5 80.9,218.5 83.9,218.4 C86.9,218.3 89.9,218.2 92.8,218.1 C95.8,217.9 98.8,218.3 101.8,217.7 C104.8,217.1 107.8,214.8 110.8,214.2 C113.8,213.6 116.8,214.0 119.8,214.0 C122.7,213.9 125.7,213.9 128.7,213.8 C131.7,213.8 134.7,213.7 137.7,213.6 C140.7,213.6 143.7,213.6 146.7,213.6 C149.7,213.6 152.6,213.6 155.6,213.6 C158.6,213.6 161.6,213.6 164.6,213.6 C167.6,213.5 170.6,213.3 173.6,213.2 C176.6,213.1 179.6,213.1 182.5,213.1 C185.5,213.0 188.5,213.0 191.5,213.0 C194.5,213.0 197.5,212.9 200.5,212.9 C203.5,212.9 206.5,212.8 209.5,212.8 C212.4,212.8 215.4,212.8 218.4,212.8 C221.4,212.8 224.4,212.8 227.4,212.8 C230.4,212.8 233.4,212.7 236.4,212.7 C239.4,212.7 242.3,212.7 245.3,212.7 C248.3,212.7 251.3,212.7 254.3,212.7 C257.3,212.6 260.3,212.6 263.3,212.5 C266.3,212.5 269.3,212.5 272.2,212.4 C275.2,212.4 278.2,212.2 281.2,212.1 C284.2,212.1 287.2,212.0 290.2,212.0 C293.2,211.9 296.2,211.9 299.2,211.9 C302.1,211.8 305.1,211.8 308.1,211.8 C311.1,211.8 314.1,211.7 317.1,211.7 C320.1,211.6 323.1,211.6 326.1,211.5 C329.1,211.5 332.0,211.4 335.0,211.4 C338.0,211.4 341.0,211.3 344.0,211.3 C347.0,211.2 350.0,211.2 353.0,211.1 C356.0,211.1 358.9,211.0 361.9,211.0 C364.9,211.0 367.9,210.9 370.9,210.8 C373.9,210.8 376.9,210.8 379.9,210.8 C382.9,210.7 385.9,210.6 388.8,210.6 C391.8,210.6 394.8,210.6 397.8,210.6 C400.8,210.6 403.8,210.5 406.8,210.5 C409.8,210.5 412.8,210.5 415.8,210.5 C418.7,210.5 421.7,210.5 424.7,210.5 C427.7,210.5 430.7,210.5 433.7,210.5 C436.7,210.5 439.7,210.5 442.7,210.5 C445.7,210.5 448.6,210.5 451.6,210.5 C454.6,210.5 457.6,210.5 460.6,210.5 C463.6,210.5 466.6,210.5 469.6,210.5 C472.6,210.5 475.6,210.5 478.5,210.5 C481.5,210.5 484.5,210.5 487.5,210.5 C490.5,210.5 493.5,210.4 496.5,210.4 C499.5,210.3 502.5,210.3 505.5,210.3 C508.4,210.2 511.4,210.2 514.4,210.2 C517.4,210.2 520.4,210.2 523.4,210.1 C526.4,210.1 529.4,210.1 532.4,210.1 C535.4,210.1 538.3,210.0 541.3,210.0 C544.3,209.9 547.3,209.9 550.3,209.9 C553.3,209.8 556.3,209.8 559.3,209.8 C562.3,209.8 565.3,209.8 568.2,209.7 C571.2,209.7 574.2,209.7 577.2,209.7 C580.2,209.7 583.2,209.6 586.2,209.6 C589.2,209.6 592.2,209.6 595.2,209.6 C598.1,209.5 601.1,209.5 604.1,209.5 C607.1,209.5 610.1,209.5 613.1,209.5 C616.1,209.4 619.1,209.4 622.1,209.4 C625.1,209.4 628.0,209.4 631.0,209.3 C634.0,209.3 638.5,209.2 640.0,209.2" fill="none" class="line-vscode" stroke-width="1.8" stroke-linecap="round" stroke-linejoin="round"/>
  <path d="M48.0,219.8 C49.5,218.4 54.0,213.7 57.0,211.7 C60.0,209.7 62.9,209.1 65.9,207.7 C68.9,206.4 71.9,204.4 74.9,203.7 C77.9,203.0 80.9,205.0 83.9,203.5 C86.9,202.0 89.9,196.6 92.8,194.9 C95.8,193.2 98.8,200.1 101.8,193.2 C104.8,186.2 107.8,160.3 110.8,153.3 C113.8,146.3 116.8,151.7 119.8,151.3 C122.7,150.8 125.7,150.7 128.7,150.5 C131.7,150.3 134.7,150.2 137.7,150.1 C140.7,150.0 143.7,149.9 146.7,149.7 C149.7,149.5 152.6,149.1 155.6,148.7 C158.6,148.2 161.6,147.4 164.6,147.0 C167.6,146.5 170.6,146.3 173.6,146.1 C176.6,145.9 179.6,146.0 182.5,145.6 C185.5,145.2 188.5,144.1 191.5,143.6 C194.5,143.1 197.5,142.9 200.5,142.6 C203.5,142.3 206.5,142.0 209.5,141.7 C212.4,141.4 215.4,141.4 218.4,140.8 C221.4,140.2 224.4,138.7 227.4,138.0 C230.4,137.4 233.4,137.2 236.4,136.9 C239.4,136.6 242.3,136.4 245.3,136.2 C248.3,136.1 251.3,136.5 254.3,136.1 C257.3,135.7 260.3,134.4 263.3,133.8 C266.3,133.2 269.3,133.0 272.2,132.5 C275.2,132.1 278.2,131.8 281.2,131.1 C284.2,130.4 287.2,129.0 290.2,128.3 C293.2,127.6 296.2,127.3 299.2,126.9 C302.1,126.5 305.1,126.3 308.1,126.0 C311.1,125.8 314.1,125.8 317.1,125.3 C320.1,124.9 323.1,124.0 326.1,123.6 C329.1,123.1 332.0,122.8 335.0,122.5 C338.0,122.2 341.0,122.0 344.0,121.7 C347.0,121.5 350.0,121.3 353.0,121.1 C356.0,120.9 358.9,120.6 361.9,120.4 C364.9,120.3 367.9,120.3 370.9,120.2 C373.9,120.2 376.9,121.0 379.9,120.2 C382.9,119.4 385.9,116.5 388.8,115.5 C391.8,114.5 394.8,114.6 397.8,114.2 C400.8,113.7 403.8,113.3 406.8,112.8 C409.8,112.4 412.8,111.9 415.8,111.6 C418.7,111.3 421.7,111.2 424.7,111.0 C427.7,110.8 430.7,110.4 433.7,110.2 C436.7,110.0 439.7,110.1 442.7,109.7 C445.7,109.4 448.6,108.6 451.6,108.1 C454.6,107.7 457.6,107.6 460.6,107.2 C463.6,106.9 466.6,106.4 469.6,106.2 C472.6,105.9 475.6,106.0 478.5,105.7 C481.5,105.5 484.5,104.8 487.5,104.5 C490.5,104.2 493.5,104.2 496.5,104.0 C499.5,103.7 502.5,103.5 505.5,103.2 C508.4,102.9 511.4,102.5 514.4,102.2 C517.4,101.9 520.4,101.5 523.4,101.2 C526.4,100.9 529.4,100.8 532.4,100.3 C535.4,99.9 538.3,99.2 541.3,98.7 C544.3,98.3 547.3,98.1 550.3,97.7 C553.3,97.4 556.3,97.0 559.3,96.6 C562.3,96.3 565.3,95.9 568.2,95.5 C571.2,95.2 574.2,94.8 577.2,94.6 C580.2,94.3 583.2,94.2 586.2,93.8 C589.2,93.4 592.2,92.9 595.2,92.4 C598.1,91.9 601.1,91.2 604.1,90.8 C607.1,90.5 610.1,90.5 613.1,90.3 C616.1,90.1 619.1,90.0 622.1,89.8 C625.1,89.6 628.0,89.3 631.0,88.9 C634.0,88.6 638.5,88.1 640.0,87.9" fill="none" class="line-total" stroke-width="2.5" stroke-linecap="round" stroke-linejoin="round"/>

  <circle cx="640" cy="87.904" r="4.5" class="dot-total" stroke-width="2"/>
    <text x="658" y="91.904" class="end-label" font-family="-apple-system, BlinkMacSystemFont, 'Segoe UI', Helvetica, sans-serif">Total</text>
    <text x="697" y="91.904" class="end-value" font-family="-apple-system, BlinkMacSystemFont, 'Segoe UI', Helvetica, sans-serif">2.3k</text>
    <circle cx="640" cy="98.68266666666666" r="3.5" class="dot-openvsx" stroke-width="1.8"/>
    <text x="658" y="109.904" class="end-label" font-family="-apple-system, BlinkMacSystemFont, 'Segoe UI', Helvetica, sans-serif">Open VSX</text>
    <text x="716.8" y="109.904" class="end-value" font-family="-apple-system, BlinkMacSystemFont, 'Segoe UI', Helvetica, sans-serif">2.1k</text>
    <circle cx="640" cy="209.22133333333335" r="3.5" class="dot-vscode" stroke-width="1.8"/>
    <text x="658" y="213.22133333333335" class="end-label" font-family="-apple-system, BlinkMacSystemFont, 'Segoe UI', Helvetica, sans-serif">VS Code</text>
    <text x="710.2" y="213.22133333333335" class="end-value" font-family="-apple-system, BlinkMacSystemFont, 'Segoe UI', Helvetica, sans-serif">188</text>
</svg>