<svg xmlns="http://www.w3.org/2000/svg" viewBox="0 0 760 260" width="760" height="260" role="img" aria-label="Glassy install history">
  <style>
  svg { color-scheme: light dark; }
  .title      { fill: #1a1a2e; font-size: 15px; font-weight: 600; }
  .subtitle   { fill: #6b7280; font-size: 11px; font-weight: 400; }
  .grid       { stroke: #e8e8ee; }
  .axis-label { fill: #8a8a9a; font-size: 10px; }
  .line-total   { stroke: #e8553d; }
  .line-vscode  { stroke: #5b7cfa; }
  .line-openvsx { stroke: #34c7a0; }
  .dot-total   { fill: transparent; stroke: #e8553d; }
  .dot-vscode  { fill: transparent; stroke: #5b7cfa; }
  .dot-openvsx { fill: transparent; stroke: #34c7a0; }
  .end-label       { fill: #1a1a2e; font-size: 11px; font-weight: 600; }
  .end-value       { fill: #6b7280; font-size: 11px; font-weight: 400; }
  .area-total-top    { stop-color: #e8553d; }
  .area-total-bottom { stop-color: #e8553d; }

  @media (prefers-color-scheme: dark) {
    .title      { fill: #e2e2e8; }
    .subtitle   { fill: #8b949e; }
    .grid       { stroke: #2d2d3d; }
    .axis-label { fill: #6e7681; }
    .line-total   { stroke: #ff9b85; }
    .line-vscode  { stroke: #8da4ff; }
    .line-openvsx { stroke: #5eead4; }
    .dot-total   { stroke: #ff9b85; }
    .dot-vscode  { stroke: #8da4ff; }
    .dot-openvsx { stroke: #5eead4; }
    .end-label       { fill: #e2e2e8; }
    .end-value       { fill: #8b949e; }
    .area-total-top    { stop-color: #ff9b85; }
    .area-total-bottom { stop-color: #ff9b85; }
  }
</style>
  <defs>
    <linearGradient id="areaGrad" x1="0" y1="0" x2="0" y2="1">
      <stop offset="0%" class="area-total-top" stop-opacity="0.18"/>
      <stop offset="60%" class="area-total-bottom" stop-opacity="0.04"/>
      <stop offset="100%" class="area-total-bottom" stop-opacity="0"/>
    </linearGradient>
  </defs>

  <text x="48" y="22" class="title" font-family="-apple-system, BlinkMacSystemFont, 'Segoe UI', Helvetica, sans-serif">Installs</text>
  <text x="48" y="37" class="subtitle" font-family="-apple-system, BlinkMacSystemFont, 'Segoe UI', Helvetica, sans-serif">Updated Jun 24</text>

  <line x1="48" y1="220" x2="640" y2="220" class="grid" stroke-width="0.7"/>
    <text x="40" y="223.5" class="axis-label" text-anchor="end" font-family="-apple-system, BlinkMacSystemFont, 'Segoe UI', Helvetica, sans-serif">0</text>
    <line x1="48" y1="162.66666666666669" x2="640" y2="162.66666666666669" class="grid" stroke-width="0.7"/>
    <text x="40" y="166.16666666666669" class="axis-label" text-anchor="end" font-family="-apple-system, BlinkMacSystemFont, 'Segoe UI', Helvetica, sans-serif">1k</text>
    <line x1="48" y1="105.33333333333334" x2="640" y2="105.33333333333334" class="grid" stroke-width="0.7"/>
    <text x="40" y="108.83333333333334" class="axis-label" text-anchor="end" font-family="-apple-system, BlinkMacSystemFont, 'Segoe UI', Helvetica, sans-serif">2k</text>
    <line x1="48" y1="48" x2="640" y2="48" class="grid" stroke-width="0.7"/>
    <text x="40" y="51.5" class="axis-label" text-anchor="end" font-family="-apple-system, BlinkMacSystemFont, 'Segoe UI', Helvetica, sans-serif">3k</text>
  <text x="48" y="248" class="axis-label" text-anchor="middle" font-family="-apple-system, BlinkMacSystemFont, 'Segoe UI', Helvetica, sans-serif">Mar 27</text>
    <text x="166.4" y="248" class="axis-label" text-anchor="middle" font-family="-apple-system, BlinkMacSystemFont, 'Segoe UI', Helvetica, sans-serif">May 7</text>
    <text x="284.8" y="248" class="axis-label" text-anchor="middle" font-family="-apple-system, BlinkMacSystemFont, 'Segoe UI', Helvetica, sans-serif">May 19</text>
    <text x="403.2" y="248" class="axis-label" text-anchor="middle" font-family="-apple-system, BlinkMacSystemFont, 'Segoe UI', Helvetica, sans-serif">May 31</text>
    <text x="521.6" y="248" class="axis-label" text-anchor="middle" font-family="-apple-system, BlinkMacSystemFont, 'Segoe UI', Helvetica, sans-serif">Jun 12</text>
    <text x="640" y="248" class="axis-label" text-anchor="middle" font-family="-apple-system, BlinkMacSystemFont, 'Segoe UI', Helvetica, sans-serif">Jun 24</text>

  <path d="M48.0,219.8 C49.6,218.4 54.6,213.7 57.9,211.7 C61.2,209.7 64.4,209.1 67.7,207.7 C71.0,206.4 74.3,204.4 77.6,203.7 C80.9,203.0 84.2,205.0 87.5,203.5 C90.8,202.0 94.0,196.6 97.3,194.9 C100.6,193.2 103.9,200.1 107.2,193.2 C110.5,186.2 113.8,160.3 117.1,153.3 C120.4,146.3 123.6,151.7 126.9,151.3 C130.2,150.8 133.5,150.7 136.8,150.5 C140.1,150.3 143.4,150.2 146.7,150.1 C150.0,150.0 153.2,149.9 156.5,149.7 C159.8,149.5 163.1,149.1 166.4,148.7 C169.7,148.2 173.0,147.4 176.3,147.0 C179.6,146.5 182.8,146.3 186.1,146.1 C189.4,145.9 192.7,146.0 196.0,145.6 C199.3,145.2 202.6,144.1 205.9,143.6 C209.2,143.1 212.4,142.9 215.7,142.6 C219.0,142.3 222.3,142.0 225.6,141.7 C228.9,141.4 232.2,141.4 235.5,140.8 C238.8,140.2 242.0,138.7 245.3,138.0 C248.6,137.4 251.9,137.2 255.2,136.9 C258.5,136.6 261.8,136.4 265.1,136.2 C268.4,136.1 271.6,136.5 274.9,136.1 C278.2,135.7 281.5,134.4 284.8,133.8 C288.1,133.2 291.4,133.0 294.7,132.5 C298.0,132.1 301.2,131.8 304.5,131.1 C307.8,130.4 311.1,129.0 314.4,128.3 C317.7,127.6 321.0,127.3 324.3,126.9 C327.6,126.5 330.8,126.3 334.1,126.0 C337.4,125.8 340.7,125.8 344.0,125.3 C347.3,124.9 350.6,124.0 353.9,123.6 C357.2,123.1 360.4,122.8 363.7,122.5 C367.0,122.2 370.3,122.0 373.6,121.7 C376.9,121.5 380.2,121.3 383.5,121.1 C386.8,120.9 390.0,120.6 393.3,120.4 C396.6,120.3 399.9,120.3 403.2,120.2 C406.5,120.2 409.8,121.0 413.1,120.2 C416.4,119.4 419.6,116.5 422.9,115.5 C426.2,114.5 429.5,114.6 432.8,114.2 C436.1,113.7 439.4,113.3 442.7,112.8 C446.0,112.4 449.2,111.9 452.5,111.6 C455.8,111.3 459.1,111.2 462.4,111.0 C465.7,110.8 469.0,110.4 472.3,110.2 C475.6,110.0 478.8,110.1 482.1,109.7 C485.4,109.4 488.7,108.6 492.0,108.1 C495.3,107.7 498.6,107.6 501.9,107.2 C505.2,106.9 508.4,106.4 511.7,106.2 C515.0,105.9 518.3,106.0 521.6,105.7 C524.9,105.5 528.2,104.8 531.5,104.5 C534.8,104.2 538.0,104.2 541.3,104.0 C544.6,103.7 547.9,103.5 551.2,103.2 C554.5,102.9 557.8,102.5 561.1,102.2 C564.4,101.9 567.6,101.5 570.9,101.2 C574.2,100.9 577.5,100.8 580.8,100.3 C584.1,99.9 587.4,99.2 590.7,98.7 C594.0,98.3 597.2,98.1 600.5,97.7 C603.8,97.4 607.1,97.0 610.4,96.6 C613.7,96.3 617.0,95.9 620.3,95.5 C623.6,95.2 626.8,94.8 630.1,94.6 C633.4,94.3 638.4,93.9 640.0,93.8 L640.0,220.0 L48.0,220.0 Z" fill="url(#areaGrad)"/>
  <path d="M48.0,219.8 C49.6,218.5 54.6,213.8 57.9,211.9 C61.2,210.0 64.4,209.5 67.7,208.4 C71.0,207.3 74.3,205.6 77.6,205.1 C80.9,204.5 84.2,206.5 87.5,205.1 C90.8,203.7 94.0,198.4 97.3,196.8 C100.6,195.2 103.9,201.7 107.2,195.5 C110.5,189.2 113.8,165.5 117.1,159.1 C120.4,152.7 123.6,157.7 126.9,157.3 C130.2,156.9 133.5,156.8 136.8,156.7 C140.1,156.6 143.4,156.6 146.7,156.5 C150.0,156.4 153.2,156.4 156.5,156.1 C159.8,155.9 163.1,155.6 166.4,155.1 C169.7,154.6 173.0,153.7 176.3,153.4 C179.6,153.0 182.8,153.1 186.1,152.9 C189.4,152.8 192.7,153.0 196.0,152.6 C199.3,152.2 202.6,151.1 205.9,150.6 C209.2,150.1 212.4,150.0 215.7,149.7 C219.0,149.4 222.3,149.2 225.6,148.9 C228.9,148.6 232.2,148.6 235.5,148.0 C238.8,147.4 242.0,145.9 245.3,145.2 C248.6,144.6 251.9,144.5 255.2,144.2 C258.5,143.9 261.8,143.7 265.1,143.5 C268.4,143.4 271.6,143.8 274.9,143.4 C278.2,143.0 281.5,141.8 284.8,141.2 C288.1,140.7 291.4,140.5 294.7,140.1 C298.0,139.7 301.2,139.6 304.5,138.9 C307.8,138.3 311.1,136.9 314.4,136.3 C317.7,135.6 321.0,135.4 324.3,135.0 C327.6,134.7 330.8,134.5 334.1,134.2 C337.4,134.0 340.7,134.0 344.0,133.7 C347.3,133.3 350.6,132.5 353.9,132.1 C357.2,131.6 360.4,131.4 363.7,131.1 C367.0,130.9 370.3,130.6 373.6,130.4 C376.9,130.3 380.2,130.2 383.5,130.0 C386.8,129.8 390.0,129.5 393.3,129.4 C396.6,129.3 399.9,129.4 403.2,129.4 C406.5,129.4 409.8,130.2 413.1,129.4 C416.4,128.7 419.6,125.9 422.9,124.9 C426.2,124.0 429.5,124.0 432.8,123.6 C436.1,123.1 439.4,122.7 442.7,122.3 C446.0,121.9 449.2,121.3 452.5,121.0 C455.8,120.7 459.1,120.7 462.4,120.5 C465.7,120.2 469.0,119.9 472.3,119.7 C475.6,119.5 478.8,119.6 482.1,119.2 C485.4,118.9 488.7,118.0 492.0,117.6 C495.3,117.2 498.6,117.0 501.9,116.7 C505.2,116.4 508.4,115.9 511.7,115.7 C515.0,115.4 518.3,115.5 521.6,115.2 C524.9,114.9 528.2,114.3 531.5,114.0 C534.8,113.8 538.0,113.8 541.3,113.6 C544.6,113.4 547.9,113.2 551.2,112.9 C554.5,112.6 557.8,112.3 561.1,112.0 C564.4,111.7 567.6,111.4 570.9,111.1 C574.2,110.8 577.5,110.6 580.8,110.3 C584.1,109.9 587.4,109.2 590.7,108.8 C594.0,108.4 597.2,108.2 600.5,107.9 C603.8,107.5 607.1,107.2 610.4,106.8 C613.7,106.5 617.0,106.1 620.3,105.8 C623.6,105.5 626.8,105.1 630.1,104.9 C633.4,104.6 638.4,104.3 640.0,104.2" fill="none" class="line-openvsx" stroke-width="1.8" stroke-linecap="round" stroke-linejoin="round"/>
  <path d="M48.0,219.9 C49.6,219.9 54.6,219.9 57.9,219.8 C61.2,219.7 64.4,219.5 67.7,219.3 C71.0,219.1 74.3,218.8 77.6,218.6 C80.9,218.5 84.2,218.5 87.5,218.4 C90.8,218.3 94.0,218.2 97.3,218.1 C100.6,217.9 103.9,218.3 107.2,217.7 C110.5,217.1 113.8,214.8 117.1,214.2 C120.4,213.6 123.6,214.0 126.9,214.0 C130.2,213.9 133.5,213.9 136.8,213.8 C140.1,213.8 143.4,213.7 146.7,213.6 C150.0,213.6 153.2,213.6 156.5,213.6 C159.8,213.6 163.1,213.6 166.4,213.6 C169.7,213.6 173.0,213.6 176.3,213.6 C179.6,213.5 182.8,213.3 186.1,213.2 C189.4,213.1 192.7,213.1 196.0,213.1 C199.3,213.0 202.6,213.0 205.9,213.0 C209.2,213.0 212.4,212.9 215.7,212.9 C219.0,212.9 222.3,212.8 225.6,212.8 C228.9,212.8 232.2,212.8 235.5,212.8 C238.8,212.8 242.0,212.8 245.3,212.8 C248.6,212.8 251.9,212.7 255.2,212.7 C258.5,212.7 261.8,212.7 265.1,212.7 C268.4,212.7 271.6,212.7 274.9,212.7 C278.2,212.6 281.5,212.6 284.8,212.5 C288.1,212.5 291.4,212.5 294.7,212.4 C298.0,212.4 301.2,212.2 304.5,212.1 C307.8,212.1 311.1,212.0 314.4,212.0 C317.7,211.9 321.0,211.9 324.3,211.9 C327.6,211.8 330.8,211.8 334.1,211.8 C337.4,211.8 340.7,211.7 344.0,211.7 C347.3,211.6 350.6,211.6 353.9,211.5 C357.2,211.5 360.4,211.4 363.7,211.4 C367.0,211.4 370.3,211.3 373.6,211.3 C376.9,211.2 380.2,211.2 383.5,211.1 C386.8,211.1 390.0,211.0 393.3,211.0 C396.6,211.0 399.9,210.9 403.2,210.8 C406.5,210.8 409.8,210.8 413.1,210.8 C416.4,210.7 419.6,210.6 422.9,210.6 C426.2,210.6 429.5,210.6 432.8,210.6 C436.1,210.6 439.4,210.5 442.7,210.5 C446.0,210.5 449.2,210.5 452.5,210.5 C455.8,210.5 459.1,210.5 462.4,210.5 C465.7,210.5 469.0,210.5 472.3,210.5 C475.6,210.5 478.8,210.5 482.1,210.5 C485.4,210.5 488.7,210.5 492.0,210.5 C495.3,210.5 498.6,210.5 501.9,210.5 C505.2,210.5 508.4,210.5 511.7,210.5 C515.0,210.5 518.3,210.5 521.6,210.5 C524.9,210.5 528.2,210.5 531.5,210.5 C534.8,210.5 538.0,210.4 541.3,210.4 C544.6,210.3 547.9,210.3 551.2,210.3 C554.5,210.2 557.8,210.2 561.1,210.2 C564.4,210.2 567.6,210.2 570.9,210.1 C574.2,210.1 577.5,210.1 580.8,210.1 C584.1,210.1 587.4,210.0 590.7,210.0 C594.0,209.9 597.2,209.9 600.5,209.9 C603.8,209.8 607.1,209.8 610.4,209.8 C613.7,209.8 617.0,209.8 620.3,209.7 C623.6,209.7 626.8,209.7 630.1,209.7 C633.4,209.7 638.4,209.6 640.0,209.6" fill="none" class="line-vscode" stroke-width="1.8" stroke-linecap="round" stroke-linejoin="round"/>
  <path d="M48.0,219.8 C49.6,218.4 54.6,213.7 57.9,211.7 C61.2,209.7 64.4,209.1 67.7,207.7 C71.0,206.4 74.3,204.4 77.6,203.7 C80.9,203.0 84.2,205.0 87.5,203.5 C90.8,202.0 94.0,196.6 97.3,194.9 C100.6,193.2 103.9,200.1 107.2,193.2 C110.5,186.2 113.8,160.3 117.1,153.3 C120.4,146.3 123.6,151.7 126.9,151.3 C130.2,150.8 133.5,150.7 136.8,150.5 C140.1,150.3 143.4,150.2 146.7,150.1 C150.0,150.0 153.2,149.9 156.5,149.7 C159.8,149.5 163.1,149.1 166.4,148.7 C169.7,148.2 173.0,147.4 176.3,147.0 C179.6,146.5 182.8,146.3 186.1,146.1 C189.4,145.9 192.7,146.0 196.0,145.6 C199.3,145.2 202.6,144.1 205.9,143.6 C209.2,143.1 212.4,142.9 215.7,142.6 C219.0,142.3 222.3,142.0 225.6,141.7 C228.9,141.4 232.2,141.4 235.5,140.8 C238.8,140.2 242.0,138.7 245.3,138.0 C248.6,137.4 251.9,137.2 255.2,136.9 C258.5,136.6 261.8,136.4 265.1,136.2 C268.4,136.1 271.6,136.5 274.9,136.1 C278.2,135.7 281.5,134.4 284.8,133.8 C288.1,133.2 291.4,133.0 294.7,132.5 C298.0,132.1 301.2,131.8 304.5,131.1 C307.8,130.4 311.1,129.0 314.4,128.3 C317.7,127.6 321.0,127.3 324.3,126.9 C327.6,126.5 330.8,126.3 334.1,126.0 C337.4,125.8 340.7,125.8 344.0,125.3 C347.3,124.9 350.6,124.0 353.9,123.6 C357.2,123.1 360.4,122.8 363.7,122.5 C367.0,122.2 370.3,122.0 373.6,121.7 C376.9,121.5 380.2,121.3 383.5,121.1 C386.8,120.9 390.0,120.6 393.3,120.4 C396.6,120.3 399.9,120.3 403.2,120.2 C406.5,120.2 409.8,121.0 413.1,120.2 C416.4,119.4 419.6,116.5 422.9,115.5 C426.2,114.5 429.5,114.6 432.8,114.2 C436.1,113.7 439.4,113.3 442.7,112.8 C446.0,112.4 449.2,111.9 452.5,111.6 C455.8,111.3 459.1,111.2 462.4,111.0 C465.7,110.8 469.0,110.4 472.3,110.2 C475.6,110.0 478.8,110.1 482.1,109.7 C485.4,109.4 488.7,108.6 492.0,108.1 C495.3,107.7 498.6,107.6 501.9,107.2 C505.2,106.9 508.4,106.4 511.7,106.2 C515.0,105.9 518.3,106.0 521.6,105.7 C524.9,105.5 528.2,104.8 531.5,104.5 C534.8,104.2 538.0,104.2 541.3,104.0 C544.6,103.7 547.9,103.5 551.2,103.2 C554.5,102.9 557.8,102.5 561.1,102.2 C564.4,101.9 567.6,101.5 570.9,101.2 C574.2,100.9 577.5,100.8 580.8,100.3 C584.1,99.9 587.4,99.2 590.7,98.7 C594.0,98.3 597.2,98.1 600.5,97.7 C603.8,97.4 607.1,97.0 610.4,96.6 C613.7,96.3 617.0,95.9 620.3,95.5 C623.6,95.2 626.8,94.8 630.1,94.6 C633.4,94.3 638.4,93.9 640.0,93.8" fill="none" class="line-total" stroke-width="2.5" stroke-linecap="round" stroke-linejoin="round"/>

  <circle cx="640" cy="93.80933333333333" r="4.5" class="dot-total" stroke-width="2"/>
    <text x="658" y="97.80933333333333" class="end-label" font-family="-apple-system, BlinkMacSystemFont, 'Segoe UI', Helvetica, sans-serif">Total</text>
    <text x="697" y="97.80933333333333" class="end-value" font-family="-apple-system, BlinkMacSystemFont, 'Segoe UI', Helvetica, sans-serif">2.2k</text>
    <circle cx="640" cy="104.18666666666667" r="3.5" class="dot-openvsx" stroke-width="1.8"/>
    <text x="658" y="115.80933333333333" class="end-label" font-family="-apple-system, BlinkMacSystemFont, 'Segoe UI', Helvetica, sans-serif">Open VSX</text>
    <text x="716.8" y="115.80933333333333" class="end-value" font-family="-apple-system, BlinkMacSystemFont, 'Segoe UI', Helvetica, sans-serif">2k</text>
    <circle cx="640" cy="209.62266666666667" r="3.5" class="dot-vscode" stroke-width="1.8"/>
    <text x="658" y="213.62266666666667" class="end-label" font-family="-apple-system, BlinkMacSystemFont, 'Segoe UI', Helvetica, sans-serif">VS Code</text>
    <text x="710.2" y="213.62266666666667" class="end-value" font-family="-apple-system, BlinkMacSystemFont, 'Segoe UI', Helvetica, sans-serif">181</text>
</svg>