<svg xmlns="http://www.w3.org/2000/svg" viewBox="0 0 760 260" width="760" height="260" role="img" aria-label="Glassy install history">
  <style>
  svg { color-scheme: light dark; }
  .title      { fill: #1a1a2e; font-size: 15px; font-weight: 600; }
  .subtitle   { fill: #6b7280; font-size: 11px; font-weight: 400; }
  .grid       { stroke: #e8e8ee; }
  .axis-label { fill: #8a8a9a; font-size: 10px; }
  .line-total   { stroke: #e8553d; }
  .line-vscode  { stroke: #5b7cfa; }
  .line-openvsx { stroke: #34c7a0; }
  .dot-total   { fill: transparent; stroke: #e8553d; }
  .dot-vscode  { fill: transparent; stroke: #5b7cfa; }
  .dot-openvsx { fill: transparent; stroke: #34c7a0; }
  .end-label       { fill: #1a1a2e; font-size: 11px; font-weight: 600; }
  .end-value       { fill: #6b7280; font-size: 11px; font-weight: 400; }
  .area-total-top    { stop-color: #e8553d; }
  .area-total-bottom { stop-color: #e8553d; }

  @media (prefers-color-scheme: dark) {
    .title      { fill: #e2e2e8; }
    .subtitle   { fill: #8b949e; }
    .grid       { stroke: #2d2d3d; }
    .axis-label { fill: #6e7681; }
    .line-total   { stroke: #ff9b85; }
    .line-vscode  { stroke: #8da4ff; }
    .line-openvsx { stroke: #5eead4; }
    .dot-total   { stroke: #ff9b85; }
    .dot-vscode  { stroke: #8da4ff; }
    .dot-openvsx { stroke: #5eead4; }
    .end-label       { fill: #e2e2e8; }
    .end-value       { fill: #8b949e; }
    .area-total-top    { stop-color: #ff9b85; }
    .area-total-bottom { stop-color: #ff9b85; }
  }
</style>
  <defs>
    <linearGradient id="areaGrad" x1="0" y1="0" x2="0" y2="1">
      <stop offset="0%" class="area-total-top" stop-opacity="0.18"/>
      <stop offset="60%" class="area-total-bottom" stop-opacity="0.04"/>
      <stop offset="100%" class="area-total-bottom" stop-opacity="0"/>
    </linearGradient>
  </defs>

  <text x="48" y="22" class="title" font-family="-apple-system, BlinkMacSystemFont, 'Segoe UI', Helvetica, sans-serif">Installs</text>
  <text x="48" y="37" class="subtitle" font-family="-apple-system, BlinkMacSystemFont, 'Segoe UI', Helvetica, sans-serif">Updated Jul 23</text>

  <line x1="48" y1="220" x2="640" y2="220" class="grid" stroke-width="0.7"/>
    <text x="40" y="223.5" class="axis-label" text-anchor="end" font-family="-apple-system, BlinkMacSystemFont, 'Segoe UI', Helvetica, sans-serif">0</text>
    <line x1="48" y1="162.66666666666669" x2="640" y2="162.66666666666669" class="grid" stroke-width="0.7"/>
    <text x="40" y="166.16666666666669" class="axis-label" text-anchor="end" font-family="-apple-system, BlinkMacSystemFont, 'Segoe UI', Helvetica, sans-serif">1k</text>
    <line x1="48" y1="105.33333333333334" x2="640" y2="105.33333333333334" class="grid" stroke-width="0.7"/>
    <text x="40" y="108.83333333333334" class="axis-label" text-anchor="end" font-family="-apple-system, BlinkMacSystemFont, 'Segoe UI', Helvetica, sans-serif">2k</text>
    <line x1="48" y1="48" x2="640" y2="48" class="grid" stroke-width="0.7"/>
    <text x="40" y="51.5" class="axis-label" text-anchor="end" font-family="-apple-system, BlinkMacSystemFont, 'Segoe UI', Helvetica, sans-serif">3k</text>
  <text x="48" y="248" class="axis-label" text-anchor="middle" font-family="-apple-system, BlinkMacSystemFont, 'Segoe UI', Helvetica, sans-serif">Mar 27</text>
    <text x="167.7303370786517" y="248" class="axis-label" text-anchor="middle" font-family="-apple-system, BlinkMacSystemFont, 'Segoe UI', Helvetica, sans-serif">May 13</text>
    <text x="287.4606741573034" y="248" class="axis-label" text-anchor="middle" font-family="-apple-system, BlinkMacSystemFont, 'Segoe UI', Helvetica, sans-serif">May 31</text>
    <text x="400.53932584269666" y="248" class="axis-label" text-anchor="middle" font-family="-apple-system, BlinkMacSystemFont, 'Segoe UI', Helvetica, sans-serif">Jun 17</text>
    <text x="520.2696629213483" y="248" class="axis-label" text-anchor="middle" font-family="-apple-system, BlinkMacSystemFont, 'Segoe UI', Helvetica, sans-serif">Jul 5</text>
    <text x="640" y="248" class="axis-label" text-anchor="middle" font-family="-apple-system, BlinkMacSystemFont, 'Segoe UI', Helvetica, sans-serif">Jul 23</text>

  <path d="M48.0,219.8 C49.1,218.4 52.4,213.7 54.7,211.7 C56.9,209.7 59.1,209.1 61.3,207.7 C63.5,206.4 65.7,204.4 68.0,203.7 C70.2,203.0 72.4,205.0 74.6,203.5 C76.8,202.0 79.0,196.6 81.3,194.9 C83.5,193.2 85.7,200.1 87.9,193.2 C90.1,186.2 92.3,160.3 94.6,153.3 C96.8,146.3 99.0,151.7 101.2,151.3 C103.4,150.8 105.6,150.7 107.9,150.5 C110.1,150.3 112.3,150.2 114.5,150.1 C116.7,150.0 119.0,149.9 121.2,149.7 C123.4,149.5 125.6,149.1 127.8,148.7 C130.0,148.2 132.3,147.4 134.5,147.0 C136.7,146.5 138.9,146.3 141.1,146.1 C143.3,145.9 145.6,146.0 147.8,145.6 C150.0,145.2 152.2,144.1 154.4,143.6 C156.6,143.1 158.9,142.9 161.1,142.6 C163.3,142.3 165.5,142.0 167.7,141.7 C169.9,141.4 172.2,141.4 174.4,140.8 C176.6,140.2 178.8,138.7 181.0,138.0 C183.3,137.4 185.5,137.2 187.7,136.9 C189.9,136.6 192.1,136.4 194.3,136.2 C196.6,136.1 198.8,136.5 201.0,136.1 C203.2,135.7 205.4,134.4 207.6,133.8 C209.9,133.2 212.1,133.0 214.3,132.5 C216.5,132.1 218.7,131.8 220.9,131.1 C223.2,130.4 225.4,129.0 227.6,128.3 C229.8,127.6 232.0,127.3 234.2,126.9 C236.5,126.5 238.7,126.3 240.9,126.0 C243.1,125.8 245.3,125.8 247.6,125.3 C249.8,124.9 252.0,124.0 254.2,123.6 C256.4,123.1 258.6,122.8 260.9,122.5 C263.1,122.2 265.3,122.0 267.5,121.7 C269.7,121.5 271.9,121.3 274.2,121.1 C276.4,120.9 278.6,120.6 280.8,120.4 C283.0,120.3 285.2,120.3 287.5,120.2 C289.7,120.2 291.9,121.0 294.1,120.2 C296.3,119.4 298.5,116.5 300.8,115.5 C303.0,114.5 305.2,114.6 307.4,114.2 C309.6,113.7 311.9,113.3 314.1,112.8 C316.3,112.4 318.5,111.9 320.7,111.6 C322.9,111.3 325.2,111.2 327.4,111.0 C329.6,110.8 331.8,110.4 334.0,110.2 C336.2,110.0 338.5,110.1 340.7,109.7 C342.9,109.4 345.1,108.6 347.3,108.1 C349.5,107.7 351.8,107.6 354.0,107.2 C356.2,106.9 358.4,106.4 360.6,106.2 C362.8,105.9 365.1,106.0 367.3,105.7 C369.5,105.5 371.7,104.8 373.9,104.5 C376.1,104.2 378.4,104.2 380.6,104.0 C382.8,103.7 385.0,103.5 387.2,103.2 C389.5,102.9 391.7,102.5 393.9,102.2 C396.1,101.9 398.3,101.5 400.5,101.2 C402.8,100.9 405.0,100.8 407.2,100.3 C409.4,99.9 411.6,99.2 413.8,98.7 C416.1,98.3 418.3,98.1 420.5,97.7 C422.7,97.4 424.9,97.0 427.1,96.6 C429.4,96.3 431.6,95.9 433.8,95.5 C436.0,95.2 438.2,94.8 440.4,94.6 C442.7,94.3 444.9,94.2 447.1,93.8 C449.3,93.4 451.5,92.9 453.8,92.4 C456.0,91.9 458.2,91.2 460.4,90.8 C462.6,90.5 464.8,90.5 467.1,90.3 C469.3,90.1 471.5,90.0 473.7,89.8 C475.9,89.6 478.1,89.3 480.4,88.9 C482.6,88.6 484.8,88.2 487.0,87.9 C489.2,87.6 491.4,87.3 493.7,86.9 C495.9,86.6 498.1,86.2 500.3,85.8 C502.5,85.5 504.7,85.3 507.0,85.0 C509.2,84.6 511.4,84.0 513.6,83.7 C515.8,83.3 518.1,83.0 520.3,82.8 C522.5,82.6 524.7,82.6 526.9,82.4 C529.1,82.2 531.4,81.9 533.6,81.8 C535.8,81.6 538.0,81.6 540.2,81.4 C542.4,81.2 544.7,80.9 546.9,80.6 C549.1,80.4 551.3,80.0 553.5,79.8 C555.7,79.5 558.0,79.3 560.2,79.1 C562.4,78.9 564.6,78.8 566.8,78.5 C569.0,78.2 571.3,77.5 573.5,77.2 C575.7,76.9 577.9,76.8 580.1,76.6 C582.4,76.3 584.6,76.1 586.8,75.6 C589.0,75.1 591.2,74.5 593.4,73.7 C595.7,72.9 597.9,71.5 600.1,70.9 C602.3,70.3 604.5,70.4 606.7,70.1 C609.0,69.9 611.2,69.7 613.4,69.5 C615.6,69.3 617.8,69.0 620.0,68.9 C622.3,68.7 624.5,68.7 626.7,68.6 C628.9,68.4 631.1,68.2 633.3,67.9 C635.6,67.6 638.9,66.8 640.0,66.6 L640.0,220.0 L48.0,220.0 Z" fill="url(#areaGrad)"/>
  <path d="M48.0,219.8 C49.1,218.5 52.4,213.8 54.7,211.9 C56.9,210.0 59.1,209.5 61.3,208.4 C63.5,207.3 65.7,205.6 68.0,205.1 C70.2,204.5 72.4,206.5 74.6,205.1 C76.8,203.7 79.0,198.4 81.3,196.8 C83.5,195.2 85.7,201.7 87.9,195.5 C90.1,189.2 92.3,165.5 94.6,159.1 C96.8,152.7 99.0,157.7 101.2,157.3 C103.4,156.9 105.6,156.8 107.9,156.7 C110.1,156.6 112.3,156.6 114.5,156.5 C116.7,156.4 119.0,156.4 121.2,156.1 C123.4,155.9 125.6,155.6 127.8,155.1 C130.0,154.6 132.3,153.7 134.5,153.4 C136.7,153.0 138.9,153.1 141.1,152.9 C143.3,152.8 145.6,153.0 147.8,152.6 C150.0,152.2 152.2,151.1 154.4,150.6 C156.6,150.1 158.9,150.0 161.1,149.7 C163.3,149.4 165.5,149.2 167.7,148.9 C169.9,148.6 172.2,148.6 174.4,148.0 C176.6,147.4 178.8,145.9 181.0,145.2 C183.3,144.6 185.5,144.5 187.7,144.2 C189.9,143.9 192.1,143.7 194.3,143.5 C196.6,143.4 198.8,143.8 201.0,143.4 C203.2,143.0 205.4,141.8 207.6,141.2 C209.9,140.7 212.1,140.5 214.3,140.1 C216.5,139.7 218.7,139.6 220.9,138.9 C223.2,138.3 225.4,136.9 227.6,136.3 C229.8,135.6 232.0,135.4 234.2,135.0 C236.5,134.7 238.7,134.5 240.9,134.2 C243.1,134.0 245.3,134.0 247.6,133.7 C249.8,133.3 252.0,132.5 254.2,132.1 C256.4,131.6 258.6,131.4 260.9,131.1 C263.1,130.9 265.3,130.6 267.5,130.4 C269.7,130.3 271.9,130.2 274.2,130.0 C276.4,129.8 278.6,129.5 280.8,129.4 C283.0,129.3 285.2,129.4 287.5,129.4 C289.7,129.4 291.9,130.2 294.1,129.4 C296.3,128.7 298.5,125.9 300.8,124.9 C303.0,124.0 305.2,124.0 307.4,123.6 C309.6,123.1 311.9,122.7 314.1,122.3 C316.3,121.9 318.5,121.3 320.7,121.0 C322.9,120.7 325.2,120.7 327.4,120.5 C329.6,120.2 331.8,119.9 334.0,119.7 C336.2,119.5 338.5,119.6 340.7,119.2 C342.9,118.9 345.1,118.0 347.3,117.6 C349.5,117.2 351.8,117.0 354.0,116.7 C356.2,116.4 358.4,115.9 360.6,115.7 C362.8,115.4 365.1,115.5 367.3,115.2 C369.5,114.9 371.7,114.3 373.9,114.0 C376.1,113.8 378.4,113.8 380.6,113.6 C382.8,113.4 385.0,113.2 387.2,112.9 C389.5,112.6 391.7,112.3 393.9,112.0 C396.1,111.7 398.3,111.4 400.5,111.1 C402.8,110.8 405.0,110.6 407.2,110.3 C409.4,109.9 411.6,109.2 413.8,108.8 C416.1,108.4 418.3,108.2 420.5,107.9 C422.7,107.5 424.9,107.2 427.1,106.8 C429.4,106.5 431.6,106.1 433.8,105.8 C436.0,105.5 438.2,105.1 440.4,104.9 C442.7,104.6 444.9,104.5 447.1,104.2 C449.3,103.8 451.5,103.3 453.8,102.8 C456.0,102.3 458.2,101.6 460.4,101.3 C462.6,101.0 464.8,101.0 467.1,100.9 C469.3,100.7 471.5,100.6 473.7,100.4 C475.9,100.2 478.1,99.9 480.4,99.6 C482.6,99.3 484.8,99.0 487.0,98.7 C489.2,98.4 491.4,98.1 493.7,97.8 C495.9,97.4 498.1,97.0 500.3,96.7 C502.5,96.4 504.7,96.2 507.0,95.9 C509.2,95.6 511.4,95.3 513.6,95.0 C515.8,94.7 518.1,94.4 520.3,94.2 C522.5,94.0 524.7,94.0 526.9,93.9 C529.1,93.7 531.4,93.4 533.6,93.3 C535.8,93.1 538.0,93.1 540.2,92.9 C542.4,92.8 544.7,92.5 546.9,92.3 C549.1,92.0 551.3,91.7 553.5,91.5 C555.7,91.2 558.0,91.0 560.2,90.8 C562.4,90.6 564.6,90.6 566.8,90.3 C569.0,90.0 571.3,89.4 573.5,89.1 C575.7,88.7 577.9,88.7 580.1,88.5 C582.4,88.2 584.6,88.0 586.8,87.6 C589.0,87.1 591.2,86.5 593.4,85.7 C595.7,85.0 597.9,83.5 600.1,83.0 C602.3,82.4 604.5,82.5 606.7,82.3 C609.0,82.1 611.2,81.9 613.4,81.7 C615.6,81.5 617.8,81.3 620.0,81.1 C622.3,81.0 624.5,81.1 626.7,80.9 C628.9,80.8 631.1,80.5 633.3,80.2 C635.6,79.9 638.9,79.3 640.0,79.1" fill="none" class="line-openvsx" stroke-width="1.8" stroke-linecap="round" stroke-linejoin="round"/>
  <path d="M48.0,219.9 C49.1,219.9 52.4,219.9 54.7,219.8 C56.9,219.7 59.1,219.5 61.3,219.3 C63.5,219.1 65.7,218.8 68.0,218.6 C70.2,218.5 72.4,218.5 74.6,218.4 C76.8,218.3 79.0,218.2 81.3,218.1 C83.5,217.9 85.7,218.3 87.9,217.7 C90.1,217.1 92.3,214.8 94.6,214.2 C96.8,213.6 99.0,214.0 101.2,214.0 C103.4,213.9 105.6,213.9 107.9,213.8 C110.1,213.8 112.3,213.7 114.5,213.6 C116.7,213.6 119.0,213.6 121.2,213.6 C123.4,213.6 125.6,213.6 127.8,213.6 C130.0,213.6 132.3,213.6 134.5,213.6 C136.7,213.5 138.9,213.3 141.1,213.2 C143.3,213.1 145.6,213.1 147.8,213.1 C150.0,213.0 152.2,213.0 154.4,213.0 C156.6,213.0 158.9,212.9 161.1,212.9 C163.3,212.9 165.5,212.8 167.7,212.8 C169.9,212.8 172.2,212.8 174.4,212.8 C176.6,212.8 178.8,212.8 181.0,212.8 C183.3,212.8 185.5,212.7 187.7,212.7 C189.9,212.7 192.1,212.7 194.3,212.7 C196.6,212.7 198.8,212.7 201.0,212.7 C203.2,212.6 205.4,212.6 207.6,212.5 C209.9,212.5 212.1,212.5 214.3,212.4 C216.5,212.4 218.7,212.2 220.9,212.1 C223.2,212.1 225.4,212.0 227.6,212.0 C229.8,211.9 232.0,211.9 234.2,211.9 C236.5,211.8 238.7,211.8 240.9,211.8 C243.1,211.8 245.3,211.7 247.6,211.7 C249.8,211.6 252.0,211.6 254.2,211.5 C256.4,211.5 258.6,211.4 260.9,211.4 C263.1,211.4 265.3,211.3 267.5,211.3 C269.7,211.2 271.9,211.2 274.2,211.1 C276.4,211.1 278.6,211.0 280.8,211.0 C283.0,211.0 285.2,210.9 287.5,210.8 C289.7,210.8 291.9,210.8 294.1,210.8 C296.3,210.7 298.5,210.6 300.8,210.6 C303.0,210.6 305.2,210.6 307.4,210.6 C309.6,210.6 311.9,210.5 314.1,210.5 C316.3,210.5 318.5,210.5 320.7,210.5 C322.9,210.5 325.2,210.5 327.4,210.5 C329.6,210.5 331.8,210.5 334.0,210.5 C336.2,210.5 338.5,210.5 340.7,210.5 C342.9,210.5 345.1,210.5 347.3,210.5 C349.5,210.5 351.8,210.5 354.0,210.5 C356.2,210.5 358.4,210.5 360.6,210.5 C362.8,210.5 365.1,210.5 367.3,210.5 C369.5,210.5 371.7,210.5 373.9,210.5 C376.1,210.5 378.4,210.4 380.6,210.4 C382.8,210.3 385.0,210.3 387.2,210.3 C389.5,210.2 391.7,210.2 393.9,210.2 C396.1,210.2 398.3,210.2 400.5,210.1 C402.8,210.1 405.0,210.1 407.2,210.1 C409.4,210.1 411.6,210.0 413.8,210.0 C416.1,209.9 418.3,209.9 420.5,209.9 C422.7,209.8 424.9,209.8 427.1,209.8 C429.4,209.8 431.6,209.8 433.8,209.7 C436.0,209.7 438.2,209.7 440.4,209.7 C442.7,209.7 444.9,209.6 447.1,209.6 C449.3,209.6 451.5,209.6 453.8,209.6 C456.0,209.5 458.2,209.5 460.4,209.5 C462.6,209.5 464.8,209.5 467.1,209.5 C469.3,209.4 471.5,209.4 473.7,209.4 C475.9,209.4 478.1,209.4 480.4,209.3 C482.6,209.3 484.8,209.3 487.0,209.2 C489.2,209.2 491.4,209.2 493.7,209.2 C495.9,209.1 498.1,209.1 500.3,209.1 C502.5,209.1 504.7,209.1 507.0,209.0 C509.2,209.0 511.4,208.7 513.6,208.6 C515.8,208.6 518.1,208.6 520.3,208.6 C522.5,208.6 524.7,208.6 526.9,208.5 C529.1,208.5 531.4,208.5 533.6,208.5 C535.8,208.5 538.0,208.4 540.2,208.4 C542.4,208.4 544.7,208.4 546.9,208.4 C549.1,208.3 551.3,208.3 553.5,208.3 C555.7,208.3 558.0,208.3 560.2,208.3 C562.4,208.3 564.6,208.2 566.8,208.2 C569.0,208.2 571.3,208.2 573.5,208.1 C575.7,208.1 577.9,208.1 580.1,208.1 C582.4,208.1 584.6,208.0 586.8,208.0 C589.0,208.0 591.2,208.0 593.4,208.0 C595.7,207.9 597.9,207.9 600.1,207.9 C602.3,207.9 604.5,207.9 606.7,207.8 C609.0,207.8 611.2,207.8 613.4,207.8 C615.6,207.8 617.8,207.7 620.0,207.7 C622.3,207.7 624.5,207.7 626.7,207.7 C628.9,207.7 631.1,207.7 633.3,207.7 C635.6,207.7 638.9,207.6 640.0,207.6" fill="none" class="line-vscode" stroke-width="1.8" stroke-linecap="round" stroke-linejoin="round"/>
  <path d="M48.0,219.8 C49.1,218.4 52.4,213.7 54.7,211.7 C56.9,209.7 59.1,209.1 61.3,207.7 C63.5,206.4 65.7,204.4 68.0,203.7 C70.2,203.0 72.4,205.0 74.6,203.5 C76.8,202.0 79.0,196.6 81.3,194.9 C83.5,193.2 85.7,200.1 87.9,193.2 C90.1,186.2 92.3,160.3 94.6,153.3 C96.8,146.3 99.0,151.7 101.2,151.3 C103.4,150.8 105.6,150.7 107.9,150.5 C110.1,150.3 112.3,150.2 114.5,150.1 C116.7,150.0 119.0,149.9 121.2,149.7 C123.4,149.5 125.6,149.1 127.8,148.7 C130.0,148.2 132.3,147.4 134.5,147.0 C136.7,146.5 138.9,146.3 141.1,146.1 C143.3,145.9 145.6,146.0 147.8,145.6 C150.0,145.2 152.2,144.1 154.4,143.6 C156.6,143.1 158.9,142.9 161.1,142.6 C163.3,142.3 165.5,142.0 167.7,141.7 C169.9,141.4 172.2,141.4 174.4,140.8 C176.6,140.2 178.8,138.7 181.0,138.0 C183.3,137.4 185.5,137.2 187.7,136.9 C189.9,136.6 192.1,136.4 194.3,136.2 C196.6,136.1 198.8,136.5 201.0,136.1 C203.2,135.7 205.4,134.4 207.6,133.8 C209.9,133.2 212.1,133.0 214.3,132.5 C216.5,132.1 218.7,131.8 220.9,131.1 C223.2,130.4 225.4,129.0 227.6,128.3 C229.8,127.6 232.0,127.3 234.2,126.9 C236.5,126.5 238.7,126.3 240.9,126.0 C243.1,125.8 245.3,125.8 247.6,125.3 C249.8,124.9 252.0,124.0 254.2,123.6 C256.4,123.1 258.6,122.8 260.9,122.5 C263.1,122.2 265.3,122.0 267.5,121.7 C269.7,121.5 271.9,121.3 274.2,121.1 C276.4,120.9 278.6,120.6 280.8,120.4 C283.0,120.3 285.2,120.3 287.5,120.2 C289.7,120.2 291.9,121.0 294.1,120.2 C296.3,119.4 298.5,116.5 300.8,115.5 C303.0,114.5 305.2,114.6 307.4,114.2 C309.6,113.7 311.9,113.3 314.1,112.8 C316.3,112.4 318.5,111.9 320.7,111.6 C322.9,111.3 325.2,111.2 327.4,111.0 C329.6,110.8 331.8,110.4 334.0,110.2 C336.2,110.0 338.5,110.1 340.7,109.7 C342.9,109.4 345.1,108.6 347.3,108.1 C349.5,107.7 351.8,107.6 354.0,107.2 C356.2,106.9 358.4,106.4 360.6,106.2 C362.8,105.9 365.1,106.0 367.3,105.7 C369.5,105.5 371.7,104.8 373.9,104.5 C376.1,104.2 378.4,104.2 380.6,104.0 C382.8,103.7 385.0,103.5 387.2,103.2 C389.5,102.9 391.7,102.5 393.9,102.2 C396.1,101.9 398.3,101.5 400.5,101.2 C402.8,100.9 405.0,100.8 407.2,100.3 C409.4,99.9 411.6,99.2 413.8,98.7 C416.1,98.3 418.3,98.1 420.5,97.7 C422.7,97.4 424.9,97.0 427.1,96.6 C429.4,96.3 431.6,95.9 433.8,95.5 C436.0,95.2 438.2,94.8 440.4,94.6 C442.7,94.3 444.9,94.2 447.1,93.8 C449.3,93.4 451.5,92.9 453.8,92.4 C456.0,91.9 458.2,91.2 460.4,90.8 C462.6,90.5 464.8,90.5 467.1,90.3 C469.3,90.1 471.5,90.0 473.7,89.8 C475.9,89.6 478.1,89.3 480.4,88.9 C482.6,88.6 484.8,88.2 487.0,87.9 C489.2,87.6 491.4,87.3 493.7,86.9 C495.9,86.6 498.1,86.2 500.3,85.8 C502.5,85.5 504.7,85.3 507.0,85.0 C509.2,84.6 511.4,84.0 513.6,83.7 C515.8,83.3 518.1,83.0 520.3,82.8 C522.5,82.6 524.7,82.6 526.9,82.4 C529.1,82.2 531.4,81.9 533.6,81.8 C535.8,81.6 538.0,81.6 540.2,81.4 C542.4,81.2 544.7,80.9 546.9,80.6 C549.1,80.4 551.3,80.0 553.5,79.8 C555.7,79.5 558.0,79.3 560.2,79.1 C562.4,78.9 564.6,78.8 566.8,78.5 C569.0,78.2 571.3,77.5 573.5,77.2 C575.7,76.9 577.9,76.8 580.1,76.6 C582.4,76.3 584.6,76.1 586.8,75.6 C589.0,75.1 591.2,74.5 593.4,73.7 C595.7,72.9 597.9,71.5 600.1,70.9 C602.3,70.3 604.5,70.4 606.7,70.1 C609.0,69.9 611.2,69.7 613.4,69.5 C615.6,69.3 617.8,69.0 620.0,68.9 C622.3,68.7 624.5,68.7 626.7,68.6 C628.9,68.4 631.1,68.2 633.3,67.9 C635.6,67.6 638.9,66.8 640.0,66.6" fill="none" class="line-total" stroke-width="2.5" stroke-linecap="round" stroke-linejoin="round"/>

  <circle cx="640" cy="66.63333333333333" r="4.5" class="dot-total" stroke-width="2"/>
    <text x="658" y="70.63333333333333" class="end-label" font-family="-apple-system, BlinkMacSystemFont, 'Segoe UI', Helvetica, sans-serif">Total</text>
    <text x="697" y="70.63333333333333" class="end-value" font-family="-apple-system, BlinkMacSystemFont, 'Segoe UI', Helvetica, sans-serif">2.7k</text>
    <circle cx="640" cy="79.07466666666667" r="3.5" class="dot-openvsx" stroke-width="1.8"/>
    <text x="658" y="88.63333333333333" class="end-label" font-family="-apple-system, BlinkMacSystemFont, 'Segoe UI', Helvetica, sans-serif">Open VSX</text>
    <text x="716.8" y="88.63333333333333" class="end-value" font-family="-apple-system, BlinkMacSystemFont, 'Segoe UI', Helvetica, sans-serif">2.5k</text>
    <circle cx="640" cy="207.55866666666668" r="3.5" class="dot-vscode" stroke-width="1.8"/>
    <text x="658" y="211.55866666666668" class="end-label" font-family="-apple-system, BlinkMacSystemFont, 'Segoe UI', Helvetica, sans-serif">VS Code</text>
    <text x="710.2" y="211.55866666666668" class="end-value" font-family="-apple-system, BlinkMacSystemFont, 'Segoe UI', Helvetica, sans-serif">217</text>
</svg>