<svg xmlns="http://www.w3.org/2000/svg" viewBox="0 0 760 260" width="760" height="260" role="img" aria-label="Glassy install history">
  <style>
  svg { color-scheme: light dark; }
  .title      { fill: #1a1a2e; font-size: 15px; font-weight: 600; }
  .subtitle   { fill: #6b7280; font-size: 11px; font-weight: 400; }
  .grid       { stroke: #e8e8ee; }
  .axis-label { fill: #8a8a9a; font-size: 10px; }
  .line-total   { stroke: #e8553d; }
  .line-vscode  { stroke: #5b7cfa; }
  .line-openvsx { stroke: #34c7a0; }
  .dot-total   { fill: transparent; stroke: #e8553d; }
  .dot-vscode  { fill: transparent; stroke: #5b7cfa; }
  .dot-openvsx { fill: transparent; stroke: #34c7a0; }
  .end-label       { fill: #1a1a2e; font-size: 11px; font-weight: 600; }
  .end-value       { fill: #6b7280; font-size: 11px; font-weight: 400; }
  .area-total-top    { stop-color: #e8553d; }
  .area-total-bottom { stop-color: #e8553d; }

  @media (prefers-color-scheme: dark) {
    .title      { fill: #e2e2e8; }
    .subtitle   { fill: #8b949e; }
    .grid       { stroke: #2d2d3d; }
    .axis-label { fill: #6e7681; }
    .line-total   { stroke: #ff9b85; }
    .line-vscode  { stroke: #8da4ff; }
    .line-openvsx { stroke: #5eead4; }
    .dot-total   { stroke: #ff9b85; }
    .dot-vscode  { stroke: #8da4ff; }
    .dot-openvsx { stroke: #5eead4; }
    .end-label       { fill: #e2e2e8; }
    .end-value       { fill: #8b949e; }
    .area-total-top    { stop-color: #ff9b85; }
    .area-total-bottom { stop-color: #ff9b85; }
  }
</style>
  <defs>
    <linearGradient id="areaGrad" x1="0" y1="0" x2="0" y2="1">
      <stop offset="0%" class="area-total-top" stop-opacity="0.18"/>
      <stop offset="60%" class="area-total-bottom" stop-opacity="0.04"/>
      <stop offset="100%" class="area-total-bottom" stop-opacity="0"/>
    </linearGradient>
  </defs>

  <text x="48" y="22" class="title" font-family="-apple-system, BlinkMacSystemFont, 'Segoe UI', Helvetica, sans-serif">Installs</text>
  <text x="48" y="37" class="subtitle" font-family="-apple-system, BlinkMacSystemFont, 'Segoe UI', Helvetica, sans-serif">Updated Jul 10</text>

  <line x1="48" y1="220" x2="640" y2="220" class="grid" stroke-width="0.7"/>
    <text x="40" y="223.5" class="axis-label" text-anchor="end" font-family="-apple-system, BlinkMacSystemFont, 'Segoe UI', Helvetica, sans-serif">0</text>
    <line x1="48" y1="162.66666666666669" x2="640" y2="162.66666666666669" class="grid" stroke-width="0.7"/>
    <text x="40" y="166.16666666666669" class="axis-label" text-anchor="end" font-family="-apple-system, BlinkMacSystemFont, 'Segoe UI', Helvetica, sans-serif">1k</text>
    <line x1="48" y1="105.33333333333334" x2="640" y2="105.33333333333334" class="grid" stroke-width="0.7"/>
    <text x="40" y="108.83333333333334" class="axis-label" text-anchor="end" font-family="-apple-system, BlinkMacSystemFont, 'Segoe UI', Helvetica, sans-serif">2k</text>
    <line x1="48" y1="48" x2="640" y2="48" class="grid" stroke-width="0.7"/>
    <text x="40" y="51.5" class="axis-label" text-anchor="end" font-family="-apple-system, BlinkMacSystemFont, 'Segoe UI', Helvetica, sans-serif">3k</text>
  <text x="48" y="248" class="axis-label" text-anchor="middle" font-family="-apple-system, BlinkMacSystemFont, 'Segoe UI', Helvetica, sans-serif">Mar 27</text>
    <text x="164.8421052631579" y="248" class="axis-label" text-anchor="middle" font-family="-apple-system, BlinkMacSystemFont, 'Segoe UI', Helvetica, sans-serif">May 10</text>
    <text x="281.6842105263158" y="248" class="axis-label" text-anchor="middle" font-family="-apple-system, BlinkMacSystemFont, 'Segoe UI', Helvetica, sans-serif">May 25</text>
    <text x="406.3157894736842" y="248" class="axis-label" text-anchor="middle" font-family="-apple-system, BlinkMacSystemFont, 'Segoe UI', Helvetica, sans-serif">Jun 10</text>
    <text x="523.1578947368421" y="248" class="axis-label" text-anchor="middle" font-family="-apple-system, BlinkMacSystemFont, 'Segoe UI', Helvetica, sans-serif">Jun 25</text>
    <text x="640" y="248" class="axis-label" text-anchor="middle" font-family="-apple-system, BlinkMacSystemFont, 'Segoe UI', Helvetica, sans-serif">Jul 10</text>

  <path d="M48.0,219.8 C49.3,218.4 53.2,213.7 55.8,211.7 C58.4,209.7 61.0,209.1 63.6,207.7 C66.2,206.4 68.8,204.4 71.4,203.7 C74.0,203.0 76.6,205.0 79.2,203.5 C81.8,202.0 84.4,196.6 86.9,194.9 C89.5,193.2 92.1,200.1 94.7,193.2 C97.3,186.2 99.9,160.3 102.5,153.3 C105.1,146.3 107.7,151.7 110.3,151.3 C112.9,150.8 115.5,150.7 118.1,150.5 C120.7,150.3 123.3,150.2 125.9,150.1 C128.5,150.0 131.1,149.9 133.7,149.7 C136.3,149.5 138.9,149.1 141.5,148.7 C144.1,148.2 146.7,147.4 149.3,147.0 C151.9,146.5 154.5,146.3 157.1,146.1 C159.6,145.9 162.2,146.0 164.8,145.6 C167.4,145.2 170.0,144.1 172.6,143.6 C175.2,143.1 177.8,142.9 180.4,142.6 C183.0,142.3 185.6,142.0 188.2,141.7 C190.8,141.4 193.4,141.4 196.0,140.8 C198.6,140.2 201.2,138.7 203.8,138.0 C206.4,137.4 209.0,137.2 211.6,136.9 C214.2,136.6 216.8,136.4 219.4,136.2 C222.0,136.1 224.6,136.5 227.2,136.1 C229.8,135.7 232.4,134.4 234.9,133.8 C237.5,133.2 240.1,133.0 242.7,132.5 C245.3,132.1 247.9,131.8 250.5,131.1 C253.1,130.4 255.7,129.0 258.3,128.3 C260.9,127.6 263.5,127.3 266.1,126.9 C268.7,126.5 271.3,126.3 273.9,126.0 C276.5,125.8 279.1,125.8 281.7,125.3 C284.3,124.9 286.9,124.0 289.5,123.6 C292.1,123.1 294.7,122.8 297.3,122.5 C299.9,122.2 302.5,122.0 305.1,121.7 C307.6,121.5 310.2,121.3 312.8,121.1 C315.4,120.9 318.0,120.6 320.6,120.4 C323.2,120.3 325.8,120.3 328.4,120.2 C331.0,120.2 333.6,121.0 336.2,120.2 C338.8,119.4 341.4,116.5 344.0,115.5 C346.6,114.5 349.2,114.6 351.8,114.2 C354.4,113.7 357.0,113.3 359.6,112.8 C362.2,112.4 364.8,111.9 367.4,111.6 C370.0,111.3 372.6,111.2 375.2,111.0 C377.8,110.8 380.4,110.4 382.9,110.2 C385.5,110.0 388.1,110.1 390.7,109.7 C393.3,109.4 395.9,108.6 398.5,108.1 C401.1,107.7 403.7,107.6 406.3,107.2 C408.9,106.9 411.5,106.4 414.1,106.2 C416.7,105.9 419.3,106.0 421.9,105.7 C424.5,105.5 427.1,104.8 429.7,104.5 C432.3,104.2 434.9,104.2 437.5,104.0 C440.1,103.7 442.7,103.5 445.3,103.2 C447.9,102.9 450.5,102.5 453.1,102.2 C455.6,101.9 458.2,101.5 460.8,101.2 C463.4,100.9 466.0,100.8 468.6,100.3 C471.2,99.9 473.8,99.2 476.4,98.7 C479.0,98.3 481.6,98.1 484.2,97.7 C486.8,97.4 489.4,97.0 492.0,96.6 C494.6,96.3 497.2,95.9 499.8,95.5 C502.4,95.2 505.0,94.8 507.6,94.6 C510.2,94.3 512.8,94.2 515.4,93.8 C518.0,93.4 520.6,92.9 523.2,92.4 C525.8,91.9 528.4,91.2 530.9,90.8 C533.5,90.5 536.1,90.5 538.7,90.3 C541.3,90.1 543.9,90.0 546.5,89.8 C549.1,89.6 551.7,89.3 554.3,88.9 C556.9,88.6 559.5,88.2 562.1,87.9 C564.7,87.6 567.3,87.3 569.9,86.9 C572.5,86.6 575.1,86.2 577.7,85.8 C580.3,85.5 582.9,85.3 585.5,85.0 C588.1,84.6 590.7,84.0 593.3,83.7 C595.9,83.3 598.5,83.0 601.1,82.8 C603.6,82.6 606.2,82.6 608.8,82.4 C611.4,82.2 614.0,81.9 616.6,81.8 C619.2,81.6 621.8,81.6 624.4,81.4 C627.0,81.2 629.6,80.9 632.2,80.6 C634.8,80.4 638.7,79.9 640.0,79.8 L640.0,220.0 L48.0,220.0 Z" fill="url(#areaGrad)"/>
  <path d="M48.0,219.8 C49.3,218.5 53.2,213.8 55.8,211.9 C58.4,210.0 61.0,209.5 63.6,208.4 C66.2,207.3 68.8,205.6 71.4,205.1 C74.0,204.5 76.6,206.5 79.2,205.1 C81.8,203.7 84.4,198.4 86.9,196.8 C89.5,195.2 92.1,201.7 94.7,195.5 C97.3,189.2 99.9,165.5 102.5,159.1 C105.1,152.7 107.7,157.7 110.3,157.3 C112.9,156.9 115.5,156.8 118.1,156.7 C120.7,156.6 123.3,156.6 125.9,156.5 C128.5,156.4 131.1,156.4 133.7,156.1 C136.3,155.9 138.9,155.6 141.5,155.1 C144.1,154.6 146.7,153.7 149.3,153.4 C151.9,153.0 154.5,153.1 157.1,152.9 C159.6,152.8 162.2,153.0 164.8,152.6 C167.4,152.2 170.0,151.1 172.6,150.6 C175.2,150.1 177.8,150.0 180.4,149.7 C183.0,149.4 185.6,149.2 188.2,148.9 C190.8,148.6 193.4,148.6 196.0,148.0 C198.6,147.4 201.2,145.9 203.8,145.2 C206.4,144.6 209.0,144.5 211.6,144.2 C214.2,143.9 216.8,143.7 219.4,143.5 C222.0,143.4 224.6,143.8 227.2,143.4 C229.8,143.0 232.4,141.8 234.9,141.2 C237.5,140.7 240.1,140.5 242.7,140.1 C245.3,139.7 247.9,139.6 250.5,138.9 C253.1,138.3 255.7,136.9 258.3,136.3 C260.9,135.6 263.5,135.4 266.1,135.0 C268.7,134.7 271.3,134.5 273.9,134.2 C276.5,134.0 279.1,134.0 281.7,133.7 C284.3,133.3 286.9,132.5 289.5,132.1 C292.1,131.6 294.7,131.4 297.3,131.1 C299.9,130.9 302.5,130.6 305.1,130.4 C307.6,130.3 310.2,130.2 312.8,130.0 C315.4,129.8 318.0,129.5 320.6,129.4 C323.2,129.3 325.8,129.4 328.4,129.4 C331.0,129.4 333.6,130.2 336.2,129.4 C338.8,128.7 341.4,125.9 344.0,124.9 C346.6,124.0 349.2,124.0 351.8,123.6 C354.4,123.1 357.0,122.7 359.6,122.3 C362.2,121.9 364.8,121.3 367.4,121.0 C370.0,120.7 372.6,120.7 375.2,120.5 C377.8,120.2 380.4,119.9 382.9,119.7 C385.5,119.5 388.1,119.6 390.7,119.2 C393.3,118.9 395.9,118.0 398.5,117.6 C401.1,117.2 403.7,117.0 406.3,116.7 C408.9,116.4 411.5,115.9 414.1,115.7 C416.7,115.4 419.3,115.5 421.9,115.2 C424.5,114.9 427.1,114.3 429.7,114.0 C432.3,113.8 434.9,113.8 437.5,113.6 C440.1,113.4 442.7,113.2 445.3,112.9 C447.9,112.6 450.5,112.3 453.1,112.0 C455.6,111.7 458.2,111.4 460.8,111.1 C463.4,110.8 466.0,110.6 468.6,110.3 C471.2,109.9 473.8,109.2 476.4,108.8 C479.0,108.4 481.6,108.2 484.2,107.9 C486.8,107.5 489.4,107.2 492.0,106.8 C494.6,106.5 497.2,106.1 499.8,105.8 C502.4,105.5 505.0,105.1 507.6,104.9 C510.2,104.6 512.8,104.5 515.4,104.2 C518.0,103.8 520.6,103.3 523.2,102.8 C525.8,102.3 528.4,101.6 530.9,101.3 C533.5,101.0 536.1,101.0 538.7,100.9 C541.3,100.7 543.9,100.6 546.5,100.4 C549.1,100.2 551.7,99.9 554.3,99.6 C556.9,99.3 559.5,99.0 562.1,98.7 C564.7,98.4 567.3,98.1 569.9,97.8 C572.5,97.4 575.1,97.0 577.7,96.7 C580.3,96.4 582.9,96.2 585.5,95.9 C588.1,95.6 590.7,95.3 593.3,95.0 C595.9,94.7 598.5,94.4 601.1,94.2 C603.6,94.0 606.2,94.0 608.8,93.9 C611.4,93.7 614.0,93.4 616.6,93.3 C619.2,93.1 621.8,93.1 624.4,92.9 C627.0,92.8 629.6,92.5 632.2,92.3 C634.8,92.0 638.7,91.6 640.0,91.5" fill="none" class="line-openvsx" stroke-width="1.8" stroke-linecap="round" stroke-linejoin="round"/>
  <path d="M48.0,219.9 C49.3,219.9 53.2,219.9 55.8,219.8 C58.4,219.7 61.0,219.5 63.6,219.3 C66.2,219.1 68.8,218.8 71.4,218.6 C74.0,218.5 76.6,218.5 79.2,218.4 C81.8,218.3 84.4,218.2 86.9,218.1 C89.5,217.9 92.1,218.3 94.7,217.7 C97.3,217.1 99.9,214.8 102.5,214.2 C105.1,213.6 107.7,214.0 110.3,214.0 C112.9,213.9 115.5,213.9 118.1,213.8 C120.7,213.8 123.3,213.7 125.9,213.6 C128.5,213.6 131.1,213.6 133.7,213.6 C136.3,213.6 138.9,213.6 141.5,213.6 C144.1,213.6 146.7,213.6 149.3,213.6 C151.9,213.5 154.5,213.3 157.1,213.2 C159.6,213.1 162.2,213.1 164.8,213.1 C167.4,213.0 170.0,213.0 172.6,213.0 C175.2,213.0 177.8,212.9 180.4,212.9 C183.0,212.9 185.6,212.8 188.2,212.8 C190.8,212.8 193.4,212.8 196.0,212.8 C198.6,212.8 201.2,212.8 203.8,212.8 C206.4,212.8 209.0,212.7 211.6,212.7 C214.2,212.7 216.8,212.7 219.4,212.7 C222.0,212.7 224.6,212.7 227.2,212.7 C229.8,212.6 232.4,212.6 234.9,212.5 C237.5,212.5 240.1,212.5 242.7,212.4 C245.3,212.4 247.9,212.2 250.5,212.1 C253.1,212.1 255.7,212.0 258.3,212.0 C260.9,211.9 263.5,211.9 266.1,211.9 C268.7,211.8 271.3,211.8 273.9,211.8 C276.5,211.8 279.1,211.7 281.7,211.7 C284.3,211.6 286.9,211.6 289.5,211.5 C292.1,211.5 294.7,211.4 297.3,211.4 C299.9,211.4 302.5,211.3 305.1,211.3 C307.6,211.2 310.2,211.2 312.8,211.1 C315.4,211.1 318.0,211.0 320.6,211.0 C323.2,211.0 325.8,210.9 328.4,210.8 C331.0,210.8 333.6,210.8 336.2,210.8 C338.8,210.7 341.4,210.6 344.0,210.6 C346.6,210.6 349.2,210.6 351.8,210.6 C354.4,210.6 357.0,210.5 359.6,210.5 C362.2,210.5 364.8,210.5 367.4,210.5 C370.0,210.5 372.6,210.5 375.2,210.5 C377.8,210.5 380.4,210.5 382.9,210.5 C385.5,210.5 388.1,210.5 390.7,210.5 C393.3,210.5 395.9,210.5 398.5,210.5 C401.1,210.5 403.7,210.5 406.3,210.5 C408.9,210.5 411.5,210.5 414.1,210.5 C416.7,210.5 419.3,210.5 421.9,210.5 C424.5,210.5 427.1,210.5 429.7,210.5 C432.3,210.5 434.9,210.4 437.5,210.4 C440.1,210.3 442.7,210.3 445.3,210.3 C447.9,210.2 450.5,210.2 453.1,210.2 C455.6,210.2 458.2,210.2 460.8,210.1 C463.4,210.1 466.0,210.1 468.6,210.1 C471.2,210.1 473.8,210.0 476.4,210.0 C479.0,209.9 481.6,209.9 484.2,209.9 C486.8,209.8 489.4,209.8 492.0,209.8 C494.6,209.8 497.2,209.8 499.8,209.7 C502.4,209.7 505.0,209.7 507.6,209.7 C510.2,209.7 512.8,209.6 515.4,209.6 C518.0,209.6 520.6,209.6 523.2,209.6 C525.8,209.5 528.4,209.5 530.9,209.5 C533.5,209.5 536.1,209.5 538.7,209.5 C541.3,209.4 543.9,209.4 546.5,209.4 C549.1,209.4 551.7,209.4 554.3,209.3 C556.9,209.3 559.5,209.3 562.1,209.2 C564.7,209.2 567.3,209.2 569.9,209.2 C572.5,209.1 575.1,209.1 577.7,209.1 C580.3,209.1 582.9,209.1 585.5,209.0 C588.1,209.0 590.7,208.7 593.3,208.6 C595.9,208.6 598.5,208.6 601.1,208.6 C603.6,208.6 606.2,208.6 608.8,208.5 C611.4,208.5 614.0,208.5 616.6,208.5 C619.2,208.5 621.8,208.4 624.4,208.4 C627.0,208.4 629.6,208.4 632.2,208.4 C634.8,208.3 638.7,208.3 640.0,208.3" fill="none" class="line-vscode" stroke-width="1.8" stroke-linecap="round" stroke-linejoin="round"/>
  <path d="M48.0,219.8 C49.3,218.4 53.2,213.7 55.8,211.7 C58.4,209.7 61.0,209.1 63.6,207.7 C66.2,206.4 68.8,204.4 71.4,203.7 C74.0,203.0 76.6,205.0 79.2,203.5 C81.8,202.0 84.4,196.6 86.9,194.9 C89.5,193.2 92.1,200.1 94.7,193.2 C97.3,186.2 99.9,160.3 102.5,153.3 C105.1,146.3 107.7,151.7 110.3,151.3 C112.9,150.8 115.5,150.7 118.1,150.5 C120.7,150.3 123.3,150.2 125.9,150.1 C128.5,150.0 131.1,149.9 133.7,149.7 C136.3,149.5 138.9,149.1 141.5,148.7 C144.1,148.2 146.7,147.4 149.3,147.0 C151.9,146.5 154.5,146.3 157.1,146.1 C159.6,145.9 162.2,146.0 164.8,145.6 C167.4,145.2 170.0,144.1 172.6,143.6 C175.2,143.1 177.8,142.9 180.4,142.6 C183.0,142.3 185.6,142.0 188.2,141.7 C190.8,141.4 193.4,141.4 196.0,140.8 C198.6,140.2 201.2,138.7 203.8,138.0 C206.4,137.4 209.0,137.2 211.6,136.9 C214.2,136.6 216.8,136.4 219.4,136.2 C222.0,136.1 224.6,136.5 227.2,136.1 C229.8,135.7 232.4,134.4 234.9,133.8 C237.5,133.2 240.1,133.0 242.7,132.5 C245.3,132.1 247.9,131.8 250.5,131.1 C253.1,130.4 255.7,129.0 258.3,128.3 C260.9,127.6 263.5,127.3 266.1,126.9 C268.7,126.5 271.3,126.3 273.9,126.0 C276.5,125.8 279.1,125.8 281.7,125.3 C284.3,124.9 286.9,124.0 289.5,123.6 C292.1,123.1 294.7,122.8 297.3,122.5 C299.9,122.2 302.5,122.0 305.1,121.7 C307.6,121.5 310.2,121.3 312.8,121.1 C315.4,120.9 318.0,120.6 320.6,120.4 C323.2,120.3 325.8,120.3 328.4,120.2 C331.0,120.2 333.6,121.0 336.2,120.2 C338.8,119.4 341.4,116.5 344.0,115.5 C346.6,114.5 349.2,114.6 351.8,114.2 C354.4,113.7 357.0,113.3 359.6,112.8 C362.2,112.4 364.8,111.9 367.4,111.6 C370.0,111.3 372.6,111.2 375.2,111.0 C377.8,110.8 380.4,110.4 382.9,110.2 C385.5,110.0 388.1,110.1 390.7,109.7 C393.3,109.4 395.9,108.6 398.5,108.1 C401.1,107.7 403.7,107.6 406.3,107.2 C408.9,106.9 411.5,106.4 414.1,106.2 C416.7,105.9 419.3,106.0 421.9,105.7 C424.5,105.5 427.1,104.8 429.7,104.5 C432.3,104.2 434.9,104.2 437.5,104.0 C440.1,103.7 442.7,103.5 445.3,103.2 C447.9,102.9 450.5,102.5 453.1,102.2 C455.6,101.9 458.2,101.5 460.8,101.2 C463.4,100.9 466.0,100.8 468.6,100.3 C471.2,99.9 473.8,99.2 476.4,98.7 C479.0,98.3 481.6,98.1 484.2,97.7 C486.8,97.4 489.4,97.0 492.0,96.6 C494.6,96.3 497.2,95.9 499.8,95.5 C502.4,95.2 505.0,94.8 507.6,94.6 C510.2,94.3 512.8,94.2 515.4,93.8 C518.0,93.4 520.6,92.9 523.2,92.4 C525.8,91.9 528.4,91.2 530.9,90.8 C533.5,90.5 536.1,90.5 538.7,90.3 C541.3,90.1 543.9,90.0 546.5,89.8 C549.1,89.6 551.7,89.3 554.3,88.9 C556.9,88.6 559.5,88.2 562.1,87.9 C564.7,87.6 567.3,87.3 569.9,86.9 C572.5,86.6 575.1,86.2 577.7,85.8 C580.3,85.5 582.9,85.3 585.5,85.0 C588.1,84.6 590.7,84.0 593.3,83.7 C595.9,83.3 598.5,83.0 601.1,82.8 C603.6,82.6 606.2,82.6 608.8,82.4 C611.4,82.2 614.0,81.9 616.6,81.8 C619.2,81.6 621.8,81.6 624.4,81.4 C627.0,81.2 629.6,80.9 632.2,80.6 C634.8,80.4 638.7,79.9 640.0,79.8" fill="none" class="line-total" stroke-width="2.5" stroke-linecap="round" stroke-linejoin="round"/>

  <circle cx="640" cy="79.76266666666666" r="4.5" class="dot-total" stroke-width="2"/>
    <text x="658" y="83.76266666666666" class="end-label" font-family="-apple-system, BlinkMacSystemFont, 'Segoe UI', Helvetica, sans-serif">Total</text>
    <text x="697" y="83.76266666666666" class="end-value" font-family="-apple-system, BlinkMacSystemFont, 'Segoe UI', Helvetica, sans-serif">2.4k</text>
    <circle cx="640" cy="91.45866666666669" r="3.5" class="dot-openvsx" stroke-width="1.8"/>
    <text x="658" y="101.76266666666666" class="end-label" font-family="-apple-system, BlinkMacSystemFont, 'Segoe UI', Helvetica, sans-serif">Open VSX</text>
    <text x="716.8" y="101.76266666666666" class="end-value" font-family="-apple-system, BlinkMacSystemFont, 'Segoe UI', Helvetica, sans-serif">2.2k</text>
    <circle cx="640" cy="208.304" r="3.5" class="dot-vscode" stroke-width="1.8"/>
    <text x="658" y="212.304" class="end-label" font-family="-apple-system, BlinkMacSystemFont, 'Segoe UI', Helvetica, sans-serif">VS Code</text>
    <text x="710.2" y="212.304" class="end-value" font-family="-apple-system, BlinkMacSystemFont, 'Segoe UI', Helvetica, sans-serif">204</text>
</svg>