<svg xmlns="http://www.w3.org/2000/svg" viewBox="0 0 760 260" width="760" height="260" role="img" aria-label="Glassy install history">
  <style>
  svg { color-scheme: light dark; }
  .title      { fill: #1a1a2e; font-size: 15px; font-weight: 600; }
  .subtitle   { fill: #6b7280; font-size: 11px; font-weight: 400; }
  .grid       { stroke: #e8e8ee; }
  .axis-label { fill: #8a8a9a; font-size: 10px; }
  .line-total   { stroke: #e8553d; }
  .line-vscode  { stroke: #5b7cfa; }
  .line-openvsx { stroke: #34c7a0; }
  .dot-total   { fill: transparent; stroke: #e8553d; }
  .dot-vscode  { fill: transparent; stroke: #5b7cfa; }
  .dot-openvsx { fill: transparent; stroke: #34c7a0; }
  .end-label       { fill: #1a1a2e; font-size: 11px; font-weight: 600; }
  .end-value       { fill: #6b7280; font-size: 11px; font-weight: 400; }
  .area-total-top    { stop-color: #e8553d; }
  .area-total-bottom { stop-color: #e8553d; }

  @media (prefers-color-scheme: dark) {
    .title      { fill: #e2e2e8; }
    .subtitle   { fill: #8b949e; }
    .grid       { stroke: #2d2d3d; }
    .axis-label { fill: #6e7681; }
    .line-total   { stroke: #ff9b85; }
    .line-vscode  { stroke: #8da4ff; }
    .line-openvsx { stroke: #5eead4; }
    .dot-total   { stroke: #ff9b85; }
    .dot-vscode  { stroke: #8da4ff; }
    .dot-openvsx { stroke: #5eead4; }
    .end-label       { fill: #e2e2e8; }
    .end-value       { fill: #8b949e; }
    .area-total-top    { stop-color: #ff9b85; }
    .area-total-bottom { stop-color: #ff9b85; }
  }
</style>
  <defs>
    <linearGradient id="areaGrad" x1="0" y1="0" x2="0" y2="1">
      <stop offset="0%" class="area-total-top" stop-opacity="0.18"/>
      <stop offset="60%" class="area-total-bottom" stop-opacity="0.04"/>
      <stop offset="100%" class="area-total-bottom" stop-opacity="0"/>
    </linearGradient>
  </defs>

  <text x="48" y="22" class="title" font-family="-apple-system, BlinkMacSystemFont, 'Segoe UI', Helvetica, sans-serif">Installs</text>
  <text x="48" y="37" class="subtitle" font-family="-apple-system, BlinkMacSystemFont, 'Segoe UI', Helvetica, sans-serif">Updated Jun 15</text>

  <line x1="48" y1="220" x2="640" y2="220" class="grid" stroke-width="0.7"/>
    <text x="40" y="223.5" class="axis-label" text-anchor="end" font-family="-apple-system, BlinkMacSystemFont, 'Segoe UI', Helvetica, sans-serif">0</text>
    <line x1="48" y1="162.66666666666669" x2="640" y2="162.66666666666669" class="grid" stroke-width="0.7"/>
    <text x="40" y="166.16666666666669" class="axis-label" text-anchor="end" font-family="-apple-system, BlinkMacSystemFont, 'Segoe UI', Helvetica, sans-serif">1k</text>
    <line x1="48" y1="105.33333333333334" x2="640" y2="105.33333333333334" class="grid" stroke-width="0.7"/>
    <text x="40" y="108.83333333333334" class="axis-label" text-anchor="end" font-family="-apple-system, BlinkMacSystemFont, 'Segoe UI', Helvetica, sans-serif">2k</text>
    <line x1="48" y1="48" x2="640" y2="48" class="grid" stroke-width="0.7"/>
    <text x="40" y="51.5" class="axis-label" text-anchor="end" font-family="-apple-system, BlinkMacSystemFont, 'Segoe UI', Helvetica, sans-serif">3k</text>
  <text x="48" y="248" class="axis-label" text-anchor="middle" font-family="-apple-system, BlinkMacSystemFont, 'Segoe UI', Helvetica, sans-serif">Mar 27</text>
    <text x="164.078431372549" y="248" class="axis-label" text-anchor="middle" font-family="-apple-system, BlinkMacSystemFont, 'Segoe UI', Helvetica, sans-serif">May 5</text>
    <text x="280.156862745098" y="248" class="axis-label" text-anchor="middle" font-family="-apple-system, BlinkMacSystemFont, 'Segoe UI', Helvetica, sans-serif">May 15</text>
    <text x="407.84313725490193" y="248" class="axis-label" text-anchor="middle" font-family="-apple-system, BlinkMacSystemFont, 'Segoe UI', Helvetica, sans-serif">May 26</text>
    <text x="523.921568627451" y="248" class="axis-label" text-anchor="middle" font-family="-apple-system, BlinkMacSystemFont, 'Segoe UI', Helvetica, sans-serif">Jun 5</text>
    <text x="640" y="248" class="axis-label" text-anchor="middle" font-family="-apple-system, BlinkMacSystemFont, 'Segoe UI', Helvetica, sans-serif">Jun 15</text>

  <path d="M48.0,219.8 C49.9,218.4 55.7,213.7 59.6,211.7 C63.5,209.7 67.3,209.1 71.2,207.7 C75.1,206.4 79.0,204.4 82.8,203.7 C86.7,203.0 90.6,205.0 94.4,203.5 C98.3,202.0 102.2,196.6 106.0,194.9 C109.9,193.2 113.8,200.1 117.6,193.2 C121.5,186.2 125.4,160.3 129.3,153.3 C133.1,146.3 137.0,151.7 140.9,151.3 C144.7,150.8 148.6,150.7 152.5,150.5 C156.3,150.3 160.2,150.2 164.1,150.1 C167.9,150.0 171.8,149.9 175.7,149.7 C179.6,149.5 183.4,149.1 187.3,148.7 C191.2,148.2 195.0,147.4 198.9,147.0 C202.8,146.5 206.6,146.3 210.5,146.1 C214.4,145.9 218.2,146.0 222.1,145.6 C226.0,145.2 229.9,144.1 233.7,143.6 C237.6,143.1 241.5,142.9 245.3,142.6 C249.2,142.3 253.1,142.0 256.9,141.7 C260.8,141.4 264.7,141.4 268.5,140.8 C272.4,140.2 276.3,138.7 280.2,138.0 C284.0,137.4 287.9,137.2 291.8,136.9 C295.6,136.6 299.5,136.4 303.4,136.2 C307.2,136.1 311.1,136.5 315.0,136.1 C318.8,135.7 322.7,134.4 326.6,133.8 C330.5,133.2 334.3,133.0 338.2,132.5 C342.1,132.1 345.9,131.8 349.8,131.1 C353.7,130.4 357.5,129.0 361.4,128.3 C365.3,127.6 369.2,127.3 373.0,126.9 C376.9,126.5 380.8,126.3 384.6,126.0 C388.5,125.8 392.4,125.8 396.2,125.3 C400.1,124.9 404.0,124.0 407.8,123.6 C411.7,123.1 415.6,122.8 419.5,122.5 C423.3,122.2 427.2,122.0 431.1,121.7 C434.9,121.5 438.8,121.3 442.7,121.1 C446.5,120.9 450.4,120.6 454.3,120.4 C458.1,120.3 462.0,120.3 465.9,120.2 C469.8,120.2 473.6,121.0 477.5,120.2 C481.4,119.4 485.2,116.5 489.1,115.5 C493.0,114.5 496.8,114.6 500.7,114.2 C504.6,113.7 508.4,113.3 512.3,112.8 C516.2,112.4 520.1,111.9 523.9,111.6 C527.8,111.3 531.7,111.2 535.5,111.0 C539.4,110.8 543.3,110.4 547.1,110.2 C551.0,110.0 554.9,110.1 558.7,109.7 C562.6,109.4 566.5,108.6 570.4,108.1 C574.2,107.7 578.1,107.6 582.0,107.2 C585.8,106.9 589.7,106.4 593.6,106.2 C597.4,105.9 601.3,106.0 605.2,105.7 C609.0,105.5 612.9,104.8 616.8,104.5 C620.7,104.2 624.5,104.2 628.4,104.0 C632.3,103.7 638.1,103.3 640.0,103.2 L640.0,220.0 L48.0,220.0 Z" fill="url(#areaGrad)"/>
  <path d="M48.0,219.8 C49.9,218.5 55.7,213.8 59.6,211.9 C63.5,210.0 67.3,209.5 71.2,208.4 C75.1,207.3 79.0,205.6 82.8,205.1 C86.7,204.5 90.6,206.5 94.4,205.1 C98.3,203.7 102.2,198.4 106.0,196.8 C109.9,195.2 113.8,201.7 117.6,195.5 C121.5,189.2 125.4,165.5 129.3,159.1 C133.1,152.7 137.0,157.7 140.9,157.3 C144.7,156.9 148.6,156.8 152.5,156.7 C156.3,156.6 160.2,156.6 164.1,156.5 C167.9,156.4 171.8,156.4 175.7,156.1 C179.6,155.9 183.4,155.6 187.3,155.1 C191.2,154.6 195.0,153.7 198.9,153.4 C202.8,153.0 206.6,153.1 210.5,152.9 C214.4,152.8 218.2,153.0 222.1,152.6 C226.0,152.2 229.9,151.1 233.7,150.6 C237.6,150.1 241.5,150.0 245.3,149.7 C249.2,149.4 253.1,149.2 256.9,148.9 C260.8,148.6 264.7,148.6 268.5,148.0 C272.4,147.4 276.3,145.9 280.2,145.2 C284.0,144.6 287.9,144.5 291.8,144.2 C295.6,143.9 299.5,143.7 303.4,143.5 C307.2,143.4 311.1,143.8 315.0,143.4 C318.8,143.0 322.7,141.8 326.6,141.2 C330.5,140.7 334.3,140.5 338.2,140.1 C342.1,139.7 345.9,139.6 349.8,138.9 C353.7,138.3 357.5,136.9 361.4,136.3 C365.3,135.6 369.2,135.4 373.0,135.0 C376.9,134.7 380.8,134.5 384.6,134.2 C388.5,134.0 392.4,134.0 396.2,133.7 C400.1,133.3 404.0,132.5 407.8,132.1 C411.7,131.6 415.6,131.4 419.5,131.1 C423.3,130.9 427.2,130.6 431.1,130.4 C434.9,130.3 438.8,130.2 442.7,130.0 C446.5,129.8 450.4,129.5 454.3,129.4 C458.1,129.3 462.0,129.4 465.9,129.4 C469.8,129.4 473.6,130.2 477.5,129.4 C481.4,128.7 485.2,125.9 489.1,124.9 C493.0,124.0 496.8,124.0 500.7,123.6 C504.6,123.1 508.4,122.7 512.3,122.3 C516.2,121.9 520.1,121.3 523.9,121.0 C527.8,120.7 531.7,120.7 535.5,120.5 C539.4,120.2 543.3,119.9 547.1,119.7 C551.0,119.5 554.9,119.6 558.7,119.2 C562.6,118.9 566.5,118.0 570.4,117.6 C574.2,117.2 578.1,117.0 582.0,116.7 C585.8,116.4 589.7,115.9 593.6,115.7 C597.4,115.4 601.3,115.5 605.2,115.2 C609.0,114.9 612.9,114.3 616.8,114.0 C620.7,113.8 624.5,113.8 628.4,113.6 C632.3,113.4 638.1,113.0 640.0,112.9" fill="none" class="line-openvsx" stroke-width="1.8" stroke-linecap="round" stroke-linejoin="round"/>
  <path d="M48.0,219.9 C49.9,219.9 55.7,219.9 59.6,219.8 C63.5,219.7 67.3,219.5 71.2,219.3 C75.1,219.1 79.0,218.8 82.8,218.6 C86.7,218.5 90.6,218.5 94.4,218.4 C98.3,218.3 102.2,218.2 106.0,218.1 C109.9,217.9 113.8,218.3 117.6,217.7 C121.5,217.1 125.4,214.8 129.3,214.2 C133.1,213.6 137.0,214.0 140.9,214.0 C144.7,213.9 148.6,213.9 152.5,213.8 C156.3,213.8 160.2,213.7 164.1,213.6 C167.9,213.6 171.8,213.6 175.7,213.6 C179.6,213.6 183.4,213.6 187.3,213.6 C191.2,213.6 195.0,213.6 198.9,213.6 C202.8,213.5 206.6,213.3 210.5,213.2 C214.4,213.1 218.2,213.1 222.1,213.1 C226.0,213.0 229.9,213.0 233.7,213.0 C237.6,213.0 241.5,212.9 245.3,212.9 C249.2,212.9 253.1,212.8 256.9,212.8 C260.8,212.8 264.7,212.8 268.5,212.8 C272.4,212.8 276.3,212.8 280.2,212.8 C284.0,212.8 287.9,212.7 291.8,212.7 C295.6,212.7 299.5,212.7 303.4,212.7 C307.2,212.7 311.1,212.7 315.0,212.7 C318.8,212.6 322.7,212.6 326.6,212.5 C330.5,212.5 334.3,212.5 338.2,212.4 C342.1,212.4 345.9,212.2 349.8,212.1 C353.7,212.1 357.5,212.0 361.4,212.0 C365.3,211.9 369.2,211.9 373.0,211.9 C376.9,211.8 380.8,211.8 384.6,211.8 C388.5,211.8 392.4,211.7 396.2,211.7 C400.1,211.6 404.0,211.6 407.8,211.5 C411.7,211.5 415.6,211.4 419.5,211.4 C423.3,211.4 427.2,211.3 431.1,211.3 C434.9,211.2 438.8,211.2 442.7,211.1 C446.5,211.1 450.4,211.0 454.3,211.0 C458.1,211.0 462.0,210.9 465.9,210.8 C469.8,210.8 473.6,210.8 477.5,210.8 C481.4,210.7 485.2,210.6 489.1,210.6 C493.0,210.6 496.8,210.6 500.7,210.6 C504.6,210.6 508.4,210.5 512.3,210.5 C516.2,210.5 520.1,210.5 523.9,210.5 C527.8,210.5 531.7,210.5 535.5,210.5 C539.4,210.5 543.3,210.5 547.1,210.5 C551.0,210.5 554.9,210.5 558.7,210.5 C562.6,210.5 566.5,210.5 570.4,210.5 C574.2,210.5 578.1,210.5 582.0,210.5 C585.8,210.5 589.7,210.5 593.6,210.5 C597.4,210.5 601.3,210.5 605.2,210.5 C609.0,210.5 612.9,210.5 616.8,210.5 C620.7,210.5 624.5,210.4 628.4,210.4 C632.3,210.3 638.1,210.3 640.0,210.3" fill="none" class="line-vscode" stroke-width="1.8" stroke-linecap="round" stroke-linejoin="round"/>
  <path d="M48.0,219.8 C49.9,218.4 55.7,213.7 59.6,211.7 C63.5,209.7 67.3,209.1 71.2,207.7 C75.1,206.4 79.0,204.4 82.8,203.7 C86.7,203.0 90.6,205.0 94.4,203.5 C98.3,202.0 102.2,196.6 106.0,194.9 C109.9,193.2 113.8,200.1 117.6,193.2 C121.5,186.2 125.4,160.3 129.3,153.3 C133.1,146.3 137.0,151.7 140.9,151.3 C144.7,150.8 148.6,150.7 152.5,150.5 C156.3,150.3 160.2,150.2 164.1,150.1 C167.9,150.0 171.8,149.9 175.7,149.7 C179.6,149.5 183.4,149.1 187.3,148.7 C191.2,148.2 195.0,147.4 198.9,147.0 C202.8,146.5 206.6,146.3 210.5,146.1 C214.4,145.9 218.2,146.0 222.1,145.6 C226.0,145.2 229.9,144.1 233.7,143.6 C237.6,143.1 241.5,142.9 245.3,142.6 C249.2,142.3 253.1,142.0 256.9,141.7 C260.8,141.4 264.7,141.4 268.5,140.8 C272.4,140.2 276.3,138.7 280.2,138.0 C284.0,137.4 287.9,137.2 291.8,136.9 C295.6,136.6 299.5,136.4 303.4,136.2 C307.2,136.1 311.1,136.5 315.0,136.1 C318.8,135.7 322.7,134.4 326.6,133.8 C330.5,133.2 334.3,133.0 338.2,132.5 C342.1,132.1 345.9,131.8 349.8,131.1 C353.7,130.4 357.5,129.0 361.4,128.3 C365.3,127.6 369.2,127.3 373.0,126.9 C376.9,126.5 380.8,126.3 384.6,126.0 C388.5,125.8 392.4,125.8 396.2,125.3 C400.1,124.9 404.0,124.0 407.8,123.6 C411.7,123.1 415.6,122.8 419.5,122.5 C423.3,122.2 427.2,122.0 431.1,121.7 C434.9,121.5 438.8,121.3 442.7,121.1 C446.5,120.9 450.4,120.6 454.3,120.4 C458.1,120.3 462.0,120.3 465.9,120.2 C469.8,120.2 473.6,121.0 477.5,120.2 C481.4,119.4 485.2,116.5 489.1,115.5 C493.0,114.5 496.8,114.6 500.7,114.2 C504.6,113.7 508.4,113.3 512.3,112.8 C516.2,112.4 520.1,111.9 523.9,111.6 C527.8,111.3 531.7,111.2 535.5,111.0 C539.4,110.8 543.3,110.4 547.1,110.2 C551.0,110.0 554.9,110.1 558.7,109.7 C562.6,109.4 566.5,108.6 570.4,108.1 C574.2,107.7 578.1,107.6 582.0,107.2 C585.8,106.9 589.7,106.4 593.6,106.2 C597.4,105.9 601.3,106.0 605.2,105.7 C609.0,105.5 612.9,104.8 616.8,104.5 C620.7,104.2 624.5,104.2 628.4,104.0 C632.3,103.7 638.1,103.3 640.0,103.2" fill="none" class="line-total" stroke-width="2.5" stroke-linecap="round" stroke-linejoin="round"/>

  <circle cx="640" cy="103.15466666666667" r="4.5" class="dot-total" stroke-width="2"/>
    <text x="658" y="107.15466666666667" class="end-label" font-family="-apple-system, BlinkMacSystemFont, 'Segoe UI', Helvetica, sans-serif">Total</text>
    <text x="697" y="107.15466666666667" class="end-value" font-family="-apple-system, BlinkMacSystemFont, 'Segoe UI', Helvetica, sans-serif">2k</text>
    <circle cx="640" cy="112.90133333333333" r="3.5" class="dot-openvsx" stroke-width="1.8"/>
    <text x="658" y="125.15466666666667" class="end-label" font-family="-apple-system, BlinkMacSystemFont, 'Segoe UI', Helvetica, sans-serif">Open VSX</text>
    <text x="716.8" y="125.15466666666667" class="end-value" font-family="-apple-system, BlinkMacSystemFont, 'Segoe UI', Helvetica, sans-serif">1.9k</text>
    <circle cx="640" cy="210.25333333333333" r="3.5" class="dot-vscode" stroke-width="1.8"/>
    <text x="658" y="214.25333333333333" class="end-label" font-family="-apple-system, BlinkMacSystemFont, 'Segoe UI', Helvetica, sans-serif">VS Code</text>
    <text x="710.2" y="214.25333333333333" class="end-value" font-family="-apple-system, BlinkMacSystemFont, 'Segoe UI', Helvetica, sans-serif">170</text>
</svg>