<svg xmlns="http://www.w3.org/2000/svg" viewBox="0 0 720 240" width="720" height="240">
  <rect width="720" height="240" rx="8" fill="#0d1117"/>
  
    <line x1="56" y1="192" x2="696" y2="192" stroke="#21262d" stroke-width="1"/>
    <text x="48" y="196" fill="#8b949e" font-size="11" text-anchor="end" font-family="monospace">0</text>
  
    <line x1="56" y1="151.72413793103448" x2="696" y2="151.72413793103448" stroke="#21262d" stroke-width="1"/>
    <text x="48" y="155.72413793103448" fill="#8b949e" font-size="11" text-anchor="end" font-family="monospace">73</text>
  
    <line x1="56" y1="112" x2="696" y2="112" stroke="#21262d" stroke-width="1"/>
    <text x="48" y="116" fill="#8b949e" font-size="11" text-anchor="end" font-family="monospace">145</text>
  
    <line x1="56" y1="71.72413793103449" x2="696" y2="71.72413793103449" stroke="#21262d" stroke-width="1"/>
    <text x="48" y="75.72413793103449" fill="#8b949e" font-size="11" text-anchor="end" font-family="monospace">218</text>
  
    <line x1="56" y1="32" x2="696" y2="32" stroke="#21262d" stroke-width="1"/>
    <text x="48" y="36" fill="#8b949e" font-size="11" text-anchor="end" font-family="monospace">290</text>
  
  <text x="56" y="232" fill="#8b949e" font-size="10" text-anchor="middle" font-family="monospace">03-28</text>
  <text x="376" y="232" fill="#8b949e" font-size="10" text-anchor="middle" font-family="monospace">03-29</text>
  <text x="696" y="232" fill="#8b949e" font-size="10" text-anchor="middle" font-family="monospace">03-30</text>
  
    <rect x="56" y="8" width="10" height="3" rx="1" fill="#f0f6fc"/>
    <text x="70" y="13" fill="#8b949e" font-size="10" font-family="monospace">Total</text>
    <rect x="114" y="8" width="10" height="3" rx="1" fill="#58a6ff"/>
    <text x="128" y="13" fill="#8b949e" font-size="10" font-family="monospace">VS Code</text>
    <rect x="186" y="8" width="10" height="3" rx="1" fill="#3fb950"/>
    <text x="200" y="13" fill="#8b949e" font-size="10" font-family="monospace">OpenVSX</text>
  
  <path d="M56.0,112.0 L376.0,73.9 L696.0,34.8" fill="none" stroke="#f0f6fc" stroke-width="2" stroke-linecap="round" stroke-linejoin="round"/>
  <path d="M56.0,190.3 L376.0,185.4 L696.0,178.2" fill="none" stroke="#58a6ff" stroke-width="1.5" stroke-linecap="round" stroke-linejoin="round" stroke-dasharray="4 2"/>
  <path d="M56.0,113.7 L376.0,80.6 L696.0,48.6" fill="none" stroke="#3fb950" stroke-width="1.5" stroke-linecap="round" stroke-linejoin="round" stroke-dasharray="4 2"/>
  
    <circle cx="696" cy="34.758620689655174" r="3" fill="#f0f6fc"/>
    <text x="702" y="38.758620689655174" fill="#f0f6fc" font-size="11" font-family="monospace" font-weight="bold">285</text>
    <circle cx="696" cy="178.20689655172413" r="2.5" fill="#58a6ff"/>
    <circle cx="696" cy="48.551724137931046" r="2.5" fill="#3fb950"/>
  
</svg>