<svg xmlns="http://www.w3.org/2000/svg" viewBox="0 0 760 260" width="760" height="260" role="img" aria-label="Glassy install history">
  <style>
  svg { color-scheme: light dark; }
  .title      { fill: #1a1a2e; font-size: 15px; font-weight: 600; }
  .subtitle   { fill: #6b7280; font-size: 11px; font-weight: 400; }
  .grid       { stroke: #e8e8ee; }
  .axis-label { fill: #8a8a9a; font-size: 10px; }
  .line-total   { stroke: #e8553d; }
  .line-vscode  { stroke: #5b7cfa; }
  .line-openvsx { stroke: #34c7a0; }
  .dot-total   { fill: transparent; stroke: #e8553d; }
  .dot-vscode  { fill: transparent; stroke: #5b7cfa; }
  .dot-openvsx { fill: transparent; stroke: #34c7a0; }
  .end-label       { fill: #1a1a2e; font-size: 11px; font-weight: 600; }
  .end-value       { fill: #6b7280; font-size: 11px; font-weight: 400; }
  .area-total-top    { stop-color: #e8553d; }
  .area-total-bottom { stop-color: #e8553d; }

  @media (prefers-color-scheme: dark) {
    .title      { fill: #e2e2e8; }
    .subtitle   { fill: #8b949e; }
    .grid       { stroke: #2d2d3d; }
    .axis-label { fill: #6e7681; }
    .line-total   { stroke: #ff9b85; }
    .line-vscode  { stroke: #8da4ff; }
    .line-openvsx { stroke: #5eead4; }
    .dot-total   { stroke: #ff9b85; }
    .dot-vscode  { stroke: #8da4ff; }
    .dot-openvsx { stroke: #5eead4; }
    .end-label       { fill: #e2e2e8; }
    .end-value       { fill: #8b949e; }
    .area-total-top    { stop-color: #ff9b85; }
    .area-total-bottom { stop-color: #ff9b85; }
  }
</style>
  <defs>
    <linearGradient id="areaGrad" x1="0" y1="0" x2="0" y2="1">
      <stop offset="0%" class="area-total-top" stop-opacity="0.18"/>
      <stop offset="60%" class="area-total-bottom" stop-opacity="0.04"/>
      <stop offset="100%" class="area-total-bottom" stop-opacity="0"/>
    </linearGradient>
  </defs>

  <text x="48" y="22" class="title" font-family="-apple-system, BlinkMacSystemFont, 'Segoe UI', Helvetica, sans-serif">Installs</text>
  <text x="48" y="37" class="subtitle" font-family="-apple-system, BlinkMacSystemFont, 'Segoe UI', Helvetica, sans-serif">Updated May 24</text>

  <line x1="48" y1="220" x2="640" y2="220" class="grid" stroke-width="0.7"/>
    <text x="40" y="223.5" class="axis-label" text-anchor="end" font-family="-apple-system, BlinkMacSystemFont, 'Segoe UI', Helvetica, sans-serif">0</text>
    <line x1="48" y1="177" x2="640" y2="177" class="grid" stroke-width="0.7"/>
    <text x="40" y="180.5" class="axis-label" text-anchor="end" font-family="-apple-system, BlinkMacSystemFont, 'Segoe UI', Helvetica, sans-serif">500</text>
    <line x1="48" y1="134" x2="640" y2="134" class="grid" stroke-width="0.7"/>
    <text x="40" y="137.5" class="axis-label" text-anchor="end" font-family="-apple-system, BlinkMacSystemFont, 'Segoe UI', Helvetica, sans-serif">1k</text>
    <line x1="48" y1="91" x2="640" y2="91" class="grid" stroke-width="0.7"/>
    <text x="40" y="94.5" class="axis-label" text-anchor="end" font-family="-apple-system, BlinkMacSystemFont, 'Segoe UI', Helvetica, sans-serif">1.5k</text>
    <line x1="48" y1="48" x2="640" y2="48" class="grid" stroke-width="0.7"/>
    <text x="40" y="51.5" class="axis-label" text-anchor="end" font-family="-apple-system, BlinkMacSystemFont, 'Segoe UI', Helvetica, sans-serif">2k</text>
  <text x="48" y="248" class="axis-label" text-anchor="middle" font-family="-apple-system, BlinkMacSystemFont, 'Segoe UI', Helvetica, sans-serif">Mar 27</text>
    <text x="170.48275862068965" y="248" class="axis-label" text-anchor="middle" font-family="-apple-system, BlinkMacSystemFont, 'Segoe UI', Helvetica, sans-serif">Apr 2</text>
    <text x="292.9655172413793" y="248" class="axis-label" text-anchor="middle" font-family="-apple-system, BlinkMacSystemFont, 'Segoe UI', Helvetica, sans-serif">May 7</text>
    <text x="395.03448275862064" y="248" class="axis-label" text-anchor="middle" font-family="-apple-system, BlinkMacSystemFont, 'Segoe UI', Helvetica, sans-serif">May 12</text>
    <text x="517.5172413793103" y="248" class="axis-label" text-anchor="middle" font-family="-apple-system, BlinkMacSystemFont, 'Segoe UI', Helvetica, sans-serif">May 18</text>
    <text x="640" y="248" class="axis-label" text-anchor="middle" font-family="-apple-system, BlinkMacSystemFont, 'Segoe UI', Helvetica, sans-serif">May 24</text>

  <path d="M48.0,219.7 C51.4,217.6 61.6,210.5 68.4,207.5 C75.2,204.5 82.0,203.6 88.8,201.6 C95.6,199.6 102.4,196.6 109.2,195.6 C116.0,194.5 122.9,197.4 129.7,195.2 C136.5,193.0 143.3,184.9 150.1,182.3 C156.9,179.8 163.7,190.1 170.5,179.8 C177.3,169.4 184.1,130.5 190.9,120.0 C197.7,109.5 204.5,117.6 211.3,116.9 C218.1,116.2 224.9,116.1 231.7,115.8 C238.5,115.5 245.3,115.4 252.1,115.2 C258.9,115.0 265.7,114.9 272.6,114.6 C279.4,114.2 286.2,113.7 293.0,113.0 C299.8,112.3 306.6,111.1 313.4,110.4 C320.2,109.8 327.0,109.5 333.8,109.1 C340.6,108.8 347.4,109.1 354.2,108.5 C361.0,107.8 367.8,106.2 374.6,105.4 C381.4,104.7 388.2,104.4 395.0,103.9 C401.8,103.4 408.6,103.1 415.4,102.6 C422.3,102.2 429.1,102.2 435.9,101.2 C442.7,100.3 449.5,98.0 456.3,97.0 C463.1,96.0 469.9,95.8 476.7,95.4 C483.5,94.9 490.3,94.6 497.1,94.4 C503.9,94.1 510.7,94.7 517.5,94.1 C524.3,93.5 531.1,91.5 537.9,90.7 C544.7,89.8 551.5,89.4 558.3,88.8 C565.1,88.1 572.0,87.7 578.8,86.6 C585.6,85.6 592.4,83.4 599.2,82.4 C606.0,81.4 612.8,80.9 619.6,80.3 C626.4,79.8 636.6,79.3 640.0,79.0 L640.0,220.0 L48.0,220.0 Z" fill="url(#areaGrad)"/>
  <path d="M48.0,219.7 C51.4,217.7 61.6,210.6 68.4,207.8 C75.2,204.9 82.0,204.3 88.8,202.6 C95.6,200.9 102.4,198.5 109.2,197.6 C116.0,196.8 122.9,199.7 129.7,197.6 C136.5,195.6 143.3,187.7 150.1,185.3 C156.9,182.8 163.7,192.6 170.5,183.2 C177.3,173.8 184.1,138.2 190.9,128.7 C197.7,119.1 204.5,126.5 211.3,125.9 C218.1,125.3 224.9,125.3 231.7,125.1 C238.5,124.9 245.3,124.9 252.1,124.7 C258.9,124.6 265.7,124.5 272.6,124.2 C279.4,123.9 286.2,123.3 293.0,122.6 C299.8,122.0 306.6,120.6 313.4,120.1 C320.2,119.5 327.0,119.6 333.8,119.4 C340.6,119.2 347.4,119.4 354.2,118.9 C361.0,118.3 367.8,116.7 374.6,115.9 C381.4,115.2 388.2,115.0 395.0,114.6 C401.8,114.1 408.6,113.8 415.4,113.4 C422.3,112.9 429.1,112.9 435.9,112.0 C442.7,111.1 449.5,108.8 456.3,107.9 C463.1,106.9 469.9,106.7 476.7,106.3 C483.5,105.9 490.3,105.5 497.1,105.3 C503.9,105.1 510.7,105.7 517.5,105.1 C524.3,104.5 531.1,102.7 537.9,101.8 C544.7,101.0 551.5,100.7 558.3,100.1 C565.1,99.5 572.0,99.3 578.8,98.4 C585.6,97.5 592.4,95.4 599.2,94.4 C606.0,93.5 612.8,93.1 619.6,92.5 C626.4,92.0 636.6,91.5 640.0,91.3" fill="none" class="line-openvsx" stroke-width="1.8" stroke-linecap="round" stroke-linejoin="round"/>
  <path d="M48.0,219.9 C51.4,219.9 61.6,219.9 68.4,219.7 C75.2,219.6 82.0,219.3 88.8,219.0 C95.6,218.7 102.4,218.2 109.2,217.9 C116.0,217.7 122.9,217.7 129.7,217.6 C136.5,217.4 143.3,217.2 150.1,217.1 C156.9,216.9 163.7,217.5 170.5,216.6 C177.3,215.6 184.1,212.2 190.9,211.3 C197.7,210.4 204.5,211.1 211.3,211.0 C218.1,210.9 224.9,210.8 231.7,210.7 C238.5,210.6 245.3,210.5 252.1,210.5 C258.9,210.4 265.7,210.4 272.6,210.4 C279.4,210.4 286.2,210.4 293.0,210.4 C299.8,210.4 306.6,210.5 313.4,210.4 C320.2,210.3 327.0,209.9 333.8,209.8 C340.6,209.6 347.4,209.6 354.2,209.6 C361.0,209.6 367.8,209.6 374.6,209.5 C381.4,209.5 388.2,209.4 395.0,209.3 C401.8,209.3 408.6,209.3 415.4,209.3 C422.3,209.2 429.1,209.3 435.9,209.3 C442.7,209.2 449.5,209.2 456.3,209.2 C463.1,209.1 469.9,209.1 476.7,209.1 C483.5,209.1 490.3,209.1 497.1,209.1 C503.9,209.1 510.7,209.0 517.5,209.0 C524.3,208.9 531.1,208.9 537.9,208.8 C544.7,208.8 551.5,208.7 558.3,208.6 C565.1,208.5 572.0,208.3 578.8,208.2 C585.6,208.1 592.4,208.0 599.2,208.0 C606.0,207.9 612.8,207.8 619.6,207.8 C626.4,207.7 636.6,207.7 640.0,207.7" fill="none" class="line-vscode" stroke-width="1.8" stroke-linecap="round" stroke-linejoin="round"/>
  <path d="M48.0,219.7 C51.4,217.6 61.6,210.5 68.4,207.5 C75.2,204.5 82.0,203.6 88.8,201.6 C95.6,199.6 102.4,196.6 109.2,195.6 C116.0,194.5 122.9,197.4 129.7,195.2 C136.5,193.0 143.3,184.9 150.1,182.3 C156.9,179.8 163.7,190.1 170.5,179.8 C177.3,169.4 184.1,130.5 190.9,120.0 C197.7,109.5 204.5,117.6 211.3,116.9 C218.1,116.2 224.9,116.1 231.7,115.8 C238.5,115.5 245.3,115.4 252.1,115.2 C258.9,115.0 265.7,114.9 272.6,114.6 C279.4,114.2 286.2,113.7 293.0,113.0 C299.8,112.3 306.6,111.1 313.4,110.4 C320.2,109.8 327.0,109.5 333.8,109.1 C340.6,108.8 347.4,109.1 354.2,108.5 C361.0,107.8 367.8,106.2 374.6,105.4 C381.4,104.7 388.2,104.4 395.0,103.9 C401.8,103.4 408.6,103.1 415.4,102.6 C422.3,102.2 429.1,102.2 435.9,101.2 C442.7,100.3 449.5,98.0 456.3,97.0 C463.1,96.0 469.9,95.8 476.7,95.4 C483.5,94.9 490.3,94.6 497.1,94.4 C503.9,94.1 510.7,94.7 517.5,94.1 C524.3,93.5 531.1,91.5 537.9,90.7 C544.7,89.8 551.5,89.4 558.3,88.8 C565.1,88.1 572.0,87.7 578.8,86.6 C585.6,85.6 592.4,83.4 599.2,82.4 C606.0,81.4 612.8,80.9 619.6,80.3 C626.4,79.8 636.6,79.3 640.0,79.0" fill="none" class="line-total" stroke-width="2.5" stroke-linecap="round" stroke-linejoin="round"/>

  <circle cx="640" cy="79.04599999999999" r="4.5" class="dot-total" stroke-width="2"/>
    <text x="658" y="83.04599999999999" class="end-label" font-family="-apple-system, BlinkMacSystemFont, 'Segoe UI', Helvetica, sans-serif">Total</text>
    <text x="697" y="83.04599999999999" class="end-value" font-family="-apple-system, BlinkMacSystemFont, 'Segoe UI', Helvetica, sans-serif">1.6k</text>
    <circle cx="640" cy="91.344" r="3.5" class="dot-openvsx" stroke-width="1.8"/>
    <text x="658" y="101.04599999999999" class="end-label" font-family="-apple-system, BlinkMacSystemFont, 'Segoe UI', Helvetica, sans-serif">Open VSX</text>
    <text x="716.8" y="101.04599999999999" class="end-value" font-family="-apple-system, BlinkMacSystemFont, 'Segoe UI', Helvetica, sans-serif">1.5k</text>
    <circle cx="640" cy="207.702" r="3.5" class="dot-vscode" stroke-width="1.8"/>
    <text x="658" y="211.702" class="end-label" font-family="-apple-system, BlinkMacSystemFont, 'Segoe UI', Helvetica, sans-serif">VS Code</text>
    <text x="710.2" y="211.702" class="end-value" font-family="-apple-system, BlinkMacSystemFont, 'Segoe UI', Helvetica, sans-serif">143</text>
</svg>