<svg xmlns="http://www.w3.org/2000/svg" viewBox="0 0 760 260" width="760" height="260" role="img" aria-label="Glassy install history">
  <style>
  svg { color-scheme: light dark; }
  .title      { fill: #1a1a2e; font-size: 15px; font-weight: 600; }
  .subtitle   { fill: #6b7280; font-size: 11px; font-weight: 400; }
  .grid       { stroke: #e8e8ee; }
  .axis-label { fill: #8a8a9a; font-size: 10px; }
  .line-total   { stroke: #e8553d; }
  .line-vscode  { stroke: #5b7cfa; }
  .line-openvsx { stroke: #34c7a0; }
  .dot-total   { fill: transparent; stroke: #e8553d; }
  .dot-vscode  { fill: transparent; stroke: #5b7cfa; }
  .dot-openvsx { fill: transparent; stroke: #34c7a0; }
  .end-label       { fill: #1a1a2e; font-size: 11px; font-weight: 600; }
  .end-value       { fill: #6b7280; font-size: 11px; font-weight: 400; }
  .area-total-top    { stop-color: #e8553d; }
  .area-total-bottom { stop-color: #e8553d; }

  @media (prefers-color-scheme: dark) {
    .title      { fill: #e2e2e8; }
    .subtitle   { fill: #8b949e; }
    .grid       { stroke: #2d2d3d; }
    .axis-label { fill: #6e7681; }
    .line-total   { stroke: #ff9b85; }
    .line-vscode  { stroke: #8da4ff; }
    .line-openvsx { stroke: #5eead4; }
    .dot-total   { stroke: #ff9b85; }
    .dot-vscode  { stroke: #8da4ff; }
    .dot-openvsx { stroke: #5eead4; }
    .end-label       { fill: #e2e2e8; }
    .end-value       { fill: #8b949e; }
    .area-total-top    { stop-color: #ff9b85; }
    .area-total-bottom { stop-color: #ff9b85; }
  }
</style>
  <defs>
    <linearGradient id="areaGrad" x1="0" y1="0" x2="0" y2="1">
      <stop offset="0%" class="area-total-top" stop-opacity="0.18"/>
      <stop offset="60%" class="area-total-bottom" stop-opacity="0.04"/>
      <stop offset="100%" class="area-total-bottom" stop-opacity="0"/>
    </linearGradient>
  </defs>

  <text x="48" y="22" class="title" font-family="-apple-system, BlinkMacSystemFont, 'Segoe UI', Helvetica, sans-serif">Installs</text>
  <text x="48" y="37" class="subtitle" font-family="-apple-system, BlinkMacSystemFont, 'Segoe UI', Helvetica, sans-serif">Updated Jul 18</text>

  <line x1="48" y1="220" x2="640" y2="220" class="grid" stroke-width="0.7"/>
    <text x="40" y="223.5" class="axis-label" text-anchor="end" font-family="-apple-system, BlinkMacSystemFont, 'Segoe UI', Helvetica, sans-serif">0</text>
    <line x1="48" y1="162.66666666666669" x2="640" y2="162.66666666666669" class="grid" stroke-width="0.7"/>
    <text x="40" y="166.16666666666669" class="axis-label" text-anchor="end" font-family="-apple-system, BlinkMacSystemFont, 'Segoe UI', Helvetica, sans-serif">1k</text>
    <line x1="48" y1="105.33333333333334" x2="640" y2="105.33333333333334" class="grid" stroke-width="0.7"/>
    <text x="40" y="108.83333333333334" class="axis-label" text-anchor="end" font-family="-apple-system, BlinkMacSystemFont, 'Segoe UI', Helvetica, sans-serif">2k</text>
    <line x1="48" y1="48" x2="640" y2="48" class="grid" stroke-width="0.7"/>
    <text x="40" y="51.5" class="axis-label" text-anchor="end" font-family="-apple-system, BlinkMacSystemFont, 'Segoe UI', Helvetica, sans-serif">3k</text>
  <text x="48" y="248" class="axis-label" text-anchor="middle" font-family="-apple-system, BlinkMacSystemFont, 'Segoe UI', Helvetica, sans-serif">Mar 27</text>
    <text x="167.8095238095238" y="248" class="axis-label" text-anchor="middle" font-family="-apple-system, BlinkMacSystemFont, 'Segoe UI', Helvetica, sans-serif">May 12</text>
    <text x="287.6190476190476" y="248" class="axis-label" text-anchor="middle" font-family="-apple-system, BlinkMacSystemFont, 'Segoe UI', Helvetica, sans-serif">May 29</text>
    <text x="400.38095238095235" y="248" class="axis-label" text-anchor="middle" font-family="-apple-system, BlinkMacSystemFont, 'Segoe UI', Helvetica, sans-serif">Jun 14</text>
    <text x="520.1904761904761" y="248" class="axis-label" text-anchor="middle" font-family="-apple-system, BlinkMacSystemFont, 'Segoe UI', Helvetica, sans-serif">Jul 1</text>
    <text x="640" y="248" class="axis-label" text-anchor="middle" font-family="-apple-system, BlinkMacSystemFont, 'Segoe UI', Helvetica, sans-serif">Jul 18</text>

  <path d="M48.0,219.8 C49.2,218.4 52.7,213.7 55.0,211.7 C57.4,209.7 59.7,209.1 62.1,207.7 C64.4,206.4 66.8,204.4 69.1,203.7 C71.5,203.0 73.8,205.0 76.2,203.5 C78.5,202.0 80.9,196.6 83.2,194.9 C85.6,193.2 87.9,200.1 90.3,193.2 C92.6,186.2 95.0,160.3 97.3,153.3 C99.7,146.3 102.0,151.7 104.4,151.3 C106.7,150.8 109.1,150.7 111.4,150.5 C113.8,150.3 116.1,150.2 118.5,150.1 C120.8,150.0 123.2,149.9 125.5,149.7 C127.9,149.5 130.2,149.1 132.6,148.7 C134.9,148.2 137.3,147.4 139.6,147.0 C142.0,146.5 144.3,146.3 146.7,146.1 C149.0,145.9 151.4,146.0 153.7,145.6 C156.1,145.2 158.4,144.1 160.8,143.6 C163.1,143.1 165.5,142.9 167.8,142.6 C170.2,142.3 172.5,142.0 174.9,141.7 C177.2,141.4 179.6,141.4 181.9,140.8 C184.3,140.2 186.6,138.7 189.0,138.0 C191.3,137.4 193.7,137.2 196.0,136.9 C198.3,136.6 200.7,136.4 203.0,136.2 C205.4,136.1 207.7,136.5 210.1,136.1 C212.4,135.7 214.8,134.4 217.1,133.8 C219.5,133.2 221.8,133.0 224.2,132.5 C226.5,132.1 228.9,131.8 231.2,131.1 C233.6,130.4 235.9,129.0 238.3,128.3 C240.6,127.6 243.0,127.3 245.3,126.9 C247.7,126.5 250.0,126.3 252.4,126.0 C254.7,125.8 257.1,125.8 259.4,125.3 C261.8,124.9 264.1,124.0 266.5,123.6 C268.8,123.1 271.2,122.8 273.5,122.5 C275.9,122.2 278.2,122.0 280.6,121.7 C282.9,121.5 285.3,121.3 287.6,121.1 C290.0,120.9 292.3,120.6 294.7,120.4 C297.0,120.3 299.4,120.3 301.7,120.2 C304.1,120.2 306.4,121.0 308.8,120.2 C311.1,119.4 313.5,116.5 315.8,115.5 C318.2,114.5 320.5,114.6 322.9,114.2 C325.2,113.7 327.6,113.3 329.9,112.8 C332.3,112.4 334.6,111.9 337.0,111.6 C339.3,111.3 341.7,111.2 344.0,111.0 C346.3,110.8 348.7,110.4 351.0,110.2 C353.4,110.0 355.7,110.1 358.1,109.7 C360.4,109.4 362.8,108.6 365.1,108.1 C367.5,107.7 369.8,107.6 372.2,107.2 C374.5,106.9 376.9,106.4 379.2,106.2 C381.6,105.9 383.9,106.0 386.3,105.7 C388.6,105.5 391.0,104.8 393.3,104.5 C395.7,104.2 398.0,104.2 400.4,104.0 C402.7,103.7 405.1,103.5 407.4,103.2 C409.8,102.9 412.1,102.5 414.5,102.2 C416.8,101.9 419.2,101.5 421.5,101.2 C423.9,100.9 426.2,100.8 428.6,100.3 C430.9,99.9 433.3,99.2 435.6,98.7 C438.0,98.3 440.3,98.1 442.7,97.7 C445.0,97.4 447.4,97.0 449.7,96.6 C452.1,96.3 454.4,95.9 456.8,95.5 C459.1,95.2 461.5,94.8 463.8,94.6 C466.2,94.3 468.5,94.2 470.9,93.8 C473.2,93.4 475.6,92.9 477.9,92.4 C480.3,91.9 482.6,91.2 485.0,90.8 C487.3,90.5 489.7,90.5 492.0,90.3 C494.3,90.1 496.7,90.0 499.0,89.8 C501.4,89.6 503.7,89.3 506.1,88.9 C508.4,88.6 510.8,88.2 513.1,87.9 C515.5,87.6 517.8,87.3 520.2,86.9 C522.5,86.6 524.9,86.2 527.2,85.8 C529.6,85.5 531.9,85.3 534.3,85.0 C536.6,84.6 539.0,84.0 541.3,83.7 C543.7,83.3 546.0,83.0 548.4,82.8 C550.7,82.6 553.1,82.6 555.4,82.4 C557.8,82.2 560.1,81.9 562.5,81.8 C564.8,81.6 567.2,81.6 569.5,81.4 C571.9,81.2 574.2,80.9 576.6,80.6 C578.9,80.4 581.3,80.0 583.6,79.8 C586.0,79.5 588.3,79.3 590.7,79.1 C593.0,78.9 595.4,78.8 597.7,78.5 C600.1,78.2 602.4,77.5 604.8,77.2 C607.1,76.9 609.5,76.8 611.8,76.6 C614.2,76.3 616.5,76.1 618.9,75.6 C621.2,75.1 623.6,74.5 625.9,73.7 C628.3,72.9 630.6,71.5 633.0,70.9 C635.3,70.3 638.8,70.3 640.0,70.1 L640.0,220.0 L48.0,220.0 Z" fill="url(#areaGrad)"/>
  <path d="M48.0,219.8 C49.2,218.5 52.7,213.8 55.0,211.9 C57.4,210.0 59.7,209.5 62.1,208.4 C64.4,207.3 66.8,205.6 69.1,205.1 C71.5,204.5 73.8,206.5 76.2,205.1 C78.5,203.7 80.9,198.4 83.2,196.8 C85.6,195.2 87.9,201.7 90.3,195.5 C92.6,189.2 95.0,165.5 97.3,159.1 C99.7,152.7 102.0,157.7 104.4,157.3 C106.7,156.9 109.1,156.8 111.4,156.7 C113.8,156.6 116.1,156.6 118.5,156.5 C120.8,156.4 123.2,156.4 125.5,156.1 C127.9,155.9 130.2,155.6 132.6,155.1 C134.9,154.6 137.3,153.7 139.6,153.4 C142.0,153.0 144.3,153.1 146.7,152.9 C149.0,152.8 151.4,153.0 153.7,152.6 C156.1,152.2 158.4,151.1 160.8,150.6 C163.1,150.1 165.5,150.0 167.8,149.7 C170.2,149.4 172.5,149.2 174.9,148.9 C177.2,148.6 179.6,148.6 181.9,148.0 C184.3,147.4 186.6,145.9 189.0,145.2 C191.3,144.6 193.7,144.5 196.0,144.2 C198.3,143.9 200.7,143.7 203.0,143.5 C205.4,143.4 207.7,143.8 210.1,143.4 C212.4,143.0 214.8,141.8 217.1,141.2 C219.5,140.7 221.8,140.5 224.2,140.1 C226.5,139.7 228.9,139.6 231.2,138.9 C233.6,138.3 235.9,136.9 238.3,136.3 C240.6,135.6 243.0,135.4 245.3,135.0 C247.7,134.7 250.0,134.5 252.4,134.2 C254.7,134.0 257.1,134.0 259.4,133.7 C261.8,133.3 264.1,132.5 266.5,132.1 C268.8,131.6 271.2,131.4 273.5,131.1 C275.9,130.9 278.2,130.6 280.6,130.4 C282.9,130.3 285.3,130.2 287.6,130.0 C290.0,129.8 292.3,129.5 294.7,129.4 C297.0,129.3 299.4,129.4 301.7,129.4 C304.1,129.4 306.4,130.2 308.8,129.4 C311.1,128.7 313.5,125.9 315.8,124.9 C318.2,124.0 320.5,124.0 322.9,123.6 C325.2,123.1 327.6,122.7 329.9,122.3 C332.3,121.9 334.6,121.3 337.0,121.0 C339.3,120.7 341.7,120.7 344.0,120.5 C346.3,120.2 348.7,119.9 351.0,119.7 C353.4,119.5 355.7,119.6 358.1,119.2 C360.4,118.9 362.8,118.0 365.1,117.6 C367.5,117.2 369.8,117.0 372.2,116.7 C374.5,116.4 376.9,115.9 379.2,115.7 C381.6,115.4 383.9,115.5 386.3,115.2 C388.6,114.9 391.0,114.3 393.3,114.0 C395.7,113.8 398.0,113.8 400.4,113.6 C402.7,113.4 405.1,113.2 407.4,112.9 C409.8,112.6 412.1,112.3 414.5,112.0 C416.8,111.7 419.2,111.4 421.5,111.1 C423.9,110.8 426.2,110.6 428.6,110.3 C430.9,109.9 433.3,109.2 435.6,108.8 C438.0,108.4 440.3,108.2 442.7,107.9 C445.0,107.5 447.4,107.2 449.7,106.8 C452.1,106.5 454.4,106.1 456.8,105.8 C459.1,105.5 461.5,105.1 463.8,104.9 C466.2,104.6 468.5,104.5 470.9,104.2 C473.2,103.8 475.6,103.3 477.9,102.8 C480.3,102.3 482.6,101.6 485.0,101.3 C487.3,101.0 489.7,101.0 492.0,100.9 C494.3,100.7 496.7,100.6 499.0,100.4 C501.4,100.2 503.7,99.9 506.1,99.6 C508.4,99.3 510.8,99.0 513.1,98.7 C515.5,98.4 517.8,98.1 520.2,97.8 C522.5,97.4 524.9,97.0 527.2,96.7 C529.6,96.4 531.9,96.2 534.3,95.9 C536.6,95.6 539.0,95.3 541.3,95.0 C543.7,94.7 546.0,94.4 548.4,94.2 C550.7,94.0 553.1,94.0 555.4,93.9 C557.8,93.7 560.1,93.4 562.5,93.3 C564.8,93.1 567.2,93.1 569.5,92.9 C571.9,92.8 574.2,92.5 576.6,92.3 C578.9,92.0 581.3,91.7 583.6,91.5 C586.0,91.2 588.3,91.0 590.7,90.8 C593.0,90.6 595.4,90.6 597.7,90.3 C600.1,90.0 602.4,89.4 604.8,89.1 C607.1,88.7 609.5,88.7 611.8,88.5 C614.2,88.2 616.5,88.0 618.9,87.6 C621.2,87.1 623.6,86.5 625.9,85.7 C628.3,85.0 630.6,83.5 633.0,83.0 C635.3,82.4 638.8,82.4 640.0,82.3" fill="none" class="line-openvsx" stroke-width="1.8" stroke-linecap="round" stroke-linejoin="round"/>
  <path d="M48.0,219.9 C49.2,219.9 52.7,219.9 55.0,219.8 C57.4,219.7 59.7,219.5 62.1,219.3 C64.4,219.1 66.8,218.8 69.1,218.6 C71.5,218.5 73.8,218.5 76.2,218.4 C78.5,218.3 80.9,218.2 83.2,218.1 C85.6,217.9 87.9,218.3 90.3,217.7 C92.6,217.1 95.0,214.8 97.3,214.2 C99.7,213.6 102.0,214.0 104.4,214.0 C106.7,213.9 109.1,213.9 111.4,213.8 C113.8,213.8 116.1,213.7 118.5,213.6 C120.8,213.6 123.2,213.6 125.5,213.6 C127.9,213.6 130.2,213.6 132.6,213.6 C134.9,213.6 137.3,213.6 139.6,213.6 C142.0,213.5 144.3,213.3 146.7,213.2 C149.0,213.1 151.4,213.1 153.7,213.1 C156.1,213.0 158.4,213.0 160.8,213.0 C163.1,213.0 165.5,212.9 167.8,212.9 C170.2,212.9 172.5,212.8 174.9,212.8 C177.2,212.8 179.6,212.8 181.9,212.8 C184.3,212.8 186.6,212.8 189.0,212.8 C191.3,212.8 193.7,212.7 196.0,212.7 C198.3,212.7 200.7,212.7 203.0,212.7 C205.4,212.7 207.7,212.7 210.1,212.7 C212.4,212.6 214.8,212.6 217.1,212.5 C219.5,212.5 221.8,212.5 224.2,212.4 C226.5,212.4 228.9,212.2 231.2,212.1 C233.6,212.1 235.9,212.0 238.3,212.0 C240.6,211.9 243.0,211.9 245.3,211.9 C247.7,211.8 250.0,211.8 252.4,211.8 C254.7,211.8 257.1,211.7 259.4,211.7 C261.8,211.6 264.1,211.6 266.5,211.5 C268.8,211.5 271.2,211.4 273.5,211.4 C275.9,211.4 278.2,211.3 280.6,211.3 C282.9,211.2 285.3,211.2 287.6,211.1 C290.0,211.1 292.3,211.0 294.7,211.0 C297.0,211.0 299.4,210.9 301.7,210.8 C304.1,210.8 306.4,210.8 308.8,210.8 C311.1,210.7 313.5,210.6 315.8,210.6 C318.2,210.6 320.5,210.6 322.9,210.6 C325.2,210.6 327.6,210.5 329.9,210.5 C332.3,210.5 334.6,210.5 337.0,210.5 C339.3,210.5 341.7,210.5 344.0,210.5 C346.3,210.5 348.7,210.5 351.0,210.5 C353.4,210.5 355.7,210.5 358.1,210.5 C360.4,210.5 362.8,210.5 365.1,210.5 C367.5,210.5 369.8,210.5 372.2,210.5 C374.5,210.5 376.9,210.5 379.2,210.5 C381.6,210.5 383.9,210.5 386.3,210.5 C388.6,210.5 391.0,210.5 393.3,210.5 C395.7,210.5 398.0,210.4 400.4,210.4 C402.7,210.3 405.1,210.3 407.4,210.3 C409.8,210.2 412.1,210.2 414.5,210.2 C416.8,210.2 419.2,210.2 421.5,210.1 C423.9,210.1 426.2,210.1 428.6,210.1 C430.9,210.1 433.3,210.0 435.6,210.0 C438.0,209.9 440.3,209.9 442.7,209.9 C445.0,209.8 447.4,209.8 449.7,209.8 C452.1,209.8 454.4,209.8 456.8,209.7 C459.1,209.7 461.5,209.7 463.8,209.7 C466.2,209.7 468.5,209.6 470.9,209.6 C473.2,209.6 475.6,209.6 477.9,209.6 C480.3,209.5 482.6,209.5 485.0,209.5 C487.3,209.5 489.7,209.5 492.0,209.5 C494.3,209.4 496.7,209.4 499.0,209.4 C501.4,209.4 503.7,209.4 506.1,209.3 C508.4,209.3 510.8,209.3 513.1,209.2 C515.5,209.2 517.8,209.2 520.2,209.2 C522.5,209.1 524.9,209.1 527.2,209.1 C529.6,209.1 531.9,209.1 534.3,209.0 C536.6,209.0 539.0,208.7 541.3,208.6 C543.7,208.6 546.0,208.6 548.4,208.6 C550.7,208.6 553.1,208.6 555.4,208.5 C557.8,208.5 560.1,208.5 562.5,208.5 C564.8,208.5 567.2,208.4 569.5,208.4 C571.9,208.4 574.2,208.4 576.6,208.4 C578.9,208.3 581.3,208.3 583.6,208.3 C586.0,208.3 588.3,208.3 590.7,208.3 C593.0,208.3 595.4,208.2 597.7,208.2 C600.1,208.2 602.4,208.2 604.8,208.1 C607.1,208.1 609.5,208.1 611.8,208.1 C614.2,208.1 616.5,208.0 618.9,208.0 C621.2,208.0 623.6,208.0 625.9,208.0 C628.3,207.9 630.6,207.9 633.0,207.9 C635.3,207.9 638.8,207.9 640.0,207.8" fill="none" class="line-vscode" stroke-width="1.8" stroke-linecap="round" stroke-linejoin="round"/>
  <path d="M48.0,219.8 C49.2,218.4 52.7,213.7 55.0,211.7 C57.4,209.7 59.7,209.1 62.1,207.7 C64.4,206.4 66.8,204.4 69.1,203.7 C71.5,203.0 73.8,205.0 76.2,203.5 C78.5,202.0 80.9,196.6 83.2,194.9 C85.6,193.2 87.9,200.1 90.3,193.2 C92.6,186.2 95.0,160.3 97.3,153.3 C99.7,146.3 102.0,151.7 104.4,151.3 C106.7,150.8 109.1,150.7 111.4,150.5 C113.8,150.3 116.1,150.2 118.5,150.1 C120.8,150.0 123.2,149.9 125.5,149.7 C127.9,149.5 130.2,149.1 132.6,148.7 C134.9,148.2 137.3,147.4 139.6,147.0 C142.0,146.5 144.3,146.3 146.7,146.1 C149.0,145.9 151.4,146.0 153.7,145.6 C156.1,145.2 158.4,144.1 160.8,143.6 C163.1,143.1 165.5,142.9 167.8,142.6 C170.2,142.3 172.5,142.0 174.9,141.7 C177.2,141.4 179.6,141.4 181.9,140.8 C184.3,140.2 186.6,138.7 189.0,138.0 C191.3,137.4 193.7,137.2 196.0,136.9 C198.3,136.6 200.7,136.4 203.0,136.2 C205.4,136.1 207.7,136.5 210.1,136.1 C212.4,135.7 214.8,134.4 217.1,133.8 C219.5,133.2 221.8,133.0 224.2,132.5 C226.5,132.1 228.9,131.8 231.2,131.1 C233.6,130.4 235.9,129.0 238.3,128.3 C240.6,127.6 243.0,127.3 245.3,126.9 C247.7,126.5 250.0,126.3 252.4,126.0 C254.7,125.8 257.1,125.8 259.4,125.3 C261.8,124.9 264.1,124.0 266.5,123.6 C268.8,123.1 271.2,122.8 273.5,122.5 C275.9,122.2 278.2,122.0 280.6,121.7 C282.9,121.5 285.3,121.3 287.6,121.1 C290.0,120.9 292.3,120.6 294.7,120.4 C297.0,120.3 299.4,120.3 301.7,120.2 C304.1,120.2 306.4,121.0 308.8,120.2 C311.1,119.4 313.5,116.5 315.8,115.5 C318.2,114.5 320.5,114.6 322.9,114.2 C325.2,113.7 327.6,113.3 329.9,112.8 C332.3,112.4 334.6,111.9 337.0,111.6 C339.3,111.3 341.7,111.2 344.0,111.0 C346.3,110.8 348.7,110.4 351.0,110.2 C353.4,110.0 355.7,110.1 358.1,109.7 C360.4,109.4 362.8,108.6 365.1,108.1 C367.5,107.7 369.8,107.6 372.2,107.2 C374.5,106.9 376.9,106.4 379.2,106.2 C381.6,105.9 383.9,106.0 386.3,105.7 C388.6,105.5 391.0,104.8 393.3,104.5 C395.7,104.2 398.0,104.2 400.4,104.0 C402.7,103.7 405.1,103.5 407.4,103.2 C409.8,102.9 412.1,102.5 414.5,102.2 C416.8,101.9 419.2,101.5 421.5,101.2 C423.9,100.9 426.2,100.8 428.6,100.3 C430.9,99.9 433.3,99.2 435.6,98.7 C438.0,98.3 440.3,98.1 442.7,97.7 C445.0,97.4 447.4,97.0 449.7,96.6 C452.1,96.3 454.4,95.9 456.8,95.5 C459.1,95.2 461.5,94.8 463.8,94.6 C466.2,94.3 468.5,94.2 470.9,93.8 C473.2,93.4 475.6,92.9 477.9,92.4 C480.3,91.9 482.6,91.2 485.0,90.8 C487.3,90.5 489.7,90.5 492.0,90.3 C494.3,90.1 496.7,90.0 499.0,89.8 C501.4,89.6 503.7,89.3 506.1,88.9 C508.4,88.6 510.8,88.2 513.1,87.9 C515.5,87.6 517.8,87.3 520.2,86.9 C522.5,86.6 524.9,86.2 527.2,85.8 C529.6,85.5 531.9,85.3 534.3,85.0 C536.6,84.6 539.0,84.0 541.3,83.7 C543.7,83.3 546.0,83.0 548.4,82.8 C550.7,82.6 553.1,82.6 555.4,82.4 C557.8,82.2 560.1,81.9 562.5,81.8 C564.8,81.6 567.2,81.6 569.5,81.4 C571.9,81.2 574.2,80.9 576.6,80.6 C578.9,80.4 581.3,80.0 583.6,79.8 C586.0,79.5 588.3,79.3 590.7,79.1 C593.0,78.9 595.4,78.8 597.7,78.5 C600.1,78.2 602.4,77.5 604.8,77.2 C607.1,76.9 609.5,76.8 611.8,76.6 C614.2,76.3 616.5,76.1 618.9,75.6 C621.2,75.1 623.6,74.5 625.9,73.7 C628.3,72.9 630.6,71.5 633.0,70.9 C635.3,70.3 638.8,70.3 640.0,70.1" fill="none" class="line-total" stroke-width="2.5" stroke-linecap="round" stroke-linejoin="round"/>

  <circle cx="640" cy="70.13066666666668" r="4.5" class="dot-total" stroke-width="2"/>
    <text x="658" y="74.13066666666668" class="end-label" font-family="-apple-system, BlinkMacSystemFont, 'Segoe UI', Helvetica, sans-serif">Total</text>
    <text x="697" y="74.13066666666668" class="end-value" font-family="-apple-system, BlinkMacSystemFont, 'Segoe UI', Helvetica, sans-serif">2.6k</text>
    <circle cx="640" cy="82.28533333333334" r="3.5" class="dot-openvsx" stroke-width="1.8"/>
    <text x="658" y="92.13066666666668" class="end-label" font-family="-apple-system, BlinkMacSystemFont, 'Segoe UI', Helvetica, sans-serif">Open VSX</text>
    <text x="716.8" y="92.13066666666668" class="end-value" font-family="-apple-system, BlinkMacSystemFont, 'Segoe UI', Helvetica, sans-serif">2.4k</text>
    <circle cx="640" cy="207.84533333333334" r="3.5" class="dot-vscode" stroke-width="1.8"/>
    <text x="658" y="211.84533333333334" class="end-label" font-family="-apple-system, BlinkMacSystemFont, 'Segoe UI', Helvetica, sans-serif">VS Code</text>
    <text x="710.2" y="211.84533333333334" class="end-value" font-family="-apple-system, BlinkMacSystemFont, 'Segoe UI', Helvetica, sans-serif">212</text>
</svg>