<svg xmlns="http://www.w3.org/2000/svg" viewBox="0 0 760 260" width="760" height="260" role="img" aria-label="Glassy install history">
  <style>
  svg { color-scheme: light dark; }
  .title      { fill: #1a1a2e; font-size: 15px; font-weight: 600; }
  .subtitle   { fill: #6b7280; font-size: 11px; font-weight: 400; }
  .grid       { stroke: #e8e8ee; }
  .axis-label { fill: #8a8a9a; font-size: 10px; }
  .line-total   { stroke: #e8553d; }
  .line-vscode  { stroke: #5b7cfa; }
  .line-openvsx { stroke: #34c7a0; }
  .dot-total   { fill: transparent; stroke: #e8553d; }
  .dot-vscode  { fill: transparent; stroke: #5b7cfa; }
  .dot-openvsx { fill: transparent; stroke: #34c7a0; }
  .end-label       { fill: #1a1a2e; font-size: 11px; font-weight: 600; }
  .end-value       { fill: #6b7280; font-size: 11px; font-weight: 400; }
  .area-total-top    { stop-color: #e8553d; }
  .area-total-bottom { stop-color: #e8553d; }

  @media (prefers-color-scheme: dark) {
    .title      { fill: #e2e2e8; }
    .subtitle   { fill: #8b949e; }
    .grid       { stroke: #2d2d3d; }
    .axis-label { fill: #6e7681; }
    .line-total   { stroke: #ff9b85; }
    .line-vscode  { stroke: #8da4ff; }
    .line-openvsx { stroke: #5eead4; }
    .dot-total   { stroke: #ff9b85; }
    .dot-vscode  { stroke: #8da4ff; }
    .dot-openvsx { stroke: #5eead4; }
    .end-label       { fill: #e2e2e8; }
    .end-value       { fill: #8b949e; }
    .area-total-top    { stop-color: #ff9b85; }
    .area-total-bottom { stop-color: #ff9b85; }
  }
</style>
  <defs>
    <linearGradient id="areaGrad" x1="0" y1="0" x2="0" y2="1">
      <stop offset="0%" class="area-total-top" stop-opacity="0.18"/>
      <stop offset="60%" class="area-total-bottom" stop-opacity="0.04"/>
      <stop offset="100%" class="area-total-bottom" stop-opacity="0"/>
    </linearGradient>
  </defs>

  <text x="48" y="22" class="title" font-family="-apple-system, BlinkMacSystemFont, 'Segoe UI', Helvetica, sans-serif">Installs</text>
  <text x="48" y="37" class="subtitle" font-family="-apple-system, BlinkMacSystemFont, 'Segoe UI', Helvetica, sans-serif">Updated Jul 11</text>

  <line x1="48" y1="220" x2="640" y2="220" class="grid" stroke-width="0.7"/>
    <text x="40" y="223.5" class="axis-label" text-anchor="end" font-family="-apple-system, BlinkMacSystemFont, 'Segoe UI', Helvetica, sans-serif">0</text>
    <line x1="48" y1="162.66666666666669" x2="640" y2="162.66666666666669" class="grid" stroke-width="0.7"/>
    <text x="40" y="166.16666666666669" class="axis-label" text-anchor="end" font-family="-apple-system, BlinkMacSystemFont, 'Segoe UI', Helvetica, sans-serif">1k</text>
    <line x1="48" y1="105.33333333333334" x2="640" y2="105.33333333333334" class="grid" stroke-width="0.7"/>
    <text x="40" y="108.83333333333334" class="axis-label" text-anchor="end" font-family="-apple-system, BlinkMacSystemFont, 'Segoe UI', Helvetica, sans-serif">2k</text>
    <line x1="48" y1="48" x2="640" y2="48" class="grid" stroke-width="0.7"/>
    <text x="40" y="51.5" class="axis-label" text-anchor="end" font-family="-apple-system, BlinkMacSystemFont, 'Segoe UI', Helvetica, sans-serif">3k</text>
  <text x="48" y="248" class="axis-label" text-anchor="middle" font-family="-apple-system, BlinkMacSystemFont, 'Segoe UI', Helvetica, sans-serif">Mar 27</text>
    <text x="163.32467532467533" y="248" class="axis-label" text-anchor="middle" font-family="-apple-system, BlinkMacSystemFont, 'Segoe UI', Helvetica, sans-serif">May 10</text>
    <text x="286.3376623376623" y="248" class="axis-label" text-anchor="middle" font-family="-apple-system, BlinkMacSystemFont, 'Segoe UI', Helvetica, sans-serif">May 26</text>
    <text x="401.6623376623377" y="248" class="axis-label" text-anchor="middle" font-family="-apple-system, BlinkMacSystemFont, 'Segoe UI', Helvetica, sans-serif">Jun 10</text>
    <text x="524.6753246753246" y="248" class="axis-label" text-anchor="middle" font-family="-apple-system, BlinkMacSystemFont, 'Segoe UI', Helvetica, sans-serif">Jun 26</text>
    <text x="640" y="248" class="axis-label" text-anchor="middle" font-family="-apple-system, BlinkMacSystemFont, 'Segoe UI', Helvetica, sans-serif">Jul 11</text>

  <path d="M48.0,219.8 C49.3,218.4 53.1,213.7 55.7,211.7 C58.3,209.7 60.8,209.1 63.4,207.7 C65.9,206.4 68.5,204.4 71.1,203.7 C73.6,203.0 76.2,205.0 78.8,203.5 C81.3,202.0 83.9,196.6 86.4,194.9 C89.0,193.2 91.6,200.1 94.1,193.2 C96.7,186.2 99.3,160.3 101.8,153.3 C104.4,146.3 106.9,151.7 109.5,151.3 C112.1,150.8 114.6,150.7 117.2,150.5 C119.8,150.3 122.3,150.2 124.9,150.1 C127.4,150.0 130.0,149.9 132.6,149.7 C135.1,149.5 137.7,149.1 140.3,148.7 C142.8,148.2 145.4,147.4 147.9,147.0 C150.5,146.5 153.1,146.3 155.6,146.1 C158.2,145.9 160.8,146.0 163.3,145.6 C165.9,145.2 168.5,144.1 171.0,143.6 C173.6,143.1 176.1,142.9 178.7,142.6 C181.3,142.3 183.8,142.0 186.4,141.7 C189.0,141.4 191.5,141.4 194.1,140.8 C196.6,140.2 199.2,138.7 201.8,138.0 C204.3,137.4 206.9,137.2 209.5,136.9 C212.0,136.6 214.6,136.4 217.1,136.2 C219.7,136.1 222.3,136.5 224.8,136.1 C227.4,135.7 230.0,134.4 232.5,133.8 C235.1,133.2 237.6,133.0 240.2,132.5 C242.8,132.1 245.3,131.8 247.9,131.1 C250.5,130.4 253.0,129.0 255.6,128.3 C258.1,127.6 260.7,127.3 263.3,126.9 C265.8,126.5 268.4,126.3 271.0,126.0 C273.5,125.8 276.1,125.8 278.6,125.3 C281.2,124.9 283.8,124.0 286.3,123.6 C288.9,123.1 291.5,122.8 294.0,122.5 C296.6,122.2 299.2,122.0 301.7,121.7 C304.3,121.5 306.8,121.3 309.4,121.1 C312.0,120.9 314.5,120.6 317.1,120.4 C319.7,120.3 322.2,120.3 324.8,120.2 C327.3,120.2 329.9,121.0 332.5,120.2 C335.0,119.4 337.6,116.5 340.2,115.5 C342.7,114.5 345.3,114.6 347.8,114.2 C350.4,113.7 353.0,113.3 355.5,112.8 C358.1,112.4 360.7,111.9 363.2,111.6 C365.8,111.3 368.3,111.2 370.9,111.0 C373.5,110.8 376.0,110.4 378.6,110.2 C381.2,110.0 383.7,110.1 386.3,109.7 C388.8,109.4 391.4,108.6 394.0,108.1 C396.5,107.7 399.1,107.6 401.7,107.2 C404.2,106.9 406.8,106.4 409.4,106.2 C411.9,105.9 414.5,106.0 417.0,105.7 C419.6,105.5 422.2,104.8 424.7,104.5 C427.3,104.2 429.9,104.2 432.4,104.0 C435.0,103.7 437.5,103.5 440.1,103.2 C442.7,102.9 445.2,102.5 447.8,102.2 C450.4,101.9 452.9,101.5 455.5,101.2 C458.0,100.9 460.6,100.8 463.2,100.3 C465.7,99.9 468.3,99.2 470.9,98.7 C473.4,98.3 476.0,98.1 478.5,97.7 C481.1,97.4 483.7,97.0 486.2,96.6 C488.8,96.3 491.4,95.9 493.9,95.5 C496.5,95.2 499.0,94.8 501.6,94.6 C504.2,94.3 506.7,94.2 509.3,93.8 C511.9,93.4 514.4,92.9 517.0,92.4 C519.5,91.9 522.1,91.2 524.7,90.8 C527.2,90.5 529.8,90.5 532.4,90.3 C534.9,90.1 537.5,90.0 540.1,89.8 C542.6,89.6 545.2,89.3 547.7,88.9 C550.3,88.6 552.9,88.2 555.4,87.9 C558.0,87.6 560.6,87.3 563.1,86.9 C565.7,86.6 568.2,86.2 570.8,85.8 C573.4,85.5 575.9,85.3 578.5,85.0 C581.1,84.6 583.6,84.0 586.2,83.7 C588.7,83.3 591.3,83.0 593.9,82.8 C596.4,82.6 599.0,82.6 601.6,82.4 C604.1,82.2 606.7,81.9 609.2,81.8 C611.8,81.6 614.4,81.6 616.9,81.4 C619.5,81.2 622.1,80.9 624.6,80.6 C627.2,80.4 629.7,80.0 632.3,79.8 C634.9,79.5 638.7,79.2 640.0,79.1 L640.0,220.0 L48.0,220.0 Z" fill="url(#areaGrad)"/>
  <path d="M48.0,219.8 C49.3,218.5 53.1,213.8 55.7,211.9 C58.3,210.0 60.8,209.5 63.4,208.4 C65.9,207.3 68.5,205.6 71.1,205.1 C73.6,204.5 76.2,206.5 78.8,205.1 C81.3,203.7 83.9,198.4 86.4,196.8 C89.0,195.2 91.6,201.7 94.1,195.5 C96.7,189.2 99.3,165.5 101.8,159.1 C104.4,152.7 106.9,157.7 109.5,157.3 C112.1,156.9 114.6,156.8 117.2,156.7 C119.8,156.6 122.3,156.6 124.9,156.5 C127.4,156.4 130.0,156.4 132.6,156.1 C135.1,155.9 137.7,155.6 140.3,155.1 C142.8,154.6 145.4,153.7 147.9,153.4 C150.5,153.0 153.1,153.1 155.6,152.9 C158.2,152.8 160.8,153.0 163.3,152.6 C165.9,152.2 168.5,151.1 171.0,150.6 C173.6,150.1 176.1,150.0 178.7,149.7 C181.3,149.4 183.8,149.2 186.4,148.9 C189.0,148.6 191.5,148.6 194.1,148.0 C196.6,147.4 199.2,145.9 201.8,145.2 C204.3,144.6 206.9,144.5 209.5,144.2 C212.0,143.9 214.6,143.7 217.1,143.5 C219.7,143.4 222.3,143.8 224.8,143.4 C227.4,143.0 230.0,141.8 232.5,141.2 C235.1,140.7 237.6,140.5 240.2,140.1 C242.8,139.7 245.3,139.6 247.9,138.9 C250.5,138.3 253.0,136.9 255.6,136.3 C258.1,135.6 260.7,135.4 263.3,135.0 C265.8,134.7 268.4,134.5 271.0,134.2 C273.5,134.0 276.1,134.0 278.6,133.7 C281.2,133.3 283.8,132.5 286.3,132.1 C288.9,131.6 291.5,131.4 294.0,131.1 C296.6,130.9 299.2,130.6 301.7,130.4 C304.3,130.3 306.8,130.2 309.4,130.0 C312.0,129.8 314.5,129.5 317.1,129.4 C319.7,129.3 322.2,129.4 324.8,129.4 C327.3,129.4 329.9,130.2 332.5,129.4 C335.0,128.7 337.6,125.9 340.2,124.9 C342.7,124.0 345.3,124.0 347.8,123.6 C350.4,123.1 353.0,122.7 355.5,122.3 C358.1,121.9 360.7,121.3 363.2,121.0 C365.8,120.7 368.3,120.7 370.9,120.5 C373.5,120.2 376.0,119.9 378.6,119.7 C381.2,119.5 383.7,119.6 386.3,119.2 C388.8,118.9 391.4,118.0 394.0,117.6 C396.5,117.2 399.1,117.0 401.7,116.7 C404.2,116.4 406.8,115.9 409.4,115.7 C411.9,115.4 414.5,115.5 417.0,115.2 C419.6,114.9 422.2,114.3 424.7,114.0 C427.3,113.8 429.9,113.8 432.4,113.6 C435.0,113.4 437.5,113.2 440.1,112.9 C442.7,112.6 445.2,112.3 447.8,112.0 C450.4,111.7 452.9,111.4 455.5,111.1 C458.0,110.8 460.6,110.6 463.2,110.3 C465.7,109.9 468.3,109.2 470.9,108.8 C473.4,108.4 476.0,108.2 478.5,107.9 C481.1,107.5 483.7,107.2 486.2,106.8 C488.8,106.5 491.4,106.1 493.9,105.8 C496.5,105.5 499.0,105.1 501.6,104.9 C504.2,104.6 506.7,104.5 509.3,104.2 C511.9,103.8 514.4,103.3 517.0,102.8 C519.5,102.3 522.1,101.6 524.7,101.3 C527.2,101.0 529.8,101.0 532.4,100.9 C534.9,100.7 537.5,100.6 540.1,100.4 C542.6,100.2 545.2,99.9 547.7,99.6 C550.3,99.3 552.9,99.0 555.4,98.7 C558.0,98.4 560.6,98.1 563.1,97.8 C565.7,97.4 568.2,97.0 570.8,96.7 C573.4,96.4 575.9,96.2 578.5,95.9 C581.1,95.6 583.6,95.3 586.2,95.0 C588.7,94.7 591.3,94.4 593.9,94.2 C596.4,94.0 599.0,94.0 601.6,93.9 C604.1,93.7 606.7,93.4 609.2,93.3 C611.8,93.1 614.4,93.1 616.9,92.9 C619.5,92.8 622.1,92.5 624.6,92.3 C627.2,92.0 629.7,91.7 632.3,91.5 C634.9,91.2 638.7,90.9 640.0,90.8" fill="none" class="line-openvsx" stroke-width="1.8" stroke-linecap="round" stroke-linejoin="round"/>
  <path d="M48.0,219.9 C49.3,219.9 53.1,219.9 55.7,219.8 C58.3,219.7 60.8,219.5 63.4,219.3 C65.9,219.1 68.5,218.8 71.1,218.6 C73.6,218.5 76.2,218.5 78.8,218.4 C81.3,218.3 83.9,218.2 86.4,218.1 C89.0,217.9 91.6,218.3 94.1,217.7 C96.7,217.1 99.3,214.8 101.8,214.2 C104.4,213.6 106.9,214.0 109.5,214.0 C112.1,213.9 114.6,213.9 117.2,213.8 C119.8,213.8 122.3,213.7 124.9,213.6 C127.4,213.6 130.0,213.6 132.6,213.6 C135.1,213.6 137.7,213.6 140.3,213.6 C142.8,213.6 145.4,213.6 147.9,213.6 C150.5,213.5 153.1,213.3 155.6,213.2 C158.2,213.1 160.8,213.1 163.3,213.1 C165.9,213.0 168.5,213.0 171.0,213.0 C173.6,213.0 176.1,212.9 178.7,212.9 C181.3,212.9 183.8,212.8 186.4,212.8 C189.0,212.8 191.5,212.8 194.1,212.8 C196.6,212.8 199.2,212.8 201.8,212.8 C204.3,212.8 206.9,212.7 209.5,212.7 C212.0,212.7 214.6,212.7 217.1,212.7 C219.7,212.7 222.3,212.7 224.8,212.7 C227.4,212.6 230.0,212.6 232.5,212.5 C235.1,212.5 237.6,212.5 240.2,212.4 C242.8,212.4 245.3,212.2 247.9,212.1 C250.5,212.1 253.0,212.0 255.6,212.0 C258.1,211.9 260.7,211.9 263.3,211.9 C265.8,211.8 268.4,211.8 271.0,211.8 C273.5,211.8 276.1,211.7 278.6,211.7 C281.2,211.6 283.8,211.6 286.3,211.5 C288.9,211.5 291.5,211.4 294.0,211.4 C296.6,211.4 299.2,211.3 301.7,211.3 C304.3,211.2 306.8,211.2 309.4,211.1 C312.0,211.1 314.5,211.0 317.1,211.0 C319.7,211.0 322.2,210.9 324.8,210.8 C327.3,210.8 329.9,210.8 332.5,210.8 C335.0,210.7 337.6,210.6 340.2,210.6 C342.7,210.6 345.3,210.6 347.8,210.6 C350.4,210.6 353.0,210.5 355.5,210.5 C358.1,210.5 360.7,210.5 363.2,210.5 C365.8,210.5 368.3,210.5 370.9,210.5 C373.5,210.5 376.0,210.5 378.6,210.5 C381.2,210.5 383.7,210.5 386.3,210.5 C388.8,210.5 391.4,210.5 394.0,210.5 C396.5,210.5 399.1,210.5 401.7,210.5 C404.2,210.5 406.8,210.5 409.4,210.5 C411.9,210.5 414.5,210.5 417.0,210.5 C419.6,210.5 422.2,210.5 424.7,210.5 C427.3,210.5 429.9,210.4 432.4,210.4 C435.0,210.3 437.5,210.3 440.1,210.3 C442.7,210.2 445.2,210.2 447.8,210.2 C450.4,210.2 452.9,210.2 455.5,210.1 C458.0,210.1 460.6,210.1 463.2,210.1 C465.7,210.1 468.3,210.0 470.9,210.0 C473.4,209.9 476.0,209.9 478.5,209.9 C481.1,209.8 483.7,209.8 486.2,209.8 C488.8,209.8 491.4,209.8 493.9,209.7 C496.5,209.7 499.0,209.7 501.6,209.7 C504.2,209.7 506.7,209.6 509.3,209.6 C511.9,209.6 514.4,209.6 517.0,209.6 C519.5,209.5 522.1,209.5 524.7,209.5 C527.2,209.5 529.8,209.5 532.4,209.5 C534.9,209.4 537.5,209.4 540.1,209.4 C542.6,209.4 545.2,209.4 547.7,209.3 C550.3,209.3 552.9,209.3 555.4,209.2 C558.0,209.2 560.6,209.2 563.1,209.2 C565.7,209.1 568.2,209.1 570.8,209.1 C573.4,209.1 575.9,209.1 578.5,209.0 C581.1,209.0 583.6,208.7 586.2,208.6 C588.7,208.6 591.3,208.6 593.9,208.6 C596.4,208.6 599.0,208.6 601.6,208.5 C604.1,208.5 606.7,208.5 609.2,208.5 C611.8,208.5 614.4,208.4 616.9,208.4 C619.5,208.4 622.1,208.4 624.6,208.4 C627.2,208.3 629.7,208.3 632.3,208.3 C634.9,208.3 638.7,208.3 640.0,208.3" fill="none" class="line-vscode" stroke-width="1.8" stroke-linecap="round" stroke-linejoin="round"/>
  <path d="M48.0,219.8 C49.3,218.4 53.1,213.7 55.7,211.7 C58.3,209.7 60.8,209.1 63.4,207.7 C65.9,206.4 68.5,204.4 71.1,203.7 C73.6,203.0 76.2,205.0 78.8,203.5 C81.3,202.0 83.9,196.6 86.4,194.9 C89.0,193.2 91.6,200.1 94.1,193.2 C96.7,186.2 99.3,160.3 101.8,153.3 C104.4,146.3 106.9,151.7 109.5,151.3 C112.1,150.8 114.6,150.7 117.2,150.5 C119.8,150.3 122.3,150.2 124.9,150.1 C127.4,150.0 130.0,149.9 132.6,149.7 C135.1,149.5 137.7,149.1 140.3,148.7 C142.8,148.2 145.4,147.4 147.9,147.0 C150.5,146.5 153.1,146.3 155.6,146.1 C158.2,145.9 160.8,146.0 163.3,145.6 C165.9,145.2 168.5,144.1 171.0,143.6 C173.6,143.1 176.1,142.9 178.7,142.6 C181.3,142.3 183.8,142.0 186.4,141.7 C189.0,141.4 191.5,141.4 194.1,140.8 C196.6,140.2 199.2,138.7 201.8,138.0 C204.3,137.4 206.9,137.2 209.5,136.9 C212.0,136.6 214.6,136.4 217.1,136.2 C219.7,136.1 222.3,136.5 224.8,136.1 C227.4,135.7 230.0,134.4 232.5,133.8 C235.1,133.2 237.6,133.0 240.2,132.5 C242.8,132.1 245.3,131.8 247.9,131.1 C250.5,130.4 253.0,129.0 255.6,128.3 C258.1,127.6 260.7,127.3 263.3,126.9 C265.8,126.5 268.4,126.3 271.0,126.0 C273.5,125.8 276.1,125.8 278.6,125.3 C281.2,124.9 283.8,124.0 286.3,123.6 C288.9,123.1 291.5,122.8 294.0,122.5 C296.6,122.2 299.2,122.0 301.7,121.7 C304.3,121.5 306.8,121.3 309.4,121.1 C312.0,120.9 314.5,120.6 317.1,120.4 C319.7,120.3 322.2,120.3 324.8,120.2 C327.3,120.2 329.9,121.0 332.5,120.2 C335.0,119.4 337.6,116.5 340.2,115.5 C342.7,114.5 345.3,114.6 347.8,114.2 C350.4,113.7 353.0,113.3 355.5,112.8 C358.1,112.4 360.7,111.9 363.2,111.6 C365.8,111.3 368.3,111.2 370.9,111.0 C373.5,110.8 376.0,110.4 378.6,110.2 C381.2,110.0 383.7,110.1 386.3,109.7 C388.8,109.4 391.4,108.6 394.0,108.1 C396.5,107.7 399.1,107.6 401.7,107.2 C404.2,106.9 406.8,106.4 409.4,106.2 C411.9,105.9 414.5,106.0 417.0,105.7 C419.6,105.5 422.2,104.8 424.7,104.5 C427.3,104.2 429.9,104.2 432.4,104.0 C435.0,103.7 437.5,103.5 440.1,103.2 C442.7,102.9 445.2,102.5 447.8,102.2 C450.4,101.9 452.9,101.5 455.5,101.2 C458.0,100.9 460.6,100.8 463.2,100.3 C465.7,99.9 468.3,99.2 470.9,98.7 C473.4,98.3 476.0,98.1 478.5,97.7 C481.1,97.4 483.7,97.0 486.2,96.6 C488.8,96.3 491.4,95.9 493.9,95.5 C496.5,95.2 499.0,94.8 501.6,94.6 C504.2,94.3 506.7,94.2 509.3,93.8 C511.9,93.4 514.4,92.9 517.0,92.4 C519.5,91.9 522.1,91.2 524.7,90.8 C527.2,90.5 529.8,90.5 532.4,90.3 C534.9,90.1 537.5,90.0 540.1,89.8 C542.6,89.6 545.2,89.3 547.7,88.9 C550.3,88.6 552.9,88.2 555.4,87.9 C558.0,87.6 560.6,87.3 563.1,86.9 C565.7,86.6 568.2,86.2 570.8,85.8 C573.4,85.5 575.9,85.3 578.5,85.0 C581.1,84.6 583.6,84.0 586.2,83.7 C588.7,83.3 591.3,83.0 593.9,82.8 C596.4,82.6 599.0,82.6 601.6,82.4 C604.1,82.2 606.7,81.9 609.2,81.8 C611.8,81.6 614.4,81.6 616.9,81.4 C619.5,81.2 622.1,80.9 624.6,80.6 C627.2,80.4 629.7,80.0 632.3,79.8 C634.9,79.5 638.7,79.2 640.0,79.1" fill="none" class="line-total" stroke-width="2.5" stroke-linecap="round" stroke-linejoin="round"/>

  <circle cx="640" cy="79.07466666666667" r="4.5" class="dot-total" stroke-width="2"/>
    <text x="658" y="83.07466666666667" class="end-label" font-family="-apple-system, BlinkMacSystemFont, 'Segoe UI', Helvetica, sans-serif">Total</text>
    <text x="697" y="83.07466666666667" class="end-value" font-family="-apple-system, BlinkMacSystemFont, 'Segoe UI', Helvetica, sans-serif">2.5k</text>
    <circle cx="640" cy="90.77066666666667" r="3.5" class="dot-openvsx" stroke-width="1.8"/>
    <text x="658" y="101.07466666666667" class="end-label" font-family="-apple-system, BlinkMacSystemFont, 'Segoe UI', Helvetica, sans-serif">Open VSX</text>
    <text x="716.8" y="101.07466666666667" class="end-value" font-family="-apple-system, BlinkMacSystemFont, 'Segoe UI', Helvetica, sans-serif">2.3k</text>
    <circle cx="640" cy="208.304" r="3.5" class="dot-vscode" stroke-width="1.8"/>
    <text x="658" y="212.304" class="end-label" font-family="-apple-system, BlinkMacSystemFont, 'Segoe UI', Helvetica, sans-serif">VS Code</text>
    <text x="710.2" y="212.304" class="end-value" font-family="-apple-system, BlinkMacSystemFont, 'Segoe UI', Helvetica, sans-serif">204</text>
</svg>