<svg xmlns="http://www.w3.org/2000/svg" viewBox="0 0 760 260" width="760" height="260" role="img" aria-label="Glassy install history">
  <style>
  svg { color-scheme: light dark; }
  .title      { fill: #1a1a2e; font-size: 15px; font-weight: 600; }
  .subtitle   { fill: #6b7280; font-size: 11px; font-weight: 400; }
  .grid       { stroke: #e8e8ee; }
  .axis-label { fill: #8a8a9a; font-size: 10px; }
  .line-total   { stroke: #e8553d; }
  .line-vscode  { stroke: #5b7cfa; }
  .line-openvsx { stroke: #34c7a0; }
  .dot-total   { fill: transparent; stroke: #e8553d; }
  .dot-vscode  { fill: transparent; stroke: #5b7cfa; }
  .dot-openvsx { fill: transparent; stroke: #34c7a0; }
  .end-label       { fill: #1a1a2e; font-size: 11px; font-weight: 600; }
  .end-value       { fill: #6b7280; font-size: 11px; font-weight: 400; }
  .area-total-top    { stop-color: #e8553d; }
  .area-total-bottom { stop-color: #e8553d; }

  @media (prefers-color-scheme: dark) {
    .title      { fill: #e2e2e8; }
    .subtitle   { fill: #8b949e; }
    .grid       { stroke: #2d2d3d; }
    .axis-label { fill: #6e7681; }
    .line-total   { stroke: #ff9b85; }
    .line-vscode  { stroke: #8da4ff; }
    .line-openvsx { stroke: #5eead4; }
    .dot-total   { stroke: #ff9b85; }
    .dot-vscode  { stroke: #8da4ff; }
    .dot-openvsx { stroke: #5eead4; }
    .end-label       { fill: #e2e2e8; }
    .end-value       { fill: #8b949e; }
    .area-total-top    { stop-color: #ff9b85; }
    .area-total-bottom { stop-color: #ff9b85; }
  }
</style>
  <defs>
    <linearGradient id="areaGrad" x1="0" y1="0" x2="0" y2="1">
      <stop offset="0%" class="area-total-top" stop-opacity="0.18"/>
      <stop offset="60%" class="area-total-bottom" stop-opacity="0.04"/>
      <stop offset="100%" class="area-total-bottom" stop-opacity="0"/>
    </linearGradient>
  </defs>

  <text x="48" y="22" class="title" font-family="-apple-system, BlinkMacSystemFont, 'Segoe UI', Helvetica, sans-serif">Installs</text>
  <text x="48" y="37" class="subtitle" font-family="-apple-system, BlinkMacSystemFont, 'Segoe UI', Helvetica, sans-serif">Updated Jul 9</text>

  <line x1="48" y1="220" x2="640" y2="220" class="grid" stroke-width="0.7"/>
    <text x="40" y="223.5" class="axis-label" text-anchor="end" font-family="-apple-system, BlinkMacSystemFont, 'Segoe UI', Helvetica, sans-serif">0</text>
    <line x1="48" y1="162.66666666666669" x2="640" y2="162.66666666666669" class="grid" stroke-width="0.7"/>
    <text x="40" y="166.16666666666669" class="axis-label" text-anchor="end" font-family="-apple-system, BlinkMacSystemFont, 'Segoe UI', Helvetica, sans-serif">1k</text>
    <line x1="48" y1="105.33333333333334" x2="640" y2="105.33333333333334" class="grid" stroke-width="0.7"/>
    <text x="40" y="108.83333333333334" class="axis-label" text-anchor="end" font-family="-apple-system, BlinkMacSystemFont, 'Segoe UI', Helvetica, sans-serif">2k</text>
    <line x1="48" y1="48" x2="640" y2="48" class="grid" stroke-width="0.7"/>
    <text x="40" y="51.5" class="axis-label" text-anchor="end" font-family="-apple-system, BlinkMacSystemFont, 'Segoe UI', Helvetica, sans-serif">3k</text>
  <text x="48" y="248" class="axis-label" text-anchor="middle" font-family="-apple-system, BlinkMacSystemFont, 'Segoe UI', Helvetica, sans-serif">Mar 27</text>
    <text x="166.4" y="248" class="axis-label" text-anchor="middle" font-family="-apple-system, BlinkMacSystemFont, 'Segoe UI', Helvetica, sans-serif">May 10</text>
    <text x="284.8" y="248" class="axis-label" text-anchor="middle" font-family="-apple-system, BlinkMacSystemFont, 'Segoe UI', Helvetica, sans-serif">May 25</text>
    <text x="403.2" y="248" class="axis-label" text-anchor="middle" font-family="-apple-system, BlinkMacSystemFont, 'Segoe UI', Helvetica, sans-serif">Jun 9</text>
    <text x="521.6" y="248" class="axis-label" text-anchor="middle" font-family="-apple-system, BlinkMacSystemFont, 'Segoe UI', Helvetica, sans-serif">Jun 24</text>
    <text x="640" y="248" class="axis-label" text-anchor="middle" font-family="-apple-system, BlinkMacSystemFont, 'Segoe UI', Helvetica, sans-serif">Jul 9</text>

  <path d="M48.0,219.8 C49.3,218.4 53.3,213.7 55.9,211.7 C58.5,209.7 61.2,209.1 63.8,207.7 C66.4,206.4 69.0,204.4 71.7,203.7 C74.3,203.0 76.9,205.0 79.6,203.5 C82.2,202.0 84.8,196.6 87.5,194.9 C90.1,193.2 92.7,200.1 95.4,193.2 C98.0,186.2 100.6,160.3 103.3,153.3 C105.9,146.3 108.5,151.7 111.1,151.3 C113.8,150.8 116.4,150.7 119.0,150.5 C121.7,150.3 124.3,150.2 126.9,150.1 C129.6,150.0 132.2,149.9 134.8,149.7 C137.5,149.5 140.1,149.1 142.7,148.7 C145.4,148.2 148.0,147.4 150.6,147.0 C153.2,146.5 155.9,146.3 158.5,146.1 C161.1,145.9 163.8,146.0 166.4,145.6 C169.0,145.2 171.7,144.1 174.3,143.6 C176.9,143.1 179.6,142.9 182.2,142.6 C184.8,142.3 187.4,142.0 190.1,141.7 C192.7,141.4 195.3,141.4 198.0,140.8 C200.6,140.2 203.2,138.7 205.9,138.0 C208.5,137.4 211.1,137.2 213.8,136.9 C216.4,136.6 219.0,136.4 221.7,136.2 C224.3,136.1 226.9,136.5 229.5,136.1 C232.2,135.7 234.8,134.4 237.4,133.8 C240.1,133.2 242.7,133.0 245.3,132.5 C248.0,132.1 250.6,131.8 253.2,131.1 C255.9,130.4 258.5,129.0 261.1,128.3 C263.8,127.6 266.4,127.3 269.0,126.9 C271.6,126.5 274.3,126.3 276.9,126.0 C279.5,125.8 282.2,125.8 284.8,125.3 C287.4,124.9 290.1,124.0 292.7,123.6 C295.3,123.1 298.0,122.8 300.6,122.5 C303.2,122.2 305.8,122.0 308.5,121.7 C311.1,121.5 313.7,121.3 316.4,121.1 C319.0,120.9 321.6,120.6 324.3,120.4 C326.9,120.3 329.5,120.3 332.2,120.2 C334.8,120.2 337.4,121.0 340.1,120.2 C342.7,119.4 345.3,116.5 347.9,115.5 C350.6,114.5 353.2,114.6 355.8,114.2 C358.5,113.7 361.1,113.3 363.7,112.8 C366.4,112.4 369.0,111.9 371.6,111.6 C374.3,111.3 376.9,111.2 379.5,111.0 C382.2,110.8 384.8,110.4 387.4,110.2 C390.0,110.0 392.7,110.1 395.3,109.7 C397.9,109.4 400.6,108.6 403.2,108.1 C405.8,107.7 408.5,107.6 411.1,107.2 C413.7,106.9 416.4,106.4 419.0,106.2 C421.6,105.9 424.2,106.0 426.9,105.7 C429.5,105.5 432.1,104.8 434.8,104.5 C437.4,104.2 440.0,104.2 442.7,104.0 C445.3,103.7 447.9,103.5 450.6,103.2 C453.2,102.9 455.8,102.5 458.5,102.2 C461.1,101.9 463.7,101.5 466.3,101.2 C469.0,100.9 471.6,100.8 474.2,100.3 C476.9,99.9 479.5,99.2 482.1,98.7 C484.8,98.3 487.4,98.1 490.0,97.7 C492.7,97.4 495.3,97.0 497.9,96.6 C500.6,96.3 503.2,95.9 505.8,95.5 C508.4,95.2 511.1,94.8 513.7,94.6 C516.3,94.3 519.0,94.2 521.6,93.8 C524.2,93.4 526.9,92.9 529.5,92.4 C532.1,91.9 534.8,91.2 537.4,90.8 C540.0,90.5 542.6,90.5 545.3,90.3 C547.9,90.1 550.5,90.0 553.2,89.8 C555.8,89.6 558.4,89.3 561.1,88.9 C563.7,88.6 566.3,88.2 569.0,87.9 C571.6,87.6 574.2,87.3 576.9,86.9 C579.5,86.6 582.1,86.2 584.7,85.8 C587.4,85.5 590.0,85.3 592.6,85.0 C595.3,84.6 597.9,84.0 600.5,83.7 C603.2,83.3 605.8,83.0 608.4,82.8 C611.1,82.6 613.7,82.6 616.3,82.4 C619.0,82.2 621.6,81.9 624.2,81.8 C626.8,81.6 629.5,81.6 632.1,81.4 C634.7,81.2 638.7,80.7 640.0,80.6 L640.0,220.0 L48.0,220.0 Z" fill="url(#areaGrad)"/>
  <path d="M48.0,219.8 C49.3,218.5 53.3,213.8 55.9,211.9 C58.5,210.0 61.2,209.5 63.8,208.4 C66.4,207.3 69.0,205.6 71.7,205.1 C74.3,204.5 76.9,206.5 79.6,205.1 C82.2,203.7 84.8,198.4 87.5,196.8 C90.1,195.2 92.7,201.7 95.4,195.5 C98.0,189.2 100.6,165.5 103.3,159.1 C105.9,152.7 108.5,157.7 111.1,157.3 C113.8,156.9 116.4,156.8 119.0,156.7 C121.7,156.6 124.3,156.6 126.9,156.5 C129.6,156.4 132.2,156.4 134.8,156.1 C137.5,155.9 140.1,155.6 142.7,155.1 C145.4,154.6 148.0,153.7 150.6,153.4 C153.2,153.0 155.9,153.1 158.5,152.9 C161.1,152.8 163.8,153.0 166.4,152.6 C169.0,152.2 171.7,151.1 174.3,150.6 C176.9,150.1 179.6,150.0 182.2,149.7 C184.8,149.4 187.4,149.2 190.1,148.9 C192.7,148.6 195.3,148.6 198.0,148.0 C200.6,147.4 203.2,145.9 205.9,145.2 C208.5,144.6 211.1,144.5 213.8,144.2 C216.4,143.9 219.0,143.7 221.7,143.5 C224.3,143.4 226.9,143.8 229.5,143.4 C232.2,143.0 234.8,141.8 237.4,141.2 C240.1,140.7 242.7,140.5 245.3,140.1 C248.0,139.7 250.6,139.6 253.2,138.9 C255.9,138.3 258.5,136.9 261.1,136.3 C263.8,135.6 266.4,135.4 269.0,135.0 C271.6,134.7 274.3,134.5 276.9,134.2 C279.5,134.0 282.2,134.0 284.8,133.7 C287.4,133.3 290.1,132.5 292.7,132.1 C295.3,131.6 298.0,131.4 300.6,131.1 C303.2,130.9 305.8,130.6 308.5,130.4 C311.1,130.3 313.7,130.2 316.4,130.0 C319.0,129.8 321.6,129.5 324.3,129.4 C326.9,129.3 329.5,129.4 332.2,129.4 C334.8,129.4 337.4,130.2 340.1,129.4 C342.7,128.7 345.3,125.9 347.9,124.9 C350.6,124.0 353.2,124.0 355.8,123.6 C358.5,123.1 361.1,122.7 363.7,122.3 C366.4,121.9 369.0,121.3 371.6,121.0 C374.3,120.7 376.9,120.7 379.5,120.5 C382.2,120.2 384.8,119.9 387.4,119.7 C390.0,119.5 392.7,119.6 395.3,119.2 C397.9,118.9 400.6,118.0 403.2,117.6 C405.8,117.2 408.5,117.0 411.1,116.7 C413.7,116.4 416.4,115.9 419.0,115.7 C421.6,115.4 424.2,115.5 426.9,115.2 C429.5,114.9 432.1,114.3 434.8,114.0 C437.4,113.8 440.0,113.8 442.7,113.6 C445.3,113.4 447.9,113.2 450.6,112.9 C453.2,112.6 455.8,112.3 458.5,112.0 C461.1,111.7 463.7,111.4 466.3,111.1 C469.0,110.8 471.6,110.6 474.2,110.3 C476.9,109.9 479.5,109.2 482.1,108.8 C484.8,108.4 487.4,108.2 490.0,107.9 C492.7,107.5 495.3,107.2 497.9,106.8 C500.6,106.5 503.2,106.1 505.8,105.8 C508.4,105.5 511.1,105.1 513.7,104.9 C516.3,104.6 519.0,104.5 521.6,104.2 C524.2,103.8 526.9,103.3 529.5,102.8 C532.1,102.3 534.8,101.6 537.4,101.3 C540.0,101.0 542.6,101.0 545.3,100.9 C547.9,100.7 550.5,100.6 553.2,100.4 C555.8,100.2 558.4,99.9 561.1,99.6 C563.7,99.3 566.3,99.0 569.0,98.7 C571.6,98.4 574.2,98.1 576.9,97.8 C579.5,97.4 582.1,97.0 584.7,96.7 C587.4,96.4 590.0,96.2 592.6,95.9 C595.3,95.6 597.9,95.3 600.5,95.0 C603.2,94.7 605.8,94.4 608.4,94.2 C611.1,94.0 613.7,94.0 616.3,93.9 C619.0,93.7 621.6,93.4 624.2,93.3 C626.8,93.1 629.5,93.1 632.1,92.9 C634.7,92.8 638.7,92.4 640.0,92.3" fill="none" class="line-openvsx" stroke-width="1.8" stroke-linecap="round" stroke-linejoin="round"/>
  <path d="M48.0,219.9 C49.3,219.9 53.3,219.9 55.9,219.8 C58.5,219.7 61.2,219.5 63.8,219.3 C66.4,219.1 69.0,218.8 71.7,218.6 C74.3,218.5 76.9,218.5 79.6,218.4 C82.2,218.3 84.8,218.2 87.5,218.1 C90.1,217.9 92.7,218.3 95.4,217.7 C98.0,217.1 100.6,214.8 103.3,214.2 C105.9,213.6 108.5,214.0 111.1,214.0 C113.8,213.9 116.4,213.9 119.0,213.8 C121.7,213.8 124.3,213.7 126.9,213.6 C129.6,213.6 132.2,213.6 134.8,213.6 C137.5,213.6 140.1,213.6 142.7,213.6 C145.4,213.6 148.0,213.6 150.6,213.6 C153.2,213.5 155.9,213.3 158.5,213.2 C161.1,213.1 163.8,213.1 166.4,213.1 C169.0,213.0 171.7,213.0 174.3,213.0 C176.9,213.0 179.6,212.9 182.2,212.9 C184.8,212.9 187.4,212.8 190.1,212.8 C192.7,212.8 195.3,212.8 198.0,212.8 C200.6,212.8 203.2,212.8 205.9,212.8 C208.5,212.8 211.1,212.7 213.8,212.7 C216.4,212.7 219.0,212.7 221.7,212.7 C224.3,212.7 226.9,212.7 229.5,212.7 C232.2,212.6 234.8,212.6 237.4,212.5 C240.1,212.5 242.7,212.5 245.3,212.4 C248.0,212.4 250.6,212.2 253.2,212.1 C255.9,212.1 258.5,212.0 261.1,212.0 C263.8,211.9 266.4,211.9 269.0,211.9 C271.6,211.8 274.3,211.8 276.9,211.8 C279.5,211.8 282.2,211.7 284.8,211.7 C287.4,211.6 290.1,211.6 292.7,211.5 C295.3,211.5 298.0,211.4 300.6,211.4 C303.2,211.4 305.8,211.3 308.5,211.3 C311.1,211.2 313.7,211.2 316.4,211.1 C319.0,211.1 321.6,211.0 324.3,211.0 C326.9,211.0 329.5,210.9 332.2,210.8 C334.8,210.8 337.4,210.8 340.1,210.8 C342.7,210.7 345.3,210.6 347.9,210.6 C350.6,210.6 353.2,210.6 355.8,210.6 C358.5,210.6 361.1,210.5 363.7,210.5 C366.4,210.5 369.0,210.5 371.6,210.5 C374.3,210.5 376.9,210.5 379.5,210.5 C382.2,210.5 384.8,210.5 387.4,210.5 C390.0,210.5 392.7,210.5 395.3,210.5 C397.9,210.5 400.6,210.5 403.2,210.5 C405.8,210.5 408.5,210.5 411.1,210.5 C413.7,210.5 416.4,210.5 419.0,210.5 C421.6,210.5 424.2,210.5 426.9,210.5 C429.5,210.5 432.1,210.5 434.8,210.5 C437.4,210.5 440.0,210.4 442.7,210.4 C445.3,210.3 447.9,210.3 450.6,210.3 C453.2,210.2 455.8,210.2 458.5,210.2 C461.1,210.2 463.7,210.2 466.3,210.1 C469.0,210.1 471.6,210.1 474.2,210.1 C476.9,210.1 479.5,210.0 482.1,210.0 C484.8,209.9 487.4,209.9 490.0,209.9 C492.7,209.8 495.3,209.8 497.9,209.8 C500.6,209.8 503.2,209.8 505.8,209.7 C508.4,209.7 511.1,209.7 513.7,209.7 C516.3,209.7 519.0,209.6 521.6,209.6 C524.2,209.6 526.9,209.6 529.5,209.6 C532.1,209.5 534.8,209.5 537.4,209.5 C540.0,209.5 542.6,209.5 545.3,209.5 C547.9,209.4 550.5,209.4 553.2,209.4 C555.8,209.4 558.4,209.4 561.1,209.3 C563.7,209.3 566.3,209.3 569.0,209.2 C571.6,209.2 574.2,209.2 576.9,209.2 C579.5,209.1 582.1,209.1 584.7,209.1 C587.4,209.1 590.0,209.1 592.6,209.0 C595.3,209.0 597.9,208.7 600.5,208.6 C603.2,208.6 605.8,208.6 608.4,208.6 C611.1,208.6 613.7,208.6 616.3,208.5 C619.0,208.5 621.6,208.5 624.2,208.5 C626.8,208.5 629.5,208.4 632.1,208.4 C634.7,208.4 638.7,208.4 640.0,208.4" fill="none" class="line-vscode" stroke-width="1.8" stroke-linecap="round" stroke-linejoin="round"/>
  <path d="M48.0,219.8 C49.3,218.4 53.3,213.7 55.9,211.7 C58.5,209.7 61.2,209.1 63.8,207.7 C66.4,206.4 69.0,204.4 71.7,203.7 C74.3,203.0 76.9,205.0 79.6,203.5 C82.2,202.0 84.8,196.6 87.5,194.9 C90.1,193.2 92.7,200.1 95.4,193.2 C98.0,186.2 100.6,160.3 103.3,153.3 C105.9,146.3 108.5,151.7 111.1,151.3 C113.8,150.8 116.4,150.7 119.0,150.5 C121.7,150.3 124.3,150.2 126.9,150.1 C129.6,150.0 132.2,149.9 134.8,149.7 C137.5,149.5 140.1,149.1 142.7,148.7 C145.4,148.2 148.0,147.4 150.6,147.0 C153.2,146.5 155.9,146.3 158.5,146.1 C161.1,145.9 163.8,146.0 166.4,145.6 C169.0,145.2 171.7,144.1 174.3,143.6 C176.9,143.1 179.6,142.9 182.2,142.6 C184.8,142.3 187.4,142.0 190.1,141.7 C192.7,141.4 195.3,141.4 198.0,140.8 C200.6,140.2 203.2,138.7 205.9,138.0 C208.5,137.4 211.1,137.2 213.8,136.9 C216.4,136.6 219.0,136.4 221.7,136.2 C224.3,136.1 226.9,136.5 229.5,136.1 C232.2,135.7 234.8,134.4 237.4,133.8 C240.1,133.2 242.7,133.0 245.3,132.5 C248.0,132.1 250.6,131.8 253.2,131.1 C255.9,130.4 258.5,129.0 261.1,128.3 C263.8,127.6 266.4,127.3 269.0,126.9 C271.6,126.5 274.3,126.3 276.9,126.0 C279.5,125.8 282.2,125.8 284.8,125.3 C287.4,124.9 290.1,124.0 292.7,123.6 C295.3,123.1 298.0,122.8 300.6,122.5 C303.2,122.2 305.8,122.0 308.5,121.7 C311.1,121.5 313.7,121.3 316.4,121.1 C319.0,120.9 321.6,120.6 324.3,120.4 C326.9,120.3 329.5,120.3 332.2,120.2 C334.8,120.2 337.4,121.0 340.1,120.2 C342.7,119.4 345.3,116.5 347.9,115.5 C350.6,114.5 353.2,114.6 355.8,114.2 C358.5,113.7 361.1,113.3 363.7,112.8 C366.4,112.4 369.0,111.9 371.6,111.6 C374.3,111.3 376.9,111.2 379.5,111.0 C382.2,110.8 384.8,110.4 387.4,110.2 C390.0,110.0 392.7,110.1 395.3,109.7 C397.9,109.4 400.6,108.6 403.2,108.1 C405.8,107.7 408.5,107.6 411.1,107.2 C413.7,106.9 416.4,106.4 419.0,106.2 C421.6,105.9 424.2,106.0 426.9,105.7 C429.5,105.5 432.1,104.8 434.8,104.5 C437.4,104.2 440.0,104.2 442.7,104.0 C445.3,103.7 447.9,103.5 450.6,103.2 C453.2,102.9 455.8,102.5 458.5,102.2 C461.1,101.9 463.7,101.5 466.3,101.2 C469.0,100.9 471.6,100.8 474.2,100.3 C476.9,99.9 479.5,99.2 482.1,98.7 C484.8,98.3 487.4,98.1 490.0,97.7 C492.7,97.4 495.3,97.0 497.9,96.6 C500.6,96.3 503.2,95.9 505.8,95.5 C508.4,95.2 511.1,94.8 513.7,94.6 C516.3,94.3 519.0,94.2 521.6,93.8 C524.2,93.4 526.9,92.9 529.5,92.4 C532.1,91.9 534.8,91.2 537.4,90.8 C540.0,90.5 542.6,90.5 545.3,90.3 C547.9,90.1 550.5,90.0 553.2,89.8 C555.8,89.6 558.4,89.3 561.1,88.9 C563.7,88.6 566.3,88.2 569.0,87.9 C571.6,87.6 574.2,87.3 576.9,86.9 C579.5,86.6 582.1,86.2 584.7,85.8 C587.4,85.5 590.0,85.3 592.6,85.0 C595.3,84.6 597.9,84.0 600.5,83.7 C603.2,83.3 605.8,83.0 608.4,82.8 C611.1,82.6 613.7,82.6 616.3,82.4 C619.0,82.2 621.6,81.9 624.2,81.8 C626.8,81.6 629.5,81.6 632.1,81.4 C634.7,81.2 638.7,80.7 640.0,80.6" fill="none" class="line-total" stroke-width="2.5" stroke-linecap="round" stroke-linejoin="round"/>

  <circle cx="640" cy="80.62266666666667" r="4.5" class="dot-total" stroke-width="2"/>
    <text x="658" y="84.62266666666667" class="end-label" font-family="-apple-system, BlinkMacSystemFont, 'Segoe UI', Helvetica, sans-serif">Total</text>
    <text x="697" y="84.62266666666667" class="end-value" font-family="-apple-system, BlinkMacSystemFont, 'Segoe UI', Helvetica, sans-serif">2.4k</text>
    <circle cx="640" cy="92.26133333333333" r="3.5" class="dot-openvsx" stroke-width="1.8"/>
    <text x="658" y="102.62266666666667" class="end-label" font-family="-apple-system, BlinkMacSystemFont, 'Segoe UI', Helvetica, sans-serif">Open VSX</text>
    <text x="716.8" y="102.62266666666667" class="end-value" font-family="-apple-system, BlinkMacSystemFont, 'Segoe UI', Helvetica, sans-serif">2.2k</text>
    <circle cx="640" cy="208.36133333333333" r="3.5" class="dot-vscode" stroke-width="1.8"/>
    <text x="658" y="212.36133333333333" class="end-label" font-family="-apple-system, BlinkMacSystemFont, 'Segoe UI', Helvetica, sans-serif">VS Code</text>
    <text x="710.2" y="212.36133333333333" class="end-value" font-family="-apple-system, BlinkMacSystemFont, 'Segoe UI', Helvetica, sans-serif">203</text>
</svg>