<svg xmlns="http://www.w3.org/2000/svg" viewBox="0 0 760 260" width="760" height="260" role="img" aria-label="Glassy install history">
  <style>
  svg { color-scheme: light dark; }
  .title      { fill: #1a1a2e; font-size: 15px; font-weight: 600; }
  .subtitle   { fill: #6b7280; font-size: 11px; font-weight: 400; }
  .grid       { stroke: #e8e8ee; }
  .axis-label { fill: #8a8a9a; font-size: 10px; }
  .line-total   { stroke: #e8553d; }
  .line-vscode  { stroke: #5b7cfa; }
  .line-openvsx { stroke: #34c7a0; }
  .dot-total   { fill: transparent; stroke: #e8553d; }
  .dot-vscode  { fill: transparent; stroke: #5b7cfa; }
  .dot-openvsx { fill: transparent; stroke: #34c7a0; }
  .end-label       { fill: #1a1a2e; font-size: 11px; font-weight: 600; }
  .end-value       { fill: #6b7280; font-size: 11px; font-weight: 400; }
  .area-total-top    { stop-color: #e8553d; }
  .area-total-bottom { stop-color: #e8553d; }

  @media (prefers-color-scheme: dark) {
    .title      { fill: #e2e2e8; }
    .subtitle   { fill: #8b949e; }
    .grid       { stroke: #2d2d3d; }
    .axis-label { fill: #6e7681; }
    .line-total   { stroke: #ff9b85; }
    .line-vscode  { stroke: #8da4ff; }
    .line-openvsx { stroke: #5eead4; }
    .dot-total   { stroke: #ff9b85; }
    .dot-vscode  { stroke: #8da4ff; }
    .dot-openvsx { stroke: #5eead4; }
    .end-label       { fill: #e2e2e8; }
    .end-value       { fill: #8b949e; }
    .area-total-top    { stop-color: #ff9b85; }
    .area-total-bottom { stop-color: #ff9b85; }
  }
</style>
  <defs>
    <linearGradient id="areaGrad" x1="0" y1="0" x2="0" y2="1">
      <stop offset="0%" class="area-total-top" stop-opacity="0.18"/>
      <stop offset="60%" class="area-total-bottom" stop-opacity="0.04"/>
      <stop offset="100%" class="area-total-bottom" stop-opacity="0"/>
    </linearGradient>
  </defs>

  <text x="48" y="22" class="title" font-family="-apple-system, BlinkMacSystemFont, 'Segoe UI', Helvetica, sans-serif">Installs</text>
  <text x="48" y="37" class="subtitle" font-family="-apple-system, BlinkMacSystemFont, 'Segoe UI', Helvetica, sans-serif">Updated Jul 4</text>

  <line x1="48" y1="220" x2="640" y2="220" class="grid" stroke-width="0.7"/>
    <text x="40" y="223.5" class="axis-label" text-anchor="end" font-family="-apple-system, BlinkMacSystemFont, 'Segoe UI', Helvetica, sans-serif">0</text>
    <line x1="48" y1="162.66666666666669" x2="640" y2="162.66666666666669" class="grid" stroke-width="0.7"/>
    <text x="40" y="166.16666666666669" class="axis-label" text-anchor="end" font-family="-apple-system, BlinkMacSystemFont, 'Segoe UI', Helvetica, sans-serif">1k</text>
    <line x1="48" y1="105.33333333333334" x2="640" y2="105.33333333333334" class="grid" stroke-width="0.7"/>
    <text x="40" y="108.83333333333334" class="axis-label" text-anchor="end" font-family="-apple-system, BlinkMacSystemFont, 'Segoe UI', Helvetica, sans-serif">2k</text>
    <line x1="48" y1="48" x2="640" y2="48" class="grid" stroke-width="0.7"/>
    <text x="40" y="51.5" class="axis-label" text-anchor="end" font-family="-apple-system, BlinkMacSystemFont, 'Segoe UI', Helvetica, sans-serif">3k</text>
  <text x="48" y="248" class="axis-label" text-anchor="middle" font-family="-apple-system, BlinkMacSystemFont, 'Segoe UI', Helvetica, sans-serif">Mar 27</text>
    <text x="166.4" y="248" class="axis-label" text-anchor="middle" font-family="-apple-system, BlinkMacSystemFont, 'Segoe UI', Helvetica, sans-serif">May 9</text>
    <text x="284.8" y="248" class="axis-label" text-anchor="middle" font-family="-apple-system, BlinkMacSystemFont, 'Segoe UI', Helvetica, sans-serif">May 23</text>
    <text x="403.2" y="248" class="axis-label" text-anchor="middle" font-family="-apple-system, BlinkMacSystemFont, 'Segoe UI', Helvetica, sans-serif">Jun 6</text>
    <text x="521.6" y="248" class="axis-label" text-anchor="middle" font-family="-apple-system, BlinkMacSystemFont, 'Segoe UI', Helvetica, sans-serif">Jun 20</text>
    <text x="640" y="248" class="axis-label" text-anchor="middle" font-family="-apple-system, BlinkMacSystemFont, 'Segoe UI', Helvetica, sans-serif">Jul 4</text>

  <path d="M48.0,219.8 C49.4,218.4 53.6,213.7 56.5,211.7 C59.3,209.7 62.1,209.1 64.9,207.7 C67.7,206.4 70.6,204.4 73.4,203.7 C76.2,203.0 79.0,205.0 81.8,203.5 C84.6,202.0 87.5,196.6 90.3,194.9 C93.1,193.2 95.9,200.1 98.7,193.2 C101.6,186.2 104.4,160.3 107.2,153.3 C110.0,146.3 112.8,151.7 115.7,151.3 C118.5,150.8 121.3,150.7 124.1,150.5 C126.9,150.3 129.8,150.2 132.6,150.1 C135.4,150.0 138.2,149.9 141.0,149.7 C143.8,149.5 146.7,149.1 149.5,148.7 C152.3,148.2 155.1,147.4 157.9,147.0 C160.8,146.5 163.6,146.3 166.4,146.1 C169.2,145.9 172.0,146.0 174.9,145.6 C177.7,145.2 180.5,144.1 183.3,143.6 C186.1,143.1 189.0,142.9 191.8,142.6 C194.6,142.3 197.4,142.0 200.2,141.7 C203.0,141.4 205.9,141.4 208.7,140.8 C211.5,140.2 214.3,138.7 217.1,138.0 C220.0,137.4 222.8,137.2 225.6,136.9 C228.4,136.6 231.2,136.4 234.1,136.2 C236.9,136.1 239.7,136.5 242.5,136.1 C245.3,135.7 248.2,134.4 251.0,133.8 C253.8,133.2 256.6,133.0 259.4,132.5 C262.2,132.1 265.1,131.8 267.9,131.1 C270.7,130.4 273.5,129.0 276.3,128.3 C279.2,127.6 282.0,127.3 284.8,126.9 C287.6,126.5 290.4,126.3 293.3,126.0 C296.1,125.8 298.9,125.8 301.7,125.3 C304.5,124.9 307.4,124.0 310.2,123.6 C313.0,123.1 315.8,122.8 318.6,122.5 C321.4,122.2 324.3,122.0 327.1,121.7 C329.9,121.5 332.7,121.3 335.5,121.1 C338.4,120.9 341.2,120.6 344.0,120.4 C346.8,120.3 349.6,120.3 352.5,120.2 C355.3,120.2 358.1,121.0 360.9,120.2 C363.7,119.4 366.6,116.5 369.4,115.5 C372.2,114.5 375.0,114.6 377.8,114.2 C380.6,113.7 383.5,113.3 386.3,112.8 C389.1,112.4 391.9,111.9 394.7,111.6 C397.6,111.3 400.4,111.2 403.2,111.0 C406.0,110.8 408.8,110.4 411.7,110.2 C414.5,110.0 417.3,110.1 420.1,109.7 C422.9,109.4 425.8,108.6 428.6,108.1 C431.4,107.7 434.2,107.6 437.0,107.2 C439.8,106.9 442.7,106.4 445.5,106.2 C448.3,105.9 451.1,106.0 453.9,105.7 C456.8,105.5 459.6,104.8 462.4,104.5 C465.2,104.2 468.0,104.2 470.9,104.0 C473.7,103.7 476.5,103.5 479.3,103.2 C482.1,102.9 485.0,102.5 487.8,102.2 C490.6,101.9 493.4,101.5 496.2,101.2 C499.0,100.9 501.9,100.8 504.7,100.3 C507.5,99.9 510.3,99.2 513.1,98.7 C516.0,98.3 518.8,98.1 521.6,97.7 C524.4,97.4 527.2,97.0 530.1,96.6 C532.9,96.3 535.7,95.9 538.5,95.5 C541.3,95.2 544.2,94.8 547.0,94.6 C549.8,94.3 552.6,94.2 555.4,93.8 C558.2,93.4 561.1,92.9 563.9,92.4 C566.7,91.9 569.5,91.2 572.3,90.8 C575.2,90.5 578.0,90.5 580.8,90.3 C583.6,90.1 586.4,90.0 589.3,89.8 C592.1,89.6 594.9,89.3 597.7,88.9 C600.5,88.6 603.4,88.2 606.2,87.9 C609.0,87.6 611.8,87.3 614.6,86.9 C617.4,86.6 620.3,86.2 623.1,85.8 C625.9,85.5 628.7,85.3 631.5,85.0 C634.4,84.6 638.6,83.9 640.0,83.7 L640.0,220.0 L48.0,220.0 Z" fill="url(#areaGrad)"/>
  <path d="M48.0,219.8 C49.4,218.5 53.6,213.8 56.5,211.9 C59.3,210.0 62.1,209.5 64.9,208.4 C67.7,207.3 70.6,205.6 73.4,205.1 C76.2,204.5 79.0,206.5 81.8,205.1 C84.6,203.7 87.5,198.4 90.3,196.8 C93.1,195.2 95.9,201.7 98.7,195.5 C101.6,189.2 104.4,165.5 107.2,159.1 C110.0,152.7 112.8,157.7 115.7,157.3 C118.5,156.9 121.3,156.8 124.1,156.7 C126.9,156.6 129.8,156.6 132.6,156.5 C135.4,156.4 138.2,156.4 141.0,156.1 C143.8,155.9 146.7,155.6 149.5,155.1 C152.3,154.6 155.1,153.7 157.9,153.4 C160.8,153.0 163.6,153.1 166.4,152.9 C169.2,152.8 172.0,153.0 174.9,152.6 C177.7,152.2 180.5,151.1 183.3,150.6 C186.1,150.1 189.0,150.0 191.8,149.7 C194.6,149.4 197.4,149.2 200.2,148.9 C203.0,148.6 205.9,148.6 208.7,148.0 C211.5,147.4 214.3,145.9 217.1,145.2 C220.0,144.6 222.8,144.5 225.6,144.2 C228.4,143.9 231.2,143.7 234.1,143.5 C236.9,143.4 239.7,143.8 242.5,143.4 C245.3,143.0 248.2,141.8 251.0,141.2 C253.8,140.7 256.6,140.5 259.4,140.1 C262.2,139.7 265.1,139.6 267.9,138.9 C270.7,138.3 273.5,136.9 276.3,136.3 C279.2,135.6 282.0,135.4 284.8,135.0 C287.6,134.7 290.4,134.5 293.3,134.2 C296.1,134.0 298.9,134.0 301.7,133.7 C304.5,133.3 307.4,132.5 310.2,132.1 C313.0,131.6 315.8,131.4 318.6,131.1 C321.4,130.9 324.3,130.6 327.1,130.4 C329.9,130.3 332.7,130.2 335.5,130.0 C338.4,129.8 341.2,129.5 344.0,129.4 C346.8,129.3 349.6,129.4 352.5,129.4 C355.3,129.4 358.1,130.2 360.9,129.4 C363.7,128.7 366.6,125.9 369.4,124.9 C372.2,124.0 375.0,124.0 377.8,123.6 C380.6,123.1 383.5,122.7 386.3,122.3 C389.1,121.9 391.9,121.3 394.7,121.0 C397.6,120.7 400.4,120.7 403.2,120.5 C406.0,120.2 408.8,119.9 411.7,119.7 C414.5,119.5 417.3,119.6 420.1,119.2 C422.9,118.9 425.8,118.0 428.6,117.6 C431.4,117.2 434.2,117.0 437.0,116.7 C439.8,116.4 442.7,115.9 445.5,115.7 C448.3,115.4 451.1,115.5 453.9,115.2 C456.8,114.9 459.6,114.3 462.4,114.0 C465.2,113.8 468.0,113.8 470.9,113.6 C473.7,113.4 476.5,113.2 479.3,112.9 C482.1,112.6 485.0,112.3 487.8,112.0 C490.6,111.7 493.4,111.4 496.2,111.1 C499.0,110.8 501.9,110.6 504.7,110.3 C507.5,109.9 510.3,109.2 513.1,108.8 C516.0,108.4 518.8,108.2 521.6,107.9 C524.4,107.5 527.2,107.2 530.1,106.8 C532.9,106.5 535.7,106.1 538.5,105.8 C541.3,105.5 544.2,105.1 547.0,104.9 C549.8,104.6 552.6,104.5 555.4,104.2 C558.2,103.8 561.1,103.3 563.9,102.8 C566.7,102.3 569.5,101.6 572.3,101.3 C575.2,101.0 578.0,101.0 580.8,100.9 C583.6,100.7 586.4,100.6 589.3,100.4 C592.1,100.2 594.9,99.9 597.7,99.6 C600.5,99.3 603.4,99.0 606.2,98.7 C609.0,98.4 611.8,98.1 614.6,97.8 C617.4,97.4 620.3,97.0 623.1,96.7 C625.9,96.4 628.7,96.2 631.5,95.9 C634.4,95.6 638.6,95.2 640.0,95.0" fill="none" class="line-openvsx" stroke-width="1.8" stroke-linecap="round" stroke-linejoin="round"/>
  <path d="M48.0,219.9 C49.4,219.9 53.6,219.9 56.5,219.8 C59.3,219.7 62.1,219.5 64.9,219.3 C67.7,219.1 70.6,218.8 73.4,218.6 C76.2,218.5 79.0,218.5 81.8,218.4 C84.6,218.3 87.5,218.2 90.3,218.1 C93.1,217.9 95.9,218.3 98.7,217.7 C101.6,217.1 104.4,214.8 107.2,214.2 C110.0,213.6 112.8,214.0 115.7,214.0 C118.5,213.9 121.3,213.9 124.1,213.8 C126.9,213.8 129.8,213.7 132.6,213.6 C135.4,213.6 138.2,213.6 141.0,213.6 C143.8,213.6 146.7,213.6 149.5,213.6 C152.3,213.6 155.1,213.6 157.9,213.6 C160.8,213.5 163.6,213.3 166.4,213.2 C169.2,213.1 172.0,213.1 174.9,213.1 C177.7,213.0 180.5,213.0 183.3,213.0 C186.1,213.0 189.0,212.9 191.8,212.9 C194.6,212.9 197.4,212.8 200.2,212.8 C203.0,212.8 205.9,212.8 208.7,212.8 C211.5,212.8 214.3,212.8 217.1,212.8 C220.0,212.8 222.8,212.7 225.6,212.7 C228.4,212.7 231.2,212.7 234.1,212.7 C236.9,212.7 239.7,212.7 242.5,212.7 C245.3,212.6 248.2,212.6 251.0,212.5 C253.8,212.5 256.6,212.5 259.4,212.4 C262.2,212.4 265.1,212.2 267.9,212.1 C270.7,212.1 273.5,212.0 276.3,212.0 C279.2,211.9 282.0,211.9 284.8,211.9 C287.6,211.8 290.4,211.8 293.3,211.8 C296.1,211.8 298.9,211.7 301.7,211.7 C304.5,211.6 307.4,211.6 310.2,211.5 C313.0,211.5 315.8,211.4 318.6,211.4 C321.4,211.4 324.3,211.3 327.1,211.3 C329.9,211.2 332.7,211.2 335.5,211.1 C338.4,211.1 341.2,211.0 344.0,211.0 C346.8,211.0 349.6,210.9 352.5,210.8 C355.3,210.8 358.1,210.8 360.9,210.8 C363.7,210.7 366.6,210.6 369.4,210.6 C372.2,210.6 375.0,210.6 377.8,210.6 C380.6,210.6 383.5,210.5 386.3,210.5 C389.1,210.5 391.9,210.5 394.7,210.5 C397.6,210.5 400.4,210.5 403.2,210.5 C406.0,210.5 408.8,210.5 411.7,210.5 C414.5,210.5 417.3,210.5 420.1,210.5 C422.9,210.5 425.8,210.5 428.6,210.5 C431.4,210.5 434.2,210.5 437.0,210.5 C439.8,210.5 442.7,210.5 445.5,210.5 C448.3,210.5 451.1,210.5 453.9,210.5 C456.8,210.5 459.6,210.5 462.4,210.5 C465.2,210.5 468.0,210.4 470.9,210.4 C473.7,210.3 476.5,210.3 479.3,210.3 C482.1,210.2 485.0,210.2 487.8,210.2 C490.6,210.2 493.4,210.2 496.2,210.1 C499.0,210.1 501.9,210.1 504.7,210.1 C507.5,210.1 510.3,210.0 513.1,210.0 C516.0,209.9 518.8,209.9 521.6,209.9 C524.4,209.8 527.2,209.8 530.1,209.8 C532.9,209.8 535.7,209.8 538.5,209.7 C541.3,209.7 544.2,209.7 547.0,209.7 C549.8,209.7 552.6,209.6 555.4,209.6 C558.2,209.6 561.1,209.6 563.9,209.6 C566.7,209.5 569.5,209.5 572.3,209.5 C575.2,209.5 578.0,209.5 580.8,209.5 C583.6,209.4 586.4,209.4 589.3,209.4 C592.1,209.4 594.9,209.4 597.7,209.3 C600.5,209.3 603.4,209.3 606.2,209.2 C609.0,209.2 611.8,209.2 614.6,209.2 C617.4,209.1 620.3,209.1 623.1,209.1 C625.9,209.1 628.7,209.1 631.5,209.0 C634.4,209.0 638.6,208.7 640.0,208.6" fill="none" class="line-vscode" stroke-width="1.8" stroke-linecap="round" stroke-linejoin="round"/>
  <path d="M48.0,219.8 C49.4,218.4 53.6,213.7 56.5,211.7 C59.3,209.7 62.1,209.1 64.9,207.7 C67.7,206.4 70.6,204.4 73.4,203.7 C76.2,203.0 79.0,205.0 81.8,203.5 C84.6,202.0 87.5,196.6 90.3,194.9 C93.1,193.2 95.9,200.1 98.7,193.2 C101.6,186.2 104.4,160.3 107.2,153.3 C110.0,146.3 112.8,151.7 115.7,151.3 C118.5,150.8 121.3,150.7 124.1,150.5 C126.9,150.3 129.8,150.2 132.6,150.1 C135.4,150.0 138.2,149.9 141.0,149.7 C143.8,149.5 146.7,149.1 149.5,148.7 C152.3,148.2 155.1,147.4 157.9,147.0 C160.8,146.5 163.6,146.3 166.4,146.1 C169.2,145.9 172.0,146.0 174.9,145.6 C177.7,145.2 180.5,144.1 183.3,143.6 C186.1,143.1 189.0,142.9 191.8,142.6 C194.6,142.3 197.4,142.0 200.2,141.7 C203.0,141.4 205.9,141.4 208.7,140.8 C211.5,140.2 214.3,138.7 217.1,138.0 C220.0,137.4 222.8,137.2 225.6,136.9 C228.4,136.6 231.2,136.4 234.1,136.2 C236.9,136.1 239.7,136.5 242.5,136.1 C245.3,135.7 248.2,134.4 251.0,133.8 C253.8,133.2 256.6,133.0 259.4,132.5 C262.2,132.1 265.1,131.8 267.9,131.1 C270.7,130.4 273.5,129.0 276.3,128.3 C279.2,127.6 282.0,127.3 284.8,126.9 C287.6,126.5 290.4,126.3 293.3,126.0 C296.1,125.8 298.9,125.8 301.7,125.3 C304.5,124.9 307.4,124.0 310.2,123.6 C313.0,123.1 315.8,122.8 318.6,122.5 C321.4,122.2 324.3,122.0 327.1,121.7 C329.9,121.5 332.7,121.3 335.5,121.1 C338.4,120.9 341.2,120.6 344.0,120.4 C346.8,120.3 349.6,120.3 352.5,120.2 C355.3,120.2 358.1,121.0 360.9,120.2 C363.7,119.4 366.6,116.5 369.4,115.5 C372.2,114.5 375.0,114.6 377.8,114.2 C380.6,113.7 383.5,113.3 386.3,112.8 C389.1,112.4 391.9,111.9 394.7,111.6 C397.6,111.3 400.4,111.2 403.2,111.0 C406.0,110.8 408.8,110.4 411.7,110.2 C414.5,110.0 417.3,110.1 420.1,109.7 C422.9,109.4 425.8,108.6 428.6,108.1 C431.4,107.7 434.2,107.6 437.0,107.2 C439.8,106.9 442.7,106.4 445.5,106.2 C448.3,105.9 451.1,106.0 453.9,105.7 C456.8,105.5 459.6,104.8 462.4,104.5 C465.2,104.2 468.0,104.2 470.9,104.0 C473.7,103.7 476.5,103.5 479.3,103.2 C482.1,102.9 485.0,102.5 487.8,102.2 C490.6,101.9 493.4,101.5 496.2,101.2 C499.0,100.9 501.9,100.8 504.7,100.3 C507.5,99.9 510.3,99.2 513.1,98.7 C516.0,98.3 518.8,98.1 521.6,97.7 C524.4,97.4 527.2,97.0 530.1,96.6 C532.9,96.3 535.7,95.9 538.5,95.5 C541.3,95.2 544.2,94.8 547.0,94.6 C549.8,94.3 552.6,94.2 555.4,93.8 C558.2,93.4 561.1,92.9 563.9,92.4 C566.7,91.9 569.5,91.2 572.3,90.8 C575.2,90.5 578.0,90.5 580.8,90.3 C583.6,90.1 586.4,90.0 589.3,89.8 C592.1,89.6 594.9,89.3 597.7,88.9 C600.5,88.6 603.4,88.2 606.2,87.9 C609.0,87.6 611.8,87.3 614.6,86.9 C617.4,86.6 620.3,86.2 623.1,85.8 C625.9,85.5 628.7,85.3 631.5,85.0 C634.4,84.6 638.6,83.9 640.0,83.7" fill="none" class="line-total" stroke-width="2.5" stroke-linecap="round" stroke-linejoin="round"/>

  <circle cx="640" cy="83.66133333333335" r="4.5" class="dot-total" stroke-width="2"/>
    <text x="658" y="87.66133333333335" class="end-label" font-family="-apple-system, BlinkMacSystemFont, 'Segoe UI', Helvetica, sans-serif">Total</text>
    <text x="697" y="87.66133333333335" class="end-value" font-family="-apple-system, BlinkMacSystemFont, 'Segoe UI', Helvetica, sans-serif">2.4k</text>
    <circle cx="640" cy="95.01333333333334" r="3.5" class="dot-openvsx" stroke-width="1.8"/>
    <text x="658" y="105.66133333333335" class="end-label" font-family="-apple-system, BlinkMacSystemFont, 'Segoe UI', Helvetica, sans-serif">Open VSX</text>
    <text x="716.8" y="105.66133333333335" class="end-value" font-family="-apple-system, BlinkMacSystemFont, 'Segoe UI', Helvetica, sans-serif">2.2k</text>
    <circle cx="640" cy="208.648" r="3.5" class="dot-vscode" stroke-width="1.8"/>
    <text x="658" y="212.648" class="end-label" font-family="-apple-system, BlinkMacSystemFont, 'Segoe UI', Helvetica, sans-serif">VS Code</text>
    <text x="710.2" y="212.648" class="end-value" font-family="-apple-system, BlinkMacSystemFont, 'Segoe UI', Helvetica, sans-serif">198</text>
</svg>