<svg xmlns="http://www.w3.org/2000/svg" viewBox="0 0 760 260" width="760" height="260" role="img" aria-label="Glassy install history">
  <style>
  svg { color-scheme: light dark; }
  .title      { fill: #1a1a2e; font-size: 15px; font-weight: 600; }
  .subtitle   { fill: #6b7280; font-size: 11px; font-weight: 400; }
  .grid       { stroke: #e8e8ee; }
  .axis-label { fill: #8a8a9a; font-size: 10px; }
  .line-total   { stroke: #e8553d; }
  .line-vscode  { stroke: #5b7cfa; }
  .line-openvsx { stroke: #34c7a0; }
  .dot-total   { fill: transparent; stroke: #e8553d; }
  .dot-vscode  { fill: transparent; stroke: #5b7cfa; }
  .dot-openvsx { fill: transparent; stroke: #34c7a0; }
  .end-label       { fill: #1a1a2e; font-size: 11px; font-weight: 600; }
  .end-value       { fill: #6b7280; font-size: 11px; font-weight: 400; }
  .area-total-top    { stop-color: #e8553d; }
  .area-total-bottom { stop-color: #e8553d; }

  @media (prefers-color-scheme: dark) {
    .title      { fill: #e2e2e8; }
    .subtitle   { fill: #8b949e; }
    .grid       { stroke: #2d2d3d; }
    .axis-label { fill: #6e7681; }
    .line-total   { stroke: #ff9b85; }
    .line-vscode  { stroke: #8da4ff; }
    .line-openvsx { stroke: #5eead4; }
    .dot-total   { stroke: #ff9b85; }
    .dot-vscode  { stroke: #8da4ff; }
    .dot-openvsx { stroke: #5eead4; }
    .end-label       { fill: #e2e2e8; }
    .end-value       { fill: #8b949e; }
    .area-total-top    { stop-color: #ff9b85; }
    .area-total-bottom { stop-color: #ff9b85; }
  }
</style>
  <defs>
    <linearGradient id="areaGrad" x1="0" y1="0" x2="0" y2="1">
      <stop offset="0%" class="area-total-top" stop-opacity="0.18"/>
      <stop offset="60%" class="area-total-bottom" stop-opacity="0.04"/>
      <stop offset="100%" class="area-total-bottom" stop-opacity="0"/>
    </linearGradient>
  </defs>

  <text x="48" y="22" class="title" font-family="-apple-system, BlinkMacSystemFont, 'Segoe UI', Helvetica, sans-serif">Installs</text>
  <text x="48" y="37" class="subtitle" font-family="-apple-system, BlinkMacSystemFont, 'Segoe UI', Helvetica, sans-serif">Updated Jul 24</text>

  <line x1="48" y1="220" x2="640" y2="220" class="grid" stroke-width="0.7"/>
    <text x="40" y="223.5" class="axis-label" text-anchor="end" font-family="-apple-system, BlinkMacSystemFont, 'Segoe UI', Helvetica, sans-serif">0</text>
    <line x1="48" y1="162.66666666666669" x2="640" y2="162.66666666666669" class="grid" stroke-width="0.7"/>
    <text x="40" y="166.16666666666669" class="axis-label" text-anchor="end" font-family="-apple-system, BlinkMacSystemFont, 'Segoe UI', Helvetica, sans-serif">1k</text>
    <line x1="48" y1="105.33333333333334" x2="640" y2="105.33333333333334" class="grid" stroke-width="0.7"/>
    <text x="40" y="108.83333333333334" class="axis-label" text-anchor="end" font-family="-apple-system, BlinkMacSystemFont, 'Segoe UI', Helvetica, sans-serif">2k</text>
    <line x1="48" y1="48" x2="640" y2="48" class="grid" stroke-width="0.7"/>
    <text x="40" y="51.5" class="axis-label" text-anchor="end" font-family="-apple-system, BlinkMacSystemFont, 'Segoe UI', Helvetica, sans-serif">3k</text>
  <text x="48" y="248" class="axis-label" text-anchor="middle" font-family="-apple-system, BlinkMacSystemFont, 'Segoe UI', Helvetica, sans-serif">Mar 27</text>
    <text x="166.4" y="248" class="axis-label" text-anchor="middle" font-family="-apple-system, BlinkMacSystemFont, 'Segoe UI', Helvetica, sans-serif">May 13</text>
    <text x="284.8" y="248" class="axis-label" text-anchor="middle" font-family="-apple-system, BlinkMacSystemFont, 'Segoe UI', Helvetica, sans-serif">May 31</text>
    <text x="403.2" y="248" class="axis-label" text-anchor="middle" font-family="-apple-system, BlinkMacSystemFont, 'Segoe UI', Helvetica, sans-serif">Jun 18</text>
    <text x="521.6" y="248" class="axis-label" text-anchor="middle" font-family="-apple-system, BlinkMacSystemFont, 'Segoe UI', Helvetica, sans-serif">Jul 6</text>
    <text x="640" y="248" class="axis-label" text-anchor="middle" font-family="-apple-system, BlinkMacSystemFont, 'Segoe UI', Helvetica, sans-serif">Jul 24</text>

  <path d="M48.0,219.8 C49.1,218.4 52.4,213.7 54.6,211.7 C56.8,209.7 59.0,209.1 61.2,207.7 C63.3,206.4 65.5,204.4 67.7,203.7 C69.9,203.0 72.1,205.0 74.3,203.5 C76.5,202.0 78.7,196.6 80.9,194.9 C83.1,193.2 85.3,200.1 87.5,193.2 C89.7,186.2 91.9,160.3 94.0,153.3 C96.2,146.3 98.4,151.7 100.6,151.3 C102.8,150.8 105.0,150.7 107.2,150.5 C109.4,150.3 111.6,150.2 113.8,150.1 C116.0,150.0 118.2,149.9 120.4,149.7 C122.5,149.5 124.7,149.1 126.9,148.7 C129.1,148.2 131.3,147.4 133.5,147.0 C135.7,146.5 137.9,146.3 140.1,146.1 C142.3,145.9 144.5,146.0 146.7,145.6 C148.9,145.2 151.1,144.1 153.2,143.6 C155.4,143.1 157.6,142.9 159.8,142.6 C162.0,142.3 164.2,142.0 166.4,141.7 C168.6,141.4 170.8,141.4 173.0,140.8 C175.2,140.2 177.4,138.7 179.6,138.0 C181.7,137.4 183.9,137.2 186.1,136.9 C188.3,136.6 190.5,136.4 192.7,136.2 C194.9,136.1 197.1,136.5 199.3,136.1 C201.5,135.7 203.7,134.4 205.9,133.8 C208.1,133.2 210.3,133.0 212.4,132.5 C214.6,132.1 216.8,131.8 219.0,131.1 C221.2,130.4 223.4,129.0 225.6,128.3 C227.8,127.6 230.0,127.3 232.2,126.9 C234.4,126.5 236.6,126.3 238.8,126.0 C240.9,125.8 243.1,125.8 245.3,125.3 C247.5,124.9 249.7,124.0 251.9,123.6 C254.1,123.1 256.3,122.8 258.5,122.5 C260.7,122.2 262.9,122.0 265.1,121.7 C267.3,121.5 269.5,121.3 271.6,121.1 C273.8,120.9 276.0,120.6 278.2,120.4 C280.4,120.3 282.6,120.3 284.8,120.2 C287.0,120.2 289.2,121.0 291.4,120.2 C293.6,119.4 295.8,116.5 298.0,115.5 C300.1,114.5 302.3,114.6 304.5,114.2 C306.7,113.7 308.9,113.3 311.1,112.8 C313.3,112.4 315.5,111.9 317.7,111.6 C319.9,111.3 322.1,111.2 324.3,111.0 C326.5,110.8 328.7,110.4 330.8,110.2 C333.0,110.0 335.2,110.1 337.4,109.7 C339.6,109.4 341.8,108.6 344.0,108.1 C346.2,107.7 348.4,107.6 350.6,107.2 C352.8,106.9 355.0,106.4 357.2,106.2 C359.3,105.9 361.5,106.0 363.7,105.7 C365.9,105.5 368.1,104.8 370.3,104.5 C372.5,104.2 374.7,104.2 376.9,104.0 C379.1,103.7 381.3,103.5 383.5,103.2 C385.7,102.9 387.9,102.5 390.0,102.2 C392.2,101.9 394.4,101.5 396.6,101.2 C398.8,100.9 401.0,100.8 403.2,100.3 C405.4,99.9 407.6,99.2 409.8,98.7 C412.0,98.3 414.2,98.1 416.4,97.7 C418.5,97.4 420.7,97.0 422.9,96.6 C425.1,96.3 427.3,95.9 429.5,95.5 C431.7,95.2 433.9,94.8 436.1,94.6 C438.3,94.3 440.5,94.2 442.7,93.8 C444.9,93.4 447.1,92.9 449.2,92.4 C451.4,91.9 453.6,91.2 455.8,90.8 C458.0,90.5 460.2,90.5 462.4,90.3 C464.6,90.1 466.8,90.0 469.0,89.8 C471.2,89.6 473.4,89.3 475.6,88.9 C477.7,88.6 479.9,88.2 482.1,87.9 C484.3,87.6 486.5,87.3 488.7,86.9 C490.9,86.6 493.1,86.2 495.3,85.8 C497.5,85.5 499.7,85.3 501.9,85.0 C504.1,84.6 506.3,84.0 508.4,83.7 C510.6,83.3 512.8,83.0 515.0,82.8 C517.2,82.6 519.4,82.6 521.6,82.4 C523.8,82.2 526.0,81.9 528.2,81.8 C530.4,81.6 532.6,81.6 534.8,81.4 C536.9,81.2 539.1,80.9 541.3,80.6 C543.5,80.4 545.7,80.0 547.9,79.8 C550.1,79.5 552.3,79.3 554.5,79.1 C556.7,78.9 558.9,78.8 561.1,78.5 C563.3,78.2 565.5,77.5 567.6,77.2 C569.8,76.9 572.0,76.8 574.2,76.6 C576.4,76.3 578.6,76.1 580.8,75.6 C583.0,75.1 585.2,74.5 587.4,73.7 C589.6,72.9 591.8,71.5 594.0,70.9 C596.1,70.3 598.3,70.4 600.5,70.1 C602.7,69.9 604.9,69.7 607.1,69.5 C609.3,69.3 611.5,69.0 613.7,68.9 C615.9,68.7 618.1,68.7 620.3,68.6 C622.5,68.4 624.7,68.2 626.8,67.9 C629.0,67.6 631.2,67.1 633.4,66.6 C635.6,66.1 638.9,65.2 640.0,65.0 L640.0,220.0 L48.0,220.0 Z" fill="url(#areaGrad)"/>
  <path d="M48.0,219.8 C49.1,218.5 52.4,213.8 54.6,211.9 C56.8,210.0 59.0,209.5 61.2,208.4 C63.3,207.3 65.5,205.6 67.7,205.1 C69.9,204.5 72.1,206.5 74.3,205.1 C76.5,203.7 78.7,198.4 80.9,196.8 C83.1,195.2 85.3,201.7 87.5,195.5 C89.7,189.2 91.9,165.5 94.0,159.1 C96.2,152.7 98.4,157.7 100.6,157.3 C102.8,156.9 105.0,156.8 107.2,156.7 C109.4,156.6 111.6,156.6 113.8,156.5 C116.0,156.4 118.2,156.4 120.4,156.1 C122.5,155.9 124.7,155.6 126.9,155.1 C129.1,154.6 131.3,153.7 133.5,153.4 C135.7,153.0 137.9,153.1 140.1,152.9 C142.3,152.8 144.5,153.0 146.7,152.6 C148.9,152.2 151.1,151.1 153.2,150.6 C155.4,150.1 157.6,150.0 159.8,149.7 C162.0,149.4 164.2,149.2 166.4,148.9 C168.6,148.6 170.8,148.6 173.0,148.0 C175.2,147.4 177.4,145.9 179.6,145.2 C181.7,144.6 183.9,144.5 186.1,144.2 C188.3,143.9 190.5,143.7 192.7,143.5 C194.9,143.4 197.1,143.8 199.3,143.4 C201.5,143.0 203.7,141.8 205.9,141.2 C208.1,140.7 210.3,140.5 212.4,140.1 C214.6,139.7 216.8,139.6 219.0,138.9 C221.2,138.3 223.4,136.9 225.6,136.3 C227.8,135.6 230.0,135.4 232.2,135.0 C234.4,134.7 236.6,134.5 238.8,134.2 C240.9,134.0 243.1,134.0 245.3,133.7 C247.5,133.3 249.7,132.5 251.9,132.1 C254.1,131.6 256.3,131.4 258.5,131.1 C260.7,130.9 262.9,130.6 265.1,130.4 C267.3,130.3 269.5,130.2 271.6,130.0 C273.8,129.8 276.0,129.5 278.2,129.4 C280.4,129.3 282.6,129.4 284.8,129.4 C287.0,129.4 289.2,130.2 291.4,129.4 C293.6,128.7 295.8,125.9 298.0,124.9 C300.1,124.0 302.3,124.0 304.5,123.6 C306.7,123.1 308.9,122.7 311.1,122.3 C313.3,121.9 315.5,121.3 317.7,121.0 C319.9,120.7 322.1,120.7 324.3,120.5 C326.5,120.2 328.7,119.9 330.8,119.7 C333.0,119.5 335.2,119.6 337.4,119.2 C339.6,118.9 341.8,118.0 344.0,117.6 C346.2,117.2 348.4,117.0 350.6,116.7 C352.8,116.4 355.0,115.9 357.2,115.7 C359.3,115.4 361.5,115.5 363.7,115.2 C365.9,114.9 368.1,114.3 370.3,114.0 C372.5,113.8 374.7,113.8 376.9,113.6 C379.1,113.4 381.3,113.2 383.5,112.9 C385.7,112.6 387.9,112.3 390.0,112.0 C392.2,111.7 394.4,111.4 396.6,111.1 C398.8,110.8 401.0,110.6 403.2,110.3 C405.4,109.9 407.6,109.2 409.8,108.8 C412.0,108.4 414.2,108.2 416.4,107.9 C418.5,107.5 420.7,107.2 422.9,106.8 C425.1,106.5 427.3,106.1 429.5,105.8 C431.7,105.5 433.9,105.1 436.1,104.9 C438.3,104.6 440.5,104.5 442.7,104.2 C444.9,103.8 447.1,103.3 449.2,102.8 C451.4,102.3 453.6,101.6 455.8,101.3 C458.0,101.0 460.2,101.0 462.4,100.9 C464.6,100.7 466.8,100.6 469.0,100.4 C471.2,100.2 473.4,99.9 475.6,99.6 C477.7,99.3 479.9,99.0 482.1,98.7 C484.3,98.4 486.5,98.1 488.7,97.8 C490.9,97.4 493.1,97.0 495.3,96.7 C497.5,96.4 499.7,96.2 501.9,95.9 C504.1,95.6 506.3,95.3 508.4,95.0 C510.6,94.7 512.8,94.4 515.0,94.2 C517.2,94.0 519.4,94.0 521.6,93.9 C523.8,93.7 526.0,93.4 528.2,93.3 C530.4,93.1 532.6,93.1 534.8,92.9 C536.9,92.8 539.1,92.5 541.3,92.3 C543.5,92.0 545.7,91.7 547.9,91.5 C550.1,91.2 552.3,91.0 554.5,90.8 C556.7,90.6 558.9,90.6 561.1,90.3 C563.3,90.0 565.5,89.4 567.6,89.1 C569.8,88.7 572.0,88.7 574.2,88.5 C576.4,88.2 578.6,88.0 580.8,87.6 C583.0,87.1 585.2,86.5 587.4,85.7 C589.6,85.0 591.8,83.5 594.0,83.0 C596.1,82.4 598.3,82.5 600.5,82.3 C602.7,82.1 604.9,81.9 607.1,81.7 C609.3,81.5 611.5,81.3 613.7,81.1 C615.9,81.0 618.1,81.1 620.3,80.9 C622.5,80.8 624.7,80.5 626.8,80.2 C629.0,79.9 631.2,79.5 633.4,79.1 C635.6,78.6 638.9,77.7 640.0,77.5" fill="none" class="line-openvsx" stroke-width="1.8" stroke-linecap="round" stroke-linejoin="round"/>
  <path d="M48.0,219.9 C49.1,219.9 52.4,219.9 54.6,219.8 C56.8,219.7 59.0,219.5 61.2,219.3 C63.3,219.1 65.5,218.8 67.7,218.6 C69.9,218.5 72.1,218.5 74.3,218.4 C76.5,218.3 78.7,218.2 80.9,218.1 C83.1,217.9 85.3,218.3 87.5,217.7 C89.7,217.1 91.9,214.8 94.0,214.2 C96.2,213.6 98.4,214.0 100.6,214.0 C102.8,213.9 105.0,213.9 107.2,213.8 C109.4,213.8 111.6,213.7 113.8,213.6 C116.0,213.6 118.2,213.6 120.4,213.6 C122.5,213.6 124.7,213.6 126.9,213.6 C129.1,213.6 131.3,213.6 133.5,213.6 C135.7,213.5 137.9,213.3 140.1,213.2 C142.3,213.1 144.5,213.1 146.7,213.1 C148.9,213.0 151.1,213.0 153.2,213.0 C155.4,213.0 157.6,212.9 159.8,212.9 C162.0,212.9 164.2,212.8 166.4,212.8 C168.6,212.8 170.8,212.8 173.0,212.8 C175.2,212.8 177.4,212.8 179.6,212.8 C181.7,212.8 183.9,212.7 186.1,212.7 C188.3,212.7 190.5,212.7 192.7,212.7 C194.9,212.7 197.1,212.7 199.3,212.7 C201.5,212.6 203.7,212.6 205.9,212.5 C208.1,212.5 210.3,212.5 212.4,212.4 C214.6,212.4 216.8,212.2 219.0,212.1 C221.2,212.1 223.4,212.0 225.6,212.0 C227.8,211.9 230.0,211.9 232.2,211.9 C234.4,211.8 236.6,211.8 238.8,211.8 C240.9,211.8 243.1,211.7 245.3,211.7 C247.5,211.6 249.7,211.6 251.9,211.5 C254.1,211.5 256.3,211.4 258.5,211.4 C260.7,211.4 262.9,211.3 265.1,211.3 C267.3,211.2 269.5,211.2 271.6,211.1 C273.8,211.1 276.0,211.0 278.2,211.0 C280.4,211.0 282.6,210.9 284.8,210.8 C287.0,210.8 289.2,210.8 291.4,210.8 C293.6,210.7 295.8,210.6 298.0,210.6 C300.1,210.6 302.3,210.6 304.5,210.6 C306.7,210.6 308.9,210.5 311.1,210.5 C313.3,210.5 315.5,210.5 317.7,210.5 C319.9,210.5 322.1,210.5 324.3,210.5 C326.5,210.5 328.7,210.5 330.8,210.5 C333.0,210.5 335.2,210.5 337.4,210.5 C339.6,210.5 341.8,210.5 344.0,210.5 C346.2,210.5 348.4,210.5 350.6,210.5 C352.8,210.5 355.0,210.5 357.2,210.5 C359.3,210.5 361.5,210.5 363.7,210.5 C365.9,210.5 368.1,210.5 370.3,210.5 C372.5,210.5 374.7,210.4 376.9,210.4 C379.1,210.3 381.3,210.3 383.5,210.3 C385.7,210.2 387.9,210.2 390.0,210.2 C392.2,210.2 394.4,210.2 396.6,210.1 C398.8,210.1 401.0,210.1 403.2,210.1 C405.4,210.1 407.6,210.0 409.8,210.0 C412.0,209.9 414.2,209.9 416.4,209.9 C418.5,209.8 420.7,209.8 422.9,209.8 C425.1,209.8 427.3,209.8 429.5,209.7 C431.7,209.7 433.9,209.7 436.1,209.7 C438.3,209.7 440.5,209.6 442.7,209.6 C444.9,209.6 447.1,209.6 449.2,209.6 C451.4,209.5 453.6,209.5 455.8,209.5 C458.0,209.5 460.2,209.5 462.4,209.5 C464.6,209.4 466.8,209.4 469.0,209.4 C471.2,209.4 473.4,209.4 475.6,209.3 C477.7,209.3 479.9,209.3 482.1,209.2 C484.3,209.2 486.5,209.2 488.7,209.2 C490.9,209.1 493.1,209.1 495.3,209.1 C497.5,209.1 499.7,209.1 501.9,209.0 C504.1,209.0 506.3,208.7 508.4,208.6 C510.6,208.6 512.8,208.6 515.0,208.6 C517.2,208.6 519.4,208.6 521.6,208.5 C523.8,208.5 526.0,208.5 528.2,208.5 C530.4,208.5 532.6,208.4 534.8,208.4 C536.9,208.4 539.1,208.4 541.3,208.4 C543.5,208.3 545.7,208.3 547.9,208.3 C550.1,208.3 552.3,208.3 554.5,208.3 C556.7,208.3 558.9,208.2 561.1,208.2 C563.3,208.2 565.5,208.2 567.6,208.1 C569.8,208.1 572.0,208.1 574.2,208.1 C576.4,208.1 578.6,208.0 580.8,208.0 C583.0,208.0 585.2,208.0 587.4,208.0 C589.6,207.9 591.8,207.9 594.0,207.9 C596.1,207.9 598.3,207.9 600.5,207.8 C602.7,207.8 604.9,207.8 607.1,207.8 C609.3,207.8 611.5,207.7 613.7,207.7 C615.9,207.7 618.1,207.7 620.3,207.7 C622.5,207.7 624.7,207.7 626.8,207.7 C629.0,207.7 631.2,207.6 633.4,207.6 C635.6,207.5 638.9,207.5 640.0,207.5" fill="none" class="line-vscode" stroke-width="1.8" stroke-linecap="round" stroke-linejoin="round"/>
  <path d="M48.0,219.8 C49.1,218.4 52.4,213.7 54.6,211.7 C56.8,209.7 59.0,209.1 61.2,207.7 C63.3,206.4 65.5,204.4 67.7,203.7 C69.9,203.0 72.1,205.0 74.3,203.5 C76.5,202.0 78.7,196.6 80.9,194.9 C83.1,193.2 85.3,200.1 87.5,193.2 C89.7,186.2 91.9,160.3 94.0,153.3 C96.2,146.3 98.4,151.7 100.6,151.3 C102.8,150.8 105.0,150.7 107.2,150.5 C109.4,150.3 111.6,150.2 113.8,150.1 C116.0,150.0 118.2,149.9 120.4,149.7 C122.5,149.5 124.7,149.1 126.9,148.7 C129.1,148.2 131.3,147.4 133.5,147.0 C135.7,146.5 137.9,146.3 140.1,146.1 C142.3,145.9 144.5,146.0 146.7,145.6 C148.9,145.2 151.1,144.1 153.2,143.6 C155.4,143.1 157.6,142.9 159.8,142.6 C162.0,142.3 164.2,142.0 166.4,141.7 C168.6,141.4 170.8,141.4 173.0,140.8 C175.2,140.2 177.4,138.7 179.6,138.0 C181.7,137.4 183.9,137.2 186.1,136.9 C188.3,136.6 190.5,136.4 192.7,136.2 C194.9,136.1 197.1,136.5 199.3,136.1 C201.5,135.7 203.7,134.4 205.9,133.8 C208.1,133.2 210.3,133.0 212.4,132.5 C214.6,132.1 216.8,131.8 219.0,131.1 C221.2,130.4 223.4,129.0 225.6,128.3 C227.8,127.6 230.0,127.3 232.2,126.9 C234.4,126.5 236.6,126.3 238.8,126.0 C240.9,125.8 243.1,125.8 245.3,125.3 C247.5,124.9 249.7,124.0 251.9,123.6 C254.1,123.1 256.3,122.8 258.5,122.5 C260.7,122.2 262.9,122.0 265.1,121.7 C267.3,121.5 269.5,121.3 271.6,121.1 C273.8,120.9 276.0,120.6 278.2,120.4 C280.4,120.3 282.6,120.3 284.8,120.2 C287.0,120.2 289.2,121.0 291.4,120.2 C293.6,119.4 295.8,116.5 298.0,115.5 C300.1,114.5 302.3,114.6 304.5,114.2 C306.7,113.7 308.9,113.3 311.1,112.8 C313.3,112.4 315.5,111.9 317.7,111.6 C319.9,111.3 322.1,111.2 324.3,111.0 C326.5,110.8 328.7,110.4 330.8,110.2 C333.0,110.0 335.2,110.1 337.4,109.7 C339.6,109.4 341.8,108.6 344.0,108.1 C346.2,107.7 348.4,107.6 350.6,107.2 C352.8,106.9 355.0,106.4 357.2,106.2 C359.3,105.9 361.5,106.0 363.7,105.7 C365.9,105.5 368.1,104.8 370.3,104.5 C372.5,104.2 374.7,104.2 376.9,104.0 C379.1,103.7 381.3,103.5 383.5,103.2 C385.7,102.9 387.9,102.5 390.0,102.2 C392.2,101.9 394.4,101.5 396.6,101.2 C398.8,100.9 401.0,100.8 403.2,100.3 C405.4,99.9 407.6,99.2 409.8,98.7 C412.0,98.3 414.2,98.1 416.4,97.7 C418.5,97.4 420.7,97.0 422.9,96.6 C425.1,96.3 427.3,95.9 429.5,95.5 C431.7,95.2 433.9,94.8 436.1,94.6 C438.3,94.3 440.5,94.2 442.7,93.8 C444.9,93.4 447.1,92.9 449.2,92.4 C451.4,91.9 453.6,91.2 455.8,90.8 C458.0,90.5 460.2,90.5 462.4,90.3 C464.6,90.1 466.8,90.0 469.0,89.8 C471.2,89.6 473.4,89.3 475.6,88.9 C477.7,88.6 479.9,88.2 482.1,87.9 C484.3,87.6 486.5,87.3 488.7,86.9 C490.9,86.6 493.1,86.2 495.3,85.8 C497.5,85.5 499.7,85.3 501.9,85.0 C504.1,84.6 506.3,84.0 508.4,83.7 C510.6,83.3 512.8,83.0 515.0,82.8 C517.2,82.6 519.4,82.6 521.6,82.4 C523.8,82.2 526.0,81.9 528.2,81.8 C530.4,81.6 532.6,81.6 534.8,81.4 C536.9,81.2 539.1,80.9 541.3,80.6 C543.5,80.4 545.7,80.0 547.9,79.8 C550.1,79.5 552.3,79.3 554.5,79.1 C556.7,78.9 558.9,78.8 561.1,78.5 C563.3,78.2 565.5,77.5 567.6,77.2 C569.8,76.9 572.0,76.8 574.2,76.6 C576.4,76.3 578.6,76.1 580.8,75.6 C583.0,75.1 585.2,74.5 587.4,73.7 C589.6,72.9 591.8,71.5 594.0,70.9 C596.1,70.3 598.3,70.4 600.5,70.1 C602.7,69.9 604.9,69.7 607.1,69.5 C609.3,69.3 611.5,69.0 613.7,68.9 C615.9,68.7 618.1,68.7 620.3,68.6 C622.5,68.4 624.7,68.2 626.8,67.9 C629.0,67.6 631.2,67.1 633.4,66.6 C635.6,66.1 638.9,65.2 640.0,65.0" fill="none" class="line-total" stroke-width="2.5" stroke-linecap="round" stroke-linejoin="round"/>

  <circle cx="640" cy="64.97066666666666" r="4.5" class="dot-total" stroke-width="2"/>
    <text x="658" y="68.97066666666666" class="end-label" font-family="-apple-system, BlinkMacSystemFont, 'Segoe UI', Helvetica, sans-serif">Total</text>
    <text x="697" y="68.97066666666666" class="end-value" font-family="-apple-system, BlinkMacSystemFont, 'Segoe UI', Helvetica, sans-serif">2.7k</text>
    <circle cx="640" cy="77.46933333333334" r="3.5" class="dot-openvsx" stroke-width="1.8"/>
    <text x="658" y="86.97066666666666" class="end-label" font-family="-apple-system, BlinkMacSystemFont, 'Segoe UI', Helvetica, sans-serif">Open VSX</text>
    <text x="716.8" y="86.97066666666666" class="end-value" font-family="-apple-system, BlinkMacSystemFont, 'Segoe UI', Helvetica, sans-serif">2.5k</text>
    <circle cx="640" cy="207.50133333333332" r="3.5" class="dot-vscode" stroke-width="1.8"/>
    <text x="658" y="211.50133333333332" class="end-label" font-family="-apple-system, BlinkMacSystemFont, 'Segoe UI', Helvetica, sans-serif">VS Code</text>
    <text x="710.2" y="211.50133333333332" class="end-value" font-family="-apple-system, BlinkMacSystemFont, 'Segoe UI', Helvetica, sans-serif">218</text>
</svg>