<svg xmlns="http://www.w3.org/2000/svg" viewBox="0 0 760 260" width="760" height="260" role="img" aria-label="Glassy install history">
  <style>
  svg { color-scheme: light dark; }
  .title      { fill: #1a1a2e; font-size: 15px; font-weight: 600; }
  .subtitle   { fill: #6b7280; font-size: 11px; font-weight: 400; }
  .grid       { stroke: #e8e8ee; }
  .axis-label { fill: #8a8a9a; font-size: 10px; }
  .line-total   { stroke: #e8553d; }
  .line-vscode  { stroke: #5b7cfa; }
  .line-openvsx { stroke: #34c7a0; }
  .dot-total   { fill: transparent; stroke: #e8553d; }
  .dot-vscode  { fill: transparent; stroke: #5b7cfa; }
  .dot-openvsx { fill: transparent; stroke: #34c7a0; }
  .end-label       { fill: #1a1a2e; font-size: 11px; font-weight: 600; }
  .end-value       { fill: #6b7280; font-size: 11px; font-weight: 400; }
  .area-total-top    { stop-color: #e8553d; }
  .area-total-bottom { stop-color: #e8553d; }

  @media (prefers-color-scheme: dark) {
    .title      { fill: #e2e2e8; }
    .subtitle   { fill: #8b949e; }
    .grid       { stroke: #2d2d3d; }
    .axis-label { fill: #6e7681; }
    .line-total   { stroke: #ff9b85; }
    .line-vscode  { stroke: #8da4ff; }
    .line-openvsx { stroke: #5eead4; }
    .dot-total   { stroke: #ff9b85; }
    .dot-vscode  { stroke: #8da4ff; }
    .dot-openvsx { stroke: #5eead4; }
    .end-label       { fill: #e2e2e8; }
    .end-value       { fill: #8b949e; }
    .area-total-top    { stop-color: #ff9b85; }
    .area-total-bottom { stop-color: #ff9b85; }
  }
</style>
  <defs>
    <linearGradient id="areaGrad" x1="0" y1="0" x2="0" y2="1">
      <stop offset="0%" class="area-total-top" stop-opacity="0.18"/>
      <stop offset="60%" class="area-total-bottom" stop-opacity="0.04"/>
      <stop offset="100%" class="area-total-bottom" stop-opacity="0"/>
    </linearGradient>
  </defs>

  <text x="48" y="22" class="title" font-family="-apple-system, BlinkMacSystemFont, 'Segoe UI', Helvetica, sans-serif">Installs</text>
  <text x="48" y="37" class="subtitle" font-family="-apple-system, BlinkMacSystemFont, 'Segoe UI', Helvetica, sans-serif">Updated Jun 3</text>

  <line x1="48" y1="220" x2="640" y2="220" class="grid" stroke-width="0.7"/>
    <text x="40" y="223.5" class="axis-label" text-anchor="end" font-family="-apple-system, BlinkMacSystemFont, 'Segoe UI', Helvetica, sans-serif">0</text>
    <line x1="48" y1="177" x2="640" y2="177" class="grid" stroke-width="0.7"/>
    <text x="40" y="180.5" class="axis-label" text-anchor="end" font-family="-apple-system, BlinkMacSystemFont, 'Segoe UI', Helvetica, sans-serif">500</text>
    <line x1="48" y1="134" x2="640" y2="134" class="grid" stroke-width="0.7"/>
    <text x="40" y="137.5" class="axis-label" text-anchor="end" font-family="-apple-system, BlinkMacSystemFont, 'Segoe UI', Helvetica, sans-serif">1k</text>
    <line x1="48" y1="91" x2="640" y2="91" class="grid" stroke-width="0.7"/>
    <text x="40" y="94.5" class="axis-label" text-anchor="end" font-family="-apple-system, BlinkMacSystemFont, 'Segoe UI', Helvetica, sans-serif">1.5k</text>
    <line x1="48" y1="48" x2="640" y2="48" class="grid" stroke-width="0.7"/>
    <text x="40" y="51.5" class="axis-label" text-anchor="end" font-family="-apple-system, BlinkMacSystemFont, 'Segoe UI', Helvetica, sans-serif">2k</text>
  <text x="48" y="248" class="axis-label" text-anchor="middle" font-family="-apple-system, BlinkMacSystemFont, 'Segoe UI', Helvetica, sans-serif">Mar 27</text>
    <text x="169.43589743589743" y="248" class="axis-label" text-anchor="middle" font-family="-apple-system, BlinkMacSystemFont, 'Segoe UI', Helvetica, sans-serif">May 3</text>
    <text x="290.87179487179486" y="248" class="axis-label" text-anchor="middle" font-family="-apple-system, BlinkMacSystemFont, 'Segoe UI', Helvetica, sans-serif">May 11</text>
    <text x="397.12820512820514" y="248" class="axis-label" text-anchor="middle" font-family="-apple-system, BlinkMacSystemFont, 'Segoe UI', Helvetica, sans-serif">May 18</text>
    <text x="518.5641025641025" y="248" class="axis-label" text-anchor="middle" font-family="-apple-system, BlinkMacSystemFont, 'Segoe UI', Helvetica, sans-serif">May 26</text>
    <text x="640" y="248" class="axis-label" text-anchor="middle" font-family="-apple-system, BlinkMacSystemFont, 'Segoe UI', Helvetica, sans-serif">Jun 3</text>

  <path d="M48.0,219.7 C50.5,217.6 58.1,210.5 63.2,207.5 C68.2,204.5 73.3,203.6 78.4,201.6 C83.4,199.6 88.5,196.6 93.5,195.6 C98.6,194.5 103.7,197.4 108.7,195.2 C113.8,193.0 118.8,184.9 123.9,182.3 C129.0,179.8 134.0,190.1 139.1,179.8 C144.1,169.4 149.2,130.5 154.3,120.0 C159.3,109.5 164.4,117.6 169.4,116.9 C174.5,116.2 179.6,116.1 184.6,115.8 C189.7,115.5 194.7,115.4 199.8,115.2 C204.9,115.0 209.9,114.9 215.0,114.6 C220.0,114.2 225.1,113.7 230.2,113.0 C235.2,112.3 240.3,111.1 245.3,110.4 C250.4,109.8 255.5,109.5 260.5,109.1 C265.6,108.8 270.6,109.1 275.7,108.5 C280.8,107.8 285.8,106.2 290.9,105.4 C295.9,104.7 301.0,104.4 306.1,103.9 C311.1,103.4 316.2,103.1 321.2,102.6 C326.3,102.2 331.4,102.2 336.4,101.2 C341.5,100.3 346.5,98.0 351.6,97.0 C356.6,96.0 361.7,95.8 366.8,95.4 C371.8,94.9 376.9,94.6 381.9,94.4 C387.0,94.1 392.1,94.7 397.1,94.1 C402.2,93.5 407.2,91.5 412.3,90.7 C417.4,89.8 422.4,89.4 427.5,88.8 C432.5,88.1 437.6,87.7 442.7,86.6 C447.7,85.6 452.8,83.4 457.8,82.4 C462.9,81.4 468.0,80.9 473.0,80.3 C478.1,79.8 483.1,79.4 488.2,79.0 C493.3,78.7 498.3,78.6 503.4,78.0 C508.4,77.4 513.5,76.1 518.6,75.3 C523.6,74.6 528.7,74.3 533.7,73.8 C538.8,73.3 543.9,73.0 548.9,72.6 C554.0,72.2 559.0,72.0 564.1,71.7 C569.2,71.3 574.2,70.8 579.3,70.6 C584.3,70.4 589.4,70.4 594.5,70.4 C599.5,70.3 604.6,71.4 609.6,70.3 C614.7,69.1 619.8,64.8 624.8,63.3 C629.9,61.8 637.5,61.6 640.0,61.2 L640.0,220.0 L48.0,220.0 Z" fill="url(#areaGrad)"/>
  <path d="M48.0,219.7 C50.5,217.7 58.1,210.6 63.2,207.8 C68.2,204.9 73.3,204.3 78.4,202.6 C83.4,200.9 88.5,198.5 93.5,197.6 C98.6,196.8 103.7,199.7 108.7,197.6 C113.8,195.6 118.8,187.7 123.9,185.3 C129.0,182.8 134.0,192.6 139.1,183.2 C144.1,173.8 149.2,138.2 154.3,128.7 C159.3,119.1 164.4,126.5 169.4,125.9 C174.5,125.3 179.6,125.3 184.6,125.1 C189.7,124.9 194.7,124.9 199.8,124.7 C204.9,124.6 209.9,124.5 215.0,124.2 C220.0,123.9 225.1,123.3 230.2,122.6 C235.2,122.0 240.3,120.6 245.3,120.1 C250.4,119.5 255.5,119.6 260.5,119.4 C265.6,119.2 270.6,119.4 275.7,118.9 C280.8,118.3 285.8,116.7 290.9,115.9 C295.9,115.2 301.0,115.0 306.1,114.6 C311.1,114.1 316.2,113.8 321.2,113.4 C326.3,112.9 331.4,112.9 336.4,112.0 C341.5,111.1 346.5,108.8 351.6,107.9 C356.6,106.9 361.7,106.7 366.8,106.3 C371.8,105.9 376.9,105.5 381.9,105.3 C387.0,105.1 392.1,105.7 397.1,105.1 C402.2,104.5 407.2,102.7 412.3,101.8 C417.4,101.0 422.4,100.7 427.5,100.1 C432.5,99.5 437.6,99.3 442.7,98.4 C447.7,97.5 452.8,95.4 457.8,94.4 C462.9,93.5 468.0,93.1 473.0,92.5 C478.1,92.0 483.1,91.7 488.2,91.3 C493.3,91.0 498.3,91.0 503.4,90.5 C508.4,89.9 513.5,88.7 518.6,88.1 C523.6,87.4 528.7,87.1 533.7,86.7 C538.8,86.3 543.9,86.0 548.9,85.7 C554.0,85.4 559.0,85.2 564.1,85.0 C569.2,84.7 574.2,84.3 579.3,84.1 C584.3,84.0 589.4,84.1 594.5,84.1 C599.5,84.1 604.6,85.2 609.6,84.1 C614.7,83.0 619.8,78.9 624.8,77.4 C629.9,76.0 637.5,75.7 640.0,75.3" fill="none" class="line-openvsx" stroke-width="1.8" stroke-linecap="round" stroke-linejoin="round"/>
  <path d="M48.0,219.9 C50.5,219.9 58.1,219.9 63.2,219.7 C68.2,219.6 73.3,219.3 78.4,219.0 C83.4,218.7 88.5,218.2 93.5,217.9 C98.6,217.7 103.7,217.7 108.7,217.6 C113.8,217.4 118.8,217.2 123.9,217.1 C129.0,216.9 134.0,217.5 139.1,216.6 C144.1,215.6 149.2,212.2 154.3,211.3 C159.3,210.4 164.4,211.1 169.4,211.0 C174.5,210.9 179.6,210.8 184.6,210.7 C189.7,210.6 194.7,210.5 199.8,210.5 C204.9,210.4 209.9,210.4 215.0,210.4 C220.0,210.4 225.1,210.4 230.2,210.4 C235.2,210.4 240.3,210.5 245.3,210.4 C250.4,210.3 255.5,209.9 260.5,209.8 C265.6,209.6 270.6,209.6 275.7,209.6 C280.8,209.6 285.8,209.6 290.9,209.5 C295.9,209.5 301.0,209.4 306.1,209.3 C311.1,209.3 316.2,209.3 321.2,209.3 C326.3,209.2 331.4,209.3 336.4,209.3 C341.5,209.2 346.5,209.2 351.6,209.2 C356.6,209.1 361.7,209.1 366.8,209.1 C371.8,209.1 376.9,209.1 381.9,209.1 C387.0,209.1 392.1,209.0 397.1,209.0 C402.2,208.9 407.2,208.9 412.3,208.8 C417.4,208.8 422.4,208.7 427.5,208.6 C432.5,208.5 437.6,208.3 442.7,208.2 C447.7,208.1 452.8,208.0 457.8,208.0 C462.9,207.9 468.0,207.8 473.0,207.8 C478.1,207.7 483.1,207.7 488.2,207.7 C493.3,207.7 498.3,207.6 503.4,207.5 C508.4,207.5 513.5,207.3 518.6,207.3 C523.6,207.2 528.7,207.2 533.7,207.1 C538.8,207.0 543.9,207.0 548.9,206.9 C554.0,206.9 559.0,206.7 564.1,206.7 C569.2,206.6 574.2,206.6 579.3,206.5 C584.3,206.4 589.4,206.3 594.5,206.2 C599.5,206.2 604.6,206.2 609.6,206.2 C614.7,206.1 619.8,205.9 624.8,205.9 C629.9,205.9 637.5,205.9 640.0,205.9" fill="none" class="line-vscode" stroke-width="1.8" stroke-linecap="round" stroke-linejoin="round"/>
  <path d="M48.0,219.7 C50.5,217.6 58.1,210.5 63.2,207.5 C68.2,204.5 73.3,203.6 78.4,201.6 C83.4,199.6 88.5,196.6 93.5,195.6 C98.6,194.5 103.7,197.4 108.7,195.2 C113.8,193.0 118.8,184.9 123.9,182.3 C129.0,179.8 134.0,190.1 139.1,179.8 C144.1,169.4 149.2,130.5 154.3,120.0 C159.3,109.5 164.4,117.6 169.4,116.9 C174.5,116.2 179.6,116.1 184.6,115.8 C189.7,115.5 194.7,115.4 199.8,115.2 C204.9,115.0 209.9,114.9 215.0,114.6 C220.0,114.2 225.1,113.7 230.2,113.0 C235.2,112.3 240.3,111.1 245.3,110.4 C250.4,109.8 255.5,109.5 260.5,109.1 C265.6,108.8 270.6,109.1 275.7,108.5 C280.8,107.8 285.8,106.2 290.9,105.4 C295.9,104.7 301.0,104.4 306.1,103.9 C311.1,103.4 316.2,103.1 321.2,102.6 C326.3,102.2 331.4,102.2 336.4,101.2 C341.5,100.3 346.5,98.0 351.6,97.0 C356.6,96.0 361.7,95.8 366.8,95.4 C371.8,94.9 376.9,94.6 381.9,94.4 C387.0,94.1 392.1,94.7 397.1,94.1 C402.2,93.5 407.2,91.5 412.3,90.7 C417.4,89.8 422.4,89.4 427.5,88.8 C432.5,88.1 437.6,87.7 442.7,86.6 C447.7,85.6 452.8,83.4 457.8,82.4 C462.9,81.4 468.0,80.9 473.0,80.3 C478.1,79.8 483.1,79.4 488.2,79.0 C493.3,78.7 498.3,78.6 503.4,78.0 C508.4,77.4 513.5,76.1 518.6,75.3 C523.6,74.6 528.7,74.3 533.7,73.8 C538.8,73.3 543.9,73.0 548.9,72.6 C554.0,72.2 559.0,72.0 564.1,71.7 C569.2,71.3 574.2,70.8 579.3,70.6 C584.3,70.4 589.4,70.4 594.5,70.4 C599.5,70.3 604.6,71.4 609.6,70.3 C614.7,69.1 619.8,64.8 624.8,63.3 C629.9,61.8 637.5,61.6 640.0,61.2" fill="none" class="line-total" stroke-width="2.5" stroke-linecap="round" stroke-linejoin="round"/>

  <circle cx="640" cy="61.244" r="4.5" class="dot-total" stroke-width="2"/>
    <text x="658" y="65.244" class="end-label" font-family="-apple-system, BlinkMacSystemFont, 'Segoe UI', Helvetica, sans-serif">Total</text>
    <text x="697" y="65.244" class="end-value" font-family="-apple-system, BlinkMacSystemFont, 'Segoe UI', Helvetica, sans-serif">1.8k</text>
    <circle cx="640" cy="75.34800000000001" r="3.5" class="dot-openvsx" stroke-width="1.8"/>
    <text x="658" y="83.244" class="end-label" font-family="-apple-system, BlinkMacSystemFont, 'Segoe UI', Helvetica, sans-serif">Open VSX</text>
    <text x="716.8" y="83.244" class="end-value" font-family="-apple-system, BlinkMacSystemFont, 'Segoe UI', Helvetica, sans-serif">1.7k</text>
    <circle cx="640" cy="205.896" r="3.5" class="dot-vscode" stroke-width="1.8"/>
    <text x="658" y="209.896" class="end-label" font-family="-apple-system, BlinkMacSystemFont, 'Segoe UI', Helvetica, sans-serif">VS Code</text>
    <text x="710.2" y="209.896" class="end-value" font-family="-apple-system, BlinkMacSystemFont, 'Segoe UI', Helvetica, sans-serif">164</text>
</svg>