<svg xmlns="http://www.w3.org/2000/svg" viewBox="0 0 760 260" width="760" height="260" role="img" aria-label="Glassy install history">
  <style>
  svg { color-scheme: light dark; }
  .title      { fill: #1a1a2e; font-size: 15px; font-weight: 600; }
  .subtitle   { fill: #6b7280; font-size: 11px; font-weight: 400; }
  .grid       { stroke: #e8e8ee; }
  .axis-label { fill: #8a8a9a; font-size: 10px; }
  .line-total   { stroke: #e8553d; }
  .line-vscode  { stroke: #5b7cfa; }
  .line-openvsx { stroke: #34c7a0; }
  .dot-total   { fill: transparent; stroke: #e8553d; }
  .dot-vscode  { fill: transparent; stroke: #5b7cfa; }
  .dot-openvsx { fill: transparent; stroke: #34c7a0; }
  .end-label       { fill: #1a1a2e; font-size: 11px; font-weight: 600; }
  .end-value       { fill: #6b7280; font-size: 11px; font-weight: 400; }
  .area-total-top    { stop-color: #e8553d; }
  .area-total-bottom { stop-color: #e8553d; }

  @media (prefers-color-scheme: dark) {
    .title      { fill: #e2e2e8; }
    .subtitle   { fill: #8b949e; }
    .grid       { stroke: #2d2d3d; }
    .axis-label { fill: #6e7681; }
    .line-total   { stroke: #ff9b85; }
    .line-vscode  { stroke: #8da4ff; }
    .line-openvsx { stroke: #5eead4; }
    .dot-total   { stroke: #ff9b85; }
    .dot-vscode  { stroke: #8da4ff; }
    .dot-openvsx { stroke: #5eead4; }
    .end-label       { fill: #e2e2e8; }
    .end-value       { fill: #8b949e; }
    .area-total-top    { stop-color: #ff9b85; }
    .area-total-bottom { stop-color: #ff9b85; }
  }
</style>
  <defs>
    <linearGradient id="areaGrad" x1="0" y1="0" x2="0" y2="1">
      <stop offset="0%" class="area-total-top" stop-opacity="0.18"/>
      <stop offset="60%" class="area-total-bottom" stop-opacity="0.04"/>
      <stop offset="100%" class="area-total-bottom" stop-opacity="0"/>
    </linearGradient>
  </defs>

  <text x="48" y="22" class="title" font-family="-apple-system, BlinkMacSystemFont, 'Segoe UI', Helvetica, sans-serif">Installs</text>
  <text x="48" y="37" class="subtitle" font-family="-apple-system, BlinkMacSystemFont, 'Segoe UI', Helvetica, sans-serif">Updated Jun 26</text>

  <line x1="48" y1="220" x2="640" y2="220" class="grid" stroke-width="0.7"/>
    <text x="40" y="223.5" class="axis-label" text-anchor="end" font-family="-apple-system, BlinkMacSystemFont, 'Segoe UI', Helvetica, sans-serif">0</text>
    <line x1="48" y1="162.66666666666669" x2="640" y2="162.66666666666669" class="grid" stroke-width="0.7"/>
    <text x="40" y="166.16666666666669" class="axis-label" text-anchor="end" font-family="-apple-system, BlinkMacSystemFont, 'Segoe UI', Helvetica, sans-serif">1k</text>
    <line x1="48" y1="105.33333333333334" x2="640" y2="105.33333333333334" class="grid" stroke-width="0.7"/>
    <text x="40" y="108.83333333333334" class="axis-label" text-anchor="end" font-family="-apple-system, BlinkMacSystemFont, 'Segoe UI', Helvetica, sans-serif">2k</text>
    <line x1="48" y1="48" x2="640" y2="48" class="grid" stroke-width="0.7"/>
    <text x="40" y="51.5" class="axis-label" text-anchor="end" font-family="-apple-system, BlinkMacSystemFont, 'Segoe UI', Helvetica, sans-serif">3k</text>
  <text x="48" y="248" class="axis-label" text-anchor="middle" font-family="-apple-system, BlinkMacSystemFont, 'Segoe UI', Helvetica, sans-serif">Mar 27</text>
    <text x="162.5806451612903" y="248" class="axis-label" text-anchor="middle" font-family="-apple-system, BlinkMacSystemFont, 'Segoe UI', Helvetica, sans-serif">May 7</text>
    <text x="286.7096774193548" y="248" class="axis-label" text-anchor="middle" font-family="-apple-system, BlinkMacSystemFont, 'Segoe UI', Helvetica, sans-serif">May 20</text>
    <text x="401.2903225806452" y="248" class="axis-label" text-anchor="middle" font-family="-apple-system, BlinkMacSystemFont, 'Segoe UI', Helvetica, sans-serif">Jun 1</text>
    <text x="525.4193548387096" y="248" class="axis-label" text-anchor="middle" font-family="-apple-system, BlinkMacSystemFont, 'Segoe UI', Helvetica, sans-serif">Jun 14</text>
    <text x="640" y="248" class="axis-label" text-anchor="middle" font-family="-apple-system, BlinkMacSystemFont, 'Segoe UI', Helvetica, sans-serif">Jun 26</text>

  <path d="M48.0,219.8 C49.6,218.4 54.4,213.7 57.5,211.7 C60.7,209.7 63.9,209.1 67.1,207.7 C70.3,206.4 73.5,204.4 76.6,203.7 C79.8,203.0 83.0,205.0 86.2,203.5 C89.4,202.0 92.6,196.6 95.7,194.9 C98.9,193.2 102.1,200.1 105.3,193.2 C108.5,186.2 111.7,160.3 114.8,153.3 C118.0,146.3 121.2,151.7 124.4,151.3 C127.6,150.8 130.8,150.7 133.9,150.5 C137.1,150.3 140.3,150.2 143.5,150.1 C146.7,150.0 149.8,149.9 153.0,149.7 C156.2,149.5 159.4,149.1 162.6,148.7 C165.8,148.2 168.9,147.4 172.1,147.0 C175.3,146.5 178.5,146.3 181.7,146.1 C184.9,145.9 188.0,146.0 191.2,145.6 C194.4,145.2 197.6,144.1 200.8,143.6 C204.0,143.1 207.1,142.9 210.3,142.6 C213.5,142.3 216.7,142.0 219.9,141.7 C223.1,141.4 226.2,141.4 229.4,140.8 C232.6,140.2 235.8,138.7 239.0,138.0 C242.2,137.4 245.3,137.2 248.5,136.9 C251.7,136.6 254.9,136.4 258.1,136.2 C261.2,136.1 264.4,136.5 267.6,136.1 C270.8,135.7 274.0,134.4 277.2,133.8 C280.3,133.2 283.5,133.0 286.7,132.5 C289.9,132.1 293.1,131.8 296.3,131.1 C299.4,130.4 302.6,129.0 305.8,128.3 C309.0,127.6 312.2,127.3 315.4,126.9 C318.5,126.5 321.7,126.3 324.9,126.0 C328.1,125.8 331.3,125.8 334.5,125.3 C337.6,124.9 340.8,124.0 344.0,123.6 C347.2,123.1 350.4,122.8 353.5,122.5 C356.7,122.2 359.9,122.0 363.1,121.7 C366.3,121.5 369.5,121.3 372.6,121.1 C375.8,120.9 379.0,120.6 382.2,120.4 C385.4,120.3 388.6,120.3 391.7,120.2 C394.9,120.2 398.1,121.0 401.3,120.2 C404.5,119.4 407.7,116.5 410.8,115.5 C414.0,114.5 417.2,114.6 420.4,114.2 C423.6,113.7 426.8,113.3 429.9,112.8 C433.1,112.4 436.3,111.9 439.5,111.6 C442.7,111.3 445.8,111.2 449.0,111.0 C452.2,110.8 455.4,110.4 458.6,110.2 C461.8,110.0 464.9,110.1 468.1,109.7 C471.3,109.4 474.5,108.6 477.7,108.1 C480.9,107.7 484.0,107.6 487.2,107.2 C490.4,106.9 493.6,106.4 496.8,106.2 C500.0,105.9 503.1,106.0 506.3,105.7 C509.5,105.5 512.7,104.8 515.9,104.5 C519.1,104.2 522.2,104.2 525.4,104.0 C528.6,103.7 531.8,103.5 535.0,103.2 C538.2,102.9 541.3,102.5 544.5,102.2 C547.7,101.9 550.9,101.5 554.1,101.2 C557.2,100.9 560.4,100.8 563.6,100.3 C566.8,99.9 570.0,99.2 573.2,98.7 C576.3,98.3 579.5,98.1 582.7,97.7 C585.9,97.4 589.1,97.0 592.3,96.6 C595.4,96.3 598.6,95.9 601.8,95.5 C605.0,95.2 608.2,94.8 611.4,94.6 C614.5,94.3 617.7,94.2 620.9,93.8 C624.1,93.4 627.3,92.9 630.5,92.4 C633.6,91.9 638.4,91.1 640.0,90.8 L640.0,220.0 L48.0,220.0 Z" fill="url(#areaGrad)"/>
  <path d="M48.0,219.8 C49.6,218.5 54.4,213.8 57.5,211.9 C60.7,210.0 63.9,209.5 67.1,208.4 C70.3,207.3 73.5,205.6 76.6,205.1 C79.8,204.5 83.0,206.5 86.2,205.1 C89.4,203.7 92.6,198.4 95.7,196.8 C98.9,195.2 102.1,201.7 105.3,195.5 C108.5,189.2 111.7,165.5 114.8,159.1 C118.0,152.7 121.2,157.7 124.4,157.3 C127.6,156.9 130.8,156.8 133.9,156.7 C137.1,156.6 140.3,156.6 143.5,156.5 C146.7,156.4 149.8,156.4 153.0,156.1 C156.2,155.9 159.4,155.6 162.6,155.1 C165.8,154.6 168.9,153.7 172.1,153.4 C175.3,153.0 178.5,153.1 181.7,152.9 C184.9,152.8 188.0,153.0 191.2,152.6 C194.4,152.2 197.6,151.1 200.8,150.6 C204.0,150.1 207.1,150.0 210.3,149.7 C213.5,149.4 216.7,149.2 219.9,148.9 C223.1,148.6 226.2,148.6 229.4,148.0 C232.6,147.4 235.8,145.9 239.0,145.2 C242.2,144.6 245.3,144.5 248.5,144.2 C251.7,143.9 254.9,143.7 258.1,143.5 C261.2,143.4 264.4,143.8 267.6,143.4 C270.8,143.0 274.0,141.8 277.2,141.2 C280.3,140.7 283.5,140.5 286.7,140.1 C289.9,139.7 293.1,139.6 296.3,138.9 C299.4,138.3 302.6,136.9 305.8,136.3 C309.0,135.6 312.2,135.4 315.4,135.0 C318.5,134.7 321.7,134.5 324.9,134.2 C328.1,134.0 331.3,134.0 334.5,133.7 C337.6,133.3 340.8,132.5 344.0,132.1 C347.2,131.6 350.4,131.4 353.5,131.1 C356.7,130.9 359.9,130.6 363.1,130.4 C366.3,130.3 369.5,130.2 372.6,130.0 C375.8,129.8 379.0,129.5 382.2,129.4 C385.4,129.3 388.6,129.4 391.7,129.4 C394.9,129.4 398.1,130.2 401.3,129.4 C404.5,128.7 407.7,125.9 410.8,124.9 C414.0,124.0 417.2,124.0 420.4,123.6 C423.6,123.1 426.8,122.7 429.9,122.3 C433.1,121.9 436.3,121.3 439.5,121.0 C442.7,120.7 445.8,120.7 449.0,120.5 C452.2,120.2 455.4,119.9 458.6,119.7 C461.8,119.5 464.9,119.6 468.1,119.2 C471.3,118.9 474.5,118.0 477.7,117.6 C480.9,117.2 484.0,117.0 487.2,116.7 C490.4,116.4 493.6,115.9 496.8,115.7 C500.0,115.4 503.1,115.5 506.3,115.2 C509.5,114.9 512.7,114.3 515.9,114.0 C519.1,113.8 522.2,113.8 525.4,113.6 C528.6,113.4 531.8,113.2 535.0,112.9 C538.2,112.6 541.3,112.3 544.5,112.0 C547.7,111.7 550.9,111.4 554.1,111.1 C557.2,110.8 560.4,110.6 563.6,110.3 C566.8,109.9 570.0,109.2 573.2,108.8 C576.3,108.4 579.5,108.2 582.7,107.9 C585.9,107.5 589.1,107.2 592.3,106.8 C595.4,106.5 598.6,106.1 601.8,105.8 C605.0,105.5 608.2,105.1 611.4,104.9 C614.5,104.6 617.7,104.5 620.9,104.2 C624.1,103.8 627.3,103.3 630.5,102.8 C633.6,102.3 638.4,101.6 640.0,101.3" fill="none" class="line-openvsx" stroke-width="1.8" stroke-linecap="round" stroke-linejoin="round"/>
  <path d="M48.0,219.9 C49.6,219.9 54.4,219.9 57.5,219.8 C60.7,219.7 63.9,219.5 67.1,219.3 C70.3,219.1 73.5,218.8 76.6,218.6 C79.8,218.5 83.0,218.5 86.2,218.4 C89.4,218.3 92.6,218.2 95.7,218.1 C98.9,217.9 102.1,218.3 105.3,217.7 C108.5,217.1 111.7,214.8 114.8,214.2 C118.0,213.6 121.2,214.0 124.4,214.0 C127.6,213.9 130.8,213.9 133.9,213.8 C137.1,213.8 140.3,213.7 143.5,213.6 C146.7,213.6 149.8,213.6 153.0,213.6 C156.2,213.6 159.4,213.6 162.6,213.6 C165.8,213.6 168.9,213.6 172.1,213.6 C175.3,213.5 178.5,213.3 181.7,213.2 C184.9,213.1 188.0,213.1 191.2,213.1 C194.4,213.0 197.6,213.0 200.8,213.0 C204.0,213.0 207.1,212.9 210.3,212.9 C213.5,212.9 216.7,212.8 219.9,212.8 C223.1,212.8 226.2,212.8 229.4,212.8 C232.6,212.8 235.8,212.8 239.0,212.8 C242.2,212.8 245.3,212.7 248.5,212.7 C251.7,212.7 254.9,212.7 258.1,212.7 C261.2,212.7 264.4,212.7 267.6,212.7 C270.8,212.6 274.0,212.6 277.2,212.5 C280.3,212.5 283.5,212.5 286.7,212.4 C289.9,212.4 293.1,212.2 296.3,212.1 C299.4,212.1 302.6,212.0 305.8,212.0 C309.0,211.9 312.2,211.9 315.4,211.9 C318.5,211.8 321.7,211.8 324.9,211.8 C328.1,211.8 331.3,211.7 334.5,211.7 C337.6,211.6 340.8,211.6 344.0,211.5 C347.2,211.5 350.4,211.4 353.5,211.4 C356.7,211.4 359.9,211.3 363.1,211.3 C366.3,211.2 369.5,211.2 372.6,211.1 C375.8,211.1 379.0,211.0 382.2,211.0 C385.4,211.0 388.6,210.9 391.7,210.8 C394.9,210.8 398.1,210.8 401.3,210.8 C404.5,210.7 407.7,210.6 410.8,210.6 C414.0,210.6 417.2,210.6 420.4,210.6 C423.6,210.6 426.8,210.5 429.9,210.5 C433.1,210.5 436.3,210.5 439.5,210.5 C442.7,210.5 445.8,210.5 449.0,210.5 C452.2,210.5 455.4,210.5 458.6,210.5 C461.8,210.5 464.9,210.5 468.1,210.5 C471.3,210.5 474.5,210.5 477.7,210.5 C480.9,210.5 484.0,210.5 487.2,210.5 C490.4,210.5 493.6,210.5 496.8,210.5 C500.0,210.5 503.1,210.5 506.3,210.5 C509.5,210.5 512.7,210.5 515.9,210.5 C519.1,210.5 522.2,210.4 525.4,210.4 C528.6,210.3 531.8,210.3 535.0,210.3 C538.2,210.2 541.3,210.2 544.5,210.2 C547.7,210.2 550.9,210.2 554.1,210.1 C557.2,210.1 560.4,210.1 563.6,210.1 C566.8,210.1 570.0,210.0 573.2,210.0 C576.3,209.9 579.5,209.9 582.7,209.9 C585.9,209.8 589.1,209.8 592.3,209.8 C595.4,209.8 598.6,209.8 601.8,209.7 C605.0,209.7 608.2,209.7 611.4,209.7 C614.5,209.7 617.7,209.6 620.9,209.6 C624.1,209.6 627.3,209.6 630.5,209.6 C633.6,209.5 638.4,209.5 640.0,209.5" fill="none" class="line-vscode" stroke-width="1.8" stroke-linecap="round" stroke-linejoin="round"/>
  <path d="M48.0,219.8 C49.6,218.4 54.4,213.7 57.5,211.7 C60.7,209.7 63.9,209.1 67.1,207.7 C70.3,206.4 73.5,204.4 76.6,203.7 C79.8,203.0 83.0,205.0 86.2,203.5 C89.4,202.0 92.6,196.6 95.7,194.9 C98.9,193.2 102.1,200.1 105.3,193.2 C108.5,186.2 111.7,160.3 114.8,153.3 C118.0,146.3 121.2,151.7 124.4,151.3 C127.6,150.8 130.8,150.7 133.9,150.5 C137.1,150.3 140.3,150.2 143.5,150.1 C146.7,150.0 149.8,149.9 153.0,149.7 C156.2,149.5 159.4,149.1 162.6,148.7 C165.8,148.2 168.9,147.4 172.1,147.0 C175.3,146.5 178.5,146.3 181.7,146.1 C184.9,145.9 188.0,146.0 191.2,145.6 C194.4,145.2 197.6,144.1 200.8,143.6 C204.0,143.1 207.1,142.9 210.3,142.6 C213.5,142.3 216.7,142.0 219.9,141.7 C223.1,141.4 226.2,141.4 229.4,140.8 C232.6,140.2 235.8,138.7 239.0,138.0 C242.2,137.4 245.3,137.2 248.5,136.9 C251.7,136.6 254.9,136.4 258.1,136.2 C261.2,136.1 264.4,136.5 267.6,136.1 C270.8,135.7 274.0,134.4 277.2,133.8 C280.3,133.2 283.5,133.0 286.7,132.5 C289.9,132.1 293.1,131.8 296.3,131.1 C299.4,130.4 302.6,129.0 305.8,128.3 C309.0,127.6 312.2,127.3 315.4,126.9 C318.5,126.5 321.7,126.3 324.9,126.0 C328.1,125.8 331.3,125.8 334.5,125.3 C337.6,124.9 340.8,124.0 344.0,123.6 C347.2,123.1 350.4,122.8 353.5,122.5 C356.7,122.2 359.9,122.0 363.1,121.7 C366.3,121.5 369.5,121.3 372.6,121.1 C375.8,120.9 379.0,120.6 382.2,120.4 C385.4,120.3 388.6,120.3 391.7,120.2 C394.9,120.2 398.1,121.0 401.3,120.2 C404.5,119.4 407.7,116.5 410.8,115.5 C414.0,114.5 417.2,114.6 420.4,114.2 C423.6,113.7 426.8,113.3 429.9,112.8 C433.1,112.4 436.3,111.9 439.5,111.6 C442.7,111.3 445.8,111.2 449.0,111.0 C452.2,110.8 455.4,110.4 458.6,110.2 C461.8,110.0 464.9,110.1 468.1,109.7 C471.3,109.4 474.5,108.6 477.7,108.1 C480.9,107.7 484.0,107.6 487.2,107.2 C490.4,106.9 493.6,106.4 496.8,106.2 C500.0,105.9 503.1,106.0 506.3,105.7 C509.5,105.5 512.7,104.8 515.9,104.5 C519.1,104.2 522.2,104.2 525.4,104.0 C528.6,103.7 531.8,103.5 535.0,103.2 C538.2,102.9 541.3,102.5 544.5,102.2 C547.7,101.9 550.9,101.5 554.1,101.2 C557.2,100.9 560.4,100.8 563.6,100.3 C566.8,99.9 570.0,99.2 573.2,98.7 C576.3,98.3 579.5,98.1 582.7,97.7 C585.9,97.4 589.1,97.0 592.3,96.6 C595.4,96.3 598.6,95.9 601.8,95.5 C605.0,95.2 608.2,94.8 611.4,94.6 C614.5,94.3 617.7,94.2 620.9,93.8 C624.1,93.4 627.3,92.9 630.5,92.4 C633.6,91.9 638.4,91.1 640.0,90.8" fill="none" class="line-total" stroke-width="2.5" stroke-linecap="round" stroke-linejoin="round"/>

  <circle cx="640" cy="90.828" r="4.5" class="dot-total" stroke-width="2"/>
    <text x="658" y="94.828" class="end-label" font-family="-apple-system, BlinkMacSystemFont, 'Segoe UI', Helvetica, sans-serif">Total</text>
    <text x="697" y="94.828" class="end-value" font-family="-apple-system, BlinkMacSystemFont, 'Segoe UI', Helvetica, sans-serif">2.3k</text>
    <circle cx="640" cy="101.32000000000001" r="3.5" class="dot-openvsx" stroke-width="1.8"/>
    <text x="658" y="112.828" class="end-label" font-family="-apple-system, BlinkMacSystemFont, 'Segoe UI', Helvetica, sans-serif">Open VSX</text>
    <text x="716.8" y="112.828" class="end-value" font-family="-apple-system, BlinkMacSystemFont, 'Segoe UI', Helvetica, sans-serif">2.1k</text>
    <circle cx="640" cy="209.508" r="3.5" class="dot-vscode" stroke-width="1.8"/>
    <text x="658" y="213.508" class="end-label" font-family="-apple-system, BlinkMacSystemFont, 'Segoe UI', Helvetica, sans-serif">VS Code</text>
    <text x="710.2" y="213.508" class="end-value" font-family="-apple-system, BlinkMacSystemFont, 'Segoe UI', Helvetica, sans-serif">183</text>
</svg>