<svg xmlns="http://www.w3.org/2000/svg" viewBox="0 0 760 260" width="760" height="260" role="img" aria-label="Glassy install history">
  <style>
  svg { color-scheme: light dark; }
  .title      { fill: #1a1a2e; font-size: 15px; font-weight: 600; }
  .subtitle   { fill: #6b7280; font-size: 11px; font-weight: 400; }
  .grid       { stroke: #e8e8ee; }
  .axis-label { fill: #8a8a9a; font-size: 10px; }
  .line-total   { stroke: #e8553d; }
  .line-vscode  { stroke: #5b7cfa; }
  .line-openvsx { stroke: #34c7a0; }
  .dot-total   { fill: transparent; stroke: #e8553d; }
  .dot-vscode  { fill: transparent; stroke: #5b7cfa; }
  .dot-openvsx { fill: transparent; stroke: #34c7a0; }
  .end-label       { fill: #1a1a2e; font-size: 11px; font-weight: 600; }
  .end-value       { fill: #6b7280; font-size: 11px; font-weight: 400; }
  .area-total-top    { stop-color: #e8553d; }
  .area-total-bottom { stop-color: #e8553d; }

  @media (prefers-color-scheme: dark) {
    .title      { fill: #e2e2e8; }
    .subtitle   { fill: #8b949e; }
    .grid       { stroke: #2d2d3d; }
    .axis-label { fill: #6e7681; }
    .line-total   { stroke: #ff9b85; }
    .line-vscode  { stroke: #8da4ff; }
    .line-openvsx { stroke: #5eead4; }
    .dot-total   { stroke: #ff9b85; }
    .dot-vscode  { stroke: #8da4ff; }
    .dot-openvsx { stroke: #5eead4; }
    .end-label       { fill: #e2e2e8; }
    .end-value       { fill: #8b949e; }
    .area-total-top    { stop-color: #ff9b85; }
    .area-total-bottom { stop-color: #ff9b85; }
  }
</style>
  <defs>
    <linearGradient id="areaGrad" x1="0" y1="0" x2="0" y2="1">
      <stop offset="0%" class="area-total-top" stop-opacity="0.18"/>
      <stop offset="60%" class="area-total-bottom" stop-opacity="0.04"/>
      <stop offset="100%" class="area-total-bottom" stop-opacity="0"/>
    </linearGradient>
  </defs>

  <text x="48" y="22" class="title" font-family="-apple-system, BlinkMacSystemFont, 'Segoe UI', Helvetica, sans-serif">Installs</text>
  <text x="48" y="37" class="subtitle" font-family="-apple-system, BlinkMacSystemFont, 'Segoe UI', Helvetica, sans-serif">Updated May 31</text>

  <line x1="48" y1="220" x2="640" y2="220" class="grid" stroke-width="0.7"/>
    <text x="40" y="223.5" class="axis-label" text-anchor="end" font-family="-apple-system, BlinkMacSystemFont, 'Segoe UI', Helvetica, sans-serif">0</text>
    <line x1="48" y1="177" x2="640" y2="177" class="grid" stroke-width="0.7"/>
    <text x="40" y="180.5" class="axis-label" text-anchor="end" font-family="-apple-system, BlinkMacSystemFont, 'Segoe UI', Helvetica, sans-serif">500</text>
    <line x1="48" y1="134" x2="640" y2="134" class="grid" stroke-width="0.7"/>
    <text x="40" y="137.5" class="axis-label" text-anchor="end" font-family="-apple-system, BlinkMacSystemFont, 'Segoe UI', Helvetica, sans-serif">1k</text>
    <line x1="48" y1="91" x2="640" y2="91" class="grid" stroke-width="0.7"/>
    <text x="40" y="94.5" class="axis-label" text-anchor="end" font-family="-apple-system, BlinkMacSystemFont, 'Segoe UI', Helvetica, sans-serif">1.5k</text>
    <line x1="48" y1="48" x2="640" y2="48" class="grid" stroke-width="0.7"/>
    <text x="40" y="51.5" class="axis-label" text-anchor="end" font-family="-apple-system, BlinkMacSystemFont, 'Segoe UI', Helvetica, sans-serif">2k</text>
  <text x="48" y="248" class="axis-label" text-anchor="middle" font-family="-apple-system, BlinkMacSystemFont, 'Segoe UI', Helvetica, sans-serif">Mar 27</text>
    <text x="163.11111111111111" y="248" class="axis-label" text-anchor="middle" font-family="-apple-system, BlinkMacSystemFont, 'Segoe UI', Helvetica, sans-serif">Apr 30</text>
    <text x="278.22222222222223" y="248" class="axis-label" text-anchor="middle" font-family="-apple-system, BlinkMacSystemFont, 'Segoe UI', Helvetica, sans-serif">May 9</text>
    <text x="409.7777777777778" y="248" class="axis-label" text-anchor="middle" font-family="-apple-system, BlinkMacSystemFont, 'Segoe UI', Helvetica, sans-serif">May 17</text>
    <text x="524.8888888888889" y="248" class="axis-label" text-anchor="middle" font-family="-apple-system, BlinkMacSystemFont, 'Segoe UI', Helvetica, sans-serif">May 24</text>
    <text x="640" y="248" class="axis-label" text-anchor="middle" font-family="-apple-system, BlinkMacSystemFont, 'Segoe UI', Helvetica, sans-serif">May 31</text>

  <path d="M48.0,219.7 C50.7,217.6 59.0,210.5 64.4,207.5 C69.9,204.5 75.4,203.6 80.9,201.6 C86.4,199.6 91.9,196.6 97.3,195.6 C102.8,194.5 108.3,197.4 113.8,195.2 C119.3,193.0 124.7,184.9 130.2,182.3 C135.7,179.8 141.2,190.1 146.7,179.8 C152.1,169.4 157.6,130.5 163.1,120.0 C168.6,109.5 174.1,117.6 179.6,116.9 C185.0,116.2 190.5,116.1 196.0,115.8 C201.5,115.5 207.0,115.4 212.4,115.2 C217.9,115.0 223.4,114.9 228.9,114.6 C234.4,114.2 239.9,113.7 245.3,113.0 C250.8,112.3 256.3,111.1 261.8,110.4 C267.3,109.8 272.7,109.5 278.2,109.1 C283.7,108.8 289.2,109.1 294.7,108.5 C300.1,107.8 305.6,106.2 311.1,105.4 C316.6,104.7 322.1,104.4 327.6,103.9 C333.0,103.4 338.5,103.1 344.0,102.6 C349.5,102.2 355.0,102.2 360.4,101.2 C365.9,100.3 371.4,98.0 376.9,97.0 C382.4,96.0 387.9,95.8 393.3,95.4 C398.8,94.9 404.3,94.6 409.8,94.4 C415.3,94.1 420.7,94.7 426.2,94.1 C431.7,93.5 437.2,91.5 442.7,90.7 C448.1,89.8 453.6,89.4 459.1,88.8 C464.6,88.1 470.1,87.7 475.6,86.6 C481.0,85.6 486.5,83.4 492.0,82.4 C497.5,81.4 503.0,80.9 508.4,80.3 C513.9,79.8 519.4,79.4 524.9,79.0 C530.4,78.7 535.9,78.6 541.3,78.0 C546.8,77.4 552.3,76.1 557.8,75.3 C563.3,74.6 568.7,74.3 574.2,73.8 C579.7,73.3 585.2,73.0 590.7,72.6 C596.1,72.2 601.6,72.0 607.1,71.7 C612.6,71.3 618.1,70.8 623.6,70.6 C629.0,70.4 637.3,70.4 640.0,70.4 L640.0,220.0 L48.0,220.0 Z" fill="url(#areaGrad)"/>
  <path d="M48.0,219.7 C50.7,217.7 59.0,210.6 64.4,207.8 C69.9,204.9 75.4,204.3 80.9,202.6 C86.4,200.9 91.9,198.5 97.3,197.6 C102.8,196.8 108.3,199.7 113.8,197.6 C119.3,195.6 124.7,187.7 130.2,185.3 C135.7,182.8 141.2,192.6 146.7,183.2 C152.1,173.8 157.6,138.2 163.1,128.7 C168.6,119.1 174.1,126.5 179.6,125.9 C185.0,125.3 190.5,125.3 196.0,125.1 C201.5,124.9 207.0,124.9 212.4,124.7 C217.9,124.6 223.4,124.5 228.9,124.2 C234.4,123.9 239.9,123.3 245.3,122.6 C250.8,122.0 256.3,120.6 261.8,120.1 C267.3,119.5 272.7,119.6 278.2,119.4 C283.7,119.2 289.2,119.4 294.7,118.9 C300.1,118.3 305.6,116.7 311.1,115.9 C316.6,115.2 322.1,115.0 327.6,114.6 C333.0,114.1 338.5,113.8 344.0,113.4 C349.5,112.9 355.0,112.9 360.4,112.0 C365.9,111.1 371.4,108.8 376.9,107.9 C382.4,106.9 387.9,106.7 393.3,106.3 C398.8,105.9 404.3,105.5 409.8,105.3 C415.3,105.1 420.7,105.7 426.2,105.1 C431.7,104.5 437.2,102.7 442.7,101.8 C448.1,101.0 453.6,100.7 459.1,100.1 C464.6,99.5 470.1,99.3 475.6,98.4 C481.0,97.5 486.5,95.4 492.0,94.4 C497.5,93.5 503.0,93.1 508.4,92.5 C513.9,92.0 519.4,91.7 524.9,91.3 C530.4,91.0 535.9,91.0 541.3,90.5 C546.8,89.9 552.3,88.7 557.8,88.1 C563.3,87.4 568.7,87.1 574.2,86.7 C579.7,86.3 585.2,86.0 590.7,85.7 C596.1,85.4 601.6,85.2 607.1,85.0 C612.6,84.7 618.1,84.3 623.6,84.1 C629.0,84.0 637.3,84.1 640.0,84.1" fill="none" class="line-openvsx" stroke-width="1.8" stroke-linecap="round" stroke-linejoin="round"/>
  <path d="M48.0,219.9 C50.7,219.9 59.0,219.9 64.4,219.7 C69.9,219.6 75.4,219.3 80.9,219.0 C86.4,218.7 91.9,218.2 97.3,217.9 C102.8,217.7 108.3,217.7 113.8,217.6 C119.3,217.4 124.7,217.2 130.2,217.1 C135.7,216.9 141.2,217.5 146.7,216.6 C152.1,215.6 157.6,212.2 163.1,211.3 C168.6,210.4 174.1,211.1 179.6,211.0 C185.0,210.9 190.5,210.8 196.0,210.7 C201.5,210.6 207.0,210.5 212.4,210.5 C217.9,210.4 223.4,210.4 228.9,210.4 C234.4,210.4 239.9,210.4 245.3,210.4 C250.8,210.4 256.3,210.5 261.8,210.4 C267.3,210.3 272.7,209.9 278.2,209.8 C283.7,209.6 289.2,209.6 294.7,209.6 C300.1,209.6 305.6,209.6 311.1,209.5 C316.6,209.5 322.1,209.4 327.6,209.3 C333.0,209.3 338.5,209.3 344.0,209.3 C349.5,209.2 355.0,209.3 360.4,209.3 C365.9,209.2 371.4,209.2 376.9,209.2 C382.4,209.1 387.9,209.1 393.3,209.1 C398.8,209.1 404.3,209.1 409.8,209.1 C415.3,209.1 420.7,209.0 426.2,209.0 C431.7,208.9 437.2,208.9 442.7,208.8 C448.1,208.8 453.6,208.7 459.1,208.6 C464.6,208.5 470.1,208.3 475.6,208.2 C481.0,208.1 486.5,208.0 492.0,208.0 C497.5,207.9 503.0,207.8 508.4,207.8 C513.9,207.7 519.4,207.7 524.9,207.7 C530.4,207.7 535.9,207.6 541.3,207.5 C546.8,207.5 552.3,207.3 557.8,207.3 C563.3,207.2 568.7,207.2 574.2,207.1 C579.7,207.0 585.2,207.0 590.7,206.9 C596.1,206.9 601.6,206.7 607.1,206.7 C612.6,206.6 618.1,206.6 623.6,206.5 C629.0,206.4 637.3,206.3 640.0,206.2" fill="none" class="line-vscode" stroke-width="1.8" stroke-linecap="round" stroke-linejoin="round"/>
  <path d="M48.0,219.7 C50.7,217.6 59.0,210.5 64.4,207.5 C69.9,204.5 75.4,203.6 80.9,201.6 C86.4,199.6 91.9,196.6 97.3,195.6 C102.8,194.5 108.3,197.4 113.8,195.2 C119.3,193.0 124.7,184.9 130.2,182.3 C135.7,179.8 141.2,190.1 146.7,179.8 C152.1,169.4 157.6,130.5 163.1,120.0 C168.6,109.5 174.1,117.6 179.6,116.9 C185.0,116.2 190.5,116.1 196.0,115.8 C201.5,115.5 207.0,115.4 212.4,115.2 C217.9,115.0 223.4,114.9 228.9,114.6 C234.4,114.2 239.9,113.7 245.3,113.0 C250.8,112.3 256.3,111.1 261.8,110.4 C267.3,109.8 272.7,109.5 278.2,109.1 C283.7,108.8 289.2,109.1 294.7,108.5 C300.1,107.8 305.6,106.2 311.1,105.4 C316.6,104.7 322.1,104.4 327.6,103.9 C333.0,103.4 338.5,103.1 344.0,102.6 C349.5,102.2 355.0,102.2 360.4,101.2 C365.9,100.3 371.4,98.0 376.9,97.0 C382.4,96.0 387.9,95.8 393.3,95.4 C398.8,94.9 404.3,94.6 409.8,94.4 C415.3,94.1 420.7,94.7 426.2,94.1 C431.7,93.5 437.2,91.5 442.7,90.7 C448.1,89.8 453.6,89.4 459.1,88.8 C464.6,88.1 470.1,87.7 475.6,86.6 C481.0,85.6 486.5,83.4 492.0,82.4 C497.5,81.4 503.0,80.9 508.4,80.3 C513.9,79.8 519.4,79.4 524.9,79.0 C530.4,78.7 535.9,78.6 541.3,78.0 C546.8,77.4 552.3,76.1 557.8,75.3 C563.3,74.6 568.7,74.3 574.2,73.8 C579.7,73.3 585.2,73.0 590.7,72.6 C596.1,72.2 601.6,72.0 607.1,71.7 C612.6,71.3 618.1,70.8 623.6,70.6 C629.0,70.4 637.3,70.4 640.0,70.4" fill="none" class="line-total" stroke-width="2.5" stroke-linecap="round" stroke-linejoin="round"/>

  <circle cx="640" cy="70.36000000000001" r="4.5" class="dot-total" stroke-width="2"/>
    <text x="658" y="74.36000000000001" class="end-label" font-family="-apple-system, BlinkMacSystemFont, 'Segoe UI', Helvetica, sans-serif">Total</text>
    <text x="697" y="74.36000000000001" class="end-value" font-family="-apple-system, BlinkMacSystemFont, 'Segoe UI', Helvetica, sans-serif">1.7k</text>
    <circle cx="640" cy="84.12" r="3.5" class="dot-openvsx" stroke-width="1.8"/>
    <text x="658" y="92.36000000000001" class="end-label" font-family="-apple-system, BlinkMacSystemFont, 'Segoe UI', Helvetica, sans-serif">Open VSX</text>
    <text x="716.8" y="92.36000000000001" class="end-value" font-family="-apple-system, BlinkMacSystemFont, 'Segoe UI', Helvetica, sans-serif">1.6k</text>
    <circle cx="640" cy="206.24" r="3.5" class="dot-vscode" stroke-width="1.8"/>
    <text x="658" y="210.24" class="end-label" font-family="-apple-system, BlinkMacSystemFont, 'Segoe UI', Helvetica, sans-serif">VS Code</text>
    <text x="710.2" y="210.24" class="end-value" font-family="-apple-system, BlinkMacSystemFont, 'Segoe UI', Helvetica, sans-serif">160</text>
</svg>