<svg xmlns="http://www.w3.org/2000/svg" viewBox="0 0 760 260" width="760" height="260" role="img" aria-label="Glassy install history">
  <style>
  svg { color-scheme: light dark; }
  .title      { fill: #1a1a2e; font-size: 15px; font-weight: 600; }
  .subtitle   { fill: #6b7280; font-size: 11px; font-weight: 400; }
  .grid       { stroke: #e8e8ee; }
  .axis-label { fill: #8a8a9a; font-size: 10px; }
  .line-total   { stroke: #e8553d; }
  .line-vscode  { stroke: #5b7cfa; }
  .line-openvsx { stroke: #34c7a0; }
  .dot-total   { fill: transparent; stroke: #e8553d; }
  .dot-vscode  { fill: transparent; stroke: #5b7cfa; }
  .dot-openvsx { fill: transparent; stroke: #34c7a0; }
  .end-label       { fill: #1a1a2e; font-size: 11px; font-weight: 600; }
  .end-value       { fill: #6b7280; font-size: 11px; font-weight: 400; }
  .area-total-top    { stop-color: #e8553d; }
  .area-total-bottom { stop-color: #e8553d; }

  @media (prefers-color-scheme: dark) {
    .title      { fill: #e2e2e8; }
    .subtitle   { fill: #8b949e; }
    .grid       { stroke: #2d2d3d; }
    .axis-label { fill: #6e7681; }
    .line-total   { stroke: #ff9b85; }
    .line-vscode  { stroke: #8da4ff; }
    .line-openvsx { stroke: #5eead4; }
    .dot-total   { stroke: #ff9b85; }
    .dot-vscode  { stroke: #8da4ff; }
    .dot-openvsx { stroke: #5eead4; }
    .end-label       { fill: #e2e2e8; }
    .end-value       { fill: #8b949e; }
    .area-total-top    { stop-color: #ff9b85; }
    .area-total-bottom { stop-color: #ff9b85; }
  }
</style>
  <defs>
    <linearGradient id="areaGrad" x1="0" y1="0" x2="0" y2="1">
      <stop offset="0%" class="area-total-top" stop-opacity="0.18"/>
      <stop offset="60%" class="area-total-bottom" stop-opacity="0.04"/>
      <stop offset="100%" class="area-total-bottom" stop-opacity="0"/>
    </linearGradient>
  </defs>

  <text x="48" y="22" class="title" font-family="-apple-system, BlinkMacSystemFont, 'Segoe UI', Helvetica, sans-serif">Installs</text>
  <text x="48" y="37" class="subtitle" font-family="-apple-system, BlinkMacSystemFont, 'Segoe UI', Helvetica, sans-serif">Updated May 23</text>

  <line x1="48" y1="220" x2="640" y2="220" class="grid" stroke-width="0.7"/>
    <text x="40" y="223.5" class="axis-label" text-anchor="end" font-family="-apple-system, BlinkMacSystemFont, 'Segoe UI', Helvetica, sans-serif">0</text>
    <line x1="48" y1="177" x2="640" y2="177" class="grid" stroke-width="0.7"/>
    <text x="40" y="180.5" class="axis-label" text-anchor="end" font-family="-apple-system, BlinkMacSystemFont, 'Segoe UI', Helvetica, sans-serif">500</text>
    <line x1="48" y1="134" x2="640" y2="134" class="grid" stroke-width="0.7"/>
    <text x="40" y="137.5" class="axis-label" text-anchor="end" font-family="-apple-system, BlinkMacSystemFont, 'Segoe UI', Helvetica, sans-serif">1k</text>
    <line x1="48" y1="91" x2="640" y2="91" class="grid" stroke-width="0.7"/>
    <text x="40" y="94.5" class="axis-label" text-anchor="end" font-family="-apple-system, BlinkMacSystemFont, 'Segoe UI', Helvetica, sans-serif">1.5k</text>
    <line x1="48" y1="48" x2="640" y2="48" class="grid" stroke-width="0.7"/>
    <text x="40" y="51.5" class="axis-label" text-anchor="end" font-family="-apple-system, BlinkMacSystemFont, 'Segoe UI', Helvetica, sans-serif">2k</text>
  <text x="48" y="248" class="axis-label" text-anchor="middle" font-family="-apple-system, BlinkMacSystemFont, 'Segoe UI', Helvetica, sans-serif">Mar 27</text>
    <text x="174.85714285714283" y="248" class="axis-label" text-anchor="middle" font-family="-apple-system, BlinkMacSystemFont, 'Segoe UI', Helvetica, sans-serif">Apr 2</text>
    <text x="280.57142857142856" y="248" class="axis-label" text-anchor="middle" font-family="-apple-system, BlinkMacSystemFont, 'Segoe UI', Helvetica, sans-serif">May 6</text>
    <text x="407.4285714285714" y="248" class="axis-label" text-anchor="middle" font-family="-apple-system, BlinkMacSystemFont, 'Segoe UI', Helvetica, sans-serif">May 12</text>
    <text x="513.1428571428571" y="248" class="axis-label" text-anchor="middle" font-family="-apple-system, BlinkMacSystemFont, 'Segoe UI', Helvetica, sans-serif">May 17</text>
    <text x="640" y="248" class="axis-label" text-anchor="middle" font-family="-apple-system, BlinkMacSystemFont, 'Segoe UI', Helvetica, sans-serif">May 23</text>

  <path d="M48.0,219.7 C51.5,217.6 62.1,210.5 69.1,207.5 C76.2,204.5 83.2,203.6 90.3,201.6 C97.3,199.6 104.4,196.6 111.4,195.6 C118.5,194.5 125.5,197.4 132.6,195.2 C139.6,193.0 146.7,184.9 153.7,182.3 C160.8,179.8 167.8,190.1 174.9,179.8 C181.9,169.4 189.0,130.5 196.0,120.0 C203.0,109.5 210.1,117.6 217.1,116.9 C224.2,116.2 231.2,116.1 238.3,115.8 C245.3,115.5 252.4,115.4 259.4,115.2 C266.5,115.0 273.5,114.9 280.6,114.6 C287.6,114.2 294.7,113.7 301.7,113.0 C308.8,112.3 315.8,111.1 322.9,110.4 C329.9,109.8 337.0,109.5 344.0,109.1 C351.0,108.8 358.1,109.1 365.1,108.5 C372.2,107.8 379.2,106.2 386.3,105.4 C393.3,104.7 400.4,104.4 407.4,103.9 C414.5,103.4 421.5,103.1 428.6,102.6 C435.6,102.2 442.7,102.2 449.7,101.2 C456.8,100.3 463.8,98.0 470.9,97.0 C477.9,96.0 485.0,95.8 492.0,95.4 C499.0,94.9 506.1,94.6 513.1,94.4 C520.2,94.1 527.2,94.7 534.3,94.1 C541.3,93.5 548.4,91.5 555.4,90.7 C562.5,89.8 569.5,89.4 576.6,88.8 C583.6,88.1 590.7,87.7 597.7,86.6 C604.8,85.6 611.8,83.4 618.9,82.4 C625.9,81.4 636.5,80.7 640.0,80.3 L640.0,220.0 L48.0,220.0 Z" fill="url(#areaGrad)"/>
  <path d="M48.0,219.7 C51.5,217.7 62.1,210.6 69.1,207.8 C76.2,204.9 83.2,204.3 90.3,202.6 C97.3,200.9 104.4,198.5 111.4,197.6 C118.5,196.8 125.5,199.7 132.6,197.6 C139.6,195.6 146.7,187.7 153.7,185.3 C160.8,182.8 167.8,192.6 174.9,183.2 C181.9,173.8 189.0,138.2 196.0,128.7 C203.0,119.1 210.1,126.5 217.1,125.9 C224.2,125.3 231.2,125.3 238.3,125.1 C245.3,124.9 252.4,124.9 259.4,124.7 C266.5,124.6 273.5,124.5 280.6,124.2 C287.6,123.9 294.7,123.3 301.7,122.6 C308.8,122.0 315.8,120.6 322.9,120.1 C329.9,119.5 337.0,119.6 344.0,119.4 C351.0,119.2 358.1,119.4 365.1,118.9 C372.2,118.3 379.2,116.7 386.3,115.9 C393.3,115.2 400.4,115.0 407.4,114.6 C414.5,114.1 421.5,113.8 428.6,113.4 C435.6,112.9 442.7,112.9 449.7,112.0 C456.8,111.1 463.8,108.8 470.9,107.9 C477.9,106.9 485.0,106.7 492.0,106.3 C499.0,105.9 506.1,105.5 513.1,105.3 C520.2,105.1 527.2,105.7 534.3,105.1 C541.3,104.5 548.4,102.7 555.4,101.8 C562.5,101.0 569.5,100.7 576.6,100.1 C583.6,99.5 590.7,99.3 597.7,98.4 C604.8,97.5 611.8,95.4 618.9,94.4 C625.9,93.5 636.5,92.9 640.0,92.5" fill="none" class="line-openvsx" stroke-width="1.8" stroke-linecap="round" stroke-linejoin="round"/>
  <path d="M48.0,219.9 C51.5,219.9 62.1,219.9 69.1,219.7 C76.2,219.6 83.2,219.3 90.3,219.0 C97.3,218.7 104.4,218.2 111.4,217.9 C118.5,217.7 125.5,217.7 132.6,217.6 C139.6,217.4 146.7,217.2 153.7,217.1 C160.8,216.9 167.8,217.5 174.9,216.6 C181.9,215.6 189.0,212.2 196.0,211.3 C203.0,210.4 210.1,211.1 217.1,211.0 C224.2,210.9 231.2,210.8 238.3,210.7 C245.3,210.6 252.4,210.5 259.4,210.5 C266.5,210.4 273.5,210.4 280.6,210.4 C287.6,210.4 294.7,210.4 301.7,210.4 C308.8,210.4 315.8,210.5 322.9,210.4 C329.9,210.3 337.0,209.9 344.0,209.8 C351.0,209.6 358.1,209.6 365.1,209.6 C372.2,209.6 379.2,209.6 386.3,209.5 C393.3,209.5 400.4,209.4 407.4,209.3 C414.5,209.3 421.5,209.3 428.6,209.3 C435.6,209.2 442.7,209.3 449.7,209.3 C456.8,209.2 463.8,209.2 470.9,209.2 C477.9,209.1 485.0,209.1 492.0,209.1 C499.0,209.1 506.1,209.1 513.1,209.1 C520.2,209.1 527.2,209.0 534.3,209.0 C541.3,208.9 548.4,208.9 555.4,208.8 C562.5,208.8 569.5,208.7 576.6,208.6 C583.6,208.5 590.7,208.3 597.7,208.2 C604.8,208.1 611.8,208.0 618.9,208.0 C625.9,207.9 636.5,207.8 640.0,207.8" fill="none" class="line-vscode" stroke-width="1.8" stroke-linecap="round" stroke-linejoin="round"/>
  <path d="M48.0,219.7 C51.5,217.6 62.1,210.5 69.1,207.5 C76.2,204.5 83.2,203.6 90.3,201.6 C97.3,199.6 104.4,196.6 111.4,195.6 C118.5,194.5 125.5,197.4 132.6,195.2 C139.6,193.0 146.7,184.9 153.7,182.3 C160.8,179.8 167.8,190.1 174.9,179.8 C181.9,169.4 189.0,130.5 196.0,120.0 C203.0,109.5 210.1,117.6 217.1,116.9 C224.2,116.2 231.2,116.1 238.3,115.8 C245.3,115.5 252.4,115.4 259.4,115.2 C266.5,115.0 273.5,114.9 280.6,114.6 C287.6,114.2 294.7,113.7 301.7,113.0 C308.8,112.3 315.8,111.1 322.9,110.4 C329.9,109.8 337.0,109.5 344.0,109.1 C351.0,108.8 358.1,109.1 365.1,108.5 C372.2,107.8 379.2,106.2 386.3,105.4 C393.3,104.7 400.4,104.4 407.4,103.9 C414.5,103.4 421.5,103.1 428.6,102.6 C435.6,102.2 442.7,102.2 449.7,101.2 C456.8,100.3 463.8,98.0 470.9,97.0 C477.9,96.0 485.0,95.8 492.0,95.4 C499.0,94.9 506.1,94.6 513.1,94.4 C520.2,94.1 527.2,94.7 534.3,94.1 C541.3,93.5 548.4,91.5 555.4,90.7 C562.5,89.8 569.5,89.4 576.6,88.8 C583.6,88.1 590.7,87.7 597.7,86.6 C604.8,85.6 611.8,83.4 618.9,82.4 C625.9,81.4 636.5,80.7 640.0,80.3" fill="none" class="line-total" stroke-width="2.5" stroke-linecap="round" stroke-linejoin="round"/>

  <circle cx="640" cy="80.33599999999998" r="4.5" class="dot-total" stroke-width="2"/>
    <text x="658" y="84.33599999999998" class="end-label" font-family="-apple-system, BlinkMacSystemFont, 'Segoe UI', Helvetica, sans-serif">Total</text>
    <text x="697" y="84.33599999999998" class="end-value" font-family="-apple-system, BlinkMacSystemFont, 'Segoe UI', Helvetica, sans-serif">1.6k</text>
    <circle cx="640" cy="92.548" r="3.5" class="dot-openvsx" stroke-width="1.8"/>
    <text x="658" y="102.33599999999998" class="end-label" font-family="-apple-system, BlinkMacSystemFont, 'Segoe UI', Helvetica, sans-serif">Open VSX</text>
    <text x="716.8" y="102.33599999999998" class="end-value" font-family="-apple-system, BlinkMacSystemFont, 'Segoe UI', Helvetica, sans-serif">1.5k</text>
    <circle cx="640" cy="207.788" r="3.5" class="dot-vscode" stroke-width="1.8"/>
    <text x="658" y="211.788" class="end-label" font-family="-apple-system, BlinkMacSystemFont, 'Segoe UI', Helvetica, sans-serif">VS Code</text>
    <text x="710.2" y="211.788" class="end-value" font-family="-apple-system, BlinkMacSystemFont, 'Segoe UI', Helvetica, sans-serif">142</text>
</svg>