<svg xmlns="http://www.w3.org/2000/svg" viewBox="0 0 760 260" width="760" height="260" role="img" aria-label="Glassy install history">
  <style>
  svg { color-scheme: light dark; }
  .title      { fill: #1a1a2e; font-size: 15px; font-weight: 600; }
  .subtitle   { fill: #6b7280; font-size: 11px; font-weight: 400; }
  .grid       { stroke: #e8e8ee; }
  .axis-label { fill: #8a8a9a; font-size: 10px; }
  .line-total   { stroke: #e8553d; }
  .line-vscode  { stroke: #5b7cfa; }
  .line-openvsx { stroke: #34c7a0; }
  .dot-total   { fill: transparent; stroke: #e8553d; }
  .dot-vscode  { fill: transparent; stroke: #5b7cfa; }
  .dot-openvsx { fill: transparent; stroke: #34c7a0; }
  .end-label       { fill: #1a1a2e; font-size: 11px; font-weight: 600; }
  .end-value       { fill: #6b7280; font-size: 11px; font-weight: 400; }
  .area-total-top    { stop-color: #e8553d; }
  .area-total-bottom { stop-color: #e8553d; }

  @media (prefers-color-scheme: dark) {
    .title      { fill: #e2e2e8; }
    .subtitle   { fill: #8b949e; }
    .grid       { stroke: #2d2d3d; }
    .axis-label { fill: #6e7681; }
    .line-total   { stroke: #ff9b85; }
    .line-vscode  { stroke: #8da4ff; }
    .line-openvsx { stroke: #5eead4; }
    .dot-total   { stroke: #ff9b85; }
    .dot-vscode  { stroke: #8da4ff; }
    .dot-openvsx { stroke: #5eead4; }
    .end-label       { fill: #e2e2e8; }
    .end-value       { fill: #8b949e; }
    .area-total-top    { stop-color: #ff9b85; }
    .area-total-bottom { stop-color: #ff9b85; }
  }
</style>
  <defs>
    <linearGradient id="areaGrad" x1="0" y1="0" x2="0" y2="1">
      <stop offset="0%" class="area-total-top" stop-opacity="0.18"/>
      <stop offset="60%" class="area-total-bottom" stop-opacity="0.04"/>
      <stop offset="100%" class="area-total-bottom" stop-opacity="0"/>
    </linearGradient>
  </defs>

  <text x="48" y="22" class="title" font-family="-apple-system, BlinkMacSystemFont, 'Segoe UI', Helvetica, sans-serif">Installs</text>
  <text x="48" y="37" class="subtitle" font-family="-apple-system, BlinkMacSystemFont, 'Segoe UI', Helvetica, sans-serif">Updated Jul 5</text>

  <line x1="48" y1="220" x2="640" y2="220" class="grid" stroke-width="0.7"/>
    <text x="40" y="223.5" class="axis-label" text-anchor="end" font-family="-apple-system, BlinkMacSystemFont, 'Segoe UI', Helvetica, sans-serif">0</text>
    <line x1="48" y1="162.66666666666669" x2="640" y2="162.66666666666669" class="grid" stroke-width="0.7"/>
    <text x="40" y="166.16666666666669" class="axis-label" text-anchor="end" font-family="-apple-system, BlinkMacSystemFont, 'Segoe UI', Helvetica, sans-serif">1k</text>
    <line x1="48" y1="105.33333333333334" x2="640" y2="105.33333333333334" class="grid" stroke-width="0.7"/>
    <text x="40" y="108.83333333333334" class="axis-label" text-anchor="end" font-family="-apple-system, BlinkMacSystemFont, 'Segoe UI', Helvetica, sans-serif">2k</text>
    <line x1="48" y1="48" x2="640" y2="48" class="grid" stroke-width="0.7"/>
    <text x="40" y="51.5" class="axis-label" text-anchor="end" font-family="-apple-system, BlinkMacSystemFont, 'Segoe UI', Helvetica, sans-serif">3k</text>
  <text x="48" y="248" class="axis-label" text-anchor="middle" font-family="-apple-system, BlinkMacSystemFont, 'Segoe UI', Helvetica, sans-serif">Mar 27</text>
    <text x="164.73239436619718" y="248" class="axis-label" text-anchor="middle" font-family="-apple-system, BlinkMacSystemFont, 'Segoe UI', Helvetica, sans-serif">May 9</text>
    <text x="281.46478873239437" y="248" class="axis-label" text-anchor="middle" font-family="-apple-system, BlinkMacSystemFont, 'Segoe UI', Helvetica, sans-serif">May 23</text>
    <text x="406.53521126760563" y="248" class="axis-label" text-anchor="middle" font-family="-apple-system, BlinkMacSystemFont, 'Segoe UI', Helvetica, sans-serif">Jun 7</text>
    <text x="523.2676056338028" y="248" class="axis-label" text-anchor="middle" font-family="-apple-system, BlinkMacSystemFont, 'Segoe UI', Helvetica, sans-serif">Jun 21</text>
    <text x="640" y="248" class="axis-label" text-anchor="middle" font-family="-apple-system, BlinkMacSystemFont, 'Segoe UI', Helvetica, sans-serif">Jul 5</text>

  <path d="M48.0,219.8 C49.4,218.4 53.6,213.7 56.3,211.7 C59.1,209.7 61.9,209.1 64.7,207.7 C67.5,206.4 70.2,204.4 73.0,203.7 C75.8,203.0 78.6,205.0 81.4,203.5 C84.1,202.0 86.9,196.6 89.7,194.9 C92.5,193.2 95.2,200.1 98.0,193.2 C100.8,186.2 103.6,160.3 106.4,153.3 C109.1,146.3 111.9,151.7 114.7,151.3 C117.5,150.8 120.3,150.7 123.0,150.5 C125.8,150.3 128.6,150.2 131.4,150.1 C134.2,150.0 136.9,149.9 139.7,149.7 C142.5,149.5 145.3,149.1 148.1,148.7 C150.8,148.2 153.6,147.4 156.4,147.0 C159.2,146.5 162.0,146.3 164.7,146.1 C167.5,145.9 170.3,146.0 173.1,145.6 C175.8,145.2 178.6,144.1 181.4,143.6 C184.2,143.1 187.0,142.9 189.7,142.6 C192.5,142.3 195.3,142.0 198.1,141.7 C200.9,141.4 203.6,141.4 206.4,140.8 C209.2,140.2 212.0,138.7 214.8,138.0 C217.5,137.4 220.3,137.2 223.1,136.9 C225.9,136.6 228.7,136.4 231.4,136.2 C234.2,136.1 237.0,136.5 239.8,136.1 C242.6,135.7 245.3,134.4 248.1,133.8 C250.9,133.2 253.7,133.0 256.5,132.5 C259.2,132.1 262.0,131.8 264.8,131.1 C267.6,130.4 270.3,129.0 273.1,128.3 C275.9,127.6 278.7,127.3 281.5,126.9 C284.2,126.5 287.0,126.3 289.8,126.0 C292.6,125.8 295.4,125.8 298.1,125.3 C300.9,124.9 303.7,124.0 306.5,123.6 C309.3,123.1 312.0,122.8 314.8,122.5 C317.6,122.2 320.4,122.0 323.2,121.7 C325.9,121.5 328.7,121.3 331.5,121.1 C334.3,120.9 337.1,120.6 339.8,120.4 C342.6,120.3 345.4,120.3 348.2,120.2 C350.9,120.2 353.7,121.0 356.5,120.2 C359.3,119.4 362.1,116.5 364.8,115.5 C367.6,114.5 370.4,114.6 373.2,114.2 C376.0,113.7 378.7,113.3 381.5,112.8 C384.3,112.4 387.1,111.9 389.9,111.6 C392.6,111.3 395.4,111.2 398.2,111.0 C401.0,110.8 403.8,110.4 406.5,110.2 C409.3,110.0 412.1,110.1 414.9,109.7 C417.7,109.4 420.4,108.6 423.2,108.1 C426.0,107.7 428.8,107.6 431.5,107.2 C434.3,106.9 437.1,106.4 439.9,106.2 C442.7,105.9 445.4,106.0 448.2,105.7 C451.0,105.5 453.8,104.8 456.6,104.5 C459.3,104.2 462.1,104.2 464.9,104.0 C467.7,103.7 470.5,103.5 473.2,103.2 C476.0,102.9 478.8,102.5 481.6,102.2 C484.4,101.9 487.1,101.5 489.9,101.2 C492.7,100.9 495.5,100.8 498.3,100.3 C501.0,99.9 503.8,99.2 506.6,98.7 C509.4,98.3 512.2,98.1 514.9,97.7 C517.7,97.4 520.5,97.0 523.3,96.6 C526.0,96.3 528.8,95.9 531.6,95.5 C534.4,95.2 537.2,94.8 539.9,94.6 C542.7,94.3 545.5,94.2 548.3,93.8 C551.1,93.4 553.8,92.9 556.6,92.4 C559.4,91.9 562.2,91.2 565.0,90.8 C567.7,90.5 570.5,90.5 573.3,90.3 C576.1,90.1 578.9,90.0 581.6,89.8 C584.4,89.6 587.2,89.3 590.0,88.9 C592.8,88.6 595.5,88.2 598.3,87.9 C601.1,87.6 603.9,87.3 606.6,86.9 C609.4,86.6 612.2,86.2 615.0,85.8 C617.8,85.5 620.5,85.3 623.3,85.0 C626.1,84.6 628.9,84.0 631.7,83.7 C634.4,83.3 638.6,82.9 640.0,82.8 L640.0,220.0 L48.0,220.0 Z" fill="url(#areaGrad)"/>
  <path d="M48.0,219.8 C49.4,218.5 53.6,213.8 56.3,211.9 C59.1,210.0 61.9,209.5 64.7,208.4 C67.5,207.3 70.2,205.6 73.0,205.1 C75.8,204.5 78.6,206.5 81.4,205.1 C84.1,203.7 86.9,198.4 89.7,196.8 C92.5,195.2 95.2,201.7 98.0,195.5 C100.8,189.2 103.6,165.5 106.4,159.1 C109.1,152.7 111.9,157.7 114.7,157.3 C117.5,156.9 120.3,156.8 123.0,156.7 C125.8,156.6 128.6,156.6 131.4,156.5 C134.2,156.4 136.9,156.4 139.7,156.1 C142.5,155.9 145.3,155.6 148.1,155.1 C150.8,154.6 153.6,153.7 156.4,153.4 C159.2,153.0 162.0,153.1 164.7,152.9 C167.5,152.8 170.3,153.0 173.1,152.6 C175.8,152.2 178.6,151.1 181.4,150.6 C184.2,150.1 187.0,150.0 189.7,149.7 C192.5,149.4 195.3,149.2 198.1,148.9 C200.9,148.6 203.6,148.6 206.4,148.0 C209.2,147.4 212.0,145.9 214.8,145.2 C217.5,144.6 220.3,144.5 223.1,144.2 C225.9,143.9 228.7,143.7 231.4,143.5 C234.2,143.4 237.0,143.8 239.8,143.4 C242.6,143.0 245.3,141.8 248.1,141.2 C250.9,140.7 253.7,140.5 256.5,140.1 C259.2,139.7 262.0,139.6 264.8,138.9 C267.6,138.3 270.3,136.9 273.1,136.3 C275.9,135.6 278.7,135.4 281.5,135.0 C284.2,134.7 287.0,134.5 289.8,134.2 C292.6,134.0 295.4,134.0 298.1,133.7 C300.9,133.3 303.7,132.5 306.5,132.1 C309.3,131.6 312.0,131.4 314.8,131.1 C317.6,130.9 320.4,130.6 323.2,130.4 C325.9,130.3 328.7,130.2 331.5,130.0 C334.3,129.8 337.1,129.5 339.8,129.4 C342.6,129.3 345.4,129.4 348.2,129.4 C350.9,129.4 353.7,130.2 356.5,129.4 C359.3,128.7 362.1,125.9 364.8,124.9 C367.6,124.0 370.4,124.0 373.2,123.6 C376.0,123.1 378.7,122.7 381.5,122.3 C384.3,121.9 387.1,121.3 389.9,121.0 C392.6,120.7 395.4,120.7 398.2,120.5 C401.0,120.2 403.8,119.9 406.5,119.7 C409.3,119.5 412.1,119.6 414.9,119.2 C417.7,118.9 420.4,118.0 423.2,117.6 C426.0,117.2 428.8,117.0 431.5,116.7 C434.3,116.4 437.1,115.9 439.9,115.7 C442.7,115.4 445.4,115.5 448.2,115.2 C451.0,114.9 453.8,114.3 456.6,114.0 C459.3,113.8 462.1,113.8 464.9,113.6 C467.7,113.4 470.5,113.2 473.2,112.9 C476.0,112.6 478.8,112.3 481.6,112.0 C484.4,111.7 487.1,111.4 489.9,111.1 C492.7,110.8 495.5,110.6 498.3,110.3 C501.0,109.9 503.8,109.2 506.6,108.8 C509.4,108.4 512.2,108.2 514.9,107.9 C517.7,107.5 520.5,107.2 523.3,106.8 C526.0,106.5 528.8,106.1 531.6,105.8 C534.4,105.5 537.2,105.1 539.9,104.9 C542.7,104.6 545.5,104.5 548.3,104.2 C551.1,103.8 553.8,103.3 556.6,102.8 C559.4,102.3 562.2,101.6 565.0,101.3 C567.7,101.0 570.5,101.0 573.3,100.9 C576.1,100.7 578.9,100.6 581.6,100.4 C584.4,100.2 587.2,99.9 590.0,99.6 C592.8,99.3 595.5,99.0 598.3,98.7 C601.1,98.4 603.9,98.1 606.6,97.8 C609.4,97.4 612.2,97.0 615.0,96.7 C617.8,96.4 620.5,96.2 623.3,95.9 C626.1,95.6 628.9,95.3 631.7,95.0 C634.4,94.7 638.6,94.3 640.0,94.2" fill="none" class="line-openvsx" stroke-width="1.8" stroke-linecap="round" stroke-linejoin="round"/>
  <path d="M48.0,219.9 C49.4,219.9 53.6,219.9 56.3,219.8 C59.1,219.7 61.9,219.5 64.7,219.3 C67.5,219.1 70.2,218.8 73.0,218.6 C75.8,218.5 78.6,218.5 81.4,218.4 C84.1,218.3 86.9,218.2 89.7,218.1 C92.5,217.9 95.2,218.3 98.0,217.7 C100.8,217.1 103.6,214.8 106.4,214.2 C109.1,213.6 111.9,214.0 114.7,214.0 C117.5,213.9 120.3,213.9 123.0,213.8 C125.8,213.8 128.6,213.7 131.4,213.6 C134.2,213.6 136.9,213.6 139.7,213.6 C142.5,213.6 145.3,213.6 148.1,213.6 C150.8,213.6 153.6,213.6 156.4,213.6 C159.2,213.5 162.0,213.3 164.7,213.2 C167.5,213.1 170.3,213.1 173.1,213.1 C175.8,213.0 178.6,213.0 181.4,213.0 C184.2,213.0 187.0,212.9 189.7,212.9 C192.5,212.9 195.3,212.8 198.1,212.8 C200.9,212.8 203.6,212.8 206.4,212.8 C209.2,212.8 212.0,212.8 214.8,212.8 C217.5,212.8 220.3,212.7 223.1,212.7 C225.9,212.7 228.7,212.7 231.4,212.7 C234.2,212.7 237.0,212.7 239.8,212.7 C242.6,212.6 245.3,212.6 248.1,212.5 C250.9,212.5 253.7,212.5 256.5,212.4 C259.2,212.4 262.0,212.2 264.8,212.1 C267.6,212.1 270.3,212.0 273.1,212.0 C275.9,211.9 278.7,211.9 281.5,211.9 C284.2,211.8 287.0,211.8 289.8,211.8 C292.6,211.8 295.4,211.7 298.1,211.7 C300.9,211.6 303.7,211.6 306.5,211.5 C309.3,211.5 312.0,211.4 314.8,211.4 C317.6,211.4 320.4,211.3 323.2,211.3 C325.9,211.2 328.7,211.2 331.5,211.1 C334.3,211.1 337.1,211.0 339.8,211.0 C342.6,211.0 345.4,210.9 348.2,210.8 C350.9,210.8 353.7,210.8 356.5,210.8 C359.3,210.7 362.1,210.6 364.8,210.6 C367.6,210.6 370.4,210.6 373.2,210.6 C376.0,210.6 378.7,210.5 381.5,210.5 C384.3,210.5 387.1,210.5 389.9,210.5 C392.6,210.5 395.4,210.5 398.2,210.5 C401.0,210.5 403.8,210.5 406.5,210.5 C409.3,210.5 412.1,210.5 414.9,210.5 C417.7,210.5 420.4,210.5 423.2,210.5 C426.0,210.5 428.8,210.5 431.5,210.5 C434.3,210.5 437.1,210.5 439.9,210.5 C442.7,210.5 445.4,210.5 448.2,210.5 C451.0,210.5 453.8,210.5 456.6,210.5 C459.3,210.5 462.1,210.4 464.9,210.4 C467.7,210.3 470.5,210.3 473.2,210.3 C476.0,210.2 478.8,210.2 481.6,210.2 C484.4,210.2 487.1,210.2 489.9,210.1 C492.7,210.1 495.5,210.1 498.3,210.1 C501.0,210.1 503.8,210.0 506.6,210.0 C509.4,209.9 512.2,209.9 514.9,209.9 C517.7,209.8 520.5,209.8 523.3,209.8 C526.0,209.8 528.8,209.8 531.6,209.7 C534.4,209.7 537.2,209.7 539.9,209.7 C542.7,209.7 545.5,209.6 548.3,209.6 C551.1,209.6 553.8,209.6 556.6,209.6 C559.4,209.5 562.2,209.5 565.0,209.5 C567.7,209.5 570.5,209.5 573.3,209.5 C576.1,209.4 578.9,209.4 581.6,209.4 C584.4,209.4 587.2,209.4 590.0,209.3 C592.8,209.3 595.5,209.3 598.3,209.2 C601.1,209.2 603.9,209.2 606.6,209.2 C609.4,209.1 612.2,209.1 615.0,209.1 C617.8,209.1 620.5,209.1 623.3,209.0 C626.1,209.0 628.9,208.7 631.7,208.6 C634.4,208.6 638.6,208.6 640.0,208.6" fill="none" class="line-vscode" stroke-width="1.8" stroke-linecap="round" stroke-linejoin="round"/>
  <path d="M48.0,219.8 C49.4,218.4 53.6,213.7 56.3,211.7 C59.1,209.7 61.9,209.1 64.7,207.7 C67.5,206.4 70.2,204.4 73.0,203.7 C75.8,203.0 78.6,205.0 81.4,203.5 C84.1,202.0 86.9,196.6 89.7,194.9 C92.5,193.2 95.2,200.1 98.0,193.2 C100.8,186.2 103.6,160.3 106.4,153.3 C109.1,146.3 111.9,151.7 114.7,151.3 C117.5,150.8 120.3,150.7 123.0,150.5 C125.8,150.3 128.6,150.2 131.4,150.1 C134.2,150.0 136.9,149.9 139.7,149.7 C142.5,149.5 145.3,149.1 148.1,148.7 C150.8,148.2 153.6,147.4 156.4,147.0 C159.2,146.5 162.0,146.3 164.7,146.1 C167.5,145.9 170.3,146.0 173.1,145.6 C175.8,145.2 178.6,144.1 181.4,143.6 C184.2,143.1 187.0,142.9 189.7,142.6 C192.5,142.3 195.3,142.0 198.1,141.7 C200.9,141.4 203.6,141.4 206.4,140.8 C209.2,140.2 212.0,138.7 214.8,138.0 C217.5,137.4 220.3,137.2 223.1,136.9 C225.9,136.6 228.7,136.4 231.4,136.2 C234.2,136.1 237.0,136.5 239.8,136.1 C242.6,135.7 245.3,134.4 248.1,133.8 C250.9,133.2 253.7,133.0 256.5,132.5 C259.2,132.1 262.0,131.8 264.8,131.1 C267.6,130.4 270.3,129.0 273.1,128.3 C275.9,127.6 278.7,127.3 281.5,126.9 C284.2,126.5 287.0,126.3 289.8,126.0 C292.6,125.8 295.4,125.8 298.1,125.3 C300.9,124.9 303.7,124.0 306.5,123.6 C309.3,123.1 312.0,122.8 314.8,122.5 C317.6,122.2 320.4,122.0 323.2,121.7 C325.9,121.5 328.7,121.3 331.5,121.1 C334.3,120.9 337.1,120.6 339.8,120.4 C342.6,120.3 345.4,120.3 348.2,120.2 C350.9,120.2 353.7,121.0 356.5,120.2 C359.3,119.4 362.1,116.5 364.8,115.5 C367.6,114.5 370.4,114.6 373.2,114.2 C376.0,113.7 378.7,113.3 381.5,112.8 C384.3,112.4 387.1,111.9 389.9,111.6 C392.6,111.3 395.4,111.2 398.2,111.0 C401.0,110.8 403.8,110.4 406.5,110.2 C409.3,110.0 412.1,110.1 414.9,109.7 C417.7,109.4 420.4,108.6 423.2,108.1 C426.0,107.7 428.8,107.6 431.5,107.2 C434.3,106.9 437.1,106.4 439.9,106.2 C442.7,105.9 445.4,106.0 448.2,105.7 C451.0,105.5 453.8,104.8 456.6,104.5 C459.3,104.2 462.1,104.2 464.9,104.0 C467.7,103.7 470.5,103.5 473.2,103.2 C476.0,102.9 478.8,102.5 481.6,102.2 C484.4,101.9 487.1,101.5 489.9,101.2 C492.7,100.9 495.5,100.8 498.3,100.3 C501.0,99.9 503.8,99.2 506.6,98.7 C509.4,98.3 512.2,98.1 514.9,97.7 C517.7,97.4 520.5,97.0 523.3,96.6 C526.0,96.3 528.8,95.9 531.6,95.5 C534.4,95.2 537.2,94.8 539.9,94.6 C542.7,94.3 545.5,94.2 548.3,93.8 C551.1,93.4 553.8,92.9 556.6,92.4 C559.4,91.9 562.2,91.2 565.0,90.8 C567.7,90.5 570.5,90.5 573.3,90.3 C576.1,90.1 578.9,90.0 581.6,89.8 C584.4,89.6 587.2,89.3 590.0,88.9 C592.8,88.6 595.5,88.2 598.3,87.9 C601.1,87.6 603.9,87.3 606.6,86.9 C609.4,86.6 612.2,86.2 615.0,85.8 C617.8,85.5 620.5,85.3 623.3,85.0 C626.1,84.6 628.9,84.0 631.7,83.7 C634.4,83.3 638.6,82.9 640.0,82.8" fill="none" class="line-total" stroke-width="2.5" stroke-linecap="round" stroke-linejoin="round"/>

  <circle cx="640" cy="82.80133333333333" r="4.5" class="dot-total" stroke-width="2"/>
    <text x="658" y="86.80133333333333" class="end-label" font-family="-apple-system, BlinkMacSystemFont, 'Segoe UI', Helvetica, sans-serif">Total</text>
    <text x="697" y="86.80133333333333" class="end-value" font-family="-apple-system, BlinkMacSystemFont, 'Segoe UI', Helvetica, sans-serif">2.4k</text>
    <circle cx="640" cy="94.21066666666668" r="3.5" class="dot-openvsx" stroke-width="1.8"/>
    <text x="658" y="104.80133333333333" class="end-label" font-family="-apple-system, BlinkMacSystemFont, 'Segoe UI', Helvetica, sans-serif">Open VSX</text>
    <text x="716.8" y="104.80133333333333" class="end-value" font-family="-apple-system, BlinkMacSystemFont, 'Segoe UI', Helvetica, sans-serif">2.2k</text>
    <circle cx="640" cy="208.59066666666666" r="3.5" class="dot-vscode" stroke-width="1.8"/>
    <text x="658" y="212.59066666666666" class="end-label" font-family="-apple-system, BlinkMacSystemFont, 'Segoe UI', Helvetica, sans-serif">VS Code</text>
    <text x="710.2" y="212.59066666666666" class="end-value" font-family="-apple-system, BlinkMacSystemFont, 'Segoe UI', Helvetica, sans-serif">199</text>
</svg>