<svg xmlns="http://www.w3.org/2000/svg" viewBox="0 0 760 260" width="760" height="260" role="img" aria-label="Glassy install history">
  <style>
  svg { color-scheme: light dark; }
  .title      { fill: #1a1a2e; font-size: 15px; font-weight: 600; }
  .subtitle   { fill: #6b7280; font-size: 11px; font-weight: 400; }
  .grid       { stroke: #e8e8ee; }
  .axis-label { fill: #8a8a9a; font-size: 10px; }
  .line-total   { stroke: #e8553d; }
  .line-vscode  { stroke: #5b7cfa; }
  .line-openvsx { stroke: #34c7a0; }
  .dot-total   { fill: transparent; stroke: #e8553d; }
  .dot-vscode  { fill: transparent; stroke: #5b7cfa; }
  .dot-openvsx { fill: transparent; stroke: #34c7a0; }
  .end-label       { fill: #1a1a2e; font-size: 11px; font-weight: 600; }
  .end-value       { fill: #6b7280; font-size: 11px; font-weight: 400; }
  .area-total-top    { stop-color: #e8553d; }
  .area-total-bottom { stop-color: #e8553d; }

  @media (prefers-color-scheme: dark) {
    .title      { fill: #e2e2e8; }
    .subtitle   { fill: #8b949e; }
    .grid       { stroke: #2d2d3d; }
    .axis-label { fill: #6e7681; }
    .line-total   { stroke: #ff9b85; }
    .line-vscode  { stroke: #8da4ff; }
    .line-openvsx { stroke: #5eead4; }
    .dot-total   { stroke: #ff9b85; }
    .dot-vscode  { stroke: #8da4ff; }
    .dot-openvsx { stroke: #5eead4; }
    .end-label       { fill: #e2e2e8; }
    .end-value       { fill: #8b949e; }
    .area-total-top    { stop-color: #ff9b85; }
    .area-total-bottom { stop-color: #ff9b85; }
  }
</style>
  <defs>
    <linearGradient id="areaGrad" x1="0" y1="0" x2="0" y2="1">
      <stop offset="0%" class="area-total-top" stop-opacity="0.18"/>
      <stop offset="60%" class="area-total-bottom" stop-opacity="0.04"/>
      <stop offset="100%" class="area-total-bottom" stop-opacity="0"/>
    </linearGradient>
  </defs>

  <text x="48" y="22" class="title" font-family="-apple-system, BlinkMacSystemFont, 'Segoe UI', Helvetica, sans-serif">Installs</text>
  <text x="48" y="37" class="subtitle" font-family="-apple-system, BlinkMacSystemFont, 'Segoe UI', Helvetica, sans-serif">Updated Jul 16</text>

  <line x1="48" y1="220" x2="640" y2="220" class="grid" stroke-width="0.7"/>
    <text x="40" y="223.5" class="axis-label" text-anchor="end" font-family="-apple-system, BlinkMacSystemFont, 'Segoe UI', Helvetica, sans-serif">0</text>
    <line x1="48" y1="162.66666666666669" x2="640" y2="162.66666666666669" class="grid" stroke-width="0.7"/>
    <text x="40" y="166.16666666666669" class="axis-label" text-anchor="end" font-family="-apple-system, BlinkMacSystemFont, 'Segoe UI', Helvetica, sans-serif">1k</text>
    <line x1="48" y1="105.33333333333334" x2="640" y2="105.33333333333334" class="grid" stroke-width="0.7"/>
    <text x="40" y="108.83333333333334" class="axis-label" text-anchor="end" font-family="-apple-system, BlinkMacSystemFont, 'Segoe UI', Helvetica, sans-serif">2k</text>
    <line x1="48" y1="48" x2="640" y2="48" class="grid" stroke-width="0.7"/>
    <text x="40" y="51.5" class="axis-label" text-anchor="end" font-family="-apple-system, BlinkMacSystemFont, 'Segoe UI', Helvetica, sans-serif">3k</text>
  <text x="48" y="248" class="axis-label" text-anchor="middle" font-family="-apple-system, BlinkMacSystemFont, 'Segoe UI', Helvetica, sans-serif">Mar 27</text>
    <text x="163.5121951219512" y="248" class="axis-label" text-anchor="middle" font-family="-apple-system, BlinkMacSystemFont, 'Segoe UI', Helvetica, sans-serif">May 11</text>
    <text x="286.2439024390244" y="248" class="axis-label" text-anchor="middle" font-family="-apple-system, BlinkMacSystemFont, 'Segoe UI', Helvetica, sans-serif">May 28</text>
    <text x="401.7560975609756" y="248" class="axis-label" text-anchor="middle" font-family="-apple-system, BlinkMacSystemFont, 'Segoe UI', Helvetica, sans-serif">Jun 13</text>
    <text x="524.4878048780488" y="248" class="axis-label" text-anchor="middle" font-family="-apple-system, BlinkMacSystemFont, 'Segoe UI', Helvetica, sans-serif">Jun 30</text>
    <text x="640" y="248" class="axis-label" text-anchor="middle" font-family="-apple-system, BlinkMacSystemFont, 'Segoe UI', Helvetica, sans-serif">Jul 16</text>

  <path d="M48.0,219.8 C49.2,218.4 52.8,213.7 55.2,211.7 C57.6,209.7 60.0,209.1 62.4,207.7 C64.8,206.4 67.3,204.4 69.7,203.7 C72.1,203.0 74.5,205.0 76.9,203.5 C79.3,202.0 81.7,196.6 84.1,194.9 C86.5,193.2 88.9,200.1 91.3,193.2 C93.7,186.2 96.1,160.3 98.5,153.3 C100.9,146.3 103.3,151.7 105.8,151.3 C108.2,150.8 110.6,150.7 113.0,150.5 C115.4,150.3 117.8,150.2 120.2,150.1 C122.6,150.0 125.0,149.9 127.4,149.7 C129.8,149.5 132.2,149.1 134.6,148.7 C137.0,148.2 139.4,147.4 141.9,147.0 C144.3,146.5 146.7,146.3 149.1,146.1 C151.5,145.9 153.9,146.0 156.3,145.6 C158.7,145.2 161.1,144.1 163.5,143.6 C165.9,143.1 168.3,142.9 170.7,142.6 C173.1,142.3 175.5,142.0 178.0,141.7 C180.4,141.4 182.8,141.4 185.2,140.8 C187.6,140.2 190.0,138.7 192.4,138.0 C194.8,137.4 197.2,137.2 199.6,136.9 C202.0,136.6 204.4,136.4 206.8,136.2 C209.2,136.1 211.6,136.5 214.0,136.1 C216.5,135.7 218.9,134.4 221.3,133.8 C223.7,133.2 226.1,133.0 228.5,132.5 C230.9,132.1 233.3,131.8 235.7,131.1 C238.1,130.4 240.5,129.0 242.9,128.3 C245.3,127.6 247.7,127.3 250.1,126.9 C252.6,126.5 255.0,126.3 257.4,126.0 C259.8,125.8 262.2,125.8 264.6,125.3 C267.0,124.9 269.4,124.0 271.8,123.6 C274.2,123.1 276.6,122.8 279.0,122.5 C281.4,122.2 283.8,122.0 286.2,121.7 C288.7,121.5 291.1,121.3 293.5,121.1 C295.9,120.9 298.3,120.6 300.7,120.4 C303.1,120.3 305.5,120.3 307.9,120.2 C310.3,120.2 312.7,121.0 315.1,120.2 C317.5,119.4 319.9,116.5 322.3,115.5 C324.7,114.5 327.2,114.6 329.6,114.2 C332.0,113.7 334.4,113.3 336.8,112.8 C339.2,112.4 341.6,111.9 344.0,111.6 C346.4,111.3 348.8,111.2 351.2,111.0 C353.6,110.8 356.0,110.4 358.4,110.2 C360.8,110.0 363.3,110.1 365.7,109.7 C368.1,109.4 370.5,108.6 372.9,108.1 C375.3,107.7 377.7,107.6 380.1,107.2 C382.5,106.9 384.9,106.4 387.3,106.2 C389.7,105.9 392.1,106.0 394.5,105.7 C396.9,105.5 399.3,104.8 401.8,104.5 C404.2,104.2 406.6,104.2 409.0,104.0 C411.4,103.7 413.8,103.5 416.2,103.2 C418.6,102.9 421.0,102.5 423.4,102.2 C425.8,101.9 428.2,101.5 430.6,101.2 C433.0,100.9 435.4,100.8 437.9,100.3 C440.3,99.9 442.7,99.2 445.1,98.7 C447.5,98.3 449.9,98.1 452.3,97.7 C454.7,97.4 457.1,97.0 459.5,96.6 C461.9,96.3 464.3,95.9 466.7,95.5 C469.1,95.2 471.5,94.8 474.0,94.6 C476.4,94.3 478.8,94.2 481.2,93.8 C483.6,93.4 486.0,92.9 488.4,92.4 C490.8,91.9 493.2,91.2 495.6,90.8 C498.0,90.5 500.4,90.5 502.8,90.3 C505.2,90.1 507.6,90.0 510.0,89.8 C512.5,89.6 514.9,89.3 517.3,88.9 C519.7,88.6 522.1,88.2 524.5,87.9 C526.9,87.6 529.3,87.3 531.7,86.9 C534.1,86.6 536.5,86.2 538.9,85.8 C541.3,85.5 543.7,85.3 546.1,85.0 C548.6,84.6 551.0,84.0 553.4,83.7 C555.8,83.3 558.2,83.0 560.6,82.8 C563.0,82.6 565.4,82.6 567.8,82.4 C570.2,82.2 572.6,81.9 575.0,81.8 C577.4,81.6 579.8,81.6 582.2,81.4 C584.7,81.2 587.1,80.9 589.5,80.6 C591.9,80.4 594.3,80.0 596.7,79.8 C599.1,79.5 601.5,79.3 603.9,79.1 C606.3,78.9 608.7,78.8 611.1,78.5 C613.5,78.2 615.9,77.5 618.3,77.2 C620.7,76.9 623.2,76.8 625.6,76.6 C628.0,76.3 630.4,76.1 632.8,75.6 C635.2,75.1 638.8,74.0 640.0,73.7 L640.0,220.0 L48.0,220.0 Z" fill="url(#areaGrad)"/>
  <path d="M48.0,219.8 C49.2,218.5 52.8,213.8 55.2,211.9 C57.6,210.0 60.0,209.5 62.4,208.4 C64.8,207.3 67.3,205.6 69.7,205.1 C72.1,204.5 74.5,206.5 76.9,205.1 C79.3,203.7 81.7,198.4 84.1,196.8 C86.5,195.2 88.9,201.7 91.3,195.5 C93.7,189.2 96.1,165.5 98.5,159.1 C100.9,152.7 103.3,157.7 105.8,157.3 C108.2,156.9 110.6,156.8 113.0,156.7 C115.4,156.6 117.8,156.6 120.2,156.5 C122.6,156.4 125.0,156.4 127.4,156.1 C129.8,155.9 132.2,155.6 134.6,155.1 C137.0,154.6 139.4,153.7 141.9,153.4 C144.3,153.0 146.7,153.1 149.1,152.9 C151.5,152.8 153.9,153.0 156.3,152.6 C158.7,152.2 161.1,151.1 163.5,150.6 C165.9,150.1 168.3,150.0 170.7,149.7 C173.1,149.4 175.5,149.2 178.0,148.9 C180.4,148.6 182.8,148.6 185.2,148.0 C187.6,147.4 190.0,145.9 192.4,145.2 C194.8,144.6 197.2,144.5 199.6,144.2 C202.0,143.9 204.4,143.7 206.8,143.5 C209.2,143.4 211.6,143.8 214.0,143.4 C216.5,143.0 218.9,141.8 221.3,141.2 C223.7,140.7 226.1,140.5 228.5,140.1 C230.9,139.7 233.3,139.6 235.7,138.9 C238.1,138.3 240.5,136.9 242.9,136.3 C245.3,135.6 247.7,135.4 250.1,135.0 C252.6,134.7 255.0,134.5 257.4,134.2 C259.8,134.0 262.2,134.0 264.6,133.7 C267.0,133.3 269.4,132.5 271.8,132.1 C274.2,131.6 276.6,131.4 279.0,131.1 C281.4,130.9 283.8,130.6 286.2,130.4 C288.7,130.3 291.1,130.2 293.5,130.0 C295.9,129.8 298.3,129.5 300.7,129.4 C303.1,129.3 305.5,129.4 307.9,129.4 C310.3,129.4 312.7,130.2 315.1,129.4 C317.5,128.7 319.9,125.9 322.3,124.9 C324.7,124.0 327.2,124.0 329.6,123.6 C332.0,123.1 334.4,122.7 336.8,122.3 C339.2,121.9 341.6,121.3 344.0,121.0 C346.4,120.7 348.8,120.7 351.2,120.5 C353.6,120.2 356.0,119.9 358.4,119.7 C360.8,119.5 363.3,119.6 365.7,119.2 C368.1,118.9 370.5,118.0 372.9,117.6 C375.3,117.2 377.7,117.0 380.1,116.7 C382.5,116.4 384.9,115.9 387.3,115.7 C389.7,115.4 392.1,115.5 394.5,115.2 C396.9,114.9 399.3,114.3 401.8,114.0 C404.2,113.8 406.6,113.8 409.0,113.6 C411.4,113.4 413.8,113.2 416.2,112.9 C418.6,112.6 421.0,112.3 423.4,112.0 C425.8,111.7 428.2,111.4 430.6,111.1 C433.0,110.8 435.4,110.6 437.9,110.3 C440.3,109.9 442.7,109.2 445.1,108.8 C447.5,108.4 449.9,108.2 452.3,107.9 C454.7,107.5 457.1,107.2 459.5,106.8 C461.9,106.5 464.3,106.1 466.7,105.8 C469.1,105.5 471.5,105.1 474.0,104.9 C476.4,104.6 478.8,104.5 481.2,104.2 C483.6,103.8 486.0,103.3 488.4,102.8 C490.8,102.3 493.2,101.6 495.6,101.3 C498.0,101.0 500.4,101.0 502.8,100.9 C505.2,100.7 507.6,100.6 510.0,100.4 C512.5,100.2 514.9,99.9 517.3,99.6 C519.7,99.3 522.1,99.0 524.5,98.7 C526.9,98.4 529.3,98.1 531.7,97.8 C534.1,97.4 536.5,97.0 538.9,96.7 C541.3,96.4 543.7,96.2 546.1,95.9 C548.6,95.6 551.0,95.3 553.4,95.0 C555.8,94.7 558.2,94.4 560.6,94.2 C563.0,94.0 565.4,94.0 567.8,93.9 C570.2,93.7 572.6,93.4 575.0,93.3 C577.4,93.1 579.8,93.1 582.2,92.9 C584.7,92.8 587.1,92.5 589.5,92.3 C591.9,92.0 594.3,91.7 596.7,91.5 C599.1,91.2 601.5,91.0 603.9,90.8 C606.3,90.6 608.7,90.6 611.1,90.3 C613.5,90.0 615.9,89.4 618.3,89.1 C620.7,88.7 623.2,88.7 625.6,88.5 C628.0,88.2 630.4,88.0 632.8,87.6 C635.2,87.1 638.8,86.0 640.0,85.7" fill="none" class="line-openvsx" stroke-width="1.8" stroke-linecap="round" stroke-linejoin="round"/>
  <path d="M48.0,219.9 C49.2,219.9 52.8,219.9 55.2,219.8 C57.6,219.7 60.0,219.5 62.4,219.3 C64.8,219.1 67.3,218.8 69.7,218.6 C72.1,218.5 74.5,218.5 76.9,218.4 C79.3,218.3 81.7,218.2 84.1,218.1 C86.5,217.9 88.9,218.3 91.3,217.7 C93.7,217.1 96.1,214.8 98.5,214.2 C100.9,213.6 103.3,214.0 105.8,214.0 C108.2,213.9 110.6,213.9 113.0,213.8 C115.4,213.8 117.8,213.7 120.2,213.6 C122.6,213.6 125.0,213.6 127.4,213.6 C129.8,213.6 132.2,213.6 134.6,213.6 C137.0,213.6 139.4,213.6 141.9,213.6 C144.3,213.5 146.7,213.3 149.1,213.2 C151.5,213.1 153.9,213.1 156.3,213.1 C158.7,213.0 161.1,213.0 163.5,213.0 C165.9,213.0 168.3,212.9 170.7,212.9 C173.1,212.9 175.5,212.8 178.0,212.8 C180.4,212.8 182.8,212.8 185.2,212.8 C187.6,212.8 190.0,212.8 192.4,212.8 C194.8,212.8 197.2,212.7 199.6,212.7 C202.0,212.7 204.4,212.7 206.8,212.7 C209.2,212.7 211.6,212.7 214.0,212.7 C216.5,212.6 218.9,212.6 221.3,212.5 C223.7,212.5 226.1,212.5 228.5,212.4 C230.9,212.4 233.3,212.2 235.7,212.1 C238.1,212.1 240.5,212.0 242.9,212.0 C245.3,211.9 247.7,211.9 250.1,211.9 C252.6,211.8 255.0,211.8 257.4,211.8 C259.8,211.8 262.2,211.7 264.6,211.7 C267.0,211.6 269.4,211.6 271.8,211.5 C274.2,211.5 276.6,211.4 279.0,211.4 C281.4,211.4 283.8,211.3 286.2,211.3 C288.7,211.2 291.1,211.2 293.5,211.1 C295.9,211.1 298.3,211.0 300.7,211.0 C303.1,211.0 305.5,210.9 307.9,210.8 C310.3,210.8 312.7,210.8 315.1,210.8 C317.5,210.7 319.9,210.6 322.3,210.6 C324.7,210.6 327.2,210.6 329.6,210.6 C332.0,210.6 334.4,210.5 336.8,210.5 C339.2,210.5 341.6,210.5 344.0,210.5 C346.4,210.5 348.8,210.5 351.2,210.5 C353.6,210.5 356.0,210.5 358.4,210.5 C360.8,210.5 363.3,210.5 365.7,210.5 C368.1,210.5 370.5,210.5 372.9,210.5 C375.3,210.5 377.7,210.5 380.1,210.5 C382.5,210.5 384.9,210.5 387.3,210.5 C389.7,210.5 392.1,210.5 394.5,210.5 C396.9,210.5 399.3,210.5 401.8,210.5 C404.2,210.5 406.6,210.4 409.0,210.4 C411.4,210.3 413.8,210.3 416.2,210.3 C418.6,210.2 421.0,210.2 423.4,210.2 C425.8,210.2 428.2,210.2 430.6,210.1 C433.0,210.1 435.4,210.1 437.9,210.1 C440.3,210.1 442.7,210.0 445.1,210.0 C447.5,209.9 449.9,209.9 452.3,209.9 C454.7,209.8 457.1,209.8 459.5,209.8 C461.9,209.8 464.3,209.8 466.7,209.7 C469.1,209.7 471.5,209.7 474.0,209.7 C476.4,209.7 478.8,209.6 481.2,209.6 C483.6,209.6 486.0,209.6 488.4,209.6 C490.8,209.5 493.2,209.5 495.6,209.5 C498.0,209.5 500.4,209.5 502.8,209.5 C505.2,209.4 507.6,209.4 510.0,209.4 C512.5,209.4 514.9,209.4 517.3,209.3 C519.7,209.3 522.1,209.3 524.5,209.2 C526.9,209.2 529.3,209.2 531.7,209.2 C534.1,209.1 536.5,209.1 538.9,209.1 C541.3,209.1 543.7,209.1 546.1,209.0 C548.6,209.0 551.0,208.7 553.4,208.6 C555.8,208.6 558.2,208.6 560.6,208.6 C563.0,208.6 565.4,208.6 567.8,208.5 C570.2,208.5 572.6,208.5 575.0,208.5 C577.4,208.5 579.8,208.4 582.2,208.4 C584.7,208.4 587.1,208.4 589.5,208.4 C591.9,208.3 594.3,208.3 596.7,208.3 C599.1,208.3 601.5,208.3 603.9,208.3 C606.3,208.3 608.7,208.2 611.1,208.2 C613.5,208.2 615.9,208.2 618.3,208.1 C620.7,208.1 623.2,208.1 625.6,208.1 C628.0,208.1 630.4,208.0 632.8,208.0 C635.2,208.0 638.8,208.0 640.0,208.0" fill="none" class="line-vscode" stroke-width="1.8" stroke-linecap="round" stroke-linejoin="round"/>
  <path d="M48.0,219.8 C49.2,218.4 52.8,213.7 55.2,211.7 C57.6,209.7 60.0,209.1 62.4,207.7 C64.8,206.4 67.3,204.4 69.7,203.7 C72.1,203.0 74.5,205.0 76.9,203.5 C79.3,202.0 81.7,196.6 84.1,194.9 C86.5,193.2 88.9,200.1 91.3,193.2 C93.7,186.2 96.1,160.3 98.5,153.3 C100.9,146.3 103.3,151.7 105.8,151.3 C108.2,150.8 110.6,150.7 113.0,150.5 C115.4,150.3 117.8,150.2 120.2,150.1 C122.6,150.0 125.0,149.9 127.4,149.7 C129.8,149.5 132.2,149.1 134.6,148.7 C137.0,148.2 139.4,147.4 141.9,147.0 C144.3,146.5 146.7,146.3 149.1,146.1 C151.5,145.9 153.9,146.0 156.3,145.6 C158.7,145.2 161.1,144.1 163.5,143.6 C165.9,143.1 168.3,142.9 170.7,142.6 C173.1,142.3 175.5,142.0 178.0,141.7 C180.4,141.4 182.8,141.4 185.2,140.8 C187.6,140.2 190.0,138.7 192.4,138.0 C194.8,137.4 197.2,137.2 199.6,136.9 C202.0,136.6 204.4,136.4 206.8,136.2 C209.2,136.1 211.6,136.5 214.0,136.1 C216.5,135.7 218.9,134.4 221.3,133.8 C223.7,133.2 226.1,133.0 228.5,132.5 C230.9,132.1 233.3,131.8 235.7,131.1 C238.1,130.4 240.5,129.0 242.9,128.3 C245.3,127.6 247.7,127.3 250.1,126.9 C252.6,126.5 255.0,126.3 257.4,126.0 C259.8,125.8 262.2,125.8 264.6,125.3 C267.0,124.9 269.4,124.0 271.8,123.6 C274.2,123.1 276.6,122.8 279.0,122.5 C281.4,122.2 283.8,122.0 286.2,121.7 C288.7,121.5 291.1,121.3 293.5,121.1 C295.9,120.9 298.3,120.6 300.7,120.4 C303.1,120.3 305.5,120.3 307.9,120.2 C310.3,120.2 312.7,121.0 315.1,120.2 C317.5,119.4 319.9,116.5 322.3,115.5 C324.7,114.5 327.2,114.6 329.6,114.2 C332.0,113.7 334.4,113.3 336.8,112.8 C339.2,112.4 341.6,111.9 344.0,111.6 C346.4,111.3 348.8,111.2 351.2,111.0 C353.6,110.8 356.0,110.4 358.4,110.2 C360.8,110.0 363.3,110.1 365.7,109.7 C368.1,109.4 370.5,108.6 372.9,108.1 C375.3,107.7 377.7,107.6 380.1,107.2 C382.5,106.9 384.9,106.4 387.3,106.2 C389.7,105.9 392.1,106.0 394.5,105.7 C396.9,105.5 399.3,104.8 401.8,104.5 C404.2,104.2 406.6,104.2 409.0,104.0 C411.4,103.7 413.8,103.5 416.2,103.2 C418.6,102.9 421.0,102.5 423.4,102.2 C425.8,101.9 428.2,101.5 430.6,101.2 C433.0,100.9 435.4,100.8 437.9,100.3 C440.3,99.9 442.7,99.2 445.1,98.7 C447.5,98.3 449.9,98.1 452.3,97.7 C454.7,97.4 457.1,97.0 459.5,96.6 C461.9,96.3 464.3,95.9 466.7,95.5 C469.1,95.2 471.5,94.8 474.0,94.6 C476.4,94.3 478.8,94.2 481.2,93.8 C483.6,93.4 486.0,92.9 488.4,92.4 C490.8,91.9 493.2,91.2 495.6,90.8 C498.0,90.5 500.4,90.5 502.8,90.3 C505.2,90.1 507.6,90.0 510.0,89.8 C512.5,89.6 514.9,89.3 517.3,88.9 C519.7,88.6 522.1,88.2 524.5,87.9 C526.9,87.6 529.3,87.3 531.7,86.9 C534.1,86.6 536.5,86.2 538.9,85.8 C541.3,85.5 543.7,85.3 546.1,85.0 C548.6,84.6 551.0,84.0 553.4,83.7 C555.8,83.3 558.2,83.0 560.6,82.8 C563.0,82.6 565.4,82.6 567.8,82.4 C570.2,82.2 572.6,81.9 575.0,81.8 C577.4,81.6 579.8,81.6 582.2,81.4 C584.7,81.2 587.1,80.9 589.5,80.6 C591.9,80.4 594.3,80.0 596.7,79.8 C599.1,79.5 601.5,79.3 603.9,79.1 C606.3,78.9 608.7,78.8 611.1,78.5 C613.5,78.2 615.9,77.5 618.3,77.2 C620.7,76.9 623.2,76.8 625.6,76.6 C628.0,76.3 630.4,76.1 632.8,75.6 C635.2,75.1 638.8,74.0 640.0,73.7" fill="none" class="line-total" stroke-width="2.5" stroke-linecap="round" stroke-linejoin="round"/>

  <circle cx="640" cy="73.68533333333332" r="4.5" class="dot-total" stroke-width="2"/>
    <text x="658" y="77.68533333333332" class="end-label" font-family="-apple-system, BlinkMacSystemFont, 'Segoe UI', Helvetica, sans-serif">Total</text>
    <text x="697" y="77.68533333333332" class="end-value" font-family="-apple-system, BlinkMacSystemFont, 'Segoe UI', Helvetica, sans-serif">2.6k</text>
    <circle cx="640" cy="85.72533333333334" r="3.5" class="dot-openvsx" stroke-width="1.8"/>
    <text x="658" y="95.68533333333332" class="end-label" font-family="-apple-system, BlinkMacSystemFont, 'Segoe UI', Helvetica, sans-serif">Open VSX</text>
    <text x="716.8" y="95.68533333333332" class="end-value" font-family="-apple-system, BlinkMacSystemFont, 'Segoe UI', Helvetica, sans-serif">2.3k</text>
    <circle cx="640" cy="207.96" r="3.5" class="dot-vscode" stroke-width="1.8"/>
    <text x="658" y="211.96" class="end-label" font-family="-apple-system, BlinkMacSystemFont, 'Segoe UI', Helvetica, sans-serif">VS Code</text>
    <text x="710.2" y="211.96" class="end-value" font-family="-apple-system, BlinkMacSystemFont, 'Segoe UI', Helvetica, sans-serif">210</text>
</svg>