<svg xmlns="http://www.w3.org/2000/svg" viewBox="0 0 760 260" width="760" height="260" role="img" aria-label="Glassy install history">
  <style>
  svg { color-scheme: light dark; }
  .title      { fill: #1a1a2e; font-size: 15px; font-weight: 600; }
  .subtitle   { fill: #6b7280; font-size: 11px; font-weight: 400; }
  .grid       { stroke: #e8e8ee; }
  .axis-label { fill: #8a8a9a; font-size: 10px; }
  .line-total   { stroke: #e8553d; }
  .line-vscode  { stroke: #5b7cfa; }
  .line-openvsx { stroke: #34c7a0; }
  .dot-total   { fill: transparent; stroke: #e8553d; }
  .dot-vscode  { fill: transparent; stroke: #5b7cfa; }
  .dot-openvsx { fill: transparent; stroke: #34c7a0; }
  .end-label       { fill: #1a1a2e; font-size: 11px; font-weight: 600; }
  .end-value       { fill: #6b7280; font-size: 11px; font-weight: 400; }
  .area-total-top    { stop-color: #e8553d; }
  .area-total-bottom { stop-color: #e8553d; }

  @media (prefers-color-scheme: dark) {
    .title      { fill: #e2e2e8; }
    .subtitle   { fill: #8b949e; }
    .grid       { stroke: #2d2d3d; }
    .axis-label { fill: #6e7681; }
    .line-total   { stroke: #ff9b85; }
    .line-vscode  { stroke: #8da4ff; }
    .line-openvsx { stroke: #5eead4; }
    .dot-total   { stroke: #ff9b85; }
    .dot-vscode  { stroke: #8da4ff; }
    .dot-openvsx { stroke: #5eead4; }
    .end-label       { fill: #e2e2e8; }
    .end-value       { fill: #8b949e; }
    .area-total-top    { stop-color: #ff9b85; }
    .area-total-bottom { stop-color: #ff9b85; }
  }
</style>
  <defs>
    <linearGradient id="areaGrad" x1="0" y1="0" x2="0" y2="1">
      <stop offset="0%" class="area-total-top" stop-opacity="0.18"/>
      <stop offset="60%" class="area-total-bottom" stop-opacity="0.04"/>
      <stop offset="100%" class="area-total-bottom" stop-opacity="0"/>
    </linearGradient>
  </defs>

  <text x="48" y="22" class="title" font-family="-apple-system, BlinkMacSystemFont, 'Segoe UI', Helvetica, sans-serif">Installs</text>
  <text x="48" y="37" class="subtitle" font-family="-apple-system, BlinkMacSystemFont, 'Segoe UI', Helvetica, sans-serif">Updated Jun 25</text>

  <line x1="48" y1="220" x2="640" y2="220" class="grid" stroke-width="0.7"/>
    <text x="40" y="223.5" class="axis-label" text-anchor="end" font-family="-apple-system, BlinkMacSystemFont, 'Segoe UI', Helvetica, sans-serif">0</text>
    <line x1="48" y1="162.66666666666669" x2="640" y2="162.66666666666669" class="grid" stroke-width="0.7"/>
    <text x="40" y="166.16666666666669" class="axis-label" text-anchor="end" font-family="-apple-system, BlinkMacSystemFont, 'Segoe UI', Helvetica, sans-serif">1k</text>
    <line x1="48" y1="105.33333333333334" x2="640" y2="105.33333333333334" class="grid" stroke-width="0.7"/>
    <text x="40" y="108.83333333333334" class="axis-label" text-anchor="end" font-family="-apple-system, BlinkMacSystemFont, 'Segoe UI', Helvetica, sans-serif">2k</text>
    <line x1="48" y1="48" x2="640" y2="48" class="grid" stroke-width="0.7"/>
    <text x="40" y="51.5" class="axis-label" text-anchor="end" font-family="-apple-system, BlinkMacSystemFont, 'Segoe UI', Helvetica, sans-serif">3k</text>
  <text x="48" y="248" class="axis-label" text-anchor="middle" font-family="-apple-system, BlinkMacSystemFont, 'Segoe UI', Helvetica, sans-serif">Mar 27</text>
    <text x="164.45901639344262" y="248" class="axis-label" text-anchor="middle" font-family="-apple-system, BlinkMacSystemFont, 'Segoe UI', Helvetica, sans-serif">May 7</text>
    <text x="280.91803278688525" y="248" class="axis-label" text-anchor="middle" font-family="-apple-system, BlinkMacSystemFont, 'Segoe UI', Helvetica, sans-serif">May 19</text>
    <text x="407.08196721311475" y="248" class="axis-label" text-anchor="middle" font-family="-apple-system, BlinkMacSystemFont, 'Segoe UI', Helvetica, sans-serif">Jun 1</text>
    <text x="523.5409836065573" y="248" class="axis-label" text-anchor="middle" font-family="-apple-system, BlinkMacSystemFont, 'Segoe UI', Helvetica, sans-serif">Jun 13</text>
    <text x="640" y="248" class="axis-label" text-anchor="middle" font-family="-apple-system, BlinkMacSystemFont, 'Segoe UI', Helvetica, sans-serif">Jun 25</text>

  <path d="M48.0,219.8 C49.6,218.4 54.5,213.7 57.7,211.7 C60.9,209.7 64.2,209.1 67.4,207.7 C70.6,206.4 73.9,204.4 77.1,203.7 C80.3,203.0 83.6,205.0 86.8,203.5 C90.1,202.0 93.3,196.6 96.5,194.9 C99.8,193.2 103.0,200.1 106.2,193.2 C109.5,186.2 112.7,160.3 115.9,153.3 C119.2,146.3 122.4,151.7 125.6,151.3 C128.9,150.8 132.1,150.7 135.3,150.5 C138.6,150.3 141.8,150.2 145.0,150.1 C148.3,150.0 151.5,149.9 154.8,149.7 C158.0,149.5 161.2,149.1 164.5,148.7 C167.7,148.2 170.9,147.4 174.2,147.0 C177.4,146.5 180.6,146.3 183.9,146.1 C187.1,145.9 190.3,146.0 193.6,145.6 C196.8,145.2 200.0,144.1 203.3,143.6 C206.5,143.1 209.7,142.9 213.0,142.6 C216.2,142.3 219.5,142.0 222.7,141.7 C225.9,141.4 229.2,141.4 232.4,140.8 C235.6,140.2 238.9,138.7 242.1,138.0 C245.3,137.4 248.6,137.2 251.8,136.9 C255.0,136.6 258.3,136.4 261.5,136.2 C264.7,136.1 268.0,136.5 271.2,136.1 C274.4,135.7 277.7,134.4 280.9,133.8 C284.2,133.2 287.4,133.0 290.6,132.5 C293.9,132.1 297.1,131.8 300.3,131.1 C303.6,130.4 306.8,129.0 310.0,128.3 C313.3,127.6 316.5,127.3 319.7,126.9 C323.0,126.5 326.2,126.3 329.4,126.0 C332.7,125.8 335.9,125.8 339.1,125.3 C342.4,124.9 345.6,124.0 348.9,123.6 C352.1,123.1 355.3,122.8 358.6,122.5 C361.8,122.2 365.0,122.0 368.3,121.7 C371.5,121.5 374.7,121.3 378.0,121.1 C381.2,120.9 384.4,120.6 387.7,120.4 C390.9,120.3 394.1,120.3 397.4,120.2 C400.6,120.2 403.8,121.0 407.1,120.2 C410.3,119.4 413.6,116.5 416.8,115.5 C420.0,114.5 423.3,114.6 426.5,114.2 C429.7,113.7 433.0,113.3 436.2,112.8 C439.4,112.4 442.7,111.9 445.9,111.6 C449.1,111.3 452.4,111.2 455.6,111.0 C458.8,110.8 462.1,110.4 465.3,110.2 C468.5,110.0 471.8,110.1 475.0,109.7 C478.3,109.4 481.5,108.6 484.7,108.1 C488.0,107.7 491.2,107.6 494.4,107.2 C497.7,106.9 500.9,106.4 504.1,106.2 C507.4,105.9 510.6,106.0 513.8,105.7 C517.1,105.5 520.3,104.8 523.5,104.5 C526.8,104.2 530.0,104.2 533.2,104.0 C536.5,103.7 539.7,103.5 543.0,103.2 C546.2,102.9 549.4,102.5 552.7,102.2 C555.9,101.9 559.1,101.5 562.4,101.2 C565.6,100.9 568.8,100.8 572.1,100.3 C575.3,99.9 578.5,99.2 581.8,98.7 C585.0,98.3 588.2,98.1 591.5,97.7 C594.7,97.4 597.9,97.0 601.2,96.6 C604.4,96.3 607.7,95.9 610.9,95.5 C614.1,95.2 617.4,94.8 620.6,94.6 C623.8,94.3 627.1,94.2 630.3,93.8 C633.5,93.4 638.4,92.6 640.0,92.4 L640.0,220.0 L48.0,220.0 Z" fill="url(#areaGrad)"/>
  <path d="M48.0,219.8 C49.6,218.5 54.5,213.8 57.7,211.9 C60.9,210.0 64.2,209.5 67.4,208.4 C70.6,207.3 73.9,205.6 77.1,205.1 C80.3,204.5 83.6,206.5 86.8,205.1 C90.1,203.7 93.3,198.4 96.5,196.8 C99.8,195.2 103.0,201.7 106.2,195.5 C109.5,189.2 112.7,165.5 115.9,159.1 C119.2,152.7 122.4,157.7 125.6,157.3 C128.9,156.9 132.1,156.8 135.3,156.7 C138.6,156.6 141.8,156.6 145.0,156.5 C148.3,156.4 151.5,156.4 154.8,156.1 C158.0,155.9 161.2,155.6 164.5,155.1 C167.7,154.6 170.9,153.7 174.2,153.4 C177.4,153.0 180.6,153.1 183.9,152.9 C187.1,152.8 190.3,153.0 193.6,152.6 C196.8,152.2 200.0,151.1 203.3,150.6 C206.5,150.1 209.7,150.0 213.0,149.7 C216.2,149.4 219.5,149.2 222.7,148.9 C225.9,148.6 229.2,148.6 232.4,148.0 C235.6,147.4 238.9,145.9 242.1,145.2 C245.3,144.6 248.6,144.5 251.8,144.2 C255.0,143.9 258.3,143.7 261.5,143.5 C264.7,143.4 268.0,143.8 271.2,143.4 C274.4,143.0 277.7,141.8 280.9,141.2 C284.2,140.7 287.4,140.5 290.6,140.1 C293.9,139.7 297.1,139.6 300.3,138.9 C303.6,138.3 306.8,136.9 310.0,136.3 C313.3,135.6 316.5,135.4 319.7,135.0 C323.0,134.7 326.2,134.5 329.4,134.2 C332.7,134.0 335.9,134.0 339.1,133.7 C342.4,133.3 345.6,132.5 348.9,132.1 C352.1,131.6 355.3,131.4 358.6,131.1 C361.8,130.9 365.0,130.6 368.3,130.4 C371.5,130.3 374.7,130.2 378.0,130.0 C381.2,129.8 384.4,129.5 387.7,129.4 C390.9,129.3 394.1,129.4 397.4,129.4 C400.6,129.4 403.8,130.2 407.1,129.4 C410.3,128.7 413.6,125.9 416.8,124.9 C420.0,124.0 423.3,124.0 426.5,123.6 C429.7,123.1 433.0,122.7 436.2,122.3 C439.4,121.9 442.7,121.3 445.9,121.0 C449.1,120.7 452.4,120.7 455.6,120.5 C458.8,120.2 462.1,119.9 465.3,119.7 C468.5,119.5 471.8,119.6 475.0,119.2 C478.3,118.9 481.5,118.0 484.7,117.6 C488.0,117.2 491.2,117.0 494.4,116.7 C497.7,116.4 500.9,115.9 504.1,115.7 C507.4,115.4 510.6,115.5 513.8,115.2 C517.1,114.9 520.3,114.3 523.5,114.0 C526.8,113.8 530.0,113.8 533.2,113.6 C536.5,113.4 539.7,113.2 543.0,112.9 C546.2,112.6 549.4,112.3 552.7,112.0 C555.9,111.7 559.1,111.4 562.4,111.1 C565.6,110.8 568.8,110.6 572.1,110.3 C575.3,109.9 578.5,109.2 581.8,108.8 C585.0,108.4 588.2,108.2 591.5,107.9 C594.7,107.5 597.9,107.2 601.2,106.8 C604.4,106.5 607.7,106.1 610.9,105.8 C614.1,105.5 617.4,105.1 620.6,104.9 C623.8,104.6 627.1,104.5 630.3,104.2 C633.5,103.8 638.4,103.0 640.0,102.8" fill="none" class="line-openvsx" stroke-width="1.8" stroke-linecap="round" stroke-linejoin="round"/>
  <path d="M48.0,219.9 C49.6,219.9 54.5,219.9 57.7,219.8 C60.9,219.7 64.2,219.5 67.4,219.3 C70.6,219.1 73.9,218.8 77.1,218.6 C80.3,218.5 83.6,218.5 86.8,218.4 C90.1,218.3 93.3,218.2 96.5,218.1 C99.8,217.9 103.0,218.3 106.2,217.7 C109.5,217.1 112.7,214.8 115.9,214.2 C119.2,213.6 122.4,214.0 125.6,214.0 C128.9,213.9 132.1,213.9 135.3,213.8 C138.6,213.8 141.8,213.7 145.0,213.6 C148.3,213.6 151.5,213.6 154.8,213.6 C158.0,213.6 161.2,213.6 164.5,213.6 C167.7,213.6 170.9,213.6 174.2,213.6 C177.4,213.5 180.6,213.3 183.9,213.2 C187.1,213.1 190.3,213.1 193.6,213.1 C196.8,213.0 200.0,213.0 203.3,213.0 C206.5,213.0 209.7,212.9 213.0,212.9 C216.2,212.9 219.5,212.8 222.7,212.8 C225.9,212.8 229.2,212.8 232.4,212.8 C235.6,212.8 238.9,212.8 242.1,212.8 C245.3,212.8 248.6,212.7 251.8,212.7 C255.0,212.7 258.3,212.7 261.5,212.7 C264.7,212.7 268.0,212.7 271.2,212.7 C274.4,212.6 277.7,212.6 280.9,212.5 C284.2,212.5 287.4,212.5 290.6,212.4 C293.9,212.4 297.1,212.2 300.3,212.1 C303.6,212.1 306.8,212.0 310.0,212.0 C313.3,211.9 316.5,211.9 319.7,211.9 C323.0,211.8 326.2,211.8 329.4,211.8 C332.7,211.8 335.9,211.7 339.1,211.7 C342.4,211.6 345.6,211.6 348.9,211.5 C352.1,211.5 355.3,211.4 358.6,211.4 C361.8,211.4 365.0,211.3 368.3,211.3 C371.5,211.2 374.7,211.2 378.0,211.1 C381.2,211.1 384.4,211.0 387.7,211.0 C390.9,211.0 394.1,210.9 397.4,210.8 C400.6,210.8 403.8,210.8 407.1,210.8 C410.3,210.7 413.6,210.6 416.8,210.6 C420.0,210.6 423.3,210.6 426.5,210.6 C429.7,210.6 433.0,210.5 436.2,210.5 C439.4,210.5 442.7,210.5 445.9,210.5 C449.1,210.5 452.4,210.5 455.6,210.5 C458.8,210.5 462.1,210.5 465.3,210.5 C468.5,210.5 471.8,210.5 475.0,210.5 C478.3,210.5 481.5,210.5 484.7,210.5 C488.0,210.5 491.2,210.5 494.4,210.5 C497.7,210.5 500.9,210.5 504.1,210.5 C507.4,210.5 510.6,210.5 513.8,210.5 C517.1,210.5 520.3,210.5 523.5,210.5 C526.8,210.5 530.0,210.4 533.2,210.4 C536.5,210.3 539.7,210.3 543.0,210.3 C546.2,210.2 549.4,210.2 552.7,210.2 C555.9,210.2 559.1,210.2 562.4,210.1 C565.6,210.1 568.8,210.1 572.1,210.1 C575.3,210.1 578.5,210.0 581.8,210.0 C585.0,209.9 588.2,209.9 591.5,209.9 C594.7,209.8 597.9,209.8 601.2,209.8 C604.4,209.8 607.7,209.8 610.9,209.7 C614.1,209.7 617.4,209.7 620.6,209.7 C623.8,209.7 627.1,209.6 630.3,209.6 C633.5,209.6 638.4,209.6 640.0,209.6" fill="none" class="line-vscode" stroke-width="1.8" stroke-linecap="round" stroke-linejoin="round"/>
  <path d="M48.0,219.8 C49.6,218.4 54.5,213.7 57.7,211.7 C60.9,209.7 64.2,209.1 67.4,207.7 C70.6,206.4 73.9,204.4 77.1,203.7 C80.3,203.0 83.6,205.0 86.8,203.5 C90.1,202.0 93.3,196.6 96.5,194.9 C99.8,193.2 103.0,200.1 106.2,193.2 C109.5,186.2 112.7,160.3 115.9,153.3 C119.2,146.3 122.4,151.7 125.6,151.3 C128.9,150.8 132.1,150.7 135.3,150.5 C138.6,150.3 141.8,150.2 145.0,150.1 C148.3,150.0 151.5,149.9 154.8,149.7 C158.0,149.5 161.2,149.1 164.5,148.7 C167.7,148.2 170.9,147.4 174.2,147.0 C177.4,146.5 180.6,146.3 183.9,146.1 C187.1,145.9 190.3,146.0 193.6,145.6 C196.8,145.2 200.0,144.1 203.3,143.6 C206.5,143.1 209.7,142.9 213.0,142.6 C216.2,142.3 219.5,142.0 222.7,141.7 C225.9,141.4 229.2,141.4 232.4,140.8 C235.6,140.2 238.9,138.7 242.1,138.0 C245.3,137.4 248.6,137.2 251.8,136.9 C255.0,136.6 258.3,136.4 261.5,136.2 C264.7,136.1 268.0,136.5 271.2,136.1 C274.4,135.7 277.7,134.4 280.9,133.8 C284.2,133.2 287.4,133.0 290.6,132.5 C293.9,132.1 297.1,131.8 300.3,131.1 C303.6,130.4 306.8,129.0 310.0,128.3 C313.3,127.6 316.5,127.3 319.7,126.9 C323.0,126.5 326.2,126.3 329.4,126.0 C332.7,125.8 335.9,125.8 339.1,125.3 C342.4,124.9 345.6,124.0 348.9,123.6 C352.1,123.1 355.3,122.8 358.6,122.5 C361.8,122.2 365.0,122.0 368.3,121.7 C371.5,121.5 374.7,121.3 378.0,121.1 C381.2,120.9 384.4,120.6 387.7,120.4 C390.9,120.3 394.1,120.3 397.4,120.2 C400.6,120.2 403.8,121.0 407.1,120.2 C410.3,119.4 413.6,116.5 416.8,115.5 C420.0,114.5 423.3,114.6 426.5,114.2 C429.7,113.7 433.0,113.3 436.2,112.8 C439.4,112.4 442.7,111.9 445.9,111.6 C449.1,111.3 452.4,111.2 455.6,111.0 C458.8,110.8 462.1,110.4 465.3,110.2 C468.5,110.0 471.8,110.1 475.0,109.7 C478.3,109.4 481.5,108.6 484.7,108.1 C488.0,107.7 491.2,107.6 494.4,107.2 C497.7,106.9 500.9,106.4 504.1,106.2 C507.4,105.9 510.6,106.0 513.8,105.7 C517.1,105.5 520.3,104.8 523.5,104.5 C526.8,104.2 530.0,104.2 533.2,104.0 C536.5,103.7 539.7,103.5 543.0,103.2 C546.2,102.9 549.4,102.5 552.7,102.2 C555.9,101.9 559.1,101.5 562.4,101.2 C565.6,100.9 568.8,100.8 572.1,100.3 C575.3,99.9 578.5,99.2 581.8,98.7 C585.0,98.3 588.2,98.1 591.5,97.7 C594.7,97.4 597.9,97.0 601.2,96.6 C604.4,96.3 607.7,95.9 610.9,95.5 C614.1,95.2 617.4,94.8 620.6,94.6 C623.8,94.3 627.1,94.2 630.3,93.8 C633.5,93.4 638.4,92.6 640.0,92.4" fill="none" class="line-total" stroke-width="2.5" stroke-linecap="round" stroke-linejoin="round"/>

  <circle cx="640" cy="92.376" r="4.5" class="dot-total" stroke-width="2"/>
    <text x="658" y="96.376" class="end-label" font-family="-apple-system, BlinkMacSystemFont, 'Segoe UI', Helvetica, sans-serif">Total</text>
    <text x="697" y="96.376" class="end-value" font-family="-apple-system, BlinkMacSystemFont, 'Segoe UI', Helvetica, sans-serif">2.2k</text>
    <circle cx="640" cy="102.81066666666666" r="3.5" class="dot-openvsx" stroke-width="1.8"/>
    <text x="658" y="114.376" class="end-label" font-family="-apple-system, BlinkMacSystemFont, 'Segoe UI', Helvetica, sans-serif">Open VSX</text>
    <text x="716.8" y="114.376" class="end-value" font-family="-apple-system, BlinkMacSystemFont, 'Segoe UI', Helvetica, sans-serif">2k</text>
    <circle cx="640" cy="209.56533333333334" r="3.5" class="dot-vscode" stroke-width="1.8"/>
    <text x="658" y="213.56533333333334" class="end-label" font-family="-apple-system, BlinkMacSystemFont, 'Segoe UI', Helvetica, sans-serif">VS Code</text>
    <text x="710.2" y="213.56533333333334" class="end-value" font-family="-apple-system, BlinkMacSystemFont, 'Segoe UI', Helvetica, sans-serif">182</text>
</svg>