<svg xmlns="http://www.w3.org/2000/svg" viewBox="0 0 760 260" width="760" height="260" role="img" aria-label="Glassy install history">
  <style>
  svg { color-scheme: light dark; }
  .title      { fill: #1a1a2e; font-size: 15px; font-weight: 600; }
  .subtitle   { fill: #6b7280; font-size: 11px; font-weight: 400; }
  .grid       { stroke: #e8e8ee; }
  .axis-label { fill: #8a8a9a; font-size: 10px; }
  .line-total   { stroke: #e8553d; }
  .line-vscode  { stroke: #5b7cfa; }
  .line-openvsx { stroke: #34c7a0; }
  .dot-total   { fill: transparent; stroke: #e8553d; }
  .dot-vscode  { fill: transparent; stroke: #5b7cfa; }
  .dot-openvsx { fill: transparent; stroke: #34c7a0; }
  .end-label       { fill: #1a1a2e; font-size: 11px; font-weight: 600; }
  .end-value       { fill: #6b7280; font-size: 11px; font-weight: 400; }
  .area-total-top    { stop-color: #e8553d; }
  .area-total-bottom { stop-color: #e8553d; }

  @media (prefers-color-scheme: dark) {
    .title      { fill: #e2e2e8; }
    .subtitle   { fill: #8b949e; }
    .grid       { stroke: #2d2d3d; }
    .axis-label { fill: #6e7681; }
    .line-total   { stroke: #ff9b85; }
    .line-vscode  { stroke: #8da4ff; }
    .line-openvsx { stroke: #5eead4; }
    .dot-total   { stroke: #ff9b85; }
    .dot-vscode  { stroke: #8da4ff; }
    .dot-openvsx { stroke: #5eead4; }
    .end-label       { fill: #e2e2e8; }
    .end-value       { fill: #8b949e; }
    .area-total-top    { stop-color: #ff9b85; }
    .area-total-bottom { stop-color: #ff9b85; }
  }
</style>
  <defs>
    <linearGradient id="areaGrad" x1="0" y1="0" x2="0" y2="1">
      <stop offset="0%" class="area-total-top" stop-opacity="0.18"/>
      <stop offset="60%" class="area-total-bottom" stop-opacity="0.04"/>
      <stop offset="100%" class="area-total-bottom" stop-opacity="0"/>
    </linearGradient>
  </defs>

  <text x="48" y="22" class="title" font-family="-apple-system, BlinkMacSystemFont, 'Segoe UI', Helvetica, sans-serif">Installs</text>
  <text x="48" y="37" class="subtitle" font-family="-apple-system, BlinkMacSystemFont, 'Segoe UI', Helvetica, sans-serif">Updated Jul 19</text>

  <line x1="48" y1="220" x2="640" y2="220" class="grid" stroke-width="0.7"/>
    <text x="40" y="223.5" class="axis-label" text-anchor="end" font-family="-apple-system, BlinkMacSystemFont, 'Segoe UI', Helvetica, sans-serif">0</text>
    <line x1="48" y1="162.66666666666669" x2="640" y2="162.66666666666669" class="grid" stroke-width="0.7"/>
    <text x="40" y="166.16666666666669" class="axis-label" text-anchor="end" font-family="-apple-system, BlinkMacSystemFont, 'Segoe UI', Helvetica, sans-serif">1k</text>
    <line x1="48" y1="105.33333333333334" x2="640" y2="105.33333333333334" class="grid" stroke-width="0.7"/>
    <text x="40" y="108.83333333333334" class="axis-label" text-anchor="end" font-family="-apple-system, BlinkMacSystemFont, 'Segoe UI', Helvetica, sans-serif">2k</text>
    <line x1="48" y1="48" x2="640" y2="48" class="grid" stroke-width="0.7"/>
    <text x="40" y="51.5" class="axis-label" text-anchor="end" font-family="-apple-system, BlinkMacSystemFont, 'Segoe UI', Helvetica, sans-serif">3k</text>
  <text x="48" y="248" class="axis-label" text-anchor="middle" font-family="-apple-system, BlinkMacSystemFont, 'Segoe UI', Helvetica, sans-serif">Mar 27</text>
    <text x="166.4" y="248" class="axis-label" text-anchor="middle" font-family="-apple-system, BlinkMacSystemFont, 'Segoe UI', Helvetica, sans-serif">May 12</text>
    <text x="284.8" y="248" class="axis-label" text-anchor="middle" font-family="-apple-system, BlinkMacSystemFont, 'Segoe UI', Helvetica, sans-serif">May 29</text>
    <text x="403.2" y="248" class="axis-label" text-anchor="middle" font-family="-apple-system, BlinkMacSystemFont, 'Segoe UI', Helvetica, sans-serif">Jun 15</text>
    <text x="521.6" y="248" class="axis-label" text-anchor="middle" font-family="-apple-system, BlinkMacSystemFont, 'Segoe UI', Helvetica, sans-serif">Jul 2</text>
    <text x="640" y="248" class="axis-label" text-anchor="middle" font-family="-apple-system, BlinkMacSystemFont, 'Segoe UI', Helvetica, sans-serif">Jul 19</text>

  <path d="M48.0,219.8 C49.2,218.4 52.6,213.7 55.0,211.7 C57.3,209.7 59.6,209.1 61.9,207.7 C64.3,206.4 66.6,204.4 68.9,203.7 C71.2,203.0 73.5,205.0 75.9,203.5 C78.2,202.0 80.5,196.6 82.8,194.9 C85.1,193.2 87.5,200.1 89.8,193.2 C92.1,186.2 94.4,160.3 96.8,153.3 C99.1,146.3 101.4,151.7 103.7,151.3 C106.0,150.8 108.4,150.7 110.7,150.5 C113.0,150.3 115.3,150.2 117.6,150.1 C120.0,150.0 122.3,149.9 124.6,149.7 C126.9,149.5 129.3,149.1 131.6,148.7 C133.9,148.2 136.2,147.4 138.5,147.0 C140.9,146.5 143.2,146.3 145.5,146.1 C147.8,145.9 150.1,146.0 152.5,145.6 C154.8,145.2 157.1,144.1 159.4,143.6 C161.8,143.1 164.1,142.9 166.4,142.6 C168.7,142.3 171.0,142.0 173.4,141.7 C175.7,141.4 178.0,141.4 180.3,140.8 C182.7,140.2 185.0,138.7 187.3,138.0 C189.6,137.4 191.9,137.2 194.3,136.9 C196.6,136.6 198.9,136.4 201.2,136.2 C203.5,136.1 205.9,136.5 208.2,136.1 C210.5,135.7 212.8,134.4 215.2,133.8 C217.5,133.2 219.8,133.0 222.1,132.5 C224.4,132.1 226.8,131.8 229.1,131.1 C231.4,130.4 233.7,129.0 236.0,128.3 C238.4,127.6 240.7,127.3 243.0,126.9 C245.3,126.5 247.7,126.3 250.0,126.0 C252.3,125.8 254.6,125.8 256.9,125.3 C259.3,124.9 261.6,124.0 263.9,123.6 C266.2,123.1 268.5,122.8 270.9,122.5 C273.2,122.2 275.5,122.0 277.8,121.7 C280.2,121.5 282.5,121.3 284.8,121.1 C287.1,120.9 289.4,120.6 291.8,120.4 C294.1,120.3 296.4,120.3 298.7,120.2 C301.1,120.2 303.4,121.0 305.7,120.2 C308.0,119.4 310.3,116.5 312.7,115.5 C315.0,114.5 317.3,114.6 319.6,114.2 C321.9,113.7 324.3,113.3 326.6,112.8 C328.9,112.4 331.2,111.9 333.6,111.6 C335.9,111.3 338.2,111.2 340.5,111.0 C342.8,110.8 345.2,110.4 347.5,110.2 C349.8,110.0 352.1,110.1 354.4,109.7 C356.8,109.4 359.1,108.6 361.4,108.1 C363.7,107.7 366.1,107.6 368.4,107.2 C370.7,106.9 373.0,106.4 375.3,106.2 C377.7,105.9 380.0,106.0 382.3,105.7 C384.6,105.5 386.9,104.8 389.3,104.5 C391.6,104.2 393.9,104.2 396.2,104.0 C398.6,103.7 400.9,103.5 403.2,103.2 C405.5,102.9 407.8,102.5 410.2,102.2 C412.5,101.9 414.8,101.5 417.1,101.2 C419.5,100.9 421.8,100.8 424.1,100.3 C426.4,99.9 428.7,99.2 431.1,98.7 C433.4,98.3 435.7,98.1 438.0,97.7 C440.3,97.4 442.7,97.0 445.0,96.6 C447.3,96.3 449.6,95.9 452.0,95.5 C454.3,95.2 456.6,94.8 458.9,94.6 C461.2,94.3 463.6,94.2 465.9,93.8 C468.2,93.4 470.5,92.9 472.8,92.4 C475.2,91.9 477.5,91.2 479.8,90.8 C482.1,90.5 484.5,90.5 486.8,90.3 C489.1,90.1 491.4,90.0 493.7,89.8 C496.1,89.6 498.4,89.3 500.7,88.9 C503.0,88.6 505.3,88.2 507.7,87.9 C510.0,87.6 512.3,87.3 514.6,86.9 C517.0,86.6 519.3,86.2 521.6,85.8 C523.9,85.5 526.2,85.3 528.6,85.0 C530.9,84.6 533.2,84.0 535.5,83.7 C537.9,83.3 540.2,83.0 542.5,82.8 C544.8,82.6 547.1,82.6 549.5,82.4 C551.8,82.2 554.1,81.9 556.4,81.8 C558.7,81.6 561.1,81.6 563.4,81.4 C565.7,81.2 568.0,80.9 570.4,80.6 C572.7,80.4 575.0,80.0 577.3,79.8 C579.6,79.5 582.0,79.3 584.3,79.1 C586.6,78.9 588.9,78.8 591.2,78.5 C593.6,78.2 595.9,77.5 598.2,77.2 C600.5,76.9 602.9,76.8 605.2,76.6 C607.5,76.3 609.8,76.1 612.1,75.6 C614.5,75.1 616.8,74.5 619.1,73.7 C621.4,72.9 623.7,71.5 626.1,70.9 C628.4,70.3 630.7,70.4 633.0,70.1 C635.4,69.9 638.8,69.6 640.0,69.5 L640.0,220.0 L48.0,220.0 Z" fill="url(#areaGrad)"/>
  <path d="M48.0,219.8 C49.2,218.5 52.6,213.8 55.0,211.9 C57.3,210.0 59.6,209.5 61.9,208.4 C64.3,207.3 66.6,205.6 68.9,205.1 C71.2,204.5 73.5,206.5 75.9,205.1 C78.2,203.7 80.5,198.4 82.8,196.8 C85.1,195.2 87.5,201.7 89.8,195.5 C92.1,189.2 94.4,165.5 96.8,159.1 C99.1,152.7 101.4,157.7 103.7,157.3 C106.0,156.9 108.4,156.8 110.7,156.7 C113.0,156.6 115.3,156.6 117.6,156.5 C120.0,156.4 122.3,156.4 124.6,156.1 C126.9,155.9 129.3,155.6 131.6,155.1 C133.9,154.6 136.2,153.7 138.5,153.4 C140.9,153.0 143.2,153.1 145.5,152.9 C147.8,152.8 150.1,153.0 152.5,152.6 C154.8,152.2 157.1,151.1 159.4,150.6 C161.8,150.1 164.1,150.0 166.4,149.7 C168.7,149.4 171.0,149.2 173.4,148.9 C175.7,148.6 178.0,148.6 180.3,148.0 C182.7,147.4 185.0,145.9 187.3,145.2 C189.6,144.6 191.9,144.5 194.3,144.2 C196.6,143.9 198.9,143.7 201.2,143.5 C203.5,143.4 205.9,143.8 208.2,143.4 C210.5,143.0 212.8,141.8 215.2,141.2 C217.5,140.7 219.8,140.5 222.1,140.1 C224.4,139.7 226.8,139.6 229.1,138.9 C231.4,138.3 233.7,136.9 236.0,136.3 C238.4,135.6 240.7,135.4 243.0,135.0 C245.3,134.7 247.7,134.5 250.0,134.2 C252.3,134.0 254.6,134.0 256.9,133.7 C259.3,133.3 261.6,132.5 263.9,132.1 C266.2,131.6 268.5,131.4 270.9,131.1 C273.2,130.9 275.5,130.6 277.8,130.4 C280.2,130.3 282.5,130.2 284.8,130.0 C287.1,129.8 289.4,129.5 291.8,129.4 C294.1,129.3 296.4,129.4 298.7,129.4 C301.1,129.4 303.4,130.2 305.7,129.4 C308.0,128.7 310.3,125.9 312.7,124.9 C315.0,124.0 317.3,124.0 319.6,123.6 C321.9,123.1 324.3,122.7 326.6,122.3 C328.9,121.9 331.2,121.3 333.6,121.0 C335.9,120.7 338.2,120.7 340.5,120.5 C342.8,120.2 345.2,119.9 347.5,119.7 C349.8,119.5 352.1,119.6 354.4,119.2 C356.8,118.9 359.1,118.0 361.4,117.6 C363.7,117.2 366.1,117.0 368.4,116.7 C370.7,116.4 373.0,115.9 375.3,115.7 C377.7,115.4 380.0,115.5 382.3,115.2 C384.6,114.9 386.9,114.3 389.3,114.0 C391.6,113.8 393.9,113.8 396.2,113.6 C398.6,113.4 400.9,113.2 403.2,112.9 C405.5,112.6 407.8,112.3 410.2,112.0 C412.5,111.7 414.8,111.4 417.1,111.1 C419.5,110.8 421.8,110.6 424.1,110.3 C426.4,109.9 428.7,109.2 431.1,108.8 C433.4,108.4 435.7,108.2 438.0,107.9 C440.3,107.5 442.7,107.2 445.0,106.8 C447.3,106.5 449.6,106.1 452.0,105.8 C454.3,105.5 456.6,105.1 458.9,104.9 C461.2,104.6 463.6,104.5 465.9,104.2 C468.2,103.8 470.5,103.3 472.8,102.8 C475.2,102.3 477.5,101.6 479.8,101.3 C482.1,101.0 484.5,101.0 486.8,100.9 C489.1,100.7 491.4,100.6 493.7,100.4 C496.1,100.2 498.4,99.9 500.7,99.6 C503.0,99.3 505.3,99.0 507.7,98.7 C510.0,98.4 512.3,98.1 514.6,97.8 C517.0,97.4 519.3,97.0 521.6,96.7 C523.9,96.4 526.2,96.2 528.6,95.9 C530.9,95.6 533.2,95.3 535.5,95.0 C537.9,94.7 540.2,94.4 542.5,94.2 C544.8,94.0 547.1,94.0 549.5,93.9 C551.8,93.7 554.1,93.4 556.4,93.3 C558.7,93.1 561.1,93.1 563.4,92.9 C565.7,92.8 568.0,92.5 570.4,92.3 C572.7,92.0 575.0,91.7 577.3,91.5 C579.6,91.2 582.0,91.0 584.3,90.8 C586.6,90.6 588.9,90.6 591.2,90.3 C593.6,90.0 595.9,89.4 598.2,89.1 C600.5,88.7 602.9,88.7 605.2,88.5 C607.5,88.2 609.8,88.0 612.1,87.6 C614.5,87.1 616.8,86.5 619.1,85.7 C621.4,85.0 623.7,83.5 626.1,83.0 C628.4,82.4 630.7,82.5 633.0,82.3 C635.4,82.1 638.8,81.8 640.0,81.7" fill="none" class="line-openvsx" stroke-width="1.8" stroke-linecap="round" stroke-linejoin="round"/>
  <path d="M48.0,219.9 C49.2,219.9 52.6,219.9 55.0,219.8 C57.3,219.7 59.6,219.5 61.9,219.3 C64.3,219.1 66.6,218.8 68.9,218.6 C71.2,218.5 73.5,218.5 75.9,218.4 C78.2,218.3 80.5,218.2 82.8,218.1 C85.1,217.9 87.5,218.3 89.8,217.7 C92.1,217.1 94.4,214.8 96.8,214.2 C99.1,213.6 101.4,214.0 103.7,214.0 C106.0,213.9 108.4,213.9 110.7,213.8 C113.0,213.8 115.3,213.7 117.6,213.6 C120.0,213.6 122.3,213.6 124.6,213.6 C126.9,213.6 129.3,213.6 131.6,213.6 C133.9,213.6 136.2,213.6 138.5,213.6 C140.9,213.5 143.2,213.3 145.5,213.2 C147.8,213.1 150.1,213.1 152.5,213.1 C154.8,213.0 157.1,213.0 159.4,213.0 C161.8,213.0 164.1,212.9 166.4,212.9 C168.7,212.9 171.0,212.8 173.4,212.8 C175.7,212.8 178.0,212.8 180.3,212.8 C182.7,212.8 185.0,212.8 187.3,212.8 C189.6,212.8 191.9,212.7 194.3,212.7 C196.6,212.7 198.9,212.7 201.2,212.7 C203.5,212.7 205.9,212.7 208.2,212.7 C210.5,212.6 212.8,212.6 215.2,212.5 C217.5,212.5 219.8,212.5 222.1,212.4 C224.4,212.4 226.8,212.2 229.1,212.1 C231.4,212.1 233.7,212.0 236.0,212.0 C238.4,211.9 240.7,211.9 243.0,211.9 C245.3,211.8 247.7,211.8 250.0,211.8 C252.3,211.8 254.6,211.7 256.9,211.7 C259.3,211.6 261.6,211.6 263.9,211.5 C266.2,211.5 268.5,211.4 270.9,211.4 C273.2,211.4 275.5,211.3 277.8,211.3 C280.2,211.2 282.5,211.2 284.8,211.1 C287.1,211.1 289.4,211.0 291.8,211.0 C294.1,211.0 296.4,210.9 298.7,210.8 C301.1,210.8 303.4,210.8 305.7,210.8 C308.0,210.7 310.3,210.6 312.7,210.6 C315.0,210.6 317.3,210.6 319.6,210.6 C321.9,210.6 324.3,210.5 326.6,210.5 C328.9,210.5 331.2,210.5 333.6,210.5 C335.9,210.5 338.2,210.5 340.5,210.5 C342.8,210.5 345.2,210.5 347.5,210.5 C349.8,210.5 352.1,210.5 354.4,210.5 C356.8,210.5 359.1,210.5 361.4,210.5 C363.7,210.5 366.1,210.5 368.4,210.5 C370.7,210.5 373.0,210.5 375.3,210.5 C377.7,210.5 380.0,210.5 382.3,210.5 C384.6,210.5 386.9,210.5 389.3,210.5 C391.6,210.5 393.9,210.4 396.2,210.4 C398.6,210.3 400.9,210.3 403.2,210.3 C405.5,210.2 407.8,210.2 410.2,210.2 C412.5,210.2 414.8,210.2 417.1,210.1 C419.5,210.1 421.8,210.1 424.1,210.1 C426.4,210.1 428.7,210.0 431.1,210.0 C433.4,209.9 435.7,209.9 438.0,209.9 C440.3,209.8 442.7,209.8 445.0,209.8 C447.3,209.8 449.6,209.8 452.0,209.7 C454.3,209.7 456.6,209.7 458.9,209.7 C461.2,209.7 463.6,209.6 465.9,209.6 C468.2,209.6 470.5,209.6 472.8,209.6 C475.2,209.5 477.5,209.5 479.8,209.5 C482.1,209.5 484.5,209.5 486.8,209.5 C489.1,209.4 491.4,209.4 493.7,209.4 C496.1,209.4 498.4,209.4 500.7,209.3 C503.0,209.3 505.3,209.3 507.7,209.2 C510.0,209.2 512.3,209.2 514.6,209.2 C517.0,209.1 519.3,209.1 521.6,209.1 C523.9,209.1 526.2,209.1 528.6,209.0 C530.9,209.0 533.2,208.7 535.5,208.6 C537.9,208.6 540.2,208.6 542.5,208.6 C544.8,208.6 547.1,208.6 549.5,208.5 C551.8,208.5 554.1,208.5 556.4,208.5 C558.7,208.5 561.1,208.4 563.4,208.4 C565.7,208.4 568.0,208.4 570.4,208.4 C572.7,208.3 575.0,208.3 577.3,208.3 C579.6,208.3 582.0,208.3 584.3,208.3 C586.6,208.3 588.9,208.2 591.2,208.2 C593.6,208.2 595.9,208.2 598.2,208.1 C600.5,208.1 602.9,208.1 605.2,208.1 C607.5,208.1 609.8,208.0 612.1,208.0 C614.5,208.0 616.8,208.0 619.1,208.0 C621.4,207.9 623.7,207.9 626.1,207.9 C628.4,207.9 630.7,207.9 633.0,207.8 C635.4,207.8 638.8,207.8 640.0,207.8" fill="none" class="line-vscode" stroke-width="1.8" stroke-linecap="round" stroke-linejoin="round"/>
  <path d="M48.0,219.8 C49.2,218.4 52.6,213.7 55.0,211.7 C57.3,209.7 59.6,209.1 61.9,207.7 C64.3,206.4 66.6,204.4 68.9,203.7 C71.2,203.0 73.5,205.0 75.9,203.5 C78.2,202.0 80.5,196.6 82.8,194.9 C85.1,193.2 87.5,200.1 89.8,193.2 C92.1,186.2 94.4,160.3 96.8,153.3 C99.1,146.3 101.4,151.7 103.7,151.3 C106.0,150.8 108.4,150.7 110.7,150.5 C113.0,150.3 115.3,150.2 117.6,150.1 C120.0,150.0 122.3,149.9 124.6,149.7 C126.9,149.5 129.3,149.1 131.6,148.7 C133.9,148.2 136.2,147.4 138.5,147.0 C140.9,146.5 143.2,146.3 145.5,146.1 C147.8,145.9 150.1,146.0 152.5,145.6 C154.8,145.2 157.1,144.1 159.4,143.6 C161.8,143.1 164.1,142.9 166.4,142.6 C168.7,142.3 171.0,142.0 173.4,141.7 C175.7,141.4 178.0,141.4 180.3,140.8 C182.7,140.2 185.0,138.7 187.3,138.0 C189.6,137.4 191.9,137.2 194.3,136.9 C196.6,136.6 198.9,136.4 201.2,136.2 C203.5,136.1 205.9,136.5 208.2,136.1 C210.5,135.7 212.8,134.4 215.2,133.8 C217.5,133.2 219.8,133.0 222.1,132.5 C224.4,132.1 226.8,131.8 229.1,131.1 C231.4,130.4 233.7,129.0 236.0,128.3 C238.4,127.6 240.7,127.3 243.0,126.9 C245.3,126.5 247.7,126.3 250.0,126.0 C252.3,125.8 254.6,125.8 256.9,125.3 C259.3,124.9 261.6,124.0 263.9,123.6 C266.2,123.1 268.5,122.8 270.9,122.5 C273.2,122.2 275.5,122.0 277.8,121.7 C280.2,121.5 282.5,121.3 284.8,121.1 C287.1,120.9 289.4,120.6 291.8,120.4 C294.1,120.3 296.4,120.3 298.7,120.2 C301.1,120.2 303.4,121.0 305.7,120.2 C308.0,119.4 310.3,116.5 312.7,115.5 C315.0,114.5 317.3,114.6 319.6,114.2 C321.9,113.7 324.3,113.3 326.6,112.8 C328.9,112.4 331.2,111.9 333.6,111.6 C335.9,111.3 338.2,111.2 340.5,111.0 C342.8,110.8 345.2,110.4 347.5,110.2 C349.8,110.0 352.1,110.1 354.4,109.7 C356.8,109.4 359.1,108.6 361.4,108.1 C363.7,107.7 366.1,107.6 368.4,107.2 C370.7,106.9 373.0,106.4 375.3,106.2 C377.7,105.9 380.0,106.0 382.3,105.7 C384.6,105.5 386.9,104.8 389.3,104.5 C391.6,104.2 393.9,104.2 396.2,104.0 C398.6,103.7 400.9,103.5 403.2,103.2 C405.5,102.9 407.8,102.5 410.2,102.2 C412.5,101.9 414.8,101.5 417.1,101.2 C419.5,100.9 421.8,100.8 424.1,100.3 C426.4,99.9 428.7,99.2 431.1,98.7 C433.4,98.3 435.7,98.1 438.0,97.7 C440.3,97.4 442.7,97.0 445.0,96.6 C447.3,96.3 449.6,95.9 452.0,95.5 C454.3,95.2 456.6,94.8 458.9,94.6 C461.2,94.3 463.6,94.2 465.9,93.8 C468.2,93.4 470.5,92.9 472.8,92.4 C475.2,91.9 477.5,91.2 479.8,90.8 C482.1,90.5 484.5,90.5 486.8,90.3 C489.1,90.1 491.4,90.0 493.7,89.8 C496.1,89.6 498.4,89.3 500.7,88.9 C503.0,88.6 505.3,88.2 507.7,87.9 C510.0,87.6 512.3,87.3 514.6,86.9 C517.0,86.6 519.3,86.2 521.6,85.8 C523.9,85.5 526.2,85.3 528.6,85.0 C530.9,84.6 533.2,84.0 535.5,83.7 C537.9,83.3 540.2,83.0 542.5,82.8 C544.8,82.6 547.1,82.6 549.5,82.4 C551.8,82.2 554.1,81.9 556.4,81.8 C558.7,81.6 561.1,81.6 563.4,81.4 C565.7,81.2 568.0,80.9 570.4,80.6 C572.7,80.4 575.0,80.0 577.3,79.8 C579.6,79.5 582.0,79.3 584.3,79.1 C586.6,78.9 588.9,78.8 591.2,78.5 C593.6,78.2 595.9,77.5 598.2,77.2 C600.5,76.9 602.9,76.8 605.2,76.6 C607.5,76.3 609.8,76.1 612.1,75.6 C614.5,75.1 616.8,74.5 619.1,73.7 C621.4,72.9 623.7,71.5 626.1,70.9 C628.4,70.3 630.7,70.4 633.0,70.1 C635.4,69.9 638.8,69.6 640.0,69.5" fill="none" class="line-total" stroke-width="2.5" stroke-linecap="round" stroke-linejoin="round"/>

  <circle cx="640" cy="69.5" r="4.5" class="dot-total" stroke-width="2"/>
    <text x="658" y="73.5" class="end-label" font-family="-apple-system, BlinkMacSystemFont, 'Segoe UI', Helvetica, sans-serif">Total</text>
    <text x="697" y="73.5" class="end-value" font-family="-apple-system, BlinkMacSystemFont, 'Segoe UI', Helvetica, sans-serif">2.6k</text>
    <circle cx="640" cy="81.71199999999999" r="3.5" class="dot-openvsx" stroke-width="1.8"/>
    <text x="658" y="91.5" class="end-label" font-family="-apple-system, BlinkMacSystemFont, 'Segoe UI', Helvetica, sans-serif">Open VSX</text>
    <text x="716.8" y="91.5" class="end-value" font-family="-apple-system, BlinkMacSystemFont, 'Segoe UI', Helvetica, sans-serif">2.4k</text>
    <circle cx="640" cy="207.788" r="3.5" class="dot-vscode" stroke-width="1.8"/>
    <text x="658" y="211.788" class="end-label" font-family="-apple-system, BlinkMacSystemFont, 'Segoe UI', Helvetica, sans-serif">VS Code</text>
    <text x="710.2" y="211.788" class="end-value" font-family="-apple-system, BlinkMacSystemFont, 'Segoe UI', Helvetica, sans-serif">213</text>
</svg>