<svg xmlns="http://www.w3.org/2000/svg" viewBox="0 0 760 260" width="760" height="260" role="img" aria-label="Glassy install history">
  <style>
  svg { color-scheme: light dark; }
  .title      { fill: #1a1a2e; font-size: 15px; font-weight: 600; }
  .subtitle   { fill: #6b7280; font-size: 11px; font-weight: 400; }
  .grid       { stroke: #e8e8ee; }
  .axis-label { fill: #8a8a9a; font-size: 10px; }
  .line-total   { stroke: #e8553d; }
  .line-vscode  { stroke: #5b7cfa; }
  .line-openvsx { stroke: #34c7a0; }
  .dot-total   { fill: transparent; stroke: #e8553d; }
  .dot-vscode  { fill: transparent; stroke: #5b7cfa; }
  .dot-openvsx { fill: transparent; stroke: #34c7a0; }
  .end-label       { fill: #1a1a2e; font-size: 11px; font-weight: 600; }
  .end-value       { fill: #6b7280; font-size: 11px; font-weight: 400; }
  .area-total-top    { stop-color: #e8553d; }
  .area-total-bottom { stop-color: #e8553d; }

  @media (prefers-color-scheme: dark) {
    .title      { fill: #e2e2e8; }
    .subtitle   { fill: #8b949e; }
    .grid       { stroke: #2d2d3d; }
    .axis-label { fill: #6e7681; }
    .line-total   { stroke: #ff9b85; }
    .line-vscode  { stroke: #8da4ff; }
    .line-openvsx { stroke: #5eead4; }
    .dot-total   { stroke: #ff9b85; }
    .dot-vscode  { stroke: #8da4ff; }
    .dot-openvsx { stroke: #5eead4; }
    .end-label       { fill: #e2e2e8; }
    .end-value       { fill: #8b949e; }
    .area-total-top    { stop-color: #ff9b85; }
    .area-total-bottom { stop-color: #ff9b85; }
  }
</style>
  <defs>
    <linearGradient id="areaGrad" x1="0" y1="0" x2="0" y2="1">
      <stop offset="0%" class="area-total-top" stop-opacity="0.18"/>
      <stop offset="60%" class="area-total-bottom" stop-opacity="0.04"/>
      <stop offset="100%" class="area-total-bottom" stop-opacity="0"/>
    </linearGradient>
  </defs>

  <text x="48" y="22" class="title" font-family="-apple-system, BlinkMacSystemFont, 'Segoe UI', Helvetica, sans-serif">Installs</text>
  <text x="48" y="37" class="subtitle" font-family="-apple-system, BlinkMacSystemFont, 'Segoe UI', Helvetica, sans-serif">Updated May 19</text>

  <line x1="48" y1="220" x2="640" y2="220" class="grid" stroke-width="0.7"/>
    <text x="40" y="223.5" class="axis-label" text-anchor="end" font-family="-apple-system, BlinkMacSystemFont, 'Segoe UI', Helvetica, sans-serif">0</text>
    <line x1="48" y1="177" x2="640" y2="177" class="grid" stroke-width="0.7"/>
    <text x="40" y="180.5" class="axis-label" text-anchor="end" font-family="-apple-system, BlinkMacSystemFont, 'Segoe UI', Helvetica, sans-serif">500</text>
    <line x1="48" y1="134" x2="640" y2="134" class="grid" stroke-width="0.7"/>
    <text x="40" y="137.5" class="axis-label" text-anchor="end" font-family="-apple-system, BlinkMacSystemFont, 'Segoe UI', Helvetica, sans-serif">1k</text>
    <line x1="48" y1="91" x2="640" y2="91" class="grid" stroke-width="0.7"/>
    <text x="40" y="94.5" class="axis-label" text-anchor="end" font-family="-apple-system, BlinkMacSystemFont, 'Segoe UI', Helvetica, sans-serif">1.5k</text>
    <line x1="48" y1="48" x2="640" y2="48" class="grid" stroke-width="0.7"/>
    <text x="40" y="51.5" class="axis-label" text-anchor="end" font-family="-apple-system, BlinkMacSystemFont, 'Segoe UI', Helvetica, sans-serif">2k</text>
  <text x="48" y="248" class="axis-label" text-anchor="middle" font-family="-apple-system, BlinkMacSystemFont, 'Segoe UI', Helvetica, sans-serif">Mar 27</text>
    <text x="171.33333333333334" y="248" class="axis-label" text-anchor="middle" font-family="-apple-system, BlinkMacSystemFont, 'Segoe UI', Helvetica, sans-serif">Apr 1</text>
    <text x="294.6666666666667" y="248" class="axis-label" text-anchor="middle" font-family="-apple-system, BlinkMacSystemFont, 'Segoe UI', Helvetica, sans-serif">May 5</text>
    <text x="393.33333333333337" y="248" class="axis-label" text-anchor="middle" font-family="-apple-system, BlinkMacSystemFont, 'Segoe UI', Helvetica, sans-serif">May 9</text>
    <text x="516.6666666666666" y="248" class="axis-label" text-anchor="middle" font-family="-apple-system, BlinkMacSystemFont, 'Segoe UI', Helvetica, sans-serif">May 14</text>
    <text x="640" y="248" class="axis-label" text-anchor="middle" font-family="-apple-system, BlinkMacSystemFont, 'Segoe UI', Helvetica, sans-serif">May 19</text>

  <path d="M48.0,219.7 C52.1,217.6 64.4,210.5 72.7,207.5 C80.9,204.5 89.1,203.6 97.3,201.6 C105.6,199.6 113.8,196.6 122.0,195.6 C130.2,194.5 138.4,197.4 146.7,195.2 C154.9,193.0 163.1,184.9 171.3,182.3 C179.6,179.8 187.8,190.1 196.0,179.8 C204.2,169.4 212.4,130.5 220.7,120.0 C228.9,109.5 237.1,117.6 245.3,116.9 C253.6,116.2 261.8,116.1 270.0,115.8 C278.2,115.5 286.4,115.4 294.7,115.2 C302.9,115.0 311.1,114.9 319.3,114.6 C327.6,114.2 335.8,113.7 344.0,113.0 C352.2,112.3 360.4,111.1 368.7,110.4 C376.9,109.8 385.1,109.5 393.3,109.1 C401.6,108.8 409.8,109.1 418.0,108.5 C426.2,107.8 434.4,106.2 442.7,105.4 C450.9,104.7 459.1,104.4 467.3,103.9 C475.6,103.4 483.8,103.1 492.0,102.6 C500.2,102.2 508.4,102.2 516.7,101.2 C524.9,100.3 533.1,98.0 541.3,97.0 C549.6,96.0 557.8,95.8 566.0,95.4 C574.2,94.9 582.4,94.6 590.7,94.4 C598.9,94.1 607.1,94.7 615.3,94.1 C623.6,93.5 635.9,91.2 640.0,90.7 L640.0,220.0 L48.0,220.0 Z" fill="url(#areaGrad)"/>
  <path d="M48.0,219.7 C52.1,217.7 64.4,210.6 72.7,207.8 C80.9,204.9 89.1,204.3 97.3,202.6 C105.6,200.9 113.8,198.5 122.0,197.6 C130.2,196.8 138.4,199.7 146.7,197.6 C154.9,195.6 163.1,187.7 171.3,185.3 C179.6,182.8 187.8,192.6 196.0,183.2 C204.2,173.8 212.4,138.2 220.7,128.7 C228.9,119.1 237.1,126.5 245.3,125.9 C253.6,125.3 261.8,125.3 270.0,125.1 C278.2,124.9 286.4,124.9 294.7,124.7 C302.9,124.6 311.1,124.5 319.3,124.2 C327.6,123.9 335.8,123.3 344.0,122.6 C352.2,122.0 360.4,120.6 368.7,120.1 C376.9,119.5 385.1,119.6 393.3,119.4 C401.6,119.2 409.8,119.4 418.0,118.9 C426.2,118.3 434.4,116.7 442.7,115.9 C450.9,115.2 459.1,115.0 467.3,114.6 C475.6,114.1 483.8,113.8 492.0,113.4 C500.2,112.9 508.4,112.9 516.7,112.0 C524.9,111.1 533.1,108.8 541.3,107.9 C549.6,106.9 557.8,106.7 566.0,106.3 C574.2,105.9 582.4,105.5 590.7,105.3 C598.9,105.1 607.1,105.7 615.3,105.1 C623.6,104.5 635.9,102.4 640.0,101.8" fill="none" class="line-openvsx" stroke-width="1.8" stroke-linecap="round" stroke-linejoin="round"/>
  <path d="M48.0,219.9 C52.1,219.9 64.4,219.9 72.7,219.7 C80.9,219.6 89.1,219.3 97.3,219.0 C105.6,218.7 113.8,218.2 122.0,217.9 C130.2,217.7 138.4,217.7 146.7,217.6 C154.9,217.4 163.1,217.2 171.3,217.1 C179.6,216.9 187.8,217.5 196.0,216.6 C204.2,215.6 212.4,212.2 220.7,211.3 C228.9,210.4 237.1,211.1 245.3,211.0 C253.6,210.9 261.8,210.8 270.0,210.7 C278.2,210.6 286.4,210.5 294.7,210.5 C302.9,210.4 311.1,210.4 319.3,210.4 C327.6,210.4 335.8,210.4 344.0,210.4 C352.2,210.4 360.4,210.5 368.7,210.4 C376.9,210.3 385.1,209.9 393.3,209.8 C401.6,209.6 409.8,209.6 418.0,209.6 C426.2,209.6 434.4,209.6 442.7,209.5 C450.9,209.5 459.1,209.4 467.3,209.3 C475.6,209.3 483.8,209.3 492.0,209.3 C500.2,209.2 508.4,209.3 516.7,209.3 C524.9,209.2 533.1,209.2 541.3,209.2 C549.6,209.1 557.8,209.1 566.0,209.1 C574.2,209.1 582.4,209.1 590.7,209.1 C598.9,209.1 607.1,209.0 615.3,209.0 C623.6,208.9 635.9,208.8 640.0,208.8" fill="none" class="line-vscode" stroke-width="1.8" stroke-linecap="round" stroke-linejoin="round"/>
  <path d="M48.0,219.7 C52.1,217.6 64.4,210.5 72.7,207.5 C80.9,204.5 89.1,203.6 97.3,201.6 C105.6,199.6 113.8,196.6 122.0,195.6 C130.2,194.5 138.4,197.4 146.7,195.2 C154.9,193.0 163.1,184.9 171.3,182.3 C179.6,179.8 187.8,190.1 196.0,179.8 C204.2,169.4 212.4,130.5 220.7,120.0 C228.9,109.5 237.1,117.6 245.3,116.9 C253.6,116.2 261.8,116.1 270.0,115.8 C278.2,115.5 286.4,115.4 294.7,115.2 C302.9,115.0 311.1,114.9 319.3,114.6 C327.6,114.2 335.8,113.7 344.0,113.0 C352.2,112.3 360.4,111.1 368.7,110.4 C376.9,109.8 385.1,109.5 393.3,109.1 C401.6,108.8 409.8,109.1 418.0,108.5 C426.2,107.8 434.4,106.2 442.7,105.4 C450.9,104.7 459.1,104.4 467.3,103.9 C475.6,103.4 483.8,103.1 492.0,102.6 C500.2,102.2 508.4,102.2 516.7,101.2 C524.9,100.3 533.1,98.0 541.3,97.0 C549.6,96.0 557.8,95.8 566.0,95.4 C574.2,94.9 582.4,94.6 590.7,94.4 C598.9,94.1 607.1,94.7 615.3,94.1 C623.6,93.5 635.9,91.2 640.0,90.7" fill="none" class="line-total" stroke-width="2.5" stroke-linecap="round" stroke-linejoin="round"/>

  <circle cx="640" cy="90.656" r="4.5" class="dot-total" stroke-width="2"/>
    <text x="658" y="94.656" class="end-label" font-family="-apple-system, BlinkMacSystemFont, 'Segoe UI', Helvetica, sans-serif">Total</text>
    <text x="697" y="94.656" class="end-value" font-family="-apple-system, BlinkMacSystemFont, 'Segoe UI', Helvetica, sans-serif">1.5k</text>
    <circle cx="640" cy="101.83599999999998" r="3.5" class="dot-openvsx" stroke-width="1.8"/>
    <text x="658" y="112.656" class="end-label" font-family="-apple-system, BlinkMacSystemFont, 'Segoe UI', Helvetica, sans-serif">Open VSX</text>
    <text x="716.8" y="112.656" class="end-value" font-family="-apple-system, BlinkMacSystemFont, 'Segoe UI', Helvetica, sans-serif">1.4k</text>
    <circle cx="640" cy="208.82" r="3.5" class="dot-vscode" stroke-width="1.8"/>
    <text x="658" y="212.82" class="end-label" font-family="-apple-system, BlinkMacSystemFont, 'Segoe UI', Helvetica, sans-serif">VS Code</text>
    <text x="710.2" y="212.82" class="end-value" font-family="-apple-system, BlinkMacSystemFont, 'Segoe UI', Helvetica, sans-serif">130</text>
</svg>