<svg xmlns="http://www.w3.org/2000/svg" viewBox="0 0 760 260" width="760" height="260" role="img" aria-label="Glassy install history">
  <style>
  svg { color-scheme: light dark; }
  .title      { fill: #1a1a2e; font-size: 15px; font-weight: 600; }
  .subtitle   { fill: #6b7280; font-size: 11px; font-weight: 400; }
  .grid       { stroke: #e8e8ee; }
  .axis-label { fill: #8a8a9a; font-size: 10px; }
  .line-total   { stroke: #e8553d; }
  .line-vscode  { stroke: #5b7cfa; }
  .line-openvsx { stroke: #34c7a0; }
  .dot-total   { fill: transparent; stroke: #e8553d; }
  .dot-vscode  { fill: transparent; stroke: #5b7cfa; }
  .dot-openvsx { fill: transparent; stroke: #34c7a0; }
  .end-label       { fill: #1a1a2e; font-size: 11px; font-weight: 600; }
  .end-value       { fill: #6b7280; font-size: 11px; font-weight: 400; }
  .area-total-top    { stop-color: #e8553d; }
  .area-total-bottom { stop-color: #e8553d; }

  @media (prefers-color-scheme: dark) {
    .title      { fill: #e2e2e8; }
    .subtitle   { fill: #8b949e; }
    .grid       { stroke: #2d2d3d; }
    .axis-label { fill: #6e7681; }
    .line-total   { stroke: #ff9b85; }
    .line-vscode  { stroke: #8da4ff; }
    .line-openvsx { stroke: #5eead4; }
    .dot-total   { stroke: #ff9b85; }
    .dot-vscode  { stroke: #8da4ff; }
    .dot-openvsx { stroke: #5eead4; }
    .end-label       { fill: #e2e2e8; }
    .end-value       { fill: #8b949e; }
    .area-total-top    { stop-color: #ff9b85; }
    .area-total-bottom { stop-color: #ff9b85; }
  }
</style>
  <defs>
    <linearGradient id="areaGrad" x1="0" y1="0" x2="0" y2="1">
      <stop offset="0%" class="area-total-top" stop-opacity="0.18"/>
      <stop offset="60%" class="area-total-bottom" stop-opacity="0.04"/>
      <stop offset="100%" class="area-total-bottom" stop-opacity="0"/>
    </linearGradient>
  </defs>

  <text x="48" y="22" class="title" font-family="-apple-system, BlinkMacSystemFont, 'Segoe UI', Helvetica, sans-serif">Installs</text>
  <text x="48" y="37" class="subtitle" font-family="-apple-system, BlinkMacSystemFont, 'Segoe UI', Helvetica, sans-serif">Updated Jul 13</text>

  <line x1="48" y1="220" x2="640" y2="220" class="grid" stroke-width="0.7"/>
    <text x="40" y="223.5" class="axis-label" text-anchor="end" font-family="-apple-system, BlinkMacSystemFont, 'Segoe UI', Helvetica, sans-serif">0</text>
    <line x1="48" y1="162.66666666666669" x2="640" y2="162.66666666666669" class="grid" stroke-width="0.7"/>
    <text x="40" y="166.16666666666669" class="axis-label" text-anchor="end" font-family="-apple-system, BlinkMacSystemFont, 'Segoe UI', Helvetica, sans-serif">1k</text>
    <line x1="48" y1="105.33333333333334" x2="640" y2="105.33333333333334" class="grid" stroke-width="0.7"/>
    <text x="40" y="108.83333333333334" class="axis-label" text-anchor="end" font-family="-apple-system, BlinkMacSystemFont, 'Segoe UI', Helvetica, sans-serif">2k</text>
    <line x1="48" y1="48" x2="640" y2="48" class="grid" stroke-width="0.7"/>
    <text x="40" y="51.5" class="axis-label" text-anchor="end" font-family="-apple-system, BlinkMacSystemFont, 'Segoe UI', Helvetica, sans-serif">3k</text>
  <text x="48" y="248" class="axis-label" text-anchor="middle" font-family="-apple-system, BlinkMacSystemFont, 'Segoe UI', Helvetica, sans-serif">Mar 27</text>
    <text x="167.8987341772152" y="248" class="axis-label" text-anchor="middle" font-family="-apple-system, BlinkMacSystemFont, 'Segoe UI', Helvetica, sans-serif">May 11</text>
    <text x="287.7974683544304" y="248" class="axis-label" text-anchor="middle" font-family="-apple-system, BlinkMacSystemFont, 'Segoe UI', Helvetica, sans-serif">May 27</text>
    <text x="400.2025316455696" y="248" class="axis-label" text-anchor="middle" font-family="-apple-system, BlinkMacSystemFont, 'Segoe UI', Helvetica, sans-serif">Jun 11</text>
    <text x="520.1012658227849" y="248" class="axis-label" text-anchor="middle" font-family="-apple-system, BlinkMacSystemFont, 'Segoe UI', Helvetica, sans-serif">Jun 27</text>
    <text x="640" y="248" class="axis-label" text-anchor="middle" font-family="-apple-system, BlinkMacSystemFont, 'Segoe UI', Helvetica, sans-serif">Jul 13</text>

  <path d="M48.0,219.8 C49.2,218.4 53.0,213.7 55.5,211.7 C58.0,209.7 60.5,209.1 63.0,207.7 C65.5,206.4 68.0,204.4 70.5,203.7 C73.0,203.0 75.5,205.0 78.0,203.5 C80.5,202.0 83.0,196.6 85.5,194.9 C88.0,193.2 90.5,200.1 93.0,193.2 C95.5,186.2 98.0,160.3 100.5,153.3 C103.0,146.3 105.5,151.7 107.9,151.3 C110.4,150.8 112.9,150.7 115.4,150.5 C117.9,150.3 120.4,150.2 122.9,150.1 C125.4,150.0 127.9,149.9 130.4,149.7 C132.9,149.5 135.4,149.1 137.9,148.7 C140.4,148.2 142.9,147.4 145.4,147.0 C147.9,146.5 150.4,146.3 152.9,146.1 C155.4,145.9 157.9,146.0 160.4,145.6 C162.9,145.2 165.4,144.1 167.9,143.6 C170.4,143.1 172.9,142.9 175.4,142.6 C177.9,142.3 180.4,142.0 182.9,141.7 C185.4,141.4 187.9,141.4 190.4,140.8 C192.9,140.2 195.4,138.7 197.9,138.0 C200.4,137.4 202.9,137.2 205.4,136.9 C207.9,136.6 210.4,136.4 212.9,136.2 C215.4,136.1 217.9,136.5 220.4,136.1 C222.9,135.7 225.4,134.4 227.8,133.8 C230.3,133.2 232.8,133.0 235.3,132.5 C237.8,132.1 240.3,131.8 242.8,131.1 C245.3,130.4 247.8,129.0 250.3,128.3 C252.8,127.6 255.3,127.3 257.8,126.9 C260.3,126.5 262.8,126.3 265.3,126.0 C267.8,125.8 270.3,125.8 272.8,125.3 C275.3,124.9 277.8,124.0 280.3,123.6 C282.8,123.1 285.3,122.8 287.8,122.5 C290.3,122.2 292.8,122.0 295.3,121.7 C297.8,121.5 300.3,121.3 302.8,121.1 C305.3,120.9 307.8,120.6 310.3,120.4 C312.8,120.3 315.3,120.3 317.8,120.2 C320.3,120.2 322.8,121.0 325.3,120.2 C327.8,119.4 330.3,116.5 332.8,115.5 C335.3,114.5 337.8,114.6 340.3,114.2 C342.8,113.7 345.2,113.3 347.7,112.8 C350.2,112.4 352.7,111.9 355.2,111.6 C357.7,111.3 360.2,111.2 362.7,111.0 C365.2,110.8 367.7,110.4 370.2,110.2 C372.7,110.0 375.2,110.1 377.7,109.7 C380.2,109.4 382.7,108.6 385.2,108.1 C387.7,107.7 390.2,107.6 392.7,107.2 C395.2,106.9 397.7,106.4 400.2,106.2 C402.7,105.9 405.2,106.0 407.7,105.7 C410.2,105.5 412.7,104.8 415.2,104.5 C417.7,104.2 420.2,104.2 422.7,104.0 C425.2,103.7 427.7,103.5 430.2,103.2 C432.7,102.9 435.2,102.5 437.7,102.2 C440.2,101.9 442.7,101.5 445.2,101.2 C447.7,100.9 450.2,100.8 452.7,100.3 C455.2,99.9 457.7,99.2 460.2,98.7 C462.6,98.3 465.1,98.1 467.6,97.7 C470.1,97.4 472.6,97.0 475.1,96.6 C477.6,96.3 480.1,95.9 482.6,95.5 C485.1,95.2 487.6,94.8 490.1,94.6 C492.6,94.3 495.1,94.2 497.6,93.8 C500.1,93.4 502.6,92.9 505.1,92.4 C507.6,91.9 510.1,91.2 512.6,90.8 C515.1,90.5 517.6,90.5 520.1,90.3 C522.6,90.1 525.1,90.0 527.6,89.8 C530.1,89.6 532.6,89.3 535.1,88.9 C537.6,88.6 540.1,88.2 542.6,87.9 C545.1,87.6 547.6,87.3 550.1,86.9 C552.6,86.6 555.1,86.2 557.6,85.8 C560.1,85.5 562.6,85.3 565.1,85.0 C567.6,84.6 570.1,84.0 572.6,83.7 C575.1,83.3 577.6,83.0 580.1,82.8 C582.5,82.6 585.0,82.6 587.5,82.4 C590.0,82.2 592.5,81.9 595.0,81.8 C597.5,81.6 600.0,81.6 602.5,81.4 C605.0,81.2 607.5,80.9 610.0,80.6 C612.5,80.4 615.0,80.0 617.5,79.8 C620.0,79.5 622.5,79.3 625.0,79.1 C627.5,78.9 630.0,78.8 632.5,78.5 C635.0,78.2 638.8,77.4 640.0,77.2 L640.0,220.0 L48.0,220.0 Z" fill="url(#areaGrad)"/>
  <path d="M48.0,219.8 C49.2,218.5 53.0,213.8 55.5,211.9 C58.0,210.0 60.5,209.5 63.0,208.4 C65.5,207.3 68.0,205.6 70.5,205.1 C73.0,204.5 75.5,206.5 78.0,205.1 C80.5,203.7 83.0,198.4 85.5,196.8 C88.0,195.2 90.5,201.7 93.0,195.5 C95.5,189.2 98.0,165.5 100.5,159.1 C103.0,152.7 105.5,157.7 107.9,157.3 C110.4,156.9 112.9,156.8 115.4,156.7 C117.9,156.6 120.4,156.6 122.9,156.5 C125.4,156.4 127.9,156.4 130.4,156.1 C132.9,155.9 135.4,155.6 137.9,155.1 C140.4,154.6 142.9,153.7 145.4,153.4 C147.9,153.0 150.4,153.1 152.9,152.9 C155.4,152.8 157.9,153.0 160.4,152.6 C162.9,152.2 165.4,151.1 167.9,150.6 C170.4,150.1 172.9,150.0 175.4,149.7 C177.9,149.4 180.4,149.2 182.9,148.9 C185.4,148.6 187.9,148.6 190.4,148.0 C192.9,147.4 195.4,145.9 197.9,145.2 C200.4,144.6 202.9,144.5 205.4,144.2 C207.9,143.9 210.4,143.7 212.9,143.5 C215.4,143.4 217.9,143.8 220.4,143.4 C222.9,143.0 225.4,141.8 227.8,141.2 C230.3,140.7 232.8,140.5 235.3,140.1 C237.8,139.7 240.3,139.6 242.8,138.9 C245.3,138.3 247.8,136.9 250.3,136.3 C252.8,135.6 255.3,135.4 257.8,135.0 C260.3,134.7 262.8,134.5 265.3,134.2 C267.8,134.0 270.3,134.0 272.8,133.7 C275.3,133.3 277.8,132.5 280.3,132.1 C282.8,131.6 285.3,131.4 287.8,131.1 C290.3,130.9 292.8,130.6 295.3,130.4 C297.8,130.3 300.3,130.2 302.8,130.0 C305.3,129.8 307.8,129.5 310.3,129.4 C312.8,129.3 315.3,129.4 317.8,129.4 C320.3,129.4 322.8,130.2 325.3,129.4 C327.8,128.7 330.3,125.9 332.8,124.9 C335.3,124.0 337.8,124.0 340.3,123.6 C342.8,123.1 345.2,122.7 347.7,122.3 C350.2,121.9 352.7,121.3 355.2,121.0 C357.7,120.7 360.2,120.7 362.7,120.5 C365.2,120.2 367.7,119.9 370.2,119.7 C372.7,119.5 375.2,119.6 377.7,119.2 C380.2,118.9 382.7,118.0 385.2,117.6 C387.7,117.2 390.2,117.0 392.7,116.7 C395.2,116.4 397.7,115.9 400.2,115.7 C402.7,115.4 405.2,115.5 407.7,115.2 C410.2,114.9 412.7,114.3 415.2,114.0 C417.7,113.8 420.2,113.8 422.7,113.6 C425.2,113.4 427.7,113.2 430.2,112.9 C432.7,112.6 435.2,112.3 437.7,112.0 C440.2,111.7 442.7,111.4 445.2,111.1 C447.7,110.8 450.2,110.6 452.7,110.3 C455.2,109.9 457.7,109.2 460.2,108.8 C462.6,108.4 465.1,108.2 467.6,107.9 C470.1,107.5 472.6,107.2 475.1,106.8 C477.6,106.5 480.1,106.1 482.6,105.8 C485.1,105.5 487.6,105.1 490.1,104.9 C492.6,104.6 495.1,104.5 497.6,104.2 C500.1,103.8 502.6,103.3 505.1,102.8 C507.6,102.3 510.1,101.6 512.6,101.3 C515.1,101.0 517.6,101.0 520.1,100.9 C522.6,100.7 525.1,100.6 527.6,100.4 C530.1,100.2 532.6,99.9 535.1,99.6 C537.6,99.3 540.1,99.0 542.6,98.7 C545.1,98.4 547.6,98.1 550.1,97.8 C552.6,97.4 555.1,97.0 557.6,96.7 C560.1,96.4 562.6,96.2 565.1,95.9 C567.6,95.6 570.1,95.3 572.6,95.0 C575.1,94.7 577.6,94.4 580.1,94.2 C582.5,94.0 585.0,94.0 587.5,93.9 C590.0,93.7 592.5,93.4 595.0,93.3 C597.5,93.1 600.0,93.1 602.5,92.9 C605.0,92.8 607.5,92.5 610.0,92.3 C612.5,92.0 615.0,91.7 617.5,91.5 C620.0,91.2 622.5,91.0 625.0,90.8 C627.5,90.6 630.0,90.6 632.5,90.3 C635.0,90.0 638.8,89.3 640.0,89.1" fill="none" class="line-openvsx" stroke-width="1.8" stroke-linecap="round" stroke-linejoin="round"/>
  <path d="M48.0,219.9 C49.2,219.9 53.0,219.9 55.5,219.8 C58.0,219.7 60.5,219.5 63.0,219.3 C65.5,219.1 68.0,218.8 70.5,218.6 C73.0,218.5 75.5,218.5 78.0,218.4 C80.5,218.3 83.0,218.2 85.5,218.1 C88.0,217.9 90.5,218.3 93.0,217.7 C95.5,217.1 98.0,214.8 100.5,214.2 C103.0,213.6 105.5,214.0 107.9,214.0 C110.4,213.9 112.9,213.9 115.4,213.8 C117.9,213.8 120.4,213.7 122.9,213.6 C125.4,213.6 127.9,213.6 130.4,213.6 C132.9,213.6 135.4,213.6 137.9,213.6 C140.4,213.6 142.9,213.6 145.4,213.6 C147.9,213.5 150.4,213.3 152.9,213.2 C155.4,213.1 157.9,213.1 160.4,213.1 C162.9,213.0 165.4,213.0 167.9,213.0 C170.4,213.0 172.9,212.9 175.4,212.9 C177.9,212.9 180.4,212.8 182.9,212.8 C185.4,212.8 187.9,212.8 190.4,212.8 C192.9,212.8 195.4,212.8 197.9,212.8 C200.4,212.8 202.9,212.7 205.4,212.7 C207.9,212.7 210.4,212.7 212.9,212.7 C215.4,212.7 217.9,212.7 220.4,212.7 C222.9,212.6 225.4,212.6 227.8,212.5 C230.3,212.5 232.8,212.5 235.3,212.4 C237.8,212.4 240.3,212.2 242.8,212.1 C245.3,212.1 247.8,212.0 250.3,212.0 C252.8,211.9 255.3,211.9 257.8,211.9 C260.3,211.8 262.8,211.8 265.3,211.8 C267.8,211.8 270.3,211.7 272.8,211.7 C275.3,211.6 277.8,211.6 280.3,211.5 C282.8,211.5 285.3,211.4 287.8,211.4 C290.3,211.4 292.8,211.3 295.3,211.3 C297.8,211.2 300.3,211.2 302.8,211.1 C305.3,211.1 307.8,211.0 310.3,211.0 C312.8,211.0 315.3,210.9 317.8,210.8 C320.3,210.8 322.8,210.8 325.3,210.8 C327.8,210.7 330.3,210.6 332.8,210.6 C335.3,210.6 337.8,210.6 340.3,210.6 C342.8,210.6 345.2,210.5 347.7,210.5 C350.2,210.5 352.7,210.5 355.2,210.5 C357.7,210.5 360.2,210.5 362.7,210.5 C365.2,210.5 367.7,210.5 370.2,210.5 C372.7,210.5 375.2,210.5 377.7,210.5 C380.2,210.5 382.7,210.5 385.2,210.5 C387.7,210.5 390.2,210.5 392.7,210.5 C395.2,210.5 397.7,210.5 400.2,210.5 C402.7,210.5 405.2,210.5 407.7,210.5 C410.2,210.5 412.7,210.5 415.2,210.5 C417.7,210.5 420.2,210.4 422.7,210.4 C425.2,210.3 427.7,210.3 430.2,210.3 C432.7,210.2 435.2,210.2 437.7,210.2 C440.2,210.2 442.7,210.2 445.2,210.1 C447.7,210.1 450.2,210.1 452.7,210.1 C455.2,210.1 457.7,210.0 460.2,210.0 C462.6,209.9 465.1,209.9 467.6,209.9 C470.1,209.8 472.6,209.8 475.1,209.8 C477.6,209.8 480.1,209.8 482.6,209.7 C485.1,209.7 487.6,209.7 490.1,209.7 C492.6,209.7 495.1,209.6 497.6,209.6 C500.1,209.6 502.6,209.6 505.1,209.6 C507.6,209.5 510.1,209.5 512.6,209.5 C515.1,209.5 517.6,209.5 520.1,209.5 C522.6,209.4 525.1,209.4 527.6,209.4 C530.1,209.4 532.6,209.4 535.1,209.3 C537.6,209.3 540.1,209.3 542.6,209.2 C545.1,209.2 547.6,209.2 550.1,209.2 C552.6,209.1 555.1,209.1 557.6,209.1 C560.1,209.1 562.6,209.1 565.1,209.0 C567.6,209.0 570.1,208.7 572.6,208.6 C575.1,208.6 577.6,208.6 580.1,208.6 C582.5,208.6 585.0,208.6 587.5,208.5 C590.0,208.5 592.5,208.5 595.0,208.5 C597.5,208.5 600.0,208.4 602.5,208.4 C605.0,208.4 607.5,208.4 610.0,208.4 C612.5,208.3 615.0,208.3 617.5,208.3 C620.0,208.3 622.5,208.3 625.0,208.3 C627.5,208.3 630.0,208.2 632.5,208.2 C635.0,208.2 638.8,208.1 640.0,208.1" fill="none" class="line-vscode" stroke-width="1.8" stroke-linecap="round" stroke-linejoin="round"/>
  <path d="M48.0,219.8 C49.2,218.4 53.0,213.7 55.5,211.7 C58.0,209.7 60.5,209.1 63.0,207.7 C65.5,206.4 68.0,204.4 70.5,203.7 C73.0,203.0 75.5,205.0 78.0,203.5 C80.5,202.0 83.0,196.6 85.5,194.9 C88.0,193.2 90.5,200.1 93.0,193.2 C95.5,186.2 98.0,160.3 100.5,153.3 C103.0,146.3 105.5,151.7 107.9,151.3 C110.4,150.8 112.9,150.7 115.4,150.5 C117.9,150.3 120.4,150.2 122.9,150.1 C125.4,150.0 127.9,149.9 130.4,149.7 C132.9,149.5 135.4,149.1 137.9,148.7 C140.4,148.2 142.9,147.4 145.4,147.0 C147.9,146.5 150.4,146.3 152.9,146.1 C155.4,145.9 157.9,146.0 160.4,145.6 C162.9,145.2 165.4,144.1 167.9,143.6 C170.4,143.1 172.9,142.9 175.4,142.6 C177.9,142.3 180.4,142.0 182.9,141.7 C185.4,141.4 187.9,141.4 190.4,140.8 C192.9,140.2 195.4,138.7 197.9,138.0 C200.4,137.4 202.9,137.2 205.4,136.9 C207.9,136.6 210.4,136.4 212.9,136.2 C215.4,136.1 217.9,136.5 220.4,136.1 C222.9,135.7 225.4,134.4 227.8,133.8 C230.3,133.2 232.8,133.0 235.3,132.5 C237.8,132.1 240.3,131.8 242.8,131.1 C245.3,130.4 247.8,129.0 250.3,128.3 C252.8,127.6 255.3,127.3 257.8,126.9 C260.3,126.5 262.8,126.3 265.3,126.0 C267.8,125.8 270.3,125.8 272.8,125.3 C275.3,124.9 277.8,124.0 280.3,123.6 C282.8,123.1 285.3,122.8 287.8,122.5 C290.3,122.2 292.8,122.0 295.3,121.7 C297.8,121.5 300.3,121.3 302.8,121.1 C305.3,120.9 307.8,120.6 310.3,120.4 C312.8,120.3 315.3,120.3 317.8,120.2 C320.3,120.2 322.8,121.0 325.3,120.2 C327.8,119.4 330.3,116.5 332.8,115.5 C335.3,114.5 337.8,114.6 340.3,114.2 C342.8,113.7 345.2,113.3 347.7,112.8 C350.2,112.4 352.7,111.9 355.2,111.6 C357.7,111.3 360.2,111.2 362.7,111.0 C365.2,110.8 367.7,110.4 370.2,110.2 C372.7,110.0 375.2,110.1 377.7,109.7 C380.2,109.4 382.7,108.6 385.2,108.1 C387.7,107.7 390.2,107.6 392.7,107.2 C395.2,106.9 397.7,106.4 400.2,106.2 C402.7,105.9 405.2,106.0 407.7,105.7 C410.2,105.5 412.7,104.8 415.2,104.5 C417.7,104.2 420.2,104.2 422.7,104.0 C425.2,103.7 427.7,103.5 430.2,103.2 C432.7,102.9 435.2,102.5 437.7,102.2 C440.2,101.9 442.7,101.5 445.2,101.2 C447.7,100.9 450.2,100.8 452.7,100.3 C455.2,99.9 457.7,99.2 460.2,98.7 C462.6,98.3 465.1,98.1 467.6,97.7 C470.1,97.4 472.6,97.0 475.1,96.6 C477.6,96.3 480.1,95.9 482.6,95.5 C485.1,95.2 487.6,94.8 490.1,94.6 C492.6,94.3 495.1,94.2 497.6,93.8 C500.1,93.4 502.6,92.9 505.1,92.4 C507.6,91.9 510.1,91.2 512.6,90.8 C515.1,90.5 517.6,90.5 520.1,90.3 C522.6,90.1 525.1,90.0 527.6,89.8 C530.1,89.6 532.6,89.3 535.1,88.9 C537.6,88.6 540.1,88.2 542.6,87.9 C545.1,87.6 547.6,87.3 550.1,86.9 C552.6,86.6 555.1,86.2 557.6,85.8 C560.1,85.5 562.6,85.3 565.1,85.0 C567.6,84.6 570.1,84.0 572.6,83.7 C575.1,83.3 577.6,83.0 580.1,82.8 C582.5,82.6 585.0,82.6 587.5,82.4 C590.0,82.2 592.5,81.9 595.0,81.8 C597.5,81.6 600.0,81.6 602.5,81.4 C605.0,81.2 607.5,80.9 610.0,80.6 C612.5,80.4 615.0,80.0 617.5,79.8 C620.0,79.5 622.5,79.3 625.0,79.1 C627.5,78.9 630.0,78.8 632.5,78.5 C635.0,78.2 638.8,77.4 640.0,77.2" fill="none" class="line-total" stroke-width="2.5" stroke-linecap="round" stroke-linejoin="round"/>

  <circle cx="640" cy="77.18266666666665" r="4.5" class="dot-total" stroke-width="2"/>
    <text x="658" y="81.18266666666665" class="end-label" font-family="-apple-system, BlinkMacSystemFont, 'Segoe UI', Helvetica, sans-serif">Total</text>
    <text x="697" y="81.18266666666665" class="end-value" font-family="-apple-system, BlinkMacSystemFont, 'Segoe UI', Helvetica, sans-serif">2.5k</text>
    <circle cx="640" cy="89.05066666666667" r="3.5" class="dot-openvsx" stroke-width="1.8"/>
    <text x="658" y="99.18266666666665" class="end-label" font-family="-apple-system, BlinkMacSystemFont, 'Segoe UI', Helvetica, sans-serif">Open VSX</text>
    <text x="716.8" y="99.18266666666665" class="end-value" font-family="-apple-system, BlinkMacSystemFont, 'Segoe UI', Helvetica, sans-serif">2.3k</text>
    <circle cx="640" cy="208.132" r="3.5" class="dot-vscode" stroke-width="1.8"/>
    <text x="658" y="212.132" class="end-label" font-family="-apple-system, BlinkMacSystemFont, 'Segoe UI', Helvetica, sans-serif">VS Code</text>
    <text x="710.2" y="212.132" class="end-value" font-family="-apple-system, BlinkMacSystemFont, 'Segoe UI', Helvetica, sans-serif">207</text>
</svg>