<svg xmlns="http://www.w3.org/2000/svg" viewBox="0 0 760 260" width="760" height="260" role="img" aria-label="Glassy install history">
  <style>
  svg { color-scheme: light dark; }
  .title      { fill: #1a1a2e; font-size: 15px; font-weight: 600; }
  .subtitle   { fill: #6b7280; font-size: 11px; font-weight: 400; }
  .grid       { stroke: #e8e8ee; }
  .axis-label { fill: #8a8a9a; font-size: 10px; }
  .line-total   { stroke: #e8553d; }
  .line-vscode  { stroke: #5b7cfa; }
  .line-openvsx { stroke: #34c7a0; }
  .dot-total   { fill: transparent; stroke: #e8553d; }
  .dot-vscode  { fill: transparent; stroke: #5b7cfa; }
  .dot-openvsx { fill: transparent; stroke: #34c7a0; }
  .end-label       { fill: #1a1a2e; font-size: 11px; font-weight: 600; }
  .end-value       { fill: #6b7280; font-size: 11px; font-weight: 400; }
  .area-total-top    { stop-color: #e8553d; }
  .area-total-bottom { stop-color: #e8553d; }

  @media (prefers-color-scheme: dark) {
    .title      { fill: #e2e2e8; }
    .subtitle   { fill: #8b949e; }
    .grid       { stroke: #2d2d3d; }
    .axis-label { fill: #6e7681; }
    .line-total   { stroke: #ff9b85; }
    .line-vscode  { stroke: #8da4ff; }
    .line-openvsx { stroke: #5eead4; }
    .dot-total   { stroke: #ff9b85; }
    .dot-vscode  { stroke: #8da4ff; }
    .dot-openvsx { stroke: #5eead4; }
    .end-label       { fill: #e2e2e8; }
    .end-value       { fill: #8b949e; }
    .area-total-top    { stop-color: #ff9b85; }
    .area-total-bottom { stop-color: #ff9b85; }
  }
</style>
  <defs>
    <linearGradient id="areaGrad" x1="0" y1="0" x2="0" y2="1">
      <stop offset="0%" class="area-total-top" stop-opacity="0.18"/>
      <stop offset="60%" class="area-total-bottom" stop-opacity="0.04"/>
      <stop offset="100%" class="area-total-bottom" stop-opacity="0"/>
    </linearGradient>
  </defs>

  <text x="48" y="22" class="title" font-family="-apple-system, BlinkMacSystemFont, 'Segoe UI', Helvetica, sans-serif">Installs</text>
  <text x="48" y="37" class="subtitle" font-family="-apple-system, BlinkMacSystemFont, 'Segoe UI', Helvetica, sans-serif">Updated May 16</text>

  <line x1="48" y1="220" x2="640" y2="220" class="grid" stroke-width="0.7"/>
    <text x="40" y="223.5" class="axis-label" text-anchor="end" font-family="-apple-system, BlinkMacSystemFont, 'Segoe UI', Helvetica, sans-serif">0</text>
    <line x1="48" y1="162.66666666666669" x2="640" y2="162.66666666666669" class="grid" stroke-width="0.7"/>
    <text x="40" y="166.16666666666669" class="axis-label" text-anchor="end" font-family="-apple-system, BlinkMacSystemFont, 'Segoe UI', Helvetica, sans-serif">500</text>
    <line x1="48" y1="105.33333333333334" x2="640" y2="105.33333333333334" class="grid" stroke-width="0.7"/>
    <text x="40" y="108.83333333333334" class="axis-label" text-anchor="end" font-family="-apple-system, BlinkMacSystemFont, 'Segoe UI', Helvetica, sans-serif">1k</text>
    <line x1="48" y1="48" x2="640" y2="48" class="grid" stroke-width="0.7"/>
    <text x="40" y="51.5" class="axis-label" text-anchor="end" font-family="-apple-system, BlinkMacSystemFont, 'Segoe UI', Helvetica, sans-serif">1.5k</text>
  <text x="48" y="248" class="axis-label" text-anchor="middle" font-family="-apple-system, BlinkMacSystemFont, 'Segoe UI', Helvetica, sans-serif">Mar 27</text>
    <text x="160.76190476190476" y="248" class="axis-label" text-anchor="middle" font-family="-apple-system, BlinkMacSystemFont, 'Segoe UI', Helvetica, sans-serif">Mar 31</text>
    <text x="273.5238095238095" y="248" class="axis-label" text-anchor="middle" font-family="-apple-system, BlinkMacSystemFont, 'Segoe UI', Helvetica, sans-serif">May 3</text>
    <text x="414.4761904761905" y="248" class="axis-label" text-anchor="middle" font-family="-apple-system, BlinkMacSystemFont, 'Segoe UI', Helvetica, sans-serif">May 8</text>
    <text x="527.2380952380952" y="248" class="axis-label" text-anchor="middle" font-family="-apple-system, BlinkMacSystemFont, 'Segoe UI', Helvetica, sans-serif">May 12</text>
    <text x="640" y="248" class="axis-label" text-anchor="middle" font-family="-apple-system, BlinkMacSystemFont, 'Segoe UI', Helvetica, sans-serif">May 16</text>

  <path d="M48.0,219.5 C52.7,216.8 66.8,207.4 76.2,203.4 C85.6,199.4 95.0,198.1 104.4,195.5 C113.8,192.8 123.2,188.8 132.6,187.4 C142.0,186.0 151.4,189.9 160.8,187.0 C170.2,184.0 179.6,173.2 189.0,169.8 C198.3,166.3 207.7,180.2 217.1,166.3 C226.5,152.5 235.9,100.6 245.3,86.6 C254.7,72.7 264.1,83.5 273.5,82.5 C282.9,81.6 292.3,81.4 301.7,81.0 C311.1,80.6 320.5,80.5 329.9,80.2 C339.3,80.0 348.7,79.9 358.1,79.4 C367.5,78.9 376.9,78.3 386.3,77.4 C395.7,76.4 405.1,74.8 414.5,73.9 C423.9,73.1 433.3,72.6 442.7,72.2 C452.1,71.8 461.5,72.1 470.9,71.3 C480.3,70.5 489.7,68.3 499.0,67.3 C508.4,66.3 517.8,65.8 527.2,65.2 C536.6,64.6 546.0,64.1 555.4,63.5 C564.8,62.9 574.2,62.9 583.6,61.6 C593.0,60.4 602.4,57.3 611.8,56.0 C621.2,54.7 635.3,54.2 640.0,53.8 L640.0,220.0 L48.0,220.0 Z" fill="url(#areaGrad)"/>
  <path d="M48.0,219.7 C52.7,217.0 66.8,207.5 76.2,203.7 C85.6,199.9 95.0,199.1 104.4,196.8 C113.8,194.6 123.2,191.3 132.6,190.2 C142.0,189.1 151.4,192.9 160.8,190.2 C170.2,187.4 179.6,176.9 189.0,173.7 C198.3,170.5 207.7,183.5 217.1,170.9 C226.5,158.3 235.9,111.0 245.3,98.2 C254.7,85.5 264.1,95.4 273.5,94.6 C282.9,93.8 292.3,93.7 301.7,93.4 C311.1,93.1 320.5,93.1 329.9,92.9 C339.3,92.8 348.7,92.7 358.1,92.3 C367.5,91.8 376.9,91.1 386.3,90.2 C395.7,89.3 405.1,87.5 414.5,86.8 C423.9,86.0 433.3,86.1 442.7,85.8 C452.1,85.6 461.5,85.9 470.9,85.2 C480.3,84.4 489.7,82.2 499.0,81.3 C508.4,80.3 517.8,80.0 527.2,79.4 C536.6,78.8 546.0,78.4 555.4,77.8 C564.8,77.2 574.2,77.2 583.6,76.0 C593.0,74.8 602.4,71.7 611.8,70.5 C621.2,69.2 635.3,68.8 640.0,68.4" fill="none" class="line-openvsx" stroke-width="1.8" stroke-linecap="round" stroke-linejoin="round"/>
  <path d="M48.0,219.9 C52.7,219.8 66.8,219.9 76.2,219.7 C85.6,219.4 95.0,219.0 104.4,218.6 C113.8,218.2 123.2,217.6 132.6,217.2 C142.0,216.9 151.4,217.0 160.8,216.8 C170.2,216.6 179.6,216.3 189.0,216.1 C198.3,215.9 207.7,216.7 217.1,215.4 C226.5,214.1 235.9,209.7 245.3,208.4 C254.7,207.2 264.1,208.1 273.5,208.0 C282.9,207.8 292.3,207.7 301.7,207.6 C311.1,207.5 320.5,207.3 329.9,207.3 C339.3,207.2 348.7,207.2 358.1,207.2 C367.5,207.1 376.9,207.2 386.3,207.2 C395.7,207.2 405.1,207.3 414.5,207.2 C423.9,207.0 433.3,206.5 442.7,206.4 C452.1,206.2 461.5,206.2 470.9,206.1 C480.3,206.1 489.7,206.1 499.0,206.0 C508.4,206.0 517.8,205.8 527.2,205.8 C536.6,205.7 546.0,205.7 555.4,205.7 C564.8,205.6 574.2,205.7 583.6,205.7 C593.0,205.6 602.4,205.6 611.8,205.6 C621.2,205.5 635.3,205.5 640.0,205.4" fill="none" class="line-vscode" stroke-width="1.8" stroke-linecap="round" stroke-linejoin="round"/>
  <path d="M48.0,219.5 C52.7,216.8 66.8,207.4 76.2,203.4 C85.6,199.4 95.0,198.1 104.4,195.5 C113.8,192.8 123.2,188.8 132.6,187.4 C142.0,186.0 151.4,189.9 160.8,187.0 C170.2,184.0 179.6,173.2 189.0,169.8 C198.3,166.3 207.7,180.2 217.1,166.3 C226.5,152.5 235.9,100.6 245.3,86.6 C254.7,72.7 264.1,83.5 273.5,82.5 C282.9,81.6 292.3,81.4 301.7,81.0 C311.1,80.6 320.5,80.5 329.9,80.2 C339.3,80.0 348.7,79.9 358.1,79.4 C367.5,78.9 376.9,78.3 386.3,77.4 C395.7,76.4 405.1,74.8 414.5,73.9 C423.9,73.1 433.3,72.6 442.7,72.2 C452.1,71.8 461.5,72.1 470.9,71.3 C480.3,70.5 489.7,68.3 499.0,67.3 C508.4,66.3 517.8,65.8 527.2,65.2 C536.6,64.6 546.0,64.1 555.4,63.5 C564.8,62.9 574.2,62.9 583.6,61.6 C593.0,60.4 602.4,57.3 611.8,56.0 C621.2,54.7 635.3,54.2 640.0,53.8" fill="none" class="line-total" stroke-width="2.5" stroke-linecap="round" stroke-linejoin="round"/>

  <circle cx="640" cy="53.84800000000001" r="4.5" class="dot-total" stroke-width="2"/>
    <text x="658" y="57.84800000000001" class="end-label" font-family="-apple-system, BlinkMacSystemFont, 'Segoe UI', Helvetica, sans-serif">Total</text>
    <text x="697" y="57.84800000000001" class="end-value" font-family="-apple-system, BlinkMacSystemFont, 'Segoe UI', Helvetica, sans-serif">1.4k</text>
    <circle cx="640" cy="68.41066666666669" r="3.5" class="dot-openvsx" stroke-width="1.8"/>
    <text x="658" y="75.84800000000001" class="end-label" font-family="-apple-system, BlinkMacSystemFont, 'Segoe UI', Helvetica, sans-serif">Open VSX</text>
    <text x="716.8" y="75.84800000000001" class="end-value" font-family="-apple-system, BlinkMacSystemFont, 'Segoe UI', Helvetica, sans-serif">1.3k</text>
    <circle cx="640" cy="205.43733333333333" r="3.5" class="dot-vscode" stroke-width="1.8"/>
    <text x="658" y="209.43733333333333" class="end-label" font-family="-apple-system, BlinkMacSystemFont, 'Segoe UI', Helvetica, sans-serif">VS Code</text>
    <text x="710.2" y="209.43733333333333" class="end-value" font-family="-apple-system, BlinkMacSystemFont, 'Segoe UI', Helvetica, sans-serif">127</text>
</svg>