<svg xmlns="http://www.w3.org/2000/svg" viewBox="0 0 760 260" width="760" height="260" role="img" aria-label="Glassy install history">
  <style>
  svg { color-scheme: light dark; }
  .title      { fill: #1a1a2e; font-size: 15px; font-weight: 600; }
  .subtitle   { fill: #6b7280; font-size: 11px; font-weight: 400; }
  .grid       { stroke: #e8e8ee; }
  .axis-label { fill: #8a8a9a; font-size: 10px; }
  .line-total   { stroke: #e8553d; }
  .line-vscode  { stroke: #5b7cfa; }
  .line-openvsx { stroke: #34c7a0; }
  .dot-total   { fill: transparent; stroke: #e8553d; }
  .dot-vscode  { fill: transparent; stroke: #5b7cfa; }
  .dot-openvsx { fill: transparent; stroke: #34c7a0; }
  .end-label       { fill: #1a1a2e; font-size: 11px; font-weight: 600; }
  .end-value       { fill: #6b7280; font-size: 11px; font-weight: 400; }
  .area-total-top    { stop-color: #e8553d; }
  .area-total-bottom { stop-color: #e8553d; }

  @media (prefers-color-scheme: dark) {
    .title      { fill: #e2e2e8; }
    .subtitle   { fill: #8b949e; }
    .grid       { stroke: #2d2d3d; }
    .axis-label { fill: #6e7681; }
    .line-total   { stroke: #ff9b85; }
    .line-vscode  { stroke: #8da4ff; }
    .line-openvsx { stroke: #5eead4; }
    .dot-total   { stroke: #ff9b85; }
    .dot-vscode  { stroke: #8da4ff; }
    .dot-openvsx { stroke: #5eead4; }
    .end-label       { fill: #e2e2e8; }
    .end-value       { fill: #8b949e; }
    .area-total-top    { stop-color: #ff9b85; }
    .area-total-bottom { stop-color: #ff9b85; }
  }
</style>
  <defs>
    <linearGradient id="areaGrad" x1="0" y1="0" x2="0" y2="1">
      <stop offset="0%" class="area-total-top" stop-opacity="0.18"/>
      <stop offset="60%" class="area-total-bottom" stop-opacity="0.04"/>
      <stop offset="100%" class="area-total-bottom" stop-opacity="0"/>
    </linearGradient>
  </defs>

  <text x="48" y="22" class="title" font-family="-apple-system, BlinkMacSystemFont, 'Segoe UI', Helvetica, sans-serif">Installs</text>
  <text x="48" y="37" class="subtitle" font-family="-apple-system, BlinkMacSystemFont, 'Segoe UI', Helvetica, sans-serif">Updated May 7</text>

  <line x1="48" y1="220" x2="640" y2="220" class="grid" stroke-width="0.7"/>
    <text x="40" y="223.5" class="axis-label" text-anchor="end" font-family="-apple-system, BlinkMacSystemFont, 'Segoe UI', Helvetica, sans-serif">0</text>
    <line x1="48" y1="162.66666666666669" x2="640" y2="162.66666666666669" class="grid" stroke-width="0.7"/>
    <text x="40" y="166.16666666666669" class="axis-label" text-anchor="end" font-family="-apple-system, BlinkMacSystemFont, 'Segoe UI', Helvetica, sans-serif">500</text>
    <line x1="48" y1="105.33333333333334" x2="640" y2="105.33333333333334" class="grid" stroke-width="0.7"/>
    <text x="40" y="108.83333333333334" class="axis-label" text-anchor="end" font-family="-apple-system, BlinkMacSystemFont, 'Segoe UI', Helvetica, sans-serif">1k</text>
    <line x1="48" y1="48" x2="640" y2="48" class="grid" stroke-width="0.7"/>
    <text x="40" y="51.5" class="axis-label" text-anchor="end" font-family="-apple-system, BlinkMacSystemFont, 'Segoe UI', Helvetica, sans-serif">1.5k</text>
  <text x="48" y="248" class="axis-label" text-anchor="middle" font-family="-apple-system, BlinkMacSystemFont, 'Segoe UI', Helvetica, sans-serif">Mar 27</text>
    <text x="146.66666666666666" y="248" class="axis-label" text-anchor="middle" font-family="-apple-system, BlinkMacSystemFont, 'Segoe UI', Helvetica, sans-serif">Mar 29</text>
    <text x="294.6666666666667" y="248" class="axis-label" text-anchor="middle" font-family="-apple-system, BlinkMacSystemFont, 'Segoe UI', Helvetica, sans-serif">Apr 1</text>
    <text x="393.33333333333337" y="248" class="axis-label" text-anchor="middle" font-family="-apple-system, BlinkMacSystemFont, 'Segoe UI', Helvetica, sans-serif">Apr 30</text>
    <text x="541.3333333333334" y="248" class="axis-label" text-anchor="middle" font-family="-apple-system, BlinkMacSystemFont, 'Segoe UI', Helvetica, sans-serif">May 5</text>
    <text x="640" y="248" class="axis-label" text-anchor="middle" font-family="-apple-system, BlinkMacSystemFont, 'Segoe UI', Helvetica, sans-serif">May 7</text>

  <path d="M48.0,219.5 C56.2,216.8 80.9,207.4 97.3,203.4 C113.8,199.4 130.2,198.1 146.7,195.5 C163.1,192.8 179.6,188.8 196.0,187.4 C212.4,186.0 228.9,189.9 245.3,187.0 C261.8,184.0 278.2,173.2 294.7,169.8 C311.1,166.3 327.6,180.2 344.0,166.3 C360.4,152.5 376.9,100.6 393.3,86.6 C409.8,72.7 426.2,83.5 442.7,82.5 C459.1,81.6 475.6,81.4 492.0,81.0 C508.4,80.6 524.9,80.5 541.3,80.2 C557.8,80.0 574.2,79.9 590.7,79.4 C607.1,78.9 631.8,77.7 640.0,77.4 L640.0,220.0 L48.0,220.0 Z" fill="url(#areaGrad)"/>
  <path d="M48.0,219.7 C56.2,217.0 80.9,207.5 97.3,203.7 C113.8,199.9 130.2,199.1 146.7,196.8 C163.1,194.6 179.6,191.3 196.0,190.2 C212.4,189.1 228.9,192.9 245.3,190.2 C261.8,187.4 278.2,176.9 294.7,173.7 C311.1,170.5 327.6,183.5 344.0,170.9 C360.4,158.3 376.9,111.0 393.3,98.2 C409.8,85.5 426.2,95.4 442.7,94.6 C459.1,93.8 475.6,93.7 492.0,93.4 C508.4,93.1 524.9,93.1 541.3,92.9 C557.8,92.8 574.2,92.7 590.7,92.3 C607.1,91.8 631.8,90.5 640.0,90.2" fill="none" class="line-openvsx" stroke-width="1.8" stroke-linecap="round" stroke-linejoin="round"/>
  <path d="M48.0,219.9 C56.2,219.8 80.9,219.9 97.3,219.7 C113.8,219.4 130.2,219.0 146.7,218.6 C163.1,218.2 179.6,217.6 196.0,217.2 C212.4,216.9 228.9,217.0 245.3,216.8 C261.8,216.6 278.2,216.3 294.7,216.1 C311.1,215.9 327.6,216.7 344.0,215.4 C360.4,214.1 376.9,209.7 393.3,208.4 C409.8,207.2 426.2,208.1 442.7,208.0 C459.1,207.8 475.6,207.7 492.0,207.6 C508.4,207.5 524.9,207.3 541.3,207.3 C557.8,207.2 574.2,207.2 590.7,207.2 C607.1,207.1 631.8,207.2 640.0,207.2" fill="none" class="line-vscode" stroke-width="1.8" stroke-linecap="round" stroke-linejoin="round"/>
  <path d="M48.0,219.5 C56.2,216.8 80.9,207.4 97.3,203.4 C113.8,199.4 130.2,198.1 146.7,195.5 C163.1,192.8 179.6,188.8 196.0,187.4 C212.4,186.0 228.9,189.9 245.3,187.0 C261.8,184.0 278.2,173.2 294.7,169.8 C311.1,166.3 327.6,180.2 344.0,166.3 C360.4,152.5 376.9,100.6 393.3,86.6 C409.8,72.7 426.2,83.5 442.7,82.5 C459.1,81.6 475.6,81.4 492.0,81.0 C508.4,80.6 524.9,80.5 541.3,80.2 C557.8,80.0 574.2,79.9 590.7,79.4 C607.1,78.9 631.8,77.7 640.0,77.4" fill="none" class="line-total" stroke-width="2.5" stroke-linecap="round" stroke-linejoin="round"/>

  <circle cx="640" cy="77.35466666666667" r="4.5" class="dot-total" stroke-width="2"/>
    <text x="658" y="81.35466666666667" class="end-label" font-family="-apple-system, BlinkMacSystemFont, 'Segoe UI', Helvetica, sans-serif">Total</text>
    <text x="697" y="81.35466666666667" class="end-value" font-family="-apple-system, BlinkMacSystemFont, 'Segoe UI', Helvetica, sans-serif">1.2k</text>
    <circle cx="640" cy="90.19733333333332" r="3.5" class="dot-openvsx" stroke-width="1.8"/>
    <text x="658" y="99.35466666666667" class="end-label" font-family="-apple-system, BlinkMacSystemFont, 'Segoe UI', Helvetica, sans-serif">Open VSX</text>
    <text x="716.8" y="99.35466666666667" class="end-value" font-family="-apple-system, BlinkMacSystemFont, 'Segoe UI', Helvetica, sans-serif">1.1k</text>
    <circle cx="640" cy="207.15733333333333" r="3.5" class="dot-vscode" stroke-width="1.8"/>
    <text x="658" y="211.15733333333333" class="end-label" font-family="-apple-system, BlinkMacSystemFont, 'Segoe UI', Helvetica, sans-serif">VS Code</text>
    <text x="710.2" y="211.15733333333333" class="end-value" font-family="-apple-system, BlinkMacSystemFont, 'Segoe UI', Helvetica, sans-serif">112</text>
</svg>