<svg xmlns="http://www.w3.org/2000/svg" viewBox="0 0 760 260" width="760" height="260" role="img" aria-label="Glassy install history">
  <style>
  svg { color-scheme: light dark; }
  .title      { fill: #1a1a2e; font-size: 15px; font-weight: 600; }
  .subtitle   { fill: #6b7280; font-size: 11px; font-weight: 400; }
  .grid       { stroke: #e8e8ee; }
  .axis-label { fill: #8a8a9a; font-size: 10px; }
  .line-total   { stroke: #e8553d; }
  .line-vscode  { stroke: #5b7cfa; }
  .line-openvsx { stroke: #34c7a0; }
  .dot-total   { fill: transparent; stroke: #e8553d; }
  .dot-vscode  { fill: transparent; stroke: #5b7cfa; }
  .dot-openvsx { fill: transparent; stroke: #34c7a0; }
  .end-label       { fill: #1a1a2e; font-size: 11px; font-weight: 600; }
  .end-value       { fill: #6b7280; font-size: 11px; font-weight: 400; }
  .area-total-top    { stop-color: #e8553d; }
  .area-total-bottom { stop-color: #e8553d; }

  @media (prefers-color-scheme: dark) {
    .title      { fill: #e2e2e8; }
    .subtitle   { fill: #8b949e; }
    .grid       { stroke: #2d2d3d; }
    .axis-label { fill: #6e7681; }
    .line-total   { stroke: #ff9b85; }
    .line-vscode  { stroke: #8da4ff; }
    .line-openvsx { stroke: #5eead4; }
    .dot-total   { stroke: #ff9b85; }
    .dot-vscode  { stroke: #8da4ff; }
    .dot-openvsx { stroke: #5eead4; }
    .end-label       { fill: #e2e2e8; }
    .end-value       { fill: #8b949e; }
    .area-total-top    { stop-color: #ff9b85; }
    .area-total-bottom { stop-color: #ff9b85; }
  }
</style>
  <defs>
    <linearGradient id="areaGrad" x1="0" y1="0" x2="0" y2="1">
      <stop offset="0%" class="area-total-top" stop-opacity="0.18"/>
      <stop offset="60%" class="area-total-bottom" stop-opacity="0.04"/>
      <stop offset="100%" class="area-total-bottom" stop-opacity="0"/>
    </linearGradient>
  </defs>

  <text x="48" y="22" class="title" font-family="-apple-system, BlinkMacSystemFont, 'Segoe UI', Helvetica, sans-serif">Installs</text>
  <text x="48" y="37" class="subtitle" font-family="-apple-system, BlinkMacSystemFont, 'Segoe UI', Helvetica, sans-serif">Updated May 29</text>

  <line x1="48" y1="220" x2="640" y2="220" class="grid" stroke-width="0.7"/>
    <text x="40" y="223.5" class="axis-label" text-anchor="end" font-family="-apple-system, BlinkMacSystemFont, 'Segoe UI', Helvetica, sans-serif">0</text>
    <line x1="48" y1="177" x2="640" y2="177" class="grid" stroke-width="0.7"/>
    <text x="40" y="180.5" class="axis-label" text-anchor="end" font-family="-apple-system, BlinkMacSystemFont, 'Segoe UI', Helvetica, sans-serif">500</text>
    <line x1="48" y1="134" x2="640" y2="134" class="grid" stroke-width="0.7"/>
    <text x="40" y="137.5" class="axis-label" text-anchor="end" font-family="-apple-system, BlinkMacSystemFont, 'Segoe UI', Helvetica, sans-serif">1k</text>
    <line x1="48" y1="91" x2="640" y2="91" class="grid" stroke-width="0.7"/>
    <text x="40" y="94.5" class="axis-label" text-anchor="end" font-family="-apple-system, BlinkMacSystemFont, 'Segoe UI', Helvetica, sans-serif">1.5k</text>
    <line x1="48" y1="48" x2="640" y2="48" class="grid" stroke-width="0.7"/>
    <text x="40" y="51.5" class="axis-label" text-anchor="end" font-family="-apple-system, BlinkMacSystemFont, 'Segoe UI', Helvetica, sans-serif">2k</text>
  <text x="48" y="248" class="axis-label" text-anchor="middle" font-family="-apple-system, BlinkMacSystemFont, 'Segoe UI', Helvetica, sans-serif">Mar 27</text>
    <text x="169.88235294117646" y="248" class="axis-label" text-anchor="middle" font-family="-apple-system, BlinkMacSystemFont, 'Segoe UI', Helvetica, sans-serif">Apr 30</text>
    <text x="291.7647058823529" y="248" class="axis-label" text-anchor="middle" font-family="-apple-system, BlinkMacSystemFont, 'Segoe UI', Helvetica, sans-serif">May 9</text>
    <text x="396.2352941176471" y="248" class="axis-label" text-anchor="middle" font-family="-apple-system, BlinkMacSystemFont, 'Segoe UI', Helvetica, sans-serif">May 15</text>
    <text x="518.1176470588234" y="248" class="axis-label" text-anchor="middle" font-family="-apple-system, BlinkMacSystemFont, 'Segoe UI', Helvetica, sans-serif">May 22</text>
    <text x="640" y="248" class="axis-label" text-anchor="middle" font-family="-apple-system, BlinkMacSystemFont, 'Segoe UI', Helvetica, sans-serif">May 29</text>

  <path d="M48.0,219.7 C50.9,217.6 59.6,210.5 65.4,207.5 C71.2,204.5 77.0,203.6 82.8,201.6 C88.6,199.6 94.4,196.6 100.2,195.6 C106.0,194.5 111.8,197.4 117.6,195.2 C123.5,193.0 129.3,184.9 135.1,182.3 C140.9,179.8 146.7,190.1 152.5,179.8 C158.3,169.4 164.1,130.5 169.9,120.0 C175.7,109.5 181.5,117.6 187.3,116.9 C193.1,116.2 198.9,116.1 204.7,115.8 C210.5,115.5 216.3,115.4 222.1,115.2 C227.9,115.0 233.7,114.9 239.5,114.6 C245.3,114.2 251.1,113.7 256.9,113.0 C262.7,112.3 268.5,111.1 274.4,110.4 C280.2,109.8 286.0,109.5 291.8,109.1 C297.6,108.8 303.4,109.1 309.2,108.5 C315.0,107.8 320.8,106.2 326.6,105.4 C332.4,104.7 338.2,104.4 344.0,103.9 C349.8,103.4 355.6,103.1 361.4,102.6 C367.2,102.2 373.0,102.2 378.8,101.2 C384.6,100.3 390.4,98.0 396.2,97.0 C402.0,96.0 407.8,95.8 413.6,95.4 C419.5,94.9 425.3,94.6 431.1,94.4 C436.9,94.1 442.7,94.7 448.5,94.1 C454.3,93.5 460.1,91.5 465.9,90.7 C471.7,89.8 477.5,89.4 483.3,88.8 C489.1,88.1 494.9,87.7 500.7,86.6 C506.5,85.6 512.3,83.4 518.1,82.4 C523.9,81.4 529.7,80.9 535.5,80.3 C541.3,79.8 547.1,79.4 552.9,79.0 C558.7,78.7 564.5,78.6 570.4,78.0 C576.2,77.4 582.0,76.1 587.8,75.3 C593.6,74.6 599.4,74.3 605.2,73.8 C611.0,73.3 616.8,73.0 622.6,72.6 C628.4,72.2 637.1,71.8 640.0,71.7 L640.0,220.0 L48.0,220.0 Z" fill="url(#areaGrad)"/>
  <path d="M48.0,219.7 C50.9,217.7 59.6,210.6 65.4,207.8 C71.2,204.9 77.0,204.3 82.8,202.6 C88.6,200.9 94.4,198.5 100.2,197.6 C106.0,196.8 111.8,199.7 117.6,197.6 C123.5,195.6 129.3,187.7 135.1,185.3 C140.9,182.8 146.7,192.6 152.5,183.2 C158.3,173.8 164.1,138.2 169.9,128.7 C175.7,119.1 181.5,126.5 187.3,125.9 C193.1,125.3 198.9,125.3 204.7,125.1 C210.5,124.9 216.3,124.9 222.1,124.7 C227.9,124.6 233.7,124.5 239.5,124.2 C245.3,123.9 251.1,123.3 256.9,122.6 C262.7,122.0 268.5,120.6 274.4,120.1 C280.2,119.5 286.0,119.6 291.8,119.4 C297.6,119.2 303.4,119.4 309.2,118.9 C315.0,118.3 320.8,116.7 326.6,115.9 C332.4,115.2 338.2,115.0 344.0,114.6 C349.8,114.1 355.6,113.8 361.4,113.4 C367.2,112.9 373.0,112.9 378.8,112.0 C384.6,111.1 390.4,108.8 396.2,107.9 C402.0,106.9 407.8,106.7 413.6,106.3 C419.5,105.9 425.3,105.5 431.1,105.3 C436.9,105.1 442.7,105.7 448.5,105.1 C454.3,104.5 460.1,102.7 465.9,101.8 C471.7,101.0 477.5,100.7 483.3,100.1 C489.1,99.5 494.9,99.3 500.7,98.4 C506.5,97.5 512.3,95.4 518.1,94.4 C523.9,93.5 529.7,93.1 535.5,92.5 C541.3,92.0 547.1,91.7 552.9,91.3 C558.7,91.0 564.5,91.0 570.4,90.5 C576.2,89.9 582.0,88.7 587.8,88.1 C593.6,87.4 599.4,87.1 605.2,86.7 C611.0,86.3 616.8,86.0 622.6,85.7 C628.4,85.4 637.1,85.1 640.0,85.0" fill="none" class="line-openvsx" stroke-width="1.8" stroke-linecap="round" stroke-linejoin="round"/>
  <path d="M48.0,219.9 C50.9,219.9 59.6,219.9 65.4,219.7 C71.2,219.6 77.0,219.3 82.8,219.0 C88.6,218.7 94.4,218.2 100.2,217.9 C106.0,217.7 111.8,217.7 117.6,217.6 C123.5,217.4 129.3,217.2 135.1,217.1 C140.9,216.9 146.7,217.5 152.5,216.6 C158.3,215.6 164.1,212.2 169.9,211.3 C175.7,210.4 181.5,211.1 187.3,211.0 C193.1,210.9 198.9,210.8 204.7,210.7 C210.5,210.6 216.3,210.5 222.1,210.5 C227.9,210.4 233.7,210.4 239.5,210.4 C245.3,210.4 251.1,210.4 256.9,210.4 C262.7,210.4 268.5,210.5 274.4,210.4 C280.2,210.3 286.0,209.9 291.8,209.8 C297.6,209.6 303.4,209.6 309.2,209.6 C315.0,209.6 320.8,209.6 326.6,209.5 C332.4,209.5 338.2,209.4 344.0,209.3 C349.8,209.3 355.6,209.3 361.4,209.3 C367.2,209.2 373.0,209.3 378.8,209.3 C384.6,209.2 390.4,209.2 396.2,209.2 C402.0,209.1 407.8,209.1 413.6,209.1 C419.5,209.1 425.3,209.1 431.1,209.1 C436.9,209.1 442.7,209.0 448.5,209.0 C454.3,208.9 460.1,208.9 465.9,208.8 C471.7,208.8 477.5,208.7 483.3,208.6 C489.1,208.5 494.9,208.3 500.7,208.2 C506.5,208.1 512.3,208.0 518.1,208.0 C523.9,207.9 529.7,207.8 535.5,207.8 C541.3,207.7 547.1,207.7 552.9,207.7 C558.7,207.7 564.5,207.6 570.4,207.5 C576.2,207.5 582.0,207.3 587.8,207.3 C593.6,207.2 599.4,207.2 605.2,207.1 C611.0,207.0 616.8,207.0 622.6,206.9 C628.4,206.9 637.1,206.7 640.0,206.7" fill="none" class="line-vscode" stroke-width="1.8" stroke-linecap="round" stroke-linejoin="round"/>
  <path d="M48.0,219.7 C50.9,217.6 59.6,210.5 65.4,207.5 C71.2,204.5 77.0,203.6 82.8,201.6 C88.6,199.6 94.4,196.6 100.2,195.6 C106.0,194.5 111.8,197.4 117.6,195.2 C123.5,193.0 129.3,184.9 135.1,182.3 C140.9,179.8 146.7,190.1 152.5,179.8 C158.3,169.4 164.1,130.5 169.9,120.0 C175.7,109.5 181.5,117.6 187.3,116.9 C193.1,116.2 198.9,116.1 204.7,115.8 C210.5,115.5 216.3,115.4 222.1,115.2 C227.9,115.0 233.7,114.9 239.5,114.6 C245.3,114.2 251.1,113.7 256.9,113.0 C262.7,112.3 268.5,111.1 274.4,110.4 C280.2,109.8 286.0,109.5 291.8,109.1 C297.6,108.8 303.4,109.1 309.2,108.5 C315.0,107.8 320.8,106.2 326.6,105.4 C332.4,104.7 338.2,104.4 344.0,103.9 C349.8,103.4 355.6,103.1 361.4,102.6 C367.2,102.2 373.0,102.2 378.8,101.2 C384.6,100.3 390.4,98.0 396.2,97.0 C402.0,96.0 407.8,95.8 413.6,95.4 C419.5,94.9 425.3,94.6 431.1,94.4 C436.9,94.1 442.7,94.7 448.5,94.1 C454.3,93.5 460.1,91.5 465.9,90.7 C471.7,89.8 477.5,89.4 483.3,88.8 C489.1,88.1 494.9,87.7 500.7,86.6 C506.5,85.6 512.3,83.4 518.1,82.4 C523.9,81.4 529.7,80.9 535.5,80.3 C541.3,79.8 547.1,79.4 552.9,79.0 C558.7,78.7 564.5,78.6 570.4,78.0 C576.2,77.4 582.0,76.1 587.8,75.3 C593.6,74.6 599.4,74.3 605.2,73.8 C611.0,73.3 616.8,73.0 622.6,72.6 C628.4,72.2 637.1,71.8 640.0,71.7" fill="none" class="line-total" stroke-width="2.5" stroke-linecap="round" stroke-linejoin="round"/>

  <circle cx="640" cy="71.65" r="4.5" class="dot-total" stroke-width="2"/>
    <text x="658" y="75.65" class="end-label" font-family="-apple-system, BlinkMacSystemFont, 'Segoe UI', Helvetica, sans-serif">Total</text>
    <text x="697" y="75.65" class="end-value" font-family="-apple-system, BlinkMacSystemFont, 'Segoe UI', Helvetica, sans-serif">1.7k</text>
    <circle cx="640" cy="84.97999999999999" r="3.5" class="dot-openvsx" stroke-width="1.8"/>
    <text x="658" y="93.65" class="end-label" font-family="-apple-system, BlinkMacSystemFont, 'Segoe UI', Helvetica, sans-serif">Open VSX</text>
    <text x="716.8" y="93.65" class="end-value" font-family="-apple-system, BlinkMacSystemFont, 'Segoe UI', Helvetica, sans-serif">1.6k</text>
    <circle cx="640" cy="206.67" r="3.5" class="dot-vscode" stroke-width="1.8"/>
    <text x="658" y="210.67" class="end-label" font-family="-apple-system, BlinkMacSystemFont, 'Segoe UI', Helvetica, sans-serif">VS Code</text>
    <text x="710.2" y="210.67" class="end-value" font-family="-apple-system, BlinkMacSystemFont, 'Segoe UI', Helvetica, sans-serif">155</text>
</svg>