<svg xmlns="http://www.w3.org/2000/svg" viewBox="0 0 760 260" width="760" height="260" role="img" aria-label="Glassy install history">
  <style>
  svg { color-scheme: light dark; }
  .title      { fill: #1a1a2e; font-size: 15px; font-weight: 600; }
  .subtitle   { fill: #6b7280; font-size: 11px; font-weight: 400; }
  .grid       { stroke: #e8e8ee; }
  .axis-label { fill: #8a8a9a; font-size: 10px; }
  .line-total   { stroke: #e8553d; }
  .line-vscode  { stroke: #5b7cfa; }
  .line-openvsx { stroke: #34c7a0; }
  .dot-total   { fill: transparent; stroke: #e8553d; }
  .dot-vscode  { fill: transparent; stroke: #5b7cfa; }
  .dot-openvsx { fill: transparent; stroke: #34c7a0; }
  .end-label       { fill: #1a1a2e; font-size: 11px; font-weight: 600; }
  .end-value       { fill: #6b7280; font-size: 11px; font-weight: 400; }
  .area-total-top    { stop-color: #e8553d; }
  .area-total-bottom { stop-color: #e8553d; }

  @media (prefers-color-scheme: dark) {
    .title      { fill: #e2e2e8; }
    .subtitle   { fill: #8b949e; }
    .grid       { stroke: #2d2d3d; }
    .axis-label { fill: #6e7681; }
    .line-total   { stroke: #ff9b85; }
    .line-vscode  { stroke: #8da4ff; }
    .line-openvsx { stroke: #5eead4; }
    .dot-total   { stroke: #ff9b85; }
    .dot-vscode  { stroke: #8da4ff; }
    .dot-openvsx { stroke: #5eead4; }
    .end-label       { fill: #e2e2e8; }
    .end-value       { fill: #8b949e; }
    .area-total-top    { stop-color: #ff9b85; }
    .area-total-bottom { stop-color: #ff9b85; }
  }
</style>
  <defs>
    <linearGradient id="areaGrad" x1="0" y1="0" x2="0" y2="1">
      <stop offset="0%" class="area-total-top" stop-opacity="0.18"/>
      <stop offset="60%" class="area-total-bottom" stop-opacity="0.04"/>
      <stop offset="100%" class="area-total-bottom" stop-opacity="0"/>
    </linearGradient>
  </defs>

  <text x="48" y="22" class="title" font-family="-apple-system, BlinkMacSystemFont, 'Segoe UI', Helvetica, sans-serif">Installs</text>
  <text x="48" y="37" class="subtitle" font-family="-apple-system, BlinkMacSystemFont, 'Segoe UI', Helvetica, sans-serif">Updated May 9</text>

  <line x1="48" y1="220" x2="640" y2="220" class="grid" stroke-width="0.7"/>
    <text x="40" y="223.5" class="axis-label" text-anchor="end" font-family="-apple-system, BlinkMacSystemFont, 'Segoe UI', Helvetica, sans-serif">0</text>
    <line x1="48" y1="162.66666666666669" x2="640" y2="162.66666666666669" class="grid" stroke-width="0.7"/>
    <text x="40" y="166.16666666666669" class="axis-label" text-anchor="end" font-family="-apple-system, BlinkMacSystemFont, 'Segoe UI', Helvetica, sans-serif">500</text>
    <line x1="48" y1="105.33333333333334" x2="640" y2="105.33333333333334" class="grid" stroke-width="0.7"/>
    <text x="40" y="108.83333333333334" class="axis-label" text-anchor="end" font-family="-apple-system, BlinkMacSystemFont, 'Segoe UI', Helvetica, sans-serif">1k</text>
    <line x1="48" y1="48" x2="640" y2="48" class="grid" stroke-width="0.7"/>
    <text x="40" y="51.5" class="axis-label" text-anchor="end" font-family="-apple-system, BlinkMacSystemFont, 'Segoe UI', Helvetica, sans-serif">1.5k</text>
  <text x="48" y="248" class="axis-label" text-anchor="middle" font-family="-apple-system, BlinkMacSystemFont, 'Segoe UI', Helvetica, sans-serif">Mar 27</text>
    <text x="174.85714285714283" y="248" class="axis-label" text-anchor="middle" font-family="-apple-system, BlinkMacSystemFont, 'Segoe UI', Helvetica, sans-serif">Mar 30</text>
    <text x="301.71428571428567" y="248" class="axis-label" text-anchor="middle" font-family="-apple-system, BlinkMacSystemFont, 'Segoe UI', Helvetica, sans-serif">Apr 2</text>
    <text x="386.2857142857143" y="248" class="axis-label" text-anchor="middle" font-family="-apple-system, BlinkMacSystemFont, 'Segoe UI', Helvetica, sans-serif">May 3</text>
    <text x="513.1428571428571" y="248" class="axis-label" text-anchor="middle" font-family="-apple-system, BlinkMacSystemFont, 'Segoe UI', Helvetica, sans-serif">May 6</text>
    <text x="640" y="248" class="axis-label" text-anchor="middle" font-family="-apple-system, BlinkMacSystemFont, 'Segoe UI', Helvetica, sans-serif">May 9</text>

  <path d="M48.0,219.5 C55.0,216.8 76.2,207.4 90.3,203.4 C104.4,199.4 118.5,198.1 132.6,195.5 C146.7,192.8 160.8,188.8 174.9,187.4 C189.0,186.0 203.0,189.9 217.1,187.0 C231.2,184.0 245.3,173.2 259.4,169.8 C273.5,166.3 287.6,180.2 301.7,166.3 C315.8,152.5 329.9,100.6 344.0,86.6 C358.1,72.7 372.2,83.5 386.3,82.5 C400.4,81.6 414.5,81.4 428.6,81.0 C442.7,80.6 456.8,80.5 470.9,80.2 C485.0,80.0 499.0,79.9 513.1,79.4 C527.2,78.9 541.3,78.3 555.4,77.4 C569.5,76.4 583.6,74.8 597.7,73.9 C611.8,73.1 633.0,72.5 640.0,72.2 L640.0,220.0 L48.0,220.0 Z" fill="url(#areaGrad)"/>
  <path d="M48.0,219.7 C55.0,217.0 76.2,207.5 90.3,203.7 C104.4,199.9 118.5,199.1 132.6,196.8 C146.7,194.6 160.8,191.3 174.9,190.2 C189.0,189.1 203.0,192.9 217.1,190.2 C231.2,187.4 245.3,176.9 259.4,173.7 C273.5,170.5 287.6,183.5 301.7,170.9 C315.8,158.3 329.9,111.0 344.0,98.2 C358.1,85.5 372.2,95.4 386.3,94.6 C400.4,93.8 414.5,93.7 428.6,93.4 C442.7,93.1 456.8,93.1 470.9,92.9 C485.0,92.8 499.0,92.7 513.1,92.3 C527.2,91.8 541.3,91.1 555.4,90.2 C569.5,89.3 583.6,87.5 597.7,86.8 C611.8,86.0 633.0,86.0 640.0,85.8" fill="none" class="line-openvsx" stroke-width="1.8" stroke-linecap="round" stroke-linejoin="round"/>
  <path d="M48.0,219.9 C55.0,219.8 76.2,219.9 90.3,219.7 C104.4,219.4 118.5,219.0 132.6,218.6 C146.7,218.2 160.8,217.6 174.9,217.2 C189.0,216.9 203.0,217.0 217.1,216.8 C231.2,216.6 245.3,216.3 259.4,216.1 C273.5,215.9 287.6,216.7 301.7,215.4 C315.8,214.1 329.9,209.7 344.0,208.4 C358.1,207.2 372.2,208.1 386.3,208.0 C400.4,207.8 414.5,207.7 428.6,207.6 C442.7,207.5 456.8,207.3 470.9,207.3 C485.0,207.2 499.0,207.2 513.1,207.2 C527.2,207.1 541.3,207.2 555.4,207.2 C569.5,207.2 583.6,207.3 597.7,207.2 C611.8,207.0 633.0,206.5 640.0,206.4" fill="none" class="line-vscode" stroke-width="1.8" stroke-linecap="round" stroke-linejoin="round"/>
  <path d="M48.0,219.5 C55.0,216.8 76.2,207.4 90.3,203.4 C104.4,199.4 118.5,198.1 132.6,195.5 C146.7,192.8 160.8,188.8 174.9,187.4 C189.0,186.0 203.0,189.9 217.1,187.0 C231.2,184.0 245.3,173.2 259.4,169.8 C273.5,166.3 287.6,180.2 301.7,166.3 C315.8,152.5 329.9,100.6 344.0,86.6 C358.1,72.7 372.2,83.5 386.3,82.5 C400.4,81.6 414.5,81.4 428.6,81.0 C442.7,80.6 456.8,80.5 470.9,80.2 C485.0,80.0 499.0,79.9 513.1,79.4 C527.2,78.9 541.3,78.3 555.4,77.4 C569.5,76.4 583.6,74.8 597.7,73.9 C611.8,73.1 633.0,72.5 640.0,72.2" fill="none" class="line-total" stroke-width="2.5" stroke-linecap="round" stroke-linejoin="round"/>

  <circle cx="640" cy="72.19466666666668" r="4.5" class="dot-total" stroke-width="2"/>
    <text x="658" y="76.19466666666668" class="end-label" font-family="-apple-system, BlinkMacSystemFont, 'Segoe UI', Helvetica, sans-serif">Total</text>
    <text x="697" y="76.19466666666668" class="end-value" font-family="-apple-system, BlinkMacSystemFont, 'Segoe UI', Helvetica, sans-serif">1.3k</text>
    <circle cx="640" cy="85.84" r="3.5" class="dot-openvsx" stroke-width="1.8"/>
    <text x="658" y="94.19466666666668" class="end-label" font-family="-apple-system, BlinkMacSystemFont, 'Segoe UI', Helvetica, sans-serif">Open VSX</text>
    <text x="716.8" y="94.19466666666668" class="end-value" font-family="-apple-system, BlinkMacSystemFont, 'Segoe UI', Helvetica, sans-serif">1.2k</text>
    <circle cx="640" cy="206.35466666666667" r="3.5" class="dot-vscode" stroke-width="1.8"/>
    <text x="658" y="210.35466666666667" class="end-label" font-family="-apple-system, BlinkMacSystemFont, 'Segoe UI', Helvetica, sans-serif">VS Code</text>
    <text x="710.2" y="210.35466666666667" class="end-value" font-family="-apple-system, BlinkMacSystemFont, 'Segoe UI', Helvetica, sans-serif">119</text>
</svg>