<svg xmlns="http://www.w3.org/2000/svg" viewBox="0 0 760 260" width="760" height="260" role="img" aria-label="Glassy install history">
  <style>
  svg { color-scheme: light dark; }
  .title      { fill: #1a1a2e; font-size: 15px; font-weight: 600; }
  .subtitle   { fill: #6b7280; font-size: 11px; font-weight: 400; }
  .grid       { stroke: #e8e8ee; }
  .axis-label { fill: #8a8a9a; font-size: 10px; }
  .line-total   { stroke: #e8553d; }
  .line-vscode  { stroke: #5b7cfa; }
  .line-openvsx { stroke: #34c7a0; }
  .dot-total   { fill: transparent; stroke: #e8553d; }
  .dot-vscode  { fill: transparent; stroke: #5b7cfa; }
  .dot-openvsx { fill: transparent; stroke: #34c7a0; }
  .end-label       { fill: #1a1a2e; font-size: 11px; font-weight: 600; }
  .end-value       { fill: #6b7280; font-size: 11px; font-weight: 400; }
  .area-total-top    { stop-color: #e8553d; }
  .area-total-bottom { stop-color: #e8553d; }

  @media (prefers-color-scheme: dark) {
    .title      { fill: #e2e2e8; }
    .subtitle   { fill: #8b949e; }
    .grid       { stroke: #2d2d3d; }
    .axis-label { fill: #6e7681; }
    .line-total   { stroke: #ff9b85; }
    .line-vscode  { stroke: #8da4ff; }
    .line-openvsx { stroke: #5eead4; }
    .dot-total   { stroke: #ff9b85; }
    .dot-vscode  { stroke: #8da4ff; }
    .dot-openvsx { stroke: #5eead4; }
    .end-label       { fill: #e2e2e8; }
    .end-value       { fill: #8b949e; }
    .area-total-top    { stop-color: #ff9b85; }
    .area-total-bottom { stop-color: #ff9b85; }
  }
</style>
  <defs>
    <linearGradient id="areaGrad" x1="0" y1="0" x2="0" y2="1">
      <stop offset="0%" class="area-total-top" stop-opacity="0.18"/>
      <stop offset="60%" class="area-total-bottom" stop-opacity="0.04"/>
      <stop offset="100%" class="area-total-bottom" stop-opacity="0"/>
    </linearGradient>
  </defs>

  <text x="48" y="22" class="title" font-family="-apple-system, BlinkMacSystemFont, 'Segoe UI', Helvetica, sans-serif">Installs</text>
  <text x="48" y="37" class="subtitle" font-family="-apple-system, BlinkMacSystemFont, 'Segoe UI', Helvetica, sans-serif">Updated Jun 29</text>

  <line x1="48" y1="220" x2="640" y2="220" class="grid" stroke-width="0.7"/>
    <text x="40" y="223.5" class="axis-label" text-anchor="end" font-family="-apple-system, BlinkMacSystemFont, 'Segoe UI', Helvetica, sans-serif">0</text>
    <line x1="48" y1="162.66666666666669" x2="640" y2="162.66666666666669" class="grid" stroke-width="0.7"/>
    <text x="40" y="166.16666666666669" class="axis-label" text-anchor="end" font-family="-apple-system, BlinkMacSystemFont, 'Segoe UI', Helvetica, sans-serif">1k</text>
    <line x1="48" y1="105.33333333333334" x2="640" y2="105.33333333333334" class="grid" stroke-width="0.7"/>
    <text x="40" y="108.83333333333334" class="axis-label" text-anchor="end" font-family="-apple-system, BlinkMacSystemFont, 'Segoe UI', Helvetica, sans-serif">2k</text>
    <line x1="48" y1="48" x2="640" y2="48" class="grid" stroke-width="0.7"/>
    <text x="40" y="51.5" class="axis-label" text-anchor="end" font-family="-apple-system, BlinkMacSystemFont, 'Segoe UI', Helvetica, sans-serif">3k</text>
  <text x="48" y="248" class="axis-label" text-anchor="middle" font-family="-apple-system, BlinkMacSystemFont, 'Segoe UI', Helvetica, sans-serif">Mar 27</text>
    <text x="166.4" y="248" class="axis-label" text-anchor="middle" font-family="-apple-system, BlinkMacSystemFont, 'Segoe UI', Helvetica, sans-serif">May 8</text>
    <text x="284.8" y="248" class="axis-label" text-anchor="middle" font-family="-apple-system, BlinkMacSystemFont, 'Segoe UI', Helvetica, sans-serif">May 21</text>
    <text x="403.2" y="248" class="axis-label" text-anchor="middle" font-family="-apple-system, BlinkMacSystemFont, 'Segoe UI', Helvetica, sans-serif">Jun 3</text>
    <text x="521.6" y="248" class="axis-label" text-anchor="middle" font-family="-apple-system, BlinkMacSystemFont, 'Segoe UI', Helvetica, sans-serif">Jun 16</text>
    <text x="640" y="248" class="axis-label" text-anchor="middle" font-family="-apple-system, BlinkMacSystemFont, 'Segoe UI', Helvetica, sans-serif">Jun 29</text>

  <path d="M48.0,219.8 C49.5,218.4 54.1,213.7 57.1,211.7 C60.1,209.7 63.2,209.1 66.2,207.7 C69.3,206.4 72.3,204.4 75.3,203.7 C78.4,203.0 81.4,205.0 84.4,203.5 C87.5,202.0 90.5,196.6 93.5,194.9 C96.6,193.2 99.6,200.1 102.6,193.2 C105.7,186.2 108.7,160.3 111.8,153.3 C114.8,146.3 117.8,151.7 120.9,151.3 C123.9,150.8 126.9,150.7 130.0,150.5 C133.0,150.3 136.0,150.2 139.1,150.1 C142.1,150.0 145.1,149.9 148.2,149.7 C151.2,149.5 154.3,149.1 157.3,148.7 C160.3,148.2 163.4,147.4 166.4,147.0 C169.4,146.5 172.5,146.3 175.5,146.1 C178.5,145.9 181.6,146.0 184.6,145.6 C187.7,145.2 190.7,144.1 193.7,143.6 C196.8,143.1 199.8,142.9 202.8,142.6 C205.9,142.3 208.9,142.0 211.9,141.7 C215.0,141.4 218.0,141.4 221.0,140.8 C224.1,140.2 227.1,138.7 230.2,138.0 C233.2,137.4 236.2,137.2 239.3,136.9 C242.3,136.6 245.3,136.4 248.4,136.2 C251.4,136.1 254.4,136.5 257.5,136.1 C260.5,135.7 263.5,134.4 266.6,133.8 C269.6,133.2 272.7,133.0 275.7,132.5 C278.7,132.1 281.8,131.8 284.8,131.1 C287.8,130.4 290.9,129.0 293.9,128.3 C296.9,127.6 300.0,127.3 303.0,126.9 C306.1,126.5 309.1,126.3 312.1,126.0 C315.2,125.8 318.2,125.8 321.2,125.3 C324.3,124.9 327.3,124.0 330.3,123.6 C333.4,123.1 336.4,122.8 339.4,122.5 C342.5,122.2 345.5,122.0 348.6,121.7 C351.6,121.5 354.6,121.3 357.7,121.1 C360.7,120.9 363.7,120.6 366.8,120.4 C369.8,120.3 372.8,120.3 375.9,120.2 C378.9,120.2 381.9,121.0 385.0,120.2 C388.0,119.4 391.1,116.5 394.1,115.5 C397.1,114.5 400.2,114.6 403.2,114.2 C406.2,113.7 409.3,113.3 412.3,112.8 C415.3,112.4 418.4,111.9 421.4,111.6 C424.5,111.3 427.5,111.2 430.5,111.0 C433.6,110.8 436.6,110.4 439.6,110.2 C442.7,110.0 445.7,110.1 448.7,109.7 C451.8,109.4 454.8,108.6 457.8,108.1 C460.9,107.7 463.9,107.6 467.0,107.2 C470.0,106.9 473.0,106.4 476.1,106.2 C479.1,105.9 482.1,106.0 485.2,105.7 C488.2,105.5 491.2,104.8 494.3,104.5 C497.3,104.2 500.3,104.2 503.4,104.0 C506.4,103.7 509.5,103.5 512.5,103.2 C515.5,102.9 518.6,102.5 521.6,102.2 C524.6,101.9 527.7,101.5 530.7,101.2 C533.7,100.9 536.8,100.8 539.8,100.3 C542.9,99.9 545.9,99.2 548.9,98.7 C552.0,98.3 555.0,98.1 558.0,97.7 C561.1,97.4 564.1,97.0 567.1,96.6 C570.2,96.3 573.2,95.9 576.2,95.5 C579.3,95.2 582.3,94.8 585.4,94.6 C588.4,94.3 591.4,94.2 594.5,93.8 C597.5,93.4 600.5,92.9 603.6,92.4 C606.6,91.9 609.6,91.2 612.7,90.8 C615.7,90.5 618.7,90.5 621.8,90.3 C624.8,90.1 627.9,90.0 630.9,89.8 C633.9,89.6 638.5,89.1 640.0,88.9 L640.0,220.0 L48.0,220.0 Z" fill="url(#areaGrad)"/>
  <path d="M48.0,219.8 C49.5,218.5 54.1,213.8 57.1,211.9 C60.1,210.0 63.2,209.5 66.2,208.4 C69.3,207.3 72.3,205.6 75.3,205.1 C78.4,204.5 81.4,206.5 84.4,205.1 C87.5,203.7 90.5,198.4 93.5,196.8 C96.6,195.2 99.6,201.7 102.6,195.5 C105.7,189.2 108.7,165.5 111.8,159.1 C114.8,152.7 117.8,157.7 120.9,157.3 C123.9,156.9 126.9,156.8 130.0,156.7 C133.0,156.6 136.0,156.6 139.1,156.5 C142.1,156.4 145.1,156.4 148.2,156.1 C151.2,155.9 154.3,155.6 157.3,155.1 C160.3,154.6 163.4,153.7 166.4,153.4 C169.4,153.0 172.5,153.1 175.5,152.9 C178.5,152.8 181.6,153.0 184.6,152.6 C187.7,152.2 190.7,151.1 193.7,150.6 C196.8,150.1 199.8,150.0 202.8,149.7 C205.9,149.4 208.9,149.2 211.9,148.9 C215.0,148.6 218.0,148.6 221.0,148.0 C224.1,147.4 227.1,145.9 230.2,145.2 C233.2,144.6 236.2,144.5 239.3,144.2 C242.3,143.9 245.3,143.7 248.4,143.5 C251.4,143.4 254.4,143.8 257.5,143.4 C260.5,143.0 263.5,141.8 266.6,141.2 C269.6,140.7 272.7,140.5 275.7,140.1 C278.7,139.7 281.8,139.6 284.8,138.9 C287.8,138.3 290.9,136.9 293.9,136.3 C296.9,135.6 300.0,135.4 303.0,135.0 C306.1,134.7 309.1,134.5 312.1,134.2 C315.2,134.0 318.2,134.0 321.2,133.7 C324.3,133.3 327.3,132.5 330.3,132.1 C333.4,131.6 336.4,131.4 339.4,131.1 C342.5,130.9 345.5,130.6 348.6,130.4 C351.6,130.3 354.6,130.2 357.7,130.0 C360.7,129.8 363.7,129.5 366.8,129.4 C369.8,129.3 372.8,129.4 375.9,129.4 C378.9,129.4 381.9,130.2 385.0,129.4 C388.0,128.7 391.1,125.9 394.1,124.9 C397.1,124.0 400.2,124.0 403.2,123.6 C406.2,123.1 409.3,122.7 412.3,122.3 C415.3,121.9 418.4,121.3 421.4,121.0 C424.5,120.7 427.5,120.7 430.5,120.5 C433.6,120.2 436.6,119.9 439.6,119.7 C442.7,119.5 445.7,119.6 448.7,119.2 C451.8,118.9 454.8,118.0 457.8,117.6 C460.9,117.2 463.9,117.0 467.0,116.7 C470.0,116.4 473.0,115.9 476.1,115.7 C479.1,115.4 482.1,115.5 485.2,115.2 C488.2,114.9 491.2,114.3 494.3,114.0 C497.3,113.8 500.3,113.8 503.4,113.6 C506.4,113.4 509.5,113.2 512.5,112.9 C515.5,112.6 518.6,112.3 521.6,112.0 C524.6,111.7 527.7,111.4 530.7,111.1 C533.7,110.8 536.8,110.6 539.8,110.3 C542.9,109.9 545.9,109.2 548.9,108.8 C552.0,108.4 555.0,108.2 558.0,107.9 C561.1,107.5 564.1,107.2 567.1,106.8 C570.2,106.5 573.2,106.1 576.2,105.8 C579.3,105.5 582.3,105.1 585.4,104.9 C588.4,104.6 591.4,104.5 594.5,104.2 C597.5,103.8 600.5,103.3 603.6,102.8 C606.6,102.3 609.6,101.6 612.7,101.3 C615.7,101.0 618.7,101.0 621.8,100.9 C624.8,100.7 627.9,100.6 630.9,100.4 C633.9,100.2 638.5,99.7 640.0,99.6" fill="none" class="line-openvsx" stroke-width="1.8" stroke-linecap="round" stroke-linejoin="round"/>
  <path d="M48.0,219.9 C49.5,219.9 54.1,219.9 57.1,219.8 C60.1,219.7 63.2,219.5 66.2,219.3 C69.3,219.1 72.3,218.8 75.3,218.6 C78.4,218.5 81.4,218.5 84.4,218.4 C87.5,218.3 90.5,218.2 93.5,218.1 C96.6,217.9 99.6,218.3 102.6,217.7 C105.7,217.1 108.7,214.8 111.8,214.2 C114.8,213.6 117.8,214.0 120.9,214.0 C123.9,213.9 126.9,213.9 130.0,213.8 C133.0,213.8 136.0,213.7 139.1,213.6 C142.1,213.6 145.1,213.6 148.2,213.6 C151.2,213.6 154.3,213.6 157.3,213.6 C160.3,213.6 163.4,213.6 166.4,213.6 C169.4,213.5 172.5,213.3 175.5,213.2 C178.5,213.1 181.6,213.1 184.6,213.1 C187.7,213.0 190.7,213.0 193.7,213.0 C196.8,213.0 199.8,212.9 202.8,212.9 C205.9,212.9 208.9,212.8 211.9,212.8 C215.0,212.8 218.0,212.8 221.0,212.8 C224.1,212.8 227.1,212.8 230.2,212.8 C233.2,212.8 236.2,212.7 239.3,212.7 C242.3,212.7 245.3,212.7 248.4,212.7 C251.4,212.7 254.4,212.7 257.5,212.7 C260.5,212.6 263.5,212.6 266.6,212.5 C269.6,212.5 272.7,212.5 275.7,212.4 C278.7,212.4 281.8,212.2 284.8,212.1 C287.8,212.1 290.9,212.0 293.9,212.0 C296.9,211.9 300.0,211.9 303.0,211.9 C306.1,211.8 309.1,211.8 312.1,211.8 C315.2,211.8 318.2,211.7 321.2,211.7 C324.3,211.6 327.3,211.6 330.3,211.5 C333.4,211.5 336.4,211.4 339.4,211.4 C342.5,211.4 345.5,211.3 348.6,211.3 C351.6,211.2 354.6,211.2 357.7,211.1 C360.7,211.1 363.7,211.0 366.8,211.0 C369.8,211.0 372.8,210.9 375.9,210.8 C378.9,210.8 381.9,210.8 385.0,210.8 C388.0,210.7 391.1,210.6 394.1,210.6 C397.1,210.6 400.2,210.6 403.2,210.6 C406.2,210.6 409.3,210.5 412.3,210.5 C415.3,210.5 418.4,210.5 421.4,210.5 C424.5,210.5 427.5,210.5 430.5,210.5 C433.6,210.5 436.6,210.5 439.6,210.5 C442.7,210.5 445.7,210.5 448.7,210.5 C451.8,210.5 454.8,210.5 457.8,210.5 C460.9,210.5 463.9,210.5 467.0,210.5 C470.0,210.5 473.0,210.5 476.1,210.5 C479.1,210.5 482.1,210.5 485.2,210.5 C488.2,210.5 491.2,210.5 494.3,210.5 C497.3,210.5 500.3,210.4 503.4,210.4 C506.4,210.3 509.5,210.3 512.5,210.3 C515.5,210.2 518.6,210.2 521.6,210.2 C524.6,210.2 527.7,210.2 530.7,210.1 C533.7,210.1 536.8,210.1 539.8,210.1 C542.9,210.1 545.9,210.0 548.9,210.0 C552.0,209.9 555.0,209.9 558.0,209.9 C561.1,209.8 564.1,209.8 567.1,209.8 C570.2,209.8 573.2,209.8 576.2,209.7 C579.3,209.7 582.3,209.7 585.4,209.7 C588.4,209.7 591.4,209.6 594.5,209.6 C597.5,209.6 600.5,209.6 603.6,209.6 C606.6,209.5 609.6,209.5 612.7,209.5 C615.7,209.5 618.7,209.5 621.8,209.5 C624.8,209.4 627.9,209.4 630.9,209.4 C633.9,209.4 638.5,209.3 640.0,209.3" fill="none" class="line-vscode" stroke-width="1.8" stroke-linecap="round" stroke-linejoin="round"/>
  <path d="M48.0,219.8 C49.5,218.4 54.1,213.7 57.1,211.7 C60.1,209.7 63.2,209.1 66.2,207.7 C69.3,206.4 72.3,204.4 75.3,203.7 C78.4,203.0 81.4,205.0 84.4,203.5 C87.5,202.0 90.5,196.6 93.5,194.9 C96.6,193.2 99.6,200.1 102.6,193.2 C105.7,186.2 108.7,160.3 111.8,153.3 C114.8,146.3 117.8,151.7 120.9,151.3 C123.9,150.8 126.9,150.7 130.0,150.5 C133.0,150.3 136.0,150.2 139.1,150.1 C142.1,150.0 145.1,149.9 148.2,149.7 C151.2,149.5 154.3,149.1 157.3,148.7 C160.3,148.2 163.4,147.4 166.4,147.0 C169.4,146.5 172.5,146.3 175.5,146.1 C178.5,145.9 181.6,146.0 184.6,145.6 C187.7,145.2 190.7,144.1 193.7,143.6 C196.8,143.1 199.8,142.9 202.8,142.6 C205.9,142.3 208.9,142.0 211.9,141.7 C215.0,141.4 218.0,141.4 221.0,140.8 C224.1,140.2 227.1,138.7 230.2,138.0 C233.2,137.4 236.2,137.2 239.3,136.9 C242.3,136.6 245.3,136.4 248.4,136.2 C251.4,136.1 254.4,136.5 257.5,136.1 C260.5,135.7 263.5,134.4 266.6,133.8 C269.6,133.2 272.7,133.0 275.7,132.5 C278.7,132.1 281.8,131.8 284.8,131.1 C287.8,130.4 290.9,129.0 293.9,128.3 C296.9,127.6 300.0,127.3 303.0,126.9 C306.1,126.5 309.1,126.3 312.1,126.0 C315.2,125.8 318.2,125.8 321.2,125.3 C324.3,124.9 327.3,124.0 330.3,123.6 C333.4,123.1 336.4,122.8 339.4,122.5 C342.5,122.2 345.5,122.0 348.6,121.7 C351.6,121.5 354.6,121.3 357.7,121.1 C360.7,120.9 363.7,120.6 366.8,120.4 C369.8,120.3 372.8,120.3 375.9,120.2 C378.9,120.2 381.9,121.0 385.0,120.2 C388.0,119.4 391.1,116.5 394.1,115.5 C397.1,114.5 400.2,114.6 403.2,114.2 C406.2,113.7 409.3,113.3 412.3,112.8 C415.3,112.4 418.4,111.9 421.4,111.6 C424.5,111.3 427.5,111.2 430.5,111.0 C433.6,110.8 436.6,110.4 439.6,110.2 C442.7,110.0 445.7,110.1 448.7,109.7 C451.8,109.4 454.8,108.6 457.8,108.1 C460.9,107.7 463.9,107.6 467.0,107.2 C470.0,106.9 473.0,106.4 476.1,106.2 C479.1,105.9 482.1,106.0 485.2,105.7 C488.2,105.5 491.2,104.8 494.3,104.5 C497.3,104.2 500.3,104.2 503.4,104.0 C506.4,103.7 509.5,103.5 512.5,103.2 C515.5,102.9 518.6,102.5 521.6,102.2 C524.6,101.9 527.7,101.5 530.7,101.2 C533.7,100.9 536.8,100.8 539.8,100.3 C542.9,99.9 545.9,99.2 548.9,98.7 C552.0,98.3 555.0,98.1 558.0,97.7 C561.1,97.4 564.1,97.0 567.1,96.6 C570.2,96.3 573.2,95.9 576.2,95.5 C579.3,95.2 582.3,94.8 585.4,94.6 C588.4,94.3 591.4,94.2 594.5,93.8 C597.5,93.4 600.5,92.9 603.6,92.4 C606.6,91.9 609.6,91.2 612.7,90.8 C615.7,90.5 618.7,90.5 621.8,90.3 C624.8,90.1 627.9,90.0 630.9,89.8 C633.9,89.6 638.5,89.1 640.0,88.9" fill="none" class="line-total" stroke-width="2.5" stroke-linecap="round" stroke-linejoin="round"/>

  <circle cx="640" cy="88.936" r="4.5" class="dot-total" stroke-width="2"/>
    <text x="658" y="92.936" class="end-label" font-family="-apple-system, BlinkMacSystemFont, 'Segoe UI', Helvetica, sans-serif">Total</text>
    <text x="697" y="92.936" class="end-value" font-family="-apple-system, BlinkMacSystemFont, 'Segoe UI', Helvetica, sans-serif">2.3k</text>
    <circle cx="640" cy="99.60000000000001" r="3.5" class="dot-openvsx" stroke-width="1.8"/>
    <text x="658" y="110.936" class="end-label" font-family="-apple-system, BlinkMacSystemFont, 'Segoe UI', Helvetica, sans-serif">Open VSX</text>
    <text x="716.8" y="110.936" class="end-value" font-family="-apple-system, BlinkMacSystemFont, 'Segoe UI', Helvetica, sans-serif">2.1k</text>
    <circle cx="640" cy="209.336" r="3.5" class="dot-vscode" stroke-width="1.8"/>
    <text x="658" y="213.336" class="end-label" font-family="-apple-system, BlinkMacSystemFont, 'Segoe UI', Helvetica, sans-serif">VS Code</text>
    <text x="710.2" y="213.336" class="end-value" font-family="-apple-system, BlinkMacSystemFont, 'Segoe UI', Helvetica, sans-serif">186</text>
</svg>