<svg xmlns="http://www.w3.org/2000/svg" viewBox="0 0 760 260" width="760" height="260" role="img" aria-label="Glassy install history">
  <style>
  svg { color-scheme: light dark; }
  .title      { fill: #1a1a2e; font-size: 15px; font-weight: 600; }
  .subtitle   { fill: #6b7280; font-size: 11px; font-weight: 400; }
  .grid       { stroke: #e8e8ee; }
  .axis-label { fill: #8a8a9a; font-size: 10px; }
  .line-total   { stroke: #e8553d; }
  .line-vscode  { stroke: #5b7cfa; }
  .line-openvsx { stroke: #34c7a0; }
  .dot-total   { fill: transparent; stroke: #e8553d; }
  .dot-vscode  { fill: transparent; stroke: #5b7cfa; }
  .dot-openvsx { fill: transparent; stroke: #34c7a0; }
  .end-label       { fill: #1a1a2e; font-size: 11px; font-weight: 600; }
  .end-value       { fill: #6b7280; font-size: 11px; font-weight: 400; }
  .area-total-top    { stop-color: #e8553d; }
  .area-total-bottom { stop-color: #e8553d; }

  @media (prefers-color-scheme: dark) {
    .title      { fill: #e2e2e8; }
    .subtitle   { fill: #8b949e; }
    .grid       { stroke: #2d2d3d; }
    .axis-label { fill: #6e7681; }
    .line-total   { stroke: #ff9b85; }
    .line-vscode  { stroke: #8da4ff; }
    .line-openvsx { stroke: #5eead4; }
    .dot-total   { stroke: #ff9b85; }
    .dot-vscode  { stroke: #8da4ff; }
    .dot-openvsx { stroke: #5eead4; }
    .end-label       { fill: #e2e2e8; }
    .end-value       { fill: #8b949e; }
    .area-total-top    { stop-color: #ff9b85; }
    .area-total-bottom { stop-color: #ff9b85; }
  }
</style>
  <defs>
    <linearGradient id="areaGrad" x1="0" y1="0" x2="0" y2="1">
      <stop offset="0%" class="area-total-top" stop-opacity="0.18"/>
      <stop offset="60%" class="area-total-bottom" stop-opacity="0.04"/>
      <stop offset="100%" class="area-total-bottom" stop-opacity="0"/>
    </linearGradient>
  </defs>

  <text x="48" y="22" class="title" font-family="-apple-system, BlinkMacSystemFont, 'Segoe UI', Helvetica, sans-serif">Installs</text>
  <text x="48" y="37" class="subtitle" font-family="-apple-system, BlinkMacSystemFont, 'Segoe UI', Helvetica, sans-serif">Updated Apr 30</text>

  <line x1="48" y1="220" x2="640" y2="220" class="grid" stroke-width="0.7"/>
    <text x="40" y="223.5" class="axis-label" text-anchor="end" font-family="-apple-system, BlinkMacSystemFont, 'Segoe UI', Helvetica, sans-serif">0</text>
    <line x1="48" y1="162.66666666666669" x2="640" y2="162.66666666666669" class="grid" stroke-width="0.7"/>
    <text x="40" y="166.16666666666669" class="axis-label" text-anchor="end" font-family="-apple-system, BlinkMacSystemFont, 'Segoe UI', Helvetica, sans-serif">500</text>
    <line x1="48" y1="105.33333333333334" x2="640" y2="105.33333333333334" class="grid" stroke-width="0.7"/>
    <text x="40" y="108.83333333333334" class="axis-label" text-anchor="end" font-family="-apple-system, BlinkMacSystemFont, 'Segoe UI', Helvetica, sans-serif">1k</text>
    <line x1="48" y1="48" x2="640" y2="48" class="grid" stroke-width="0.7"/>
    <text x="40" y="51.5" class="axis-label" text-anchor="end" font-family="-apple-system, BlinkMacSystemFont, 'Segoe UI', Helvetica, sans-serif">1.5k</text>
  <text x="48" y="248" class="axis-label" text-anchor="middle" font-family="-apple-system, BlinkMacSystemFont, 'Segoe UI', Helvetica, sans-serif">Mar 27</text>
    <text x="132.57142857142856" y="248" class="axis-label" text-anchor="middle" font-family="-apple-system, BlinkMacSystemFont, 'Segoe UI', Helvetica, sans-serif">Mar 28</text>
    <text x="301.71428571428567" y="248" class="axis-label" text-anchor="middle" font-family="-apple-system, BlinkMacSystemFont, 'Segoe UI', Helvetica, sans-serif">Mar 30</text>
    <text x="386.2857142857143" y="248" class="axis-label" text-anchor="middle" font-family="-apple-system, BlinkMacSystemFont, 'Segoe UI', Helvetica, sans-serif">Mar 31</text>
    <text x="555.4285714285713" y="248" class="axis-label" text-anchor="middle" font-family="-apple-system, BlinkMacSystemFont, 'Segoe UI', Helvetica, sans-serif">Apr 2</text>
    <text x="640" y="248" class="axis-label" text-anchor="middle" font-family="-apple-system, BlinkMacSystemFont, 'Segoe UI', Helvetica, sans-serif">Apr 30</text>

  <path d="M48.0,219.5 C62.1,216.8 104.4,207.4 132.6,203.4 C160.8,199.4 189.0,198.1 217.1,195.5 C245.3,192.8 273.5,188.8 301.7,187.4 C329.9,186.0 358.1,189.9 386.3,187.0 C414.5,184.0 442.7,173.2 470.9,169.8 C499.0,166.3 527.2,180.2 555.4,166.3 C583.6,152.5 625.9,99.9 640.0,86.6 L640.0,220.0 L48.0,220.0 Z" fill="url(#areaGrad)"/>
  <path d="M48.0,219.7 C62.1,217.0 104.4,207.5 132.6,203.7 C160.8,199.9 189.0,199.1 217.1,196.8 C245.3,194.6 273.5,191.3 301.7,190.2 C329.9,189.1 358.1,192.9 386.3,190.2 C414.5,187.4 442.7,176.9 470.9,173.7 C499.0,170.5 527.2,183.5 555.4,170.9 C583.6,158.3 625.9,110.3 640.0,98.2" fill="none" class="line-openvsx" stroke-width="1.8" stroke-linecap="round" stroke-linejoin="round"/>
  <path d="M48.0,219.9 C62.1,219.8 104.4,219.9 132.6,219.7 C160.8,219.4 189.0,219.0 217.1,218.6 C245.3,218.2 273.5,217.6 301.7,217.2 C329.9,216.9 358.1,217.0 386.3,216.8 C414.5,216.6 442.7,216.3 470.9,216.1 C499.0,215.9 527.2,216.7 555.4,215.4 C583.6,214.1 625.9,209.6 640.0,208.4" fill="none" class="line-vscode" stroke-width="1.8" stroke-linecap="round" stroke-linejoin="round"/>
  <path d="M48.0,219.5 C62.1,216.8 104.4,207.4 132.6,203.4 C160.8,199.4 189.0,198.1 217.1,195.5 C245.3,192.8 273.5,188.8 301.7,187.4 C329.9,186.0 358.1,189.9 386.3,187.0 C414.5,184.0 442.7,173.2 470.9,169.8 C499.0,166.3 527.2,180.2 555.4,166.3 C583.6,152.5 625.9,99.9 640.0,86.6" fill="none" class="line-total" stroke-width="2.5" stroke-linecap="round" stroke-linejoin="round"/>

  <circle cx="640" cy="86.64266666666666" r="4.5" class="dot-total" stroke-width="2"/>
    <text x="658" y="90.64266666666666" class="end-label" font-family="-apple-system, BlinkMacSystemFont, 'Segoe UI', Helvetica, sans-serif">Total</text>
    <text x="697" y="90.64266666666666" class="end-value" font-family="-apple-system, BlinkMacSystemFont, 'Segoe UI', Helvetica, sans-serif">1.2k</text>
    <circle cx="640" cy="98.224" r="3.5" class="dot-openvsx" stroke-width="1.8"/>
    <text x="658" y="108.64266666666666" class="end-label" font-family="-apple-system, BlinkMacSystemFont, 'Segoe UI', Helvetica, sans-serif">Open VSX</text>
    <text x="716.8" y="108.64266666666666" class="end-value" font-family="-apple-system, BlinkMacSystemFont, 'Segoe UI', Helvetica, sans-serif">1.1k</text>
    <circle cx="640" cy="208.41866666666667" r="3.5" class="dot-vscode" stroke-width="1.8"/>
    <text x="658" y="212.41866666666667" class="end-label" font-family="-apple-system, BlinkMacSystemFont, 'Segoe UI', Helvetica, sans-serif">VS Code</text>
    <text x="710.2" y="212.41866666666667" class="end-value" font-family="-apple-system, BlinkMacSystemFont, 'Segoe UI', Helvetica, sans-serif">101</text>
</svg>