<svg xmlns="http://www.w3.org/2000/svg" viewBox="0 0 760 260" width="760" height="260" role="img" aria-label="Glassy install history">
  <style>
  svg { color-scheme: light dark; }
  .title      { fill: #1a1a2e; font-size: 15px; font-weight: 600; }
  .subtitle   { fill: #6b7280; font-size: 11px; font-weight: 400; }
  .grid       { stroke: #e8e8ee; }
  .axis-label { fill: #8a8a9a; font-size: 10px; }
  .line-total   { stroke: #e8553d; }
  .line-vscode  { stroke: #5b7cfa; }
  .line-openvsx { stroke: #34c7a0; }
  .dot-total   { fill: transparent; stroke: #e8553d; }
  .dot-vscode  { fill: transparent; stroke: #5b7cfa; }
  .dot-openvsx { fill: transparent; stroke: #34c7a0; }
  .end-label       { fill: #1a1a2e; font-size: 11px; font-weight: 600; }
  .end-value       { fill: #6b7280; font-size: 11px; font-weight: 400; }
  .area-total-top    { stop-color: #e8553d; }
  .area-total-bottom { stop-color: #e8553d; }

  @media (prefers-color-scheme: dark) {
    .title      { fill: #e2e2e8; }
    .subtitle   { fill: #8b949e; }
    .grid       { stroke: #2d2d3d; }
    .axis-label { fill: #6e7681; }
    .line-total   { stroke: #ff9b85; }
    .line-vscode  { stroke: #8da4ff; }
    .line-openvsx { stroke: #5eead4; }
    .dot-total   { stroke: #ff9b85; }
    .dot-vscode  { stroke: #8da4ff; }
    .dot-openvsx { stroke: #5eead4; }
    .end-label       { fill: #e2e2e8; }
    .end-value       { fill: #8b949e; }
    .area-total-top    { stop-color: #ff9b85; }
    .area-total-bottom { stop-color: #ff9b85; }
  }
</style>
  <defs>
    <linearGradient id="areaGrad" x1="0" y1="0" x2="0" y2="1">
      <stop offset="0%" class="area-total-top" stop-opacity="0.18"/>
      <stop offset="60%" class="area-total-bottom" stop-opacity="0.04"/>
      <stop offset="100%" class="area-total-bottom" stop-opacity="0"/>
    </linearGradient>
  </defs>

  <text x="48" y="22" class="title" font-family="-apple-system, BlinkMacSystemFont, 'Segoe UI', Helvetica, sans-serif">Installs</text>
  <text x="48" y="37" class="subtitle" font-family="-apple-system, BlinkMacSystemFont, 'Segoe UI', Helvetica, sans-serif">Updated May 21</text>

  <line x1="48" y1="220" x2="640" y2="220" class="grid" stroke-width="0.7"/>
    <text x="40" y="223.5" class="axis-label" text-anchor="end" font-family="-apple-system, BlinkMacSystemFont, 'Segoe UI', Helvetica, sans-serif">0</text>
    <line x1="48" y1="177" x2="640" y2="177" class="grid" stroke-width="0.7"/>
    <text x="40" y="180.5" class="axis-label" text-anchor="end" font-family="-apple-system, BlinkMacSystemFont, 'Segoe UI', Helvetica, sans-serif">500</text>
    <line x1="48" y1="134" x2="640" y2="134" class="grid" stroke-width="0.7"/>
    <text x="40" y="137.5" class="axis-label" text-anchor="end" font-family="-apple-system, BlinkMacSystemFont, 'Segoe UI', Helvetica, sans-serif">1k</text>
    <line x1="48" y1="91" x2="640" y2="91" class="grid" stroke-width="0.7"/>
    <text x="40" y="94.5" class="axis-label" text-anchor="end" font-family="-apple-system, BlinkMacSystemFont, 'Segoe UI', Helvetica, sans-serif">1.5k</text>
    <line x1="48" y1="48" x2="640" y2="48" class="grid" stroke-width="0.7"/>
    <text x="40" y="51.5" class="axis-label" text-anchor="end" font-family="-apple-system, BlinkMacSystemFont, 'Segoe UI', Helvetica, sans-serif">2k</text>
  <text x="48" y="248" class="axis-label" text-anchor="middle" font-family="-apple-system, BlinkMacSystemFont, 'Segoe UI', Helvetica, sans-serif">Mar 27</text>
    <text x="161.84615384615387" y="248" class="axis-label" text-anchor="middle" font-family="-apple-system, BlinkMacSystemFont, 'Segoe UI', Helvetica, sans-serif">Apr 1</text>
    <text x="275.69230769230774" y="248" class="axis-label" text-anchor="middle" font-family="-apple-system, BlinkMacSystemFont, 'Segoe UI', Helvetica, sans-serif">May 5</text>
    <text x="412.3076923076923" y="248" class="axis-label" text-anchor="middle" font-family="-apple-system, BlinkMacSystemFont, 'Segoe UI', Helvetica, sans-serif">May 11</text>
    <text x="526.1538461538462" y="248" class="axis-label" text-anchor="middle" font-family="-apple-system, BlinkMacSystemFont, 'Segoe UI', Helvetica, sans-serif">May 16</text>
    <text x="640" y="248" class="axis-label" text-anchor="middle" font-family="-apple-system, BlinkMacSystemFont, 'Segoe UI', Helvetica, sans-serif">May 21</text>

  <path d="M48.0,219.7 C51.8,217.6 63.2,210.5 70.8,207.5 C78.4,204.5 85.9,203.6 93.5,201.6 C101.1,199.6 108.7,196.6 116.3,195.6 C123.9,194.5 131.5,197.4 139.1,195.2 C146.7,193.0 154.3,184.9 161.8,182.3 C169.4,179.8 177.0,190.1 184.6,179.8 C192.2,169.4 199.8,130.5 207.4,120.0 C215.0,109.5 222.6,117.6 230.2,116.9 C237.7,116.2 245.3,116.1 252.9,115.8 C260.5,115.5 268.1,115.4 275.7,115.2 C283.3,115.0 290.9,114.9 298.5,114.6 C306.1,114.2 313.6,113.7 321.2,113.0 C328.8,112.3 336.4,111.1 344.0,110.4 C351.6,109.8 359.2,109.5 366.8,109.1 C374.4,108.8 381.9,109.1 389.5,108.5 C397.1,107.8 404.7,106.2 412.3,105.4 C419.9,104.7 427.5,104.4 435.1,103.9 C442.7,103.4 450.3,103.1 457.8,102.6 C465.4,102.2 473.0,102.2 480.6,101.2 C488.2,100.3 495.8,98.0 503.4,97.0 C511.0,96.0 518.6,95.8 526.2,95.4 C533.7,94.9 541.3,94.6 548.9,94.4 C556.5,94.1 564.1,94.7 571.7,94.1 C579.3,93.5 586.9,91.5 594.5,90.7 C602.1,89.8 609.6,89.4 617.2,88.8 C624.8,88.1 636.2,87.0 640.0,86.6 L640.0,220.0 L48.0,220.0 Z" fill="url(#areaGrad)"/>
  <path d="M48.0,219.7 C51.8,217.7 63.2,210.6 70.8,207.8 C78.4,204.9 85.9,204.3 93.5,202.6 C101.1,200.9 108.7,198.5 116.3,197.6 C123.9,196.8 131.5,199.7 139.1,197.6 C146.7,195.6 154.3,187.7 161.8,185.3 C169.4,182.8 177.0,192.6 184.6,183.2 C192.2,173.8 199.8,138.2 207.4,128.7 C215.0,119.1 222.6,126.5 230.2,125.9 C237.7,125.3 245.3,125.3 252.9,125.1 C260.5,124.9 268.1,124.9 275.7,124.7 C283.3,124.6 290.9,124.5 298.5,124.2 C306.1,123.9 313.6,123.3 321.2,122.6 C328.8,122.0 336.4,120.6 344.0,120.1 C351.6,119.5 359.2,119.6 366.8,119.4 C374.4,119.2 381.9,119.4 389.5,118.9 C397.1,118.3 404.7,116.7 412.3,115.9 C419.9,115.2 427.5,115.0 435.1,114.6 C442.7,114.1 450.3,113.8 457.8,113.4 C465.4,112.9 473.0,112.9 480.6,112.0 C488.2,111.1 495.8,108.8 503.4,107.9 C511.0,106.9 518.6,106.7 526.2,106.3 C533.7,105.9 541.3,105.5 548.9,105.3 C556.5,105.1 564.1,105.7 571.7,105.1 C579.3,104.5 586.9,102.7 594.5,101.8 C602.1,101.0 609.6,100.7 617.2,100.1 C624.8,99.5 636.2,98.7 640.0,98.4" fill="none" class="line-openvsx" stroke-width="1.8" stroke-linecap="round" stroke-linejoin="round"/>
  <path d="M48.0,219.9 C51.8,219.9 63.2,219.9 70.8,219.7 C78.4,219.6 85.9,219.3 93.5,219.0 C101.1,218.7 108.7,218.2 116.3,217.9 C123.9,217.7 131.5,217.7 139.1,217.6 C146.7,217.4 154.3,217.2 161.8,217.1 C169.4,216.9 177.0,217.5 184.6,216.6 C192.2,215.6 199.8,212.2 207.4,211.3 C215.0,210.4 222.6,211.1 230.2,211.0 C237.7,210.9 245.3,210.8 252.9,210.7 C260.5,210.6 268.1,210.5 275.7,210.5 C283.3,210.4 290.9,210.4 298.5,210.4 C306.1,210.4 313.6,210.4 321.2,210.4 C328.8,210.4 336.4,210.5 344.0,210.4 C351.6,210.3 359.2,209.9 366.8,209.8 C374.4,209.6 381.9,209.6 389.5,209.6 C397.1,209.6 404.7,209.6 412.3,209.5 C419.9,209.5 427.5,209.4 435.1,209.3 C442.7,209.3 450.3,209.3 457.8,209.3 C465.4,209.2 473.0,209.3 480.6,209.3 C488.2,209.2 495.8,209.2 503.4,209.2 C511.0,209.1 518.6,209.1 526.2,209.1 C533.7,209.1 541.3,209.1 548.9,209.1 C556.5,209.1 564.1,209.0 571.7,209.0 C579.3,208.9 586.9,208.9 594.5,208.8 C602.1,208.8 609.6,208.7 617.2,208.6 C624.8,208.5 636.2,208.3 640.0,208.2" fill="none" class="line-vscode" stroke-width="1.8" stroke-linecap="round" stroke-linejoin="round"/>
  <path d="M48.0,219.7 C51.8,217.6 63.2,210.5 70.8,207.5 C78.4,204.5 85.9,203.6 93.5,201.6 C101.1,199.6 108.7,196.6 116.3,195.6 C123.9,194.5 131.5,197.4 139.1,195.2 C146.7,193.0 154.3,184.9 161.8,182.3 C169.4,179.8 177.0,190.1 184.6,179.8 C192.2,169.4 199.8,130.5 207.4,120.0 C215.0,109.5 222.6,117.6 230.2,116.9 C237.7,116.2 245.3,116.1 252.9,115.8 C260.5,115.5 268.1,115.4 275.7,115.2 C283.3,115.0 290.9,114.9 298.5,114.6 C306.1,114.2 313.6,113.7 321.2,113.0 C328.8,112.3 336.4,111.1 344.0,110.4 C351.6,109.8 359.2,109.5 366.8,109.1 C374.4,108.8 381.9,109.1 389.5,108.5 C397.1,107.8 404.7,106.2 412.3,105.4 C419.9,104.7 427.5,104.4 435.1,103.9 C442.7,103.4 450.3,103.1 457.8,102.6 C465.4,102.2 473.0,102.2 480.6,101.2 C488.2,100.3 495.8,98.0 503.4,97.0 C511.0,96.0 518.6,95.8 526.2,95.4 C533.7,94.9 541.3,94.6 548.9,94.4 C556.5,94.1 564.1,94.7 571.7,94.1 C579.3,93.5 586.9,91.5 594.5,90.7 C602.1,89.8 609.6,89.4 617.2,88.8 C624.8,88.1 636.2,87.0 640.0,86.6" fill="none" class="line-total" stroke-width="2.5" stroke-linecap="round" stroke-linejoin="round"/>

  <circle cx="640" cy="86.614" r="4.5" class="dot-total" stroke-width="2"/>
    <text x="658" y="90.614" class="end-label" font-family="-apple-system, BlinkMacSystemFont, 'Segoe UI', Helvetica, sans-serif">Total</text>
    <text x="697" y="90.614" class="end-value" font-family="-apple-system, BlinkMacSystemFont, 'Segoe UI', Helvetica, sans-serif">1.6k</text>
    <circle cx="640" cy="98.396" r="3.5" class="dot-openvsx" stroke-width="1.8"/>
    <text x="658" y="108.614" class="end-label" font-family="-apple-system, BlinkMacSystemFont, 'Segoe UI', Helvetica, sans-serif">Open VSX</text>
    <text x="716.8" y="108.614" class="end-value" font-family="-apple-system, BlinkMacSystemFont, 'Segoe UI', Helvetica, sans-serif">1.4k</text>
    <circle cx="640" cy="208.218" r="3.5" class="dot-vscode" stroke-width="1.8"/>
    <text x="658" y="212.218" class="end-label" font-family="-apple-system, BlinkMacSystemFont, 'Segoe UI', Helvetica, sans-serif">VS Code</text>
    <text x="710.2" y="212.218" class="end-value" font-family="-apple-system, BlinkMacSystemFont, 'Segoe UI', Helvetica, sans-serif">137</text>
</svg>