<svg xmlns="http://www.w3.org/2000/svg" viewBox="0 0 760 260" width="760" height="260" role="img" aria-label="Glassy install history">
  <style>
  svg { color-scheme: light dark; }
  .title      { fill: #1a1a2e; font-size: 15px; font-weight: 600; }
  .subtitle   { fill: #6b7280; font-size: 11px; font-weight: 400; }
  .grid       { stroke: #e8e8ee; }
  .axis-label { fill: #8a8a9a; font-size: 10px; }
  .line-total   { stroke: #e8553d; }
  .line-vscode  { stroke: #5b7cfa; }
  .line-openvsx { stroke: #34c7a0; }
  .dot-total   { fill: transparent; stroke: #e8553d; }
  .dot-vscode  { fill: transparent; stroke: #5b7cfa; }
  .dot-openvsx { fill: transparent; stroke: #34c7a0; }
  .end-label       { fill: #1a1a2e; font-size: 11px; font-weight: 600; }
  .end-value       { fill: #6b7280; font-size: 11px; font-weight: 400; }
  .area-total-top    { stop-color: #e8553d; }
  .area-total-bottom { stop-color: #e8553d; }

  @media (prefers-color-scheme: dark) {
    .title      { fill: #e2e2e8; }
    .subtitle   { fill: #8b949e; }
    .grid       { stroke: #2d2d3d; }
    .axis-label { fill: #6e7681; }
    .line-total   { stroke: #ff9b85; }
    .line-vscode  { stroke: #8da4ff; }
    .line-openvsx { stroke: #5eead4; }
    .dot-total   { stroke: #ff9b85; }
    .dot-vscode  { stroke: #8da4ff; }
    .dot-openvsx { stroke: #5eead4; }
    .end-label       { fill: #e2e2e8; }
    .end-value       { fill: #8b949e; }
    .area-total-top    { stop-color: #ff9b85; }
    .area-total-bottom { stop-color: #ff9b85; }
  }
</style>
  <defs>
    <linearGradient id="areaGrad" x1="0" y1="0" x2="0" y2="1">
      <stop offset="0%" class="area-total-top" stop-opacity="0.18"/>
      <stop offset="60%" class="area-total-bottom" stop-opacity="0.04"/>
      <stop offset="100%" class="area-total-bottom" stop-opacity="0"/>
    </linearGradient>
  </defs>

  <text x="48" y="22" class="title" font-family="-apple-system, BlinkMacSystemFont, 'Segoe UI', Helvetica, sans-serif">Installs</text>
  <text x="48" y="37" class="subtitle" font-family="-apple-system, BlinkMacSystemFont, 'Segoe UI', Helvetica, sans-serif">Updated Jun 27</text>

  <line x1="48" y1="220" x2="640" y2="220" class="grid" stroke-width="0.7"/>
    <text x="40" y="223.5" class="axis-label" text-anchor="end" font-family="-apple-system, BlinkMacSystemFont, 'Segoe UI', Helvetica, sans-serif">0</text>
    <line x1="48" y1="162.66666666666669" x2="640" y2="162.66666666666669" class="grid" stroke-width="0.7"/>
    <text x="40" y="166.16666666666669" class="axis-label" text-anchor="end" font-family="-apple-system, BlinkMacSystemFont, 'Segoe UI', Helvetica, sans-serif">1k</text>
    <line x1="48" y1="105.33333333333334" x2="640" y2="105.33333333333334" class="grid" stroke-width="0.7"/>
    <text x="40" y="108.83333333333334" class="axis-label" text-anchor="end" font-family="-apple-system, BlinkMacSystemFont, 'Segoe UI', Helvetica, sans-serif">2k</text>
    <line x1="48" y1="48" x2="640" y2="48" class="grid" stroke-width="0.7"/>
    <text x="40" y="51.5" class="axis-label" text-anchor="end" font-family="-apple-system, BlinkMacSystemFont, 'Segoe UI', Helvetica, sans-serif">3k</text>
  <text x="48" y="248" class="axis-label" text-anchor="middle" font-family="-apple-system, BlinkMacSystemFont, 'Segoe UI', Helvetica, sans-serif">Mar 27</text>
    <text x="170.15873015873015" y="248" class="axis-label" text-anchor="middle" font-family="-apple-system, BlinkMacSystemFont, 'Segoe UI', Helvetica, sans-serif">May 8</text>
    <text x="282.92063492063494" y="248" class="axis-label" text-anchor="middle" font-family="-apple-system, BlinkMacSystemFont, 'Segoe UI', Helvetica, sans-serif">May 20</text>
    <text x="405.07936507936506" y="248" class="axis-label" text-anchor="middle" font-family="-apple-system, BlinkMacSystemFont, 'Segoe UI', Helvetica, sans-serif">Jun 2</text>
    <text x="517.8412698412699" y="248" class="axis-label" text-anchor="middle" font-family="-apple-system, BlinkMacSystemFont, 'Segoe UI', Helvetica, sans-serif">Jun 14</text>
    <text x="640" y="248" class="axis-label" text-anchor="middle" font-family="-apple-system, BlinkMacSystemFont, 'Segoe UI', Helvetica, sans-serif">Jun 27</text>

  <path d="M48.0,219.8 C49.6,218.4 54.3,213.7 57.4,211.7 C60.5,209.7 63.7,209.1 66.8,207.7 C69.9,206.4 73.1,204.4 76.2,203.7 C79.3,203.0 82.5,205.0 85.6,203.5 C88.7,202.0 91.9,196.6 95.0,194.9 C98.1,193.2 101.2,200.1 104.4,193.2 C107.5,186.2 110.6,160.3 113.8,153.3 C116.9,146.3 120.0,151.7 123.2,151.3 C126.3,150.8 129.4,150.7 132.6,150.5 C135.7,150.3 138.8,150.2 142.0,150.1 C145.1,150.0 148.2,149.9 151.4,149.7 C154.5,149.5 157.6,149.1 160.8,148.7 C163.9,148.2 167.0,147.4 170.2,147.0 C173.3,146.5 176.4,146.3 179.6,146.1 C182.7,145.9 185.8,146.0 189.0,145.6 C192.1,145.2 195.2,144.1 198.3,143.6 C201.5,143.1 204.6,142.9 207.7,142.6 C210.9,142.3 214.0,142.0 217.1,141.7 C220.3,141.4 223.4,141.4 226.5,140.8 C229.7,140.2 232.8,138.7 235.9,138.0 C239.1,137.4 242.2,137.2 245.3,136.9 C248.5,136.6 251.6,136.4 254.7,136.2 C257.9,136.1 261.0,136.5 264.1,136.1 C267.3,135.7 270.4,134.4 273.5,133.8 C276.7,133.2 279.8,133.0 282.9,132.5 C286.1,132.1 289.2,131.8 292.3,131.1 C295.4,130.4 298.6,129.0 301.7,128.3 C304.8,127.6 308.0,127.3 311.1,126.9 C314.2,126.5 317.4,126.3 320.5,126.0 C323.6,125.8 326.8,125.8 329.9,125.3 C333.0,124.9 336.2,124.0 339.3,123.6 C342.4,123.1 345.6,122.8 348.7,122.5 C351.8,122.2 355.0,122.0 358.1,121.7 C361.2,121.5 364.4,121.3 367.5,121.1 C370.6,120.9 373.8,120.6 376.9,120.4 C380.0,120.3 383.2,120.3 386.3,120.2 C389.4,120.2 392.6,121.0 395.7,120.2 C398.8,119.4 401.9,116.5 405.1,115.5 C408.2,114.5 411.3,114.6 414.5,114.2 C417.6,113.7 420.7,113.3 423.9,112.8 C427.0,112.4 430.1,111.9 433.3,111.6 C436.4,111.3 439.5,111.2 442.7,111.0 C445.8,110.8 448.9,110.4 452.1,110.2 C455.2,110.0 458.3,110.1 461.5,109.7 C464.6,109.4 467.7,108.6 470.9,108.1 C474.0,107.7 477.1,107.6 480.3,107.2 C483.4,106.9 486.5,106.4 489.7,106.2 C492.8,105.9 495.9,106.0 499.0,105.7 C502.2,105.5 505.3,104.8 508.4,104.5 C511.6,104.2 514.7,104.2 517.8,104.0 C521.0,103.7 524.1,103.5 527.2,103.2 C530.4,102.9 533.5,102.5 536.6,102.2 C539.8,101.9 542.9,101.5 546.0,101.2 C549.2,100.9 552.3,100.8 555.4,100.3 C558.6,99.9 561.7,99.2 564.8,98.7 C568.0,98.3 571.1,98.1 574.2,97.7 C577.4,97.4 580.5,97.0 583.6,96.6 C586.8,96.3 589.9,95.9 593.0,95.5 C596.1,95.2 599.3,94.8 602.4,94.6 C605.5,94.3 608.7,94.2 611.8,93.8 C614.9,93.4 618.1,92.9 621.2,92.4 C624.3,91.9 627.5,91.2 630.6,90.8 C633.7,90.5 638.4,90.4 640.0,90.3 L640.0,220.0 L48.0,220.0 Z" fill="url(#areaGrad)"/>
  <path d="M48.0,219.8 C49.6,218.5 54.3,213.8 57.4,211.9 C60.5,210.0 63.7,209.5 66.8,208.4 C69.9,207.3 73.1,205.6 76.2,205.1 C79.3,204.5 82.5,206.5 85.6,205.1 C88.7,203.7 91.9,198.4 95.0,196.8 C98.1,195.2 101.2,201.7 104.4,195.5 C107.5,189.2 110.6,165.5 113.8,159.1 C116.9,152.7 120.0,157.7 123.2,157.3 C126.3,156.9 129.4,156.8 132.6,156.7 C135.7,156.6 138.8,156.6 142.0,156.5 C145.1,156.4 148.2,156.4 151.4,156.1 C154.5,155.9 157.6,155.6 160.8,155.1 C163.9,154.6 167.0,153.7 170.2,153.4 C173.3,153.0 176.4,153.1 179.6,152.9 C182.7,152.8 185.8,153.0 189.0,152.6 C192.1,152.2 195.2,151.1 198.3,150.6 C201.5,150.1 204.6,150.0 207.7,149.7 C210.9,149.4 214.0,149.2 217.1,148.9 C220.3,148.6 223.4,148.6 226.5,148.0 C229.7,147.4 232.8,145.9 235.9,145.2 C239.1,144.6 242.2,144.5 245.3,144.2 C248.5,143.9 251.6,143.7 254.7,143.5 C257.9,143.4 261.0,143.8 264.1,143.4 C267.3,143.0 270.4,141.8 273.5,141.2 C276.7,140.7 279.8,140.5 282.9,140.1 C286.1,139.7 289.2,139.6 292.3,138.9 C295.4,138.3 298.6,136.9 301.7,136.3 C304.8,135.6 308.0,135.4 311.1,135.0 C314.2,134.7 317.4,134.5 320.5,134.2 C323.6,134.0 326.8,134.0 329.9,133.7 C333.0,133.3 336.2,132.5 339.3,132.1 C342.4,131.6 345.6,131.4 348.7,131.1 C351.8,130.9 355.0,130.6 358.1,130.4 C361.2,130.3 364.4,130.2 367.5,130.0 C370.6,129.8 373.8,129.5 376.9,129.4 C380.0,129.3 383.2,129.4 386.3,129.4 C389.4,129.4 392.6,130.2 395.7,129.4 C398.8,128.7 401.9,125.9 405.1,124.9 C408.2,124.0 411.3,124.0 414.5,123.6 C417.6,123.1 420.7,122.7 423.9,122.3 C427.0,121.9 430.1,121.3 433.3,121.0 C436.4,120.7 439.5,120.7 442.7,120.5 C445.8,120.2 448.9,119.9 452.1,119.7 C455.2,119.5 458.3,119.6 461.5,119.2 C464.6,118.9 467.7,118.0 470.9,117.6 C474.0,117.2 477.1,117.0 480.3,116.7 C483.4,116.4 486.5,115.9 489.7,115.7 C492.8,115.4 495.9,115.5 499.0,115.2 C502.2,114.9 505.3,114.3 508.4,114.0 C511.6,113.8 514.7,113.8 517.8,113.6 C521.0,113.4 524.1,113.2 527.2,112.9 C530.4,112.6 533.5,112.3 536.6,112.0 C539.8,111.7 542.9,111.4 546.0,111.1 C549.2,110.8 552.3,110.6 555.4,110.3 C558.6,109.9 561.7,109.2 564.8,108.8 C568.0,108.4 571.1,108.2 574.2,107.9 C577.4,107.5 580.5,107.2 583.6,106.8 C586.8,106.5 589.9,106.1 593.0,105.8 C596.1,105.5 599.3,105.1 602.4,104.9 C605.5,104.6 608.7,104.5 611.8,104.2 C614.9,103.8 618.1,103.3 621.2,102.8 C624.3,102.3 627.5,101.6 630.6,101.3 C633.7,101.0 638.4,100.9 640.0,100.9" fill="none" class="line-openvsx" stroke-width="1.8" stroke-linecap="round" stroke-linejoin="round"/>
  <path d="M48.0,219.9 C49.6,219.9 54.3,219.9 57.4,219.8 C60.5,219.7 63.7,219.5 66.8,219.3 C69.9,219.1 73.1,218.8 76.2,218.6 C79.3,218.5 82.5,218.5 85.6,218.4 C88.7,218.3 91.9,218.2 95.0,218.1 C98.1,217.9 101.2,218.3 104.4,217.7 C107.5,217.1 110.6,214.8 113.8,214.2 C116.9,213.6 120.0,214.0 123.2,214.0 C126.3,213.9 129.4,213.9 132.6,213.8 C135.7,213.8 138.8,213.7 142.0,213.6 C145.1,213.6 148.2,213.6 151.4,213.6 C154.5,213.6 157.6,213.6 160.8,213.6 C163.9,213.6 167.0,213.6 170.2,213.6 C173.3,213.5 176.4,213.3 179.6,213.2 C182.7,213.1 185.8,213.1 189.0,213.1 C192.1,213.0 195.2,213.0 198.3,213.0 C201.5,213.0 204.6,212.9 207.7,212.9 C210.9,212.9 214.0,212.8 217.1,212.8 C220.3,212.8 223.4,212.8 226.5,212.8 C229.7,212.8 232.8,212.8 235.9,212.8 C239.1,212.8 242.2,212.7 245.3,212.7 C248.5,212.7 251.6,212.7 254.7,212.7 C257.9,212.7 261.0,212.7 264.1,212.7 C267.3,212.6 270.4,212.6 273.5,212.5 C276.7,212.5 279.8,212.5 282.9,212.4 C286.1,212.4 289.2,212.2 292.3,212.1 C295.4,212.1 298.6,212.0 301.7,212.0 C304.8,211.9 308.0,211.9 311.1,211.9 C314.2,211.8 317.4,211.8 320.5,211.8 C323.6,211.8 326.8,211.7 329.9,211.7 C333.0,211.6 336.2,211.6 339.3,211.5 C342.4,211.5 345.6,211.4 348.7,211.4 C351.8,211.4 355.0,211.3 358.1,211.3 C361.2,211.2 364.4,211.2 367.5,211.1 C370.6,211.1 373.8,211.0 376.9,211.0 C380.0,211.0 383.2,210.9 386.3,210.8 C389.4,210.8 392.6,210.8 395.7,210.8 C398.8,210.7 401.9,210.6 405.1,210.6 C408.2,210.6 411.3,210.6 414.5,210.6 C417.6,210.6 420.7,210.5 423.9,210.5 C427.0,210.5 430.1,210.5 433.3,210.5 C436.4,210.5 439.5,210.5 442.7,210.5 C445.8,210.5 448.9,210.5 452.1,210.5 C455.2,210.5 458.3,210.5 461.5,210.5 C464.6,210.5 467.7,210.5 470.9,210.5 C474.0,210.5 477.1,210.5 480.3,210.5 C483.4,210.5 486.5,210.5 489.7,210.5 C492.8,210.5 495.9,210.5 499.0,210.5 C502.2,210.5 505.3,210.5 508.4,210.5 C511.6,210.5 514.7,210.4 517.8,210.4 C521.0,210.3 524.1,210.3 527.2,210.3 C530.4,210.2 533.5,210.2 536.6,210.2 C539.8,210.2 542.9,210.2 546.0,210.1 C549.2,210.1 552.3,210.1 555.4,210.1 C558.6,210.1 561.7,210.0 564.8,210.0 C568.0,209.9 571.1,209.9 574.2,209.9 C577.4,209.8 580.5,209.8 583.6,209.8 C586.8,209.8 589.9,209.8 593.0,209.7 C596.1,209.7 599.3,209.7 602.4,209.7 C605.5,209.7 608.7,209.6 611.8,209.6 C614.9,209.6 618.1,209.6 621.2,209.6 C624.3,209.5 627.5,209.5 630.6,209.5 C633.7,209.5 638.4,209.5 640.0,209.5" fill="none" class="line-vscode" stroke-width="1.8" stroke-linecap="round" stroke-linejoin="round"/>
  <path d="M48.0,219.8 C49.6,218.4 54.3,213.7 57.4,211.7 C60.5,209.7 63.7,209.1 66.8,207.7 C69.9,206.4 73.1,204.4 76.2,203.7 C79.3,203.0 82.5,205.0 85.6,203.5 C88.7,202.0 91.9,196.6 95.0,194.9 C98.1,193.2 101.2,200.1 104.4,193.2 C107.5,186.2 110.6,160.3 113.8,153.3 C116.9,146.3 120.0,151.7 123.2,151.3 C126.3,150.8 129.4,150.7 132.6,150.5 C135.7,150.3 138.8,150.2 142.0,150.1 C145.1,150.0 148.2,149.9 151.4,149.7 C154.5,149.5 157.6,149.1 160.8,148.7 C163.9,148.2 167.0,147.4 170.2,147.0 C173.3,146.5 176.4,146.3 179.6,146.1 C182.7,145.9 185.8,146.0 189.0,145.6 C192.1,145.2 195.2,144.1 198.3,143.6 C201.5,143.1 204.6,142.9 207.7,142.6 C210.9,142.3 214.0,142.0 217.1,141.7 C220.3,141.4 223.4,141.4 226.5,140.8 C229.7,140.2 232.8,138.7 235.9,138.0 C239.1,137.4 242.2,137.2 245.3,136.9 C248.5,136.6 251.6,136.4 254.7,136.2 C257.9,136.1 261.0,136.5 264.1,136.1 C267.3,135.7 270.4,134.4 273.5,133.8 C276.7,133.2 279.8,133.0 282.9,132.5 C286.1,132.1 289.2,131.8 292.3,131.1 C295.4,130.4 298.6,129.0 301.7,128.3 C304.8,127.6 308.0,127.3 311.1,126.9 C314.2,126.5 317.4,126.3 320.5,126.0 C323.6,125.8 326.8,125.8 329.9,125.3 C333.0,124.9 336.2,124.0 339.3,123.6 C342.4,123.1 345.6,122.8 348.7,122.5 C351.8,122.2 355.0,122.0 358.1,121.7 C361.2,121.5 364.4,121.3 367.5,121.1 C370.6,120.9 373.8,120.6 376.9,120.4 C380.0,120.3 383.2,120.3 386.3,120.2 C389.4,120.2 392.6,121.0 395.7,120.2 C398.8,119.4 401.9,116.5 405.1,115.5 C408.2,114.5 411.3,114.6 414.5,114.2 C417.6,113.7 420.7,113.3 423.9,112.8 C427.0,112.4 430.1,111.9 433.3,111.6 C436.4,111.3 439.5,111.2 442.7,111.0 C445.8,110.8 448.9,110.4 452.1,110.2 C455.2,110.0 458.3,110.1 461.5,109.7 C464.6,109.4 467.7,108.6 470.9,108.1 C474.0,107.7 477.1,107.6 480.3,107.2 C483.4,106.9 486.5,106.4 489.7,106.2 C492.8,105.9 495.9,106.0 499.0,105.7 C502.2,105.5 505.3,104.8 508.4,104.5 C511.6,104.2 514.7,104.2 517.8,104.0 C521.0,103.7 524.1,103.5 527.2,103.2 C530.4,102.9 533.5,102.5 536.6,102.2 C539.8,101.9 542.9,101.5 546.0,101.2 C549.2,100.9 552.3,100.8 555.4,100.3 C558.6,99.9 561.7,99.2 564.8,98.7 C568.0,98.3 571.1,98.1 574.2,97.7 C577.4,97.4 580.5,97.0 583.6,96.6 C586.8,96.3 589.9,95.9 593.0,95.5 C596.1,95.2 599.3,94.8 602.4,94.6 C605.5,94.3 608.7,94.2 611.8,93.8 C614.9,93.4 618.1,92.9 621.2,92.4 C624.3,91.9 627.5,91.2 630.6,90.8 C633.7,90.5 638.4,90.4 640.0,90.3" fill="none" class="line-total" stroke-width="2.5" stroke-linecap="round" stroke-linejoin="round"/>

  <circle cx="640" cy="90.31200000000001" r="4.5" class="dot-total" stroke-width="2"/>
    <text x="658" y="94.31200000000001" class="end-label" font-family="-apple-system, BlinkMacSystemFont, 'Segoe UI', Helvetica, sans-serif">Total</text>
    <text x="697" y="94.31200000000001" class="end-value" font-family="-apple-system, BlinkMacSystemFont, 'Segoe UI', Helvetica, sans-serif">2.3k</text>
    <circle cx="640" cy="100.86133333333333" r="3.5" class="dot-openvsx" stroke-width="1.8"/>
    <text x="658" y="112.31200000000001" class="end-label" font-family="-apple-system, BlinkMacSystemFont, 'Segoe UI', Helvetica, sans-serif">Open VSX</text>
    <text x="716.8" y="112.31200000000001" class="end-value" font-family="-apple-system, BlinkMacSystemFont, 'Segoe UI', Helvetica, sans-serif">2.1k</text>
    <circle cx="640" cy="209.45066666666668" r="3.5" class="dot-vscode" stroke-width="1.8"/>
    <text x="658" y="213.45066666666668" class="end-label" font-family="-apple-system, BlinkMacSystemFont, 'Segoe UI', Helvetica, sans-serif">VS Code</text>
    <text x="710.2" y="213.45066666666668" class="end-value" font-family="-apple-system, BlinkMacSystemFont, 'Segoe UI', Helvetica, sans-serif">184</text>
</svg>