<svg xmlns="http://www.w3.org/2000/svg" viewBox="0 0 760 260" width="760" height="260" role="img" aria-label="Glassy install history">
  <style>
  svg { color-scheme: light dark; }
  .title      { fill: #1a1a2e; font-size: 15px; font-weight: 600; }
  .subtitle   { fill: #6b7280; font-size: 11px; font-weight: 400; }
  .grid       { stroke: #e8e8ee; }
  .axis-label { fill: #8a8a9a; font-size: 10px; }
  .line-total   { stroke: #e8553d; }
  .line-vscode  { stroke: #5b7cfa; }
  .line-openvsx { stroke: #34c7a0; }
  .dot-total   { fill: transparent; stroke: #e8553d; }
  .dot-vscode  { fill: transparent; stroke: #5b7cfa; }
  .dot-openvsx { fill: transparent; stroke: #34c7a0; }
  .end-label       { fill: #1a1a2e; font-size: 11px; font-weight: 600; }
  .end-value       { fill: #6b7280; font-size: 11px; font-weight: 400; }
  .area-total-top    { stop-color: #e8553d; }
  .area-total-bottom { stop-color: #e8553d; }

  @media (prefers-color-scheme: dark) {
    .title      { fill: #e2e2e8; }
    .subtitle   { fill: #8b949e; }
    .grid       { stroke: #2d2d3d; }
    .axis-label { fill: #6e7681; }
    .line-total   { stroke: #ff9b85; }
    .line-vscode  { stroke: #8da4ff; }
    .line-openvsx { stroke: #5eead4; }
    .dot-total   { stroke: #ff9b85; }
    .dot-vscode  { stroke: #8da4ff; }
    .dot-openvsx { stroke: #5eead4; }
    .end-label       { fill: #e2e2e8; }
    .end-value       { fill: #8b949e; }
    .area-total-top    { stop-color: #ff9b85; }
    .area-total-bottom { stop-color: #ff9b85; }
  }
</style>
  <defs>
    <linearGradient id="areaGrad" x1="0" y1="0" x2="0" y2="1">
      <stop offset="0%" class="area-total-top" stop-opacity="0.18"/>
      <stop offset="60%" class="area-total-bottom" stop-opacity="0.04"/>
      <stop offset="100%" class="area-total-bottom" stop-opacity="0"/>
    </linearGradient>
  </defs>

  <text x="48" y="22" class="title" font-family="-apple-system, BlinkMacSystemFont, 'Segoe UI', Helvetica, sans-serif">Installs</text>
  <text x="48" y="37" class="subtitle" font-family="-apple-system, BlinkMacSystemFont, 'Segoe UI', Helvetica, sans-serif">Updated May 5</text>

  <line x1="48" y1="220" x2="640" y2="220" class="grid" stroke-width="0.7"/>
    <text x="40" y="223.5" class="axis-label" text-anchor="end" font-family="-apple-system, BlinkMacSystemFont, 'Segoe UI', Helvetica, sans-serif">0</text>
    <line x1="48" y1="162.66666666666669" x2="640" y2="162.66666666666669" class="grid" stroke-width="0.7"/>
    <text x="40" y="166.16666666666669" class="axis-label" text-anchor="end" font-family="-apple-system, BlinkMacSystemFont, 'Segoe UI', Helvetica, sans-serif">500</text>
    <line x1="48" y1="105.33333333333334" x2="640" y2="105.33333333333334" class="grid" stroke-width="0.7"/>
    <text x="40" y="108.83333333333334" class="axis-label" text-anchor="end" font-family="-apple-system, BlinkMacSystemFont, 'Segoe UI', Helvetica, sans-serif">1k</text>
    <line x1="48" y1="48" x2="640" y2="48" class="grid" stroke-width="0.7"/>
    <text x="40" y="51.5" class="axis-label" text-anchor="end" font-family="-apple-system, BlinkMacSystemFont, 'Segoe UI', Helvetica, sans-serif">1.5k</text>
  <text x="48" y="248" class="axis-label" text-anchor="middle" font-family="-apple-system, BlinkMacSystemFont, 'Segoe UI', Helvetica, sans-serif">Mar 27</text>
    <text x="166.4" y="248" class="axis-label" text-anchor="middle" font-family="-apple-system, BlinkMacSystemFont, 'Segoe UI', Helvetica, sans-serif">Mar 29</text>
    <text x="284.8" y="248" class="axis-label" text-anchor="middle" font-family="-apple-system, BlinkMacSystemFont, 'Segoe UI', Helvetica, sans-serif">Mar 31</text>
    <text x="403.2" y="248" class="axis-label" text-anchor="middle" font-family="-apple-system, BlinkMacSystemFont, 'Segoe UI', Helvetica, sans-serif">Apr 2</text>
    <text x="521.6" y="248" class="axis-label" text-anchor="middle" font-family="-apple-system, BlinkMacSystemFont, 'Segoe UI', Helvetica, sans-serif">May 3</text>
    <text x="640" y="248" class="axis-label" text-anchor="middle" font-family="-apple-system, BlinkMacSystemFont, 'Segoe UI', Helvetica, sans-serif">May 5</text>

  <path d="M48.0,219.5 C57.9,216.8 87.5,207.4 107.2,203.4 C126.9,199.4 146.7,198.1 166.4,195.5 C186.1,192.8 205.9,188.8 225.6,187.4 C245.3,186.0 265.1,189.9 284.8,187.0 C304.5,184.0 324.3,173.2 344.0,169.8 C363.7,166.3 383.5,180.2 403.2,166.3 C422.9,152.5 442.7,100.6 462.4,86.6 C482.1,72.7 501.9,83.5 521.6,82.5 C541.3,81.6 561.1,81.4 580.8,81.0 C600.5,80.6 630.1,80.4 640.0,80.2 L640.0,220.0 L48.0,220.0 Z" fill="url(#areaGrad)"/>
  <path d="M48.0,219.7 C57.9,217.0 87.5,207.5 107.2,203.7 C126.9,199.9 146.7,199.1 166.4,196.8 C186.1,194.6 205.9,191.3 225.6,190.2 C245.3,189.1 265.1,192.9 284.8,190.2 C304.5,187.4 324.3,176.9 344.0,173.7 C363.7,170.5 383.5,183.5 403.2,170.9 C422.9,158.3 442.7,111.0 462.4,98.2 C482.1,85.5 501.9,95.4 521.6,94.6 C541.3,93.8 561.1,93.7 580.8,93.4 C600.5,93.1 630.1,93.0 640.0,92.9" fill="none" class="line-openvsx" stroke-width="1.8" stroke-linecap="round" stroke-linejoin="round"/>
  <path d="M48.0,219.9 C57.9,219.8 87.5,219.9 107.2,219.7 C126.9,219.4 146.7,219.0 166.4,218.6 C186.1,218.2 205.9,217.6 225.6,217.2 C245.3,216.9 265.1,217.0 284.8,216.8 C304.5,216.6 324.3,216.3 344.0,216.1 C363.7,215.9 383.5,216.7 403.2,215.4 C422.9,214.1 442.7,209.7 462.4,208.4 C482.1,207.2 501.9,208.1 521.6,208.0 C541.3,207.8 561.1,207.7 580.8,207.6 C600.5,207.5 630.1,207.3 640.0,207.3" fill="none" class="line-vscode" stroke-width="1.8" stroke-linecap="round" stroke-linejoin="round"/>
  <path d="M48.0,219.5 C57.9,216.8 87.5,207.4 107.2,203.4 C126.9,199.4 146.7,198.1 166.4,195.5 C186.1,192.8 205.9,188.8 225.6,187.4 C245.3,186.0 265.1,189.9 284.8,187.0 C304.5,184.0 324.3,173.2 344.0,169.8 C363.7,166.3 383.5,180.2 403.2,166.3 C422.9,152.5 442.7,100.6 462.4,86.6 C482.1,72.7 501.9,83.5 521.6,82.5 C541.3,81.6 561.1,81.4 580.8,81.0 C600.5,80.6 630.1,80.4 640.0,80.2" fill="none" class="line-total" stroke-width="2.5" stroke-linecap="round" stroke-linejoin="round"/>

  <circle cx="640" cy="80.22133333333335" r="4.5" class="dot-total" stroke-width="2"/>
    <text x="658" y="84.22133333333335" class="end-label" font-family="-apple-system, BlinkMacSystemFont, 'Segoe UI', Helvetica, sans-serif">Total</text>
    <text x="697" y="84.22133333333335" class="end-value" font-family="-apple-system, BlinkMacSystemFont, 'Segoe UI', Helvetica, sans-serif">1.2k</text>
    <circle cx="640" cy="92.94933333333333" r="3.5" class="dot-openvsx" stroke-width="1.8"/>
    <text x="658" y="102.22133333333335" class="end-label" font-family="-apple-system, BlinkMacSystemFont, 'Segoe UI', Helvetica, sans-serif">Open VSX</text>
    <text x="716.8" y="102.22133333333335" class="end-value" font-family="-apple-system, BlinkMacSystemFont, 'Segoe UI', Helvetica, sans-serif">1.1k</text>
    <circle cx="640" cy="207.272" r="3.5" class="dot-vscode" stroke-width="1.8"/>
    <text x="658" y="211.272" class="end-label" font-family="-apple-system, BlinkMacSystemFont, 'Segoe UI', Helvetica, sans-serif">VS Code</text>
    <text x="710.2" y="211.272" class="end-value" font-family="-apple-system, BlinkMacSystemFont, 'Segoe UI', Helvetica, sans-serif">111</text>
</svg>