<svg xmlns="http://www.w3.org/2000/svg" viewBox="0 0 760 260" width="760" height="260" role="img" aria-label="Glassy install history">
  <style>
  svg { color-scheme: light dark; }
  .title      { fill: #1a1a2e; font-size: 15px; font-weight: 600; }
  .subtitle   { fill: #6b7280; font-size: 11px; font-weight: 400; }
  .grid       { stroke: #e8e8ee; }
  .axis-label { fill: #8a8a9a; font-size: 10px; }
  .line-total   { stroke: #e8553d; }
  .line-vscode  { stroke: #5b7cfa; }
  .line-openvsx { stroke: #34c7a0; }
  .dot-total   { fill: transparent; stroke: #e8553d; }
  .dot-vscode  { fill: transparent; stroke: #5b7cfa; }
  .dot-openvsx { fill: transparent; stroke: #34c7a0; }
  .end-label       { fill: #1a1a2e; font-size: 11px; font-weight: 600; }
  .end-value       { fill: #6b7280; font-size: 11px; font-weight: 400; }
  .area-total-top    { stop-color: #e8553d; }
  .area-total-bottom { stop-color: #e8553d; }

  @media (prefers-color-scheme: dark) {
    .title      { fill: #e2e2e8; }
    .subtitle   { fill: #8b949e; }
    .grid       { stroke: #2d2d3d; }
    .axis-label { fill: #6e7681; }
    .line-total   { stroke: #ff9b85; }
    .line-vscode  { stroke: #8da4ff; }
    .line-openvsx { stroke: #5eead4; }
    .dot-total   { stroke: #ff9b85; }
    .dot-vscode  { stroke: #8da4ff; }
    .dot-openvsx { stroke: #5eead4; }
    .end-label       { fill: #e2e2e8; }
    .end-value       { fill: #8b949e; }
    .area-total-top    { stop-color: #ff9b85; }
    .area-total-bottom { stop-color: #ff9b85; }
  }
</style>
  <defs>
    <linearGradient id="areaGrad" x1="0" y1="0" x2="0" y2="1">
      <stop offset="0%" class="area-total-top" stop-opacity="0.18"/>
      <stop offset="60%" class="area-total-bottom" stop-opacity="0.04"/>
      <stop offset="100%" class="area-total-bottom" stop-opacity="0"/>
    </linearGradient>
  </defs>

  <text x="48" y="22" class="title" font-family="-apple-system, BlinkMacSystemFont, 'Segoe UI', Helvetica, sans-serif">Installs</text>
  <text x="48" y="37" class="subtitle" font-family="-apple-system, BlinkMacSystemFont, 'Segoe UI', Helvetica, sans-serif">Updated Jun 10</text>

  <line x1="48" y1="220" x2="640" y2="220" class="grid" stroke-width="0.7"/>
    <text x="40" y="223.5" class="axis-label" text-anchor="end" font-family="-apple-system, BlinkMacSystemFont, 'Segoe UI', Helvetica, sans-serif">0</text>
    <line x1="48" y1="177" x2="640" y2="177" class="grid" stroke-width="0.7"/>
    <text x="40" y="180.5" class="axis-label" text-anchor="end" font-family="-apple-system, BlinkMacSystemFont, 'Segoe UI', Helvetica, sans-serif">500</text>
    <line x1="48" y1="134" x2="640" y2="134" class="grid" stroke-width="0.7"/>
    <text x="40" y="137.5" class="axis-label" text-anchor="end" font-family="-apple-system, BlinkMacSystemFont, 'Segoe UI', Helvetica, sans-serif">1k</text>
    <line x1="48" y1="91" x2="640" y2="91" class="grid" stroke-width="0.7"/>
    <text x="40" y="94.5" class="axis-label" text-anchor="end" font-family="-apple-system, BlinkMacSystemFont, 'Segoe UI', Helvetica, sans-serif">1.5k</text>
    <line x1="48" y1="48" x2="640" y2="48" class="grid" stroke-width="0.7"/>
    <text x="40" y="51.5" class="axis-label" text-anchor="end" font-family="-apple-system, BlinkMacSystemFont, 'Segoe UI', Helvetica, sans-serif">2k</text>
  <text x="48" y="248" class="axis-label" text-anchor="middle" font-family="-apple-system, BlinkMacSystemFont, 'Segoe UI', Helvetica, sans-serif">Mar 27</text>
    <text x="163.82608695652175" y="248" class="axis-label" text-anchor="middle" font-family="-apple-system, BlinkMacSystemFont, 'Segoe UI', Helvetica, sans-serif">May 4</text>
    <text x="279.6521739130435" y="248" class="axis-label" text-anchor="middle" font-family="-apple-system, BlinkMacSystemFont, 'Segoe UI', Helvetica, sans-serif">May 13</text>
    <text x="408.34782608695656" y="248" class="axis-label" text-anchor="middle" font-family="-apple-system, BlinkMacSystemFont, 'Segoe UI', Helvetica, sans-serif">May 23</text>
    <text x="524.1739130434783" y="248" class="axis-label" text-anchor="middle" font-family="-apple-system, BlinkMacSystemFont, 'Segoe UI', Helvetica, sans-serif">Jun 1</text>
    <text x="640" y="248" class="axis-label" text-anchor="middle" font-family="-apple-system, BlinkMacSystemFont, 'Segoe UI', Helvetica, sans-serif">Jun 10</text>

  <path d="M48.0,219.7 C50.1,217.6 56.6,210.5 60.9,207.5 C65.2,204.5 69.4,203.6 73.7,201.6 C78.0,199.6 82.3,196.6 86.6,195.6 C90.9,194.5 95.2,197.4 99.5,195.2 C103.8,193.0 108.1,184.9 112.3,182.3 C116.6,179.8 120.9,190.1 125.2,179.8 C129.5,169.4 133.8,130.5 138.1,120.0 C142.4,109.5 146.7,117.6 151.0,116.9 C155.2,116.2 159.5,116.1 163.8,115.8 C168.1,115.5 172.4,115.4 176.7,115.2 C181.0,115.0 185.3,114.9 189.6,114.6 C193.9,114.2 198.1,113.7 202.4,113.0 C206.7,112.3 211.0,111.1 215.3,110.4 C219.6,109.8 223.9,109.5 228.2,109.1 C232.5,108.8 236.8,109.1 241.0,108.5 C245.3,107.8 249.6,106.2 253.9,105.4 C258.2,104.7 262.5,104.4 266.8,103.9 C271.1,103.4 275.4,103.1 279.7,102.6 C283.9,102.2 288.2,102.2 292.5,101.2 C296.8,100.3 301.1,98.0 305.4,97.0 C309.7,96.0 314.0,95.8 318.3,95.4 C322.6,94.9 326.8,94.6 331.1,94.4 C335.4,94.1 339.7,94.7 344.0,94.1 C348.3,93.5 352.6,91.5 356.9,90.7 C361.2,89.8 365.4,89.4 369.7,88.8 C374.0,88.1 378.3,87.7 382.6,86.6 C386.9,85.6 391.2,83.4 395.5,82.4 C399.8,81.4 404.1,80.9 408.3,80.3 C412.6,79.8 416.9,79.4 421.2,79.0 C425.5,78.7 429.8,78.6 434.1,78.0 C438.4,77.4 442.7,76.1 447.0,75.3 C451.2,74.6 455.5,74.3 459.8,73.8 C464.1,73.3 468.4,73.0 472.7,72.6 C477.0,72.2 481.3,72.0 485.6,71.7 C489.9,71.3 494.1,70.8 498.4,70.6 C502.7,70.4 507.0,70.4 511.3,70.4 C515.6,70.3 519.9,71.4 524.2,70.3 C528.5,69.1 532.8,64.8 537.0,63.3 C541.3,61.8 545.6,61.9 549.9,61.2 C554.2,60.6 558.5,59.9 562.8,59.3 C567.1,58.6 571.4,57.8 575.7,57.4 C579.9,56.9 584.2,56.9 588.5,56.5 C592.8,56.2 597.1,55.6 601.4,55.3 C605.7,55.0 610.0,55.1 614.3,54.6 C618.6,54.1 622.8,52.8 627.1,52.2 C631.4,51.6 637.9,51.1 640.0,50.8 L640.0,220.0 L48.0,220.0 Z" fill="url(#areaGrad)"/>
  <path d="M48.0,219.7 C50.1,217.7 56.6,210.6 60.9,207.8 C65.2,204.9 69.4,204.3 73.7,202.6 C78.0,200.9 82.3,198.5 86.6,197.6 C90.9,196.8 95.2,199.7 99.5,197.6 C103.8,195.6 108.1,187.7 112.3,185.3 C116.6,182.8 120.9,192.6 125.2,183.2 C129.5,173.8 133.8,138.2 138.1,128.7 C142.4,119.1 146.7,126.5 151.0,125.9 C155.2,125.3 159.5,125.3 163.8,125.1 C168.1,124.9 172.4,124.9 176.7,124.7 C181.0,124.6 185.3,124.5 189.6,124.2 C193.9,123.9 198.1,123.3 202.4,122.6 C206.7,122.0 211.0,120.6 215.3,120.1 C219.6,119.5 223.9,119.6 228.2,119.4 C232.5,119.2 236.8,119.4 241.0,118.9 C245.3,118.3 249.6,116.7 253.9,115.9 C258.2,115.2 262.5,115.0 266.8,114.6 C271.1,114.1 275.4,113.8 279.7,113.4 C283.9,112.9 288.2,112.9 292.5,112.0 C296.8,111.1 301.1,108.8 305.4,107.9 C309.7,106.9 314.0,106.7 318.3,106.3 C322.6,105.9 326.8,105.5 331.1,105.3 C335.4,105.1 339.7,105.7 344.0,105.1 C348.3,104.5 352.6,102.7 356.9,101.8 C361.2,101.0 365.4,100.7 369.7,100.1 C374.0,99.5 378.3,99.3 382.6,98.4 C386.9,97.5 391.2,95.4 395.5,94.4 C399.8,93.5 404.1,93.1 408.3,92.5 C412.6,92.0 416.9,91.7 421.2,91.3 C425.5,91.0 429.8,91.0 434.1,90.5 C438.4,89.9 442.7,88.7 447.0,88.1 C451.2,87.4 455.5,87.1 459.8,86.7 C464.1,86.3 468.4,86.0 472.7,85.7 C477.0,85.4 481.3,85.2 485.6,85.0 C489.9,84.7 494.1,84.3 498.4,84.1 C502.7,84.0 507.0,84.1 511.3,84.1 C515.6,84.1 519.9,85.2 524.2,84.1 C528.5,83.0 532.8,78.9 537.0,77.4 C541.3,76.0 545.6,76.0 549.9,75.3 C554.2,74.7 558.5,74.1 562.8,73.5 C567.1,72.8 571.4,72.0 575.7,71.6 C579.9,71.1 584.2,71.0 588.5,70.7 C592.8,70.4 597.1,69.8 601.4,69.5 C605.7,69.2 610.0,69.3 614.3,68.8 C618.6,68.3 622.8,67.0 627.1,66.4 C631.4,65.8 637.9,65.3 640.0,65.0" fill="none" class="line-openvsx" stroke-width="1.8" stroke-linecap="round" stroke-linejoin="round"/>
  <path d="M48.0,219.9 C50.1,219.9 56.6,219.9 60.9,219.7 C65.2,219.6 69.4,219.3 73.7,219.0 C78.0,218.7 82.3,218.2 86.6,217.9 C90.9,217.7 95.2,217.7 99.5,217.6 C103.8,217.4 108.1,217.2 112.3,217.1 C116.6,216.9 120.9,217.5 125.2,216.6 C129.5,215.6 133.8,212.2 138.1,211.3 C142.4,210.4 146.7,211.1 151.0,211.0 C155.2,210.9 159.5,210.8 163.8,210.7 C168.1,210.6 172.4,210.5 176.7,210.5 C181.0,210.4 185.3,210.4 189.6,210.4 C193.9,210.4 198.1,210.4 202.4,210.4 C206.7,210.4 211.0,210.5 215.3,210.4 C219.6,210.3 223.9,209.9 228.2,209.8 C232.5,209.6 236.8,209.6 241.0,209.6 C245.3,209.6 249.6,209.6 253.9,209.5 C258.2,209.5 262.5,209.4 266.8,209.3 C271.1,209.3 275.4,209.3 279.7,209.3 C283.9,209.2 288.2,209.3 292.5,209.3 C296.8,209.2 301.1,209.2 305.4,209.2 C309.7,209.1 314.0,209.1 318.3,209.1 C322.6,209.1 326.8,209.1 331.1,209.1 C335.4,209.1 339.7,209.0 344.0,209.0 C348.3,208.9 352.6,208.9 356.9,208.8 C361.2,208.8 365.4,208.7 369.7,208.6 C374.0,208.5 378.3,208.3 382.6,208.2 C386.9,208.1 391.2,208.0 395.5,208.0 C399.8,207.9 404.1,207.8 408.3,207.8 C412.6,207.7 416.9,207.7 421.2,207.7 C425.5,207.7 429.8,207.6 434.1,207.5 C438.4,207.5 442.7,207.3 447.0,207.3 C451.2,207.2 455.5,207.2 459.8,207.1 C464.1,207.0 468.4,207.0 472.7,206.9 C477.0,206.9 481.3,206.7 485.6,206.7 C489.9,206.6 494.1,206.6 498.4,206.5 C502.7,206.4 507.0,206.3 511.3,206.2 C515.6,206.2 519.9,206.2 524.2,206.2 C528.5,206.1 532.8,205.9 537.0,205.9 C541.3,205.9 545.6,205.9 549.9,205.9 C554.2,205.9 558.5,205.8 562.8,205.8 C567.1,205.8 571.4,205.8 575.7,205.8 C579.9,205.8 584.2,205.8 588.5,205.8 C592.8,205.8 597.1,205.8 601.4,205.8 C605.7,205.8 610.0,205.8 614.3,205.8 C618.6,205.8 622.8,205.8 627.1,205.8 C631.4,205.8 637.9,205.8 640.0,205.8" fill="none" class="line-vscode" stroke-width="1.8" stroke-linecap="round" stroke-linejoin="round"/>
  <path d="M48.0,219.7 C50.1,217.6 56.6,210.5 60.9,207.5 C65.2,204.5 69.4,203.6 73.7,201.6 C78.0,199.6 82.3,196.6 86.6,195.6 C90.9,194.5 95.2,197.4 99.5,195.2 C103.8,193.0 108.1,184.9 112.3,182.3 C116.6,179.8 120.9,190.1 125.2,179.8 C129.5,169.4 133.8,130.5 138.1,120.0 C142.4,109.5 146.7,117.6 151.0,116.9 C155.2,116.2 159.5,116.1 163.8,115.8 C168.1,115.5 172.4,115.4 176.7,115.2 C181.0,115.0 185.3,114.9 189.6,114.6 C193.9,114.2 198.1,113.7 202.4,113.0 C206.7,112.3 211.0,111.1 215.3,110.4 C219.6,109.8 223.9,109.5 228.2,109.1 C232.5,108.8 236.8,109.1 241.0,108.5 C245.3,107.8 249.6,106.2 253.9,105.4 C258.2,104.7 262.5,104.4 266.8,103.9 C271.1,103.4 275.4,103.1 279.7,102.6 C283.9,102.2 288.2,102.2 292.5,101.2 C296.8,100.3 301.1,98.0 305.4,97.0 C309.7,96.0 314.0,95.8 318.3,95.4 C322.6,94.9 326.8,94.6 331.1,94.4 C335.4,94.1 339.7,94.7 344.0,94.1 C348.3,93.5 352.6,91.5 356.9,90.7 C361.2,89.8 365.4,89.4 369.7,88.8 C374.0,88.1 378.3,87.7 382.6,86.6 C386.9,85.6 391.2,83.4 395.5,82.4 C399.8,81.4 404.1,80.9 408.3,80.3 C412.6,79.8 416.9,79.4 421.2,79.0 C425.5,78.7 429.8,78.6 434.1,78.0 C438.4,77.4 442.7,76.1 447.0,75.3 C451.2,74.6 455.5,74.3 459.8,73.8 C464.1,73.3 468.4,73.0 472.7,72.6 C477.0,72.2 481.3,72.0 485.6,71.7 C489.9,71.3 494.1,70.8 498.4,70.6 C502.7,70.4 507.0,70.4 511.3,70.4 C515.6,70.3 519.9,71.4 524.2,70.3 C528.5,69.1 532.8,64.8 537.0,63.3 C541.3,61.8 545.6,61.9 549.9,61.2 C554.2,60.6 558.5,59.9 562.8,59.3 C567.1,58.6 571.4,57.8 575.7,57.4 C579.9,56.9 584.2,56.9 588.5,56.5 C592.8,56.2 597.1,55.6 601.4,55.3 C605.7,55.0 610.0,55.1 614.3,54.6 C618.6,54.1 622.8,52.8 627.1,52.2 C631.4,51.6 637.9,51.1 640.0,50.8" fill="none" class="line-total" stroke-width="2.5" stroke-linecap="round" stroke-linejoin="round"/>

  <circle cx="640" cy="50.837999999999994" r="4.5" class="dot-total" stroke-width="2"/>
    <text x="658" y="54.837999999999994" class="end-label" font-family="-apple-system, BlinkMacSystemFont, 'Segoe UI', Helvetica, sans-serif">Total</text>
    <text x="697" y="54.837999999999994" class="end-value" font-family="-apple-system, BlinkMacSystemFont, 'Segoe UI', Helvetica, sans-serif">2k</text>
    <circle cx="640" cy="65.02799999999999" r="3.5" class="dot-openvsx" stroke-width="1.8"/>
    <text x="658" y="72.838" class="end-label" font-family="-apple-system, BlinkMacSystemFont, 'Segoe UI', Helvetica, sans-serif">Open VSX</text>
    <text x="716.8" y="72.838" class="end-value" font-family="-apple-system, BlinkMacSystemFont, 'Segoe UI', Helvetica, sans-serif">1.8k</text>
    <circle cx="640" cy="205.81" r="3.5" class="dot-vscode" stroke-width="1.8"/>
    <text x="658" y="209.81" class="end-label" font-family="-apple-system, BlinkMacSystemFont, 'Segoe UI', Helvetica, sans-serif">VS Code</text>
    <text x="710.2" y="209.81" class="end-value" font-family="-apple-system, BlinkMacSystemFont, 'Segoe UI', Helvetica, sans-serif">165</text>
</svg>