<svg xmlns="http://www.w3.org/2000/svg" viewBox="0 0 760 260" width="760" height="260" role="img" aria-label="Glassy install history">
  <style>
  svg { color-scheme: light dark; }
  .title      { fill: #1a1a2e; font-size: 15px; font-weight: 600; }
  .subtitle   { fill: #6b7280; font-size: 11px; font-weight: 400; }
  .grid       { stroke: #e8e8ee; }
  .axis-label { fill: #8a8a9a; font-size: 10px; }
  .line-total   { stroke: #e8553d; }
  .line-vscode  { stroke: #5b7cfa; }
  .line-openvsx { stroke: #34c7a0; }
  .dot-total   { fill: transparent; stroke: #e8553d; }
  .dot-vscode  { fill: transparent; stroke: #5b7cfa; }
  .dot-openvsx { fill: transparent; stroke: #34c7a0; }
  .end-label       { fill: #1a1a2e; font-size: 11px; font-weight: 600; }
  .end-value       { fill: #6b7280; font-size: 11px; font-weight: 400; }
  .area-total-top    { stop-color: #e8553d; }
  .area-total-bottom { stop-color: #e8553d; }

  @media (prefers-color-scheme: dark) {
    .title      { fill: #e2e2e8; }
    .subtitle   { fill: #8b949e; }
    .grid       { stroke: #2d2d3d; }
    .axis-label { fill: #6e7681; }
    .line-total   { stroke: #ff9b85; }
    .line-vscode  { stroke: #8da4ff; }
    .line-openvsx { stroke: #5eead4; }
    .dot-total   { stroke: #ff9b85; }
    .dot-vscode  { stroke: #8da4ff; }
    .dot-openvsx { stroke: #5eead4; }
    .end-label       { fill: #e2e2e8; }
    .end-value       { fill: #8b949e; }
    .area-total-top    { stop-color: #ff9b85; }
    .area-total-bottom { stop-color: #ff9b85; }
  }
</style>
  <defs>
    <linearGradient id="areaGrad" x1="0" y1="0" x2="0" y2="1">
      <stop offset="0%" class="area-total-top" stop-opacity="0.18"/>
      <stop offset="60%" class="area-total-bottom" stop-opacity="0.04"/>
      <stop offset="100%" class="area-total-bottom" stop-opacity="0"/>
    </linearGradient>
  </defs>

  <text x="48" y="22" class="title" font-family="-apple-system, BlinkMacSystemFont, 'Segoe UI', Helvetica, sans-serif">Installs</text>
  <text x="48" y="37" class="subtitle" font-family="-apple-system, BlinkMacSystemFont, 'Segoe UI', Helvetica, sans-serif">Updated Jun 12</text>

  <line x1="48" y1="220" x2="640" y2="220" class="grid" stroke-width="0.7"/>
    <text x="40" y="223.5" class="axis-label" text-anchor="end" font-family="-apple-system, BlinkMacSystemFont, 'Segoe UI', Helvetica, sans-serif">0</text>
    <line x1="48" y1="177" x2="640" y2="177" class="grid" stroke-width="0.7"/>
    <text x="40" y="180.5" class="axis-label" text-anchor="end" font-family="-apple-system, BlinkMacSystemFont, 'Segoe UI', Helvetica, sans-serif">500</text>
    <line x1="48" y1="134" x2="640" y2="134" class="grid" stroke-width="0.7"/>
    <text x="40" y="137.5" class="axis-label" text-anchor="end" font-family="-apple-system, BlinkMacSystemFont, 'Segoe UI', Helvetica, sans-serif">1k</text>
    <line x1="48" y1="91" x2="640" y2="91" class="grid" stroke-width="0.7"/>
    <text x="40" y="94.5" class="axis-label" text-anchor="end" font-family="-apple-system, BlinkMacSystemFont, 'Segoe UI', Helvetica, sans-serif">1.5k</text>
    <line x1="48" y1="48" x2="640" y2="48" class="grid" stroke-width="0.7"/>
    <text x="40" y="51.5" class="axis-label" text-anchor="end" font-family="-apple-system, BlinkMacSystemFont, 'Segoe UI', Helvetica, sans-serif">2k</text>
  <text x="48" y="248" class="axis-label" text-anchor="middle" font-family="-apple-system, BlinkMacSystemFont, 'Segoe UI', Helvetica, sans-serif">Mar 27</text>
    <text x="171.33333333333334" y="248" class="axis-label" text-anchor="middle" font-family="-apple-system, BlinkMacSystemFont, 'Segoe UI', Helvetica, sans-serif">May 5</text>
    <text x="282.3333333333333" y="248" class="axis-label" text-anchor="middle" font-family="-apple-system, BlinkMacSystemFont, 'Segoe UI', Helvetica, sans-serif">May 14</text>
    <text x="405.66666666666663" y="248" class="axis-label" text-anchor="middle" font-family="-apple-system, BlinkMacSystemFont, 'Segoe UI', Helvetica, sans-serif">May 24</text>
    <text x="516.6666666666666" y="248" class="axis-label" text-anchor="middle" font-family="-apple-system, BlinkMacSystemFont, 'Segoe UI', Helvetica, sans-serif">Jun 2</text>
    <text x="640" y="248" class="axis-label" text-anchor="middle" font-family="-apple-system, BlinkMacSystemFont, 'Segoe UI', Helvetica, sans-serif">Jun 12</text>

  <path d="M48.0,219.7 C50.1,217.6 56.2,210.5 60.3,207.5 C64.4,204.5 68.6,203.6 72.7,201.6 C76.8,199.6 80.9,196.6 85.0,195.6 C89.1,194.5 93.2,197.4 97.3,195.2 C101.4,193.0 105.6,184.9 109.7,182.3 C113.8,179.8 117.9,190.1 122.0,179.8 C126.1,169.4 130.2,130.5 134.3,120.0 C138.4,109.5 142.6,117.6 146.7,116.9 C150.8,116.2 154.9,116.1 159.0,115.8 C163.1,115.5 167.2,115.4 171.3,115.2 C175.4,115.0 179.6,114.9 183.7,114.6 C187.8,114.2 191.9,113.7 196.0,113.0 C200.1,112.3 204.2,111.1 208.3,110.4 C212.4,109.8 216.6,109.5 220.7,109.1 C224.8,108.8 228.9,109.1 233.0,108.5 C237.1,107.8 241.2,106.2 245.3,105.4 C249.4,104.7 253.6,104.4 257.7,103.9 C261.8,103.4 265.9,103.1 270.0,102.6 C274.1,102.2 278.2,102.2 282.3,101.2 C286.4,100.3 290.6,98.0 294.7,97.0 C298.8,96.0 302.9,95.8 307.0,95.4 C311.1,94.9 315.2,94.6 319.3,94.4 C323.4,94.1 327.6,94.7 331.7,94.1 C335.8,93.5 339.9,91.5 344.0,90.7 C348.1,89.8 352.2,89.4 356.3,88.8 C360.4,88.1 364.6,87.7 368.7,86.6 C372.8,85.6 376.9,83.4 381.0,82.4 C385.1,81.4 389.2,80.9 393.3,80.3 C397.4,79.8 401.6,79.4 405.7,79.0 C409.8,78.7 413.9,78.6 418.0,78.0 C422.1,77.4 426.2,76.1 430.3,75.3 C434.4,74.6 438.6,74.3 442.7,73.8 C446.8,73.3 450.9,73.0 455.0,72.6 C459.1,72.2 463.2,72.0 467.3,71.7 C471.4,71.3 475.6,70.8 479.7,70.6 C483.8,70.4 487.9,70.4 492.0,70.4 C496.1,70.3 500.2,71.4 504.3,70.3 C508.4,69.1 512.6,64.8 516.7,63.3 C520.8,61.8 524.9,61.9 529.0,61.2 C533.1,60.6 537.2,59.9 541.3,59.3 C545.4,58.6 549.6,57.8 553.7,57.4 C557.8,56.9 561.9,56.9 566.0,56.5 C570.1,56.2 574.2,55.6 578.3,55.3 C582.4,55.0 586.6,55.1 590.7,54.6 C594.8,54.1 598.9,52.8 603.0,52.2 C607.1,51.6 611.2,51.3 615.3,50.8 C619.4,50.4 623.6,49.7 627.7,49.3 C631.8,48.9 637.9,48.7 640.0,48.6 L640.0,220.0 L48.0,220.0 Z" fill="url(#areaGrad)"/>
  <path d="M48.0,219.7 C50.1,217.7 56.2,210.6 60.3,207.8 C64.4,204.9 68.6,204.3 72.7,202.6 C76.8,200.9 80.9,198.5 85.0,197.6 C89.1,196.8 93.2,199.7 97.3,197.6 C101.4,195.6 105.6,187.7 109.7,185.3 C113.8,182.8 117.9,192.6 122.0,183.2 C126.1,173.8 130.2,138.2 134.3,128.7 C138.4,119.1 142.6,126.5 146.7,125.9 C150.8,125.3 154.9,125.3 159.0,125.1 C163.1,124.9 167.2,124.9 171.3,124.7 C175.4,124.6 179.6,124.5 183.7,124.2 C187.8,123.9 191.9,123.3 196.0,122.6 C200.1,122.0 204.2,120.6 208.3,120.1 C212.4,119.5 216.6,119.6 220.7,119.4 C224.8,119.2 228.9,119.4 233.0,118.9 C237.1,118.3 241.2,116.7 245.3,115.9 C249.4,115.2 253.6,115.0 257.7,114.6 C261.8,114.1 265.9,113.8 270.0,113.4 C274.1,112.9 278.2,112.9 282.3,112.0 C286.4,111.1 290.6,108.8 294.7,107.9 C298.8,106.9 302.9,106.7 307.0,106.3 C311.1,105.9 315.2,105.5 319.3,105.3 C323.4,105.1 327.6,105.7 331.7,105.1 C335.8,104.5 339.9,102.7 344.0,101.8 C348.1,101.0 352.2,100.7 356.3,100.1 C360.4,99.5 364.6,99.3 368.7,98.4 C372.8,97.5 376.9,95.4 381.0,94.4 C385.1,93.5 389.2,93.1 393.3,92.5 C397.4,92.0 401.6,91.7 405.7,91.3 C409.8,91.0 413.9,91.0 418.0,90.5 C422.1,89.9 426.2,88.7 430.3,88.1 C434.4,87.4 438.6,87.1 442.7,86.7 C446.8,86.3 450.9,86.0 455.0,85.7 C459.1,85.4 463.2,85.2 467.3,85.0 C471.4,84.7 475.6,84.3 479.7,84.1 C483.8,84.0 487.9,84.1 492.0,84.1 C496.1,84.1 500.2,85.2 504.3,84.1 C508.4,83.0 512.6,78.9 516.7,77.4 C520.8,76.0 524.9,76.0 529.0,75.3 C533.1,74.7 537.2,74.1 541.3,73.5 C545.4,72.8 549.6,72.0 553.7,71.6 C557.8,71.1 561.9,71.0 566.0,70.7 C570.1,70.4 574.2,69.8 578.3,69.5 C582.4,69.2 586.6,69.3 590.7,68.8 C594.8,68.3 598.9,67.0 603.0,66.4 C607.1,65.8 611.2,65.5 615.3,65.0 C619.4,64.5 623.6,63.9 627.7,63.5 C631.8,63.1 637.9,62.9 640.0,62.8" fill="none" class="line-openvsx" stroke-width="1.8" stroke-linecap="round" stroke-linejoin="round"/>
  <path d="M48.0,219.9 C50.1,219.9 56.2,219.9 60.3,219.7 C64.4,219.6 68.6,219.3 72.7,219.0 C76.8,218.7 80.9,218.2 85.0,217.9 C89.1,217.7 93.2,217.7 97.3,217.6 C101.4,217.4 105.6,217.2 109.7,217.1 C113.8,216.9 117.9,217.5 122.0,216.6 C126.1,215.6 130.2,212.2 134.3,211.3 C138.4,210.4 142.6,211.1 146.7,211.0 C150.8,210.9 154.9,210.8 159.0,210.7 C163.1,210.6 167.2,210.5 171.3,210.5 C175.4,210.4 179.6,210.4 183.7,210.4 C187.8,210.4 191.9,210.4 196.0,210.4 C200.1,210.4 204.2,210.5 208.3,210.4 C212.4,210.3 216.6,209.9 220.7,209.8 C224.8,209.6 228.9,209.6 233.0,209.6 C237.1,209.6 241.2,209.6 245.3,209.5 C249.4,209.5 253.6,209.4 257.7,209.3 C261.8,209.3 265.9,209.3 270.0,209.3 C274.1,209.2 278.2,209.3 282.3,209.3 C286.4,209.2 290.6,209.2 294.7,209.2 C298.8,209.1 302.9,209.1 307.0,209.1 C311.1,209.1 315.2,209.1 319.3,209.1 C323.4,209.1 327.6,209.0 331.7,209.0 C335.8,208.9 339.9,208.9 344.0,208.8 C348.1,208.8 352.2,208.7 356.3,208.6 C360.4,208.5 364.6,208.3 368.7,208.2 C372.8,208.1 376.9,208.0 381.0,208.0 C385.1,207.9 389.2,207.8 393.3,207.8 C397.4,207.7 401.6,207.7 405.7,207.7 C409.8,207.7 413.9,207.6 418.0,207.5 C422.1,207.5 426.2,207.3 430.3,207.3 C434.4,207.2 438.6,207.2 442.7,207.1 C446.8,207.0 450.9,207.0 455.0,206.9 C459.1,206.9 463.2,206.7 467.3,206.7 C471.4,206.6 475.6,206.6 479.7,206.5 C483.8,206.4 487.9,206.3 492.0,206.2 C496.1,206.2 500.2,206.2 504.3,206.2 C508.4,206.1 512.6,205.9 516.7,205.9 C520.8,205.9 524.9,205.9 529.0,205.9 C533.1,205.9 537.2,205.8 541.3,205.8 C545.4,205.8 549.6,205.8 553.7,205.8 C557.8,205.8 561.9,205.8 566.0,205.8 C570.1,205.8 574.2,205.8 578.3,205.8 C582.4,205.8 586.6,205.8 590.7,205.8 C594.8,205.8 598.9,205.8 603.0,205.8 C607.1,205.8 611.2,205.8 615.3,205.8 C619.4,205.8 623.6,205.8 627.7,205.8 C631.8,205.8 637.9,205.8 640.0,205.8" fill="none" class="line-vscode" stroke-width="1.8" stroke-linecap="round" stroke-linejoin="round"/>
  <path d="M48.0,219.7 C50.1,217.6 56.2,210.5 60.3,207.5 C64.4,204.5 68.6,203.6 72.7,201.6 C76.8,199.6 80.9,196.6 85.0,195.6 C89.1,194.5 93.2,197.4 97.3,195.2 C101.4,193.0 105.6,184.9 109.7,182.3 C113.8,179.8 117.9,190.1 122.0,179.8 C126.1,169.4 130.2,130.5 134.3,120.0 C138.4,109.5 142.6,117.6 146.7,116.9 C150.8,116.2 154.9,116.1 159.0,115.8 C163.1,115.5 167.2,115.4 171.3,115.2 C175.4,115.0 179.6,114.9 183.7,114.6 C187.8,114.2 191.9,113.7 196.0,113.0 C200.1,112.3 204.2,111.1 208.3,110.4 C212.4,109.8 216.6,109.5 220.7,109.1 C224.8,108.8 228.9,109.1 233.0,108.5 C237.1,107.8 241.2,106.2 245.3,105.4 C249.4,104.7 253.6,104.4 257.7,103.9 C261.8,103.4 265.9,103.1 270.0,102.6 C274.1,102.2 278.2,102.2 282.3,101.2 C286.4,100.3 290.6,98.0 294.7,97.0 C298.8,96.0 302.9,95.8 307.0,95.4 C311.1,94.9 315.2,94.6 319.3,94.4 C323.4,94.1 327.6,94.7 331.7,94.1 C335.8,93.5 339.9,91.5 344.0,90.7 C348.1,89.8 352.2,89.4 356.3,88.8 C360.4,88.1 364.6,87.7 368.7,86.6 C372.8,85.6 376.9,83.4 381.0,82.4 C385.1,81.4 389.2,80.9 393.3,80.3 C397.4,79.8 401.6,79.4 405.7,79.0 C409.8,78.7 413.9,78.6 418.0,78.0 C422.1,77.4 426.2,76.1 430.3,75.3 C434.4,74.6 438.6,74.3 442.7,73.8 C446.8,73.3 450.9,73.0 455.0,72.6 C459.1,72.2 463.2,72.0 467.3,71.7 C471.4,71.3 475.6,70.8 479.7,70.6 C483.8,70.4 487.9,70.4 492.0,70.4 C496.1,70.3 500.2,71.4 504.3,70.3 C508.4,69.1 512.6,64.8 516.7,63.3 C520.8,61.8 524.9,61.9 529.0,61.2 C533.1,60.6 537.2,59.9 541.3,59.3 C545.4,58.6 549.6,57.8 553.7,57.4 C557.8,56.9 561.9,56.9 566.0,56.5 C570.1,56.2 574.2,55.6 578.3,55.3 C582.4,55.0 586.6,55.1 590.7,54.6 C594.8,54.1 598.9,52.8 603.0,52.2 C607.1,51.6 611.2,51.3 615.3,50.8 C619.4,50.4 623.6,49.7 627.7,49.3 C631.8,48.9 637.9,48.7 640.0,48.6" fill="none" class="line-total" stroke-width="2.5" stroke-linecap="round" stroke-linejoin="round"/>

  <circle cx="640" cy="48.602000000000004" r="4.5" class="dot-total" stroke-width="2"/>
    <text x="658" y="52.602000000000004" class="end-label" font-family="-apple-system, BlinkMacSystemFont, 'Segoe UI', Helvetica, sans-serif">Total</text>
    <text x="697" y="52.602000000000004" class="end-value" font-family="-apple-system, BlinkMacSystemFont, 'Segoe UI', Helvetica, sans-serif">2k</text>
    <circle cx="640" cy="62.792" r="3.5" class="dot-openvsx" stroke-width="1.8"/>
    <text x="658" y="70.602" class="end-label" font-family="-apple-system, BlinkMacSystemFont, 'Segoe UI', Helvetica, sans-serif">Open VSX</text>
    <text x="716.8" y="70.602" class="end-value" font-family="-apple-system, BlinkMacSystemFont, 'Segoe UI', Helvetica, sans-serif">1.8k</text>
    <circle cx="640" cy="205.81" r="3.5" class="dot-vscode" stroke-width="1.8"/>
    <text x="658" y="209.81" class="end-label" font-family="-apple-system, BlinkMacSystemFont, 'Segoe UI', Helvetica, sans-serif">VS Code</text>
    <text x="710.2" y="209.81" class="end-value" font-family="-apple-system, BlinkMacSystemFont, 'Segoe UI', Helvetica, sans-serif">165</text>
</svg>