<svg xmlns="http://www.w3.org/2000/svg" viewBox="0 0 760 260" width="760" height="260" role="img" aria-label="Glassy install history">
  <style>
  svg { color-scheme: light dark; }
  .title      { fill: #1a1a2e; font-size: 15px; font-weight: 600; }
  .subtitle   { fill: #6b7280; font-size: 11px; font-weight: 400; }
  .grid       { stroke: #e8e8ee; }
  .axis-label { fill: #8a8a9a; font-size: 10px; }
  .line-total   { stroke: #e8553d; }
  .line-vscode  { stroke: #5b7cfa; }
  .line-openvsx { stroke: #34c7a0; }
  .dot-total   { fill: transparent; stroke: #e8553d; }
  .dot-vscode  { fill: transparent; stroke: #5b7cfa; }
  .dot-openvsx { fill: transparent; stroke: #34c7a0; }
  .end-label       { fill: #1a1a2e; font-size: 11px; font-weight: 600; }
  .end-value       { fill: #6b7280; font-size: 11px; font-weight: 400; }
  .area-total-top    { stop-color: #e8553d; }
  .area-total-bottom { stop-color: #e8553d; }

  @media (prefers-color-scheme: dark) {
    .title      { fill: #e2e2e8; }
    .subtitle   { fill: #8b949e; }
    .grid       { stroke: #2d2d3d; }
    .axis-label { fill: #6e7681; }
    .line-total   { stroke: #ff9b85; }
    .line-vscode  { stroke: #8da4ff; }
    .line-openvsx { stroke: #5eead4; }
    .dot-total   { stroke: #ff9b85; }
    .dot-vscode  { stroke: #8da4ff; }
    .dot-openvsx { stroke: #5eead4; }
    .end-label       { fill: #e2e2e8; }
    .end-value       { fill: #8b949e; }
    .area-total-top    { stop-color: #ff9b85; }
    .area-total-bottom { stop-color: #ff9b85; }
  }
</style>
  <defs>
    <linearGradient id="areaGrad" x1="0" y1="0" x2="0" y2="1">
      <stop offset="0%" class="area-total-top" stop-opacity="0.18"/>
      <stop offset="60%" class="area-total-bottom" stop-opacity="0.04"/>
      <stop offset="100%" class="area-total-bottom" stop-opacity="0"/>
    </linearGradient>
  </defs>

  <text x="48" y="22" class="title" font-family="-apple-system, BlinkMacSystemFont, 'Segoe UI', Helvetica, sans-serif">Installs</text>
  <text x="48" y="37" class="subtitle" font-family="-apple-system, BlinkMacSystemFont, 'Segoe UI', Helvetica, sans-serif">Updated May 8</text>

  <line x1="48" y1="220" x2="640" y2="220" class="grid" stroke-width="0.7"/>
    <text x="40" y="223.5" class="axis-label" text-anchor="end" font-family="-apple-system, BlinkMacSystemFont, 'Segoe UI', Helvetica, sans-serif">0</text>
    <line x1="48" y1="162.66666666666669" x2="640" y2="162.66666666666669" class="grid" stroke-width="0.7"/>
    <text x="40" y="166.16666666666669" class="axis-label" text-anchor="end" font-family="-apple-system, BlinkMacSystemFont, 'Segoe UI', Helvetica, sans-serif">500</text>
    <line x1="48" y1="105.33333333333334" x2="640" y2="105.33333333333334" class="grid" stroke-width="0.7"/>
    <text x="40" y="108.83333333333334" class="axis-label" text-anchor="end" font-family="-apple-system, BlinkMacSystemFont, 'Segoe UI', Helvetica, sans-serif">1k</text>
    <line x1="48" y1="48" x2="640" y2="48" class="grid" stroke-width="0.7"/>
    <text x="40" y="51.5" class="axis-label" text-anchor="end" font-family="-apple-system, BlinkMacSystemFont, 'Segoe UI', Helvetica, sans-serif">1.5k</text>
  <text x="48" y="248" class="axis-label" text-anchor="middle" font-family="-apple-system, BlinkMacSystemFont, 'Segoe UI', Helvetica, sans-serif">Mar 27</text>
    <text x="184.6153846153846" y="248" class="axis-label" text-anchor="middle" font-family="-apple-system, BlinkMacSystemFont, 'Segoe UI', Helvetica, sans-serif">Mar 30</text>
    <text x="275.69230769230774" y="248" class="axis-label" text-anchor="middle" font-family="-apple-system, BlinkMacSystemFont, 'Segoe UI', Helvetica, sans-serif">Apr 1</text>
    <text x="412.3076923076923" y="248" class="axis-label" text-anchor="middle" font-family="-apple-system, BlinkMacSystemFont, 'Segoe UI', Helvetica, sans-serif">May 3</text>
    <text x="503.3846153846154" y="248" class="axis-label" text-anchor="middle" font-family="-apple-system, BlinkMacSystemFont, 'Segoe UI', Helvetica, sans-serif">May 5</text>
    <text x="640" y="248" class="axis-label" text-anchor="middle" font-family="-apple-system, BlinkMacSystemFont, 'Segoe UI', Helvetica, sans-serif">May 8</text>

  <path d="M48.0,219.5 C55.6,216.8 78.4,207.4 93.5,203.4 C108.7,199.4 123.9,198.1 139.1,195.5 C154.3,192.8 169.4,188.8 184.6,187.4 C199.8,186.0 215.0,189.9 230.2,187.0 C245.3,184.0 260.5,173.2 275.7,169.8 C290.9,166.3 306.1,180.2 321.2,166.3 C336.4,152.5 351.6,100.6 366.8,86.6 C381.9,72.7 397.1,83.5 412.3,82.5 C427.5,81.6 442.7,81.4 457.8,81.0 C473.0,80.6 488.2,80.5 503.4,80.2 C518.6,80.0 533.7,79.9 548.9,79.4 C564.1,78.9 579.3,78.3 594.5,77.4 C609.6,76.4 632.4,74.5 640.0,73.9 L640.0,220.0 L48.0,220.0 Z" fill="url(#areaGrad)"/>
  <path d="M48.0,219.7 C55.6,217.0 78.4,207.5 93.5,203.7 C108.7,199.9 123.9,199.1 139.1,196.8 C154.3,194.6 169.4,191.3 184.6,190.2 C199.8,189.1 215.0,192.9 230.2,190.2 C245.3,187.4 260.5,176.9 275.7,173.7 C290.9,170.5 306.1,183.5 321.2,170.9 C336.4,158.3 351.6,111.0 366.8,98.2 C381.9,85.5 397.1,95.4 412.3,94.6 C427.5,93.8 442.7,93.7 457.8,93.4 C473.0,93.1 488.2,93.1 503.4,92.9 C518.6,92.8 533.7,92.7 548.9,92.3 C564.1,91.8 579.3,91.1 594.5,90.2 C609.6,89.3 632.4,87.3 640.0,86.8" fill="none" class="line-openvsx" stroke-width="1.8" stroke-linecap="round" stroke-linejoin="round"/>
  <path d="M48.0,219.9 C55.6,219.8 78.4,219.9 93.5,219.7 C108.7,219.4 123.9,219.0 139.1,218.6 C154.3,218.2 169.4,217.6 184.6,217.2 C199.8,216.9 215.0,217.0 230.2,216.8 C245.3,216.6 260.5,216.3 275.7,216.1 C290.9,215.9 306.1,216.7 321.2,215.4 C336.4,214.1 351.6,209.7 366.8,208.4 C381.9,207.2 397.1,208.1 412.3,208.0 C427.5,207.8 442.7,207.7 457.8,207.6 C473.0,207.5 488.2,207.3 503.4,207.3 C518.6,207.2 533.7,207.2 548.9,207.2 C564.1,207.1 579.3,207.2 594.5,207.2 C609.6,207.2 632.4,207.2 640.0,207.2" fill="none" class="line-vscode" stroke-width="1.8" stroke-linecap="round" stroke-linejoin="round"/>
  <path d="M48.0,219.5 C55.6,216.8 78.4,207.4 93.5,203.4 C108.7,199.4 123.9,198.1 139.1,195.5 C154.3,192.8 169.4,188.8 184.6,187.4 C199.8,186.0 215.0,189.9 230.2,187.0 C245.3,184.0 260.5,173.2 275.7,169.8 C290.9,166.3 306.1,180.2 321.2,166.3 C336.4,152.5 351.6,100.6 366.8,86.6 C381.9,72.7 397.1,83.5 412.3,82.5 C427.5,81.6 442.7,81.4 457.8,81.0 C473.0,80.6 488.2,80.5 503.4,80.2 C518.6,80.0 533.7,79.9 548.9,79.4 C564.1,78.9 579.3,78.3 594.5,77.4 C609.6,76.4 632.4,74.5 640.0,73.9" fill="none" class="line-total" stroke-width="2.5" stroke-linecap="round" stroke-linejoin="round"/>

  <circle cx="640" cy="73.91466666666665" r="4.5" class="dot-total" stroke-width="2"/>
    <text x="658" y="77.91466666666665" class="end-label" font-family="-apple-system, BlinkMacSystemFont, 'Segoe UI', Helvetica, sans-serif">Total</text>
    <text x="697" y="77.91466666666665" class="end-value" font-family="-apple-system, BlinkMacSystemFont, 'Segoe UI', Helvetica, sans-serif">1.3k</text>
    <circle cx="640" cy="86.75733333333335" r="3.5" class="dot-openvsx" stroke-width="1.8"/>
    <text x="658" y="95.91466666666665" class="end-label" font-family="-apple-system, BlinkMacSystemFont, 'Segoe UI', Helvetica, sans-serif">Open VSX</text>
    <text x="716.8" y="95.91466666666665" class="end-value" font-family="-apple-system, BlinkMacSystemFont, 'Segoe UI', Helvetica, sans-serif">1.2k</text>
    <circle cx="640" cy="207.15733333333333" r="3.5" class="dot-vscode" stroke-width="1.8"/>
    <text x="658" y="211.15733333333333" class="end-label" font-family="-apple-system, BlinkMacSystemFont, 'Segoe UI', Helvetica, sans-serif">VS Code</text>
    <text x="710.2" y="211.15733333333333" class="end-value" font-family="-apple-system, BlinkMacSystemFont, 'Segoe UI', Helvetica, sans-serif">112</text>
</svg>