<svg xmlns="http://www.w3.org/2000/svg" viewBox="0 0 760 260" width="760" height="260" role="img" aria-label="Glassy install history">
  <style>
  svg { color-scheme: light dark; }
  .title      { fill: #1a1a2e; font-size: 15px; font-weight: 600; }
  .subtitle   { fill: #6b7280; font-size: 11px; font-weight: 400; }
  .grid       { stroke: #e8e8ee; }
  .axis-label { fill: #8a8a9a; font-size: 10px; }
  .line-total   { stroke: #e8553d; }
  .line-vscode  { stroke: #5b7cfa; }
  .line-openvsx { stroke: #34c7a0; }
  .dot-total   { fill: transparent; stroke: #e8553d; }
  .dot-vscode  { fill: transparent; stroke: #5b7cfa; }
  .dot-openvsx { fill: transparent; stroke: #34c7a0; }
  .end-label       { fill: #1a1a2e; font-size: 11px; font-weight: 600; }
  .end-value       { fill: #6b7280; font-size: 11px; font-weight: 400; }
  .area-total-top    { stop-color: #e8553d; }
  .area-total-bottom { stop-color: #e8553d; }

  @media (prefers-color-scheme: dark) {
    .title      { fill: #e2e2e8; }
    .subtitle   { fill: #8b949e; }
    .grid       { stroke: #2d2d3d; }
    .axis-label { fill: #6e7681; }
    .line-total   { stroke: #ff9b85; }
    .line-vscode  { stroke: #8da4ff; }
    .line-openvsx { stroke: #5eead4; }
    .dot-total   { stroke: #ff9b85; }
    .dot-vscode  { stroke: #8da4ff; }
    .dot-openvsx { stroke: #5eead4; }
    .end-label       { fill: #e2e2e8; }
    .end-value       { fill: #8b949e; }
    .area-total-top    { stop-color: #ff9b85; }
    .area-total-bottom { stop-color: #ff9b85; }
  }
</style>
  <defs>
    <linearGradient id="areaGrad" x1="0" y1="0" x2="0" y2="1">
      <stop offset="0%" class="area-total-top" stop-opacity="0.18"/>
      <stop offset="60%" class="area-total-bottom" stop-opacity="0.04"/>
      <stop offset="100%" class="area-total-bottom" stop-opacity="0"/>
    </linearGradient>
  </defs>

  <text x="48" y="22" class="title" font-family="-apple-system, BlinkMacSystemFont, 'Segoe UI', Helvetica, sans-serif">Installs</text>
  <text x="48" y="37" class="subtitle" font-family="-apple-system, BlinkMacSystemFont, 'Segoe UI', Helvetica, sans-serif">Updated Jun 8</text>

  <line x1="48" y1="220" x2="640" y2="220" class="grid" stroke-width="0.7"/>
    <text x="40" y="223.5" class="axis-label" text-anchor="end" font-family="-apple-system, BlinkMacSystemFont, 'Segoe UI', Helvetica, sans-serif">0</text>
    <line x1="48" y1="177" x2="640" y2="177" class="grid" stroke-width="0.7"/>
    <text x="40" y="180.5" class="axis-label" text-anchor="end" font-family="-apple-system, BlinkMacSystemFont, 'Segoe UI', Helvetica, sans-serif">500</text>
    <line x1="48" y1="134" x2="640" y2="134" class="grid" stroke-width="0.7"/>
    <text x="40" y="137.5" class="axis-label" text-anchor="end" font-family="-apple-system, BlinkMacSystemFont, 'Segoe UI', Helvetica, sans-serif">1k</text>
    <line x1="48" y1="91" x2="640" y2="91" class="grid" stroke-width="0.7"/>
    <text x="40" y="94.5" class="axis-label" text-anchor="end" font-family="-apple-system, BlinkMacSystemFont, 'Segoe UI', Helvetica, sans-serif">1.5k</text>
    <line x1="48" y1="48" x2="640" y2="48" class="grid" stroke-width="0.7"/>
    <text x="40" y="51.5" class="axis-label" text-anchor="end" font-family="-apple-system, BlinkMacSystemFont, 'Segoe UI', Helvetica, sans-serif">2k</text>
  <text x="48" y="248" class="axis-label" text-anchor="middle" font-family="-apple-system, BlinkMacSystemFont, 'Segoe UI', Helvetica, sans-serif">Mar 27</text>
    <text x="169.0909090909091" y="248" class="axis-label" text-anchor="middle" font-family="-apple-system, BlinkMacSystemFont, 'Segoe UI', Helvetica, sans-serif">May 4</text>
    <text x="290.1818181818182" y="248" class="axis-label" text-anchor="middle" font-family="-apple-system, BlinkMacSystemFont, 'Segoe UI', Helvetica, sans-serif">May 13</text>
    <text x="397.8181818181818" y="248" class="axis-label" text-anchor="middle" font-family="-apple-system, BlinkMacSystemFont, 'Segoe UI', Helvetica, sans-serif">May 21</text>
    <text x="518.9090909090909" y="248" class="axis-label" text-anchor="middle" font-family="-apple-system, BlinkMacSystemFont, 'Segoe UI', Helvetica, sans-serif">May 30</text>
    <text x="640" y="248" class="axis-label" text-anchor="middle" font-family="-apple-system, BlinkMacSystemFont, 'Segoe UI', Helvetica, sans-serif">Jun 8</text>

  <path d="M48.0,219.7 C50.2,217.6 57.0,210.5 61.5,207.5 C65.9,204.5 70.4,203.6 74.9,201.6 C79.4,199.6 83.9,196.6 88.4,195.6 C92.8,194.5 97.3,197.4 101.8,195.2 C106.3,193.0 110.8,184.9 115.3,182.3 C119.8,179.8 124.2,190.1 128.7,179.8 C133.2,169.4 137.7,130.5 142.2,120.0 C146.7,109.5 151.2,117.6 155.6,116.9 C160.1,116.2 164.6,116.1 169.1,115.8 C173.6,115.5 178.1,115.4 182.5,115.2 C187.0,115.0 191.5,114.9 196.0,114.6 C200.5,114.2 205.0,113.7 209.5,113.0 C213.9,112.3 218.4,111.1 222.9,110.4 C227.4,109.8 231.9,109.5 236.4,109.1 C240.8,108.8 245.3,109.1 249.8,108.5 C254.3,107.8 258.8,106.2 263.3,105.4 C267.8,104.7 272.2,104.4 276.7,103.9 C281.2,103.4 285.7,103.1 290.2,102.6 C294.7,102.2 299.2,102.2 303.6,101.2 C308.1,100.3 312.6,98.0 317.1,97.0 C321.6,96.0 326.1,95.8 330.5,95.4 C335.0,94.9 339.5,94.6 344.0,94.4 C348.5,94.1 353.0,94.7 357.5,94.1 C361.9,93.5 366.4,91.5 370.9,90.7 C375.4,89.8 379.9,89.4 384.4,88.8 C388.8,88.1 393.3,87.7 397.8,86.6 C402.3,85.6 406.8,83.4 411.3,82.4 C415.8,81.4 420.2,80.9 424.7,80.3 C429.2,79.8 433.7,79.4 438.2,79.0 C442.7,78.7 447.2,78.6 451.6,78.0 C456.1,77.4 460.6,76.1 465.1,75.3 C469.6,74.6 474.1,74.3 478.5,73.8 C483.0,73.3 487.5,73.0 492.0,72.6 C496.5,72.2 501.0,72.0 505.5,71.7 C509.9,71.3 514.4,70.8 518.9,70.6 C523.4,70.4 527.9,70.4 532.4,70.4 C536.8,70.3 541.3,71.4 545.8,70.3 C550.3,69.1 554.8,64.8 559.3,63.3 C563.8,61.8 568.2,61.9 572.7,61.2 C577.2,60.6 581.7,59.9 586.2,59.3 C590.7,58.6 595.2,57.8 599.6,57.4 C604.1,56.9 608.6,56.9 613.1,56.5 C617.6,56.2 622.1,55.6 626.5,55.3 C631.0,55.0 637.8,54.7 640.0,54.6 L640.0,220.0 L48.0,220.0 Z" fill="url(#areaGrad)"/>
  <path d="M48.0,219.7 C50.2,217.7 57.0,210.6 61.5,207.8 C65.9,204.9 70.4,204.3 74.9,202.6 C79.4,200.9 83.9,198.5 88.4,197.6 C92.8,196.8 97.3,199.7 101.8,197.6 C106.3,195.6 110.8,187.7 115.3,185.3 C119.8,182.8 124.2,192.6 128.7,183.2 C133.2,173.8 137.7,138.2 142.2,128.7 C146.7,119.1 151.2,126.5 155.6,125.9 C160.1,125.3 164.6,125.3 169.1,125.1 C173.6,124.9 178.1,124.9 182.5,124.7 C187.0,124.6 191.5,124.5 196.0,124.2 C200.5,123.9 205.0,123.3 209.5,122.6 C213.9,122.0 218.4,120.6 222.9,120.1 C227.4,119.5 231.9,119.6 236.4,119.4 C240.8,119.2 245.3,119.4 249.8,118.9 C254.3,118.3 258.8,116.7 263.3,115.9 C267.8,115.2 272.2,115.0 276.7,114.6 C281.2,114.1 285.7,113.8 290.2,113.4 C294.7,112.9 299.2,112.9 303.6,112.0 C308.1,111.1 312.6,108.8 317.1,107.9 C321.6,106.9 326.1,106.7 330.5,106.3 C335.0,105.9 339.5,105.5 344.0,105.3 C348.5,105.1 353.0,105.7 357.5,105.1 C361.9,104.5 366.4,102.7 370.9,101.8 C375.4,101.0 379.9,100.7 384.4,100.1 C388.8,99.5 393.3,99.3 397.8,98.4 C402.3,97.5 406.8,95.4 411.3,94.4 C415.8,93.5 420.2,93.1 424.7,92.5 C429.2,92.0 433.7,91.7 438.2,91.3 C442.7,91.0 447.2,91.0 451.6,90.5 C456.1,89.9 460.6,88.7 465.1,88.1 C469.6,87.4 474.1,87.1 478.5,86.7 C483.0,86.3 487.5,86.0 492.0,85.7 C496.5,85.4 501.0,85.2 505.5,85.0 C509.9,84.7 514.4,84.3 518.9,84.1 C523.4,84.0 527.9,84.1 532.4,84.1 C536.8,84.1 541.3,85.2 545.8,84.1 C550.3,83.0 554.8,78.9 559.3,77.4 C563.8,76.0 568.2,76.0 572.7,75.3 C577.2,74.7 581.7,74.1 586.2,73.5 C590.7,72.8 595.2,72.0 599.6,71.6 C604.1,71.1 608.6,71.0 613.1,70.7 C617.6,70.4 622.1,69.8 626.5,69.5 C631.0,69.2 637.8,68.9 640.0,68.8" fill="none" class="line-openvsx" stroke-width="1.8" stroke-linecap="round" stroke-linejoin="round"/>
  <path d="M48.0,219.9 C50.2,219.9 57.0,219.9 61.5,219.7 C65.9,219.6 70.4,219.3 74.9,219.0 C79.4,218.7 83.9,218.2 88.4,217.9 C92.8,217.7 97.3,217.7 101.8,217.6 C106.3,217.4 110.8,217.2 115.3,217.1 C119.8,216.9 124.2,217.5 128.7,216.6 C133.2,215.6 137.7,212.2 142.2,211.3 C146.7,210.4 151.2,211.1 155.6,211.0 C160.1,210.9 164.6,210.8 169.1,210.7 C173.6,210.6 178.1,210.5 182.5,210.5 C187.0,210.4 191.5,210.4 196.0,210.4 C200.5,210.4 205.0,210.4 209.5,210.4 C213.9,210.4 218.4,210.5 222.9,210.4 C227.4,210.3 231.9,209.9 236.4,209.8 C240.8,209.6 245.3,209.6 249.8,209.6 C254.3,209.6 258.8,209.6 263.3,209.5 C267.8,209.5 272.2,209.4 276.7,209.3 C281.2,209.3 285.7,209.3 290.2,209.3 C294.7,209.2 299.2,209.3 303.6,209.3 C308.1,209.2 312.6,209.2 317.1,209.2 C321.6,209.1 326.1,209.1 330.5,209.1 C335.0,209.1 339.5,209.1 344.0,209.1 C348.5,209.1 353.0,209.0 357.5,209.0 C361.9,208.9 366.4,208.9 370.9,208.8 C375.4,208.8 379.9,208.7 384.4,208.6 C388.8,208.5 393.3,208.3 397.8,208.2 C402.3,208.1 406.8,208.0 411.3,208.0 C415.8,207.9 420.2,207.8 424.7,207.8 C429.2,207.7 433.7,207.7 438.2,207.7 C442.7,207.7 447.2,207.6 451.6,207.5 C456.1,207.5 460.6,207.3 465.1,207.3 C469.6,207.2 474.1,207.2 478.5,207.1 C483.0,207.0 487.5,207.0 492.0,206.9 C496.5,206.9 501.0,206.7 505.5,206.7 C509.9,206.6 514.4,206.6 518.9,206.5 C523.4,206.4 527.9,206.3 532.4,206.2 C536.8,206.2 541.3,206.2 545.8,206.2 C550.3,206.1 554.8,205.9 559.3,205.9 C563.8,205.9 568.2,205.9 572.7,205.9 C577.2,205.9 581.7,205.8 586.2,205.8 C590.7,205.8 595.2,205.8 599.6,205.8 C604.1,205.8 608.6,205.8 613.1,205.8 C617.6,205.8 622.1,205.8 626.5,205.8 C631.0,205.8 637.8,205.8 640.0,205.8" fill="none" class="line-vscode" stroke-width="1.8" stroke-linecap="round" stroke-linejoin="round"/>
  <path d="M48.0,219.7 C50.2,217.6 57.0,210.5 61.5,207.5 C65.9,204.5 70.4,203.6 74.9,201.6 C79.4,199.6 83.9,196.6 88.4,195.6 C92.8,194.5 97.3,197.4 101.8,195.2 C106.3,193.0 110.8,184.9 115.3,182.3 C119.8,179.8 124.2,190.1 128.7,179.8 C133.2,169.4 137.7,130.5 142.2,120.0 C146.7,109.5 151.2,117.6 155.6,116.9 C160.1,116.2 164.6,116.1 169.1,115.8 C173.6,115.5 178.1,115.4 182.5,115.2 C187.0,115.0 191.5,114.9 196.0,114.6 C200.5,114.2 205.0,113.7 209.5,113.0 C213.9,112.3 218.4,111.1 222.9,110.4 C227.4,109.8 231.9,109.5 236.4,109.1 C240.8,108.8 245.3,109.1 249.8,108.5 C254.3,107.8 258.8,106.2 263.3,105.4 C267.8,104.7 272.2,104.4 276.7,103.9 C281.2,103.4 285.7,103.1 290.2,102.6 C294.7,102.2 299.2,102.2 303.6,101.2 C308.1,100.3 312.6,98.0 317.1,97.0 C321.6,96.0 326.1,95.8 330.5,95.4 C335.0,94.9 339.5,94.6 344.0,94.4 C348.5,94.1 353.0,94.7 357.5,94.1 C361.9,93.5 366.4,91.5 370.9,90.7 C375.4,89.8 379.9,89.4 384.4,88.8 C388.8,88.1 393.3,87.7 397.8,86.6 C402.3,85.6 406.8,83.4 411.3,82.4 C415.8,81.4 420.2,80.9 424.7,80.3 C429.2,79.8 433.7,79.4 438.2,79.0 C442.7,78.7 447.2,78.6 451.6,78.0 C456.1,77.4 460.6,76.1 465.1,75.3 C469.6,74.6 474.1,74.3 478.5,73.8 C483.0,73.3 487.5,73.0 492.0,72.6 C496.5,72.2 501.0,72.0 505.5,71.7 C509.9,71.3 514.4,70.8 518.9,70.6 C523.4,70.4 527.9,70.4 532.4,70.4 C536.8,70.3 541.3,71.4 545.8,70.3 C550.3,69.1 554.8,64.8 559.3,63.3 C563.8,61.8 568.2,61.9 572.7,61.2 C577.2,60.6 581.7,59.9 586.2,59.3 C590.7,58.6 595.2,57.8 599.6,57.4 C604.1,56.9 608.6,56.9 613.1,56.5 C617.6,56.2 622.1,55.6 626.5,55.3 C631.0,55.0 637.8,54.7 640.0,54.6" fill="none" class="line-total" stroke-width="2.5" stroke-linecap="round" stroke-linejoin="round"/>

  <circle cx="640" cy="54.621999999999986" r="4.5" class="dot-total" stroke-width="2"/>
    <text x="658" y="58.621999999999986" class="end-label" font-family="-apple-system, BlinkMacSystemFont, 'Segoe UI', Helvetica, sans-serif">Total</text>
    <text x="697" y="58.621999999999986" class="end-value" font-family="-apple-system, BlinkMacSystemFont, 'Segoe UI', Helvetica, sans-serif">1.9k</text>
    <circle cx="640" cy="68.81200000000001" r="3.5" class="dot-openvsx" stroke-width="1.8"/>
    <text x="658" y="76.62199999999999" class="end-label" font-family="-apple-system, BlinkMacSystemFont, 'Segoe UI', Helvetica, sans-serif">Open VSX</text>
    <text x="716.8" y="76.62199999999999" class="end-value" font-family="-apple-system, BlinkMacSystemFont, 'Segoe UI', Helvetica, sans-serif">1.8k</text>
    <circle cx="640" cy="205.81" r="3.5" class="dot-vscode" stroke-width="1.8"/>
    <text x="658" y="209.81" class="end-label" font-family="-apple-system, BlinkMacSystemFont, 'Segoe UI', Helvetica, sans-serif">VS Code</text>
    <text x="710.2" y="209.81" class="end-value" font-family="-apple-system, BlinkMacSystemFont, 'Segoe UI', Helvetica, sans-serif">165</text>
</svg>