<svg xmlns="http://www.w3.org/2000/svg" viewBox="0 0 760 260" width="760" height="260" role="img" aria-label="Glassy install history">
  <style>
  svg { color-scheme: light dark; }
  .title      { fill: #1a1a2e; font-size: 15px; font-weight: 600; }
  .subtitle   { fill: #6b7280; font-size: 11px; font-weight: 400; }
  .grid       { stroke: #e8e8ee; }
  .axis-label { fill: #8a8a9a; font-size: 10px; }
  .line-total   { stroke: #e8553d; }
  .line-vscode  { stroke: #5b7cfa; }
  .line-openvsx { stroke: #34c7a0; }
  .dot-total   { fill: transparent; stroke: #e8553d; }
  .dot-vscode  { fill: transparent; stroke: #5b7cfa; }
  .dot-openvsx { fill: transparent; stroke: #34c7a0; }
  .end-label       { fill: #1a1a2e; font-size: 11px; font-weight: 600; }
  .end-value       { fill: #6b7280; font-size: 11px; font-weight: 400; }
  .area-total-top    { stop-color: #e8553d; }
  .area-total-bottom { stop-color: #e8553d; }

  @media (prefers-color-scheme: dark) {
    .title      { fill: #e2e2e8; }
    .subtitle   { fill: #8b949e; }
    .grid       { stroke: #2d2d3d; }
    .axis-label { fill: #6e7681; }
    .line-total   { stroke: #ff9b85; }
    .line-vscode  { stroke: #8da4ff; }
    .line-openvsx { stroke: #5eead4; }
    .dot-total   { stroke: #ff9b85; }
    .dot-vscode  { stroke: #8da4ff; }
    .dot-openvsx { stroke: #5eead4; }
    .end-label       { fill: #e2e2e8; }
    .end-value       { fill: #8b949e; }
    .area-total-top    { stop-color: #ff9b85; }
    .area-total-bottom { stop-color: #ff9b85; }
  }
</style>
  <defs>
    <linearGradient id="areaGrad" x1="0" y1="0" x2="0" y2="1">
      <stop offset="0%" class="area-total-top" stop-opacity="0.18"/>
      <stop offset="60%" class="area-total-bottom" stop-opacity="0.04"/>
      <stop offset="100%" class="area-total-bottom" stop-opacity="0"/>
    </linearGradient>
  </defs>

  <text x="48" y="22" class="title" font-family="-apple-system, BlinkMacSystemFont, 'Segoe UI', Helvetica, sans-serif">Installs</text>
  <text x="48" y="37" class="subtitle" font-family="-apple-system, BlinkMacSystemFont, 'Segoe UI', Helvetica, sans-serif">Updated May 14</text>

  <line x1="48" y1="220" x2="640" y2="220" class="grid" stroke-width="0.7"/>
    <text x="40" y="223.5" class="axis-label" text-anchor="end" font-family="-apple-system, BlinkMacSystemFont, 'Segoe UI', Helvetica, sans-serif">0</text>
    <line x1="48" y1="162.66666666666669" x2="640" y2="162.66666666666669" class="grid" stroke-width="0.7"/>
    <text x="40" y="166.16666666666669" class="axis-label" text-anchor="end" font-family="-apple-system, BlinkMacSystemFont, 'Segoe UI', Helvetica, sans-serif">500</text>
    <line x1="48" y1="105.33333333333334" x2="640" y2="105.33333333333334" class="grid" stroke-width="0.7"/>
    <text x="40" y="108.83333333333334" class="axis-label" text-anchor="end" font-family="-apple-system, BlinkMacSystemFont, 'Segoe UI', Helvetica, sans-serif">1k</text>
    <line x1="48" y1="48" x2="640" y2="48" class="grid" stroke-width="0.7"/>
    <text x="40" y="51.5" class="axis-label" text-anchor="end" font-family="-apple-system, BlinkMacSystemFont, 'Segoe UI', Helvetica, sans-serif">1.5k</text>
  <text x="48" y="248" class="axis-label" text-anchor="middle" font-family="-apple-system, BlinkMacSystemFont, 'Segoe UI', Helvetica, sans-serif">Mar 27</text>
    <text x="172.6315789473684" y="248" class="axis-label" text-anchor="middle" font-family="-apple-system, BlinkMacSystemFont, 'Segoe UI', Helvetica, sans-serif">Mar 31</text>
    <text x="297.2631578947368" y="248" class="axis-label" text-anchor="middle" font-family="-apple-system, BlinkMacSystemFont, 'Segoe UI', Helvetica, sans-serif">May 3</text>
    <text x="390.7368421052632" y="248" class="axis-label" text-anchor="middle" font-family="-apple-system, BlinkMacSystemFont, 'Segoe UI', Helvetica, sans-serif">May 6</text>
    <text x="515.3684210526316" y="248" class="axis-label" text-anchor="middle" font-family="-apple-system, BlinkMacSystemFont, 'Segoe UI', Helvetica, sans-serif">May 10</text>
    <text x="640" y="248" class="axis-label" text-anchor="middle" font-family="-apple-system, BlinkMacSystemFont, 'Segoe UI', Helvetica, sans-serif">May 14</text>

  <path d="M48.0,219.5 C53.2,216.8 68.8,207.4 79.2,203.4 C89.5,199.4 99.9,198.1 110.3,195.5 C120.7,192.8 131.1,188.8 141.5,187.4 C151.9,186.0 162.2,189.9 172.6,187.0 C183.0,184.0 193.4,173.2 203.8,169.8 C214.2,166.3 224.6,180.2 234.9,166.3 C245.3,152.5 255.7,100.6 266.1,86.6 C276.5,72.7 286.9,83.5 297.3,82.5 C307.6,81.6 318.0,81.4 328.4,81.0 C338.8,80.6 349.2,80.5 359.6,80.2 C370.0,80.0 380.4,79.9 390.7,79.4 C401.1,78.9 411.5,78.3 421.9,77.4 C432.3,76.4 442.7,74.8 453.1,73.9 C463.4,73.1 473.8,72.6 484.2,72.2 C494.6,71.8 505.0,72.1 515.4,71.3 C525.8,70.5 536.1,68.3 546.5,67.3 C556.9,66.3 567.3,65.8 577.7,65.2 C588.1,64.6 598.5,64.1 608.8,63.5 C619.2,62.9 634.8,62.0 640.0,61.6 L640.0,220.0 L48.0,220.0 Z" fill="url(#areaGrad)"/>
  <path d="M48.0,219.7 C53.2,217.0 68.8,207.5 79.2,203.7 C89.5,199.9 99.9,199.1 110.3,196.8 C120.7,194.6 131.1,191.3 141.5,190.2 C151.9,189.1 162.2,192.9 172.6,190.2 C183.0,187.4 193.4,176.9 203.8,173.7 C214.2,170.5 224.6,183.5 234.9,170.9 C245.3,158.3 255.7,111.0 266.1,98.2 C276.5,85.5 286.9,95.4 297.3,94.6 C307.6,93.8 318.0,93.7 328.4,93.4 C338.8,93.1 349.2,93.1 359.6,92.9 C370.0,92.8 380.4,92.7 390.7,92.3 C401.1,91.8 411.5,91.1 421.9,90.2 C432.3,89.3 442.7,87.5 453.1,86.8 C463.4,86.0 473.8,86.1 484.2,85.8 C494.6,85.6 505.0,85.9 515.4,85.2 C525.8,84.4 536.1,82.2 546.5,81.3 C556.9,80.3 567.3,80.0 577.7,79.4 C588.1,78.8 598.5,78.4 608.8,77.8 C619.2,77.2 634.8,76.3 640.0,76.0" fill="none" class="line-openvsx" stroke-width="1.8" stroke-linecap="round" stroke-linejoin="round"/>
  <path d="M48.0,219.9 C53.2,219.8 68.8,219.9 79.2,219.7 C89.5,219.4 99.9,219.0 110.3,218.6 C120.7,218.2 131.1,217.6 141.5,217.2 C151.9,216.9 162.2,217.0 172.6,216.8 C183.0,216.6 193.4,216.3 203.8,216.1 C214.2,215.9 224.6,216.7 234.9,215.4 C245.3,214.1 255.7,209.7 266.1,208.4 C276.5,207.2 286.9,208.1 297.3,208.0 C307.6,207.8 318.0,207.7 328.4,207.6 C338.8,207.5 349.2,207.3 359.6,207.3 C370.0,207.2 380.4,207.2 390.7,207.2 C401.1,207.1 411.5,207.2 421.9,207.2 C432.3,207.2 442.7,207.3 453.1,207.2 C463.4,207.0 473.8,206.5 484.2,206.4 C494.6,206.2 505.0,206.2 515.4,206.1 C525.8,206.1 536.1,206.1 546.5,206.0 C556.9,206.0 567.3,205.8 577.7,205.8 C588.1,205.7 598.5,205.7 608.8,205.7 C619.2,205.6 634.8,205.7 640.0,205.7" fill="none" class="line-vscode" stroke-width="1.8" stroke-linecap="round" stroke-linejoin="round"/>
  <path d="M48.0,219.5 C53.2,216.8 68.8,207.4 79.2,203.4 C89.5,199.4 99.9,198.1 110.3,195.5 C120.7,192.8 131.1,188.8 141.5,187.4 C151.9,186.0 162.2,189.9 172.6,187.0 C183.0,184.0 193.4,173.2 203.8,169.8 C214.2,166.3 224.6,180.2 234.9,166.3 C245.3,152.5 255.7,100.6 266.1,86.6 C276.5,72.7 286.9,83.5 297.3,82.5 C307.6,81.6 318.0,81.4 328.4,81.0 C338.8,80.6 349.2,80.5 359.6,80.2 C370.0,80.0 380.4,79.9 390.7,79.4 C401.1,78.9 411.5,78.3 421.9,77.4 C432.3,76.4 442.7,74.8 453.1,73.9 C463.4,73.1 473.8,72.6 484.2,72.2 C494.6,71.8 505.0,72.1 515.4,71.3 C525.8,70.5 536.1,68.3 546.5,67.3 C556.9,66.3 567.3,65.8 577.7,65.2 C588.1,64.6 598.5,64.1 608.8,63.5 C619.2,62.9 634.8,62.0 640.0,61.6" fill="none" class="line-total" stroke-width="2.5" stroke-linecap="round" stroke-linejoin="round"/>

  <circle cx="640" cy="61.645333333333326" r="4.5" class="dot-total" stroke-width="2"/>
    <text x="658" y="65.64533333333333" class="end-label" font-family="-apple-system, BlinkMacSystemFont, 'Segoe UI', Helvetica, sans-serif">Total</text>
    <text x="697" y="65.64533333333333" class="end-value" font-family="-apple-system, BlinkMacSystemFont, 'Segoe UI', Helvetica, sans-serif">1.4k</text>
    <circle cx="640" cy="75.97866666666667" r="3.5" class="dot-openvsx" stroke-width="1.8"/>
    <text x="658" y="83.64533333333333" class="end-label" font-family="-apple-system, BlinkMacSystemFont, 'Segoe UI', Helvetica, sans-serif">Open VSX</text>
    <text x="716.8" y="83.64533333333333" class="end-value" font-family="-apple-system, BlinkMacSystemFont, 'Segoe UI', Helvetica, sans-serif">1.3k</text>
    <circle cx="640" cy="205.66666666666666" r="3.5" class="dot-vscode" stroke-width="1.8"/>
    <text x="658" y="209.66666666666666" class="end-label" font-family="-apple-system, BlinkMacSystemFont, 'Segoe UI', Helvetica, sans-serif">VS Code</text>
    <text x="710.2" y="209.66666666666666" class="end-value" font-family="-apple-system, BlinkMacSystemFont, 'Segoe UI', Helvetica, sans-serif">125</text>
</svg>