<svg xmlns="http://www.w3.org/2000/svg" viewBox="0 0 760 260" width="760" height="260" role="img" aria-label="Glassy install history">
  <style>
  svg { color-scheme: light dark; }
  .title      { fill: #1a1a2e; font-size: 15px; font-weight: 600; }
  .subtitle   { fill: #6b7280; font-size: 11px; font-weight: 400; }
  .grid       { stroke: #e8e8ee; }
  .axis-label { fill: #8a8a9a; font-size: 10px; }
  .line-total   { stroke: #e8553d; }
  .line-vscode  { stroke: #5b7cfa; }
  .line-openvsx { stroke: #34c7a0; }
  .dot-total   { fill: transparent; stroke: #e8553d; }
  .dot-vscode  { fill: transparent; stroke: #5b7cfa; }
  .dot-openvsx { fill: transparent; stroke: #34c7a0; }
  .end-label       { fill: #1a1a2e; font-size: 11px; font-weight: 600; }
  .end-value       { fill: #6b7280; font-size: 11px; font-weight: 400; }
  .area-total-top    { stop-color: #e8553d; }
  .area-total-bottom { stop-color: #e8553d; }

  @media (prefers-color-scheme: dark) {
    .title      { fill: #e2e2e8; }
    .subtitle   { fill: #8b949e; }
    .grid       { stroke: #2d2d3d; }
    .axis-label { fill: #6e7681; }
    .line-total   { stroke: #ff9b85; }
    .line-vscode  { stroke: #8da4ff; }
    .line-openvsx { stroke: #5eead4; }
    .dot-total   { stroke: #ff9b85; }
    .dot-vscode  { stroke: #8da4ff; }
    .dot-openvsx { stroke: #5eead4; }
    .end-label       { fill: #e2e2e8; }
    .end-value       { fill: #8b949e; }
    .area-total-top    { stop-color: #ff9b85; }
    .area-total-bottom { stop-color: #ff9b85; }
  }
</style>
  <defs>
    <linearGradient id="areaGrad" x1="0" y1="0" x2="0" y2="1">
      <stop offset="0%" class="area-total-top" stop-opacity="0.18"/>
      <stop offset="60%" class="area-total-bottom" stop-opacity="0.04"/>
      <stop offset="100%" class="area-total-bottom" stop-opacity="0"/>
    </linearGradient>
  </defs>

  <text x="48" y="22" class="title" font-family="-apple-system, BlinkMacSystemFont, 'Segoe UI', Helvetica, sans-serif">Installs</text>
  <text x="48" y="37" class="subtitle" font-family="-apple-system, BlinkMacSystemFont, 'Segoe UI', Helvetica, sans-serif">Updated Jun 16</text>

  <line x1="48" y1="220" x2="640" y2="220" class="grid" stroke-width="0.7"/>
    <text x="40" y="223.5" class="axis-label" text-anchor="end" font-family="-apple-system, BlinkMacSystemFont, 'Segoe UI', Helvetica, sans-serif">0</text>
    <line x1="48" y1="162.66666666666669" x2="640" y2="162.66666666666669" class="grid" stroke-width="0.7"/>
    <text x="40" y="166.16666666666669" class="axis-label" text-anchor="end" font-family="-apple-system, BlinkMacSystemFont, 'Segoe UI', Helvetica, sans-serif">1k</text>
    <line x1="48" y1="105.33333333333334" x2="640" y2="105.33333333333334" class="grid" stroke-width="0.7"/>
    <text x="40" y="108.83333333333334" class="axis-label" text-anchor="end" font-family="-apple-system, BlinkMacSystemFont, 'Segoe UI', Helvetica, sans-serif">2k</text>
    <line x1="48" y1="48" x2="640" y2="48" class="grid" stroke-width="0.7"/>
    <text x="40" y="51.5" class="axis-label" text-anchor="end" font-family="-apple-system, BlinkMacSystemFont, 'Segoe UI', Helvetica, sans-serif">3k</text>
  <text x="48" y="248" class="axis-label" text-anchor="middle" font-family="-apple-system, BlinkMacSystemFont, 'Segoe UI', Helvetica, sans-serif">Mar 27</text>
    <text x="161.84615384615387" y="248" class="axis-label" text-anchor="middle" font-family="-apple-system, BlinkMacSystemFont, 'Segoe UI', Helvetica, sans-serif">May 5</text>
    <text x="287.0769230769231" y="248" class="axis-label" text-anchor="middle" font-family="-apple-system, BlinkMacSystemFont, 'Segoe UI', Helvetica, sans-serif">May 16</text>
    <text x="400.9230769230769" y="248" class="axis-label" text-anchor="middle" font-family="-apple-system, BlinkMacSystemFont, 'Segoe UI', Helvetica, sans-serif">May 26</text>
    <text x="526.1538461538462" y="248" class="axis-label" text-anchor="middle" font-family="-apple-system, BlinkMacSystemFont, 'Segoe UI', Helvetica, sans-serif">Jun 6</text>
    <text x="640" y="248" class="axis-label" text-anchor="middle" font-family="-apple-system, BlinkMacSystemFont, 'Segoe UI', Helvetica, sans-serif">Jun 16</text>

  <path d="M48.0,219.8 C49.9,218.4 55.6,213.7 59.4,211.7 C63.2,209.7 67.0,209.1 70.8,207.7 C74.6,206.4 78.4,204.4 82.2,203.7 C85.9,203.0 89.7,205.0 93.5,203.5 C97.3,202.0 101.1,196.6 104.9,194.9 C108.7,193.2 112.5,200.1 116.3,193.2 C120.1,186.2 123.9,160.3 127.7,153.3 C131.5,146.3 135.3,151.7 139.1,151.3 C142.9,150.8 146.7,150.7 150.5,150.5 C154.3,150.3 158.1,150.2 161.8,150.1 C165.6,150.0 169.4,149.9 173.2,149.7 C177.0,149.5 180.8,149.1 184.6,148.7 C188.4,148.2 192.2,147.4 196.0,147.0 C199.8,146.5 203.6,146.3 207.4,146.1 C211.2,145.9 215.0,146.0 218.8,145.6 C222.6,145.2 226.4,144.1 230.2,143.6 C233.9,143.1 237.7,142.9 241.5,142.6 C245.3,142.3 249.1,142.0 252.9,141.7 C256.7,141.4 260.5,141.4 264.3,140.8 C268.1,140.2 271.9,138.7 275.7,138.0 C279.5,137.4 283.3,137.2 287.1,136.9 C290.9,136.6 294.7,136.4 298.5,136.2 C302.3,136.1 306.1,136.5 309.8,136.1 C313.6,135.7 317.4,134.4 321.2,133.8 C325.0,133.2 328.8,133.0 332.6,132.5 C336.4,132.1 340.2,131.8 344.0,131.1 C347.8,130.4 351.6,129.0 355.4,128.3 C359.2,127.6 363.0,127.3 366.8,126.9 C370.6,126.5 374.4,126.3 378.2,126.0 C381.9,125.8 385.7,125.8 389.5,125.3 C393.3,124.9 397.1,124.0 400.9,123.6 C404.7,123.1 408.5,122.8 412.3,122.5 C416.1,122.2 419.9,122.0 423.7,121.7 C427.5,121.5 431.3,121.3 435.1,121.1 C438.9,120.9 442.7,120.6 446.5,120.4 C450.3,120.3 454.1,120.3 457.8,120.2 C461.6,120.2 465.4,121.0 469.2,120.2 C473.0,119.4 476.8,116.5 480.6,115.5 C484.4,114.5 488.2,114.6 492.0,114.2 C495.8,113.7 499.6,113.3 503.4,112.8 C507.2,112.4 511.0,111.9 514.8,111.6 C518.6,111.3 522.4,111.2 526.2,111.0 C529.9,110.8 533.7,110.4 537.5,110.2 C541.3,110.0 545.1,110.1 548.9,109.7 C552.7,109.4 556.5,108.6 560.3,108.1 C564.1,107.7 567.9,107.6 571.7,107.2 C575.5,106.9 579.3,106.4 583.1,106.2 C586.9,105.9 590.7,106.0 594.5,105.7 C598.3,105.5 602.1,104.8 605.8,104.5 C609.6,104.2 613.4,104.2 617.2,104.0 C621.0,103.7 624.8,103.5 628.6,103.2 C632.4,102.9 638.1,102.3 640.0,102.2 L640.0,220.0 L48.0,220.0 Z" fill="url(#areaGrad)"/>
  <path d="M48.0,219.8 C49.9,218.5 55.6,213.8 59.4,211.9 C63.2,210.0 67.0,209.5 70.8,208.4 C74.6,207.3 78.4,205.6 82.2,205.1 C85.9,204.5 89.7,206.5 93.5,205.1 C97.3,203.7 101.1,198.4 104.9,196.8 C108.7,195.2 112.5,201.7 116.3,195.5 C120.1,189.2 123.9,165.5 127.7,159.1 C131.5,152.7 135.3,157.7 139.1,157.3 C142.9,156.9 146.7,156.8 150.5,156.7 C154.3,156.6 158.1,156.6 161.8,156.5 C165.6,156.4 169.4,156.4 173.2,156.1 C177.0,155.9 180.8,155.6 184.6,155.1 C188.4,154.6 192.2,153.7 196.0,153.4 C199.8,153.0 203.6,153.1 207.4,152.9 C211.2,152.8 215.0,153.0 218.8,152.6 C222.6,152.2 226.4,151.1 230.2,150.6 C233.9,150.1 237.7,150.0 241.5,149.7 C245.3,149.4 249.1,149.2 252.9,148.9 C256.7,148.6 260.5,148.6 264.3,148.0 C268.1,147.4 271.9,145.9 275.7,145.2 C279.5,144.6 283.3,144.5 287.1,144.2 C290.9,143.9 294.7,143.7 298.5,143.5 C302.3,143.4 306.1,143.8 309.8,143.4 C313.6,143.0 317.4,141.8 321.2,141.2 C325.0,140.7 328.8,140.5 332.6,140.1 C336.4,139.7 340.2,139.6 344.0,138.9 C347.8,138.3 351.6,136.9 355.4,136.3 C359.2,135.6 363.0,135.4 366.8,135.0 C370.6,134.7 374.4,134.5 378.2,134.2 C381.9,134.0 385.7,134.0 389.5,133.7 C393.3,133.3 397.1,132.5 400.9,132.1 C404.7,131.6 408.5,131.4 412.3,131.1 C416.1,130.9 419.9,130.6 423.7,130.4 C427.5,130.3 431.3,130.2 435.1,130.0 C438.9,129.8 442.7,129.5 446.5,129.4 C450.3,129.3 454.1,129.4 457.8,129.4 C461.6,129.4 465.4,130.2 469.2,129.4 C473.0,128.7 476.8,125.9 480.6,124.9 C484.4,124.0 488.2,124.0 492.0,123.6 C495.8,123.1 499.6,122.7 503.4,122.3 C507.2,121.9 511.0,121.3 514.8,121.0 C518.6,120.7 522.4,120.7 526.2,120.5 C529.9,120.2 533.7,119.9 537.5,119.7 C541.3,119.5 545.1,119.6 548.9,119.2 C552.7,118.9 556.5,118.0 560.3,117.6 C564.1,117.2 567.9,117.0 571.7,116.7 C575.5,116.4 579.3,115.9 583.1,115.7 C586.9,115.4 590.7,115.5 594.5,115.2 C598.3,114.9 602.1,114.3 605.8,114.0 C609.6,113.8 613.4,113.8 617.2,113.6 C621.0,113.4 624.8,113.2 628.6,112.9 C632.4,112.6 638.1,112.1 640.0,112.0" fill="none" class="line-openvsx" stroke-width="1.8" stroke-linecap="round" stroke-linejoin="round"/>
  <path d="M48.0,219.9 C49.9,219.9 55.6,219.9 59.4,219.8 C63.2,219.7 67.0,219.5 70.8,219.3 C74.6,219.1 78.4,218.8 82.2,218.6 C85.9,218.5 89.7,218.5 93.5,218.4 C97.3,218.3 101.1,218.2 104.9,218.1 C108.7,217.9 112.5,218.3 116.3,217.7 C120.1,217.1 123.9,214.8 127.7,214.2 C131.5,213.6 135.3,214.0 139.1,214.0 C142.9,213.9 146.7,213.9 150.5,213.8 C154.3,213.8 158.1,213.7 161.8,213.6 C165.6,213.6 169.4,213.6 173.2,213.6 C177.0,213.6 180.8,213.6 184.6,213.6 C188.4,213.6 192.2,213.6 196.0,213.6 C199.8,213.5 203.6,213.3 207.4,213.2 C211.2,213.1 215.0,213.1 218.8,213.1 C222.6,213.0 226.4,213.0 230.2,213.0 C233.9,213.0 237.7,212.9 241.5,212.9 C245.3,212.9 249.1,212.8 252.9,212.8 C256.7,212.8 260.5,212.8 264.3,212.8 C268.1,212.8 271.9,212.8 275.7,212.8 C279.5,212.8 283.3,212.7 287.1,212.7 C290.9,212.7 294.7,212.7 298.5,212.7 C302.3,212.7 306.1,212.7 309.8,212.7 C313.6,212.6 317.4,212.6 321.2,212.5 C325.0,212.5 328.8,212.5 332.6,212.4 C336.4,212.4 340.2,212.2 344.0,212.1 C347.8,212.1 351.6,212.0 355.4,212.0 C359.2,211.9 363.0,211.9 366.8,211.9 C370.6,211.8 374.4,211.8 378.2,211.8 C381.9,211.8 385.7,211.7 389.5,211.7 C393.3,211.6 397.1,211.6 400.9,211.5 C404.7,211.5 408.5,211.4 412.3,211.4 C416.1,211.4 419.9,211.3 423.7,211.3 C427.5,211.2 431.3,211.2 435.1,211.1 C438.9,211.1 442.7,211.0 446.5,211.0 C450.3,211.0 454.1,210.9 457.8,210.8 C461.6,210.8 465.4,210.8 469.2,210.8 C473.0,210.7 476.8,210.6 480.6,210.6 C484.4,210.6 488.2,210.6 492.0,210.6 C495.8,210.6 499.6,210.5 503.4,210.5 C507.2,210.5 511.0,210.5 514.8,210.5 C518.6,210.5 522.4,210.5 526.2,210.5 C529.9,210.5 533.7,210.5 537.5,210.5 C541.3,210.5 545.1,210.5 548.9,210.5 C552.7,210.5 556.5,210.5 560.3,210.5 C564.1,210.5 567.9,210.5 571.7,210.5 C575.5,210.5 579.3,210.5 583.1,210.5 C586.9,210.5 590.7,210.5 594.5,210.5 C598.3,210.5 602.1,210.5 605.8,210.5 C609.6,210.5 613.4,210.4 617.2,210.4 C621.0,210.3 624.8,210.3 628.6,210.3 C632.4,210.2 638.1,210.2 640.0,210.2" fill="none" class="line-vscode" stroke-width="1.8" stroke-linecap="round" stroke-linejoin="round"/>
  <path d="M48.0,219.8 C49.9,218.4 55.6,213.7 59.4,211.7 C63.2,209.7 67.0,209.1 70.8,207.7 C74.6,206.4 78.4,204.4 82.2,203.7 C85.9,203.0 89.7,205.0 93.5,203.5 C97.3,202.0 101.1,196.6 104.9,194.9 C108.7,193.2 112.5,200.1 116.3,193.2 C120.1,186.2 123.9,160.3 127.7,153.3 C131.5,146.3 135.3,151.7 139.1,151.3 C142.9,150.8 146.7,150.7 150.5,150.5 C154.3,150.3 158.1,150.2 161.8,150.1 C165.6,150.0 169.4,149.9 173.2,149.7 C177.0,149.5 180.8,149.1 184.6,148.7 C188.4,148.2 192.2,147.4 196.0,147.0 C199.8,146.5 203.6,146.3 207.4,146.1 C211.2,145.9 215.0,146.0 218.8,145.6 C222.6,145.2 226.4,144.1 230.2,143.6 C233.9,143.1 237.7,142.9 241.5,142.6 C245.3,142.3 249.1,142.0 252.9,141.7 C256.7,141.4 260.5,141.4 264.3,140.8 C268.1,140.2 271.9,138.7 275.7,138.0 C279.5,137.4 283.3,137.2 287.1,136.9 C290.9,136.6 294.7,136.4 298.5,136.2 C302.3,136.1 306.1,136.5 309.8,136.1 C313.6,135.7 317.4,134.4 321.2,133.8 C325.0,133.2 328.8,133.0 332.6,132.5 C336.4,132.1 340.2,131.8 344.0,131.1 C347.8,130.4 351.6,129.0 355.4,128.3 C359.2,127.6 363.0,127.3 366.8,126.9 C370.6,126.5 374.4,126.3 378.2,126.0 C381.9,125.8 385.7,125.8 389.5,125.3 C393.3,124.9 397.1,124.0 400.9,123.6 C404.7,123.1 408.5,122.8 412.3,122.5 C416.1,122.2 419.9,122.0 423.7,121.7 C427.5,121.5 431.3,121.3 435.1,121.1 C438.9,120.9 442.7,120.6 446.5,120.4 C450.3,120.3 454.1,120.3 457.8,120.2 C461.6,120.2 465.4,121.0 469.2,120.2 C473.0,119.4 476.8,116.5 480.6,115.5 C484.4,114.5 488.2,114.6 492.0,114.2 C495.8,113.7 499.6,113.3 503.4,112.8 C507.2,112.4 511.0,111.9 514.8,111.6 C518.6,111.3 522.4,111.2 526.2,111.0 C529.9,110.8 533.7,110.4 537.5,110.2 C541.3,110.0 545.1,110.1 548.9,109.7 C552.7,109.4 556.5,108.6 560.3,108.1 C564.1,107.7 567.9,107.6 571.7,107.2 C575.5,106.9 579.3,106.4 583.1,106.2 C586.9,105.9 590.7,106.0 594.5,105.7 C598.3,105.5 602.1,104.8 605.8,104.5 C609.6,104.2 613.4,104.2 617.2,104.0 C621.0,103.7 624.8,103.5 628.6,103.2 C632.4,102.9 638.1,102.3 640.0,102.2" fill="none" class="line-total" stroke-width="2.5" stroke-linecap="round" stroke-linejoin="round"/>

  <circle cx="640" cy="102.17999999999999" r="4.5" class="dot-total" stroke-width="2"/>
    <text x="658" y="106.17999999999999" class="end-label" font-family="-apple-system, BlinkMacSystemFont, 'Segoe UI', Helvetica, sans-serif">Total</text>
    <text x="697" y="106.17999999999999" class="end-value" font-family="-apple-system, BlinkMacSystemFont, 'Segoe UI', Helvetica, sans-serif">2.1k</text>
    <circle cx="640" cy="111.984" r="3.5" class="dot-openvsx" stroke-width="1.8"/>
    <text x="658" y="124.17999999999999" class="end-label" font-family="-apple-system, BlinkMacSystemFont, 'Segoe UI', Helvetica, sans-serif">Open VSX</text>
    <text x="716.8" y="124.17999999999999" class="end-value" font-family="-apple-system, BlinkMacSystemFont, 'Segoe UI', Helvetica, sans-serif">1.9k</text>
    <circle cx="640" cy="210.196" r="3.5" class="dot-vscode" stroke-width="1.8"/>
    <text x="658" y="214.196" class="end-label" font-family="-apple-system, BlinkMacSystemFont, 'Segoe UI', Helvetica, sans-serif">VS Code</text>
    <text x="710.2" y="214.196" class="end-value" font-family="-apple-system, BlinkMacSystemFont, 'Segoe UI', Helvetica, sans-serif">171</text>
</svg>