<svg xmlns="http://www.w3.org/2000/svg" viewBox="0 0 760 260" width="760" height="260" role="img" aria-label="Glassy install history">
  <style>
  svg { color-scheme: light dark; }
  .title      { fill: #1a1a2e; font-size: 15px; font-weight: 600; }
  .subtitle   { fill: #6b7280; font-size: 11px; font-weight: 400; }
  .grid       { stroke: #e8e8ee; }
  .axis-label { fill: #8a8a9a; font-size: 10px; }
  .line-total   { stroke: #e8553d; }
  .line-vscode  { stroke: #5b7cfa; }
  .line-openvsx { stroke: #34c7a0; }
  .dot-total   { fill: transparent; stroke: #e8553d; }
  .dot-vscode  { fill: transparent; stroke: #5b7cfa; }
  .dot-openvsx { fill: transparent; stroke: #34c7a0; }
  .end-label       { fill: #1a1a2e; font-size: 11px; font-weight: 600; }
  .end-value       { fill: #6b7280; font-size: 11px; font-weight: 400; }
  .area-total-top    { stop-color: #e8553d; }
  .area-total-bottom { stop-color: #e8553d; }

  @media (prefers-color-scheme: dark) {
    .title      { fill: #e2e2e8; }
    .subtitle   { fill: #8b949e; }
    .grid       { stroke: #2d2d3d; }
    .axis-label { fill: #6e7681; }
    .line-total   { stroke: #ff9b85; }
    .line-vscode  { stroke: #8da4ff; }
    .line-openvsx { stroke: #5eead4; }
    .dot-total   { stroke: #ff9b85; }
    .dot-vscode  { stroke: #8da4ff; }
    .dot-openvsx { stroke: #5eead4; }
    .end-label       { fill: #e2e2e8; }
    .end-value       { fill: #8b949e; }
    .area-total-top    { stop-color: #ff9b85; }
    .area-total-bottom { stop-color: #ff9b85; }
  }
</style>
  <defs>
    <linearGradient id="areaGrad" x1="0" y1="0" x2="0" y2="1">
      <stop offset="0%" class="area-total-top" stop-opacity="0.18"/>
      <stop offset="60%" class="area-total-bottom" stop-opacity="0.04"/>
      <stop offset="100%" class="area-total-bottom" stop-opacity="0"/>
    </linearGradient>
  </defs>

  <text x="48" y="22" class="title" font-family="-apple-system, BlinkMacSystemFont, 'Segoe UI', Helvetica, sans-serif">Installs</text>
  <text x="48" y="37" class="subtitle" font-family="-apple-system, BlinkMacSystemFont, 'Segoe UI', Helvetica, sans-serif">Updated Jun 18</text>

  <line x1="48" y1="220" x2="640" y2="220" class="grid" stroke-width="0.7"/>
    <text x="40" y="223.5" class="axis-label" text-anchor="end" font-family="-apple-system, BlinkMacSystemFont, 'Segoe UI', Helvetica, sans-serif">0</text>
    <line x1="48" y1="162.66666666666669" x2="640" y2="162.66666666666669" class="grid" stroke-width="0.7"/>
    <text x="40" y="166.16666666666669" class="axis-label" text-anchor="end" font-family="-apple-system, BlinkMacSystemFont, 'Segoe UI', Helvetica, sans-serif">1k</text>
    <line x1="48" y1="105.33333333333334" x2="640" y2="105.33333333333334" class="grid" stroke-width="0.7"/>
    <text x="40" y="108.83333333333334" class="axis-label" text-anchor="end" font-family="-apple-system, BlinkMacSystemFont, 'Segoe UI', Helvetica, sans-serif">2k</text>
    <line x1="48" y1="48" x2="640" y2="48" class="grid" stroke-width="0.7"/>
    <text x="40" y="51.5" class="axis-label" text-anchor="end" font-family="-apple-system, BlinkMacSystemFont, 'Segoe UI', Helvetica, sans-serif">3k</text>
  <text x="48" y="248" class="axis-label" text-anchor="middle" font-family="-apple-system, BlinkMacSystemFont, 'Segoe UI', Helvetica, sans-serif">Mar 27</text>
    <text x="168.59259259259258" y="248" class="axis-label" text-anchor="middle" font-family="-apple-system, BlinkMacSystemFont, 'Segoe UI', Helvetica, sans-serif">May 6</text>
    <text x="289.18518518518516" y="248" class="axis-label" text-anchor="middle" font-family="-apple-system, BlinkMacSystemFont, 'Segoe UI', Helvetica, sans-serif">May 17</text>
    <text x="398.8148148148148" y="248" class="axis-label" text-anchor="middle" font-family="-apple-system, BlinkMacSystemFont, 'Segoe UI', Helvetica, sans-serif">May 27</text>
    <text x="519.4074074074074" y="248" class="axis-label" text-anchor="middle" font-family="-apple-system, BlinkMacSystemFont, 'Segoe UI', Helvetica, sans-serif">Jun 7</text>
    <text x="640" y="248" class="axis-label" text-anchor="middle" font-family="-apple-system, BlinkMacSystemFont, 'Segoe UI', Helvetica, sans-serif">Jun 18</text>

  <path d="M48.0,219.8 C49.8,218.4 55.3,213.7 59.0,211.7 C62.6,209.7 66.3,209.1 69.9,207.7 C73.6,206.4 77.2,204.4 80.9,203.7 C84.5,203.0 88.2,205.0 91.9,203.5 C95.5,202.0 99.2,196.6 102.8,194.9 C106.5,193.2 110.1,200.1 113.8,193.2 C117.4,186.2 121.1,160.3 124.7,153.3 C128.4,146.3 132.0,151.7 135.7,151.3 C139.4,150.8 143.0,150.7 146.7,150.5 C150.3,150.3 154.0,150.2 157.6,150.1 C161.3,150.0 164.9,149.9 168.6,149.7 C172.2,149.5 175.9,149.1 179.6,148.7 C183.2,148.2 186.9,147.4 190.5,147.0 C194.2,146.5 197.8,146.3 201.5,146.1 C205.1,145.9 208.8,146.0 212.4,145.6 C216.1,145.2 219.8,144.1 223.4,143.6 C227.1,143.1 230.7,142.9 234.4,142.6 C238.0,142.3 241.7,142.0 245.3,141.7 C249.0,141.4 252.6,141.4 256.3,140.8 C260.0,140.2 263.6,138.7 267.3,138.0 C270.9,137.4 274.6,137.2 278.2,136.9 C281.9,136.6 285.5,136.4 289.2,136.2 C292.8,136.1 296.5,136.5 300.1,136.1 C303.8,135.7 307.5,134.4 311.1,133.8 C314.8,133.2 318.4,133.0 322.1,132.5 C325.7,132.1 329.4,131.8 333.0,131.1 C336.7,130.4 340.3,129.0 344.0,128.3 C347.7,127.6 351.3,127.3 355.0,126.9 C358.6,126.5 362.3,126.3 365.9,126.0 C369.6,125.8 373.2,125.8 376.9,125.3 C380.5,124.9 384.2,124.0 387.9,123.6 C391.5,123.1 395.2,122.8 398.8,122.5 C402.5,122.2 406.1,122.0 409.8,121.7 C413.4,121.5 417.1,121.3 420.7,121.1 C424.4,120.9 428.0,120.6 431.7,120.4 C435.4,120.3 439.0,120.3 442.7,120.2 C446.3,120.2 450.0,121.0 453.6,120.2 C457.3,119.4 460.9,116.5 464.6,115.5 C468.2,114.5 471.9,114.6 475.6,114.2 C479.2,113.7 482.9,113.3 486.5,112.8 C490.2,112.4 493.8,111.9 497.5,111.6 C501.1,111.3 504.8,111.2 508.4,111.0 C512.1,110.8 515.8,110.4 519.4,110.2 C523.1,110.0 526.7,110.1 530.4,109.7 C534.0,109.4 537.7,108.6 541.3,108.1 C545.0,107.7 548.6,107.6 552.3,107.2 C556.0,106.9 559.6,106.4 563.3,106.2 C566.9,105.9 570.6,106.0 574.2,105.7 C577.9,105.5 581.5,104.8 585.2,104.5 C588.8,104.2 592.5,104.2 596.1,104.0 C599.8,103.7 603.5,103.5 607.1,103.2 C610.8,102.9 614.4,102.5 618.1,102.2 C621.7,101.9 625.4,101.5 629.0,101.2 C632.7,100.9 638.2,100.5 640.0,100.3 L640.0,220.0 L48.0,220.0 Z" fill="url(#areaGrad)"/>
  <path d="M48.0,219.8 C49.8,218.5 55.3,213.8 59.0,211.9 C62.6,210.0 66.3,209.5 69.9,208.4 C73.6,207.3 77.2,205.6 80.9,205.1 C84.5,204.5 88.2,206.5 91.9,205.1 C95.5,203.7 99.2,198.4 102.8,196.8 C106.5,195.2 110.1,201.7 113.8,195.5 C117.4,189.2 121.1,165.5 124.7,159.1 C128.4,152.7 132.0,157.7 135.7,157.3 C139.4,156.9 143.0,156.8 146.7,156.7 C150.3,156.6 154.0,156.6 157.6,156.5 C161.3,156.4 164.9,156.4 168.6,156.1 C172.2,155.9 175.9,155.6 179.6,155.1 C183.2,154.6 186.9,153.7 190.5,153.4 C194.2,153.0 197.8,153.1 201.5,152.9 C205.1,152.8 208.8,153.0 212.4,152.6 C216.1,152.2 219.8,151.1 223.4,150.6 C227.1,150.1 230.7,150.0 234.4,149.7 C238.0,149.4 241.7,149.2 245.3,148.9 C249.0,148.6 252.6,148.6 256.3,148.0 C260.0,147.4 263.6,145.9 267.3,145.2 C270.9,144.6 274.6,144.5 278.2,144.2 C281.9,143.9 285.5,143.7 289.2,143.5 C292.8,143.4 296.5,143.8 300.1,143.4 C303.8,143.0 307.5,141.8 311.1,141.2 C314.8,140.7 318.4,140.5 322.1,140.1 C325.7,139.7 329.4,139.6 333.0,138.9 C336.7,138.3 340.3,136.9 344.0,136.3 C347.7,135.6 351.3,135.4 355.0,135.0 C358.6,134.7 362.3,134.5 365.9,134.2 C369.6,134.0 373.2,134.0 376.9,133.7 C380.5,133.3 384.2,132.5 387.9,132.1 C391.5,131.6 395.2,131.4 398.8,131.1 C402.5,130.9 406.1,130.6 409.8,130.4 C413.4,130.3 417.1,130.2 420.7,130.0 C424.4,129.8 428.0,129.5 431.7,129.4 C435.4,129.3 439.0,129.4 442.7,129.4 C446.3,129.4 450.0,130.2 453.6,129.4 C457.3,128.7 460.9,125.9 464.6,124.9 C468.2,124.0 471.9,124.0 475.6,123.6 C479.2,123.1 482.9,122.7 486.5,122.3 C490.2,121.9 493.8,121.3 497.5,121.0 C501.1,120.7 504.8,120.7 508.4,120.5 C512.1,120.2 515.8,119.9 519.4,119.7 C523.1,119.5 526.7,119.6 530.4,119.2 C534.0,118.9 537.7,118.0 541.3,117.6 C545.0,117.2 548.6,117.0 552.3,116.7 C556.0,116.4 559.6,115.9 563.3,115.7 C566.9,115.4 570.6,115.5 574.2,115.2 C577.9,114.9 581.5,114.3 585.2,114.0 C588.8,113.8 592.5,113.8 596.1,113.6 C599.8,113.4 603.5,113.2 607.1,112.9 C610.8,112.6 614.4,112.3 618.1,112.0 C621.7,111.7 625.4,111.4 629.0,111.1 C632.7,110.8 638.2,110.4 640.0,110.3" fill="none" class="line-openvsx" stroke-width="1.8" stroke-linecap="round" stroke-linejoin="round"/>
  <path d="M48.0,219.9 C49.8,219.9 55.3,219.9 59.0,219.8 C62.6,219.7 66.3,219.5 69.9,219.3 C73.6,219.1 77.2,218.8 80.9,218.6 C84.5,218.5 88.2,218.5 91.9,218.4 C95.5,218.3 99.2,218.2 102.8,218.1 C106.5,217.9 110.1,218.3 113.8,217.7 C117.4,217.1 121.1,214.8 124.7,214.2 C128.4,213.6 132.0,214.0 135.7,214.0 C139.4,213.9 143.0,213.9 146.7,213.8 C150.3,213.8 154.0,213.7 157.6,213.6 C161.3,213.6 164.9,213.6 168.6,213.6 C172.2,213.6 175.9,213.6 179.6,213.6 C183.2,213.6 186.9,213.6 190.5,213.6 C194.2,213.5 197.8,213.3 201.5,213.2 C205.1,213.1 208.8,213.1 212.4,213.1 C216.1,213.0 219.8,213.0 223.4,213.0 C227.1,213.0 230.7,212.9 234.4,212.9 C238.0,212.9 241.7,212.8 245.3,212.8 C249.0,212.8 252.6,212.8 256.3,212.8 C260.0,212.8 263.6,212.8 267.3,212.8 C270.9,212.8 274.6,212.7 278.2,212.7 C281.9,212.7 285.5,212.7 289.2,212.7 C292.8,212.7 296.5,212.7 300.1,212.7 C303.8,212.6 307.5,212.6 311.1,212.5 C314.8,212.5 318.4,212.5 322.1,212.4 C325.7,212.4 329.4,212.2 333.0,212.1 C336.7,212.1 340.3,212.0 344.0,212.0 C347.7,211.9 351.3,211.9 355.0,211.9 C358.6,211.8 362.3,211.8 365.9,211.8 C369.6,211.8 373.2,211.7 376.9,211.7 C380.5,211.6 384.2,211.6 387.9,211.5 C391.5,211.5 395.2,211.4 398.8,211.4 C402.5,211.4 406.1,211.3 409.8,211.3 C413.4,211.2 417.1,211.2 420.7,211.1 C424.4,211.1 428.0,211.0 431.7,211.0 C435.4,211.0 439.0,210.9 442.7,210.8 C446.3,210.8 450.0,210.8 453.6,210.8 C457.3,210.7 460.9,210.6 464.6,210.6 C468.2,210.6 471.9,210.6 475.6,210.6 C479.2,210.6 482.9,210.5 486.5,210.5 C490.2,210.5 493.8,210.5 497.5,210.5 C501.1,210.5 504.8,210.5 508.4,210.5 C512.1,210.5 515.8,210.5 519.4,210.5 C523.1,210.5 526.7,210.5 530.4,210.5 C534.0,210.5 537.7,210.5 541.3,210.5 C545.0,210.5 548.6,210.5 552.3,210.5 C556.0,210.5 559.6,210.5 563.3,210.5 C566.9,210.5 570.6,210.5 574.2,210.5 C577.9,210.5 581.5,210.5 585.2,210.5 C588.8,210.5 592.5,210.4 596.1,210.4 C599.8,210.3 603.5,210.3 607.1,210.3 C610.8,210.2 614.4,210.2 618.1,210.2 C621.7,210.2 625.4,210.2 629.0,210.1 C632.7,210.1 638.2,210.1 640.0,210.1" fill="none" class="line-vscode" stroke-width="1.8" stroke-linecap="round" stroke-linejoin="round"/>
  <path d="M48.0,219.8 C49.8,218.4 55.3,213.7 59.0,211.7 C62.6,209.7 66.3,209.1 69.9,207.7 C73.6,206.4 77.2,204.4 80.9,203.7 C84.5,203.0 88.2,205.0 91.9,203.5 C95.5,202.0 99.2,196.6 102.8,194.9 C106.5,193.2 110.1,200.1 113.8,193.2 C117.4,186.2 121.1,160.3 124.7,153.3 C128.4,146.3 132.0,151.7 135.7,151.3 C139.4,150.8 143.0,150.7 146.7,150.5 C150.3,150.3 154.0,150.2 157.6,150.1 C161.3,150.0 164.9,149.9 168.6,149.7 C172.2,149.5 175.9,149.1 179.6,148.7 C183.2,148.2 186.9,147.4 190.5,147.0 C194.2,146.5 197.8,146.3 201.5,146.1 C205.1,145.9 208.8,146.0 212.4,145.6 C216.1,145.2 219.8,144.1 223.4,143.6 C227.1,143.1 230.7,142.9 234.4,142.6 C238.0,142.3 241.7,142.0 245.3,141.7 C249.0,141.4 252.6,141.4 256.3,140.8 C260.0,140.2 263.6,138.7 267.3,138.0 C270.9,137.4 274.6,137.2 278.2,136.9 C281.9,136.6 285.5,136.4 289.2,136.2 C292.8,136.1 296.5,136.5 300.1,136.1 C303.8,135.7 307.5,134.4 311.1,133.8 C314.8,133.2 318.4,133.0 322.1,132.5 C325.7,132.1 329.4,131.8 333.0,131.1 C336.7,130.4 340.3,129.0 344.0,128.3 C347.7,127.6 351.3,127.3 355.0,126.9 C358.6,126.5 362.3,126.3 365.9,126.0 C369.6,125.8 373.2,125.8 376.9,125.3 C380.5,124.9 384.2,124.0 387.9,123.6 C391.5,123.1 395.2,122.8 398.8,122.5 C402.5,122.2 406.1,122.0 409.8,121.7 C413.4,121.5 417.1,121.3 420.7,121.1 C424.4,120.9 428.0,120.6 431.7,120.4 C435.4,120.3 439.0,120.3 442.7,120.2 C446.3,120.2 450.0,121.0 453.6,120.2 C457.3,119.4 460.9,116.5 464.6,115.5 C468.2,114.5 471.9,114.6 475.6,114.2 C479.2,113.7 482.9,113.3 486.5,112.8 C490.2,112.4 493.8,111.9 497.5,111.6 C501.1,111.3 504.8,111.2 508.4,111.0 C512.1,110.8 515.8,110.4 519.4,110.2 C523.1,110.0 526.7,110.1 530.4,109.7 C534.0,109.4 537.7,108.6 541.3,108.1 C545.0,107.7 548.6,107.6 552.3,107.2 C556.0,106.9 559.6,106.4 563.3,106.2 C566.9,105.9 570.6,106.0 574.2,105.7 C577.9,105.5 581.5,104.8 585.2,104.5 C588.8,104.2 592.5,104.2 596.1,104.0 C599.8,103.7 603.5,103.5 607.1,103.2 C610.8,102.9 614.4,102.5 618.1,102.2 C621.7,101.9 625.4,101.5 629.0,101.2 C632.7,100.9 638.2,100.5 640.0,100.3" fill="none" class="line-total" stroke-width="2.5" stroke-linecap="round" stroke-linejoin="round"/>

  <circle cx="640" cy="100.34533333333333" r="4.5" class="dot-total" stroke-width="2"/>
    <text x="658" y="104.34533333333333" class="end-label" font-family="-apple-system, BlinkMacSystemFont, 'Segoe UI', Helvetica, sans-serif">Total</text>
    <text x="697" y="104.34533333333333" class="end-value" font-family="-apple-system, BlinkMacSystemFont, 'Segoe UI', Helvetica, sans-serif">2.1k</text>
    <circle cx="640" cy="110.264" r="3.5" class="dot-openvsx" stroke-width="1.8"/>
    <text x="658" y="122.34533333333333" class="end-label" font-family="-apple-system, BlinkMacSystemFont, 'Segoe UI', Helvetica, sans-serif">Open VSX</text>
    <text x="716.8" y="122.34533333333333" class="end-value" font-family="-apple-system, BlinkMacSystemFont, 'Segoe UI', Helvetica, sans-serif">1.9k</text>
    <circle cx="640" cy="210.08133333333333" r="3.5" class="dot-vscode" stroke-width="1.8"/>
    <text x="658" y="214.08133333333333" class="end-label" font-family="-apple-system, BlinkMacSystemFont, 'Segoe UI', Helvetica, sans-serif">VS Code</text>
    <text x="710.2" y="214.08133333333333" class="end-value" font-family="-apple-system, BlinkMacSystemFont, 'Segoe UI', Helvetica, sans-serif">173</text>
</svg>