<svg xmlns="http://www.w3.org/2000/svg" viewBox="0 0 760 260" width="760" height="260" role="img" aria-label="Glassy install history">
  <style>
  svg { color-scheme: light dark; }
  .title      { fill: #1a1a2e; font-size: 15px; font-weight: 600; }
  .subtitle   { fill: #6b7280; font-size: 11px; font-weight: 400; }
  .grid       { stroke: #e8e8ee; }
  .axis-label { fill: #8a8a9a; font-size: 10px; }
  .line-total   { stroke: #e8553d; }
  .line-vscode  { stroke: #5b7cfa; }
  .line-openvsx { stroke: #34c7a0; }
  .dot-total   { fill: transparent; stroke: #e8553d; }
  .dot-vscode  { fill: transparent; stroke: #5b7cfa; }
  .dot-openvsx { fill: transparent; stroke: #34c7a0; }
  .end-label       { fill: #1a1a2e; font-size: 11px; font-weight: 600; }
  .end-value       { fill: #6b7280; font-size: 11px; font-weight: 400; }
  .area-total-top    { stop-color: #e8553d; }
  .area-total-bottom { stop-color: #e8553d; }

  @media (prefers-color-scheme: dark) {
    .title      { fill: #e2e2e8; }
    .subtitle   { fill: #8b949e; }
    .grid       { stroke: #2d2d3d; }
    .axis-label { fill: #6e7681; }
    .line-total   { stroke: #ff9b85; }
    .line-vscode  { stroke: #8da4ff; }
    .line-openvsx { stroke: #5eead4; }
    .dot-total   { stroke: #ff9b85; }
    .dot-vscode  { stroke: #8da4ff; }
    .dot-openvsx { stroke: #5eead4; }
    .end-label       { fill: #e2e2e8; }
    .end-value       { fill: #8b949e; }
    .area-total-top    { stop-color: #ff9b85; }
    .area-total-bottom { stop-color: #ff9b85; }
  }
</style>
  <defs>
    <linearGradient id="areaGrad" x1="0" y1="0" x2="0" y2="1">
      <stop offset="0%" class="area-total-top" stop-opacity="0.18"/>
      <stop offset="60%" class="area-total-bottom" stop-opacity="0.04"/>
      <stop offset="100%" class="area-total-bottom" stop-opacity="0"/>
    </linearGradient>
  </defs>

  <text x="48" y="22" class="title" font-family="-apple-system, BlinkMacSystemFont, 'Segoe UI', Helvetica, sans-serif">Installs</text>
  <text x="48" y="37" class="subtitle" font-family="-apple-system, BlinkMacSystemFont, 'Segoe UI', Helvetica, sans-serif">Updated May 18</text>

  <line x1="48" y1="220" x2="640" y2="220" class="grid" stroke-width="0.7"/>
    <text x="40" y="223.5" class="axis-label" text-anchor="end" font-family="-apple-system, BlinkMacSystemFont, 'Segoe UI', Helvetica, sans-serif">0</text>
    <line x1="48" y1="162.66666666666669" x2="640" y2="162.66666666666669" class="grid" stroke-width="0.7"/>
    <text x="40" y="166.16666666666669" class="axis-label" text-anchor="end" font-family="-apple-system, BlinkMacSystemFont, 'Segoe UI', Helvetica, sans-serif">500</text>
    <line x1="48" y1="105.33333333333334" x2="640" y2="105.33333333333334" class="grid" stroke-width="0.7"/>
    <text x="40" y="108.83333333333334" class="axis-label" text-anchor="end" font-family="-apple-system, BlinkMacSystemFont, 'Segoe UI', Helvetica, sans-serif">1k</text>
    <line x1="48" y1="48" x2="640" y2="48" class="grid" stroke-width="0.7"/>
    <text x="40" y="51.5" class="axis-label" text-anchor="end" font-family="-apple-system, BlinkMacSystemFont, 'Segoe UI', Helvetica, sans-serif">1.5k</text>
  <text x="48" y="248" class="axis-label" text-anchor="middle" font-family="-apple-system, BlinkMacSystemFont, 'Segoe UI', Helvetica, sans-serif">Mar 27</text>
    <text x="176.69565217391303" y="248" class="axis-label" text-anchor="middle" font-family="-apple-system, BlinkMacSystemFont, 'Segoe UI', Helvetica, sans-serif">Apr 1</text>
    <text x="279.6521739130435" y="248" class="axis-label" text-anchor="middle" font-family="-apple-system, BlinkMacSystemFont, 'Segoe UI', Helvetica, sans-serif">May 4</text>
    <text x="408.34782608695656" y="248" class="axis-label" text-anchor="middle" font-family="-apple-system, BlinkMacSystemFont, 'Segoe UI', Helvetica, sans-serif">May 9</text>
    <text x="511.304347826087" y="248" class="axis-label" text-anchor="middle" font-family="-apple-system, BlinkMacSystemFont, 'Segoe UI', Helvetica, sans-serif">May 13</text>
    <text x="640" y="248" class="axis-label" text-anchor="middle" font-family="-apple-system, BlinkMacSystemFont, 'Segoe UI', Helvetica, sans-serif">May 18</text>

  <path d="M48.0,219.5 C52.3,216.8 65.2,207.4 73.7,203.4 C82.3,199.4 90.9,198.1 99.5,195.5 C108.1,192.8 116.6,188.8 125.2,187.4 C133.8,186.0 142.4,189.9 151.0,187.0 C159.5,184.0 168.1,173.2 176.7,169.8 C185.3,166.3 193.9,180.2 202.4,166.3 C211.0,152.5 219.6,100.6 228.2,86.6 C236.8,72.7 245.3,83.5 253.9,82.5 C262.5,81.6 271.1,81.4 279.7,81.0 C288.2,80.6 296.8,80.5 305.4,80.2 C314.0,80.0 322.6,79.9 331.1,79.4 C339.7,78.9 348.3,78.3 356.9,77.4 C365.4,76.4 374.0,74.8 382.6,73.9 C391.2,73.1 399.8,72.6 408.3,72.2 C416.9,71.8 425.5,72.1 434.1,71.3 C442.7,70.5 451.2,68.3 459.8,67.3 C468.4,66.3 477.0,65.8 485.6,65.2 C494.1,64.6 502.7,64.1 511.3,63.5 C519.9,62.9 528.5,62.9 537.0,61.6 C545.6,60.4 554.2,57.3 562.8,56.0 C571.4,54.7 579.9,54.4 588.5,53.8 C597.1,53.3 605.7,52.8 614.3,52.5 C622.8,52.2 635.7,52.2 640.0,52.1 L640.0,220.0 L48.0,220.0 Z" fill="url(#areaGrad)"/>
  <path d="M48.0,219.7 C52.3,217.0 65.2,207.5 73.7,203.7 C82.3,199.9 90.9,199.1 99.5,196.8 C108.1,194.6 116.6,191.3 125.2,190.2 C133.8,189.1 142.4,192.9 151.0,190.2 C159.5,187.4 168.1,176.9 176.7,173.7 C185.3,170.5 193.9,183.5 202.4,170.9 C211.0,158.3 219.6,111.0 228.2,98.2 C236.8,85.5 245.3,95.4 253.9,94.6 C262.5,93.8 271.1,93.7 279.7,93.4 C288.2,93.1 296.8,93.1 305.4,92.9 C314.0,92.8 322.6,92.7 331.1,92.3 C339.7,91.8 348.3,91.1 356.9,90.2 C365.4,89.3 374.0,87.5 382.6,86.8 C391.2,86.0 399.8,86.1 408.3,85.8 C416.9,85.6 425.5,85.9 434.1,85.2 C442.7,84.4 451.2,82.2 459.8,81.3 C468.4,80.3 477.0,80.0 485.6,79.4 C494.1,78.8 502.7,78.4 511.3,77.8 C519.9,77.2 528.5,77.2 537.0,76.0 C545.6,74.8 554.2,71.7 562.8,70.5 C571.4,69.2 579.9,69.0 588.5,68.4 C597.1,67.8 605.7,67.3 614.3,67.0 C622.8,66.8 635.7,66.8 640.0,66.8" fill="none" class="line-openvsx" stroke-width="1.8" stroke-linecap="round" stroke-linejoin="round"/>
  <path d="M48.0,219.9 C52.3,219.8 65.2,219.9 73.7,219.7 C82.3,219.4 90.9,219.0 99.5,218.6 C108.1,218.2 116.6,217.6 125.2,217.2 C133.8,216.9 142.4,217.0 151.0,216.8 C159.5,216.6 168.1,216.3 176.7,216.1 C185.3,215.9 193.9,216.7 202.4,215.4 C211.0,214.1 219.6,209.7 228.2,208.4 C236.8,207.2 245.3,208.1 253.9,208.0 C262.5,207.8 271.1,207.7 279.7,207.6 C288.2,207.5 296.8,207.3 305.4,207.3 C314.0,207.2 322.6,207.2 331.1,207.2 C339.7,207.1 348.3,207.2 356.9,207.2 C365.4,207.2 374.0,207.3 382.6,207.2 C391.2,207.0 399.8,206.5 408.3,206.4 C416.9,206.2 425.5,206.2 434.1,206.1 C442.7,206.1 451.2,206.1 459.8,206.0 C468.4,206.0 477.0,205.8 485.6,205.8 C494.1,205.7 502.7,205.7 511.3,205.7 C519.9,205.6 528.5,205.7 537.0,205.7 C545.6,205.6 554.2,205.6 562.8,205.6 C571.4,205.5 579.9,205.5 588.5,205.4 C597.1,205.4 605.7,205.5 614.3,205.4 C622.8,205.4 635.7,205.3 640.0,205.3" fill="none" class="line-vscode" stroke-width="1.8" stroke-linecap="round" stroke-linejoin="round"/>
  <path d="M48.0,219.5 C52.3,216.8 65.2,207.4 73.7,203.4 C82.3,199.4 90.9,198.1 99.5,195.5 C108.1,192.8 116.6,188.8 125.2,187.4 C133.8,186.0 142.4,189.9 151.0,187.0 C159.5,184.0 168.1,173.2 176.7,169.8 C185.3,166.3 193.9,180.2 202.4,166.3 C211.0,152.5 219.6,100.6 228.2,86.6 C236.8,72.7 245.3,83.5 253.9,82.5 C262.5,81.6 271.1,81.4 279.7,81.0 C288.2,80.6 296.8,80.5 305.4,80.2 C314.0,80.0 322.6,79.9 331.1,79.4 C339.7,78.9 348.3,78.3 356.9,77.4 C365.4,76.4 374.0,74.8 382.6,73.9 C391.2,73.1 399.8,72.6 408.3,72.2 C416.9,71.8 425.5,72.1 434.1,71.3 C442.7,70.5 451.2,68.3 459.8,67.3 C468.4,66.3 477.0,65.8 485.6,65.2 C494.1,64.6 502.7,64.1 511.3,63.5 C519.9,62.9 528.5,62.9 537.0,61.6 C545.6,60.4 554.2,57.3 562.8,56.0 C571.4,54.7 579.9,54.4 588.5,53.8 C597.1,53.3 605.7,52.8 614.3,52.5 C622.8,52.2 635.7,52.2 640.0,52.1" fill="none" class="line-total" stroke-width="2.5" stroke-linecap="round" stroke-linejoin="round"/>

  <circle cx="640" cy="52.128000000000014" r="4.5" class="dot-total" stroke-width="2"/>
    <text x="658" y="56.128000000000014" class="end-label" font-family="-apple-system, BlinkMacSystemFont, 'Segoe UI', Helvetica, sans-serif">Total</text>
    <text x="697" y="56.128000000000014" class="end-value" font-family="-apple-system, BlinkMacSystemFont, 'Segoe UI', Helvetica, sans-serif">1.5k</text>
    <circle cx="640" cy="66.80533333333332" r="3.5" class="dot-openvsx" stroke-width="1.8"/>
    <text x="658" y="74.12800000000001" class="end-label" font-family="-apple-system, BlinkMacSystemFont, 'Segoe UI', Helvetica, sans-serif">Open VSX</text>
    <text x="716.8" y="74.12800000000001" class="end-value" font-family="-apple-system, BlinkMacSystemFont, 'Segoe UI', Helvetica, sans-serif">1.3k</text>
    <circle cx="640" cy="205.32266666666666" r="3.5" class="dot-vscode" stroke-width="1.8"/>
    <text x="658" y="209.32266666666666" class="end-label" font-family="-apple-system, BlinkMacSystemFont, 'Segoe UI', Helvetica, sans-serif">VS Code</text>
    <text x="710.2" y="209.32266666666666" class="end-value" font-family="-apple-system, BlinkMacSystemFont, 'Segoe UI', Helvetica, sans-serif">128</text>
</svg>